<svg xmlns="http://www.w3.org/2000/svg" viewBox="0 0 31 30.92"><g data-name="Layer 2"><g data-name="Layer 1" fill="#1eddb2"><path d="M15.5 0A30.7 30.7 0 0 0 0 4.3a30.88 30.88 0 0 0 15.5 26.62A30.88 30.88 0 0 0 31 4.3 30.7 30.7 0 0 0 15.5 0zm0 27.94A24.94 24.94 0 0 1 3 6.45 24.79 24.79 0 0 1 15.5 3 24.79 24.79 0 0 1 28 6.45a24.94 24.94 0 0 1-12.5 21.49z"/><path d="M19 14.67a6.82 6.82 0 0 0-1.51-.82q-.84-.33-1.66-.62a5.27 5.27 0 0 1-1.38-.7 1.25 1.25 0 0 1-.52-1.06 1.19 1.19 0 0 1 .48-1 1.91 1.91 0 0 1 1.14-.34 1.51 1.51 0 0 1 1.23.51 2.14 2.14 0 0 1 .43 1.36h3.09a4.56 4.56 0 0 0-.24-1.47 3.77 3.77 0 0 0-.72-1.27 4.16 4.16 0 0 0-1.23-1 4.91 4.91 0 0 0-1.74-.5v-2h-1.7v2a5.65 5.65 0 0 0-1.48.38A4.09 4.09 0 0 0 12 9a3.51 3.51 0 0 0-.82 1.12 3.36 3.36 0 0 0-.31 1.45 3.6 3.6 0 0 0 .36 1.7 3.67 3.67 0 0 0 1 1.17 5.94 5.94 0 0 0 1.44.83q.83.34 1.74.69l.82.33a3.1 3.1 0 0 1 .66.37 1.68 1.68 0 0 1 .44.49 1.32 1.32 0 0 1 .16.68 1.42 1.42 0 0 1-.51 1.13 1.86 1.86 0 0 1-1.25.43 2.05 2.05 0 0 1-1.54-.61 2.34 2.34 0 0 1-.59-1.7h-3.12a5.14 5.14 0 0 0 .31 1.85 4.4 4.4 0 0 0 .87 1.42 4.21 4.21 0 0 0 1.33 1 5.61 5.61 0 0 0 1.69.48v2h1.7v-2a5.84 5.84 0 0 0 1.7-.42 4.15 4.15 0 0 0 1.31-.86 3.78 3.78 0 0 0 .85-1.28 4.34 4.34 0 0 0 .31-1.66 3.16 3.16 0 0 0-.43-1.69A4.15 4.15 0 0 0 19 14.67z" stroke="#1eddb2" stroke-miterlimit="10" stroke-width=".5"/></g></g></svg>