<?xml version="1.0" encoding="UTF-8" standalone="no"?>
<svg width="273px" height="580px" viewBox="0 0 273 580" version="1.1" xmlns="http://www.w3.org/2000/svg" xmlns:xlink="http://www.w3.org/1999/xlink">
    <!-- Generator: Sketch 39.1 (31720) - http://www.bohemiancoding.com/sketch -->
    <title>Group 3</title>
    <desc>Created with Sketch.</desc>
    <defs></defs>
    <g id="Page-1" stroke="none" stroke-width="1" fill="none" fill-rule="evenodd" opacity="1">
        <g id="Artboard" fill="#FFFFFF">
            <g id="Group-3" transform="translate(-1.000000, -16.000000)">
                <g id="Group-49" transform="translate(0.000000, 14.861000)">
                    <polygon id="Fill-1" points="0.2479 53.7018 0.2479 73.5968 17.4759 63.6498"></polygon>
                    <polygon id="Fill-3" points="0.2479 26.9997 0.2479 46.8897 17.4449 36.9287"></polygon>
                    <polygon id="Fill-5" points="46.4965 27.0038 46.4965 46.8958 63.7235 36.9488"></polygon>
                    <polygon id="Fill-7" points="19.4423 40.3122 2.2073 50.2962 19.4423 60.2482"></polygon>
                    <polygon id="Fill-9" points="2.2127 76.9994 19.4427 86.9474 19.4427 67.0524"></polygon>
                    <polygon id="Fill-11" points="23.3719 67.0543 23.3719 86.9553 40.6039 77.0043"></polygon>
                    <polygon id="Fill-13" points="48.4604 50.2983 65.6904 60.2463 65.6904 40.3503"></polygon>
                    <polygon id="Fill-15" points="25.3427 90.3538 42.5667 100.2988 42.5667 80.4078"></polygon>
                    <polygon id="Fill-17" points="63.7289 63.6505 46.4969 53.7015 46.4969 73.6015"></polygon>
                    <polygon id="Fill-19" points="23.3719 13.6546 23.3719 33.4946 40.5259 23.5576"></polygon>
                    <polygon id="Fill-21" points="42.5669 46.8957 42.5669 26.9167 25.2929 36.9227"></polygon>
                    <polygon id="Fill-23" points="42.5669 73.601 42.5669 53.701 25.3339 63.65"></polygon>
                    <polygon id="Fill-25" points="23.3719 40.3503 23.3719 60.2463 40.6019 50.2983"></polygon>
                    <polygon id="Fill-27" points="19.4423 33.5445 19.4423 13.6495 2.2123 23.5975"></polygon>
                    <polygon id="Fill-29" points="63.6156 10.1823 46.4966 0.2983 46.4966 20.0993"></polygon>
                    <polygon id="Fill-31" points="65.6909 33.5464 65.6909 13.5214 48.3769 23.5514"></polygon>
                    <polygon id="Fill-33" points="46.4965 100.2986 63.7215 90.3536 46.4965 80.4066"></polygon>
                    <polygon id="Fill-35" points="42.5669 0.2986 25.3329 10.2486 42.5669 20.1976"></polygon>
                    <polygon id="Fill-37" points="86.85 23.5972 69.62 13.6492 69.62 33.5442"></polygon>
                    <polygon id="Fill-39" points="69.6204 86.9474 86.8504 76.9994 69.6204 67.0524"></polygon>
                    <polygon id="Fill-41" points="48.4608 77.0042 65.6908 86.9532 65.6908 67.0542"></polygon>
                    <polygon id="Fill-43" points="69.6204 60.2485 86.8504 50.2995 69.6204 40.3525"></polygon>
                    <polygon id="Fill-45" points="88.8148 46.8954 88.8148 26.9994 71.5838 36.9484"></polygon>
                    <polygon id="Fill-47" points="88.8148 73.5968 88.8148 53.7018 71.5868 63.6498"></polygon>
                </g>
                <g id="Group-98" transform="translate(46.000000, 94.861000)">
                    <polygon id="Fill-50" points="0.5381 53.7788 0.5381 73.6738 17.7661 63.7268"></polygon>
                    <polygon id="Fill-52" points="0.5381 27.0767 0.5381 46.9667 17.7351 37.0047"></polygon>
                    <polygon id="Fill-54" points="46.7867 27.0809 46.7867 46.9729 64.0137 37.0259"></polygon>
                    <polygon id="Fill-56" points="19.7325 40.3892 2.4975 50.3732 19.7325 60.3252"></polygon>
                    <polygon id="Fill-58" points="2.5029 77.0764 19.7329 87.0244 19.7329 67.1294"></polygon>
                    <polygon id="Fill-60" points="23.6621 67.1313 23.6621 87.0313 40.8941 77.0813"></polygon>
                    <polygon id="Fill-62" points="48.7507 50.3752 65.9807 60.3232 65.9807 40.4272"></polygon>
                    <polygon id="Fill-64" points="25.6329 90.4308 42.8569 100.3758 42.8569 80.4848"></polygon>
                    <polygon id="Fill-66" points="64.0192 63.7274 46.7872 53.7784 46.7872 73.6784"></polygon>
                    <polygon id="Fill-68" points="23.6621 13.7316 23.6621 33.5716 40.8161 23.6346"></polygon>
                    <polygon id="Fill-70" points="42.8571 46.9727 42.8571 26.9937 25.5831 36.9997"></polygon>
                    <polygon id="Fill-72" points="42.8571 73.678 42.8571 53.778 25.6241 63.727"></polygon>
                    <polygon id="Fill-74" points="23.6621 40.4272 23.6621 60.3232 40.8921 50.3752"></polygon>
                    <polygon id="Fill-76" points="19.7325 33.6215 19.7325 13.7265 2.5025 23.6745"></polygon>
                    <polygon id="Fill-78" points="63.9058 10.2593 46.7868 0.3753 46.7868 20.1763"></polygon>
                    <polygon id="Fill-80" points="65.9811 33.6234 65.9811 13.5984 48.6671 23.6284"></polygon>
                    <polygon id="Fill-82" points="46.7867 100.3756 64.0117 90.4306 46.7867 80.4836"></polygon>
                    <polygon id="Fill-84" points="42.8571 0.3756 25.6231 10.3256 42.8571 20.2746"></polygon>
                    <polygon id="Fill-86" points="87.1402 23.6741 69.9102 13.7261 69.9102 33.6211"></polygon>
                    <polygon id="Fill-88" points="69.9106 87.0244 87.1406 77.0764 69.9106 67.1294"></polygon>
                    <polygon id="Fill-90" points="48.751 77.0812 65.981 87.0302 65.981 67.1312"></polygon>
                    <polygon id="Fill-92" points="69.9106 60.3255 87.1406 50.3765 69.9106 40.4295"></polygon>
                    <polygon id="Fill-94" points="89.105 46.9724 89.105 27.0764 71.874 37.0254"></polygon>
                    <polygon id="Fill-96" points="89.105 73.6738 89.105 53.7788 71.877 63.7268"></polygon>
                </g>
                <g id="Group-147" transform="translate(0.000000, 94.861000)">
                    <polygon id="Fill-103" points="0.2486 27.0809 0.2486 46.9729 17.4756 37.0259"></polygon>
                    <polygon id="Fill-111" points="2.2125 50.3752 19.4425 60.3232 19.4425 40.4272"></polygon>
                    <polygon id="Fill-115" points="17.481 63.7274 0.249 53.7784 0.249 73.6784"></polygon>
                    <polygon id="Fill-127" points="17.3677 10.2593 0.2487 0.3753 0.2487 20.1763"></polygon>
                    <polygon id="Fill-129" points="19.4429 33.6234 19.4429 13.5984 2.1289 23.6284"></polygon>
                    <polygon id="Fill-131" points="0.2486 100.3756 17.4736 90.4306 0.2486 80.4836"></polygon>
                    <polygon id="Fill-135" points="40.6021 23.6741 23.3721 13.7261 23.3721 33.6211"></polygon>
                    <polygon id="Fill-137" points="23.3725 87.0244 40.6025 77.0764 23.3725 67.1294"></polygon>
                    <polygon id="Fill-139" points="2.2129 77.0812 19.4429 87.0302 19.4429 67.1312"></polygon>
                    <polygon id="Fill-141" points="23.3725 60.3255 40.6025 50.3765 23.3725 40.4295"></polygon>
                    <polygon id="Fill-143" points="42.5669 46.9724 42.5669 27.0764 25.3359 37.0254"></polygon>
                    <polygon id="Fill-145" points="42.5669 73.6738 42.5669 53.7788 25.3389 63.7268"></polygon>
                </g>
                <g id="Group-196" transform="translate(0.000000, 174.861000)">
                    <polygon id="Fill-148" points="0.2479 53.8879 0.2479 73.7829 17.4759 63.8359"></polygon>
                    <polygon id="Fill-150" points="0.2479 27.1858 0.2479 47.0758 17.4449 37.1138"></polygon>
                    <polygon id="Fill-152" points="46.4965 27.19 46.4965 47.082 63.7235 37.135"></polygon>
                    <polygon id="Fill-154" points="19.4423 40.4983 2.2073 50.4823 19.4423 60.4343"></polygon>
                    <polygon id="Fill-156" points="2.2127 77.1855 19.4427 87.1335 19.4427 67.2385"></polygon>
                    <polygon id="Fill-158" points="23.3719 67.2404 23.3719 87.1404 40.6039 77.1904"></polygon>
                    <polygon id="Fill-160" points="48.4604 50.4844 65.6904 60.4324 65.6904 40.5364"></polygon>
                    <polygon id="Fill-162" points="25.3427 90.5399 42.5667 100.4849 42.5667 80.5939"></polygon>
                    <polygon id="Fill-164" points="63.7289 63.8365 46.4969 53.8875 46.4969 73.7875"></polygon>
                    <polygon id="Fill-166" points="23.3719 13.8407 23.3719 33.6807 40.5259 23.7437"></polygon>
                    <polygon id="Fill-168" points="42.5669 47.0818 42.5669 27.1028 25.2929 37.1088"></polygon>
                    <polygon id="Fill-170" points="42.5669 73.7871 42.5669 53.8871 25.3339 63.8361"></polygon>
                    <polygon id="Fill-172" points="23.3719 40.5364 23.3719 60.4324 40.6019 50.4844"></polygon>
                    <polygon id="Fill-174" points="19.4423 33.7306 19.4423 13.8356 2.2123 23.7836"></polygon>
                    <polygon id="Fill-176" points="63.6156 10.3684 46.4966 0.4844 46.4966 20.2854"></polygon>
                    <polygon id="Fill-178" points="65.6909 33.7325 65.6909 13.7075 48.3769 23.7375"></polygon>
                    <polygon id="Fill-180" points="46.4965 100.4847 63.7215 90.5397 46.4965 80.5927"></polygon>
                    <polygon id="Fill-182" points="42.5669 0.4847 25.3329 10.4347 42.5669 20.3837"></polygon>
                    <polygon id="Fill-184" points="86.85 23.7833 69.62 13.8353 69.62 33.7303"></polygon>
                    <polygon id="Fill-186" points="69.6204 87.1335 86.8504 77.1855 69.6204 67.2385"></polygon>
                    <polygon id="Fill-188" points="48.4608 77.1903 65.6908 87.1393 65.6908 67.2403"></polygon>
                    <polygon id="Fill-190" points="69.6204 60.4346 86.8504 50.4856 69.6204 40.5386"></polygon>
                    <polygon id="Fill-192" points="88.8148 47.0815 88.8148 27.1855 71.5838 37.1345"></polygon>
                    <polygon id="Fill-194" points="88.8148 73.783 88.8148 53.888 71.5868 63.836"></polygon>
                </g>
                <g id="Group-245" transform="translate(46.000000, 254.861000)">
                    <polygon id="Fill-197" points="0.5381 53.9649 0.5381 73.8599 17.7661 63.9129"></polygon>
                    <polygon id="Fill-199" points="0.5381 27.2628 0.5381 47.1528 17.7351 37.1908"></polygon>
                    <polygon id="Fill-201" points="46.7867 27.267 46.7867 47.159 64.0137 37.212"></polygon>
                    <polygon id="Fill-203" points="19.7325 40.5753 2.4975 50.5593 19.7325 60.5113"></polygon>
                    <polygon id="Fill-205" points="2.5029 77.2625 19.7329 87.2105 19.7329 67.3155"></polygon>
                    <polygon id="Fill-207" points="23.6621 67.3174 23.6621 87.2174 40.8941 77.2674"></polygon>
                    <polygon id="Fill-209" points="48.7507 50.5614 65.9807 60.5094 65.9807 40.6134"></polygon>
                    <polygon id="Fill-211" points="25.6329 90.6169 42.8569 100.5619 42.8569 80.6709"></polygon>
                    <polygon id="Fill-213" points="64.0192 63.9135 46.7872 53.9645 46.7872 73.8645"></polygon>
                    <polygon id="Fill-215" points="23.6621 13.9177 23.6621 33.7577 40.8161 23.8207"></polygon>
                    <polygon id="Fill-217" points="42.8571 47.1588 42.8571 27.1798 25.5831 37.1858"></polygon>
                    <polygon id="Fill-219" points="42.8571 73.8641 42.8571 53.9641 25.6241 63.9131"></polygon>
                    <polygon id="Fill-221" points="23.6621 40.6134 23.6621 60.5094 40.8921 50.5614"></polygon>
                    <polygon id="Fill-223" points="19.7325 33.8076 19.7325 13.9126 2.5025 23.8606"></polygon>
                    <polygon id="Fill-225" points="63.9058 10.4454 46.7868 0.5614 46.7868 20.3624"></polygon>
                    <polygon id="Fill-227" points="65.9811 33.8095 65.9811 13.7845 48.6671 23.8145"></polygon>
                    <polygon id="Fill-229" points="46.7867 100.5617 64.0117 90.6167 46.7867 80.6697"></polygon>
                    <polygon id="Fill-231" points="42.8571 0.5617 25.6231 10.5117 42.8571 20.4607"></polygon>
                    <polygon id="Fill-233" points="87.1402 23.8603 69.9102 13.9123 69.9102 33.8073"></polygon>
                    <polygon id="Fill-235" points="69.9106 87.2105 87.1406 77.2625 69.9106 67.3155"></polygon>
                    <polygon id="Fill-237" points="48.751 77.2673 65.981 87.2163 65.981 67.3173"></polygon>
                    <polygon id="Fill-239" points="69.9106 60.5116 87.1406 50.5626 69.9106 40.6156"></polygon>
                    <polygon id="Fill-241" points="89.105 47.1585 89.105 27.2625 71.874 37.2115"></polygon>
                    <polygon id="Fill-243" points="89.105 73.86 89.105 53.965 71.877 63.913"></polygon>
                </g>
                <g id="Group-294" transform="translate(0.000000, 254.861000)">
                    <polygon id="Fill-250" points="0.2486 27.267 0.2486 47.159 17.4756 37.212"></polygon>
                    <polygon id="Fill-258" points="2.2125 50.5614 19.4425 60.5094 19.4425 40.6134"></polygon>
                    <polygon id="Fill-262" points="17.481 63.9135 0.249 53.9645 0.249 73.8645"></polygon>
                    <polygon id="Fill-274" points="17.3677 10.4454 0.2487 0.5614 0.2487 20.3624"></polygon>
                    <polygon id="Fill-276" points="19.4429 33.8095 19.4429 13.7845 2.1289 23.8145"></polygon>
                    <polygon id="Fill-278" points="0.2486 100.5617 17.4736 90.6167 0.2486 80.6697"></polygon>
                    <polygon id="Fill-282" points="40.6021 23.8603 23.3721 13.9123 23.3721 33.8073"></polygon>
                    <polygon id="Fill-284" points="23.3725 87.2105 40.6025 77.2625 23.3725 67.3155"></polygon>
                    <polygon id="Fill-286" points="2.2129 77.2673 19.4429 87.2163 19.4429 67.3173"></polygon>
                    <polygon id="Fill-288" points="23.3725 60.5116 40.6025 50.5626 23.3725 40.6156"></polygon>
                    <polygon id="Fill-290" points="42.5669 47.1585 42.5669 27.2625 25.3359 37.2115"></polygon>
                    <polygon id="Fill-292" points="42.5669 73.86 42.5669 53.965 25.3389 63.913"></polygon>
                </g>
                <g id="Group-343" transform="translate(0.000000, 334.861000)">
                    <polygon id="Fill-295" points="0.2896 54.1401 0.2896 74.0351 17.5176 64.0881"></polygon>
                    <polygon id="Fill-297" points="0.2896 27.438 0.2896 47.328 17.4866 37.366"></polygon>
                    <polygon id="Fill-299" points="46.5381 27.4422 46.5381 47.3342 63.7651 37.3872"></polygon>
                    <polygon id="Fill-301" points="19.484 40.7505 2.249 50.7345 19.484 60.6865"></polygon>
                    <polygon id="Fill-303" points="2.2544 77.4377 19.4844 87.3857 19.4844 67.4907"></polygon>
                    <polygon id="Fill-305" points="23.4135 67.4926 23.4135 87.3926 40.6455 77.4426"></polygon>
                    <polygon id="Fill-307" points="48.5021 50.7366 65.7321 60.6846 65.7321 40.7886"></polygon>
                    <polygon id="Fill-309" points="25.3844 90.7921 42.6084 100.7371 42.6084 80.8461"></polygon>
                    <polygon id="Fill-311" points="63.7706 64.0887 46.5386 54.1397 46.5386 74.0397"></polygon>
                    <polygon id="Fill-313" points="23.4135 14.0929 23.4135 33.9329 40.5675 23.9959"></polygon>
                    <polygon id="Fill-315" points="42.6086 47.334 42.6086 27.355 25.3346 37.361"></polygon>
                    <polygon id="Fill-317" points="42.6086 74.0393 42.6086 54.1393 25.3756 64.0883"></polygon>
                    <polygon id="Fill-319" points="23.4135 40.7886 23.4135 60.6846 40.6435 50.7366"></polygon>
                    <polygon id="Fill-321" points="19.484 33.9828 19.484 14.0878 2.254 24.0358"></polygon>
                    <polygon id="Fill-323" points="63.6573 10.6206 46.5383 0.7366 46.5383 20.5376"></polygon>
                    <polygon id="Fill-325" points="65.7325 33.9847 65.7325 13.9597 48.4185 23.9897"></polygon>
                    <polygon id="Fill-327" points="46.5381 100.7369 63.7631 90.7919 46.5381 80.8449"></polygon>
                    <polygon id="Fill-329" points="42.6086 0.7369 25.3746 10.6869 42.6086 20.6359"></polygon>
                    <polygon id="Fill-331" points="86.8917 24.0354 69.6617 14.0874 69.6617 33.9824"></polygon>
                    <polygon id="Fill-333" points="69.6621 87.3857 86.8921 77.4377 69.6621 67.4907"></polygon>
                    <polygon id="Fill-335" points="48.5024 77.4425 65.7324 87.3915 65.7324 67.4925"></polygon>
                    <polygon id="Fill-337" points="69.6621 60.6868 86.8921 50.7378 69.6621 40.7908"></polygon>
                    <polygon id="Fill-339" points="88.8565 47.3337 88.8565 27.4377 71.6255 37.3867"></polygon>
                    <polygon id="Fill-341" points="88.8565 74.0351 88.8565 54.1401 71.6285 64.0881"></polygon>
                </g>
                <g id="Group-392" transform="translate(46.000000, 414.861000)">
                    <polygon id="Fill-344" points="0.5798 54.2171 0.5798 74.1121 17.8078 64.1651"></polygon>
                    <polygon id="Fill-346" points="0.5798 27.515 0.5798 47.405 17.7768 37.443"></polygon>
                    <polygon id="Fill-348" points="46.8284 27.5192 46.8284 47.4112 64.0554 37.4642"></polygon>
                    <polygon id="Fill-350" points="19.7742 40.8275 2.5392 50.8115 19.7742 60.7635"></polygon>
                    <polygon id="Fill-352" points="2.5446 77.5147 19.7746 87.4627 19.7746 67.5677"></polygon>
                    <polygon id="Fill-354" points="23.7038 67.5696 23.7038 87.4696 40.9358 77.5196"></polygon>
                    <polygon id="Fill-356" points="48.7923 50.8136 66.0223 60.7616 66.0223 40.8656"></polygon>
                    <polygon id="Fill-358" points="25.6746 90.8691 42.8986 100.8141 42.8986 80.9231"></polygon>
                    <polygon id="Fill-360" points="64.0608 64.1657 46.8288 54.2167 46.8288 74.1167"></polygon>
                    <polygon id="Fill-362" points="23.7038 14.1699 23.7038 34.0099 40.8578 24.0729"></polygon>
                    <polygon id="Fill-364" points="42.8988 47.411 42.8988 27.432 25.6248 37.438"></polygon>
                    <polygon id="Fill-366" points="42.8988 74.1163 42.8988 54.2163 25.6658 64.1653"></polygon>
                    <polygon id="Fill-368" points="23.7038 40.8656 23.7038 60.7616 40.9338 50.8136"></polygon>
                    <polygon id="Fill-370" points="19.7742 34.0598 19.7742 14.1648 2.5442 24.1128"></polygon>
                    <polygon id="Fill-372" points="63.9475 10.6976 46.8285 0.8136 46.8285 20.6146"></polygon>
                    <polygon id="Fill-374" points="66.0227 34.0617 66.0227 14.0367 48.7087 24.0667"></polygon>
                    <polygon id="Fill-376" points="46.8284 100.8139 64.0534 90.8689 46.8284 80.9219"></polygon>
                    <polygon id="Fill-378" points="42.8988 0.8139 25.6648 10.7639 42.8988 20.7129"></polygon>
                    <polygon id="Fill-380" points="87.1819 24.1124 69.9519 14.1644 69.9519 34.0594"></polygon>
                    <polygon id="Fill-382" points="69.9523 87.4627 87.1823 77.5147 69.9523 67.5677"></polygon>
                    <polygon id="Fill-384" points="48.7927 77.5195 66.0227 87.4685 66.0227 67.5695"></polygon>
                    <polygon id="Fill-386" points="69.9523 60.7638 87.1823 50.8148 69.9523 40.8678"></polygon>
                    <polygon id="Fill-388" points="89.1467 47.4107 89.1467 27.5147 71.9157 37.4637"></polygon>
                    <polygon id="Fill-390" points="89.1467 74.1121 89.1467 54.2171 71.9187 64.1651"></polygon>
                </g>
                <g id="Group-441" transform="translate(0.000000, 414.861000)">
                    <polygon id="Fill-397" points="0.2902 27.5192 0.2902 47.4112 17.5172 37.4642"></polygon>
                    <polygon id="Fill-405" points="2.2542 50.8136 19.4842 60.7616 19.4842 40.8656"></polygon>
                    <polygon id="Fill-409" points="17.5227 64.1657 0.2907 54.2167 0.2907 74.1167"></polygon>
                    <polygon id="Fill-421" points="17.4093 10.6976 0.2903 0.8136 0.2903 20.6146"></polygon>
                    <polygon id="Fill-423" points="19.4846 34.0617 19.4846 14.0367 2.1706 24.0667"></polygon>
                    <polygon id="Fill-425" points="0.2902 100.8139 17.5152 90.8689 0.2902 80.9219"></polygon>
                    <polygon id="Fill-429" points="40.6438 24.1124 23.4138 14.1644 23.4138 34.0594"></polygon>
                    <polygon id="Fill-431" points="23.4142 87.4627 40.6442 77.5147 23.4142 67.5677"></polygon>
                    <polygon id="Fill-433" points="2.2545 77.5195 19.4845 87.4685 19.4845 67.5695"></polygon>
                    <polygon id="Fill-435" points="23.4142 60.7638 40.6442 50.8148 23.4142 40.8678"></polygon>
                    <polygon id="Fill-437" points="42.6086 47.4107 42.6086 27.5147 25.3776 37.4637"></polygon>
                    <polygon id="Fill-439" points="42.6086 74.1121 42.6086 54.2171 25.3806 64.1651"></polygon>
                </g>
                <g id="Group-490" transform="translate(0.000000, 494.861000)">
                    <polygon id="Fill-442" points="0.2896 54.3262 0.2896 74.2212 17.5176 64.2742"></polygon>
                    <polygon id="Fill-444" points="0.2896 27.6241 0.2896 47.5141 17.4866 37.5521"></polygon>
                    <polygon id="Fill-446" points="46.5381 27.6283 46.5381 47.5203 63.7651 37.5733"></polygon>
                    <polygon id="Fill-448" points="19.484 40.9366 2.249 50.9206 19.484 60.8726"></polygon>
                    <polygon id="Fill-450" points="2.2544 77.6238 19.4844 87.5718 19.4844 67.6768"></polygon>
                    <polygon id="Fill-452" points="23.4135 67.6787 23.4135 87.5787 40.6455 77.6287"></polygon>
                    <polygon id="Fill-454" points="48.5021 50.9227 65.7321 60.8707 65.7321 40.9747"></polygon>
                    <polygon id="Fill-456" points="25.3844 90.9782 42.6084 100.9232 42.6084 81.0322"></polygon>
                    <polygon id="Fill-458" points="63.7706 64.2748 46.5386 54.3258 46.5386 74.2258"></polygon>
                    <polygon id="Fill-460" points="23.4135 14.279 23.4135 34.119 40.5675 24.182"></polygon>
                    <polygon id="Fill-462" points="42.6086 47.5201 42.6086 27.5411 25.3346 37.5471"></polygon>
                    <polygon id="Fill-464" points="42.6086 74.2254 42.6086 54.3254 25.3756 64.2744"></polygon>
                    <polygon id="Fill-466" points="23.4135 40.9747 23.4135 60.8707 40.6435 50.9227"></polygon>
                    <polygon id="Fill-468" points="19.484 34.1689 19.484 14.2739 2.254 24.2219"></polygon>
                    <polygon id="Fill-470" points="63.6573 10.8067 46.5383 0.9227 46.5383 20.7237"></polygon>
                    <polygon id="Fill-472" points="65.7325 34.1708 65.7325 14.1458 48.4185 24.1758"></polygon>
                    <polygon id="Fill-474" points="46.5381 100.923 63.7631 90.978 46.5381 81.031"></polygon>
                    <polygon id="Fill-476" points="42.6086 0.923 25.3746 10.873 42.6086 20.822"></polygon>
                    <polygon id="Fill-478" points="86.8917 24.2216 69.6617 14.2736 69.6617 34.1686"></polygon>
                    <polygon id="Fill-480" points="69.6621 87.5718 86.8921 77.6238 69.6621 67.6768"></polygon>
                    <polygon id="Fill-482" points="48.5024 77.6286 65.7324 87.5776 65.7324 67.6786"></polygon>
                    <polygon id="Fill-484" points="69.6621 60.8729 86.8921 50.9239 69.6621 40.9769"></polygon>
                    <polygon id="Fill-486" points="88.8565 47.5198 88.8565 27.6238 71.6255 37.5728"></polygon>
                    <polygon id="Fill-488" points="88.8565 74.2212 88.8565 54.3262 71.6285 64.2742"></polygon>
                </g>
                <g id="Group-540" transform="translate(48.000000, 575.861000)">
                    <polygon id="Fill-510" points="21.7038 13.356 21.7038 33.196 38.8578 23.259"></polygon>
                    <polygon id="Fill-518" points="17.7742 33.2459 17.7742 13.3509 0.5442 23.2989"></polygon>
                    <polygon id="Fill-520" points="61.9475 9.8837 44.8285 -0.0003 44.8285 19.8007"></polygon>
                    <polygon id="Fill-522" points="64.0227 33.2478 64.0227 13.2228 46.7087 23.2528"></polygon>
                    <polygon id="Fill-526" points="40.8988 0 23.6648 9.95 40.8988 19.899"></polygon>
                    <polygon id="Fill-528" points="85.1819 23.2986 67.9519 13.3506 67.9519 33.2456"></polygon>
                </g>
                <g id="Group-590" transform="translate(0.000000, 575.861000)">
                    <polygon id="Fill-570" points="17.4093 9.8837 0.2903 -0.0003 0.2903 19.8007"></polygon>
                    <polygon id="Fill-572" points="19.4846 33.2478 19.4846 13.2228 2.1706 23.2528"></polygon>
                    <polygon id="Fill-578" points="40.6438 23.2986 23.4138 13.3506 23.4138 33.2456"></polygon>
                </g>
                <g id="Group-639" transform="translate(139.000000, 94.861000)">
                    <polygon id="Fill-591" points="0.0386 53.7788 0.0386 73.6738 17.2666 63.7268"></polygon>
                    <polygon id="Fill-593" points="0.0386 27.0767 0.0386 46.9667 17.2356 37.0047"></polygon>
                    <polygon id="Fill-595" points="46.2872 27.0809 46.2872 46.9729 63.5142 37.0259"></polygon>
                    <polygon id="Fill-597" points="19.233 40.3892 1.998 50.3732 19.233 60.3252"></polygon>
                    <polygon id="Fill-599" points="2.0034 77.0764 19.2334 87.0244 19.2334 67.1294"></polygon>
                    <polygon id="Fill-601" points="23.1626 67.1313 23.1626 87.0313 40.3946 77.0813"></polygon>
                    <polygon id="Fill-603" points="48.2512 50.3752 65.4812 60.3232 65.4812 40.4272"></polygon>
                    <polygon id="Fill-605" points="25.1334 90.4308 42.3574 100.3758 42.3574 80.4848"></polygon>
                    <polygon id="Fill-607" points="63.5197 63.7274 46.2877 53.7784 46.2877 73.6784"></polygon>
                    <polygon id="Fill-609" points="23.1626 13.7316 23.1626 33.5716 40.3166 23.6346"></polygon>
                    <polygon id="Fill-611" points="42.3576 46.9727 42.3576 26.9937 25.0836 36.9997"></polygon>
                    <polygon id="Fill-613" points="42.3576 73.678 42.3576 53.778 25.1246 63.727"></polygon>
                    <polygon id="Fill-615" points="23.1626 40.4272 23.1626 60.3232 40.3926 50.3752"></polygon>
                    <polygon id="Fill-617" points="19.233 33.6215 19.233 13.7265 2.003 23.6745"></polygon>
                    <polygon id="Fill-619" points="63.4063 10.2593 46.2873 0.3753 46.2873 20.1763"></polygon>
                    <polygon id="Fill-621" points="65.4816 33.6234 65.4816 13.5984 48.1676 23.6284"></polygon>
                    <polygon id="Fill-623" points="46.2872 100.3756 63.5122 90.4306 46.2872 80.4836"></polygon>
                    <polygon id="Fill-625" points="42.3576 0.3756 25.1236 10.3256 42.3576 20.2746"></polygon>
                    <polygon id="Fill-627" points="86.6407 23.6741 69.4107 13.7261 69.4107 33.6211"></polygon>
                    <polygon id="Fill-629" points="69.4111 87.0244 86.6411 77.0764 69.4111 67.1294"></polygon>
                    <polygon id="Fill-631" points="48.2515 77.0812 65.4815 87.0302 65.4815 67.1312"></polygon>
                    <polygon id="Fill-633" points="69.4111 60.3255 86.6411 50.3765 69.4111 40.4295"></polygon>
                    <polygon id="Fill-635" points="88.6055 46.9724 88.6055 27.0764 71.3745 37.0254"></polygon>
                    <polygon id="Fill-637" points="88.6055 73.6738 88.6055 53.7788 71.3775 63.7268"></polygon>
                </g>
                <g id="Group-688" transform="translate(139.000000, 254.861000)">
                    <polygon id="Fill-640" points="0.0386 53.9649 0.0386 73.8599 17.2666 63.9129"></polygon>
                    <polygon id="Fill-642" points="0.0386 27.2628 0.0386 47.1528 17.2356 37.1908"></polygon>
                    <polygon id="Fill-644" points="46.2872 27.267 46.2872 47.159 63.5142 37.212"></polygon>
                    <polygon id="Fill-646" points="19.233 40.5753 1.998 50.5593 19.233 60.5113"></polygon>
                    <polygon id="Fill-648" points="2.0034 77.2625 19.2334 87.2105 19.2334 67.3155"></polygon>
                    <polygon id="Fill-650" points="23.1626 67.3174 23.1626 87.2174 40.3946 77.2674"></polygon>
                    <polygon id="Fill-652" points="48.2512 50.5614 65.4812 60.5094 65.4812 40.6134"></polygon>
                    <polygon id="Fill-654" points="25.1334 90.6169 42.3574 100.5619 42.3574 80.6709"></polygon>
                    <polygon id="Fill-656" points="63.5197 63.9135 46.2877 53.9645 46.2877 73.8645"></polygon>
                    <polygon id="Fill-658" points="23.1626 13.9177 23.1626 33.7577 40.3166 23.8207"></polygon>
                    <polygon id="Fill-660" points="42.3576 47.1588 42.3576 27.1798 25.0836 37.1858"></polygon>
                    <polygon id="Fill-662" points="42.3576 73.8641 42.3576 53.9641 25.1246 63.9131"></polygon>
                    <polygon id="Fill-664" points="23.1626 40.6134 23.1626 60.5094 40.3926 50.5614"></polygon>
                    <polygon id="Fill-666" points="19.233 33.8076 19.233 13.9126 2.003 23.8606"></polygon>
                    <polygon id="Fill-668" points="63.4063 10.4454 46.2873 0.5614 46.2873 20.3624"></polygon>
                    <polygon id="Fill-670" points="65.4816 33.8095 65.4816 13.7845 48.1676 23.8145"></polygon>
                    <polygon id="Fill-672" points="46.2872 100.5617 63.5122 90.6167 46.2872 80.6697"></polygon>
                    <polygon id="Fill-674" points="42.3576 0.5617 25.1236 10.5117 42.3576 20.4607"></polygon>
                    <polygon id="Fill-676" points="86.6407 23.8603 69.4107 13.9123 69.4107 33.8073"></polygon>
                    <polygon id="Fill-678" points="69.4111 87.2105 86.6411 77.2625 69.4111 67.3155"></polygon>
                    <polygon id="Fill-680" points="48.2515 77.2673 65.4815 87.2163 65.4815 67.3173"></polygon>
                    <polygon id="Fill-682" points="69.4111 60.5116 86.6411 50.5626 69.4111 40.6156"></polygon>
                    <polygon id="Fill-684" points="88.6055 47.1585 88.6055 27.2625 71.3745 37.2115"></polygon>
                    <polygon id="Fill-686" points="88.6055 73.86 88.6055 53.965 71.3775 63.913"></polygon>
                </g>
                <g id="Group-737" transform="translate(185.000000, 334.861000)">
                    <polygon id="Fill-689" points="0.3282 54.1401 0.3282 74.0351 17.5562 64.0881"></polygon>
                    <polygon id="Fill-691" points="0.3282 27.438 0.3282 47.328 17.5252 37.366"></polygon>
                    <polygon id="Fill-693" points="46.5768 27.4422 46.5768 47.3342 63.8038 37.3872"></polygon>
                    <polygon id="Fill-695" points="19.5226 40.7505 2.2876 50.7345 19.5226 60.6865"></polygon>
                    <polygon id="Fill-697" points="2.293 77.4377 19.523 87.3857 19.523 67.4907"></polygon>
                    <polygon id="Fill-699" points="23.4522 67.4926 23.4522 87.3926 40.6842 77.4426"></polygon>
                    <polygon id="Fill-701" points="48.5407 50.7366 65.7707 60.6846 65.7707 40.7886"></polygon>
                    <polygon id="Fill-703" points="25.423 90.7921 42.647 100.7371 42.647 80.8461"></polygon>
                    <polygon id="Fill-705" points="63.8092 64.0887 46.5772 54.1397 46.5772 74.0397"></polygon>
                    <polygon id="Fill-707" points="23.4522 14.0929 23.4522 33.9329 40.6062 23.9959"></polygon>
                    <polygon id="Fill-709" points="42.6472 47.334 42.6472 27.355 25.3732 37.361"></polygon>
                    <polygon id="Fill-711" points="42.6472 74.0393 42.6472 54.1393 25.4142 64.0883"></polygon>
                    <polygon id="Fill-713" points="23.4522 40.7886 23.4522 60.6846 40.6822 50.7366"></polygon>
                    <polygon id="Fill-715" points="19.5226 33.9828 19.5226 14.0878 2.2926 24.0358"></polygon>
                    <polygon id="Fill-717" points="63.6959 10.6206 46.5769 0.7366 46.5769 20.5376"></polygon>
                    <polygon id="Fill-719" points="65.7711 33.9847 65.7711 13.9597 48.4571 23.9897"></polygon>
                    <polygon id="Fill-721" points="46.5768 100.7369 63.8018 90.7919 46.5768 80.8449"></polygon>
                    <polygon id="Fill-723" points="42.6472 0.7369 25.4132 10.6869 42.6472 20.6359"></polygon>
                    <polygon id="Fill-725" points="86.9303 24.0354 69.7003 14.0874 69.7003 33.9824"></polygon>
                    <polygon id="Fill-727" points="69.7007 87.3857 86.9307 77.4377 69.7007 67.4907"></polygon>
                    <polygon id="Fill-729" points="48.5411 77.4425 65.7711 87.3915 65.7711 67.4925"></polygon>
                    <polygon id="Fill-731" points="69.7007 60.6868 86.9307 50.7378 69.7007 40.7908"></polygon>
                    <polygon id="Fill-733" points="88.8951 47.3337 88.8951 27.4377 71.6641 37.3867"></polygon>
                    <polygon id="Fill-735" points="88.8951 74.0351 88.8951 54.1401 71.6671 64.0881"></polygon>
                </g>
                <g id="Group-787" transform="translate(141.000000, 575.861000)">
                    <polygon id="Fill-757" points="21.2043 13.356 21.2043 33.196 38.3583 23.259"></polygon>
                    <polygon id="Fill-765" points="17.2747 33.2459 17.2747 13.3509 0.0447 23.2989"></polygon>
                    <polygon id="Fill-767" points="61.448 9.8837 44.329 -0.0003 44.329 19.8007"></polygon>
                    <polygon id="Fill-769" points="63.5232 33.2478 63.5232 13.2228 46.2092 23.2528"></polygon>
                    <polygon id="Fill-773" points="40.3993 0 23.1653 9.95 40.3993 19.899"></polygon>
                    <polygon id="Fill-775" points="84.6824 23.2986 67.4524 13.3506 67.4524 33.2456"></polygon>
                </g>
                <g id="Group-836" transform="translate(92.000000, 174.861000)">
                    <polygon id="Fill-788" points="0.8492 53.8719 0.8492 73.7669 18.0772 63.8199"></polygon>
                    <polygon id="Fill-790" points="0.8492 27.1699 0.8492 47.0599 18.0462 37.0979"></polygon>
                    <polygon id="Fill-792" points="47.0977 27.174 47.0977 47.066 64.3247 37.119"></polygon>
                    <polygon id="Fill-794" points="20.0436 40.4824 2.8086 50.4664 20.0436 60.4184"></polygon>
                    <polygon id="Fill-796" points="2.814 77.1696 20.044 87.1176 20.044 67.2226"></polygon>
                    <polygon id="Fill-798" points="23.9731 67.2244 23.9731 87.1244 41.2051 77.1744"></polygon>
                    <polygon id="Fill-800" points="49.0617 50.4684 66.2917 60.4164 66.2917 40.5204"></polygon>
                    <polygon id="Fill-802" points="25.944 90.524 43.168 100.469 43.168 80.578"></polygon>
                    <polygon id="Fill-804" points="64.3302 63.8206 47.0982 53.8716 47.0982 73.7716"></polygon>
                    <polygon id="Fill-806" points="23.9731 13.8247 23.9731 33.6647 41.1271 23.7277"></polygon>
                    <polygon id="Fill-808" points="43.1682 47.0659 43.1682 27.0869 25.8942 37.0929"></polygon>
                    <polygon id="Fill-810" points="43.1682 73.7711 43.1682 53.8711 25.9352 63.8201"></polygon>
                    <polygon id="Fill-812" points="23.9731 40.5204 23.9731 60.4164 41.2031 50.4684"></polygon>
                    <polygon id="Fill-814" points="20.0436 33.7147 20.0436 13.8197 2.8136 23.7677"></polygon>
                    <polygon id="Fill-816" points="64.2169 10.3525 47.0979 0.4685 47.0979 20.2695"></polygon>
                    <polygon id="Fill-818" points="66.2921 33.7166 66.2921 13.6916 48.9781 23.7216"></polygon>
                    <polygon id="Fill-820" points="47.0977 100.4688 64.3227 90.5238 47.0977 80.5768"></polygon>
                    <polygon id="Fill-822" points="43.1682 0.4688 25.9342 10.4188 43.1682 20.3678"></polygon>
                    <polygon id="Fill-824" points="87.4513 23.7673 70.2213 13.8193 70.2213 33.7143"></polygon>
                    <polygon id="Fill-826" points="70.2217 87.1176 87.4517 77.1696 70.2217 67.2226"></polygon>
                    <polygon id="Fill-828" points="49.062 77.1743 66.292 87.1233 66.292 67.2243"></polygon>
                    <polygon id="Fill-830" points="70.2217 60.4187 87.4517 50.4697 70.2217 40.5227"></polygon>
                    <polygon id="Fill-832" points="89.4161 47.0656 89.4161 27.1696 72.1851 37.1186"></polygon>
                    <polygon id="Fill-834" points="89.4161 73.767 89.4161 53.872 72.1881 63.82"></polygon>
                </g>
                <g id="Group-885" transform="translate(92.000000, 14.861000)">
                    <polygon id="Fill-837" points="0.8492 53.744 0.8492 73.639 18.0772 63.692"></polygon>
                    <polygon id="Fill-839" points="0.8492 27.0419 0.8492 46.9319 18.0462 36.9709"></polygon>
                    <polygon id="Fill-841" points="47.0977 27.046 47.0977 46.938 64.3247 36.991"></polygon>
                    <polygon id="Fill-843" points="20.0436 40.3544 2.8086 50.3384 20.0436 60.2904"></polygon>
                    <polygon id="Fill-845" points="2.814 77.0416 20.044 86.9896 20.044 67.0946"></polygon>
                    <polygon id="Fill-847" points="23.9731 67.0964 23.9731 86.9964 41.2051 77.0464"></polygon>
                    <polygon id="Fill-849" points="49.0617 50.3405 66.2917 60.2885 66.2917 40.3925"></polygon>
                    <polygon id="Fill-851" points="25.944 90.3959 43.168 100.3409 43.168 80.4499"></polygon>
                    <polygon id="Fill-853" points="64.3302 63.6926 47.0982 53.7436 47.0982 73.6436"></polygon>
                    <polygon id="Fill-855" points="23.9731 13.6968 23.9731 33.5368 41.1271 23.5998"></polygon>
                    <polygon id="Fill-857" points="43.1682 46.9379 43.1682 26.9589 25.8942 36.9649"></polygon>
                    <polygon id="Fill-859" points="43.1682 73.6431 43.1682 53.7431 25.9352 63.6921"></polygon>
                    <polygon id="Fill-861" points="23.9731 40.3925 23.9731 60.2885 41.2031 50.3405"></polygon>
                    <polygon id="Fill-863" points="20.0436 33.5867 20.0436 13.6917 2.8136 23.6397"></polygon>
                    <polygon id="Fill-865" points="64.2169 10.2245 47.0979 0.3405 47.0979 20.1415"></polygon>
                    <polygon id="Fill-867" points="66.2921 33.5886 66.2921 13.5636 48.9781 23.5936"></polygon>
                    <polygon id="Fill-869" points="47.0977 100.3408 64.3227 90.3958 47.0977 80.4488"></polygon>
                    <polygon id="Fill-871" points="43.1682 0.3408 25.9342 10.2908 43.1682 20.2398"></polygon>
                    <polygon id="Fill-873" points="87.4513 23.6393 70.2213 13.6913 70.2213 33.5863"></polygon>
                    <polygon id="Fill-875" points="70.2217 86.9896 87.4517 77.0416 70.2217 67.0946"></polygon>
                    <polygon id="Fill-877" points="49.062 77.0463 66.292 86.9953 66.292 67.0963"></polygon>
                    <polygon id="Fill-879" points="70.2217 60.2906 87.4517 50.3416 70.2217 40.3946"></polygon>
                    <polygon id="Fill-881" points="89.4161 46.9376 89.4161 27.0416 72.1851 36.9906"></polygon>
                    <polygon id="Fill-883" points="89.4161 73.639 89.4161 53.744 72.1881 63.692"></polygon>
                </g>
                <g id="Group-934" transform="translate(48.000000, 0.861000)">
                    <polygon id="Fill-894" points="0.43 10.8589 17.66 20.8069 17.66 0.9119"></polygon>
                    <polygon id="Fill-896" points="21.5892 0.9138 21.5892 20.8138 38.8212 10.8638"></polygon>
                    <polygon id="Fill-900" points="23.56 24.2133 40.784 34.1583 40.784 14.2673"></polygon>
                    <polygon id="Fill-918" points="44.7138 34.1581 61.9388 24.2131 44.7138 14.2661"></polygon>
                    <polygon id="Fill-924" points="67.8377 20.8069 85.0677 10.8589 67.8377 0.9119"></polygon>
                    <polygon id="Fill-926" points="46.6781 10.8637 63.9081 20.8127 63.9081 0.9137"></polygon>
                </g>
                <g id="Group-983" transform="translate(141.000000, 0.861000)">
                    <polygon id="Fill-943" points="0.0625 10.8586 17.2925 20.8066 17.2925 0.9116"></polygon>
                    <polygon id="Fill-945" points="21.2217 0.9135 21.2217 20.8145 38.4537 10.8635"></polygon>
                    <polygon id="Fill-949" points="23.1926 24.213 40.4166 34.158 40.4166 14.267"></polygon>
                    <polygon id="Fill-967" points="44.3463 34.1578 61.5713 24.2128 44.3463 14.2668"></polygon>
                    <polygon id="Fill-973" points="67.4702 20.8066 84.7002 10.8586 67.4702 0.9116"></polygon>
                    <polygon id="Fill-975" points="46.3106 10.8634 63.5406 20.8124 63.5406 0.9134"></polygon>
                </g>
                <g id="Group-1032" transform="translate(0.000000, 0.861000)">
                    <polygon id="Fill-1016" points="0.2486 34.1581 17.4736 24.2131 0.2486 14.2661"></polygon>
                    <polygon id="Fill-1022" points="23.3725 20.8069 40.6025 10.8589 23.3725 0.9119"></polygon>
                    <polygon id="Fill-1024" points="2.2129 10.8637 19.4429 20.8127 19.4429 0.9137"></polygon>
                </g>
                <g id="Group-1081" transform="translate(92.000000, 334.861000)">
                    <polygon id="Fill-1033" points="0.8492 54.0468 0.8492 73.9418 18.0772 63.9948"></polygon>
                    <polygon id="Fill-1035" points="0.8492 27.3448 0.8492 47.2348 18.0462 37.2728"></polygon>
                    <polygon id="Fill-1037" points="47.0977 27.3489 47.0977 47.2409 64.3247 37.2939"></polygon>
                    <polygon id="Fill-1039" points="20.0436 40.6573 2.8086 50.6413 20.0436 60.5933"></polygon>
                    <polygon id="Fill-1041" points="2.814 77.3444 20.044 87.2924 20.044 67.3974"></polygon>
                    <polygon id="Fill-1043" points="23.9731 67.3993 23.9731 87.2993 41.2051 77.3493"></polygon>
                    <polygon id="Fill-1045" points="49.0617 50.6433 66.2917 60.5913 66.2917 40.6953"></polygon>
                    <polygon id="Fill-1047" points="25.944 90.6988 43.168 100.6438 43.168 80.7528"></polygon>
                    <polygon id="Fill-1049" points="64.3302 63.9955 47.0982 54.0465 47.0982 73.9465"></polygon>
                    <polygon id="Fill-1051" points="23.9731 13.9996 23.9731 33.8396 41.1271 23.9026"></polygon>
                    <polygon id="Fill-1053" points="43.1682 47.2408 43.1682 27.2618 25.8942 37.2678"></polygon>
                    <polygon id="Fill-1055" points="43.1682 73.946 43.1682 54.046 25.9352 63.995"></polygon>
                    <polygon id="Fill-1057" points="23.9731 40.6953 23.9731 60.5913 41.2031 50.6433"></polygon>
                    <polygon id="Fill-1059" points="20.0436 33.8896 20.0436 13.9946 2.8136 23.9426"></polygon>
                    <polygon id="Fill-1061" points="64.2169 10.5273 47.0979 0.6433 47.0979 20.4443"></polygon>
                    <polygon id="Fill-1063" points="66.2921 33.8915 66.2921 13.8665 48.9781 23.8965"></polygon>
                    <polygon id="Fill-1065" points="47.0977 100.6436 64.3227 90.6986 47.0977 80.7516"></polygon>
                    <polygon id="Fill-1067" points="43.1682 0.6436 25.9342 10.5936 43.1682 20.5426"></polygon>
                    <polygon id="Fill-1069" points="87.4513 23.9422 70.2213 13.9942 70.2213 33.8892"></polygon>
                    <polygon id="Fill-1071" points="70.2217 87.2924 87.4517 77.3444 70.2217 67.3974"></polygon>
                    <polygon id="Fill-1073" points="49.062 77.3492 66.292 87.2982 66.292 67.3992"></polygon>
                    <polygon id="Fill-1075" points="70.2217 60.5935 87.4517 50.6445 70.2217 40.6975"></polygon>
                    <polygon id="Fill-1077" points="89.4161 47.2404 89.4161 27.3444 72.1851 37.2934"></polygon>
                    <polygon id="Fill-1079" points="89.4161 73.9419 89.4161 54.0469 72.1881 63.9949"></polygon>
                </g>
                <g id="Group-1130" transform="translate(92.000000, 494.861000)">
                    <polygon id="Fill-1082" points="0.8284 54.3415 0.8284 74.2365 18.0564 64.2895"></polygon>
                    <polygon id="Fill-1084" points="0.8284 27.6394 0.8284 47.5294 18.0254 37.5674"></polygon>
                    <polygon id="Fill-1086" points="47.0769 27.6436 47.0769 47.5356 64.3039 37.5886"></polygon>
                    <polygon id="Fill-1088" points="20.0227 40.9519 2.7877 50.9359 20.0227 60.8879"></polygon>
                    <polygon id="Fill-1090" points="2.7931 77.6391 20.0231 87.5871 20.0231 67.6921"></polygon>
                    <polygon id="Fill-1092" points="23.9523 67.694 23.9523 87.594 41.1843 77.644"></polygon>
                    <polygon id="Fill-1094" points="49.0409 50.938 66.2709 60.886 66.2709 40.99"></polygon>
                    <polygon id="Fill-1096" points="25.9232 90.9935 43.1472 100.9385 43.1472 81.0475"></polygon>
                    <polygon id="Fill-1098" points="64.3094 64.2901 47.0774 54.3411 47.0774 74.2411"></polygon>
                    <polygon id="Fill-1100" points="23.9523 14.2943 23.9523 34.1343 41.1063 24.1973"></polygon>
                    <polygon id="Fill-1102" points="43.1473 47.5354 43.1473 27.5564 25.8733 37.5624"></polygon>
                    <polygon id="Fill-1104" points="43.1473 74.2407 43.1473 54.3407 25.9143 64.2897"></polygon>
                    <polygon id="Fill-1106" points="23.9523 40.99 23.9523 60.886 41.1823 50.938"></polygon>
                    <polygon id="Fill-1108" points="20.0227 34.1842 20.0227 14.2892 2.7927 24.2372"></polygon>
                    <polygon id="Fill-1110" points="64.196 10.822 47.077 0.938 47.077 20.739"></polygon>
                    <polygon id="Fill-1112" points="66.2713 34.1861 66.2713 14.1611 48.9573 24.1911"></polygon>
                    <polygon id="Fill-1114" points="47.0769 100.9383 64.3019 90.9933 47.0769 81.0463"></polygon>
                    <polygon id="Fill-1116" points="43.1473 0.9383 25.9133 10.8883 43.1473 20.8373"></polygon>
                    <polygon id="Fill-1118" points="87.4305 24.2369 70.2005 14.2889 70.2005 34.1839"></polygon>
                    <polygon id="Fill-1120" points="70.2009 87.5871 87.4309 77.6391 70.2009 67.6921"></polygon>
                    <polygon id="Fill-1122" points="49.0412 77.6439 66.2712 87.5929 66.2712 67.6939"></polygon>
                    <polygon id="Fill-1124" points="70.2009 60.8882 87.4309 50.9392 70.2009 40.9922"></polygon>
                    <polygon id="Fill-1126" points="89.3952 47.5351 89.3952 27.6391 72.1642 37.5881"></polygon>
                    <polygon id="Fill-1128" points="89.3952 74.2365 89.3952 54.3415 72.1672 64.2895"></polygon>
                </g>
            </g>
        </g>
    </g>
</svg>