<?xml version="1.0" encoding="UTF-8" standalone="no"?>
<svg width="93px" height="23px" viewBox="0 0 93 23" version="1.1" xmlns="http://www.w3.org/2000/svg" xmlns:xlink="http://www.w3.org/1999/xlink">
    <!-- Generator: Sketch 41.2 (35397) - http://www.bohemiancoding.com/sketch -->
    <title>Group</title>
    <desc>Created with Sketch.</desc>
    <defs>
        <rect id="path-1" x="2.09214258" y="5.13533896" width="2.15384615" height="6.29822261"></rect>
        <mask id="mask-2" maskContentUnits="userSpaceOnUse" maskUnits="objectBoundingBox" x="0" y="0" width="2.15384615" height="6.29822261" fill="white">
            <use xlink:href="#path-1"></use>
        </mask>
        <rect id="path-3" x="8.24700369" y="-1.33542638" width="2.15384615" height="14.3187063"></rect>
        <mask id="mask-4" maskContentUnits="userSpaceOnUse" maskUnits="objectBoundingBox" x="0" y="0" width="2.15384615" height="14.3187063" fill="white">
            <use xlink:href="#path-3"></use>
        </mask>
    </defs>
    <g id="Page-1" stroke="none" stroke-width="1" fill="none" fill-rule="evenodd">
        <g id="Group" transform="translate(0.000000, 1.000000)">
            <rect id="Rectangle-15-Copy" fill="#FFFFFF" transform="translate(46.000000, 11.000000) rotate(-360.000000) translate(-46.000000, -11.000000) " x="8" y="10" width="76" height="2"></rect>
            <path d="M5.82842712,11.2426407 L-2.22044605e-14,5.41421356 L1.41421356,4 L7.781429,10.3672154 C8.01955309,10.6053395 8.11228343,10.9336199 8.05799916,11.2426407 C8.11228343,11.5516615 8.01955309,11.8799418 7.781429,12.1180659 L1.41421356,18.4852814 L-2.24265051e-14,17.0710678 L5.82842712,11.2426407 Z" id="Combined-Shape-Copy" fill="#FFFFFF" transform="translate(4.036521, 11.242641) rotate(-180.000000) translate(-4.036521, -11.242641) "></path>
            <path d="M89.8284271,11.2426407 L84,5.41421356 L85.4142136,4 L91.781429,10.3672154 C92.0195531,10.6053395 92.1122834,10.9336199 92.0579992,11.2426407 C92.1122834,11.5516615 92.0195531,11.8799418 91.781429,12.1180659 L85.4142136,18.4852814 L84,17.0710678 L89.8284271,11.2426407 Z" id="Combined-Shape-Copy-2" fill="#FFFFFF"></path>
            <g id="Group-13" transform="translate(36.000000, 0.000000)">
                <circle id="Oval-33" stroke="#1EDDB2" fill="#1EDDB2" cx="10.5" cy="10.5" r="10.5"></circle>
                <g id="Group-11" transform="translate(10.724729, 11.113783) rotate(-9.000000) translate(-10.724729, -11.113783) translate(2.724729, 5.113783)" stroke="#FAFAFA" stroke-width="2" fill="#FAFAFA">
                    <use id="Rectangle-430" mask="url(#mask-2)" transform="translate(3.169066, 8.284450) rotate(-45.000000) translate(-3.169066, -8.284450) " xlink:href="#path-1"></use>
                    <use id="Rectangle-430-Copy" mask="url(#mask-4)" transform="translate(9.323927, 5.823927) rotate(-315.000000) translate(-9.323927, -5.823927) " xlink:href="#path-3"></use>
                </g>
            </g>
        </g>
    </g>
</svg>