<?xml version="1.0" encoding="UTF-8" standalone="no"?>
<svg width="43px" height="43px" viewBox="0 0 43 43" version="1.1" xmlns="http://www.w3.org/2000/svg" xmlns:xlink="http://www.w3.org/1999/xlink">
    <!-- Generator: Sketch 39.1 (31720) - http://www.bohemiancoding.com/sketch -->
    <title>Down</title>
    <desc>Created with Sketch.</desc>
    <defs></defs>
    <g id="Page-1" stroke="none" stroke-width="1" fill="none" fill-rule="evenodd">
        <g id="Down" fill="#1A1918">
            <path d="M42.527,21.959 C42.527,10.361 33.125,0.959 21.527,0.959 C9.929,0.959 0.527,10.361 0.527,21.959 C0.527,33.557 9.929,42.959 21.527,42.959 C33.125,42.959 42.527,33.557 42.527,21.959 L42.527,21.959 Z M2.527,21.959 C2.527,11.483 11.05,2.959 21.527,2.959 C32.003,2.959 40.527,11.483 40.527,21.959 C40.527,32.436 32.003,40.959 21.527,40.959 C11.05,40.959 2.527,32.436 2.527,21.959 L2.527,21.959 Z" id="Fill-300"></path>
            <path d="M22.234,32.964 L32.133,23.065 C32.524,22.674 32.524,22.041 32.133,21.65 C31.743,21.26 31.11,21.26 30.719,21.65 L22.526,29.843 L22.52,11.626 C22.51,11.383 22.419,11.141 22.234,10.955 C21.843,10.565 21.21,10.565 20.82,10.955 C20.632,11.143 20.54,11.388 20.532,11.634 C20.53,11.634 20.527,29.843 20.527,29.843 L12.334,21.65 C11.944,21.26 11.311,21.26 10.92,21.65 C10.529,22.041 10.529,22.674 10.92,23.065 L20.82,32.964 C20.911,33.056 21.022,33.129 21.144,33.18 C21.389,33.281 21.664,33.281 21.909,33.18 C22.031,33.129 22.142,33.056 22.234,32.964" id="Fill-301"></path>
        </g>
    </g>
</svg>