<svg width="144" height="112" xmlns="http://www.w3.org/2000/svg" xmlns:xlink="http://www.w3.org/1999/xlink"><defs><path id="a" d="M31.2164.2425H.8326V37.801h30.3838V.2425z"/></defs><g fill="none" fill-rule="evenodd"><path d="M135.8757 72.9914h-2.06V51.2418h2.06c3.41 0 6.174 2.761 6.174 6.1652v9.4193c0 3.4052-2.764 6.1651-6.174 6.1651" fill="#FF7A5C"/><path d="M115.9865 50.126c0 3.0722-2.4943 5.563-5.571 5.563-3.0766 0-5.5699-2.4908-5.5699-5.563 0-3.0723 2.4933-5.563 5.57-5.563 3.0766 0 5.5709 2.4907 5.5709 5.563M94.1847 42.6473h-26.272c-4.6552 0-8.4295-3.7679-8.4295-8.4174v-6.3275h43.131v6.3275c0 4.6495-3.7743 8.4174-8.4295 8.4174" fill="#423D51"/><path d="M94.1847 42.6473h-26.272c-4.6552 0-8.4295-3.7679-8.4295-8.4174v-6.3275h43.131v6.3275c0 4.6495-3.7743 8.4174-8.4295 8.4174z" stroke="#423D51" stroke-width="3"/><path d="M135.8756 51.2421h-6.7759c-1.7523-5.86-5.1006-11.0284-9.5356-15.0162 6.7666-2.8955 11.5092-9.6032 11.5092-17.4196h-23.716c-2.6198 0-4.7436 2.1208-4.7436 4.737v4.6381c-1.6516-.2548-3.3401-.4007-5.0637-.4007H60.5065c-18.1852 0-32.9275 14.7203-32.9275 32.8807 0 13.3013 7.915 24.75 19.2935 29.9277l-2.2514 13.3711c-.3766 2.239 1.135 4.3588 3.377 4.7349l8.8823 1.4909c2.2411.3771 4.364-1.1334 4.7405-3.3713l1.9469-11.5586c.1667-.9895 1.0248-1.714 2.0291-1.714h26.8627c1.0043 0 1.8625.7245 2.0292 1.714l1.9458 11.5586c.3776 2.238 2.5004 3.7484 4.7416 3.3713l8.8822-1.491c2.2411-.376 3.7537-2.4958 3.376-4.7348l-2.2534-13.3865c8.0323-3.657 14.3461-10.4243 17.357-18.7811h7.3376c3.41 0 6.174-2.76 6.174-6.1651v-8.2202c0-3.4052-2.764-6.1652-6.174-6.1652zM27.5789 58.9235c0 7.1875-5.8343 13.0136-13.0321 13.0136S1.5147 66.111 1.5147 58.9235M16.899 58.9235c0-4.2426-3.444-7.6818-7.6927-7.6818-4.2477 0-7.6917 3.4392-7.6917 7.6818" stroke="#423D51" stroke-width="3"/><path fill="#423D51" d="M45.3653 99.5428l17.039 2.6222-1.3891 7.9027-16.2045-2.313zM113.3399 99.5428l-17.039 2.6222 1.3892 7.9027 16.2044-2.313z"/><path d="M102.6137 26.2391v7.7403M119.5645 36.2255h-4.442" stroke="#423D51" stroke-width="3"/><path d="M74.3923 34.8872c0-6.8844 5.6646-12.466 12.6524-12.466 6.9868 0 12.6514 5.5816 12.6514 12.466" fill="#FFAE38"/><path d="M74.3923 34.8872c0-6.8844 5.6646-12.466 12.6524-12.466 6.9868 0 12.6514 5.5816 12.6514 12.466" stroke="#FFAE38" stroke-width="3"/><path d="M128.5383 71.2788s-7.3222 7.4496-14.6435 2.0756c0 0 1.9253 10.527 7.3213 9.6197" fill="#423D51"/><path d="M128.5383 71.2788s-7.3222 7.4496-14.6435 2.0756c0 0 1.9253 10.527 7.3213 9.6197M142.0496 57.4073h-4.117" stroke="#423D51" stroke-width="3"/><path d="M63.0609 6.8954v-.2035c-.0278.0165-.0576.0309-.0864.0463l.0864.1572z" fill="#FFF"/><g transform="translate(63.7681 -.215)"><mask id="b" fill="#fff"><use xlink:href="#a"/></mask><path d="M26.586.242H.8326c.8118 1.0779 1.3243 2.3808 1.4786 3.7905.0298.2754.069.5497.069.8333V37.801h28.8362V4.8658c0-2.5492-2.0775-4.6238-4.6304-4.6238" fill="#1FDDB2" mask="url(#b)"/></g><path d="M59.327.1267c-.9065-.1778-1.8635-.0915-2.7237.2784-1.6464.709-2.803 2.3438-2.803 4.2458v3.5059h9.2609V4.6509c0-1.4252-.6791-2.7928-1.81-3.6621-.567-.4357-1.2306-.7265-1.9242-.8621" fill="#1FDDB2"/><path d="M80.8576 12.3127V8.7605M80.833 28.5613v-3.5521" stroke="#FFF" stroke-width="3"/><path d="M78.7309 21.2865c0 1.5433.9477 2.4568 2.308 2.4568 1.0712 0 1.8964-.67 1.8964-1.6646 0-1.1375-.9898-1.5228-2.2473-1.9903-2.6578-.9536-4.8825-1.7869-4.8825-4.6691 0-2.6202 2.4305-4.0012 5.0678-4.0012 3.4213 0 5.1325 2.1126 5.1325 4.5283h-3.339c0-1.2587-.639-2.0499-1.7935-2.0499-.9477 0-1.7514.487-1.7514 1.4612 0 .934.8458 1.4416 2.061 1.868 2.3698.8117 5.0689 1.7468 5.0689 4.589 0 2.9232-2.2453 4.5477-5.4187 4.5477-3.091 0-5.4402-1.827-5.4402-5.076h3.338z" fill="#FFF"/><path d="M64.9407 37.5004c0-4.0228 3.3093-7.2831 7.3923-7.2831 4.082 0 7.3912 3.2603 7.3912 7.283" fill="#FFAE38"/><path d="M64.9407 37.5004c0-4.0228 3.3093-7.2831 7.3923-7.2831 4.082 0 7.3912 3.2603 7.3912 7.283" stroke="#FFAE38" stroke-width="3"/><path d="M59.8754 71.9647c-13.5374 7.1434-16.9361-9-16.9361-9l16.724-9.742c2.8936-1.6851 6.0711-2.8822 9.3937-3.3045 16.861-2.1424 21.764 14.115 21.764 14.115" stroke="#423D51" stroke-width="3"/><path d="M73.6204 64.772l-15.1847 7.8914s2.061 9.7892 10.2703 5.4572l6.7162-3.5655" stroke="#423D51" stroke-width="3"/><path d="M122.8403 79.227l-3.0015 3.3548-2.2422-2.2934c-.8407-.859-.7028-2.2678.2892-2.948a1.9384 1.9384 0 0 1 2.1927-.002l2.7618 1.8885z" fill="#FF7A5C"/></g></svg>