<svg width="274" height="580" xmlns="http://www.w3.org/2000/svg"><g fill="#FFF" fill-rule="evenodd"><path d="M46.4701 132.6398v19.895l17.229-9.947zM46.4701 105.9377v19.89l17.197-9.962zM92.7186 105.9419v19.892l17.228-9.947zM65.6646 119.2502l-17.235 9.984 17.235 9.952zM48.4349 155.9374l17.23 9.948v-19.895zM69.5941 145.9923v19.9l17.232-9.95zM94.6826 129.2362l17.23 9.948v-19.896zM71.5649 169.2918l17.224 9.945v-19.891zM109.9512 142.5884l-17.233-9.949v19.9zM69.5941 92.5926v19.84l17.154-9.937zM88.7891 125.8337v-19.979l-17.274 10.006zM88.7891 152.539v-19.9l-17.233 9.949zM69.5941 119.2882v19.896l17.23-9.948zM65.6646 112.4825v-19.895l-17.23 9.948zM109.8378 89.1203l-17.119-9.884v19.801zM111.9131 112.4844v-20.025l-17.314 10.03zM92.7186 179.2366l17.225-9.945-17.225-9.947zM88.7891 79.2366l-17.234 9.95 17.234 9.949zM133.0723 102.5351l-17.23-9.948v19.895zM115.8427 165.8854l17.23-9.948-17.23-9.947zM94.683 155.9422l17.23 9.949v-19.899zM115.8427 139.1865l17.23-9.949-17.23-9.947zM135.037 125.8334v-19.896l-17.231 9.949zM135.037 152.5348v-19.895l-17.228 9.948z"/><g><path d="M.2216 373.0011v19.895l17.229-9.947zM.2216 346.299v19.89l17.197-9.962zM46.4701 346.3032v19.892l17.228-9.947zM19.416 359.6115l-17.235 9.984 17.235 9.952zM2.1864 396.2987l17.23 9.948v-19.895zM23.3456 386.3536v19.9l17.232-9.95zM48.4341 369.5976l17.23 9.948v-19.896zM25.3164 409.6531l17.224 9.945v-19.891zM63.7026 382.9497l-17.233-9.949v19.9zM23.3456 332.9539v19.84l17.154-9.937zM42.5405 366.195v-19.979l-17.274 10.006zM42.5405 392.9003v-19.9l-17.233 9.949zM23.3456 359.6496v19.896l17.23-9.948zM19.416 352.8438v-19.895l-17.23 9.948zM63.5892 329.4816l-17.119-9.884v19.801zM65.6646 352.8457v-20.025l-17.314 10.03zM46.4701 419.5979l17.225-9.945-17.225-9.947zM42.5405 319.5979l-17.234 9.95 17.234 9.949zM86.8237 342.8964l-17.23-9.948v19.895zM69.5941 406.2467l17.23-9.948-17.23-9.947zM48.4344 396.3035l17.23 9.949v-19.899zM69.5941 379.5478l17.23-9.949-17.23-9.947zM88.7885 366.1947v-19.896l-17.231 9.949zM88.7885 392.8961v-19.895l-17.228 9.948z"/></g><g><path d="M46.5118 453.0781v19.895l17.228-9.947zM46.5118 426.376v19.89l17.197-9.962zM92.7604 426.3802v19.892l17.227-9.947zM65.7062 439.6885l-17.235 9.984 17.235 9.952zM48.4766 476.3757l17.23 9.948v-19.895zM69.6357 466.4306v19.9l17.232-9.95zM94.7244 449.6746l17.23 9.948v-19.896zM71.6066 489.7301l17.224 9.945v-19.891zM109.9928 463.0267l-17.232-9.949v19.9zM69.6357 413.0309v19.84l17.154-9.937zM88.8308 446.272v-19.979l-17.274 10.006zM88.8308 472.9773v-19.9l-17.233 9.949zM69.6357 439.7266v19.896l17.23-9.948zM65.7062 432.9208v-19.895l-17.23 9.948zM109.8795 409.5586l-17.119-9.884v19.801zM111.9547 432.9227v-20.025l-17.314 10.03zM92.7604 499.6749l17.225-9.945-17.225-9.947zM88.8308 399.6749l-17.234 9.95 17.234 9.949zM133.1139 422.9734l-17.23-9.948v19.895zM115.8843 486.3237l17.23-9.948-17.23-9.947zM94.7246 476.3805l17.23 9.949v-19.899zM115.8843 459.6248l17.23-9.949-17.23-9.947zM135.0787 446.2717v-19.896l-17.231 9.949zM135.0787 472.9731v-19.895l-17.228 9.948z"/></g><g><path d="M185.2185 52.5628v19.895l17.229-9.947zM185.2185 25.8607v19.89l17.197-9.961zM231.467 25.8648v19.892l17.228-9.947zM204.413 39.1732l-17.235 9.984 17.235 9.952zM187.1833 75.8604l17.23 9.948v-19.895zM208.3425 65.9153v19.901l17.232-9.951zM233.431 49.1593l17.23 9.948v-19.896zM210.3134 89.2148l17.224 9.945v-19.891zM248.6996 62.5115l-17.233-9.949v19.9zM208.3425 12.5156v19.84l17.154-9.937zM227.5375 45.7567v-19.979l-17.274 10.006zM227.5375 72.462v-19.9l-17.233 9.949zM208.3425 39.2113v19.896l17.23-9.948zM204.413 32.4055v-19.895l-17.23 9.948zM248.5862 9.0433l-17.119-9.884v19.801zM250.6615 32.4074v-20.025l-17.314 10.03zM231.467 99.1596l17.225-9.945-17.225-9.947zM227.5375-.8404l-17.234 9.95 17.234 9.949zM271.8207 22.4582l-17.23-9.948v19.895zM254.5911 85.8084l17.23-9.948-17.23-9.947zM233.4314 75.8652l17.23 9.949v-19.899zM254.5911 59.1095l17.23-9.949-17.23-9.947zM273.7854 45.7564v-19.896l-17.231 9.949zM273.7854 72.4578v-19.895l-17.228 9.948z"/></g><g><path d="M231.5088 132.6398v19.895l17.228-9.947zM231.5088 105.9377v19.89l17.197-9.962zM250.7031 119.2502l-17.235 9.984 17.235 9.952zM233.4735 155.9374l17.23 9.948v-19.895zM254.6327 145.9923v19.9l17.232-9.95zM256.6035 169.2918l17.224 9.945v-19.891zM254.6327 92.5926v19.84l17.154-9.937zM273.8278 125.8337v-19.979l-17.274 10.006zM273.8278 152.539v-19.9l-17.233 9.949zM254.6327 119.2882v19.896l17.23-9.948zM250.7031 112.4825v-19.895l-17.23 9.948zM273.8278 79.2366l-17.234 9.95 17.234 9.949z"/></g><g><path d="M138.9706 132.6398v19.895l17.229-9.947zM138.9706 105.9377v19.89l17.197-9.962zM185.2192 105.9419v19.892l17.227-9.947zM158.165 119.2502l-17.235 9.984 17.235 9.952zM140.9354 155.9374l17.23 9.948v-19.895zM162.0946 145.9923v19.9l17.232-9.95zM187.1831 129.2362l17.23 9.948v-19.896zM164.0654 169.2918l17.224 9.945v-19.891zM202.4517 142.5884l-17.232-9.949v19.9zM162.0946 92.5926v19.84l17.154-9.937zM181.2896 125.8337v-19.979l-17.274 10.006zM181.2896 152.539v-19.9l-17.233 9.949zM162.0946 119.2882v19.896l17.23-9.948zM158.165 112.4825v-19.895l-17.23 9.948zM202.3383 89.1203l-17.119-9.884v19.801zM204.4136 112.4844v-20.025l-17.314 10.03zM185.2192 179.2366l17.225-9.945-17.225-9.947zM181.2896 79.2366l-17.234 9.95 17.234 9.949zM225.5728 102.5351l-17.23-9.948v19.895zM208.3431 165.8854l17.23-9.948-17.23-9.947zM187.1835 155.9422l17.23 9.949v-19.899zM208.3431 139.1865l17.23-9.949-17.23-9.947zM227.5375 125.8334v-19.896l-17.231 9.949zM227.5375 152.5348v-19.895l-17.228 9.948z"/></g><g><path d="M185.2185 212.7489v19.895l17.229-9.947zM185.2185 186.0468v19.89l17.197-9.962zM231.467 186.051v19.892l17.228-9.947zM204.413 199.3593l-17.235 9.984 17.235 9.952zM187.1833 236.0465l17.23 9.948v-19.895zM208.3425 226.1014v19.9l17.232-9.95zM233.431 209.3454l17.23 9.948v-19.896zM210.3134 249.4009l17.224 9.945v-19.891zM248.6996 222.6975l-17.233-9.949v19.9zM208.3425 172.7017v19.84l17.154-9.937zM227.5375 205.9428v-19.979l-17.274 10.006zM227.5375 232.6481v-19.9l-17.233 9.949zM208.3425 199.3974v19.896l17.23-9.948zM204.413 192.5916v-19.895l-17.23 9.948zM248.5862 169.2294l-17.119-9.884v19.801zM250.6615 192.5935v-20.025l-17.314 10.03zM231.467 259.3457l17.225-9.945-17.225-9.947zM227.5375 159.3457l-17.234 9.95 17.234 9.949zM271.8207 182.6443l-17.23-9.948v19.895zM254.5911 245.9945l17.23-9.948-17.23-9.947zM233.4314 236.0513l17.23 9.949v-19.899zM254.5911 219.2956l17.23-9.949-17.23-9.947zM273.7854 205.9425v-19.896l-17.231 9.949zM273.7854 232.644v-19.895l-17.228 9.948z"/></g><g><path d="M231.5088 292.8259v19.895l17.228-9.947zM231.5088 266.1238v19.89l17.197-9.962zM250.7031 279.4363l-17.235 9.984 17.235 9.952zM233.4735 316.1235l17.23 9.948v-19.895zM254.6327 306.1784v19.9l17.232-9.95zM256.6035 329.4779l17.224 9.945v-19.891zM254.6327 252.7787v19.84l17.154-9.937zM273.8278 286.0198v-19.979l-17.274 10.006zM273.8278 312.7251v-19.9l-17.233 9.949zM254.6327 279.4744v19.896l17.23-9.948zM250.7031 272.6686v-19.895l-17.23 9.948zM273.8278 239.4227l-17.234 9.95 17.234 9.949z"/></g><g><path d="M138.9706 292.8259v19.895l17.229-9.947zM138.9706 266.1238v19.89l17.197-9.962zM185.2192 266.128v19.892l17.227-9.947zM158.165 279.4363l-17.235 9.984 17.235 9.952zM140.9354 316.1235l17.23 9.948v-19.895zM162.0946 306.1784v19.9l17.232-9.95zM187.1831 289.4224l17.23 9.948v-19.896zM164.0654 329.4779l17.224 9.945v-19.891zM202.4517 302.7745l-17.232-9.949v19.9zM162.0946 252.7787v19.84l17.154-9.937zM181.2896 286.0198v-19.979l-17.274 10.006zM181.2896 312.7251v-19.9l-17.233 9.949zM162.0946 279.4744v19.896l17.23-9.948zM158.165 272.6686v-19.895l-17.23 9.948zM202.3383 249.3064l-17.119-9.884v19.801zM204.4136 272.6705v-20.025l-17.314 10.03zM185.2192 339.4227l17.225-9.945-17.225-9.947zM181.2896 239.4227l-17.234 9.95 17.234 9.949zM225.5728 262.7213l-17.23-9.948v19.895zM208.3431 326.0715l17.23-9.948-17.23-9.947zM187.1835 316.1283l17.23 9.949v-19.899zM208.3431 299.3726l17.23-9.949-17.23-9.947zM227.5375 286.0195v-19.896l-17.231 9.949zM227.5375 312.721v-19.895l-17.228 9.948z"/></g><g><path d="M185.2603 373.0011v19.895l17.228-9.947zM185.2603 346.299v19.89l17.197-9.962zM231.5088 346.3032v19.892l17.227-9.947zM204.4546 359.6115l-17.235 9.984 17.235 9.952zM187.225 396.2987l17.23 9.948v-19.895zM208.3842 386.3536v19.9l17.232-9.95zM233.4728 369.5976l17.23 9.948v-19.896zM210.355 409.6531l17.224 9.945v-19.891zM248.7412 382.9497l-17.232-9.949v19.9zM208.3842 332.9539v19.84l17.154-9.937zM227.5792 366.195v-19.979l-17.274 10.006zM227.5792 392.9003v-19.9l-17.233 9.949zM208.3842 359.6496v19.896l17.23-9.948zM204.4546 352.8438v-19.895l-17.23 9.948zM248.6279 329.4816l-17.119-9.884v19.801zM250.7031 352.8457v-20.025l-17.314 10.03zM231.5088 419.5979l17.225-9.945-17.225-9.947zM227.5792 319.5979l-17.234 9.95 17.234 9.949zM271.8623 342.8964l-17.23-9.948v19.895zM254.6327 406.2467l17.23-9.948-17.23-9.947zM233.473 396.3035l17.23 9.949v-19.899zM254.6327 379.5478l17.23-9.949-17.23-9.947zM273.8271 366.1947v-19.896l-17.231 9.949zM273.8271 392.8961v-19.895l-17.228 9.948z"/></g><g><path d="M231.5504 453.0781v19.895l17.229-9.947zM231.5504 426.376v19.89l17.197-9.962zM250.7448 439.6885l-17.235 9.984 17.235 9.952zM233.5153 476.3757l17.229 9.948v-19.895zM254.6744 466.4306v19.9l17.232-9.95zM256.6453 489.7301l17.224 9.945v-19.891zM254.6744 413.0309v19.84l17.154-9.937zM273.8694 446.272v-19.979l-17.274 10.006zM273.8694 472.9773v-19.9l-17.233 9.949zM254.6744 439.7266v19.896l17.23-9.948zM250.7448 432.9208v-19.895l-17.229 9.948zM273.8694 399.6749l-17.234 9.95 17.234 9.949z"/></g><g><path d="M139.0123 453.0781v19.895l17.228-9.947zM139.0123 426.376v19.89l17.197-9.962zM185.2609 426.3802v19.892l17.227-9.947zM158.2067 439.6885l-17.235 9.984 17.235 9.952zM140.9771 476.3757l17.23 9.948v-19.895zM162.1362 466.4306v19.9l17.232-9.95zM187.2249 449.6746l17.23 9.948v-19.896zM164.1071 489.7301l17.224 9.945v-19.891zM202.4933 463.0267l-17.232-9.949v19.9zM162.1362 413.0309v19.84l17.154-9.937zM181.3313 446.272v-19.979l-17.274 10.006zM181.3313 472.9773v-19.9l-17.233 9.949zM162.1362 439.7266v19.896l17.23-9.948zM158.2067 432.9208v-19.895l-17.23 9.948zM202.38 409.5586l-17.119-9.884v19.801zM204.4552 432.9227v-20.025l-17.314 10.03zM185.2609 499.6749l17.225-9.945-17.225-9.947zM181.3313 399.6749l-17.234 9.95 17.234 9.949zM225.6144 422.9734l-17.23-9.948v19.895zM208.3848 486.3237l17.23-9.948-17.23-9.947zM187.2251 476.3805l17.23 9.949v-19.899zM208.3848 459.6248l17.23-9.949-17.23-9.947zM227.5792 446.2717v-19.896l-17.231 9.949zM227.5792 472.9731v-19.895l-17.228 9.948z"/></g><g><path d="M185.2603 533.1872v19.895l17.228-9.947zM185.2603 506.4851v19.89l17.197-9.962zM231.5088 506.4893v19.892l17.227-9.947zM204.4546 519.7976l-17.235 9.984 17.235 9.952zM187.225 556.4848l17.23 9.948v-19.895zM208.3842 546.5397v19.9l17.232-9.95zM233.4728 529.7837l17.23 9.948v-19.896zM210.355 569.8392l17.224 9.945v-19.891zM248.7412 543.1358l-17.232-9.949v19.9zM208.3842 493.14v19.84l17.154-9.937zM227.5792 526.3811v-19.979l-17.274 10.006zM227.5792 553.0864v-19.9l-17.233 9.949zM208.3842 519.8357v19.896l17.23-9.948zM204.4546 513.0299v-19.895l-17.23 9.948zM248.6279 489.6677l-17.119-9.884v19.801zM250.7031 513.0318v-20.025l-17.314 10.03zM231.5088 579.784l17.225-9.945-17.225-9.947zM227.5792 479.784l-17.234 9.95 17.234 9.949zM271.8623 503.0826l-17.23-9.948v19.895zM254.6327 566.4328l17.23-9.948-17.23-9.947zM233.473 556.4896l17.23 9.949v-19.899zM254.6327 539.7339l17.23-9.949-17.23-9.947zM273.8271 526.3808v-19.896l-17.231 9.949zM273.8271 553.0822v-19.895l-17.228 9.948z"/></g><g><path d="M254.6744 573.217v19.84l17.154-9.937zM250.7448 593.1069v-19.895l-17.229 9.948zM273.8694 559.861l-17.234 9.95 17.234 9.949z"/></g><g><path d="M162.1362 573.217v19.84l17.154-9.937zM158.2067 593.1069v-19.895l-17.23 9.948zM202.38 569.7447l-17.119-9.884v19.801zM204.4552 593.1088v-20.025l-17.314 10.03zM181.3313 559.861l-17.234 9.95 17.234 9.949zM225.6144 583.1596l-17.23-9.948v19.895z"/></g><g><path d="M92.7811 212.7329v19.895l17.229-9.947zM92.7811 186.0309v19.89l17.197-9.962zM139.0298 186.035v19.892l17.227-9.947zM111.9756 199.3434l-17.235 9.984 17.235 9.952zM94.746 236.0306l17.23 9.948v-19.895zM115.9052 226.0854v19.9l17.232-9.95zM140.9938 209.3294l17.23 9.948v-19.896zM117.876 249.385l17.224 9.945v-19.891zM156.2622 222.6816l-17.232-9.949v19.9zM115.9052 172.6857v19.84l17.154-9.937zM135.1002 205.9269v-19.979l-17.274 10.006zM135.1002 232.6321v-19.9l-17.233 9.949zM115.9052 199.3814v19.896l17.23-9.948zM111.9756 192.5757v-19.895l-17.23 9.948zM156.1488 169.2135l-17.119-9.884v19.801zM158.2241 192.5776v-20.025l-17.314 10.03zM139.0298 259.3298l17.225-9.945-17.225-9.947zM135.1002 159.3298l-17.234 9.95 17.234 9.949zM179.3833 182.6283l-17.23-9.948v19.895zM162.1537 245.9786l17.23-9.948-17.23-9.947zM140.994 236.0353l17.23 9.949v-19.899zM162.1537 219.2797l17.23-9.949-17.23-9.947zM181.348 205.9266v-19.896l-17.231 9.949zM181.348 232.628v-19.895l-17.228 9.948z"/></g><g><path d="M92.7811 52.605V72.5l17.229-9.947zM92.7811 25.9029v19.89l17.197-9.961zM139.0298 25.907v19.892l17.227-9.947zM111.9756 39.2154l-17.235 9.984 17.235 9.952zM94.746 75.9026l17.23 9.948v-19.895zM115.9052 65.9574v19.9l17.232-9.95zM140.9938 49.2015l17.23 9.948v-19.896zM117.876 89.2569l17.224 9.945v-19.891zM156.2622 62.5536l-17.232-9.949v19.9zM115.9052 12.5578v19.84l17.154-9.937zM135.1002 45.7989v-19.979l-17.274 10.006zM135.1002 72.5041v-19.9l-17.233 9.949zM115.9052 39.2535v19.896l17.23-9.948zM111.9756 32.4477v-19.895l-17.23 9.948zM156.1488 9.0855l-17.119-9.884v19.801zM158.2241 32.4496v-20.025l-17.314 10.03zM139.0298 99.2018l17.225-9.945-17.225-9.947zM135.1002-.7982l-17.234 9.95 17.234 9.949zM179.3833 22.5003l-17.23-9.948v19.895zM162.1537 85.8506l17.23-9.948-17.23-9.947zM140.994 75.9073l17.23 9.949v-19.899zM162.1537 59.1516l17.23-9.949-17.23-9.947zM181.348 45.7986v-19.896l-17.231 9.949zM181.348 72.5V52.605l-17.228 9.948z"/></g><g><path d="M140.9945-4.2804l17.23 9.948v-19.895zM162.1537-14.2255v19.901l17.232-9.951zM164.1245 9.074l17.224 9.945V-.872zM185.2783 19.0188l17.225-9.945-17.225-9.946zM208.4022 5.6676l17.23-9.948-17.23-9.947zM187.2426-4.2756l17.23 9.949v-19.899z"/></g><g><path d="M233.4319-4.2991l17.23 9.948v-19.895zM254.5911-14.2442v19.9l17.232-9.95zM256.5619 9.0553l17.224 9.945V-.8907z"/></g><g><path d="M92.7811 372.9078v19.895l17.229-9.947zM92.7811 346.2058v19.89l17.197-9.962zM139.0298 346.2099v19.892l17.227-9.947zM111.9756 359.5183l-17.235 9.984 17.235 9.952zM94.746 396.2054l17.23 9.948v-19.895zM115.9052 386.2603v19.9l17.232-9.95zM140.9938 369.5043l17.23 9.948v-19.896zM117.876 409.5598l17.224 9.945v-19.891zM156.2622 382.8565l-17.232-9.949v19.9zM115.9052 332.8606v19.84l17.154-9.937zM135.1002 366.1018v-19.979l-17.274 10.006zM135.1002 392.807v-19.9l-17.233 9.949zM115.9052 359.5563v19.896l17.23-9.948zM111.9756 352.7506v-19.895l-17.23 9.948zM156.1488 329.3883l-17.119-9.884v19.801zM158.2241 352.7525v-20.025l-17.314 10.03zM139.0298 419.5046l17.225-9.945-17.225-9.947zM135.1002 319.5046l-17.234 9.95 17.234 9.949zM179.3833 342.8032l-17.23-9.948v19.895zM162.1537 406.1534l17.23-9.948-17.23-9.947zM140.994 396.2102l17.23 9.949v-19.899zM162.1537 379.4545l17.23-9.949-17.23-9.947zM181.348 366.1014v-19.896l-17.231 9.949zM181.348 392.8029v-19.895l-17.228 9.948z"/></g><g><path d="M92.7604 533.2025v19.895l17.229-9.947zM92.7604 506.5004v19.89l17.197-9.962zM139.0089 506.5046v19.892l17.227-9.947zM111.9547 519.8129l-17.235 9.984 17.235 9.952zM94.7251 556.5001l17.23 9.948v-19.895zM115.8843 546.555v19.9l17.232-9.95zM140.9729 529.799l17.23 9.948v-19.896zM117.8552 569.8545l17.224 9.945v-19.891zM156.2413 543.1511l-17.232-9.949v19.9zM115.8843 493.1553v19.84l17.155-9.937zM135.0793 526.3964v-19.979l-17.274 10.006zM135.0793 553.1017v-19.9l-17.233 9.949zM115.8843 519.851v19.896l17.23-9.948zM111.9547 513.0452v-19.895l-17.23 9.948zM156.1281 489.683l-17.119-9.884V499.6zM158.2032 513.0471v-20.025l-17.314 10.03zM139.0089 579.7993l17.225-9.945-17.225-9.947zM135.0793 479.7993l-17.234 9.95 17.234 9.949zM179.3624 503.0979l-17.23-9.948v19.895zM162.1328 566.4481l17.23-9.948-17.23-9.947zM140.9733 556.5049l17.23 9.949v-19.899zM162.1328 539.7492l17.23-9.949-17.23-9.947zM181.3273 526.3961v-19.896l-17.231 9.949zM181.3273 553.0975v-19.895l-17.228 9.948z"/></g></g></svg>