<svg width="377" height="61" xmlns="http://www.w3.org/2000/svg"><g fill="#7C7986" fill-rule="evenodd"><path d="M18.871 47.595c-1.583 4.094-3.101 8.021-4.62 11.949H.133c.609-2.078 1.699-3.904 2.358-5.924.398-1.22 1.112-2.402 1.633-3.633 1.353-3.196 2.885-6.318 4.195-9.532 1.562-3.83 3.206-7.628 4.844-11.42 1.315-3.043 2.641-6.105 4.039-9.123 1.264-2.729 2.593-5.477 3.459-8.396.336-1.131 1.083-2.078 1.484-3.224.754-2.155 1.849-4.191 2.788-6.247h10.536c.488.884 1.137 1.749 1.47 2.722.983 2.872 2.385 5.566 3.465 8.4.702 1.841 1.653 3.624 2.419 5.469.708 1.705 1.74 3.302 2.242 5.058.497 1.736 1.725 3.091 2.069 4.925.217 1.155 1.045 2.244 1.486 3.442.713 1.934 1.913 3.689 2.623 5.623 1.071 2.917 2.525 5.665 3.539 8.611.544 1.582 1.482 3.044 2.124 4.631.911 2.257 2.014 4.438 2.855 6.73.202.55.53 1.054.899 1.773-2.499.331-4.853.113-7.193.154-2.392.042-4.786.009-7.233.009-1.647-3.967-3.29-7.923-4.981-11.999H30.004c-3.678.002-7.355.002-11.133.002zm4.218-11.121h13.723c-2.266-5.751-4.514-11.458-6.914-17.551-2.354 6.07-4.565 11.768-6.809 17.551zM354.406 60.49c-3.487.689-6.717-.99-10.037-1.967-1.519-.447-2.925-1.581-4.147-2.667-2.422-2.152-4.662-4.476-5.819-7.645-.595-1.629-1.131-3.244-1.312-4.975-.103-.979-.424-1.944-.449-2.921-.097-3.615 1.222-8.876 3.402-11.995 1.104-1.581 1.986-3.521 4.049-4.325.615-.24 1.018-.973 1.603-1.346 3.076-1.964 6.709-3.008 9.862-3.452 1.38-.194 2.775-.586 4.122-.354 2.076.359 4.188.437 6.241 1.105 2.367.771 4.625 1.664 6.603 3.175 2.105 1.608 3.931 3.44 5.432 5.693 1.454 2.185 1.813 4.7 2.789 7.014.144.339.032.788.032 1.186.002 1.679-.078 3.363.022 5.035.113 1.887-.444 3.69-1.108 5.308-.986 2.409-2.284 4.749-4.15 6.676-2.582 2.667-5.723 4.431-9.219 5.535-2.507.793-5.094 1.24-7.916.92zm9.993-20.719c-.034-.003-.068-.005-.102-.009 0-.399-.025-.8.004-1.198.185-2.561-.97-4.571-2.66-6.324-1.139-1.181-2.639-1.543-4.199-2.022-2.395-.733-4.542-.367-6.672.464-3.851 1.502-5.411 4.627-5.677 8.569-.08 1.173.239 2.27.441 3.404.274 1.534.965 2.903 1.857 4.012 1.466 1.823 3.506 2.889 5.972 2.852 1.118-.017 2.237.019 3.355-.014.447-.013.905-.105 1.336-.236 3.07-.93 5.132-2.923 5.983-6.014.308-1.111.252-2.32.362-3.484zM97.836 59.547H85.897v-4.912c-.906 1.068-1.55 2.036-2.392 2.777-2.216 1.952-4.818 3.058-7.806 3.138-.879.024-1.763-.043-2.639.013-2.6.166-4.866-.777-7.142-1.89-1.209-.591-1.858-1.669-2.805-2.474-.882-.749-1.638-1.587-1.712-2.895-.03-.542-.511-1.057-.601-1.227-.884-2.458-.475-4.746-1.252-6.867-.181-.494-.026-1.11-.026-1.669V20.45c.208-.18.449-.388.742-.641h11.737v2.155c0 5.358-.006 10.716.002 16.075.005 2.939-.3 5.916.868 8.82 1.03.923 2.061 1.845 2.961 2.652h4.818c.526-.215.864-.365 1.209-.493 1.746-.646 2.488-2.206 3.045-3.734.435-1.193.504-2.565.513-3.86.047-6.558.02-13.115.024-19.673.001-.694-.211-1.473.771-1.946h11.622c.002 13.199.002 26.372.002 39.742zM291.386 59.511V20.435c.213-.212.382-.381.615-.614h11.311v5.625c.707-.993 1.054-1.628 1.536-2.132 2.166-2.256 4.739-3.652 7.906-4.112 1.051-.152 2.097-.382 3.17-.403.32-.006.779-.138.938.022.965.976 2.265.097 3.33.69.758.422 1.852.291 2.543.77 1.521 1.054 3.083 2.115 4.129 3.725 1.37 2.112 2.013 4.418 2.489 6.905.53 2.764.325 5.482.361 8.215.084 6.155.026 12.313.026 18.47v1.936h-12.479v-2.05c0-6.876-.021-13.753.012-20.629.012-2.363-.662-4.376-2.514-5.921-.185-.153-.342-.337-.512-.507-1.19-.242-2.323-.691-3.596-.606-3.74.249-5.947 2.773-6.385 6.327-.954 7.752-.09 15.529-.537 23.367-4.032-.002-8.088-.002-12.343-.002zM271.13 30.483c-1.299-.374-2.449-.76-3.722-.665-3.541.267-5.774 2.566-6.35 6.13-.571 3.539-.376 7.068-.422 10.603-.047 3.518-.011 7.036-.011 10.554v2.422h-12.479v-2.038c0-11.833-.003-23.667.007-35.501 0-.758-.285-1.63.733-2.185h11.261v5.176c.105.026.211.051.316.077.29-.482.504-1.038.883-1.437 2.198-2.314 4.732-4.016 8.026-4.362.975-.103 1.873-.598 2.924-.479 2.406.273 4.838.567 7.054 1.511 1.77.753 3.205 2.124 4.314 3.761 1.421 2.096 2.028 4.408 2.501 6.904.493 2.61.316 5.165.35 7.737.084 6.396.027 12.792.027 19.189v1.666h-12.479v-2.354c0-6.477-.063-12.954.028-19.43.046-3.13-.556-5.266-2.961-7.279zM223.189 59.522h-12.431V34.968c-.665-2.151-1.816-3.477-3.045-4.503-2.154-.886-4.222-.886-6.196-.12-2.027.787-2.881 2.701-3.765 4.863.423 2.348-.69 4.924-.521 7.619.176 2.788.039 5.596.039 8.395v8.261h-11.937V19.859h11.435v5.019c.637-.098.733-.566 1.029-.934 2.069-2.574 4.732-4.189 8.066-4.7 1.134-.174 2.233-.588 3.404-.443 2.32.287 4.776.441 6.798 1.52 2.56 1.365 4.735 3.355 5.698 6.343.922 2.859 1.486 5.729 1.453 8.766-.084 7.989-.027 15.98-.027 24.092zM100.405 55.086c2.485-2.713 4.931-5.383 7.488-8.174.597.544 1.123.99 1.61 1.475 1.7 1.689 3.644 2.761 6.137 2.578.796-.059 1.608-.083 2.397.006 1.637.186 2.856-.489 3.875-1.72v-1.886c-.783-.856-1.724-1.34-2.86-1.753-2.414-.877-4.967-1.096-7.381-1.873-2.26-.728-4.523-1.337-6.497-2.916-1.495-1.196-2.584-2.586-3.063-4.249-.592-2.059-1.275-4.131-.497-6.477.569-1.715.907-3.415 2.03-4.938 1.545-2.094 3.357-3.589 5.85-4.513 1.868-.692 3.718-1.094 5.647-1.477 1.323-.262 2.604-.35 3.901-.341 1.055.007 2.108.285 3.161.45.974.154 1.967.244 2.915.5.995.268 1.965.658 2.913 1.071.882.384 1.776.787 2.562 1.331.836.577 1.55 1.33 2.412 2.089-1.319 1.318-2.591 2.591-3.864 3.864l-3.735 3.735c-2.758-3.065-5.945-4.396-10.189-2.769-.312.332-.858.911-1.445 1.534.064 2.27.513 2.927 2.638 3.514 2.097.579 4.191 1.129 6.351 1.501 2.945.506 5.713 1.691 8.145 3.459 1.443 1.05 2.252 2.646 2.908 4.297.773 1.948.677 3.99.54 5.994-.085 1.243-.324 2.63-.97 3.65-1.567 2.473-3.506 4.688-6.474 5.562-1.069.315-1.929 1.328-3.194.983-.759 1.051-2.156-.057-3.012.9-.215.241-.914.058-1.39.058-1.84.003-3.682-.062-5.519.017-2.406.103-6.462-1.14-9.163-2.229-1.646-.662-3.025-1.825-4.227-3.253zM133.518 19.747h7.531V8.352h12.49v11.357h10.553v10.093h-10.443v16.971c.329.647.696 1.373 1.081 2.129.607.295 1.273.619 2.222 1.08 2.104-.313 4.682.762 6.989-.883.002.001.07.03.112.081.046.055.097.13.097.197.005 3.348.004 6.695.004 10.051-.848.226-1.663.372-2.425.66-1.66.628-3.375.448-5.08.465-.879.009-1.759-.024-2.637.006-3.458.12-6.557-1.048-9.305-2.973-1.62-1.136-2.433-3.049-3.097-4.916-.249-.701-.4-1.454-.476-2.195-.081-.791-.018-1.596-.018-2.396V29.871c-1.222-.082-2.47-.021-3.713-.033-1.268-.012-2.537-.002-3.885-.002V19.747zM229.506 2.042h12.805v57.383c.023-.025-.023.043-.087.087-.059.041-.136.079-.204.079-4.146.004-8.291.003-12.514.003V2.042zM167.593 19.804h11.727c.189.189.358.358.6.601v39.016c.019-.02-.027.048-.09.092-.059.041-.136.079-.205.079-3.984.004-7.968.003-12.031.003-.001-13.302-.001-26.523-.001-39.791zM166.559 5.775c.462-.898.717-1.725 1.232-2.332 1.549-1.826 3.374-3.181 5.985-2.896.709.077 1.434.012 1.998.012 1.479.854 2.843 1.501 3.833 2.937.744 1.078.863 2.241 1.268 3.333.247.666.021 1.62-.171 2.488-.467 2.1-2.015 3.239-3.296 4.641-1.542.014-2.879 1.51-4.357.912-1.092-.443-2.434-.247-3.314-1.273-.995-1.161-2.107-2.141-2.789-3.64-.697-1.53-.058-2.954-.389-4.182z"/></g></svg>