<svg width="90" height="90" xmlns="http://www.w3.org/2000/svg" xmlns:xlink="http://www.w3.org/1999/xlink"><defs><path id="a" d="M.5782 9.5759h6.8612V.6889H.5782z"/></defs><g fill="none" fill-rule="evenodd"><circle fill-opacity=".08" fill="#FF7B5C" cx="44.9107" cy="44.9107" r="44.6429"/><path d="M29.6148 51.3283a.4977.4977 0 0 0-.256-.0696.5209.5209 0 0 0-.4544.269l-.1549.2794a.0067.0067 0 0 0-.0017.0035l-1.6013 2.8823c-.1642.296-.063.6738.2264.841l2.1364 1.2422 2.3135-4.1637-2.208-1.284zM52.6848 40.9763L62.3 46.5895l1.0295-1.8543c.2502-.4492.097-1.0255-.3403-1.2849-.0077-.0043-.0153-.0096-.023-.014l-15.881-10.0616-2.5014 1.3485c-.2586.1402-.45.3856-.525.6747l-1.4506 5.5905c-.2332.9002-.8313 1.6619-1.6405 2.0893a3.1727 3.1727 0 0 1-2.6154.1593l-1.17-.4483c-1.5749-.6041-2.4274-2.3113-1.9824-3.9714l1.9893-7.417c.1974-.7364.6602-1.3562 1.3034-1.7436l2.8912-1.7437-1.358-.431a.8712.8712 0 0 1-.1114-.0434 2.0193 2.0193 0 0 0-1.8727.0783l-7.421 4.2935c-.8415.4866-1.8242.632-2.767.41-.0178-.0043-.0357-.0078-.0519-.013l-4.0772-1.2284c-.5139-.154-1.05-.087-1.511.1907-.4604.2785-.7777.7251-.8943 1.2596L18.618 44.824c-.206.9472.285 1.8917 1.1682 2.246l7.8328 3.1383c.4373-.5014 1.0687-.7983 1.74-.7983.4016 0 .798.107 1.1486.3108l2.2735 1.3215c.433-.4536 1.0337-.7217 1.6685-.7217.4016 0 .7989.108 1.1494.3116l2.248 1.3076c.4347-.6085 1.1333-.9776 1.8803-.9776.4008 0 .7981.107 1.1487.3108l2.995 1.741c.0093.0061.0186.013.0288.0192l4.2108 2.448s.0009.0008.0018.0008c.0008.0009.0017.0009.0025.0017l6.1414 3.6171a.8992.8992 0 0 0 .7036.094c.2391-.067.4373-.2254.5607-.4457l1.0517-1.8943-9.6-5.6045c-.434-.2533-.5838-.8183-.3362-1.2605.2468-.444.7981-.599 1.232-.3456l9.5967 5.6036 1.5128-2.723-9.6-5.6054c-.4331-.2533-.5837-.8174-.3361-1.2614.2467-.4431.798-.598 1.232-.3447l9.5992 5.6045 1.5162-2.7309-9.6-5.6045c-.4331-.2533-.5837-.8183-.3362-1.2614.2468-.4431.7981-.598 1.232-.3447" fill="#FF7B5C"/><path d="M34.7057 52.2397a.504.504 0 0 0-.256-.0697c-.1872 0-.3617.1036-.4536.27l-.137.248c-.0059.0113-.011.0235-.0178.0348l-2.767 4.9812 2.6606 1.547 3.1813-5.7264-2.2105-1.285zM71.8636 45.2192L69.2693 32.855c-.2186-1.0429-1.2235-1.7167-2.2445-1.5069l-6.2528 1.5435c-.0145.0035-.028.007-.0425.0096-.9215.1802-1.8736.0113-2.6819-.4745l-9.1125-5.5557c-.6168-.3709-1.3945-.383-2.0258-.027l-2.8589 1.6079-4.6404 2.797c-.2357.1428-.4059.3708-.4782.6407l-1.9893 7.417c-.1957.732.1795 1.4842.8738 1.7506l1.169.4475c.3821.1462.7914.121 1.1538-.0705.3616-.1898.6177-.5171.7224-.9202l1.4507-5.5906c.2042-.786.7249-1.4555 1.4285-1.836L46.7 31.4919c.0068-.0035.0136-.0061.0204-.0096.0161-.0078.0315-.0157.0485-.0235.0127-.0052.0255-.0096.0391-.0148a.5677.5677 0 0 1 .0409-.0148.4765.4765 0 0 1 .0467-.014c.012-.0025.0247-.006.0358-.0086.017-.0035.034-.007.051-.0096l.0358-.0052a.9435.9435 0 0 1 .0885-.0061.794.794 0 0 1 .0459.0008.3916.3916 0 0 1 .0451.0026c.0128.001.0264.0027.04.0044.0162.0017.0323.0052.0485.0078l.0357.0079c.017.0043.0324.0087.0494.0122.0127.0043.0238.0078.0357.0121a.9886.9886 0 0 1 .046.0175.3755.3755 0 0 1 .039.0165.5477.5477 0 0 1 .0392.0191.541.541 0 0 1 .0443.0253c.0076.0043.0153.0078.0212.0122L63.9074 41.858c1.283.7687 1.7289 2.4662.9929 3.7903l-1.5094 2.7187a.8419.8419 0 0 1-.1072.1515l-.4467.8052 7.5878-1.789c1.0116-.2385 1.6574-1.2779 1.4388-2.3156" fill="#FF7B5C"/><g transform="translate(38.9916 54.3949)"><mask id="b" fill="#fff"><use xlink:href="#a"/></mask><path d="M.5782 8.2522l2.1382 1.243a.5856.5856 0 0 0 .296.081c.217 0 .4187-.12.5259-.3125l3.9011-7.027L4.7788.689.5782 8.2522z" fill="#FF7B5C" mask="url(#b)"/></g><path d="M39.9828 52.8807a.4977.4977 0 0 0-.256-.0697.5195.5195 0 0 0-.4536.269l-3.9436 7.1001 2.6623 1.5478 4.2006-7.5623-2.2097-1.285z" fill="#FF7B5C"/></g></svg>