<?xml version="1.0" encoding="UTF-8" standalone="no"?>
<svg width="468px" height="176px" viewBox="0 0 468 176" version="1.1" xmlns="http://www.w3.org/2000/svg" xmlns:xlink="http://www.w3.org/1999/xlink">
    <!-- Generator: Sketch 39 (31667) - http://www.bohemiancoding.com/sketch -->
    <title>Loom_Logo</title>
    <desc>Created with Sketch.</desc>
    <defs>
        <polygon id="path-1" points="30.3215922 0.0795584397 0.129202081 0.0795584397 0.129202081 34.8680652 30.3215922 34.8680652 30.3215922 0.0795584397"></polygon>
    </defs>
    <g id="Page-1" stroke="none" stroke-width="1" fill="none" fill-rule="evenodd">
        <g id="Loom_Concept_1" transform="translate(-486.000000, -338.000000)">
            <g id="Loom_Logo" transform="translate(486.000000, 338.000000)">
                <polygon id="Fill-1" fill="#FF7B5C" points="194.093719 130.210748 209.7562 130.210748 209.7562 44.0103928 194.093719 44.0103928"></polygon>
                <g id="Group-57" transform="translate(0.000000, 0.224100)">
                    <path d="M239.817502,106.797549 C240.581273,108.74005 241.62347,110.440536 242.949876,111.897488 C244.276586,113.35444 245.881723,114.508037 247.768633,115.356762 C249.658282,116.207005 251.766412,116.631215 254.09637,116.631215 C256.345387,116.631215 258.432825,116.207005 260.361424,115.356762 C262.290022,114.508037 263.916154,113.35444 265.239822,111.897488 C266.566532,110.440536 267.611772,108.74005 268.372196,106.797549 C269.135967,104.855048 269.519374,102.791387 269.519374,100.60687 C269.519374,98.4208348 269.135967,96.3362215 268.372196,94.3533337 C267.611772,92.3704459 266.566532,90.650526 265.239822,89.1938778 C263.916154,87.7369259 262.290022,86.5833285 260.361424,85.7330856 C258.432825,84.8843611 256.345387,84.4583287 254.09637,84.4583287 C251.766412,84.4583287 249.658282,84.8843611 247.768633,85.7330856 C245.881723,86.5833285 244.276586,87.7369259 242.949876,89.1938778 C241.62347,90.650526 240.581273,92.3704459 239.817502,94.3533337 C239.053731,96.3362215 238.673366,98.4208348 238.673366,100.60687 C238.673366,102.791387 239.053731,104.855048 239.817502,106.797549 M225.358797,88.6469894 C226.925288,84.8843611 229.093364,81.6255016 231.863327,78.8743586 C234.636638,76.122001 237.930896,73.9374841 241.7461,72.3177715 C245.561304,70.6992735 249.676235,69.8894171 254.09637,69.8894171 C258.513767,69.8894171 262.631437,70.6992735 266.446641,72.3177715 C270.262149,73.9374841 273.556102,76.122001 276.32637,78.8743586 C279.096334,81.6255016 281.267757,84.8843611 282.833944,88.6469894 C284.400131,92.4108324 285.181855,96.3975605 285.181855,100.60687 C285.181855,104.895434 284.400131,108.882162 282.833944,112.565232 C281.267757,116.247088 279.096334,119.485298 276.32637,122.278042 C273.556102,125.069268 270.262149,127.255303 266.446641,128.833415 C262.631437,130.411223 258.513767,131.200127 254.09637,131.200127 C249.676235,131.200127 245.561304,130.411223 241.7461,128.833415 C237.930896,127.255303 234.636638,125.069268 231.863327,122.278042 C229.093364,119.485298 226.925288,116.247088 225.358797,112.565232 C223.79261,108.882162 223.008147,104.895434 223.008147,100.60687 C223.008147,96.3975605 223.79261,92.4108324 225.358797,88.6469894" id="Fill-2" fill="#FF7B5C"></path>
                    <path d="M311.622334,106.797549 C312.386105,108.74005 313.428303,110.440536 314.754708,111.897488 C316.081418,113.35444 317.686555,114.508037 319.573465,115.356762 C321.463114,116.207005 323.571244,116.631215 325.901203,116.631215 C328.15022,116.631215 330.237658,116.207005 332.166256,115.356762 C334.094854,114.508037 335.720987,113.35444 337.044654,111.897488 C338.371364,110.440536 339.416604,108.74005 340.177028,106.797549 C340.940799,104.855048 341.324207,102.791387 341.324207,100.60687 C341.324207,98.4208348 340.940799,96.3362215 340.177028,94.3533337 C339.416604,92.3704459 338.371364,90.650526 337.044654,89.1938778 C335.720987,87.7369259 334.094854,86.5833285 332.166256,85.7330856 C330.237658,84.8843611 328.15022,84.4583287 325.901203,84.4583287 C323.571244,84.4583287 321.463114,84.8843611 319.573465,85.7330856 C317.686555,86.5833285 316.081418,87.7369259 314.754708,89.1938778 C313.428303,90.650526 312.386105,92.3704459 311.622334,94.3533337 C310.858563,96.3362215 310.478503,98.4208348 310.478503,100.60687 C310.478503,102.791387 310.858563,104.855048 311.622334,106.797549 M297.163629,88.6469894 C298.730121,84.8843611 300.898196,81.6255016 303.668464,78.8743586 C306.44147,76.122001 309.735728,73.9374841 313.550932,72.3177715 C317.366136,70.6992735 321.481067,69.8894171 325.901203,69.8894171 C330.318599,69.8894171 334.436269,70.6992735 338.251473,72.3177715 C342.066982,73.9374841 345.360935,76.122001 348.131203,78.8743586 C350.901166,81.6255016 353.072589,84.8843611 354.638776,88.6469894 C356.204963,92.4108324 356.986688,96.3975605 356.986688,100.60687 C356.986688,104.895434 356.204963,108.882162 354.638776,112.565232 C353.072589,116.247088 350.901166,119.485298 348.131203,122.278042 C345.360935,125.069268 342.066982,127.255303 338.251473,128.833415 C334.436269,130.411223 330.318599,131.200127 325.901203,131.200127 C321.481067,131.200127 317.366136,130.411223 313.550932,128.833415 C309.735728,127.255303 306.44147,125.069268 303.668464,122.278042 C300.898196,119.485298 298.730121,116.247088 297.163629,112.565232 C295.597442,108.882162 294.812979,104.895434 294.812979,100.60687 C294.812979,96.3975605 295.597442,92.4108324 297.163629,88.6469894" id="Fill-4" fill="#FF7B5C"></path>
                    <path d="M370.235348,71.1043231 L385.295941,71.1043231 L385.295941,75.8380502 C387.625899,73.7343065 390.135389,72.2175339 392.827759,71.286518 C395.516781,70.3558057 398.269095,69.8893868 401.081051,69.8893868 C405.097088,69.8893868 408.792705,70.7186772 412.164557,72.3787764 C415.539756,74.037661 418.390661,76.2835168 420.72062,79.1166475 C423.050578,76.60752 426.000378,74.4424373 429.576105,72.6210956 C433.151831,70.8009686 437.107922,69.8893868 441.444378,69.8893868 C445.541051,69.8893868 449.398248,70.7396296 453.012924,72.4401154 C456.6276,74.1390828 459.598396,76.4462776 461.928354,79.3601813 C463.776011,81.707459 465.222307,84.4391678 466.264505,87.5547006 C467.309746,90.671448 467.830692,94.4146423 467.830692,98.7854979 L467.830692,129.986982 L452.168515,129.986982 L452.168515,98.1772706 C452.168515,95.5069007 451.907738,93.422591 451.383748,91.9252526 C450.862802,90.4279142 450.158976,89.1534609 449.275314,88.101589 C448.071538,86.7251065 446.684882,85.7734418 445.118695,85.2475059 C443.552508,84.7215699 442.007317,84.4586019 440.479774,84.4586019 C438.794001,84.4586019 437.206513,84.7215699 435.721267,85.2475059 C434.236021,85.7734418 432.888315,86.4220557 431.684235,87.1900072 C430.480458,87.959477 429.414222,88.8097198 428.491915,89.7407358 C427.566565,90.671448 426.865782,91.5007385 426.383785,92.2286071 C426.54232,93.1997059 426.665254,94.2324474 426.746196,95.3247058 C426.82379,96.4169642 426.865782,97.5705616 426.865782,98.7854979 L426.865782,129.986982 L411.200258,129.986982 L411.200258,98.1772706 C411.200258,95.5069007 410.939785,93.422591 410.418838,91.9252526 C409.894544,90.4279142 409.193761,89.1534609 408.310404,88.101589 C407.103584,86.7251065 405.719972,85.7734418 404.153785,85.2475059 C402.587597,84.7215699 401.039363,84.4586019 399.514864,84.4586019 C397.825743,84.4586019 396.280552,84.7021358 394.875943,85.1876852 C393.468596,85.6732346 392.183878,86.2799436 391.018747,87.0090269 C389.85392,87.7368955 388.850672,88.5257994 388.006263,89.3760423 C387.164593,90.2262852 386.460768,91.0151891 385.897829,91.7430577 L385.897829,129.986982 L370.235348,129.986982 L370.235348,71.1043231 Z" id="Fill-6" fill="#FF7B5C"></path>
                    <polygon id="Fill-8" fill="#FFAE39" points="0 93.4429969 0 128.224914 30.1829571 110.835322"></polygon>
                    <polygon id="Fill-10" fill="#FFAE39" points="0 46.7603819 0 81.5341005 30.1272718 64.11809"></polygon>
                    <polygon id="Fill-12" fill="#FF9852" points="81.0238541 46.7676697 81.0238541 81.5435139 111.204985 64.154529"></polygon>
                    <polygon id="Fill-14" fill="#FFAE39" points="33.6270476 70.0343228 3.43252744 87.4888979 33.6270476 104.887904"></polygon>
                    <polygon id="Fill-16" fill="#FF9852" points="3.44214304 134.173669 33.6269259 151.565083 33.6269259 116.782862"></polygon>
                    <polygon id="Fill-18" fill="#FF9852" points="40.5113641 116.78684 40.5113641 151.578474 70.6997984 134.182202"></polygon>
                    <polygon id="Fill-20" fill="#FF9852" points="84.4645974 87.492724 114.650902 104.884442 114.650902 70.1010061"></polygon>
                    <polygon id="Fill-22" fill="#FF7B5C" points="43.9641573 157.520822 74.1395072 174.907074 74.1395072 140.132444"></polygon>
                    <polygon id="Fill-24" fill="#FF9852" points="111.213779 110.83599 81.0238237 93.441843 81.0238237 128.23287"></polygon>
                    <polygon id="Fill-26" fill="#FF9852" points="40.5113641 23.4294443 40.5113641 58.1154057 70.5646931 40.7425147"></polygon>
                    <polygon id="Fill-28" fill="#FF9852" points="74.1395376 81.5441212 74.1395376 46.6149296 43.8774648 64.1086766"></polygon>
                    <polygon id="Fill-30" fill="#FF9852" points="74.1395376 128.232324 74.1395376 93.4412964 43.9492775 110.835443"></polygon>
                    <polygon id="Fill-32" fill="#FFAE39" points="40.5113641 70.1008543 40.5113641 104.884594 70.6976684 87.4925722"></polygon>
                    <polygon id="Fill-34" fill="#FF9852" points="33.6270476 58.2025252 33.6270476 23.4206078 3.44226476 40.8117184"></polygon>
                    <polygon id="Fill-36" fill="#FF7B5C" points="111.015199 17.3589531 81.0239454 0.0795888056 81.0239454 34.6966198"></polygon>
                    <polygon id="Fill-38" fill="#FF7B5C" points="114.650902 58.2058959 114.650902 23.1968421 84.3176247 40.7312793"></polygon>
                    <polygon id="Fill-40" fill="#FF7B5C" points="81.0238541 174.907104 111.200421 157.520245 81.0238541 140.13126"></polygon>
                    <g id="Group-44" transform="translate(43.817945, 0.000000)">
                        <mask id="mask-2" fill="white">
                            <use xlink:href="#path-1"></use>
                        </mask>
                        <g id="Clip-43"></g>
                        <polygon id="Fill-42" fill="#FF7B5C" mask="url(#mask-2)" points="30.3215922 0.0794673423 0.129202081 17.4751328 30.3215922 34.8680652"></polygon>
                    </g>
                    <polygon id="Fill-45" fill="#FF7B5C" points="151.720123 40.8117791 121.53534 23.4203649 121.53534 58.202586"></polygon>
                    <polygon id="Fill-47" fill="#FF7B5C" points="121.535188 151.565508 151.720275 134.17379 121.535188 116.782983"></polygon>
                    <polygon id="Fill-49" fill="#FF7B5C" points="84.4651451 134.18205 114.650841 151.576197 114.650841 116.787295"></polygon>
                    <polygon id="Fill-51" fill="#FF9852" points="121.535188 104.88848 151.719971 87.4943334 121.535188 70.1053484"></polygon>
                    <polygon id="Fill-53" fill="#FF7B5C" points="155.162266 81.5435443 155.162266 46.7604122 124.97444 64.1527374"></polygon>
                    <polygon id="Fill-55" fill="#FF7B5C" points="155.162266 128.225036 155.162266 93.4431183 124.979917 110.835443"></polygon>
                </g>
            </g>
        </g>
    </g>
</svg>