<?xml version="1.0" encoding="UTF-8" standalone="no"?>
<svg width="43px" height="43px" viewBox="0 0 43 43" version="1.1" xmlns="http://www.w3.org/2000/svg" xmlns:xlink="http://www.w3.org/1999/xlink">
    <!-- Generator: Sketch 39.1 (31720) - http://www.bohemiancoding.com/sketch -->
    <title>Clock</title>
    <desc>Created with Sketch.</desc>
    <defs></defs>
    <g id="Page-1" stroke="none" stroke-width="1" fill="none" fill-rule="evenodd">
        <g id="Clock" fill="#1A1918">
            <path d="M21.022,0.813 C9.424,0.813 0.022,10.215 0.022,21.813 C0.022,33.411 9.424,42.813 21.022,42.813 C32.62,42.813 42.022,33.411 42.022,21.813 C42.022,10.215 32.62,0.813 21.022,0.813 L21.022,0.813 Z M21.022,40.813 C10.545,40.813 2.022,32.29 2.022,21.813 C2.022,11.337 10.545,2.813 21.022,2.813 C31.498,2.813 40.022,11.337 40.022,21.813 C40.022,32.29 31.498,40.813 21.022,40.813 L21.022,40.813 Z" id="Fill-139"></path>
            <path d="M22.022,21.399 L22.022,7.813 C22.022,7.261 21.574,6.813 21.022,6.813 C20.469,6.813 20.022,7.261 20.022,7.813 L20.022,21.813 C20.022,21.943 20.048,22.073 20.099,22.195 C20.15,22.318 20.223,22.428 20.315,22.521 L27.386,29.591 C27.581,29.787 27.837,29.885 28.093,29.885 C28.349,29.885 28.605,29.787 28.8,29.591 C29.191,29.201 29.191,28.568 28.8,28.177 L22.022,21.399" id="Fill-140"></path>
        </g>
    </g>
</svg>