<svg width="505" height="118" xmlns="http://www.w3.org/2000/svg"><g fill-rule="nonzero" fill="#7C7986"><path d="M67.346 41.3H50.629V59h16.717c4.887 0 8.85-3.962 8.85-8.85-.001-4.888-3.964-8.85-8.85-8.85z"/><path d="M59.479 0c-32.585 0-59 26.415-59 59s26.415 59 59 59 59-26.415 59-59-26.416-59-59-59zm7.867 70.8l-16.717.001V88.5H38.828v-59h28.518c11.404 0 20.649 9.246 20.649 20.65 0 11.405-9.245 20.65-20.649 20.65zM157.812 78.666V39.333h18.07c8.4 0 12.976 5.677 12.976 12.455 0 6.719-4.632 12.396-12.976 12.396h-9.844v14.482h-8.226zm22.65-26.878c0-3.245-2.495-5.215-5.736-5.215h-8.688v10.37h8.688c3.241 0 5.736-1.969 5.736-5.155zM193.862 78.666V49.99h7.353v3.767c2.028-2.434 5.449-4.46 8.925-4.46v7.181c-.523-.115-1.16-.172-2.028-.172-2.434 0-5.679 1.389-6.896 3.187v19.173h-7.354zM212.928 63.953c0-7.937 5.561-14.656 14.772-14.656 9.269 0 14.83 6.719 14.83 14.656 0 7.936-5.562 14.713-14.83 14.713-9.212 0-14.772-6.777-14.772-14.713m21.956 0c0-4.345-2.552-8.111-7.184-8.111-4.58 0-7.127 3.767-7.127 8.111 0 4.402 2.547 8.166 7.127 8.166 4.632 0 7.184-3.764 7.184-8.166M267.283 74.379c-2.202 2.78-5.212 4.287-8.632 4.287-7.009 0-12.396-5.329-12.396-14.713 0-9.095 5.273-14.656 12.396-14.656 3.302 0 6.43 1.389 8.632 4.285v-14.25h7.415v39.333h-7.415v-4.286zm0-5.445v-9.905c-1.217-1.854-3.882-3.187-6.315-3.187-4.226 0-7.122 3.303-7.122 8.111 0 4.865 2.896 8.166 7.122 8.166 2.433 0 5.098-1.332 6.315-3.185zM300.9 78.666v-4.229c-1.91 2.085-5.27 4.229-9.845 4.229-6.141 0-9.037-3.359-9.037-8.806V49.99h7.354v16.975c0 3.881 2.027 5.154 5.154 5.154 2.84 0 5.1-1.562 6.373-3.186V49.99h7.358v28.676H300.9zM313.781 63.953c0-8.573 6.255-14.656 14.83-14.656 5.735 0 9.211 2.49 11.065 5.04l-4.812 4.516c-1.33-1.969-3.358-3.012-5.905-3.012-4.462 0-7.589 3.245-7.589 8.111 0 4.865 3.127 8.166 7.589 8.166 2.547 0 4.575-1.157 5.905-3.07l4.812 4.519c-1.854 2.55-5.33 5.099-11.065 5.099-8.575 0-14.83-6.082-14.83-14.713M346.002 70.962v-14.54h-4.632V49.99h4.632v-7.646h7.358v7.646h5.674v6.432h-5.674v12.57c0 1.795.924 3.127 2.547 3.127 1.099 0 2.146-.405 2.548-.867l1.565 5.617c-1.1.986-3.071 1.797-6.142 1.797-5.154 0-7.876-2.664-7.876-7.704M406.157 78.666V61.693h-18.249v16.973h-8.221V39.333h8.221V54.51h18.249V39.333h8.283v39.333zM440.765 78.666v-4.229c-1.91 2.085-5.269 4.229-9.845 4.229-6.141 0-9.037-3.359-9.037-8.806V49.99h7.354v16.975c0 3.881 2.029 5.154 5.155 5.154 2.84 0 5.1-1.562 6.373-3.186V49.99h7.358v28.676h-7.358zM474.319 78.666V61.057c0-3.882-2.023-5.215-5.155-5.215-2.896 0-5.094 1.623-6.372 3.245v19.579h-7.354V49.99h7.354v3.592c1.797-2.084 5.273-4.285 9.792-4.285 6.197 0 9.15 3.474 9.15 8.919v20.449h-7.415v.001zM490.503 70.962v-14.54h-4.632V49.99h4.632v-7.646h7.358v7.646h5.674v6.432h-5.674v12.57c0 1.795.924 3.127 2.547 3.127 1.099 0 2.146-.405 2.552-.867l1.562 5.617c-1.1.986-3.071 1.797-6.142 1.797-5.155 0-7.877-2.664-7.877-7.704"/></g></svg>