<?xml version="1.0" encoding="UTF-8" standalone="no"?>
<svg width="35px" height="43px" viewBox="0 0 35 43" version="1.1" xmlns="http://www.w3.org/2000/svg" xmlns:xlink="http://www.w3.org/1999/xlink">
    <!-- Generator: Sketch 39.1 (31720) - http://www.bohemiancoding.com/sketch -->
    <title>Pin</title>
    <desc>Created with Sketch.</desc>
    <defs></defs>
    <g id="Page-1" stroke="none" stroke-width="1" fill="none" fill-rule="evenodd">
        <g id="Pin" fill="#1A1918">
            <path d="M17.393,11.21 C15.523,11.21 13.764,11.938 12.442,13.26 C9.712,15.99 9.712,20.43 12.442,23.16 C13.764,24.482 15.523,25.21 17.393,25.21 C19.263,25.21 21.021,24.482 22.344,23.16 C23.666,21.838 24.394,20.08 24.394,18.21 C24.394,16.34 23.666,14.583 22.344,13.26 C21.021,11.938 19.263,11.21 17.393,11.21 L17.393,11.21 Z M20.928,21.746 C19.952,22.722 18.672,23.21 17.393,23.21 C16.113,23.21 14.834,22.722 13.857,21.746 C11.905,19.793 11.905,16.627 13.857,14.675 C14.834,13.698 16.113,13.21 17.393,13.21 C18.672,13.21 19.952,13.698 20.928,14.675 C22.881,16.627 22.881,19.793 20.928,21.746 L20.928,21.746 Z" id="Fill-149"></path>
            <path d="M29.414,5.909 C26.095,2.512 21.743,0.813 17.393,0.813 C13.042,0.813 8.692,2.511 5.372,5.909 C-1.267,12.703 -1.267,23.718 5.372,30.512 L17.393,42.813 L29.414,30.512 C36.052,23.718 36.052,12.703 29.414,5.909 L29.414,5.909 Z M28.002,29.062 L17.393,39.899 L6.784,29.062 C3.95,26.167 2.389,22.318 2.389,18.225 C2.389,14.131 3.95,10.282 6.784,7.388 C9.618,4.493 13.385,2.899 17.393,2.899 C21.4,2.899 25.168,4.493 28.002,7.388 C33.852,13.363 33.852,23.086 28.002,29.062 L28.002,29.062 Z" id="Fill-150"></path>
        </g>
    </g>
</svg>