<svg width="468" height="176" xmlns="http://www.w3.org/2000/svg" xmlns:xlink="http://www.w3.org/1999/xlink"><defs><path id="a" d="M30.3216.0796H.1292V34.868h30.1924V.0796z"/></defs><g fill="none" fill-rule="evenodd"><path fill="#FF7B5C" d="M194.0937 130.2107h15.6625V44.0104h-15.6625zM239.8175 107.0216c.7638 1.9425 1.806 3.643 3.1324 5.1 1.3267 1.457 2.9318 2.6105 4.8187 3.4593 1.8897.8502 3.9978 1.2744 6.3278 1.2744 2.249 0 4.3364-.4242 6.265-1.2744 1.9286-.8488 3.5548-2.0024 4.8784-3.4593 1.3267-1.457 2.372-3.1574 3.1324-5.1.7638-1.9425 1.1472-4.0061 1.1472-6.1906 0-2.186-.3834-4.2707-1.1472-6.2536-.7604-1.9829-1.8057-3.7028-3.1324-5.1594-1.3236-1.457-2.9498-2.6106-4.8784-3.4608-1.9286-.8487-4.016-1.2748-6.265-1.2748-2.33 0-4.4381.426-6.3278 1.2748-1.8869.8502-3.492 2.0038-4.8187 3.4608-1.3264 1.4566-2.3686 3.1765-3.1324 5.1594-.7638 1.983-1.1441 4.0675-1.1441 6.2536 0 2.1845.3803 4.2481 1.1441 6.1906m-14.4587-18.1505c1.5665-3.7626 3.7346-7.0215 6.5045-9.7726 2.7733-2.7524 6.0676-4.937 9.8828-6.5566 3.8152-1.6185 7.9301-2.4284 12.3503-2.4284 4.4174 0 8.535.8099 12.3502 2.4284 3.8155 1.6197 7.1095 3.8042 9.8798 6.5566 2.77 2.7511 4.9414 6.01 6.5075 9.7726 1.5662 3.7638 2.348 7.7506 2.348 11.9599 0 4.2885-.7818 8.2753-2.348 11.9583-1.5661 3.6819-3.7376 6.9201-6.5075 9.7128-2.7703 2.7913-6.0643 4.9773-9.8798 6.5554-3.8152 1.5778-7.9328 2.3667-12.3502 2.3667-4.4202 0-8.5351-.7889-12.3503-2.3667-3.8152-1.5781-7.1095-3.7641-9.8828-6.5554-2.77-2.7927-4.938-6.031-6.5045-9.7128-1.5662-3.683-2.3507-7.6698-2.3507-11.9583 0-4.2093.7845-8.196 2.3507-11.96M311.6223 107.0216c.7638 1.9425 1.806 3.643 3.1324 5.1 1.3267 1.457 2.9319 2.6105 4.8188 3.4593 1.8896.8502 3.9977 1.2744 6.3277 1.2744 2.249 0 4.3365-.4242 6.265-1.2744 1.9287-.8488 3.5548-2.0024 4.8785-3.4593 1.3267-1.457 2.3719-3.1574 3.1323-5.1.7638-1.9425 1.1472-4.0061 1.1472-6.1906 0-2.186-.3834-4.2707-1.1472-6.2536-.7604-1.9829-1.8056-3.7028-3.1323-5.1594-1.3237-1.457-2.9498-2.6106-4.8784-3.4608-1.9286-.8487-4.016-1.2748-6.2651-1.2748-2.33 0-4.438.426-6.3277 1.2748-1.887.8502-3.492 2.0038-4.8188 3.4608-1.3264 1.4566-2.3686 3.1765-3.1324 5.1594-.7637 1.983-1.1438 4.0675-1.1438 6.2536 0 2.1845.38 4.2481 1.1438 6.1906m-14.4587-18.1505c1.5665-3.7626 3.7346-7.0215 6.5049-9.7726 2.773-2.7524 6.0672-4.937 9.8824-6.5566 3.8152-1.6185 7.9302-2.4284 12.3503-2.4284 4.4174 0 8.535.8099 12.3503 2.4284 3.8155 1.6197 7.1094 3.8042 9.8797 6.5566 2.77 2.7511 4.9414 6.01 6.5076 9.7726 1.5662 3.7638 2.3479 7.7506 2.3479 11.9599 0 4.2885-.7817 8.2753-2.348 11.9583-1.5661 3.6819-3.7375 6.9201-6.5075 9.7128-2.7703 2.7913-6.0642 4.9773-9.8797 6.5554-3.8152 1.5778-7.9329 2.3667-12.3503 2.3667-4.4201 0-8.535-.7889-12.3503-2.3667-3.8152-1.5781-7.1094-3.7641-9.8824-6.5554-2.7703-2.7927-4.9384-6.031-6.5049-9.7128-1.5662-3.683-2.3506-7.6698-2.3506-11.9583 0-4.2093.7844-8.196 2.3506-11.96M370.2353 71.3284h15.0606v4.7338c2.33-2.1038 4.8395-3.6206 7.5319-4.5516 2.689-.9307 5.4413-1.3971 8.2533-1.3971 4.016 0 7.7116.8293 11.0835 2.4894 3.3752 1.6589 6.226 3.9047 8.556 6.7378 2.33-2.509 5.2798-4.6742 8.8555-6.4955 3.5757-1.8201 7.5318-2.7317 11.8683-2.7317 4.0967 0 7.9538.8502 11.5685 2.5507 3.6147 1.699 6.5855 4.0062 8.9155 6.92 1.8476 2.3474 3.294 5.079 4.3361 8.1946 1.0452 3.1167 1.5662 6.86 1.5662 11.2308v31.2015h-15.6622V98.4014c0-2.6704-.2608-4.7547-.7848-6.252-.5209-1.4974-1.2247-2.7718-2.1084-3.8237-1.2038-1.3765-2.5904-2.3282-4.1566-2.854-1.5662-.526-3.1114-.789-4.639-.789-1.6857 0-3.2732.263-4.7584.789-1.4853.5258-2.833 1.1745-4.037 1.9424-1.2038.7695-2.27 1.6197-3.1924 2.5507-.9253.9307-1.6261 1.76-2.1081 2.488.1585.971.2815 2.0037.3624 3.096.0776 1.0923.1196 2.2459.1196 3.4608v31.2015h-15.6655V98.4014c0-2.6704-.2605-4.7547-.7815-6.252-.5243-1.4974-1.225-2.7718-2.1084-3.8237-1.2068-1.3765-2.5904-2.3282-4.1566-2.854-1.5662-.526-3.1144-.789-4.639-.789-1.689 0-3.2342.2435-4.6389.729-1.4073.4856-2.692 1.0923-3.8572 1.8214-1.1648.7279-2.168 1.5168-3.0124 2.367-.8417.8503-1.5455 1.6392-2.1085 2.367v38.244h-15.6625V71.3284z"/><path fill="#FFAE39" d="M0 93.6671v34.782l30.183-17.3897zM0 46.9845v34.7737l30.1273-17.416z"/><path fill="#FF9852" d="M81.0239 46.9918v34.7758l30.181-17.389z"/><path fill="#FFAE39" d="M33.627 70.2584L3.4325 87.713l30.1945 17.399z"/><path fill="#FF9852" d="M3.4421 134.3978l30.1848 17.3914V117.007zM40.5114 117.011v34.7916l30.1884-17.3963zM84.4646 87.7168l30.1863 17.3917V70.3251z"/><path fill="#FF7B5C" d="M43.9642 157.745l30.1753 17.3862v-34.7747z"/><path fill="#FF9852" d="M111.2138 111.06l-30.19-17.394v34.791zM40.5114 23.6535v34.686l30.0533-17.3729zM74.1395 81.7682V46.839l-30.262 17.4938zM74.1395 128.4564v-34.791l-30.1902 17.3941z"/><path fill="#FFAE39" d="M40.5114 70.325v34.7837l30.1863-17.392z"/><path fill="#FF9852" d="M33.627 58.4266V23.6447L3.4423 41.0358z"/><path fill="#FF7B5C" d="M111.0152 17.583L81.0239.3038v34.617zM114.6509 58.43V23.421L84.3176 40.9553zM81.0239 175.1312l30.1765-17.3869-30.1765-17.389z"/><g transform="translate(43.818 .2241)"><mask id="b" fill="#fff"><use xlink:href="#a"/></mask><path fill="#FF7B5C" mask="url(#b)" d="M30.3216.0795L.1292 17.475l30.1924 17.393z"/></g><path fill="#FF7B5C" d="M151.7201 41.0359l-30.1848-17.3914v34.7822zM121.5352 151.7896l30.185-17.3917-30.185-17.3908zM84.4651 134.4061l30.1857 17.3942v-34.7889z"/><path fill="#FF9852" d="M121.5352 105.1126L151.72 87.7184l-30.1848-17.389z"/><path fill="#FF7B5C" d="M155.1623 81.7676v-34.783l-30.1879 17.3922zM155.1623 128.4491V93.6672l-30.1824 17.3923z"/></g></svg>