<?xml version="1.0" encoding="UTF-8"?>
<svg width="90px" height="90px" viewBox="0 0 90 90" version="1.1" xmlns="http://www.w3.org/2000/svg" xmlns:xlink="http://www.w3.org/1999/xlink">
    <!-- Generator: Sketch 48.2 (47327) - http://www.bohemiancoding.com/sketch -->
    <title>Group 5</title>
    <desc>Created with Sketch.</desc>
    <defs>
        <polygon id="path-1" points="0.578231092 9.57589286 7.43940756 9.57589286 7.43940756 0.688941964 0.578231092 0.688941964"></polygon>
    </defs>
    <g id="Award_Confirmation_11818@2x" stroke="none" stroke-width="1" fill="none" fill-rule="evenodd" transform="translate(-388.000000, -257.000000)">
        <g id="Group-18" transform="translate(321.000000, 257.000000)">
            <g id="Group-10">
                <g id="Group-5" transform="translate(67.000000, 0.000000)">
                    <circle id="Oval-7" fill-opacity="0.08" fill="#FF7B5C" cx="44.9107143" cy="44.9107143" r="44.6428571"></circle>
                    <g id="Page-1" transform="translate(18.571429, 25.714286)">
                        <g>
                            <path d="M11.0433971,25.6140335 C10.9634181,25.5670246 10.8774832,25.5443906 10.7872941,25.5443906 C10.6001092,25.5443906 10.4248361,25.6471138 10.3329454,25.8133862 L10.1780924,26.0928281 C10.1772416,26.0936987 10.1763908,26.0954397 10.1763908,26.0963103 L8.57510924,28.978654 C8.41089706,29.2746362 8.51214706,29.6524487 8.80143277,29.8195915 L10.9378929,31.061846 L13.2513277,26.8980737 L11.0433971,25.6140335 Z" id="Fill-1" fill="#FF7B5C"></path>
                            <g id="Group-5" transform="translate(0.000000, 0.823440)" fill="#FF7B5C">
                                <path d="M34.1133372,14.4385313 L43.7286838,20.0517455 L44.7582006,18.1975045 C45.0083477,17.748308 44.8551964,17.1720134 44.4178645,16.9125937 C44.4102069,16.9082411 44.4025494,16.9030179 44.3948918,16.8986652 L28.5139569,6.83701339 L26.0124863,8.18547321 C25.7538309,8.32562946 25.5623918,8.57112054 25.4875179,8.86013839 L24.0368351,14.4507188 C23.8037048,15.3508527 23.2055641,16.1125714 22.3964149,16.5400045 C21.5864149,16.9674375 20.6334737,17.0257634 19.7809317,16.6993125 L18.6110263,16.2509866 C17.0361208,15.6468348 16.1835788,13.9397143 16.6285683,12.2796027 L18.617833,4.86263839 C18.8152279,4.12616518 19.2780851,3.50634375 19.9213204,3.11895536 L22.8124758,1.37527232 L21.4545347,0.944357143 C21.4162468,0.932169643 21.3796607,0.918241071 21.3430746,0.900830357 C20.7449338,0.61790625 20.0446922,0.647504464 19.470375,0.979178571 L12.0493456,5.27266071 C11.2078645,5.75929018 10.2251439,5.90466964 9.28241282,5.68268304 C9.26454517,5.67833036 9.24667752,5.67484821 9.23051155,5.669625 L5.15328466,4.44129911 C4.6393771,4.28721429 4.10334769,4.35424554 3.64219223,4.63194643 C3.18188761,4.91051786 2.86452416,5.35710268 2.74795903,5.89161161 L0.0465409664,18.2862991 C-0.159362395,19.233442 0.331572479,20.1779732 1.21474475,20.5322813 L9.04758088,23.6705625 C9.48491282,23.1691339 10.1162363,22.8722813 10.7875494,22.8722813 C11.189146,22.8722813 11.5856376,22.9793571 11.9361838,23.1830625 L14.2096292,24.5045357 C14.6427069,24.0509866 15.2434002,23.7828616 15.8781271,23.7828616 C16.2797237,23.7828616 16.6770662,23.890808 17.0276124,24.0945134 L19.2755326,25.402058 C19.710312,24.7935536 20.4088519,24.4244464 21.1558897,24.4244464 C21.5566355,24.4244464 21.9539779,24.5315223 22.3045242,24.7352277 L25.2994821,26.4762991 C25.3088414,26.4823929 25.3182006,26.4893571 25.3284107,26.4954509 L29.5392195,28.9433973 C29.5392195,28.9433973 29.5400704,28.9442679 29.5409212,28.9442679 C29.5417721,28.9451384 29.5426229,28.9451384 29.5434737,28.9460089 L35.6848393,32.5630848 C35.9001019,32.690183 36.1493981,32.7232634 36.3884842,32.6571027 C36.6275704,32.5900714 36.8258162,32.4316339 36.949188,32.2113884 L38.0008267,30.3171027 L28.4007952,24.7125937 C27.9668666,24.4592679 27.8171187,23.8942902 28.0647132,23.452058 C28.3114569,23.0080848 28.8628015,22.8531295 29.29673,23.1064554 L38.8933582,28.7100937 L40.4061523,25.987058 L30.8061208,20.3816786 C30.3730431,20.1283527 30.2224443,19.5642455 30.4700389,19.1202723 C30.7167826,18.6771696 31.2681271,18.5222143 31.7020557,18.7755402 L41.3012363,24.3800491 L42.8174338,21.6491786 L33.2174023,16.0446696 C32.7843246,15.7913437 32.6337258,15.2263661 32.8813204,14.7832634 C33.1280641,14.3401607 33.6794086,14.1852054 34.1133372,14.4385313" id="Fill-3"></path>
                            </g>
                            <path d="M16.1343151,26.5253973 C16.0543361,26.4792589 15.9692521,26.4557545 15.8782122,26.4557545 C15.6910273,26.4557545 15.516605,26.5593482 15.4247143,26.7256205 L15.287729,26.9737232 C15.2817731,26.9850402 15.2766681,26.9972277 15.2698613,27.0085446 L12.5029286,31.98975 L15.1635063,33.536692 L18.3447983,27.810308 L16.1343151,26.5253973 Z" id="Fill-6" fill="#FF7B5C"></path>
                            <g id="Group-10" transform="translate(17.867647, 0.823440)" fill="#FF7B5C">
                                <path d="M35.4244821,18.6815223 L32.83027,6.31730357 C32.611604,5.27440179 31.6067616,4.60060714 30.5857532,4.81040625 L24.3329275,6.35386607 C24.3184632,6.35734821 24.3048498,6.36083036 24.2903855,6.36344196 C23.3689254,6.54364286 22.4168351,6.37475893 21.6085368,5.889 L12.4960368,0.333241071 C11.8791775,-0.0376071429 11.1015095,-0.0497946429 10.4701859,0.306254464 L7.61136239,1.91413393 L2.9708792,4.71116518 C2.73519643,4.85393304 2.56502836,5.08201339 2.49270693,5.35187946 L0.503442227,12.7688438 C0.30774895,13.5009643 0.682969538,14.2531071 1.37725525,14.5194911 L2.54630987,14.9669464 C2.92833718,15.1131964 3.33759139,15.0879509 3.70004937,14.896433 C4.06165651,14.7066563 4.31775945,14.3793348 4.42241282,13.9762768 L5.87309559,8.38569643 C6.07729727,7.59960268 6.59801155,6.93016071 7.30165651,6.54973661 L10.2608792,4.95404464 C10.2676859,4.9505625 10.2744926,4.94795089 10.2812994,4.94446875 C10.2974653,4.93663393 10.3127805,4.92879911 10.3297973,4.92096429 C10.3425599,4.91574107 10.3553225,4.91138839 10.3689359,4.90616518 C10.3816985,4.90094196 10.3961628,4.89571875 10.4097763,4.89136607 C10.4250914,4.88614286 10.4412574,4.88091964 10.4565725,4.8774375 C10.4684842,4.87482589 10.4812468,4.87134375 10.4923078,4.86873214 C10.5093246,4.86525 10.5263414,4.86176786 10.5433582,4.85915625 C10.55527,4.85741518 10.5671817,4.85567411 10.5790935,4.85393304 C10.5952595,4.85219196 10.6122763,4.85045089 10.6284422,4.84958036 C10.6420557,4.84870982 10.6556691,4.84783929 10.6675809,4.84783929 C10.6837468,4.84783929 10.6982111,4.84783929 10.7135263,4.84870982 C10.7288414,4.84870982 10.7433057,4.84958036 10.7586208,4.85132143 C10.7713834,4.85219196 10.7849968,4.85393304 10.7986103,4.85567411 C10.8147763,4.85741518 10.8309422,4.86089732 10.8471082,4.86350893 C10.85902,4.86612054 10.8709317,4.86873214 10.8828435,4.87134375 C10.8998603,4.87569643 10.9151754,4.88004911 10.9321922,4.88353125 C10.9449548,4.88788393 10.9560158,4.89136607 10.9679275,4.89571875 C10.9832426,4.90094196 10.9985578,4.90703571 11.0138729,4.91312946 C11.0266355,4.91748214 11.0402489,4.92357589 11.0530116,4.92966964 C11.066625,4.93576339 11.0793876,4.94185714 11.0921502,4.94882143 C11.1074653,4.95665625 11.1227805,4.96536161 11.1363939,4.97406696 C11.1440515,4.97841964 11.151709,4.98190179 11.1576649,4.98625446 L27.4682742,15.3203839 C28.7513414,16.089067 29.1971817,17.7866116 28.4612048,19.1106964 L26.9518141,21.8293795 C26.9211838,21.8859643 26.8845977,21.9347143 26.8446082,21.9808527 L26.397917,22.7860982 L33.9857111,20.9971473 C34.9973603,20.7586205 35.6431481,19.7192009 35.4244821,18.6815223" id="Fill-8"></path>
                            </g>
                            <g id="Group-13" transform="translate(20.420168, 28.680583)">
                                <mask id="mask-2" fill="white">
                                    <use xlink:href="#path-1"></use>
                                </mask>
                                <g id="Clip-12"></g>
                                <path d="M0.578231092,8.25215625 L2.71639286,9.49528125 C2.80828361,9.54838393 2.90783193,9.57624107 3.01248529,9.57624107 C3.22944958,9.57624107 3.43109874,9.45610714 3.53830462,9.26371875 L7.43940756,2.23675446 L4.77882983,0.688941964 L0.578231092,8.25215625 Z" id="Fill-11" fill="#FF7B5C" mask="url(#mask-2)"></path>
                            </g>
                            <path d="M21.4113971,27.1663728 C21.3314181,27.1193638 21.2454832,27.0967299 21.1552941,27.0967299 C20.9681092,27.0967299 20.793687,27.1994531 20.7017962,27.3657254 L16.7581513,34.4658147 L19.4204307,36.0136272 L23.6210294,28.4512835 L21.4113971,27.1663728 Z" id="Fill-14" fill="#FF7B5C"></path>
                        </g>
                    </g>
                </g>
            </g>
        </g>
    </g>
</svg>