<svg width="171" height="24" xmlns="http://www.w3.org/2000/svg"><g fill-rule="nonzero" fill="#7C7986"><path d="M63.974 9.377V20h-3.881V9.377h-3.921V5.996h11.723v3.381zM76.954 15.779h-6.161c.12 1.16.8 1.68 1.78 1.68.92 0 1.681-.2 2.721-.74l1.38 2.301c-1.3.76-2.641 1.2-4.28 1.2-3.161 0-4.901-2.241-4.901-5.462 0-3.62 2.04-5.48 4.801-5.48 2.881 0 4.682 1.9 4.682 5.801-.001.3-.001.52-.022.7zm-4.761-3.841c-.82 0-1.28.56-1.4 1.6h3.001c-.181-1.06-.541-1.6-1.601-1.6zM83.653 20.22c-3.08 0-4.921-1.96-4.921-5.501 0-3.221 1.641-5.441 5.001-5.441 1.98 0 3.121.92 4.041 2.4l-2.48 1.88c-.5-.92-.841-1.36-1.62-1.36-.921 0-1.381.92-1.381 2.581s.5 2.521 1.48 2.521c.68 0 1.16-.38 1.82-1.36l2.28 1.78c-1.219 1.8-2.359 2.5-4.22 2.5zM95.934 20v-5.962c0-1.36-.46-1.72-1.2-1.72-.761 0-1.221.36-1.221 1.68V20h-3.601V6.857l3.601-1.44v4.781c.66-.5 1.4-.92 2.641-.92 2.301 0 3.401 1.54 3.401 4.301V20h-3.621zM108.174 20.22c-4.161 0-6.382-3.081-6.382-7.222 0-4.501 2.641-7.222 6.401-7.222 3.441 0 4.802 1.48 5.762 4.121l-3.521 1.38c-.501-1.3-.98-2.121-2.261-2.121-1.62 0-2.32 1.62-2.32 3.841 0 2.141.68 3.841 2.36 3.841 1.22 0 1.74-.66 2.5-1.98l3.281 1.74c-.939 1.841-2.5 3.622-5.82 3.622zM122.853 13.458c-.46-.5-.979-.88-1.68-.88-.881 0-1.421.42-1.421 1.7V20h-3.601V9.497h3.601v.76c.62-.6 1.32-.98 2.241-.98.76 0 1.28.18 1.7.44l-.84 3.741zM131.413 20v-.701c-.641.5-1.4.921-2.62.921-2.301 0-3.401-1.54-3.401-4.302V9.497h3.621v5.962c0 1.359.46 1.72 1.2 1.72s1.2-.36 1.2-1.681V9.497h3.621V20h-3.621zM143.653 20v-5.962c0-1.36-.46-1.72-1.2-1.72-.761 0-1.221.36-1.221 1.68V20h-3.601V9.497h3.601v.7c.66-.5 1.4-.92 2.641-.92 2.301 0 3.401 1.54 3.401 4.301V20h-3.621zM154.292 20.22c-3.08 0-4.921-1.96-4.921-5.501 0-3.221 1.641-5.441 5.001-5.441 1.98 0 3.121.92 4.041 2.4l-2.48 1.88c-.5-.92-.841-1.36-1.62-1.36-.921 0-1.381.92-1.381 2.581s.5 2.521 1.48 2.521c.68 0 1.16-.38 1.82-1.36l2.28 1.78c-1.219 1.8-2.36 2.5-4.22 2.5zM166.572 20v-5.962c0-1.36-.46-1.72-1.2-1.72-.761 0-1.221.36-1.221 1.68V20h-3.601V6.857l3.601-1.44v4.781c.66-.5 1.4-.92 2.641-.92 2.301 0 3.401 1.54 3.401 4.301V20h-3.621z"/><g><path d="M0 0v8h8v16h8V8h8V0zM32 16V8h-8v16h24v-8zM32 0h16v8H32z"/></g></g></svg>