<svg width="273" height="580" xmlns="http://www.w3.org/2000/svg"><g fill="#FFF" fill-rule="evenodd"><path d="M-.7521 52.5628v19.895l17.228-9.947zM-.7521 25.8607v19.89l17.197-9.961zM45.4965 25.8648v19.892l17.227-9.947zM18.4423 39.1732l-17.235 9.984 17.235 9.952zM1.2127 75.8604l17.23 9.948v-19.895zM22.3719 65.9153v19.901l17.232-9.951zM47.4604 49.1593l17.23 9.948v-19.896zM24.3427 89.2148l17.224 9.945v-19.891zM62.7289 62.5115l-17.232-9.949v19.9zM22.3719 12.5156v19.84l17.154-9.937zM41.5669 45.7567v-19.979l-17.274 10.006zM41.5669 72.462v-19.9l-17.233 9.949zM22.3719 39.2113v19.896l17.23-9.948zM18.4423 32.4055v-19.895l-17.23 9.948zM62.6156 9.0433l-17.119-9.884v19.801zM64.6909 32.4074v-20.025l-17.314 10.03zM45.4965 99.1596l17.225-9.945-17.225-9.947zM41.5669-.8404l-17.234 9.95 17.234 9.949zM85.85 22.4582l-17.23-9.948v19.895zM68.6204 85.8084l17.23-9.948-17.23-9.947zM47.4608 75.8652l17.23 9.949v-19.899zM68.6204 59.1095l17.23-9.949-17.23-9.947zM87.8148 45.7564v-19.896l-17.231 9.949zM87.8148 72.4578v-19.895l-17.228 9.948z"/><g><path d="M45.5381 132.6398v19.895l17.228-9.947zM45.5381 105.9377v19.89l17.197-9.962zM91.7867 105.9419v19.892l17.227-9.947zM64.7325 119.2502l-17.235 9.984 17.235 9.952zM47.5029 155.9374l17.23 9.948v-19.895zM68.6621 145.9923v19.9l17.232-9.95zM93.7507 129.2362l17.23 9.948v-19.896zM70.6329 169.2918l17.224 9.945v-19.891zM109.0192 142.5884l-17.232-9.949v19.9zM68.6621 92.5926v19.84l17.154-9.937zM87.8571 125.8337v-19.979l-17.274 10.006zM87.8571 152.539v-19.9l-17.233 9.949zM68.6621 119.2882v19.896l17.23-9.948zM64.7325 112.4825v-19.895l-17.23 9.948zM108.9058 89.1203l-17.119-9.884v19.801zM110.9811 112.4844v-20.025l-17.314 10.03zM91.7867 179.2366l17.225-9.945-17.225-9.947zM87.8571 79.2366l-17.234 9.95 17.234 9.949zM132.1402 102.5351l-17.23-9.948v19.895zM114.9106 165.8854l17.23-9.948-17.23-9.947zM93.751 155.9422l17.23 9.949v-19.899zM114.9106 139.1865l17.23-9.949-17.23-9.947zM134.105 125.8334v-19.896l-17.231 9.949zM134.105 152.5348v-19.895l-17.228 9.948z"/></g><g><path d="M-.7514 105.9419v19.892l17.227-9.947zM1.2125 129.2362l17.23 9.948v-19.896zM16.481 142.5884l-17.232-9.949v19.9zM16.3677 89.1203l-17.119-9.884v19.801zM18.4429 112.4844v-20.025l-17.314 10.03zM-.7514 179.2366l17.225-9.945-17.225-9.947zM39.6021 102.5351l-17.23-9.948v19.895zM22.3725 165.8854l17.23-9.948-17.23-9.947zM1.2129 155.9422l17.23 9.949v-19.899zM22.3725 139.1865l17.23-9.949-17.23-9.947zM41.5669 125.8334v-19.896l-17.231 9.949zM41.5669 152.5348v-19.895l-17.228 9.948z"/></g><g><path d="M-.7521 212.7489v19.895l17.228-9.947zM-.7521 186.0468v19.89l17.197-9.962zM45.4965 186.051v19.892l17.227-9.947zM18.4423 199.3593l-17.235 9.984 17.235 9.952zM1.2127 236.0465l17.23 9.948v-19.895zM22.3719 226.1014v19.9l17.232-9.95zM47.4604 209.3454l17.23 9.948v-19.896zM24.3427 249.4009l17.224 9.945v-19.891zM62.7289 222.6975l-17.232-9.949v19.9zM22.3719 172.7017v19.84l17.154-9.937zM41.5669 205.9428v-19.979l-17.274 10.006zM41.5669 232.6481v-19.9l-17.233 9.949zM22.3719 199.3974v19.896l17.23-9.948zM18.4423 192.5916v-19.895l-17.23 9.948zM62.6156 169.2294l-17.119-9.884v19.801zM64.6909 192.5935v-20.025l-17.314 10.03zM45.4965 259.3457l17.225-9.945-17.225-9.947zM41.5669 159.3457l-17.234 9.95 17.234 9.949zM85.85 182.6443l-17.23-9.948v19.895zM68.6204 245.9945l17.23-9.948-17.23-9.947zM47.4608 236.0513l17.23 9.949v-19.899zM68.6204 219.2956l17.23-9.949-17.23-9.947zM87.8148 205.9425v-19.896l-17.231 9.949zM87.8148 232.644v-19.895l-17.228 9.948z"/></g><g><path d="M45.5381 292.8259v19.895l17.228-9.947zM45.5381 266.1238v19.89l17.197-9.962zM91.7867 266.128v19.892l17.227-9.947zM64.7325 279.4363l-17.235 9.984 17.235 9.952zM47.5029 316.1235l17.23 9.948v-19.895zM68.6621 306.1784v19.9l17.232-9.95zM93.7507 289.4224l17.23 9.948v-19.896zM70.6329 329.4779l17.224 9.945v-19.891zM109.0192 302.7745l-17.232-9.949v19.9zM68.6621 252.7787v19.84l17.154-9.937zM87.8571 286.0198v-19.979l-17.274 10.006zM87.8571 312.7251v-19.9l-17.233 9.949zM68.6621 279.4744v19.896l17.23-9.948zM64.7325 272.6686v-19.895l-17.23 9.948zM108.9058 249.3064l-17.119-9.884v19.801zM110.9811 272.6705v-20.025l-17.314 10.03zM91.7867 339.4227l17.225-9.945-17.225-9.947zM87.8571 239.4227l-17.234 9.95 17.234 9.949zM132.1402 262.7213l-17.23-9.948v19.895zM114.9106 326.0715l17.23-9.948-17.23-9.947zM93.751 316.1283l17.23 9.949v-19.899zM114.9106 299.3726l17.23-9.949-17.23-9.947zM134.105 286.0195v-19.896l-17.231 9.949zM134.105 312.721v-19.895l-17.228 9.948z"/></g><g><path d="M-.7514 266.128v19.892l17.227-9.947zM1.2125 289.4224l17.23 9.948v-19.896zM16.481 302.7745l-17.232-9.949v19.9zM16.3677 249.3064l-17.119-9.884v19.801zM18.4429 272.6705v-20.025l-17.314 10.03zM-.7514 339.4227l17.225-9.945-17.225-9.947zM39.6021 262.7213l-17.23-9.948v19.895zM22.3725 326.0715l17.23-9.948-17.23-9.947zM1.2129 316.1283l17.23 9.949v-19.899zM22.3725 299.3726l17.23-9.949-17.23-9.947zM41.5669 286.0195v-19.896l-17.231 9.949zM41.5669 312.721v-19.895l-17.228 9.948z"/></g><g><path d="M-.7104 373.0011v19.895l17.228-9.947zM-.7104 346.299v19.89l17.197-9.962zM45.5381 346.3032v19.892l17.227-9.947zM18.484 359.6115l-17.235 9.984 17.235 9.952zM1.2544 396.2987l17.23 9.948v-19.895zM22.4135 386.3536v19.9l17.232-9.95zM47.5021 369.5976l17.23 9.948v-19.896zM24.3844 409.6531l17.224 9.945v-19.891zM62.7706 382.9497l-17.232-9.949v19.9zM22.4135 332.9539v19.84l17.154-9.937zM41.6086 366.195v-19.979l-17.274 10.006zM41.6086 392.9003v-19.9l-17.233 9.949zM22.4135 359.6496v19.896l17.23-9.948zM18.484 352.8438v-19.895l-17.23 9.948zM62.6573 329.4816l-17.119-9.884v19.801zM64.7325 352.8457v-20.025l-17.314 10.03zM45.5381 419.5979l17.225-9.945-17.225-9.947zM41.6086 319.5979l-17.234 9.95 17.234 9.949zM85.8917 342.8964l-17.23-9.948v19.895zM68.6621 406.2467l17.23-9.948-17.23-9.947zM47.5024 396.3035l17.23 9.949v-19.899zM68.6621 379.5478l17.23-9.949-17.23-9.947zM87.8565 366.1947v-19.896l-17.231 9.949zM87.8565 392.8961v-19.895l-17.228 9.948z"/></g><g><path d="M45.5798 453.0781v19.895l17.228-9.947zM45.5798 426.376v19.89l17.197-9.962zM91.8284 426.3802v19.892l17.227-9.947zM64.7742 439.6885l-17.235 9.984 17.235 9.952zM47.5446 476.3757l17.23 9.948v-19.895zM68.7038 466.4306v19.9l17.232-9.95zM93.7923 449.6746l17.23 9.948v-19.896zM70.6746 489.7301l17.224 9.945v-19.891zM109.0608 463.0267l-17.232-9.949v19.9zM68.7038 413.0309v19.84l17.154-9.937zM87.8988 446.272v-19.979l-17.274 10.006zM87.8988 472.9773v-19.9l-17.233 9.949zM68.7038 439.7266v19.896l17.23-9.948zM64.7742 432.9208v-19.895l-17.23 9.948zM108.9475 409.5586l-17.119-9.884v19.801zM111.0227 432.9227v-20.025l-17.314 10.03zM91.8284 499.6749l17.225-9.945-17.225-9.947zM87.8988 399.6749l-17.234 9.95 17.234 9.949zM132.1819 422.9734l-17.23-9.948v19.895zM114.9523 486.3237l17.23-9.948-17.23-9.947zM93.7927 476.3805l17.23 9.949v-19.899zM114.9523 459.6248l17.23-9.949-17.23-9.947zM134.1467 446.2717v-19.896l-17.231 9.949zM134.1467 472.9731v-19.895l-17.228 9.948z"/></g><g><path d="M-.7098 426.3802v19.892l17.227-9.947zM1.2542 449.6746l17.23 9.948v-19.896zM16.5227 463.0267l-17.232-9.949v19.9zM16.4093 409.5586l-17.119-9.884v19.801zM18.4846 432.9227v-20.025l-17.314 10.03zM-.7098 499.6749l17.225-9.945-17.225-9.947zM39.6438 422.9734l-17.23-9.948v19.895zM22.4142 486.3237l17.23-9.948-17.23-9.947zM1.2545 476.3805l17.23 9.949v-19.899zM22.4142 459.6248l17.23-9.949-17.23-9.947zM41.6086 446.2717v-19.896l-17.231 9.949zM41.6086 472.9731v-19.895l-17.228 9.948z"/></g><g><path d="M-.7104 533.1872v19.895l17.228-9.947zM-.7104 506.4851v19.89l17.197-9.962zM45.5381 506.4893v19.892l17.227-9.947zM18.484 519.7976l-17.235 9.984 17.235 9.952zM1.2544 556.4848l17.23 9.948v-19.895zM22.4135 546.5397v19.9l17.232-9.95zM47.5021 529.7837l17.23 9.948v-19.896zM24.3844 569.8392l17.224 9.945v-19.891zM62.7706 543.1358l-17.232-9.949v19.9zM22.4135 493.14v19.84l17.154-9.937zM41.6086 526.3811v-19.979l-17.274 10.006zM41.6086 553.0864v-19.9l-17.233 9.949zM22.4135 519.8357v19.896l17.23-9.948zM18.484 513.0299v-19.895l-17.23 9.948zM62.6573 489.6677l-17.119-9.884v19.801zM64.7325 513.0318v-20.025l-17.314 10.03zM45.5381 579.784l17.225-9.945-17.225-9.947zM41.6086 479.784l-17.234 9.95 17.234 9.949zM85.8917 503.0826l-17.23-9.948v19.895zM68.6621 566.4328l17.23-9.948-17.23-9.947zM47.5024 556.4896l17.23 9.949v-19.899zM68.6621 539.7339l17.23-9.949-17.23-9.947zM87.8565 526.3808v-19.896l-17.231 9.949zM87.8565 553.0822v-19.895l-17.228 9.948z"/></g><g><path d="M68.7038 573.217v19.84l17.154-9.937zM64.7742 593.1069v-19.895l-17.23 9.948zM108.9475 569.7447l-17.119-9.884v19.801zM111.0227 593.1088v-20.025l-17.314 10.03zM87.8988 559.861l-17.234 9.95 17.234 9.949zM132.1819 583.1596l-17.23-9.948v19.895z"/></g><g><path d="M16.4093 569.7447l-17.119-9.884v19.801zM18.4846 593.1088v-20.025l-17.314 10.03zM39.6438 583.1596l-17.23-9.948v19.895z"/></g><g><path d="M138.0386 132.6398v19.895l17.228-9.947zM138.0386 105.9377v19.89l17.197-9.962zM184.2872 105.9419v19.892l17.227-9.947zM157.233 119.2502l-17.235 9.984 17.235 9.952zM140.0034 155.9374l17.23 9.948v-19.895zM161.1626 145.9923v19.9l17.232-9.95zM186.2512 129.2362l17.23 9.948v-19.896zM163.1334 169.2918l17.224 9.945v-19.891zM201.5197 142.5884l-17.232-9.949v19.9zM161.1626 92.5926v19.84l17.154-9.937zM180.3576 125.8337v-19.979l-17.274 10.006zM180.3576 152.539v-19.9l-17.233 9.949zM161.1626 119.2882v19.896l17.23-9.948zM157.233 112.4825v-19.895l-17.23 9.948zM201.4063 89.1203l-17.119-9.884v19.801zM203.4816 112.4844v-20.025l-17.314 10.03zM184.2872 179.2366l17.225-9.945-17.225-9.947zM180.3576 79.2366l-17.234 9.95 17.234 9.949zM224.6407 102.5351l-17.23-9.948v19.895zM207.4111 165.8854l17.23-9.948-17.23-9.947zM186.2515 155.9422l17.23 9.949v-19.899zM207.4111 139.1865l17.23-9.949-17.23-9.947zM226.6055 125.8334v-19.896l-17.231 9.949zM226.6055 152.5348v-19.895l-17.228 9.948z"/></g><g><path d="M138.0386 292.8259v19.895l17.228-9.947zM138.0386 266.1238v19.89l17.197-9.962zM184.2872 266.128v19.892l17.227-9.947zM157.233 279.4363l-17.235 9.984 17.235 9.952zM140.0034 316.1235l17.23 9.948v-19.895zM161.1626 306.1784v19.9l17.232-9.95zM186.2512 289.4224l17.23 9.948v-19.896zM163.1334 329.4779l17.224 9.945v-19.891zM201.5197 302.7745l-17.232-9.949v19.9zM161.1626 252.7787v19.84l17.154-9.937zM180.3576 286.0198v-19.979l-17.274 10.006zM180.3576 312.7251v-19.9l-17.233 9.949zM161.1626 279.4744v19.896l17.23-9.948zM157.233 272.6686v-19.895l-17.23 9.948zM201.4063 249.3064l-17.119-9.884v19.801zM203.4816 272.6705v-20.025l-17.314 10.03zM184.2872 339.4227l17.225-9.945-17.225-9.947zM180.3576 239.4227l-17.234 9.95 17.234 9.949zM224.6407 262.7213l-17.23-9.948v19.895zM207.4111 326.0715l17.23-9.948-17.23-9.947zM186.2515 316.1283l17.23 9.949v-19.899zM207.4111 299.3726l17.23-9.949-17.23-9.947zM226.6055 286.0195v-19.896l-17.231 9.949zM226.6055 312.721v-19.895l-17.228 9.948z"/></g><g><path d="M184.3282 373.0011v19.895l17.228-9.947zM184.3282 346.299v19.89l17.197-9.962zM230.5768 346.3032v19.892l17.227-9.947zM203.5226 359.6115l-17.235 9.984 17.235 9.952zM186.293 396.2987l17.23 9.948v-19.895zM207.4522 386.3536v19.9l17.232-9.95zM232.5407 369.5976l17.23 9.948v-19.896zM209.423 409.6531l17.224 9.945v-19.891zM247.8092 382.9497l-17.232-9.949v19.9zM207.4522 332.9539v19.84l17.154-9.937zM226.6472 366.195v-19.979l-17.274 10.006zM226.6472 392.9003v-19.9l-17.233 9.949zM207.4522 359.6496v19.896l17.23-9.948zM203.5226 352.8438v-19.895l-17.23 9.948zM247.6959 329.4816l-17.119-9.884v19.801zM249.7711 352.8457v-20.025l-17.314 10.03zM230.5768 419.5979l17.225-9.945-17.225-9.947zM226.6472 319.5979l-17.234 9.95 17.234 9.949zM270.9303 342.8964l-17.23-9.948v19.895zM253.7007 406.2467l17.23-9.948-17.23-9.947zM232.5411 396.3035l17.23 9.949v-19.899zM253.7007 379.5478l17.23-9.949-17.23-9.947zM272.8951 366.1947v-19.896l-17.231 9.949zM272.8951 392.8961v-19.895l-17.228 9.948z"/></g><g><path d="M161.2043 573.217v19.84l17.154-9.937zM157.2747 593.1069v-19.895l-17.23 9.948zM201.448 569.7447l-17.119-9.884v19.801zM203.5232 593.1088v-20.025l-17.314 10.03zM180.3993 559.861l-17.234 9.95 17.234 9.949zM224.6824 583.1596l-17.23-9.948v19.895z"/></g><g><path d="M91.8492 212.7329v19.895l17.228-9.947zM91.8492 186.0309v19.89l17.197-9.962zM138.0977 186.035v19.892l17.227-9.947zM111.0436 199.3434l-17.235 9.984 17.235 9.952zM93.814 236.0306l17.23 9.948v-19.895zM114.9731 226.0854v19.9l17.232-9.95zM140.0617 209.3294l17.23 9.948v-19.896zM116.944 249.385l17.224 9.945v-19.891zM155.3302 222.6816l-17.232-9.949v19.9zM114.9731 172.6857v19.84l17.154-9.937zM134.1682 205.9269v-19.979l-17.274 10.006zM134.1682 232.6321v-19.9l-17.233 9.949zM114.9731 199.3814v19.896l17.23-9.948zM111.0436 192.5757v-19.895l-17.23 9.948zM155.2169 169.2135l-17.119-9.884v19.801zM157.2921 192.5776v-20.025l-17.314 10.03zM138.0977 259.3298l17.225-9.945-17.225-9.947zM134.1682 159.3298l-17.234 9.95 17.234 9.949zM178.4513 182.6283l-17.23-9.948v19.895zM161.2217 245.9786l17.23-9.948-17.23-9.947zM140.062 236.0353l17.23 9.949v-19.899zM161.2217 219.2797l17.23-9.949-17.23-9.947zM180.4161 205.9266v-19.896l-17.231 9.949zM180.4161 232.628v-19.895l-17.228 9.948z"/></g><g><path d="M91.8492 52.605V72.5l17.228-9.947zM91.8492 25.9029v19.89l17.197-9.961zM138.0977 25.907v19.892l17.227-9.947zM111.0436 39.2154l-17.235 9.984 17.235 9.952zM93.814 75.9026l17.23 9.948v-19.895zM114.9731 65.9574v19.9l17.232-9.95zM140.0617 49.2015l17.23 9.948v-19.896zM116.944 89.2569l17.224 9.945v-19.891zM155.3302 62.5536l-17.232-9.949v19.9zM114.9731 12.5578v19.84l17.154-9.937zM134.1682 45.7989v-19.979l-17.274 10.006zM134.1682 72.5041v-19.9l-17.233 9.949zM114.9731 39.2535v19.896l17.23-9.948zM111.0436 32.4477v-19.895l-17.23 9.948zM155.2169 9.0855l-17.119-9.884v19.801zM157.2921 32.4496v-20.025l-17.314 10.03zM138.0977 99.2018l17.225-9.945-17.225-9.947zM134.1682-.7982l-17.234 9.95 17.234 9.949zM178.4513 22.5003l-17.23-9.948v19.895zM161.2217 85.8506l17.23-9.948-17.23-9.947zM140.062 75.9073l17.23 9.949v-19.899zM161.2217 59.1516l17.23-9.949-17.23-9.947zM180.4161 45.7986v-19.896l-17.231 9.949zM180.4161 72.5V52.605l-17.228 9.948z"/></g><g><path d="M47.43-4.2801l17.23 9.948v-19.895zM68.5892-14.2252v19.9l17.232-9.95zM70.56 9.0743l17.224 9.945V-.8717zM91.7138 19.0191l17.225-9.945-17.225-9.947zM114.8377 5.6679l17.23-9.948-17.23-9.947zM93.6781-4.2753l17.23 9.949v-19.899z"/></g><g><path d="M140.0625-4.2804l17.23 9.948v-19.895zM161.2217-14.2255v19.901l17.232-9.951zM163.1926 9.074l17.224 9.945V-.872zM184.3463 19.0188l17.225-9.945-17.225-9.946zM207.4702 5.6676l17.23-9.948-17.23-9.947zM186.3106-4.2756l17.23 9.949v-19.899z"/></g><g><path d="M-.7514 19.0191l17.225-9.945-17.225-9.947zM22.3725 5.6679l17.23-9.948-17.23-9.947zM1.2129-4.2753l17.23 9.949v-19.899z"/></g><g><path d="M91.8492 372.9078v19.895l17.228-9.947zM91.8492 346.2058v19.89l17.197-9.962zM138.0977 346.2099v19.892l17.227-9.947zM111.0436 359.5183l-17.235 9.984 17.235 9.952zM93.814 396.2054l17.23 9.948v-19.895zM114.9731 386.2603v19.9l17.232-9.95zM140.0617 369.5043l17.23 9.948v-19.896zM116.944 409.5598l17.224 9.945v-19.891zM155.3302 382.8565l-17.232-9.949v19.9zM114.9731 332.8606v19.84l17.154-9.937zM134.1682 366.1018v-19.979l-17.274 10.006zM134.1682 392.807v-19.9l-17.233 9.949zM114.9731 359.5563v19.896l17.23-9.948zM111.0436 352.7506v-19.895l-17.23 9.948zM155.2169 329.3883l-17.119-9.884v19.801zM157.2921 352.7525v-20.025l-17.314 10.03zM138.0977 419.5046l17.225-9.945-17.225-9.947zM134.1682 319.5046l-17.234 9.95 17.234 9.949zM178.4513 342.8032l-17.23-9.948v19.895zM161.2217 406.1534l17.23-9.948-17.23-9.947zM140.062 396.2102l17.23 9.949v-19.899zM161.2217 379.4545l17.23-9.949-17.23-9.947zM180.4161 366.1014v-19.896l-17.231 9.949zM180.4161 392.8029v-19.895l-17.228 9.948z"/></g><g><path d="M91.8284 533.2025v19.895l17.228-9.947zM91.8284 506.5004v19.89l17.197-9.962zM138.0769 506.5046v19.892l17.227-9.947zM111.0227 519.8129l-17.235 9.984 17.235 9.952zM93.7931 556.5001l17.23 9.948v-19.895zM114.9523 546.555v19.9l17.232-9.95zM140.0409 529.799l17.23 9.948v-19.896zM116.9232 569.8545l17.224 9.945v-19.891zM155.3094 543.1511l-17.232-9.949v19.9zM114.9523 493.1553v19.84l17.154-9.937zM134.1473 526.3964v-19.979l-17.274 10.006zM134.1473 553.1017v-19.9l-17.233 9.949zM114.9523 519.851v19.896l17.23-9.948zM111.0227 513.0452v-19.895l-17.23 9.948zM155.196 489.683l-17.119-9.884V499.6zM157.2713 513.0471v-20.025l-17.314 10.03zM138.0769 579.7993l17.225-9.945-17.225-9.947zM134.1473 479.7993l-17.234 9.95 17.234 9.949zM178.4305 503.0979l-17.23-9.948v19.895zM161.2009 566.4481l17.23-9.948-17.23-9.947zM140.0412 556.5049l17.23 9.949v-19.899zM161.2009 539.7492l17.23-9.949-17.23-9.947zM180.3952 526.3961v-19.896l-17.231 9.949zM180.3952 553.0975v-19.895l-17.228 9.948z"/></g></g></svg>