<svg width="637" height="146" xmlns="http://www.w3.org/2000/svg"><g fill="#7C7986" fill-rule="evenodd"><path d="M528.528 144.46h-11.924V81.672c-.023.022.03-.045.1-.088.063-.04.144-.076.216-.076 4.817-.003 9.636-.003 14.355-.003 3.508 11.08 6.979 22.046 10.449 33.013l.233-.018V81.581h11.396c.183.183.418.418.609.61v62.258h-12.961c-2.32-6.134-4.063-12.546-6.126-18.85-2.065-6.313-4.081-12.643-6.132-19.006.065 0-.007-.021-.05.005-.066.042-.16.116-.16.177-.006 12.492-.005 24.985-.005 37.685zM184.51 82.254l.688-.688h11.25v62.832H183.7c-3.945-12.36-7.933-24.854-11.92-37.345-.042.024-.112.046-.156.094-.05.056-.11.133-.11.201-.004 12.321-.004 24.642-.004 37.062h-11.952V81.599h14.429c.292.674.737 1.493 1.011 2.366 1.527 4.868 2.998 9.753 4.518 14.624 1.312 4.203 2.665 8.393 3.993 12.589.234.738.438 1.485.654 2.229.059.007.131.039.173.016.069-.039.168-.113.168-.173.007-10.33.006-20.659.006-30.996zM414.522 112.83c0 5.163-.031 10.326.02 15.489.015 1.499-.909 5.861-1.852 7.734-1.451 2.884-2.546 4.581-5.665 6.467-2.238 1.353-4.643 2.038-7.196 2.579-1.965.417-3.873.331-5.808.398-2.81.099-5.611-.518-8.067-1.612-2.261-1.007-4.53-2.29-6.109-4.633-1.26-1.869-2.225-3.705-2.87-5.838-.509-1.684-.901-3.392-.915-5.096-.08-10.076-.145-20.154.025-30.228.051-3.015.779-6.018 2.326-8.757 2.004-3.548 5.106-6.172 8.881-7.34 1.666-.515 3.298-.953 5.076-1.1 1.156-.095 2.38-.546 3.544-.355 3.381.555 6.825.681 9.989 2.418 4.062 2.23 6.199 4.76 7.6 9.059.69 2.119 1.105 4.29 1.054 6.575-.108 4.745-.033 9.493-.033 14.24zm-21.717-20.822c-2.136 1.707-2.814 3.967-2.802 6.606.045 9.414.015 18.829.021 28.243.001 1.283.192 2.54.379 3.809.17 1.165 1.133 1.727 1.252 2.656.747.383 1.435.735 2.314 1.186.518 0 1.284.11 2.005-.024 1.315-.244 2.806-.599 3.457-1.757.575-1.023 1.099-2.23 1.098-3.536-.014-11.158-.008-22.316-.008-33.446-.619-.958-1.257-1.853-1.796-2.803-.603-1.062-1.781-.962-2.679-1.404-1.118-.553-2.128.624-3.241.47zM.583 81.504h20.299c3.071.79 6.289 1.024 9.024 2.971 2.693 1.917 4.033 4.426 4.676 7.634.426 2.127.216 4.216.447 6.304.211 1.907-.489 3.682-.552 5.543-.032.957-1.732 3.281-2.736 4.064-.13.102-.248.225-.354.352-1.387 1.677-3.204 2.541-5.83 2.703 1.637.705 2.807 1.207 3.976 1.713 3.275 1.419 5.268 3.946 6.302 7.3.045.146.185.305.155.428-.364 1.499.621 2.819.531 4.295-.091 1.494.151 3.022-.059 4.492-.354 2.48-.456 5.076-1.517 7.356-1 2.146-2.344 4.208-4.641 5.274-2.114.981-4.248 1.796-6.62 2.186-1.707.281-3.374.358-5.06.371-5.986.043-11.973.017-18.042.017.001-20.969.001-41.857.001-63.003zm13.504 34.351v19.152c.909 0 1.733.029 2.554-.005 2.461-.104 4.692-.598 5.516-3.388.042-.14.226-.238.344-.356v-12.151c-.688-.832-1.452-1.755-2.19-2.647-2.113-.207-4.112-.4-6.224-.605zm.001-24.955v16.105c1.242 0 2.399-.022 3.555.007 1.011.025 1.887-.231 2.595-.988.398-.426.822-.827 1.234-1.239.782-3.791.783-7.763.042-11.362-.67-.736-1.227-1.349-1.639-1.801-2.027-.253-3.852-.48-5.787-.722zM487.371 118.53h-2.317v25.926h-13.438V81.593c.442-.025.987-.083 1.532-.084 5.999-.007 12-.116 17.994.045 2.806.075 5.519.898 8.191 1.897 2.552.954 4.081 2.908 5.661 4.854.507.625.789 1.537.898 2.355.189 1.419.708 2.761.668 4.247-.102 3.83.059 7.667-.059 11.496-.124 3.984-1.828 7.158-5.345 9.236-.209.123-.358.347-.688.677.208 1.104.269 2.392.7 3.541 1.28 3.404 2.117 6.947 3.223 10.401.63 1.969 1.062 4.075 1.701 6.06.637 1.979.876 4.087 1.896 5.962.309.566-.234 1.469.672 2.12h-14.175c-1.262-2.653-1.642-5.622-2.396-8.45-.78-2.93-1.467-5.91-2.306-8.813-.814-2.828-1.196-5.783-2.412-8.607zm-2.281-9.024c1.485 0 2.816-.032 4.144.01 1.03.033 1.851-.359 2.572-1.041.423-.399.844-.8 1.079-1.023.246-1.251.579-2.252.614-3.265.084-2.413.04-4.831.023-7.247-.013-1.793-.739-3.262-2.172-4.338-.358-.27-.84-.375-1.224-.538h-5.037c.001 5.787.001 11.511.001 17.442zM45.896 81.548h13.026v49.341c.508 1.012.854 1.702 1.198 2.386 1.543 1.065 3.278 1.498 4.612 1.263 3.252-1.024 3.284-3.499 3.757-5.701.103-.478.015-.996.015-1.496V81.579h13.501v2.104c0 15.327.007 30.653-.006 45.979-.003 3.207-.783 6.321-2.571 8.906-1.476 2.134-3.422 3.883-6.027 5.029-4.298 1.89-8.748 2.287-13.192 1.793-3.083-.342-6.174-1.216-8.91-3.199-2.254-1.634-4.696-5.417-5.279-7.82-.38-1.563-.344-3.21-.586-4.776-.774-5.015-.314-10.034-.408-15.047-.095-5.08-.021-10.162-.021-15.243 0-5.081-.019-10.163.018-15.243.004-.849-.46-1.886.873-2.514zM438.673 132.406c2.101 2.101 2.101 2.101 5.406 2.101 2.804-.937 3.173-3.365 3.402-5.715.202-2.062.042-4.161.042-6.244V81.561h13.501v2.174c0 15.496.095 30.992-.053 46.486-.05 5.172-2.269 9.379-6.729 12.45-1.924 1.324-4.007 1.668-6.063 2.3-1.201.369-2.512.434-3.781.519-1.244.083-2.501-.037-3.747.032-1.72.095-6.58-1.123-8.39-2.076-3.122-1.645-5.597-4.48-6.695-7.858-.656-2.02-1.094-4.107-1.084-6.319.075-15.829.04-31.657.04-47.486.053-.062.097-.134.16-.182.059-.045.138-.092.209-.092 4.32-.004 8.642-.004 13.132-.004v2.51c0 13.913-.01 27.825.01 41.738.003 2.185-.322 4.406.64 6.653zM571.726 81.519h19.079c.357 1.14.774 2.224.765 3.463-.009 1.179.166 2.397.489 3.533.69 2.426.657 4.973 1.414 7.399.367 1.176.321 2.528.461 3.783.283 2.54.77 5.058 1.202 7.552.44 2.542.47 5.16 1.333 7.664.51 1.478.239 3.208.607 4.757.361 1.525.299 3.1.88 4.622.401 1.052.189 2.331.515 3.528.416 1.528.367 3.18.572 4.772.1.772.328 1.527.486 2.293.176.845.35 1.691.498 2.542.137.772-.326 1.667.476 2.302-.28 1.562.634 2.986.528 4.533-.057.056-.108.125-.178.169-.062.04-.144.074-.217.074-4.484.003-8.969.003-13.4.003-.587-4.357-1.161-8.613-1.742-12.93h-9.869c-.073 1.068.105 2.293-.295 3.283-.438 1.081-.113 2.101-.307 3.122-.207 1.092-.747 2.147-.48 3.289.259 1.11-.596 1.979-.55 3.131h-12.404c.182-1.439.135-2.924.62-4.208.283-.75.169-1.422.324-2.112.152-.684.395-1.353.484-2.044.207-1.591.104-3.266.567-4.771.771-2.51.453-5.195 1.445-7.64-.357-1.492.516-2.831.528-4.291.008-.848.315-1.692.469-2.542.153-.85-.022-1.666.401-2.587.46-.997.21-2.313.54-3.512.42-1.527.368-3.18.573-4.771.1-.772.328-1.528.486-2.294.175-.845.349-1.691.498-2.541.135-.773-.185-1.56.415-2.347.323-.423.017-1.29.106-1.94.084-.608.389-1.187.468-1.796.209-1.591.216-3.219.546-4.781.463-2.182.941-4.341.999-6.587.02-.662.405-1.317.668-2.12zm5.397 40.404h6.95c-.186-2.419-.364-4.747-.542-7.075-.783-.724-.58-1.7-.458-2.531.152-1.042-.539-1.829-.551-2.792-.01-.81.141-1.748-.21-2.396-.451-.833-.245-1.604-.253-2.386-.008-.824-.358-1.543-.476-2.296-.322-2.068-.389-4.177-.553-6.27-.029-.387-.043-.774-.064-1.162-.482.782-.822 1.576-.914 2.397-.233 2.085-.356 4.183-.521 6.276-.013.165.07.409-.013.487-.706.662-.396 1.518-.501 2.298-.115.853-.39 1.686-.475 2.54-.208 2.088-.347 4.184-.513 6.277-.013.163.051.396-.034.479-.943.907-.147 2.093-.501 3.043-.372 1.004-.602 1.966-.371 3.111zM278.586 99h-12.999c-.024-.859-.057-1.739-.07-2.62-.012-.833-.002-1.666-.002-2.582-.501-.723-1.041-1.503-1.438-2.078-1.014-.239-1.77-.417-2.7-.637-.377.137-.959.347-1.944.704-.305.42-.867 1.193-1.417 1.952v5.301c.772 1.72 1.62 3.204 3.015 4.201 2.299 1.644 4.665 3.194 7.019 4.761 2.492 1.659 4.986 3.353 6.862 5.702 1.752 2.194 2.985 4.667 3.653 7.479.876 3.685.468 7.383.344 11.044-.072 2.157-.883 4.397-2.171 6.306-1.405 2.083-3.035 3.936-5.396 4.964-1.563.681-3.145 1.234-4.854 1.592-2.12.444-4.211.491-6.305.381-3.143-.165-6.12-.898-8.997-2.395-2.903-1.509-5.159-4.692-6.204-8.423-.79-2.821-1.172-5.628-.883-8.59h12.75c.247 2.233.494 4.466.737 6.666.376.5.754 1.001 1.456 1.932.999.73 2.666.229 3.826.328 2.217-.654 2.783-2.006 2.663-3.794-.025-.379.043-.82.224-1.147.386-.702.368-1.349.022-2.043-.136-.273-.271-.602-.245-.89.231-2.554-1.302-4.311-2.986-5.733-2.153-1.82-4.565-3.358-6.973-4.844-1.843-1.137-3.435-2.569-5.12-3.889-1.262-.988-2.02-2.456-2.945-3.757-1.235-1.737-1.972-3.777-2.384-5.741-.562-2.674-1.037-5.497-.573-8.26.53-3.158 1.44-6.148 3.521-8.8 1.846-2.352 4.238-3.58 6.858-4.549 1.017-.376 2.105-.679 3.281-.579.745.063 1.518-.377 2.29-.437 1.076-.083 2.371-.389 3.193.073 1.01.569 1.933.162 2.84.419.962.274 1.874.736 2.842.971 2.722.659 4.534 2.442 6.163 4.59 1.529 2.017 2.033 4.3 2.577 6.705.425 1.889.197 3.698.47 5.717zM125.1 98.956h-12.556c-1.079-1.629-.234-3.511-.637-5.33-.436-.616-.941-1.332-1.304-1.845-.913-.275-1.578-.623-2.252-.638-.652-.014-1.311.313-2.362.598-.325.435-.891 1.194-1.484 1.988 0 1.053.04 2.132-.008 3.206-.118 2.624 1.087 4.698 2.996 6.235 2.199 1.771 4.562 3.378 7.002 4.799 2.849 1.658 5.305 3.759 7.38 6.238 1.59 1.898 2.494 4.264 3.131 6.684.982 3.728.535 7.537.417 11.289-.077 2.448-1.141 4.846-2.462 6.938-1.171 1.855-2.894 3.379-4.863 4.326-1.574.757-3.292 1.291-5.08 1.648-2.12.423-4.206.311-6.309.427-1.809.1-6.567-1.046-8.398-2.053-3.406-1.874-5.869-4.705-6.769-8.552-.853-3.647-1.372-3.798-.911-8.842h12.754c.248 2.039.5 4.104.791 6.498.482.608 1.181 1.488 1.884 2.375h3.309c2.837-.438 2.714-2.862 3.037-4.593.435-2.332-.208-4.725-1.406-6.854-.985-1.752-2.643-2.872-4.24-3.925-2.975-1.96-6.057-3.719-8.69-6.193-2.569-2.414-3.975-3.914-5.229-6.809-.715-1.65-1.193-3.381-1.348-5.195-.088-1.021-.348-2.026-.48-3.044-.352-2.695.552-5.249 1.063-7.821.259-1.308 1.053-2.625 1.925-3.67 1.3-1.558 2.699-3.128 4.539-4.071 1.721-.882 3.525-1.628 5.516-1.774 1.518-.111 3.033-.491 4.542-.452 2.769.07 5.578.537 8.088 1.564 2.479 1.015 4.684 2.781 6.002 5.326.898 1.735 1.5 3.523 1.94 5.468.464 2.058.103 4.011.472 6.054zM286.648 126.074h13.278c.331 2.355-.362 4.849.745 7.301.443.456 1.022 1.051 1.581 1.625h4.021l1.479-1.479c1.008-1.955.787-3.922.748-5.852-.04-1.965-.755-3.636-2.143-5.119-2.167-2.313-4.868-3.842-7.46-5.556-2.711-1.792-5.332-3.752-7.375-6.29-1.708-2.122-2.856-4.572-3.548-7.273-.855-3.347-.229-6.708-.46-10.052.911-2.721 1.625-5.5 3.598-7.771 1.633-1.88 3.811-2.792 5.925-3.845.751-.374 1.604-.626 2.438-.735 1.838-.241 3.725-.655 5.532-.457 3.165.346 6.384.615 9.247 2.383 3.292 2.032 5.343 4.808 6.312 8.575.628 2.445.294 4.856.483 7.38h-12.43c-.222-.829.006-1.818-.121-2.769-.123-.931-.385-1.844-.647-3.048-.398-.35-1.019-.895-1.665-1.462-.497-.175-1.08-.38-1.554-.547-.832.195-1.594.373-2.53.592-.262.26-.675.671-.925.918-.555 1.4-.729 2.65-.68 3.959.083 2.162.814 3.938 2.313 5.565 1.94 2.108 4.378 3.498 6.685 5.058 2.259 1.527 4.499 3.013 6.453 4.957 2.056 2.045 2.771 2.763 4.065 5.54.795 1.708 1.237 3.488 1.593 5.359.403 2.122.479 4.212.373 6.308-.132 2.587-.698 5.135-1.635 7.56-.485 1.255-1.226 2.382-2.263 3.321-1.429 1.294-2.679 2.734-4.521 3.578-1.229.563-2.52.771-3.766 1.165-1.198.378-2.511.447-3.78.527-1.328.083-2.68.142-3.995-.008-2.483-.283-4.931-.777-7.199-1.915-2.878-1.442-5.07-3.539-6.304-6.554-.805-1.966-1.419-3.967-1.528-6.126-.08-1.582-.826-3.116-.34-4.813zM235.463 81.592v10.849h-14.838v13.527h11.101c.264.264.441.441.702.703v9.767h-11.845v17.527h15.871v10.447h-29.185c-.407-2.058-.57-52.751-.18-62.82h28.374zM414.522 1.544h5.918v62.86c-1.019.228-2.166.063-3.294.093-1.154.031-2.31.007-3.386.007-5.534-16.396-11.034-32.69-16.66-49.359v49.278h-6.461V2.132l.565-.565h7.553c5.158 15.103 10.316 30.209 15.485 45.346-.012-.001.062.031.103.008.069-.039.169-.113.169-.172.008-14.994.008-29.986.008-45.205zM609.117 81.554h13.401v51.938h13.924v10.77c-2.013.368-19.567.486-27.325.164V81.554zM343.587 143.839V133.09c2.018.896 4.074.096 5.889.486 2.867-1.177 3.526-3.475 3.531-6.051.025-14.487.012-28.974.012-43.46v-2.502h13.501v2.156c0 15.569.054 31.139-.035 46.708-.024 4.241-1.479 8.045-4.669 11.043-1.705 1.604-3.827 2.362-5.99 3.029-2.629.812-5.354.576-8.029.454-1.364-.062-2.701-.694-4.21-1.114zM278.015 1.549h6.501v1.484c0 16.164.015 32.328-.025 48.491-.004 1.422-.365 2.844-.562 4.27-.883 1.089-.921 2.641-1.911 3.695-1.067 1.136-1.965 2.506-3.213 3.375-1.367.951-2.993 1.69-4.612 2.075-1.864.443-3.904.765-5.761.47-2.26-.359-4.743-.278-6.703-1.884-.198-.163-.645-.022-.859-.022-1.209-.72-1.653-2.201-3.087-2.5-1.018-1.731-2.284-3.349-2.756-5.344-.744-3.146-1.059-6.328-1.042-9.582.071-13.997.03-27.995.03-41.992V1.567h6.317c.211.21.446.446.683.682 0 16.414.022 32.828-.028 49.241-.006 2.002.801 3.683 1.659 5.318.717 1.368 2.278 1.94 3.852 2.709 2.257-.245 4.827.52 7.706-.963.971-1.007 2.615-2.256 3.376-5.064.937-4.943.32-10.728.415-16.488.098-5.914.021-11.831.021-17.747-.001-5.832-.001-11.664-.001-17.706zM135.085 82.177c.26-.26.437-.437.618-.617h13.235v62.771c.013-.013-.039.057-.107.1-.063.041-.144.075-.217.075-4.484.003-8.967.003-13.528.003-.001-20.807-.001-41.52-.001-62.332zM233.937 1.544c3.712 21.082 7.388 41.95 11.077 62.899h-6.333c-1.125-2.38-1.104-5.046-1.555-7.563-.46-2.564-1.142-5.126-1.143-7.656-.28-.281-.457-.458-.677-.677h-13.567c-.889 5.34-1.768 10.627-2.646 15.911h-6.179c.221-1.8.212-3.598.737-5.222.264-.816.213-1.571.366-2.341.136-.687.368-1.356.484-2.045.2-1.175.195-2.407.551-3.528.35-1.102.103-2.378.555-3.256.579-1.124-.125-2.482.903-3.385-.209-1.314.273-2.535.486-3.795.227-1.337-.038-2.932.614-3.978.763-1.225-.311-2.696.894-3.65-.207-1.394.199-2.721.525-4.035.567-2.286.538-4.684 1.388-6.92.221-.582.015-1.313.109-1.96.089-.609.462-1.199.458-1.795-.016-2.42 1.263-4.643 1.026-7.085 1.047-1.187.251-2.755.911-4.128.589-1.228.382-2.826.61-4.247.083-.515.411-.991.676-1.597 3.238.04 6.525-.046 9.73.053zm-5.17 5.481c-1.331 6.393-2.189 12.373-3.19 18.317-1.015 6.029-2.207 12.039-3.041 18.093h12.295c-1.999-12.006-3.99-23.957-6.064-36.41zM323.055 16.997h-6.038c0-.796.065-1.606-.019-2.4-.081-.772-.458-1.53-.452-2.292.014-1.802-.778-3.193-1.932-4.459-.277-.305-.533-.63-.475-.56-2.638-1.14-4.947-.674-7.449-.808-.984.812-2.097 1.731-2.676 2.209-1.154 1.795-.769 3.302-1.439 4.625-.333.658-.348 1.83.036 2.41.49.739.287 1.406.407 2.099.187 1.078.435 2.107 1.085 3.053 1.043 1.517 1.913 3.164 3.38 4.337 2.435 1.947 4.898 3.856 7.34 5.794 4.698 3.729 6.639 5.83 8.416 10.992.203.59.177 1.256.28 1.884.785 4.768.823 6.848-.042 11.32-.72 3.72-2.769 6.715-6.099 8.637-1.045.604-2.31 1-3.512 1.121-2.01.203-4.049 1.236-6.076.047-1.999.245-3.717-.633-5.36-1.524-3.729-2.023-5.655-5.283-6.474-9.421-.418-2.116-.384-4.195-.452-6.542 1.049-.004 2.1-.01 3.149-.012 1.07-.002 2.141 0 3.361 0 .015 2.964-.261 5.892.895 8.73 1.251 1.131 2.503 2.263 3.416 3.088 1.453.417 2.614-.316 3.422.603 1.059-.195 2.063-.38 3.185-.586-.042.042.006-.046.077-.071 3.467-1.218 4.242-4.12 4.488-7.295.109-1.407.049-2.831.013-4.245-.085-3.291-1.123-6.132-3.514-8.552-2.915-2.952-6.16-5.46-9.462-7.938-3.631-2.726-6.84-7.68-7.95-11.93-.102-.387-.064-.814-.066-1.222-.007-1.416.04-2.833-.012-4.247-.109-3.033.782-5.689 2.461-8.239 1.408-2.138 3.516-3.079 5.629-4.057.898-.416 1.925-.73 3.026-.575.58.082 1.209-.182 1.842-.294.697.102 1.465.293 2.236.314 3.26.086 6.037 1.251 8.215 3.684 1.377 1.538 2.083 3.406 2.649 5.4.645 2.261.317 4.505.491 6.922zM349.106 64.453h-6.528V7.047h-10.265c-.354-.353-.53-.53-.751-.751V2.207c.22-.22.396-.396.64-.639h27.714v5.42h-10.81v57.465zM370.595 2.175c.265-.264.44-.441.618-.618h6.24v62.821h-6.858V2.175z"/></g></svg>