<?xml version="1.0" encoding="UTF-8"?>
<svg width="144px" height="144px" viewBox="0 0 144 144" version="1.1" xmlns="http://www.w3.org/2000/svg" xmlns:xlink="http://www.w3.org/1999/xlink">
    <!-- Generator: Sketch 45.1 (43504) - http://www.bohemiancoding.com/sketch -->
    <title>Group 6</title>
    <desc>Created with Sketch.</desc>
    <defs></defs>
    <g id="Submit-Proposal_Bank-Verification" stroke="none" stroke-width="1" fill="none" fill-rule="evenodd">
        <g id="Freelancer_UnabletoConnect_confirmationPage_71717@2x" transform="translate(-528.000000, -144.000000)">
            <g id="Group-6" transform="translate(529.000000, 144.000000)">
                <g id="Group-4" transform="translate(45.000000, 0.000000)">
                    <g id="Group-28" fill="#EF0404">
                        <circle id="Oval-9" cx="26" cy="26" r="26"></circle>
                    </g>
                    <text id="!" font-family="OpenSans-Bold, Open Sans" font-size="37.8181818" font-weight="bold" fill="#FFFFFF">
                        <tspan x="20.4150232" y="40">!</tspan>
                    </text>
                </g>
                <g id="Group-2" transform="translate(0.000000, 38.000000)">
                    <g id="Group-38">
                        <path d="M134.875716,66.9914128 L132.815687,66.9914128 L132.815687,45.2418349 L134.875716,45.2418349 C138.285774,45.2418349 141.049629,48.002789 141.049629,51.4069725 L141.049629,60.8262752 C141.049629,64.2314862 138.285774,66.9914128 134.875716,66.9914128" id="Fill-1" fill="#FF7A5C"></path>
                        <path d="M114.986455,44.125945 C114.986455,47.1982385 112.492194,49.6889541 109.415528,49.6889541 C106.338861,49.6889541 103.845629,47.1982385 103.845629,44.125945 C103.845629,41.0536514 106.338861,38.5629358 109.415528,38.5629358 C112.492194,38.5629358 114.986455,41.0536514 114.986455,44.125945" id="Fill-3" fill="#423D51"></path>
                        <path d="M134.875613,45.2421431 L128.099743,45.2421431 C126.347381,39.3821798 122.999062,34.2137394 118.564135,30.2259229 C125.330743,27.3303633 130.073338,20.6226936 130.073338,12.8063266 L106.35728,12.8063266 C103.737483,12.8063266 101.613657,14.9271339 101.613657,17.5432073 L101.613657,22.1814459 C99.9621348,21.9266202 98.2735696,21.7807119 96.5500188,21.7807119 L59.5065406,21.7807119 C41.3212797,21.7807119 26.5790043,36.5010055 26.5790043,54.6614459 L26.5790043,54.6614459 C26.5790043,67.9627303 34.4939609,79.4113908 45.8724826,84.5890789 L43.6210623,97.9602349 C43.2444536,100.199207 44.7560333,102.318987 46.9981928,102.695061 L55.8803957,104.185996 C58.1215261,104.563097 60.2443232,103.052639 60.6209319,100.814694 L62.5677725,89.2560881 C62.7344681,88.2665835 63.592642,87.5421798 64.5969319,87.5421798 L91.4596275,87.5421798 C92.4639174,87.5421798 93.3220913,88.2665835 93.488787,89.2560881 L95.4345986,100.814694 C95.8122362,103.052639 97.9350333,104.563097 100.176164,104.185996 L109.058367,102.695061 C111.299497,102.318987 112.812106,100.199207 112.434468,97.9602349 L110.18099,84.5736661 C118.213251,80.9167119 124.527106,74.1494459 127.537917,65.7926018 L134.875613,65.7926018 C138.285671,65.7926018 141.049526,63.0326752 141.049526,59.6274642 L141.049526,51.4072807 C141.049526,48.0020697 138.285671,45.2421431 134.875613,45.2421431 L134.875613,45.2421431 Z" id="Stroke-9" stroke="#423D51" stroke-width="3"></path>
                        <path d="M26.5789014,52.9234936 C26.5789014,60.1110165 20.7445536,65.9370716 13.5468,65.9370716 C6.34904638,65.9370716 0.514698551,60.1110165 0.514698551,52.9234936" id="Stroke-11" stroke="#423D51" stroke-width="3"></path>
                        <path d="M15.898958,52.9234936 C15.898958,48.6808514 12.4549435,45.2417321 8.20626232,45.2417321 C3.95861014,45.2417321 0.514595652,48.6808514 0.514595652,52.9234936" id="Stroke-13" stroke="#423D51" stroke-width="3"></path>
                        <polygon id="Fill-15" fill="#423D51" points="44.3653275 93.542811 61.4042986 96.1650495 60.0151681 104.067728 43.8107043 101.754774"></polygon>
                        <polygon id="Fill-17" fill="#423D51" points="112.339904 93.542811 95.3009333 96.1650495 96.6900638 104.067728 112.894528 101.754774"></polygon>
                        <path d="M101.613657,20.2391193 L101.613657,27.9794495" id="Stroke-19" stroke="#423D51" stroke-width="3"></path>
                        <path d="M118.564546,30.2255119 L114.122416,30.2255119" id="Stroke-21" stroke="#423D51" stroke-width="3"></path>
                        <g id="Group-30" transform="translate(112.159420, 64.684110)">
                            <path d="M15.3789087,0.594730275 C15.3789087,0.594730275 8.05664783,8.04427156 0.735415942,2.67032661 C0.735415942,2.67032661 2.66064783,13.1972991 8.05664783,12.2899963" id="Fill-27" fill="#423D51"></path>
                            <path d="M15.3789087,0.594730275 C15.3789087,0.594730275 8.05664783,8.04427156 0.735415942,2.67032661 C0.735415942,2.67032661 2.66064783,13.1972991 8.05664783,12.2899963" id="Stroke-29" stroke="#423D51" stroke-width="3"></path>
                        </g>
                        <path d="M141.049629,51.4072807 L136.932658,51.4072807" id="Stroke-31" stroke="#423D51" stroke-width="3"></path>
                        <path d="M62.0608942,0.895383486 L62.0608942,0.691933945 C62.0331116,0.708374312 62.003271,0.722759633 61.9744594,0.738172477 L62.0608942,0.895383486 Z" id="Fill-33" fill="#FFFFFF"></path>
                        <path d="M58.8753609,65.9647119 C45.3380275,73.1080514 41.9392884,56.9646385 41.9392884,56.9646385 L58.6633899,47.2226936 C61.5568971,45.537556 64.7344043,44.3404917 68.0569986,43.9181798 C84.9179551,41.7757945 89.821071,58.0332624 89.821071,58.0332624" id="Stroke-50" stroke="#423D51" stroke-width="3"></path>
                        <path d="M72.6204464,58.7720514 L57.4357072,66.6634275 C57.4357072,66.6634275 59.4967652,76.4526385 67.7060116,72.1206018 L74.4222,68.5550972" id="Stroke-52" stroke="#423D51" stroke-width="3"></path>
                        <path d="M121.840322,73.2269358 L118.838771,76.5817982 L116.596612,74.288367 C115.75593,73.4293578 115.893814,72.0206239 116.885757,71.3404037 C117.546365,70.8862385 118.417916,70.8862385 119.078525,71.3383486 L121.840322,73.2269358 Z" id="Fill-54" fill="#FF7A5C"></path>
                    </g>
                    <g id="Group" transform="translate(58.000000, 28.000000)" stroke-linecap="round">
                        <path d="M0,6 L26.5047166,6" id="Line-Copy-2" stroke="#DAD9DD" stroke-width="3"></path>
                        <path d="M1.5,3 L24.5867928,3" id="Line" stroke="#A19EA8" stroke-width="6"></path>
                    </g>
                </g>
            </g>
        </g>
    </g>
</svg>