<?xml version="1.0" encoding="UTF-8"?>
<svg width="144px" height="112px" viewBox="0 0 144 112" version="1.1" xmlns="http://www.w3.org/2000/svg" xmlns:xlink="http://www.w3.org/1999/xlink">
    <!-- Generator: Sketch 45.1 (43504) - http://www.bohemiancoding.com/sketch -->
    <title>Group 38</title>
    <desc>Created with Sketch.</desc>
    <defs>
        <polygon id="path-1" points="31.2164362 0.242495413 0.832552174 0.242495413 0.832552174 37.8010275 31.2164362 37.8010275 31.2164362 0.242495413"></polygon>
    </defs>
    <g id="Receive-Invoice-+-Pay" stroke="none" stroke-width="1" fill="none" fill-rule="evenodd">
        <g id="Received_Invoices_Tab_DetailView_61217@2x-Copy-4" transform="translate(-528.000000, -377.000000)">
            <g id="Group-3" transform="translate(0.000000, 97.000000)">
                <g id="Group-2" transform="translate(333.000000, 185.000000)">
                    <g id="Group">
                        <g id="Group-38" transform="translate(196.000000, 94.000000)">
                            <path d="M134.875716,73.9914128 L132.815687,73.9914128 L132.815687,52.2418349 L134.875716,52.2418349 C138.285774,52.2418349 141.049629,55.002789 141.049629,58.4069725 L141.049629,67.8262752 C141.049629,71.2314862 138.285774,73.9914128 134.875716,73.9914128" id="Fill-1" fill="#FF7A5C"></path>
                            <path d="M114.986455,51.125945 C114.986455,54.1982385 112.492194,56.6889541 109.415528,56.6889541 C106.338861,56.6889541 103.845629,54.1982385 103.845629,51.125945 C103.845629,48.0536514 106.338861,45.5629358 109.415528,45.5629358 C112.492194,45.5629358 114.986455,48.0536514 114.986455,51.125945" id="Fill-3" fill="#423D51"></path>
                            <path d="M93.1847217,43.6473248 L66.9126638,43.6473248 C62.2575333,43.6473248 58.4832145,39.8793982 58.4832145,35.2298569 L58.4832145,28.9023706 L101.614171,28.9023706 L101.614171,35.2298569 C101.614171,39.8793982 97.8398522,43.6473248 93.1847217,43.6473248" id="Fill-5" fill="#423D51"></path>
                            <path d="M93.1847217,43.6473248 L66.9126638,43.6473248 C62.2575333,43.6473248 58.4832145,39.8793982 58.4832145,35.2298569 L58.4832145,28.9023706 L101.614171,28.9023706 L101.614171,35.2298569 C101.614171,39.8793982 97.8398522,43.6473248 93.1847217,43.6473248 L93.1847217,43.6473248 Z" id="Stroke-7" stroke="#423D51" stroke-width="3"></path>
                            <path d="M134.875613,52.2421431 L128.099743,52.2421431 C126.347381,46.3821798 122.999062,41.2137394 118.564135,37.2259229 C125.330743,34.3303633 130.073338,27.6226936 130.073338,19.8063266 L106.35728,19.8063266 C103.737483,19.8063266 101.613657,21.9271339 101.613657,24.5432073 L101.613657,29.1814459 C99.9621348,28.9266202 98.2735696,28.7807119 96.5500188,28.7807119 L59.5065406,28.7807119 C41.3212797,28.7807119 26.5790043,43.5010055 26.5790043,61.6614459 L26.5790043,61.6614459 C26.5790043,74.9627303 34.4939609,86.4113908 45.8724826,91.5890789 L43.6210623,104.960235 C43.2444536,107.199207 44.7560333,109.318987 46.9981928,109.695061 L55.8803957,111.185996 C58.1215261,111.563097 60.2443232,110.052639 60.6209319,107.814694 L62.5677725,96.2560881 C62.7344681,95.2665835 63.592642,94.5421798 64.5969319,94.5421798 L91.4596275,94.5421798 C92.4639174,94.5421798 93.3220913,95.2665835 93.488787,96.2560881 L95.4345986,107.814694 C95.8122362,110.052639 97.9350333,111.563097 100.176164,111.185996 L109.058367,109.695061 C111.299497,109.318987 112.812106,107.199207 112.434468,104.960235 L110.18099,91.5736661 C118.213251,87.9167119 124.527106,81.1494459 127.537917,72.7926018 L134.875613,72.7926018 C138.285671,72.7926018 141.049526,70.0326752 141.049526,66.6274642 L141.049526,58.4072807 C141.049526,55.0020697 138.285671,52.2421431 134.875613,52.2421431 L134.875613,52.2421431 Z" id="Stroke-9" stroke="#423D51" stroke-width="3"></path>
                            <path d="M26.5789014,59.9234936 C26.5789014,67.1110165 20.7445536,72.9370716 13.5468,72.9370716 C6.34904638,72.9370716 0.514698551,67.1110165 0.514698551,59.9234936" id="Stroke-11" stroke="#423D51" stroke-width="3"></path>
                            <path d="M15.898958,59.9234936 C15.898958,55.6808514 12.4549435,52.2417321 8.20626232,52.2417321 C3.95861014,52.2417321 0.514595652,55.6808514 0.514595652,59.9234936" id="Stroke-13" stroke="#423D51" stroke-width="3"></path>
                            <polygon id="Fill-15" fill="#423D51" points="44.3653275 100.542811 61.4042986 103.16505 60.0151681 111.067728 43.8107043 108.754774"></polygon>
                            <polygon id="Fill-17" fill="#423D51" points="112.339904 100.542811 95.3009333 103.16505 96.6900638 111.067728 112.894528 108.754774"></polygon>
                            <path d="M101.613657,27.2391193 L101.613657,34.9794495" id="Stroke-19" stroke="#423D51" stroke-width="3"></path>
                            <path d="M118.564546,37.2255119 L114.122416,37.2255119" id="Stroke-21" stroke="#423D51" stroke-width="3"></path>
                            <g id="Group-26" transform="translate(73.057971, 23.390532)">
                                <path d="M0.334317391,12.4966312 C0.334317391,5.61222752 5.99888261,0.0307229358 12.9867232,0.0307229358 C19.9735348,0.0307229358 25.6381,5.61222752 25.6381,12.4966312" id="Fill-23" fill="#FFAE38"></path>
                                <path d="M0.334317391,12.4966312 C0.334317391,5.61222752 5.99888261,0.0307229358 12.9867232,0.0307229358 C19.9735348,0.0307229358 25.6381,5.61222752 25.6381,12.4966312" id="Stroke-25" stroke="#FFAE38" stroke-width="3"></path>
                            </g>
                            <g id="Group-30" transform="translate(112.159420, 71.684110)">
                                <path d="M15.3789087,0.594730275 C15.3789087,0.594730275 8.05664783,8.04427156 0.735415942,2.67032661 C0.735415942,2.67032661 2.66064783,13.1972991 8.05664783,12.2899963" id="Fill-27" fill="#423D51"></path>
                                <path d="M15.3789087,0.594730275 C15.3789087,0.594730275 8.05664783,8.04427156 0.735415942,2.67032661 C0.735415942,2.67032661 2.66064783,13.1972991 8.05664783,12.2899963" id="Stroke-29" stroke="#423D51" stroke-width="3"></path>
                            </g>
                            <path d="M141.049629,58.4072807 L136.932658,58.4072807" id="Stroke-31" stroke="#423D51" stroke-width="3"></path>
                            <path d="M62.0608942,7.89538349 L62.0608942,7.69193394 C62.0331116,7.70837431 62.003271,7.72275963 61.9744594,7.73817248 L62.0608942,7.89538349 Z" id="Fill-33" fill="#FFFFFF"></path>
                            <g id="Group-37" transform="translate(62.768116, 0.785028)">
                                <mask id="mask-2" fill="white">
                                    <use xlink:href="#path-1"></use>
                                </mask>
                                <g id="Clip-36"></g>
                                <path d="M26.5860014,0.241981651 L1.31000145,0.241981651 L0.832552174,0.241981651 C1.64442174,1.31985321 2.15685652,2.62275229 2.31120435,4.03251376 C2.34104493,4.30788991 2.38014638,4.58223853 2.38014638,4.86583486 L2.38014638,37.8010275 L31.2164362,37.8010275 L31.2164362,4.86583486 C31.2164362,2.31655046 29.1389145,0.241981651 26.5860014,0.241981651" id="Fill-35" fill="#1FDDB2" mask="url(#mask-2)"></path>
                            </g>
                            <path d="M58.3270145,1.1266789 C57.4204783,0.948917431 56.4635217,1.03522936 55.6032899,1.40513761 C53.956913,2.11412844 52.8003333,3.74891743 52.8003333,5.65086239 L52.8003333,9.15677064 L58.8034348,9.15677064 L61.1464348,9.15677064 L62.0612029,9.15677064 L62.0612029,8.85570642 L62.0612029,8.27515596 L62.0612029,7.89497248 L62.0612029,7.69152294 L62.0612029,5.65086239 C62.0612029,4.22568807 61.3820725,2.85805505 60.2512174,1.98877064 C59.6842464,1.55310092 59.0205507,1.26231193 58.3270145,1.1266789" id="Fill-38" fill="#1FDDB2"></path>
                            <path d="M79.8576101,13.3126899 L79.8576101,9.76054312" id="Stroke-40" stroke="#FFFFFF" stroke-width="3"></path>
                            <path d="M79.8329145,29.5613211 L79.8329145,26.0091743" id="Stroke-42" stroke="#FFFFFF" stroke-width="3"></path>
                            <path d="M77.7309029,22.2864587 C77.7309029,23.8297982 78.6785986,24.7432661 80.0389174,24.7432661 C81.1100913,24.7432661 81.9353377,24.0733211 81.9353377,23.0786789 C81.9353377,21.941211 80.9454536,21.5558899 79.6880333,21.088367 C77.0301638,20.1348257 74.8054971,19.3015046 74.8054971,16.4193028 C74.8054971,13.7991193 77.2359609,12.4181284 79.8732507,12.4181284 C83.2946275,12.4181284 85.0058304,14.5307156 85.0058304,16.946422 L81.6667725,16.946422 C81.6667725,15.6877064 81.0277725,14.8965138 79.8732507,14.8965138 C78.9255551,14.8965138 78.1219174,15.3835596 78.1219174,16.3576514 C78.1219174,17.2916697 78.9677435,17.7992661 80.1829754,18.2256881 C82.552729,19.0374312 85.251758,19.9724771 85.251758,22.8146055 C85.251758,25.7379083 83.0065116,27.362422 79.8331203,27.362422 C76.7420478,27.362422 74.3928739,25.5354862 74.3928739,22.2864587 L77.7309029,22.2864587 Z" id="Fill-44" fill="#FFFFFF"></path>
                            <g id="Group-49" transform="translate(63.797101, 30.583193)">
                                <path d="M0.143646377,7.91716697 C0.143646377,3.89441468 3.45286377,0.634084404 7.53587826,0.634084404 C11.6178638,0.634084404 14.9270812,3.89441468 14.9270812,7.91716697" id="Fill-46" fill="#FFAE38"></path>
                                <path d="M0.143646377,7.91716697 C0.143646377,3.89441468 3.45286377,0.634084404 7.53587826,0.634084404 C11.6178638,0.634084404 14.9270812,3.89441468 14.9270812,7.91716697" id="Stroke-48" stroke="#FFAE38" stroke-width="3"></path>
                            </g>
                            <path d="M58.8753609,72.9647119 C45.3380275,80.1080514 41.9392884,63.9646385 41.9392884,63.9646385 L58.6633899,54.2226936 C61.5568971,52.537556 64.7344043,51.3404917 68.0569986,50.9181798 C84.9179551,48.7757945 89.821071,65.0332624 89.821071,65.0332624" id="Stroke-50" stroke="#423D51" stroke-width="3"></path>
                            <path d="M72.6204464,65.7720514 L57.4357072,73.6634275 C57.4357072,73.6634275 59.4967652,83.4526385 67.7060116,79.1206018 L74.4222,75.5550972" id="Stroke-52" stroke="#423D51" stroke-width="3"></path>
                            <path d="M121.840322,80.2269358 L118.838771,83.5817982 L116.596612,81.288367 C115.75593,80.4293578 115.893814,79.0206239 116.885757,78.3404037 C117.546365,77.8862385 118.417916,77.8862385 119.078525,78.3383486 L121.840322,80.2269358 Z" id="Fill-54" fill="#FF7A5C"></path>
                        </g>
                    </g>
                </g>
            </g>
        </g>
    </g>
</svg>