<svg width="93" height="23" xmlns="http://www.w3.org/2000/svg" xmlns:xlink="http://www.w3.org/1999/xlink"><defs><path id="a" d="M2.0921 5.1353h2.1538v6.2982H2.0921z"/><mask id="c" x="0" y="0" width="2.1538" height="6.2982" fill="#fff"><use xlink:href="#a"/></mask><path id="b" d="M8.247-1.3354h2.1538v14.3187H8.247z"/><mask id="d" x="0" y="0" width="2.1538" height="14.3187" fill="#fff"><use xlink:href="#b"/></mask></defs><g fill="none" fill-rule="evenodd"><path fill="#FFF" d="M8 11h76v2H8z"/><path d="M2.2446 12.2426l5.8284 5.8285-1.4142 1.4142L.2916 13.118a.992.992 0 0 1-.2766-.8755.992.992 0 0 1 .2766-.8754L6.6588 5 8.073 6.4142l-5.8284 5.8284zM89.8284 12.2426L84 6.4142 85.4142 5l6.3672 6.3672a.992.992 0 0 1 .2766.8754.992.992 0 0 1-.2766.8755l-6.3672 6.3672L84 18.071l5.8284-5.8285z" fill="#FFF"/><g transform="translate(36 1)"><circle stroke="#1EDDB2" fill="#1EDDB2" cx="10.5" cy="10.5" r="10.5"/><g transform="rotate(-9 41.8508 -8.7536)" stroke="#FAFAFA" stroke-width="2" fill="#FAFAFA"><use mask="url(#c)" transform="rotate(-45 3.169 8.2844)" xlink:href="#a"/><use mask="url(#d)" transform="rotate(45 9.324 5.824)" xlink:href="#b"/></g></g></g></svg>