<svg width="176" height="125" xmlns="http://www.w3.org/2000/svg" xmlns:xlink="http://www.w3.org/1999/xlink"><defs><path id="a" d="M0 0v18.6286h18.8693V0H0z"/><path id="c" d="M.1787 4.174h8.0941V.271H.1787z"/><path id="e" d="M8.2728 3.9995V.097H.1787v3.9026h8.0941z"/><path id="g" d="M8.2728 4.1733V.2703H.1787v3.903h8.0941z"/><path id="i" d="M8.2728 3.999V.096H.1787v3.903h8.0941z"/><path id="k" d="M8.2728 4.1728V.2698H.1787v3.903h8.0941z"/><path id="m" d="M8.2728 4.3463V.2421H.1787v4.1042h8.0941z"/><path id="o" d="M.0001 4.174h8.092V.271H0z"/><path id="q" d="M0 4.173V.069h8.0921v4.104z"/><path id="s" d="M.2373 4h2.816V.2878H.2373z"/><path id="u" d="M20 10H0V0h20z"/><path id="w" d="M18.785 8.0357H0V.3167h18.785z"/><path id="y" d="M0 13.58V.0633h18.785V13.58z"/></defs><g fill="none" fill-rule="evenodd"><g fill="#FF7B5C"><path d="M8.1013 2.9662V1.625h-.421c-.1946 0-.3526-.1602-.3526-.3578V.6767c0-.1976.158-.3578.3526-.3578h3.4436c.1945 0 .3526.1602.3526.3578v.5905c0 .1976-.158.3578-.3526.3578h-.421V2.968l-2.6016-.0019zM5.0316 12.103c0 .2512-.2006.4554-.4488.4554h-.7683c-.2478 0-.4484-.2042-.4484-.4555 0-.2512.2006-.4554.4484-.4554h.7683c.2482 0 .4488.2042.4488.4554M6.3015 15.224a.4579.4579 0 0 1 .1315.3219.4579.4579 0 0 1-.1315.3219l-.5438.5527a.4433.4433 0 0 1-.3169.1331.4433.4433 0 0 1-.317-.1331.4599.4599 0 0 1-.1314-.3219c0-.117.044-.2335.1315-.3227l.5434-.5519a.4442.4442 0 0 1 .6342 0M6.3063 8.3226a.4563.4563 0 0 1 .1315.322.4571.4571 0 0 1-.1315.3222.4437.4437 0 0 1-.3169.1336.4446.4446 0 0 1-.3173-.1336l-.5434-.552a.4584.4584 0 0 1-.131-.3222.4575.4575 0 0 1 .131-.3219.443.443 0 0 1 .6338 0l.5438.552zM8.9355 7.2096v-.7808c0-.2517.201-.4558.4488-.4558.2478 0 .448.2041.448.4558v.7808c0 .2513-.2002.4554-.448.4554-.2477 0-.4488-.2041-.4488-.4554M9.8325 16.9865v.7804c0 .2516-.2003.4558-.4484.4558-.2474 0-.4484-.2042-.4484-.4558v-.7804c0-.2517.201-.4555.4484-.4555.2481 0 .4484.2038.4484.4555M9.3204 13.1385c-.5518 0-1.037-.359-1.2061-.8931a1.2955 1.2955 0 0 1 .0782-.9823c.1543-.306.4173-.5326.7399-.638.4758-.156 2.7018-.1725 3.6362-.1725h.0517c.1364 0 .2561.0888.2983.2208.0414.1316-.0046.2755-.1151.3558-.4249.3123-2.5715 1.8762-3.094 2.0472a1.2514 1.2514 0 0 1-.3891.0621M12.474 8.9549a.4563.4563 0 0 1-.1316-.322c0-.1169.0437-.233.1315-.3218l.5438-.5527a.4437.4437 0 0 1 .6338 0 .4572.4572 0 0 1 .1311.3219.4606.4606 0 0 1-.131.3227l-.5435.5519a.4443.4443 0 0 1-.3169.1335.444.444 0 0 1-.3173-.1335M13.6566 15.7882a.4595.4595 0 0 1 0 .6438.444.444 0 0 1-.3173.1336.4443.4443 0 0 1-.317-.1336l-.5433-.5519a.4572.4572 0 0 1-.1311-.3219.4574.4574 0 0 1 .131-.3223.443.443 0 0 1 .634 0l.5437.5523zM15.4263 12.103c0 .2512-.2006.4554-.4484.4554h-.769c-.2475 0-.4485-.2042-.4485-.4555 0-.2512.201-.4554.4484-.4554h.7691c.2478 0 .4484.2042.4484.4554"/><path d="M9.396 18.72c-3.5951 0-6.5196-2.9709-6.5196-6.622 0-3.6513 2.9245-6.622 6.5197-6.622s6.5196 2.9707 6.5196 6.622c0 3.6511-2.9244 6.622-6.5196 6.622m1.6161-15.7008a9.092 9.092 0 0 0-.3097-.0513 9.072 9.072 0 0 0-2.6007-.0015h-.0004a8.3492 8.3492 0 0 0-.3097.0505C3.541 3.7865.3141 7.5594.3141 12.098c0 5.0944 4.0663 9.2246 9.082 9.2246 5.016 0 9.082-4.1302 9.082-9.2246 0-4.5343-3.221-8.3044-7.4659-9.0787"/><path d="M9.396 21.0035c-4.835 0-8.768-3.9951-8.768-8.9057 0-4.9103 3.933-8.9054 8.768-8.9054 4.8352 0 8.7682 3.9951 8.7682 8.9054 0 4.9106-3.933 8.9057-8.7681 8.9057m1.6207-18.3067a8.3342 8.3342 0 0 0-.3143-.0502 10.0833 10.0833 0 0 0-.3135-.0393 9.3715 9.3715 0 0 0-.993-.0525c-.3313 0-.6585.017-.9807.0513a7.5788 7.5788 0 0 0-.3139.0394 7.497 7.497 0 0 0-.3139.0494c-4.417.777-7.7877 4.698-7.7877 9.4029 0 5.2622 4.2154 9.5433 9.3963 9.5433s9.3962-4.281 9.3962-9.5433c0-4.701-3.3641-8.6186-7.7755-9.401"/><path d="M9.396 18.72c-3.5951 0-6.5196-2.9709-6.5196-6.622 0-3.6513 2.9245-6.622 6.5197-6.622s6.5196 2.9707 6.5196 6.622c0 3.6511-2.9244 6.622-6.5196 6.622m0-13.8817c-3.9414 0-7.1475 3.2568-7.1475 7.2596 0 4.0029 3.2061 7.2596 7.1475 7.2596 3.941 0 7.1478-3.2567 7.1478-7.2596 0-4.0028-3.2069-7.2596-7.1478-7.2596"/></g><g fill="#FF7B5C"><path d="M162.0742 60.2988c-.0049 0-.0097 0-.015-.0004a.4386.4386 0 0 1-.4247-.4522c.0619-1.8463.8513-3.3699 2.1668-4.179 1.1948-.7352 3.3947-1.0067 5.1177-.0626 1.0241.5612 2.2513 1.7543 2.2793 4.2509.003.2419-.1915.44-.4344.443h-.0049c-.2406 0-.437-.193-.4396-.433-.0186-1.6419-.6493-2.8501-1.8244-3.4938-1.3791-.756-3.2344-.5731-4.2314.04-1.5062.9271-1.7256 2.7312-1.7502 3.4638a.439.439 0 0 1-.4392.4233z"/><path d="M170.0956 62.8548a.4399.4399 0 0 1-.3577-.1825c-.0648-.0902-.1076-.2003-.1233-.3187a.7853.7853 0 0 1-.0078-.1109c0-.0063.0004-.0122.0004-.0182.02-.5015-.0641-1.915-.6848-2.4217-.2827-.234-.5543-.129-1.2827.328-.4083.2567-.8717.5472-1.3855.6358-.4753.0816-.9746-.0386-1.3352-.3216a1.385 1.385 0 0 1-.46-.648.597.597 0 0 0-.2538.086c-.2794.1702-.5033.588-.6482 1.2078a10.7039 10.7039 0 0 1-.0444.1844c-.0648.2667-.1624.6692-.203.9549a.439.439 0 0 1-.4966.3724c-.24-.0337-.408-.2548-.374-.4945.0465-.3275.1508-.7556.2194-1.0387.0164-.0679.031-.128.042-.177.202-.8654.554-1.4563 1.0458-1.756.351-.2141.7604-.2716 1.1844-.1666a.438.438 0 0 1 .3323.3965c.0108.1655.0763.2935.2008.3914.1628.128.4146.1851.6408.1461.3423-.059.7104-.29 1.0666-.5134.6665-.4184 1.4958-.9389 2.3113-.2622 1.0181.831 1.0155 2.7232 1.0051 3.0912a.4367.4367 0 0 1-.136.5531.4386.4386 0 0 1-.256.0824M168.6321 73.8443h3.445v-1.282h-3.445v1.282zm.995-5.4947a6.3488 6.3488 0 0 0-.3669-.0104s-.1565.1142-.4225.2645c-.5092.2871-1.419.7056-2.4.7056-1.0628 0-1.9215-.398-2.4021-.6841-.2697-.1603-.4199-.286-.4199-.286-.1184 0-.2358.003-.3524.0096-1.6016.088-3.0437.7705-4.1085 1.8304-1.1415 1.1363-1.8474 2.707-1.8474 4.4412v1.4817c0 .7337.5971 1.3276 1.3337 1.3276h15.5941c.7362 0 1.3334-.5939 1.3334-1.3276v-1.4817c0-3.3465-2.6283-6.0816-5.9414-6.2708z"/><path d="M175.2607 76.102c0 .5636-.46 1.0213-1.0256 1.0213h-15.5938c-.5659 0-1.0256-.4577-1.0256-1.0212v-1.4817c0-3.2204 2.5713-5.8535 5.7778-5.9707.0392-.0015.0786-.0022.1181-.0034.0466.035.1096.0794.1878.1306.462.3038 1.4574.8388 2.7382.8388 1.168 0 2.2227-.542 2.7148-.8403a5.1716 5.1716 0 0 0 .203-.1294 5.979 5.979 0 0 1 .1412.004c3.1995.1243 5.7641 2.7545 5.7641 5.9704v1.4817zm-5.6978-8.0622a6.2973 6.2973 0 0 0-.3025-.007.3105.3105 0 0 0-.1818.0586c-.004.0033-.1333.096-.3524.2214-.4705.2697-1.3527.69-2.2886.69-1.0163 0-1.8411-.3973-2.28-.6636-.2187-.1328-.3416-.2326-.345-.2356a.3078.3078 0 0 0-.197-.0708c-.0969 0-.1926.0022-.2884.0066-3.5146.1503-6.3273 3.045-6.3273 6.581v1.4817c0 .9014.7361 1.634 1.6414 1.634h15.5938c.905 0 1.641-.7326 1.641-1.634v-1.4817c0-3.5312-2.8045-6.4226-6.3132-6.5806zM166.4705 67.803c-2.4197 0-3.573-3.2134-3.9564-4.5949-.0474-.171-.079-.7386-.0794-1.039 0-.2416.1967-.4374.44-.4378a.4387.4387 0 0 1 .4392.4377c0 .3346.035.7312.05.8143.2611.9374 1.2457 3.9441 3.1066 3.9441.754 0 1.4567-.5972 2.0882-1.7754.6296-1.1745.9727-2.5575 1.0629-2.953.022-.0967.0331-.152.0339-.1554.0465-.2374.2775-.3917.5156-.3453.2376.0463.3934.276.3468.513 0 0-.0127.0653-.0387.1814-.1237.5416-.4821 1.9354-1.1449 3.1714-.7961 1.4857-1.76 2.2388-2.8638 2.2388"/><path d="M169.1871 68.7769a.4397.4397 0 0 1-.4247-.3268l-.5558-2.106c-.0615-.2337.079-.473.3137-.5346a.4396.4396 0 0 1 .5368.312l.5558 2.1064c.0619.2337-.0786.473-.3136.5345a.4494.4494 0 0 1-.1122.0145M163.7033 68.7769a.4494.4494 0 0 1-.1121-.0145c-.2351-.0616-.3756-.3008-.3137-.5345l.5558-2.1064a.4396.4396 0 0 1 .5369-.312c.2347.0616.3751.3009.3137.5346l-.5559 2.106a.4397.4397 0 0 1-.4247.3268"/><path d="M167.4303 65.8869c-.243 0-.44-.196-.44-.4378 0-.2418.197-.4377.44-.4377.5647 0 1.0535-.029 1.4536-.0865 1.434-.2062 1.5905-.7482 1.6326-1.3328.017-.2412.2283-.4222.4697-.4051.2422.017.4247.2266.4072.4674-.0901 1.2539-.8252 1.913-2.384 2.1371-.4477.0642-.9644.0954-1.5791.0954M162.3146 63.6264h-.2175c-.6922 0-1.2533-.559-1.2533-1.2483v-1.2694c0-.6893.561-1.2483 1.2533-1.2483h.2175c.3093 0 .56.2496.56.558v2.6505c0 .3079-.2507.5575-.56.5575"/><path d="M162.5667 63.0687a.244.244 0 0 1-.0503.1492.2492.2492 0 0 1-.2022.102h-.2169c-.5215 0-.9462-.4222-.9462-.942v-1.269c0-.4203.2775-.7764.6597-.8977a.9386.9386 0 0 1 .2865-.0442h.2169c.0227 0 .044.003.0648.009a.2506.2506 0 0 1 .1877.2422v2.6505zm.4706-3.1276a.8697.8697 0 0 0-.506-.3598.8908.8908 0 0 0-.2171-.0271h-.2169a1.559 1.559 0 0 0-.4511.066c-.6416.1933-1.1102.7876-1.1102 1.4887v1.269c0 .8578.7007 1.5552 1.5613 1.5552h.2169a.8655.8655 0 0 0 .3926-.0939c.282-.1432.4754-.4347.4754-.7705v-2.6505a.8544.8544 0 0 0-.145-.4771zM170.6552 59.8605h.2171c.6922 0 1.2537.559 1.2537 1.2483v1.2694c0 .6893-.5615 1.2483-1.2537 1.2483h-.2171c-.3093 0-.56-.2496-.56-.558V60.418c0-.3079.2507-.5575.56-.5575"/><path d="M170.4976 60.2126l-.0123-.0093c-.0004-.0004-.0007-.0004-.0007-.0007-.0004 0-.0004-.0004-.0008-.0011a.0565.0565 0 0 1-.01-.0082.2648.2648 0 0 1-.0239-.0215c-.0022-.0023-.0052-.0048-.007-.007-.0075-.0079-.015-.0157-.0217-.0234a.0683.0683 0 0 0-.0063-.0082c-.0026-.004-.0063-.0082-.0093-.0126-.0034-.0041-.0064-.0086-.0093-.0126-.0004-.0004-.0008-.0015-.0012-.0023a.3166.3166 0 0 1-.0204-.0322c-.0023-.0037-.0041-.0075-.006-.0108-.0041-.0078-.0075-.0156-.0112-.0234-.0011-.0014-.0015-.0033-.0022-.0048a.2445.2445 0 0 1-.0104-.0274.063.063 0 0 1-.0045-.0127.2183.2183 0 0 1-.0086-.0315.4736.4736 0 0 0-.0477.0379.494.494 0 0 0-.0611.063c-.0048.0056-.01.0115-.0145.0182a.2117.2117 0 0 0-.0175.0245.1766.1766 0 0 0-.0116.0174.2481.2481 0 0 0-.0123.0212c-.006.01-.0115.0211-.0167.0315-.0004.0004-.0004.0015-.0011.0018l-.0008.0026a.013.013 0 0 0-.0022.0052c-.0037.007-.0067.0141-.0097.0212-.0041.0096-.0075.0196-.0112.0297-.0018.0048-.0037.0096-.0048.0148-.0015.0052-.0034.0104-.0045.0152a1.067 1.067 0 0 0-.0082.033.2403.2403 0 0 0-.006.0334v.0004a.1895.1895 0 0 0-.0033.0248.0455.0455 0 0 0-.0007.0075.124.124 0 0 0-.0015.02c-.0008.0107-.0015.0211-.0015.0319v1.2717c.0063 0 .013.0003.019.001.0048.0005.0097.0005.0141.0012a.2002.2002 0 0 1 .0209.0026.2886.2886 0 0 1 .0216.0037.19.19 0 0 1 .0242.0056c.0004 0 .0008.0003.0011.0003a.2096.2096 0 0 1 .0231.0067c.0012 0 .0015 0 .0023.0004a.283.283 0 0 1 .0309.0115l.0033.0011a.1069.1069 0 0 1 .0176.0082c.0018.0003.003.001.0048.0022a.0381.0381 0 0 1 .0082.0033.2009.2009 0 0 1 .0197.0115.0608.0608 0 0 1 .0134.0078c.0004.0004.0012.0004.002.0008a.0956.0956 0 0 1 .013.0081c.0003.0008.0003.0008.0007.0011.0004.0004.0015.0011.0022.0019.0023.0011.0045.0026.0064.0037.0018.0015.0037.0026.0056.004a.007.007 0 0 1 .0026.0023.42.42 0 0 1 .051.0449V60.418c0-.082.0402-.1554.1017-.2007a.0755.0755 0 0 0-.0067-.0048zm0 0l-.0123-.0093c-.0004-.0004-.0007-.0004-.0007-.0007-.0004 0-.0004-.0004-.0008-.0011a.0565.0565 0 0 1-.01-.0082.2648.2648 0 0 1-.0239-.0215c-.0022-.0023-.0052-.0048-.007-.007-.0075-.0079-.015-.0157-.0217-.0234a.0683.0683 0 0 0-.0063-.0082c-.0026-.004-.0063-.0082-.0093-.0126-.0034-.0041-.0064-.0086-.0093-.0126-.0004-.0004-.0008-.0015-.0012-.0023a.3166.3166 0 0 1-.0204-.0322c-.0023-.0037-.0041-.0075-.006-.0108-.0041-.0078-.0075-.0156-.0112-.0234-.0011-.0014-.0015-.0033-.0022-.0048a.2445.2445 0 0 1-.0104-.0274.063.063 0 0 1-.0045-.0127.2183.2183 0 0 1-.0086-.0315.4736.4736 0 0 0-.0477.0379.494.494 0 0 0-.0611.063c-.0048.0056-.01.0115-.0145.0182a.2117.2117 0 0 0-.0175.0245.1766.1766 0 0 0-.0116.0174.2481.2481 0 0 0-.0123.0212c-.006.01-.0115.0211-.0167.0315-.0004.0004-.0004.0015-.0011.0018l-.0008.0026a.013.013 0 0 0-.0022.0052c-.0037.007-.0067.0141-.0097.0212-.0041.0096-.0075.0196-.0112.0297-.0018.0048-.0037.0096-.0048.0148-.0015.0052-.0034.0104-.0045.0152a1.067 1.067 0 0 0-.0082.033.2403.2403 0 0 0-.006.0334v.0004a.1895.1895 0 0 0-.0033.0248.0455.0455 0 0 0-.0007.0075.124.124 0 0 0-.0015.02c-.0008.0107-.0015.0211-.0015.0319v1.2717c.0063 0 .013.0003.019.001.0048.0005.0097.0005.0141.0012a.2002.2002 0 0 1 .0209.0026.2886.2886 0 0 1 .0216.0037.19.19 0 0 1 .0242.0056c.0004 0 .0008.0003.0011.0003a.2096.2096 0 0 1 .0231.0067c.0012 0 .0015 0 .0023.0004a.283.283 0 0 1 .0309.0115l.0033.0011a.1069.1069 0 0 1 .0176.0082c.0018.0003.003.001.0048.0022a.0381.0381 0 0 1 .0082.0033.2009.2009 0 0 1 .0197.0115.0608.0608 0 0 1 .0134.0078c.0004.0004.0012.0004.002.0008a.0956.0956 0 0 1 .013.0081c.0003.0008.0003.0008.0007.0011.0004.0004.0015.0011.0022.0019.0023.0011.0045.0026.0064.0037.0018.0015.0037.0026.0056.004a.007.007 0 0 1 .0026.0023.42.42 0 0 1 .051.0449V60.418c0-.082.0402-.1554.1017-.2007a.0755.0755 0 0 0-.0067-.0048zm0 0l-.0123-.0093c-.0004-.0004-.0007-.0004-.0007-.0007-.0004 0-.0004-.0004-.0008-.0011a.0565.0565 0 0 1-.01-.0082.2648.2648 0 0 1-.0239-.0215c-.0022-.0023-.0052-.0048-.007-.007-.0075-.0079-.015-.0157-.0217-.0234a.0683.0683 0 0 0-.0063-.0082c-.0026-.004-.0063-.0082-.0093-.0126-.0034-.0041-.0064-.0086-.0093-.0126-.0004-.0004-.0008-.0015-.0012-.0023a.3166.3166 0 0 1-.0204-.0322c-.0023-.0037-.0041-.0075-.006-.0108-.0041-.0078-.0075-.0156-.0112-.0234-.0011-.0014-.0015-.0033-.0022-.0048a.2445.2445 0 0 1-.0104-.0274.063.063 0 0 1-.0045-.0127.2183.2183 0 0 1-.0086-.0315.4736.4736 0 0 0-.0477.0379.494.494 0 0 0-.0611.063c-.0048.0056-.01.0115-.0145.0182a.2117.2117 0 0 0-.0175.0245.1766.1766 0 0 0-.0116.0174.2481.2481 0 0 0-.0123.0212c-.006.01-.0115.0211-.0167.0315-.0004.0004-.0004.0015-.0011.0018l-.0008.0026a.013.013 0 0 0-.0022.0052c-.0037.007-.0067.0141-.0097.0212-.0041.0096-.0075.0196-.0112.0297-.0018.0048-.0037.0096-.0048.0148-.0015.0052-.0034.0104-.0045.0152a1.067 1.067 0 0 0-.0082.033.2403.2403 0 0 0-.006.0334v.0004a.1895.1895 0 0 0-.0033.0248.0455.0455 0 0 0-.0007.0075.124.124 0 0 0-.0015.02c-.0008.0107-.0015.0211-.0015.0319v1.2717c.0063 0 .013.0003.019.001.0048.0005.0097.0005.0141.0012a.2002.2002 0 0 1 .0209.0026.2886.2886 0 0 1 .0216.0037.19.19 0 0 1 .0242.0056c.0004 0 .0008.0003.0011.0003a.2096.2096 0 0 1 .0231.0067c.0012 0 .0015 0 .0023.0004a.283.283 0 0 1 .0309.0115l.0033.0011a.1069.1069 0 0 1 .0176.0082c.0018.0003.003.001.0048.0022a.0381.0381 0 0 1 .0082.0033.2009.2009 0 0 1 .0197.0115.0608.0608 0 0 1 .0134.0078c.0004.0004.0012.0004.002.0008a.0956.0956 0 0 1 .013.0081c.0003.0008.0003.0008.0007.0011.0004.0004.0015.0011.0022.0019.0023.0011.0045.0026.0064.0037.0018.0015.0037.0026.0056.004a.007.007 0 0 1 .0026.0023.42.42 0 0 1 .051.0449V60.418c0-.082.0402-.1554.1017-.2007a.0755.0755 0 0 0-.0067-.0048zm0 0l-.0123-.0093c-.0004-.0004-.0007-.0004-.0007-.0007-.0004 0-.0004-.0004-.0008-.0011a.0565.0565 0 0 1-.01-.0082.2648.2648 0 0 1-.0239-.0215c-.0022-.0023-.0052-.0048-.007-.007-.0075-.0079-.015-.0157-.0217-.0234a.0683.0683 0 0 0-.0063-.0082c-.0026-.004-.0063-.0082-.0093-.0126-.0034-.0041-.0064-.0086-.0093-.0126-.0004-.0004-.0008-.0015-.0012-.0023a.3166.3166 0 0 1-.0204-.0322c-.0023-.0037-.0041-.0075-.006-.0108-.0041-.0078-.0075-.0156-.0112-.0234-.0011-.0014-.0015-.0033-.0022-.0048a.2445.2445 0 0 1-.0104-.0274.063.063 0 0 1-.0045-.0127.2183.2183 0 0 1-.0086-.0315.4736.4736 0 0 0-.0477.0379.494.494 0 0 0-.0611.063c-.0048.0056-.01.0115-.0145.0182a.2117.2117 0 0 0-.0175.0245.1766.1766 0 0 0-.0116.0174.2481.2481 0 0 0-.0123.0212c-.006.01-.0115.0211-.0167.0315-.0004.0004-.0004.0015-.0011.0018l-.0008.0026a.013.013 0 0 0-.0022.0052c-.0037.007-.0067.0141-.0097.0212-.0041.0096-.0075.0196-.0112.0297-.0018.0048-.0037.0096-.0048.0148-.0015.0052-.0034.0104-.0045.0152a1.067 1.067 0 0 0-.0082.033.2403.2403 0 0 0-.006.0334v.0004a.1895.1895 0 0 0-.0033.0248.0455.0455 0 0 0-.0007.0075.124.124 0 0 0-.0015.02c-.0008.0107-.0015.0211-.0015.0319v1.2717c.0063 0 .013.0003.019.001.0048.0005.0097.0005.0141.0012a.2002.2002 0 0 1 .0209.0026.2886.2886 0 0 1 .0216.0037.19.19 0 0 1 .0242.0056c.0004 0 .0008.0003.0011.0003a.2096.2096 0 0 1 .0231.0067c.0012 0 .0015 0 .0023.0004a.283.283 0 0 1 .0309.0115l.0033.0011a.1069.1069 0 0 1 .0176.0082c.0018.0003.003.001.0048.0022a.0381.0381 0 0 1 .0082.0033.2009.2009 0 0 1 .0197.0115.0608.0608 0 0 1 .0134.0078c.0004.0004.0012.0004.002.0008a.0956.0956 0 0 1 .013.0081c.0003.0008.0003.0008.0007.0011.0004.0004.0015.0011.0022.0019.0023.0011.0045.0026.0064.0037.0018.0015.0037.0026.0056.004a.007.007 0 0 1 .0026.0023.42.42 0 0 1 .051.0449V60.418c0-.082.0402-.1554.1017-.2007a.0755.0755 0 0 0-.0067-.0048zm0 0l-.0123-.0093c-.0004-.0004-.0007-.0004-.0007-.0007-.0004 0-.0004-.0004-.0008-.0011a.0565.0565 0 0 1-.01-.0082.2648.2648 0 0 1-.0239-.0215c-.0022-.0023-.0052-.0048-.007-.007-.0075-.0079-.015-.0157-.0217-.0234a.0683.0683 0 0 0-.0063-.0082c-.0026-.004-.0063-.0082-.0093-.0126-.0034-.0041-.0064-.0086-.0093-.0126-.0004-.0004-.0008-.0015-.0012-.0023a.3166.3166 0 0 1-.0204-.0322c-.0023-.0037-.0041-.0075-.006-.0108-.0041-.0078-.0075-.0156-.0112-.0234-.0011-.0014-.0015-.0033-.0022-.0048a.2445.2445 0 0 1-.0104-.0274.063.063 0 0 1-.0045-.0127.2183.2183 0 0 1-.0086-.0315.4736.4736 0 0 0-.0477.0379.494.494 0 0 0-.0611.063c-.0048.0056-.01.0115-.0145.0182a.2117.2117 0 0 0-.0175.0245.1766.1766 0 0 0-.0116.0174.2481.2481 0 0 0-.0123.0212c-.006.01-.0115.0211-.0167.0315-.0004.0004-.0004.0015-.0011.0018l-.0008.0026a.013.013 0 0 0-.0022.0052c-.0037.007-.0067.0141-.0097.0212-.0041.0096-.0075.0196-.0112.0297-.0018.0048-.0037.0096-.0048.0148-.0015.0052-.0034.0104-.0045.0152a1.067 1.067 0 0 0-.0082.033.2403.2403 0 0 0-.006.0334v.0004a.1895.1895 0 0 0-.0033.0248.0455.0455 0 0 0-.0007.0075.124.124 0 0 0-.0015.02c-.0008.0107-.0015.0211-.0015.0319v1.2717c.0063 0 .013.0003.019.001.0048.0005.0097.0005.0141.0012a.2002.2002 0 0 1 .0209.0026.2886.2886 0 0 1 .0216.0037.19.19 0 0 1 .0242.0056c.0004 0 .0008.0003.0011.0003a.2096.2096 0 0 1 .0231.0067c.0012 0 .0015 0 .0023.0004a.283.283 0 0 1 .0309.0115l.0033.0011a.1069.1069 0 0 1 .0176.0082c.0018.0003.003.001.0048.0022a.0381.0381 0 0 1 .0082.0033.2009.2009 0 0 1 .0197.0115.0608.0608 0 0 1 .0134.0078c.0004.0004.0012.0004.002.0008a.0956.0956 0 0 1 .013.0081c.0003.0008.0003.0008.0007.0011.0004.0004.0015.0011.0022.0019.0023.0011.0045.0026.0064.0037.0018.0015.0037.0026.0056.004a.007.007 0 0 1 .0026.0023.42.42 0 0 1 .051.0449V60.418c0-.082.0402-.1554.1017-.2007a.0755.0755 0 0 0-.0067-.0048zm0 0l-.0123-.0093c-.0004-.0004-.0007-.0004-.0007-.0007-.0004 0-.0004-.0004-.0008-.0011a.0565.0565 0 0 1-.01-.0082.2648.2648 0 0 1-.0239-.0215c-.0022-.0023-.0052-.0048-.007-.007-.0075-.0079-.015-.0157-.0217-.0234a.0683.0683 0 0 0-.0063-.0082c-.0026-.004-.0063-.0082-.0093-.0126-.0034-.0041-.0064-.0086-.0093-.0126-.0004-.0004-.0008-.0015-.0012-.0023a.3166.3166 0 0 1-.0204-.0322c-.0023-.0037-.0041-.0075-.006-.0108-.0041-.0078-.0075-.0156-.0112-.0234-.0011-.0014-.0015-.0033-.0022-.0048a.2445.2445 0 0 1-.0104-.0274.063.063 0 0 1-.0045-.0127.2183.2183 0 0 1-.0086-.0315.4736.4736 0 0 0-.0477.0379.494.494 0 0 0-.0611.063c-.0048.0056-.01.0115-.0145.0182a.2117.2117 0 0 0-.0175.0245.1766.1766 0 0 0-.0116.0174.2481.2481 0 0 0-.0123.0212c-.006.01-.0115.0211-.0167.0315-.0004.0004-.0004.0015-.0011.0018l-.0008.0026a.013.013 0 0 0-.0022.0052c-.0037.007-.0067.0141-.0097.0212-.0041.0096-.0075.0196-.0112.0297-.0018.0048-.0037.0096-.0048.0148-.0015.0052-.0034.0104-.0045.0152a1.067 1.067 0 0 0-.0082.033.2403.2403 0 0 0-.006.0334v.0004a.1895.1895 0 0 0-.0033.0248.0455.0455 0 0 0-.0007.0075.124.124 0 0 0-.0015.02c-.0008.0107-.0015.0211-.0015.0319v1.2717c.0063 0 .013.0003.019.001.0048.0005.0097.0005.0141.0012a.2002.2002 0 0 1 .0209.0026.2886.2886 0 0 1 .0216.0037.19.19 0 0 1 .0242.0056c.0004 0 .0008.0003.0011.0003a.2096.2096 0 0 1 .0231.0067c.0012 0 .0015 0 .0023.0004a.283.283 0 0 1 .0309.0115l.0033.0011a.1069.1069 0 0 1 .0176.0082c.0018.0003.003.001.0048.0022a.0381.0381 0 0 1 .0082.0033.2009.2009 0 0 1 .0197.0115.0608.0608 0 0 1 .0134.0078c.0004.0004.0012.0004.002.0008a.0956.0956 0 0 1 .013.0081c.0003.0008.0003.0008.0007.0011.0004.0004.0015.0011.0022.0019.0023.0011.0045.0026.0064.0037.0018.0015.0037.0026.0056.004a.007.007 0 0 1 .0026.0023.42.42 0 0 1 .051.0449V60.418c0-.082.0402-.1554.1017-.2007a.0755.0755 0 0 0-.0067-.0048zm0 0l-.0123-.0093c-.0004-.0004-.0007-.0004-.0007-.0007-.0004 0-.0004-.0004-.0008-.0011a.0565.0565 0 0 1-.01-.0082.2648.2648 0 0 1-.0239-.0215c-.0022-.0023-.0052-.0048-.007-.007-.0075-.0079-.015-.0157-.0217-.0234a.0683.0683 0 0 0-.0063-.0082c-.0026-.004-.0063-.0082-.0093-.0126-.0034-.0041-.0064-.0086-.0093-.0126-.0004-.0004-.0008-.0015-.0012-.0023a.3166.3166 0 0 1-.0204-.0322c-.0023-.0037-.0041-.0075-.006-.0108-.0041-.0078-.0075-.0156-.0112-.0234-.0011-.0014-.0015-.0033-.0022-.0048a.2445.2445 0 0 1-.0104-.0274.063.063 0 0 1-.0045-.0127.2183.2183 0 0 1-.0086-.0315.4736.4736 0 0 0-.0477.0379.494.494 0 0 0-.0611.063c-.0048.0056-.01.0115-.0145.0182a.2117.2117 0 0 0-.0175.0245.1766.1766 0 0 0-.0116.0174.2481.2481 0 0 0-.0123.0212c-.006.01-.0115.0211-.0167.0315-.0004.0004-.0004.0015-.0011.0018l-.0008.0026a.013.013 0 0 0-.0022.0052c-.0037.007-.0067.0141-.0097.0212-.0041.0096-.0075.0196-.0112.0297-.0018.0048-.0037.0096-.0048.0148-.0015.0052-.0034.0104-.0045.0152a1.067 1.067 0 0 0-.0082.033.2403.2403 0 0 0-.006.0334v.0004a.1895.1895 0 0 0-.0033.0248.0455.0455 0 0 0-.0007.0075.124.124 0 0 0-.0015.02c-.0008.0107-.0015.0211-.0015.0319v1.2717c.0063 0 .013.0003.019.001.0048.0005.0097.0005.0141.0012a.2002.2002 0 0 1 .0209.0026.2886.2886 0 0 1 .0216.0037.19.19 0 0 1 .0242.0056c.0004 0 .0008.0003.0011.0003a.2096.2096 0 0 1 .0231.0067c.0012 0 .0015 0 .0023.0004a.283.283 0 0 1 .0309.0115l.0033.0011a.1069.1069 0 0 1 .0176.0082c.0018.0003.003.001.0048.0022a.0381.0381 0 0 1 .0082.0033.2009.2009 0 0 1 .0197.0115.0608.0608 0 0 1 .0134.0078c.0004.0004.0012.0004.002.0008a.0956.0956 0 0 1 .013.0081c.0003.0008.0003.0008.0007.0011.0004.0004.0015.0011.0022.0019.0023.0011.0045.0026.0064.0037.0018.0015.0037.0026.0056.004a.007.007 0 0 1 .0026.0023.42.42 0 0 1 .051.0449V60.418c0-.082.0402-.1554.1017-.2007a.0755.0755 0 0 0-.0067-.0048zm0 0l-.0123-.0093c-.0004-.0004-.0007-.0004-.0007-.0007-.0004 0-.0004-.0004-.0008-.0011a.0565.0565 0 0 1-.01-.0082.2648.2648 0 0 1-.0239-.0215c-.0022-.0023-.0052-.0048-.007-.007-.0075-.0079-.015-.0157-.0217-.0234a.0683.0683 0 0 0-.0063-.0082c-.0026-.004-.0063-.0082-.0093-.0126-.0034-.0041-.0064-.0086-.0093-.0126-.0004-.0004-.0008-.0015-.0012-.0023a.3166.3166 0 0 1-.0204-.0322c-.0023-.0037-.0041-.0075-.006-.0108-.0041-.0078-.0075-.0156-.0112-.0234-.0011-.0014-.0015-.0033-.0022-.0048a.2445.2445 0 0 1-.0104-.0274.063.063 0 0 1-.0045-.0127.2183.2183 0 0 1-.0086-.0315.4736.4736 0 0 0-.0477.0379.494.494 0 0 0-.0611.063c-.0048.0056-.01.0115-.0145.0182a.2117.2117 0 0 0-.0175.0245.1766.1766 0 0 0-.0116.0174.2481.2481 0 0 0-.0123.0212c-.006.01-.0115.0211-.0167.0315-.0004.0004-.0004.0015-.0011.0018l-.0008.0026a.013.013 0 0 0-.0022.0052c-.0037.007-.0067.0141-.0097.0212-.0041.0096-.0075.0196-.0112.0297-.0018.0048-.0037.0096-.0048.0148-.0015.0052-.0034.0104-.0045.0152a1.067 1.067 0 0 0-.0082.033.2403.2403 0 0 0-.006.0334v.0004a.1895.1895 0 0 0-.0033.0248.0455.0455 0 0 0-.0007.0075.124.124 0 0 0-.0015.02c-.0008.0107-.0015.0211-.0015.0319v1.2717c.0063 0 .013.0003.019.001.0048.0005.0097.0005.0141.0012a.2002.2002 0 0 1 .0209.0026.2886.2886 0 0 1 .0216.0037.19.19 0 0 1 .0242.0056c.0004 0 .0008.0003.0011.0003a.2096.2096 0 0 1 .0231.0067c.0012 0 .0015 0 .0023.0004a.283.283 0 0 1 .0309.0115l.0033.0011a.1069.1069 0 0 1 .0176.0082c.0018.0003.003.001.0048.0022a.0381.0381 0 0 1 .0082.0033.2009.2009 0 0 1 .0197.0115.0608.0608 0 0 1 .0134.0078c.0004.0004.0012.0004.002.0008a.0956.0956 0 0 1 .013.0081c.0003.0008.0003.0008.0007.0011.0004.0004.0015.0011.0022.0019.0023.0011.0045.0026.0064.0037.0018.0015.0037.0026.0056.004a.007.007 0 0 1 .0026.0023.42.42 0 0 1 .051.0449V60.418c0-.082.0402-.1554.1017-.2007a.0755.0755 0 0 0-.0067-.0048zm1.3207 2.1653c0 .4047-.257.7497-.6166.883a.9354.9354 0 0 1-.3293.0589h-.2172c-.0056 0-.0104 0-.016-.0007a.2518.2518 0 0 1-.2366-.2504V60.418c0-.082.0402-.1554.1017-.2007a.2485.2485 0 0 1 .1509-.0505h.2172a.9431.9431 0 0 1 .1814.0179h.0004c.4351.0845.764.4666.764.9244v1.2687zm-.6278-2.7911h-.0007a1.5178 1.5178 0 0 0-.3174-.0327h-.2172a.8599.8599 0 0 0-.3431.0709.8553.8553 0 0 0-.285.198.857.857 0 0 0-.2396.5951v2.6506c0 .2678.123.5074.3152.6662a.8716.8716 0 0 0 .5525.1981h.2172c.175 0 .3431-.029.5007-.082.6162-.2085 1.0606-.7898 1.0606-1.473v-1.2688c0-.7493-.5338-1.3755-1.2432-1.5224zm-.6929.6258l-.0123-.0093c-.0004-.0004-.0007-.0004-.0007-.0007-.0004 0-.0004-.0004-.0008-.0011a.0565.0565 0 0 1-.01-.0082.2648.2648 0 0 1-.0239-.0215c-.0022-.0023-.0052-.0048-.007-.007-.0075-.0079-.015-.0157-.0217-.0234a.0683.0683 0 0 0-.0063-.0082c-.0026-.004-.0063-.0082-.0093-.0126-.0034-.0041-.0064-.0086-.0093-.0126-.0004-.0004-.0008-.0015-.0012-.0023a.3166.3166 0 0 1-.0204-.0322c-.0023-.0037-.0041-.0075-.006-.0108-.0041-.0078-.0075-.0156-.0112-.0234-.0011-.0014-.0015-.0033-.0022-.0048a.2445.2445 0 0 1-.0104-.0274.063.063 0 0 1-.0045-.0127.2183.2183 0 0 1-.0086-.0315.4736.4736 0 0 0-.0477.0379.494.494 0 0 0-.0611.063c-.0048.0056-.01.0115-.0145.0182a.2117.2117 0 0 0-.0175.0245.1766.1766 0 0 0-.0116.0174.2481.2481 0 0 0-.0123.0212c-.006.01-.0115.0211-.0167.0315-.0004.0004-.0004.0015-.0011.0018l-.0008.0026a.013.013 0 0 0-.0022.0052c-.0037.007-.0067.0141-.0097.0212-.0041.0096-.0075.0196-.0112.0297-.0018.0048-.0037.0096-.0048.0148-.0015.0052-.0034.0104-.0045.0152a1.067 1.067 0 0 0-.0082.033.2403.2403 0 0 0-.006.0334v.0004a.1895.1895 0 0 0-.0033.0248.0455.0455 0 0 0-.0007.0075.124.124 0 0 0-.0015.02c-.0008.0107-.0015.0211-.0015.0319v1.2717c.0063 0 .013.0003.019.001.0048.0005.0097.0005.0141.0012a.2002.2002 0 0 1 .0209.0026.2886.2886 0 0 1 .0216.0037.19.19 0 0 1 .0242.0056c.0004 0 .0008.0003.0011.0003a.2096.2096 0 0 1 .0231.0067c.0012 0 .0015 0 .0023.0004a.283.283 0 0 1 .0309.0115l.0033.0011a.1069.1069 0 0 1 .0176.0082c.0018.0003.003.001.0048.0022a.0381.0381 0 0 1 .0082.0033.2009.2009 0 0 1 .0197.0115.0608.0608 0 0 1 .0134.0078c.0004.0004.0012.0004.002.0008a.0956.0956 0 0 1 .013.0081c.0003.0008.0003.0008.0007.0011.0004.0004.0015.0011.0022.0019.0023.0011.0045.0026.0064.0037.0018.0015.0037.0026.0056.004a.007.007 0 0 1 .0026.0023.42.42 0 0 1 .051.0449V60.418c0-.082.0402-.1554.1017-.2007a.0755.0755 0 0 0-.0067-.0048zm0 0l-.0123-.0093c-.0004-.0004-.0007-.0004-.0007-.0007-.0004 0-.0004-.0004-.0008-.0011a.0565.0565 0 0 1-.01-.0082.2648.2648 0 0 1-.0239-.0215c-.0022-.0023-.0052-.0048-.007-.007-.0075-.0079-.015-.0157-.0217-.0234a.0683.0683 0 0 0-.0063-.0082c-.0026-.004-.0063-.0082-.0093-.0126-.0034-.0041-.0064-.0086-.0093-.0126-.0004-.0004-.0008-.0015-.0012-.0023a.3166.3166 0 0 1-.0204-.0322c-.0023-.0037-.0041-.0075-.006-.0108-.0041-.0078-.0075-.0156-.0112-.0234-.0011-.0014-.0015-.0033-.0022-.0048a.2445.2445 0 0 1-.0104-.0274.063.063 0 0 1-.0045-.0127.2183.2183 0 0 1-.0086-.0315.4736.4736 0 0 0-.0477.0379.494.494 0 0 0-.0611.063c-.0048.0056-.01.0115-.0145.0182a.2117.2117 0 0 0-.0175.0245.1766.1766 0 0 0-.0116.0174.2481.2481 0 0 0-.0123.0212c-.006.01-.0115.0211-.0167.0315-.0004.0004-.0004.0015-.0011.0018l-.0008.0026a.013.013 0 0 0-.0022.0052c-.0037.007-.0067.0141-.0097.0212-.0041.0096-.0075.0196-.0112.0297-.0018.0048-.0037.0096-.0048.0148-.0015.0052-.0034.0104-.0045.0152a1.067 1.067 0 0 0-.0082.033.2403.2403 0 0 0-.006.0334v.0004a.1895.1895 0 0 0-.0033.0248.0455.0455 0 0 0-.0007.0075.124.124 0 0 0-.0015.02c-.0008.0107-.0015.0211-.0015.0319v1.2717c.0063 0 .013.0003.019.001.0048.0005.0097.0005.0141.0012a.2002.2002 0 0 1 .0209.0026.2886.2886 0 0 1 .0216.0037.19.19 0 0 1 .0242.0056c.0004 0 .0008.0003.0011.0003a.2096.2096 0 0 1 .0231.0067c.0012 0 .0015 0 .0023.0004a.283.283 0 0 1 .0309.0115l.0033.0011a.1069.1069 0 0 1 .0176.0082c.0018.0003.003.001.0048.0022a.0381.0381 0 0 1 .0082.0033.2009.2009 0 0 1 .0197.0115.0608.0608 0 0 1 .0134.0078c.0004.0004.0012.0004.002.0008a.0956.0956 0 0 1 .013.0081c.0003.0008.0003.0008.0007.0011.0004.0004.0015.0011.0022.0019.0023.0011.0045.0026.0064.0037.0018.0015.0037.0026.0056.004a.007.007 0 0 1 .0026.0023.42.42 0 0 1 .051.0449V60.418c0-.082.0402-.1554.1017-.2007a.0755.0755 0 0 0-.0067-.0048zm0 0l-.0123-.0093c-.0004-.0004-.0007-.0004-.0007-.0007-.0004 0-.0004-.0004-.0008-.0011a.0565.0565 0 0 1-.01-.0082.2648.2648 0 0 1-.0239-.0215c-.0022-.0023-.0052-.0048-.007-.007-.0075-.0079-.015-.0157-.0217-.0234a.0683.0683 0 0 0-.0063-.0082c-.0026-.004-.0063-.0082-.0093-.0126-.0034-.0041-.0064-.0086-.0093-.0126-.0004-.0004-.0008-.0015-.0012-.0023a.3166.3166 0 0 1-.0204-.0322c-.0023-.0037-.0041-.0075-.006-.0108-.0041-.0078-.0075-.0156-.0112-.0234-.0011-.0014-.0015-.0033-.0022-.0048a.2445.2445 0 0 1-.0104-.0274.063.063 0 0 1-.0045-.0127.2183.2183 0 0 1-.0086-.0315.4736.4736 0 0 0-.0477.0379.494.494 0 0 0-.0611.063c-.0048.0056-.01.0115-.0145.0182a.2117.2117 0 0 0-.0175.0245.1766.1766 0 0 0-.0116.0174.2481.2481 0 0 0-.0123.0212c-.006.01-.0115.0211-.0167.0315-.0004.0004-.0004.0015-.0011.0018l-.0008.0026a.013.013 0 0 0-.0022.0052c-.0037.007-.0067.0141-.0097.0212-.0041.0096-.0075.0196-.0112.0297-.0018.0048-.0037.0096-.0048.0148-.0015.0052-.0034.0104-.0045.0152a1.067 1.067 0 0 0-.0082.033.2403.2403 0 0 0-.006.0334v.0004a.1895.1895 0 0 0-.0033.0248.0455.0455 0 0 0-.0007.0075.124.124 0 0 0-.0015.02c-.0008.0107-.0015.0211-.0015.0319v1.2717c.0063 0 .013.0003.019.001.0048.0005.0097.0005.0141.0012a.2002.2002 0 0 1 .0209.0026.2886.2886 0 0 1 .0216.0037.19.19 0 0 1 .0242.0056c.0004 0 .0008.0003.0011.0003a.2096.2096 0 0 1 .0231.0067c.0012 0 .0015 0 .0023.0004a.283.283 0 0 1 .0309.0115l.0033.0011a.1069.1069 0 0 1 .0176.0082c.0018.0003.003.001.0048.0022a.0381.0381 0 0 1 .0082.0033.2009.2009 0 0 1 .0197.0115.0608.0608 0 0 1 .0134.0078c.0004.0004.0012.0004.002.0008a.0956.0956 0 0 1 .013.0081c.0003.0008.0003.0008.0007.0011.0004.0004.0015.0011.0022.0019.0023.0011.0045.0026.0064.0037.0018.0015.0037.0026.0056.004a.007.007 0 0 1 .0026.0023.42.42 0 0 1 .051.0449V60.418c0-.082.0402-.1554.1017-.2007a.0755.0755 0 0 0-.0067-.0048zm0 0l-.0123-.0093c-.0004-.0004-.0007-.0004-.0007-.0007-.0004 0-.0004-.0004-.0008-.0011a.0565.0565 0 0 1-.01-.0082.2648.2648 0 0 1-.0239-.0215c-.0022-.0023-.0052-.0048-.007-.007-.0075-.0079-.015-.0157-.0217-.0234a.0683.0683 0 0 0-.0063-.0082c-.0026-.004-.0063-.0082-.0093-.0126-.0034-.0041-.0064-.0086-.0093-.0126-.0004-.0004-.0008-.0015-.0012-.0023a.3166.3166 0 0 1-.0204-.0322c-.0023-.0037-.0041-.0075-.006-.0108-.0041-.0078-.0075-.0156-.0112-.0234-.0011-.0014-.0015-.0033-.0022-.0048a.2445.2445 0 0 1-.0104-.0274.063.063 0 0 1-.0045-.0127.2183.2183 0 0 1-.0086-.0315.4736.4736 0 0 0-.0477.0379.494.494 0 0 0-.0611.063c-.0048.0056-.01.0115-.0145.0182a.2117.2117 0 0 0-.0175.0245.1766.1766 0 0 0-.0116.0174.2481.2481 0 0 0-.0123.0212c-.006.01-.0115.0211-.0167.0315-.0004.0004-.0004.0015-.0011.0018l-.0008.0026a.013.013 0 0 0-.0022.0052c-.0037.007-.0067.0141-.0097.0212-.0041.0096-.0075.0196-.0112.0297-.0018.0048-.0037.0096-.0048.0148-.0015.0052-.0034.0104-.0045.0152a1.067 1.067 0 0 0-.0082.033.2403.2403 0 0 0-.006.0334v.0004a.1895.1895 0 0 0-.0033.0248.0455.0455 0 0 0-.0007.0075.124.124 0 0 0-.0015.02c-.0008.0107-.0015.0211-.0015.0319v1.2717c.0063 0 .013.0003.019.001.0048.0005.0097.0005.0141.0012a.2002.2002 0 0 1 .0209.0026.2886.2886 0 0 1 .0216.0037.19.19 0 0 1 .0242.0056c.0004 0 .0008.0003.0011.0003a.2096.2096 0 0 1 .0231.0067c.0012 0 .0015 0 .0023.0004a.283.283 0 0 1 .0309.0115l.0033.0011a.1069.1069 0 0 1 .0176.0082c.0018.0003.003.001.0048.0022a.0381.0381 0 0 1 .0082.0033.2009.2009 0 0 1 .0197.0115.0608.0608 0 0 1 .0134.0078c.0004.0004.0012.0004.002.0008a.0956.0956 0 0 1 .013.0081c.0003.0008.0003.0008.0007.0011.0004.0004.0015.0011.0022.0019.0023.0011.0045.0026.0064.0037.0018.0015.0037.0026.0056.004a.007.007 0 0 1 .0026.0023.42.42 0 0 1 .051.0449V60.418c0-.082.0402-.1554.1017-.2007a.0755.0755 0 0 0-.0067-.0048zm0 0l-.0123-.0093c-.0004-.0004-.0007-.0004-.0007-.0007-.0004 0-.0004-.0004-.0008-.0011a.0565.0565 0 0 1-.01-.0082.2648.2648 0 0 1-.0239-.0215c-.0022-.0023-.0052-.0048-.007-.007-.0075-.0079-.015-.0157-.0217-.0234a.0683.0683 0 0 0-.0063-.0082c-.0026-.004-.0063-.0082-.0093-.0126-.0034-.0041-.0064-.0086-.0093-.0126-.0004-.0004-.0008-.0015-.0012-.0023a.3166.3166 0 0 1-.0204-.0322c-.0023-.0037-.0041-.0075-.006-.0108-.0041-.0078-.0075-.0156-.0112-.0234-.0011-.0014-.0015-.0033-.0022-.0048a.2445.2445 0 0 1-.0104-.0274.063.063 0 0 1-.0045-.0127.2183.2183 0 0 1-.0086-.0315.4736.4736 0 0 0-.0477.0379.494.494 0 0 0-.0611.063c-.0048.0056-.01.0115-.0145.0182a.2117.2117 0 0 0-.0175.0245.1766.1766 0 0 0-.0116.0174.2481.2481 0 0 0-.0123.0212c-.006.01-.0115.0211-.0167.0315-.0004.0004-.0004.0015-.0011.0018l-.0008.0026a.013.013 0 0 0-.0022.0052c-.0037.007-.0067.0141-.0097.0212-.0041.0096-.0075.0196-.0112.0297-.0018.0048-.0037.0096-.0048.0148-.0015.0052-.0034.0104-.0045.0152a1.067 1.067 0 0 0-.0082.033.2403.2403 0 0 0-.006.0334v.0004a.1895.1895 0 0 0-.0033.0248.0455.0455 0 0 0-.0007.0075.124.124 0 0 0-.0015.02c-.0008.0107-.0015.0211-.0015.0319v1.2717c.0063 0 .013.0003.019.001.0048.0005.0097.0005.0141.0012a.2002.2002 0 0 1 .0209.0026.2886.2886 0 0 1 .0216.0037.19.19 0 0 1 .0242.0056c.0004 0 .0008.0003.0011.0003a.2096.2096 0 0 1 .0231.0067c.0012 0 .0015 0 .0023.0004a.283.283 0 0 1 .0309.0115l.0033.0011a.1069.1069 0 0 1 .0176.0082c.0018.0003.003.001.0048.0022a.0381.0381 0 0 1 .0082.0033.2009.2009 0 0 1 .0197.0115.0608.0608 0 0 1 .0134.0078c.0004.0004.0012.0004.002.0008a.0956.0956 0 0 1 .013.0081c.0003.0008.0003.0008.0007.0011.0004.0004.0015.0011.0022.0019.0023.0011.0045.0026.0064.0037.0018.0015.0037.0026.0056.004a.007.007 0 0 1 .0026.0023.42.42 0 0 1 .051.0449V60.418c0-.082.0402-.1554.1017-.2007a.0755.0755 0 0 0-.0067-.0048zm0 0l-.0123-.0093c-.0004-.0004-.0007-.0004-.0007-.0007-.0004 0-.0004-.0004-.0008-.0011a.0565.0565 0 0 1-.01-.0082.2648.2648 0 0 1-.0239-.0215c-.0022-.0023-.0052-.0048-.007-.007-.0075-.0079-.015-.0157-.0217-.0234a.0683.0683 0 0 0-.0063-.0082c-.0026-.004-.0063-.0082-.0093-.0126-.0034-.0041-.0064-.0086-.0093-.0126-.0004-.0004-.0008-.0015-.0012-.0023a.3166.3166 0 0 1-.0204-.0322c-.0023-.0037-.0041-.0075-.006-.0108-.0041-.0078-.0075-.0156-.0112-.0234-.0011-.0014-.0015-.0033-.0022-.0048a.2445.2445 0 0 1-.0104-.0274.063.063 0 0 1-.0045-.0127.2183.2183 0 0 1-.0086-.0315.4736.4736 0 0 0-.0477.0379.494.494 0 0 0-.0611.063c-.0048.0056-.01.0115-.0145.0182a.2117.2117 0 0 0-.0175.0245.1766.1766 0 0 0-.0116.0174.2481.2481 0 0 0-.0123.0212c-.006.01-.0115.0211-.0167.0315-.0004.0004-.0004.0015-.0011.0018l-.0008.0026a.013.013 0 0 0-.0022.0052c-.0037.007-.0067.0141-.0097.0212-.0041.0096-.0075.0196-.0112.0297-.0018.0048-.0037.0096-.0048.0148-.0015.0052-.0034.0104-.0045.0152a1.067 1.067 0 0 0-.0082.033.2403.2403 0 0 0-.006.0334v.0004a.1895.1895 0 0 0-.0033.0248.0455.0455 0 0 0-.0007.0075.124.124 0 0 0-.0015.02c-.0008.0107-.0015.0211-.0015.0319v1.2717c.0063 0 .013.0003.019.001.0048.0005.0097.0005.0141.0012a.2002.2002 0 0 1 .0209.0026.2886.2886 0 0 1 .0216.0037.19.19 0 0 1 .0242.0056c.0004 0 .0008.0003.0011.0003a.2096.2096 0 0 1 .0231.0067c.0012 0 .0015 0 .0023.0004a.283.283 0 0 1 .0309.0115l.0033.0011a.1069.1069 0 0 1 .0176.0082c.0018.0003.003.001.0048.0022a.0381.0381 0 0 1 .0082.0033.2009.2009 0 0 1 .0197.0115.0608.0608 0 0 1 .0134.0078c.0004.0004.0012.0004.002.0008a.0956.0956 0 0 1 .013.0081c.0003.0008.0003.0008.0007.0011.0004.0004.0015.0011.0022.0019.0023.0011.0045.0026.0064.0037.0018.0015.0037.0026.0056.004a.007.007 0 0 1 .0026.0023.42.42 0 0 1 .051.0449V60.418c0-.082.0402-.1554.1017-.2007a.0755.0755 0 0 0-.0067-.0048zm0 0l-.0123-.0093c-.0004-.0004-.0007-.0004-.0007-.0007-.0004 0-.0004-.0004-.0008-.0011a.0565.0565 0 0 1-.01-.0082.2648.2648 0 0 1-.0239-.0215c-.0022-.0023-.0052-.0048-.007-.007-.0075-.0079-.015-.0157-.0217-.0234a.0683.0683 0 0 0-.0063-.0082c-.0026-.004-.0063-.0082-.0093-.0126-.0034-.0041-.0064-.0086-.0093-.0126-.0004-.0004-.0008-.0015-.0012-.0023a.3166.3166 0 0 1-.0204-.0322c-.0023-.0037-.0041-.0075-.006-.0108-.0041-.0078-.0075-.0156-.0112-.0234-.0011-.0014-.0015-.0033-.0022-.0048a.2445.2445 0 0 1-.0104-.0274.063.063 0 0 1-.0045-.0127.2183.2183 0 0 1-.0086-.0315.4736.4736 0 0 0-.0477.0379.494.494 0 0 0-.0611.063c-.0048.0056-.01.0115-.0145.0182a.2117.2117 0 0 0-.0175.0245.1766.1766 0 0 0-.0116.0174.2481.2481 0 0 0-.0123.0212c-.006.01-.0115.0211-.0167.0315-.0004.0004-.0004.0015-.0011.0018l-.0008.0026a.013.013 0 0 0-.0022.0052c-.0037.007-.0067.0141-.0097.0212-.0041.0096-.0075.0196-.0112.0297-.0018.0048-.0037.0096-.0048.0148-.0015.0052-.0034.0104-.0045.0152a1.067 1.067 0 0 0-.0082.033.2403.2403 0 0 0-.006.0334v.0004a.1895.1895 0 0 0-.0033.0248.0455.0455 0 0 0-.0007.0075.124.124 0 0 0-.0015.02c-.0008.0107-.0015.0211-.0015.0319v1.2717c.0063 0 .013.0003.019.001.0048.0005.0097.0005.0141.0012a.2002.2002 0 0 1 .0209.0026.2886.2886 0 0 1 .0216.0037.19.19 0 0 1 .0242.0056c.0004 0 .0008.0003.0011.0003a.2096.2096 0 0 1 .0231.0067c.0012 0 .0015 0 .0023.0004a.283.283 0 0 1 .0309.0115l.0033.0011a.1069.1069 0 0 1 .0176.0082c.0018.0003.003.001.0048.0022a.0381.0381 0 0 1 .0082.0033.2009.2009 0 0 1 .0197.0115.0608.0608 0 0 1 .0134.0078c.0004.0004.0012.0004.002.0008a.0956.0956 0 0 1 .013.0081c.0003.0008.0003.0008.0007.0011.0004.0004.0015.0011.0022.0019.0023.0011.0045.0026.0064.0037.0018.0015.0037.0026.0056.004a.007.007 0 0 1 .0026.0023.42.42 0 0 1 .051.0449V60.418c0-.082.0402-.1554.1017-.2007a.0755.0755 0 0 0-.0067-.0048zm0 0l-.0123-.0093c-.0004-.0004-.0007-.0004-.0007-.0007-.0004 0-.0004-.0004-.0008-.0011a.0565.0565 0 0 1-.01-.0082.2648.2648 0 0 1-.0239-.0215c-.0022-.0023-.0052-.0048-.007-.007-.0075-.0079-.015-.0157-.0217-.0234a.0683.0683 0 0 0-.0063-.0082c-.0026-.004-.0063-.0082-.0093-.0126-.0034-.0041-.0064-.0086-.0093-.0126-.0004-.0004-.0008-.0015-.0012-.0023a.3166.3166 0 0 1-.0204-.0322c-.0023-.0037-.0041-.0075-.006-.0108-.0041-.0078-.0075-.0156-.0112-.0234-.0011-.0014-.0015-.0033-.0022-.0048a.2445.2445 0 0 1-.0104-.0274.063.063 0 0 1-.0045-.0127.2183.2183 0 0 1-.0086-.0315.4736.4736 0 0 0-.0477.0379.494.494 0 0 0-.0611.063c-.0048.0056-.01.0115-.0145.0182a.2117.2117 0 0 0-.0175.0245.1766.1766 0 0 0-.0116.0174.2481.2481 0 0 0-.0123.0212c-.006.01-.0115.0211-.0167.0315-.0004.0004-.0004.0015-.0011.0018l-.0008.0026a.013.013 0 0 0-.0022.0052c-.0037.007-.0067.0141-.0097.0212-.0041.0096-.0075.0196-.0112.0297-.0018.0048-.0037.0096-.0048.0148-.0015.0052-.0034.0104-.0045.0152a1.067 1.067 0 0 0-.0082.033.2403.2403 0 0 0-.006.0334v.0004a.1895.1895 0 0 0-.0033.0248.0455.0455 0 0 0-.0007.0075.124.124 0 0 0-.0015.02c-.0008.0107-.0015.0211-.0015.0319v1.2717c.0063 0 .013.0003.019.001.0048.0005.0097.0005.0141.0012a.2002.2002 0 0 1 .0209.0026.2886.2886 0 0 1 .0216.0037.19.19 0 0 1 .0242.0056c.0004 0 .0008.0003.0011.0003a.2096.2096 0 0 1 .0231.0067c.0012 0 .0015 0 .0023.0004a.283.283 0 0 1 .0309.0115l.0033.0011a.1069.1069 0 0 1 .0176.0082c.0018.0003.003.001.0048.0022a.0381.0381 0 0 1 .0082.0033.2009.2009 0 0 1 .0197.0115.0608.0608 0 0 1 .0134.0078c.0004.0004.0012.0004.002.0008a.0956.0956 0 0 1 .013.0081c.0003.0008.0003.0008.0007.0011.0004.0004.0015.0011.0022.0019.0023.0011.0045.0026.0064.0037.0018.0015.0037.0026.0056.004a.007.007 0 0 1 .0026.0023.42.42 0 0 1 .051.0449V60.418c0-.082.0402-.1554.1017-.2007a.0755.0755 0 0 0-.0067-.0048zm0 0a.2789.2789 0 0 1-.013-.01c-.0004 0-.0004-.0004-.0008-.0011a.0565.0565 0 0 1-.01-.0082.2648.2648 0 0 1-.0239-.0215c-.0022-.0023-.0052-.0048-.007-.007-.0075-.0079-.015-.0157-.0217-.0234a.0683.0683 0 0 0-.0063-.0082c-.0026-.004-.0063-.0082-.0093-.0126-.0034-.0041-.0064-.0086-.0093-.0126-.0004-.0004-.0008-.0015-.0012-.0023a.3166.3166 0 0 1-.0204-.0322.4174.4174 0 0 1-.0172-.0342c-.0011-.0014-.0015-.0033-.0022-.0048a.2445.2445 0 0 1-.0104-.0274.063.063 0 0 1-.0045-.0127.2183.2183 0 0 1-.0086-.0315.4736.4736 0 0 0-.0477.0379.494.494 0 0 0-.0611.063c-.0048.0056-.01.0115-.0145.0182a.2117.2117 0 0 0-.0175.0245.1766.1766 0 0 0-.0116.0174.2481.2481 0 0 0-.0123.0212c-.006.01-.0115.0211-.0167.0315-.0004.0004-.0004.0015-.0011.0018l-.0008.0026a.013.013 0 0 0-.0022.0052c-.0037.007-.0067.0141-.0097.0212-.0041.0096-.0075.0196-.0112.0297-.0018.0048-.0037.0096-.0048.0148-.0015.0052-.0034.0104-.0045.0152a1.067 1.067 0 0 0-.0082.033.2403.2403 0 0 0-.006.0334v.0004a.1895.1895 0 0 0-.0033.0248.0455.0455 0 0 0-.0007.0075.124.124 0 0 0-.0015.02c-.0008.0107-.0015.0211-.0015.0319v1.2717c.0063 0 .013.0003.019.001.0048.0005.0097.0005.0141.0012a.2002.2002 0 0 1 .0209.0026.2886.2886 0 0 1 .0216.0037.19.19 0 0 1 .0242.0056c.0004 0 .0008.0003.0011.0003a.2096.2096 0 0 1 .0231.0067c.0012 0 .0015 0 .0023.0004a.283.283 0 0 1 .0309.0115l.0033.0011a.1069.1069 0 0 1 .0176.0082c.0018.0003.003.001.0048.0022a.0381.0381 0 0 1 .0082.0033.2009.2009 0 0 1 .0197.0115.0608.0608 0 0 1 .0134.0078c.0004.0004.0012.0004.002.0008a.0956.0956 0 0 1 .013.0081c.0003.0008.0003.0008.0007.0011.0004.0004.0015.0011.0022.0019.0023.0011.0045.0026.0064.0037.0018.0015.0037.0026.0056.004a.007.007 0 0 1 .0026.0023.42.42 0 0 1 .051.0449V60.418c0-.082.0402-.1554.1017-.2007a.0755.0755 0 0 0-.0067-.0048z"/></g><path d="M121.5997 63.6577c-.1605-.4994-.5886-.8337-1.1175-.8728l-5.0808-.3753-1.891-4.6241c-.1986-.4845-.6503-.7855-1.1792-.7855-.5297 0-.9814.301-1.1792.7855l-1.8914 4.624-5.0812.3754c-.5285.039-.957.3734-1.1171.8728-.1605.4994-.0054 1.0164.4036 1.3492l3.897 3.1707-1.2447 4.909c-.0962.3788-.014.7698.2253 1.0731.243.3076.6208.4914 1.01.4914.2385 0 .4743-.0693.683-.2007l4.2947-2.708 4.2948 2.708c.2078.1314.444.2007.6828.2007.389 0 .7662-.1838 1.0093-.4917.2397-.303.3219-.694.2257-1.0728l-1.245-4.909 3.8972-3.1707c.4095-.3328.5638-.8498.4037-1.3492" fill="#FF7B5C"/><g transform="translate(0 57)"><mask id="b" fill="#fff"><use xlink:href="#a"/></mask><path d="M11.2916 11.0694c-1.9078 1.8696-5.0005 1.8696-6.9083 0-1.9077-1.8696-1.9077-4.9008 0-6.7704 1.9078-1.8696 5.0005-1.8696 6.9083 0 1.9081 1.8696 1.9081 4.9008 0 6.7704m7.1812 4.8602l-4.0737-3.9926c-.0059-.0053-.012-.0103-.0179-.0152.8442-1.2464 1.297-2.7075 1.297-4.2374 0-2.0528-.8154-3.9824-2.2962-5.434C11.9007.7992 9.9317 0 7.8375 0 5.7428 0 3.7738.7992 2.293 2.2504a7.5847 7.5847 0 0 0 0 10.8676c1.4808 1.4512 3.4498 2.2504 5.5445 2.2504 1.494 0 2.9244-.407 4.159-1.167a.2892.2892 0 0 0 .021.0224l4.0978 4.0162c.2559.2505.596.3888.9573.3888.3622 0 .7022-.1383.9578-.3888l.4424-.4335c.256-.2508.3967-.5841.3967-.9386 0-.3542-.1408-.6875-.3967-.9383" fill="#FF7B5C" mask="url(#b)"/></g><g transform="translate(167.5179 14.5841)"><mask id="d" fill="#fff"><use xlink:href="#c"/></mask><path d="M4.2288 2.7333c-1.2612 0-2.396-.2717-3.249-.7253v-.9523c.0919.0647.191.1262.2972.1847.7817.4337 1.83.672 2.9518.672 1.122 0 2.1704-.2383 2.9524-.672a3.3454 3.3454 0 0 0 .289-.1788v.951c-.8525.4507-1.9837.7207-3.2414.7207zM6.033.271c-.5676.1318-1.1804.2014-1.8043.2014-.6233 0-1.236-.0696-1.8037-.2014H.1787v1.8856c0 .047.0078.0918.0224.1339.0787.4368.461.871 1.0759 1.2114.7817.4334 1.8304.672 2.9518.672 1.122 0 2.1704-.2386 2.9524-.672.6939-.3846 1.0918-.8876 1.0918-1.3801V.271h-2.24z" fill="#FF7B5C" mask="url(#d)"/></g><g transform="translate(167.5179 12.4971)"><mask id="f" fill="#fff"><use xlink:href="#e"/></mask><path d="M4.2288 2.5592c-.6233 0-1.236-.0696-1.8037-.201-.4699-.109-.909-.2602-1.2991-.4505a4.4617 4.4617 0 0 1-.1462-.074V.883a3.686 3.686 0 0 0 .4899.2832c.7576.369 1.7371.5721 2.759.5721 1.0223 0 2.0022-.2031 2.7598-.5718a3.7916 3.7916 0 0 0 .4818-.2772v.9489a3.9954 3.9954 0 0 1-.1384.0699c-.3899.1899-.829.3412-1.2988.45-.5676.1315-1.1804.2011-1.8043.2011zM6.0324.0969c-.568.1319-1.18.2014-1.8036.2014-.623 0-1.235-.0695-1.8033-.2014H.1787V2.963a.1244.1244 0 0 1 .0064.0073c.2006.2428.47.4644.7947.6567V3.143c.0919.0643.191.1259.2972.1846.7817.4334 1.83.672 2.9518.672 1.122 0 2.1704-.2386 2.9524-.672a3.347 3.347 0 0 0 .289-.179v.4834c.3275-.1927.599-.4157.8008-.6595.0007-.0007.0014-.0014.002-.0024v-.6118h-.002v-.3538a.7986.7986 0 0 0 .002-.0567V.097H6.0324z" fill="#FF7B5C" mask="url(#f)"/></g><g transform="translate(167.5179 10.0624)"><mask id="h" fill="#fff"><use xlink:href="#g"/></mask><path d="M4.2288 2.733c-.623 0-1.235-.0696-1.8033-.2015-.4693-.1085-.909-.2594-1.2995-.4497a4.4617 4.4617 0 0 1-.1462-.074v-.951a3.649 3.649 0 0 0 .4899.2834c.7583.3687 1.7381.5719 2.759.5719 1.0216 0 2.0015-.2032 2.7598-.5719a3.7922 3.7922 0 0 0 .4818-.2775v.9492a4.7265 4.7265 0 0 1-.1384.07c-.3906.1902-.83.3411-1.2995.4496-.568.1319-1.18.2014-1.8036.2014zM6.0338.2702c-.568.1322-1.1811.2014-1.805.2014-.6237 0-1.2364-.0692-1.8047-.2014H.1787v2.8658c.002.0024.004.0052.0064.0076.2006.2428.47.4647.7947.6574v-.4835c.1452.1006.309.1955.4899.2835.7576.3687 1.7371.5722 2.759.5722 1.0223 0 2.0022-.2035 2.7598-.5718a3.7922 3.7922 0 0 0 .4818-.2776v.4817c.3274-.1927.5988-.4153.8007-.6594.0007-.0007.0014-.0018.002-.0025v-.6122h-.002v-.3499c.001-.0201.002-.0403.002-.0601V.2703H6.0338z" fill="#FF7B5C" mask="url(#h)"/></g><g transform="translate(167.5179 7.9754)"><mask id="j" fill="#fff"><use xlink:href="#i"/></mask><path d="M4.2288 2.5587c-.6237 0-1.2364-.0692-1.8047-.2014-.4696-.1089-.9083-.2602-1.2985-.4504a4.448 4.448 0 0 1-.1458-.0738v-.951c.1448.1006.3084.1959.4889.2835.7576.369 1.7381.5722 2.76.5722 1.0227 0 2.0032-.2031 2.7608-.5722a3.7408 3.7408 0 0 0 .4808-.2772v.9489a3.939 3.939 0 0 1-.1374.0696c-.3899.1902-.8296.3415-1.2991.4504-.568.1322-1.1811.2014-1.805.2014zM6.0446.096c-.5581.13-1.1705.2017-1.8158.2017-.645 0-1.2574-.0716-1.8156-.2017H.1787v2.8657c.002.0024.004.0052.0064.0077.2006.243.47.4647.7947.657v-.4828a3.649 3.649 0 0 0 .4899.2835c.7583.3687 1.7381.5718 2.759.5718 1.0216 0 2.0015-.2031 2.7598-.5718a3.7922 3.7922 0 0 0 .4818-.2776v.4814c.3274-.1923.5988-.4146.8007-.6591l.002-.0024v-.6122h-.002V2.007c.001-.0201.002-.0403.002-.0601V.096H6.0446z" fill="#FF7B5C" mask="url(#j)"/></g><g transform="translate(167.5179 5.5406)"><mask id="l" fill="#fff"><use xlink:href="#k"/></mask><path d="M4.2288 2.7324c-.645 0-1.2574-.0713-1.8156-.2017-.533-.1242-1.0168-.3023-1.4334-.5235v-.9517c.0912.0634.1906.1256.2968.184.782.4338 1.8305.672 2.9522.672 1.122 0 2.1704-.2382 2.9524-.672a3.5262 3.5262 0 0 0 .289-.1787v.951c-.4149.219-.896.3954-1.4256.5189-.5581.1304-1.1705.2017-1.8158.2017zM.1787.2698v2.8657c.002.0025.004.0053.0064.0077.2006.2431.47.4647.7947.6567v-.4831c.1448.1005.3084.1958.4889.2838.7576.369 1.7381.5722 2.76.5722 1.0227 0 2.0032-.2032 2.7608-.5722a3.7828 3.7828 0 0 0 .4808-.2776v.4818c.327-.1924.5988-.4146.8007-.6592l.002-.0024v-.6125h-.002v-.35c.001-.0201.002-.0403.002-.0601V.2698H.1787z" fill="#FF7B5C" mask="url(#l)"/></g><g transform="translate(167.5179 3.1058)"><mask id="n" fill="#fff"><use xlink:href="#m"/></mask><path d="M8.271 2.7046h.002v.6118c-.0006.001-.001.0017-.002.0028-.2015.2441-.4736.4664-.8007.6598v-.4835c-.09.062-.1863.1221-.289.1791-.7821.4334-1.8305.6717-2.9525.6717-1.1217 0-2.1701-.2383-2.9522-.6717a3.4747 3.4747 0 0 1-.2968-.1843v.4838C.655 3.7814.3857 3.56.185 3.3171c-.0023-.0028-.0044-.0049-.0064-.0077v-.9481c0-.025.002-.049.0064-.0724v-.0014C.189 1.7971.5861 1.297 1.2766.914 2.0586.481 3.1071.242 4.2288.242c1.122 0 2.1704.239 2.9524.672.6939.3847 1.0918.8877 1.0918 1.3802 0 .0198-.001.039-.002.0588v.3517z" fill="#FF7B5C" mask="url(#n)"/></g><g transform="translate(157 14.5841)"><mask id="p" fill="#fff"><use xlink:href="#o"/></mask><path d="M5.86.2711c-.5579.1301-1.169.201-1.8143.201-.6443 0-1.2557-.0709-1.8131-.201H.8008v.7882c.0903.0626.1887.1235.2928.1812.782.4334 1.8308.672 2.9521.672 1.122 0 2.1708-.2386 2.9525-.672a3.4565 3.4565 0 0 0 .2932-.1812V.2711H5.8599zm0 0c-.5579.1301-1.169.201-1.8143.201-.6443 0-1.2557-.0709-1.8131-.201H.8008v.7882c.0903.0626.1887.1235.2928.1812.782.4334 1.8308.672 2.9521.672 1.122 0 2.1708-.2386 2.9525-.672a3.4565 3.4565 0 0 0 .2932-.1812V.2711H5.8599zm0 0c-.5579.1301-1.169.201-1.8143.201-.6443 0-1.2557-.0709-1.8131-.201H.8008v.7882c.0903.0626.1887.1235.2928.1812.782.4334 1.8308.672 2.9521.672 1.122 0 2.1708-.2386 2.9525-.672a3.4565 3.4565 0 0 0 .2932-.1812V.2711H5.8599zm0 0c-.5579.1301-1.169.201-1.8143.201-.6443 0-1.2557-.0709-1.8131-.201H.8008v.7882c.0903.0626.1887.1235.2928.1812.782.4334 1.8308.672 2.9521.672 1.122 0 2.1708-.2386 2.9525-.672a3.4565 3.4565 0 0 0 .2932-.1812V.2711H5.8599zm0 0c-.5579.1301-1.169.201-1.8143.201-.6443 0-1.2557-.0709-1.8131-.201H.8008v.7882c.0903.0626.1887.1235.2928.1812.782.4334 1.8308.672 2.9521.672 1.122 0 2.1708-.2386 2.9525-.672a3.4565 3.4565 0 0 0 .2932-.1812V.2711H5.8599zm0 0c-.5579.1301-1.169.201-1.8143.201-.6443 0-1.2557-.0709-1.8131-.201H.8008v.7882c.0903.0626.1887.1235.2928.1812.782.4334 1.8308.672 2.9521.672 1.122 0 2.1708-.2386 2.9525-.672a3.4565 3.4565 0 0 0 .2932-.1812V.2711H5.8599zM4.0456 2.7334c-1.2594 0-2.392-.271-3.2449-.7231v-.951c.0903.0626.1887.1235.2928.1812.782.4334 1.8308.672 2.9521.672 1.122 0 2.1708-.2386 2.9525-.672a3.4565 3.4565 0 0 0 .2932-.1812v.951c-.853.4521-1.9859.723-3.2457.723zM5.86.271c-.5578.1301-1.1688.201-1.8142.201-.6443 0-1.2557-.0709-1.8131-.201H.0001v1.7941c0 .014.0007.0282.0017.0418v.0146c0 .4925.398.9958 1.0918 1.3805.782.4334 1.8308.672 2.9521.672 1.122 0 2.1708-.2386 2.9525-.672C7.692 3.1174 8.09 2.614 8.09 2.1216V2.107a.5634.5634 0 0 0 .002-.0418V.2712H5.86zm0 0c-.5578.1301-1.1688.201-1.8142.201-.6443 0-1.2557-.0709-1.8131-.201H.8008v.7882c.0903.0626.1887.1235.2928.1812.782.4334 1.8308.672 2.9521.672 1.122 0 2.1708-.2386 2.9525-.672a3.4565 3.4565 0 0 0 .2932-.1812V.2711H5.8599zm0 0c-.5578.1301-1.1688.201-1.8142.201-.6443 0-1.2557-.0709-1.8131-.201H.8008v.7882c.0903.0626.1887.1235.2928.1812.782.4334 1.8308.672 2.9521.672 1.122 0 2.1708-.2386 2.9525-.672a3.4565 3.4565 0 0 0 .2932-.1812V.2711H5.8599zm0 0c-.5578.1301-1.1688.201-1.8142.201-.6443 0-1.2557-.0709-1.8131-.201H.8008v.7882c.0903.0626.1887.1235.2928.1812.782.4334 1.8308.672 2.9521.672 1.122 0 2.1708-.2386 2.9525-.672a3.4565 3.4565 0 0 0 .2932-.1812V.2711H5.8599zm0 0c-.5578.1301-1.1688.201-1.8142.201-.6443 0-1.2557-.0709-1.8131-.201H.8008v.7882c.0903.0626.1887.1235.2928.1812.782.4334 1.8308.672 2.9521.672 1.122 0 2.1708-.2386 2.9525-.672a3.4565 3.4565 0 0 0 .2932-.1812V.2711H5.8599zm0 0c-.5578.1301-1.1688.201-1.8142.201-.6443 0-1.2557-.0709-1.8131-.201H.8008v.7882c.0903.0626.1887.1235.2928.1812.782.4334 1.8308.672 2.9521.672 1.122 0 2.1708-.2386 2.9525-.672a3.4565 3.4565 0 0 0 .2932-.1812V.2711H5.8599zm0 0c-.5578.1301-1.1688.201-1.8142.201-.6443 0-1.2557-.0709-1.8131-.201H.8008v.7882c.0903.0626.1887.1235.2928.1812.782.4334 1.8308.672 2.9521.672 1.122 0 2.1708-.2386 2.9525-.672a3.4565 3.4565 0 0 0 .2932-.1812V.2711H5.8599zm0 0c-.5578.1301-1.1688.201-1.8142.201-.6443 0-1.2557-.0709-1.8131-.201H.8008v.7882c.0903.0626.1887.1235.2928.1812.782.4334 1.8308.672 2.9521.672 1.122 0 2.1708-.2386 2.9525-.672a3.4565 3.4565 0 0 0 .2932-.1812V.2711H5.8599z" fill="#FF7B5C" mask="url(#p)"/></g><path d="M157.8008 14.3331v.5221h1.4318c-.5324-.1238-1.0155-.3012-1.4318-.522zm0 0v.5221h1.4318c-.5324-.1238-1.0155-.3012-1.4318-.522zm0 0v.5221h1.4318c-.5324-.1238-1.0155-.3012-1.4318-.522zm0 0v.5221h1.4318c-.5324-.1238-1.0155-.3012-1.4318-.522zm0 0v.5221h1.4318c-.5324-.1238-1.0155-.3012-1.4318-.522zm0 0v.5221h1.4318c-.5324-.1238-1.0155-.3012-1.4318-.522zm0 0v.5221h1.4318c-.5324-.1238-1.0155-.3012-1.4318-.522zm3.245.7232c-.6444 0-1.2558-.071-1.8132-.201-.5324-.1239-1.0155-.3013-1.4318-.5222v-.951c.0906.0627.1886.1236.2928.1817.782.433 1.8308.6716 2.9521.6716 1.122 0 2.1708-.2386 2.9528-.6716.1042-.0581.2022-.119.2928-.1816v.951c-.4166.2208-.8994.3982-1.4314.522-.5575.1301-1.1689.201-1.8142.201zM157 12.594v2.8706c.0003.0007.0013.0018.002.0025.2009.2438.472.4667.7987.6594v-.483c.0906.0625.1886.1234.2928.1811.782.4334 1.8308.672 2.9521.672 1.122 0 2.1708-.2386 2.9528-.672a3.5038 3.5038 0 0 0 .2928-.1812v.4831c.3267-.1927.5978-.4156.7987-.6594.0007-.0007.0017-.0018.002-.0025V12.594H157zm.8007 1.7391v.5221h1.4318c-.5324-.1238-1.0155-.3012-1.4318-.522zm0 0v.5221h1.4318c-.5324-.1238-1.0155-.3012-1.4318-.522zm0 0v.5221h1.4318c-.5324-.1238-1.0155-.3012-1.4318-.522zm0 0v.5221h1.4318c-.5324-.1238-1.0155-.3012-1.4318-.522zm0 0v.5221h1.4318c-.5324-.1238-1.0155-.3012-1.4318-.522zm0 0v.5221h1.4318c-.5324-.1238-1.0155-.3012-1.4318-.522zm0 0v.5221h1.4318c-.5324-.1238-1.0155-.3012-1.4318-.522z" fill="#FF7B5C"/><g transform="translate(157 10.0624)"><mask id="r" fill="#fff"><use xlink:href="#q"/></mask><path d="M8.0921 2.1984v.9423c-.0003.001-.0014.0017-.002.0024-.2012.2442-.472.4672-.7987.6602v-.4835a3.5491 3.5491 0 0 1-.2932.1816c-.7817.433-1.8304.6716-2.9524.6716-1.1214 0-2.17-.2386-2.9521-.6716a3.4858 3.4858 0 0 1-.2928-.1816v.4835c-.3268-.193-.5979-.416-.799-.6602C.0011 3.1424 0 3.1417-.0003 3.1407v-.9423c0-.016.001-.032.003-.0476-.001-.0098-.001-.0195-.001-.0296 0-.4929.398-.9958 1.0919-1.3802.782-.4333 1.8307-.672 2.952-.672 1.1221 0 2.1708.2387 2.9525.672.6939.3844 1.0919.8873 1.0919 1.3802 0 .0101 0 .0198-.001.0296a.3704.3704 0 0 1 .003.0476" fill="#FF7B5C" mask="url(#r)"/></g><path d="M168.4975 5.467v11.2737c0 .2265-.1794.4105-.4007.4105-.175 0-.324-.1159-.378-.2766a.4086.4086 0 0 1-.022-.1339V5.467c0-.0247.002-.049.0061-.0724v-.001c.0343-.192.1975-.337.394-.337.2212 0 .4006.184.4006.4104M175.7889 5.4587v11.282c0 .2265-.1788.4105-.4007.4105-.221 0-.4-.184-.4-.4104V5.467c0-.2264.179-.4104.4-.4104.2188 0 .396.1791.4007.402M157.8008 12.2608v4.3885c0 .2265-.1792.4101-.4004.4101-.2073 0-.378-.1614-.3983-.3683a.5634.5634 0 0 1-.002-.0418v-4.3885c0-.016.001-.032.0027-.0477.023-.2045.1924-.3627.3976-.3627.2212 0 .4004.184.4004.4104M165.0921 12.2608v4.3885c0 .014-.001.0282-.002.0418-.0204.207-.191.3683-.3987.3683-.2209 0-.4-.1836-.4-.41v-4.3886c0-.2264.1791-.4104.4-.4104.2063 0 .375.1582.3976.3627a.3704.3704 0 0 1 .0031.0477" fill="#FF7B5C"/><g><path d="M107.5325 13.6994a.2016.2016 0 0 0-.1051-.0291.2132.2132 0 0 0-.1865.1124l-.0636.1167a.0028.0028 0 0 0-.0007.0014l-.6572 1.204c-.0674.1237-.0258.2815.093.3513l.8768.519.9495-1.7394-.9062-.5363zM117.001 9.3752l3.9464 2.3447.4225-.7746c.1027-.1876.0398-.4283-.1397-.5367l-.0094-.0058-6.518-4.203-1.0266.5634a.4477.4477 0 0 0-.2155.2818l-.5954 2.3353c-.0957.376-.3412.6941-.6732.8727a1.2817 1.2817 0 0 1-1.0735.0665l-.4802-.1872c-.6463-.2524-.9963-.9655-.8136-1.659l.8164-3.0981c.081-.3077.271-.5666.535-.7284l1.1866-.7284-.5573-.18a.3539.3539 0 0 1-.0458-.0181.816.816 0 0 0-.7686.0327l-3.0457 1.7934c-.3454.2033-.7487.264-1.1357.1713-.0073-.0018-.0146-.0033-.0213-.0054l-1.6734-.5131a.7515.7515 0 0 0-.6202.0796c-.1889.1164-.3191.303-.367.5262l-1.1087 5.1774c-.0845.3957.117.7902.4795.9382l3.2148 1.311c.1794-.2095.4386-.3335.714-.3335a.9262.9262 0 0 1 .4715.1298l.933.552c.1778-.1895.4244-.3015.6849-.3015.1648 0 .3279.0451.4718.1302l.9226.5462c.1784-.2542.4651-.4084.7717-.4084a.9272.9272 0 0 1 .4714.1299l1.2292.7272c.0039.0026.0077.0055.012.008l1.7281 1.0226s.0004.0003.0007.0003c.0004.0004.0007.0004.001.0008l2.5207 1.5109a.3635.3635 0 0 0 .2888.0392c.098-.028.1794-.0941.23-.1861l.4317-.7913-3.9401-2.3411c-.178-.1058-.2396-.3418-.138-.5265.1013-.1855.3276-.2502.5057-.1444l3.9387 2.3407.6209-1.1374-3.94-2.3415c-.1778-.1058-.2396-.3414-.138-.5269.1012-.185.3275-.2498.5056-.144l3.9398 2.341.6223-1.1406-3.9401-2.3411c-.1778-.1058-.2396-.3418-.138-.527.1013-.185.3276-.2498.5057-.144" fill="#FF7B5C"/><path d="M109.622 14.08a.2041.2041 0 0 0-.1052-.029.213.213 0 0 0-.1861.1127l-.0562.1036c-.0025.0048-.0046.0099-.0074.0146l-1.1356 2.0807 1.092.6462 1.3057-2.392-.9073-.5367zM124.8724 11.1475l-1.0647-5.1647c-.0897-.4356-.5022-.717-.9212-.6295l-2.5663.6448c-.006.0014-.0115.0029-.0175.004-.3782.0752-.769.0047-1.1007-.1982l-3.74-2.3207a.8159.8159 0 0 0-.8314-.0113l-1.1734.6716-1.9045 1.1684a.4456.4456 0 0 0-.1963.2676l-.8164 3.0982c-.0804.3058.0736.62.3586.7313l.4798.1869a.5574.5574 0 0 0 .4735-.0295c.1484-.0792.2536-.216.2965-.3843l.5954-2.3353c.0838-.3284.2975-.608.5863-.767l1.2146-.6665c.0028-.0014.0055-.0025.0083-.004.0067-.0032.013-.0065.02-.0098.0052-.0022.0104-.004.016-.0062a.2304.2304 0 0 1 .0168-.0061.193.193 0 0 1 .0192-.0059c.0049-.001.0101-.0025.0146-.0036.007-.0014.014-.0029.021-.004l.0147-.0022a.3807.3807 0 0 1 .0202-.0018c.0056-.0004.0112-.0007.016-.0007.0067 0 .0126 0 .019.0003a.158.158 0 0 1 .0184.0011c.0053.0004.0109.0011.0165.0019.0066.0007.0132.0021.0199.0032l.0146.0033c.007.0018.0133.0036.0203.005.0052.002.0098.0034.0146.0052a.4014.4014 0 0 1 .051.0222.221.221 0 0 1 .0182.0105c.0031.0018.0063.0033.0087.0051l6.6943 4.3167c.5266.3211.7096 1.0302.4075 1.5833l-.6195 1.1356a.3517.3517 0 0 1-.044.0633l-.1833.3364 3.1142-.7473c.4152-.0996.6803-.5338.5905-.9673" fill="#FF7B5C"/><g transform="translate(111.381 14.9803)"><mask id="t" fill="#fff"><use xlink:href="#s"/></mask><path d="M.2373 3.447l.8776.5193a.2372.2372 0 0 0 .1215.0338.2475.2475 0 0 0 .2158-.1305L3.0533.9343 1.9613.2878.2374 3.447z" fill="#FF7B5C" mask="url(#t)"/></g><path d="M111.7878 14.3478a.2016.2016 0 0 0-.1051-.029.2127.2127 0 0 0-.1862.1123l-1.6185 2.9658 1.0926.6466 1.724-3.159-.9068-.5367z" fill="#FF7B5C"/></g><g><g transform="translate(0 115)"><mask id="v" fill="#fff"><use xlink:href="#u"/></mask><path d="M16.5318 6.4873c-.785.7963-2.1323.816-2.9596-.022l-1.5096-1.4688 1.5301-1.4872c.7862-.7963 2.1552-.7963 2.9403-.0024.393.4005.609.9271.609 1.4896s-.217 1.0926-.6102 1.4908zm-10.1257 0c-.785.7951-2.1529.7951-2.939 0C3.0738 6.089 2.858 5.5602 2.858 5c0-.5625.216-1.0891.6113-1.4896.3908-.3981.913-.6169 1.4673-.6169.5542 0 1.0764.2188 1.4912.6378l1.5096 1.4699-1.5313 1.486zM15.0634 0c-1.3175 0-2.5551.5197-3.4682 1.4421L9.999 2.9931 8.4276 1.4653C7.4963.5197 6.2553 0 4.9366 0 3.6179 0 2.378.522 1.4478 1.4653.5142 2.4097 0 3.6643 0 5.0012c0 1.3333.513 2.5902 1.4467 3.5335C2.3769 9.4792 3.6167 10 4.9366 10c1.3175 0 2.5585-.5197 3.4693-1.4444L10 7.0069l1.5724 1.5278C12.5049 9.4792 13.7459 10 15.0634 10c1.3187 0 2.5574-.5197 3.49-1.4653C19.4857 7.5926 20 6.3357 20 4.9988c0-1.3368-.513-2.5902-1.4455-3.5358C17.6197.5197 16.381 0 15.0635 0z" fill="#FF7B5C" mask="url(#v)"/></g></g><g><g transform="translate(52 11.9011)"><mask id="x" fill="#fff"><use xlink:href="#w"/></mask><path d="M18.5879.6291l-.4634-.3124-8.1498 6.0155a.973.973 0 0 1-.5822.1916.9721.9721 0 0 1-.582-.1916L.661.3167.197.6291c-.256.1723-.264.5455-.0157.729l8.9142 6.58a.5007.5007 0 0 0 .297.0977.4993.4993 0 0 0 .2968-.0977l8.9146-6.58c.248-.1835.2399-.5567-.0161-.729" fill="#FF7B5C" mask="url(#x)"/></g><g transform="translate(52 2.2583)"><mask id="z" fill="#fff"><use xlink:href="#y"/></mask><path d="M.1813 6.8898l8.9451 6.6027a.447.447 0 0 0 .2663.0875.4451.4451 0 0 0 .2657-.0875l8.9455-6.6027c.2483-.1833.2399-.5564-.0161-.729L9.6426.1394a.4478.4478 0 0 0-.5001 0L.1971 6.1608c-.256.1726-.2641.5457-.0158.729" fill="#FF7B5C" mask="url(#z)"/></g><path d="M70.5879 10.4746l-.4634-.3121-8.1498 6.0152a.9712.9712 0 0 1-.5822.1919.9703.9703 0 0 1-.582-.192l-8.1496-6.0151-.4638.312c-.256.1723-.264.5458-.0157.729l8.9451 6.6032a.4473.4473 0 0 0 .5317 0l8.9458-6.6031c.248-.1833.2399-.5568-.0161-.729" fill="#FF7B5C"/><text font-family="OpenSans-Extrabold, Open Sans" font-size="7.8" font-weight="600" letter-spacing=".2438" fill="#FFF" transform="translate(52 2)"><tspan x="7.093" y="10">$</tspan></text></g><g fill="#FF7B5C"><path d="M65.9962 64.196l-.7749.7748c.342.6778.535 1.4437.535 2.2533 0 2.766-2.2506 5.0166-5.0169 5.0166-2.7663 0-5.0166-2.2506-5.0166-5.0166 0-2.7666 2.2503-5.017 5.0166-5.017.8096 0 1.5746.1928 2.2527.535l.7751-.7754a6.034 6.034 0 0 0-3.0278-.8104c-3.3458 0-6.0675 2.722-6.0675 6.0678 0 3.3455 2.7217 6.0678 6.0675 6.0678s6.0678-2.7223 6.0678-6.0678a6.0294 6.0294 0 0 0-.811-3.0281zm-.6134-.8735a6.0718 6.0718 0 0 0-.7425-.7427l-.746.746v.0003c.2725.2209.5213.4697.7428.7422 0 .0003.0003.0003.0003.0009l.7463-.7464-.0009-.0003z"/><path d="M66.0027 63.946l-1.0337 1.0337a4.8178 4.8178 0 0 1 .4904 2.1227c0 2.6695-2.172 4.8414-4.8417 4.8414-2.6695 0-4.8414-2.172-4.8414-4.8414 0-2.6698 2.1719-4.8418 4.8414-4.8418a4.807 4.807 0 0 1 2.122.4905l.9058-.9061.128-.1277a6.2052 6.2052 0 0 0-3.1558-.858c-3.442 0-6.2427 2.8005-6.2427 6.243 0 3.442 2.8007 6.2427 6.2427 6.2427 3.4423 0 6.243-2.8007 6.243-6.2426 0-1.151-.313-2.2299-.858-3.1564zm-.6172-.8696a6.2612 6.2612 0 0 0-.7425-.7422l-.1244.1238-.746.746v.0004l-.1247.1244a4.8659 4.8659 0 0 1 .7434.743l.9948-.995s-.0003-.0004-.0006-.0004z"/><path d="M63.935 65.943l-1.2205 1.2205c-.0505 1.1323-.988 2.0378-2.1321 2.0378-1.1772 0-2.1343-.9578-2.1343-2.1343 0-1.1444.9046-2.0814 2.0369-2.1321l1.221-1.2208a3.5276 3.5276 0 0 0-1.1236-.1828c-1.9493 0-3.5355 1.5862-3.5355 3.5357 0 1.9493 1.5862 3.5355 3.5355 3.5355 1.9495 0 3.5357-1.5862 3.5357-3.5355 0-.3927-.0644-.7707-.1831-1.124zm-.51-.9767a3.5635 3.5635 0 0 0-.7428-.7421h-.0003l-1.0085 1.0084a2.153 2.153 0 0 1 .7425.7428c.0006 0 .0006.0003.0006.0006l1.0087-1.0088c0-.0003-.0003-.0003-.0003-.0009z"/><path d="M68.1548 61.9973l-1.0133 1.013c.7547 1.166 1.1929 2.5554 1.1929 4.0452 0 4.1167-3.3497 7.4664-7.4667 7.4664-4.1171 0-7.4664-3.3497-7.4664-7.4664 0-4.1174 3.3493-7.4668 7.4664-7.4668 1.4894 0 2.8782.4382 4.0443 1.1929l1.0132-1.013c-1.4737-1.028-3.2232-1.5811-5.0575-1.5811-2.3688 0-4.5957.9224-6.2706 2.5974C52.9224 62.4595 52 64.6867 52 67.0555c0 2.3684.9224 4.5953 2.597 6.2705 1.675 1.6747 3.9019 2.5971 6.2707 2.5971 2.3684 0 4.5956-.9224 6.2706-2.597 1.675-1.6753 2.5973-3.9022 2.5973-6.2706 0-1.8347-.553-3.5845-1.5808-5.0582zm-.6564-.8307a8.702 8.702 0 0 0-.3601-.3817 8.9302 8.9302 0 0 0-.3824-.361l-.9957.9957v.0003c.2648.2298.513.478.7427.7422l.0006.0006.9958-.9958c-.0003-.0003-.0003-.0003-.001-.0003zM70.4906 58.634l-1.7157 1.716-1.1967-.1408-.1407-1.1964 1.716-1.716.1493 1.2054 1.1878.1318"/><path d="M68.6337 60.0279l-.0009-.0003-.6855-.0805-.0757-.6433v-.0003l-.013-.1096 1.0886-1.0889.0137.1093.033.2654.0145.119a.3504.3504 0 0 0 .309.3052l.1206.013.3428.0384-1.0803 1.0803-.0668-.0077zm2.2408-1.4562a.3508.3508 0 0 0-.292-.2322l-.9127-.1012-.1155-.931a.3503.3503 0 0 0-.4586-.2892c-.0003 0-.0003 0-.0006.0003a.3525.3525 0 0 0-.136.0844l-1.716 1.7156a.3488.3488 0 0 0-.1.2886l.097.828h.0004l.043.3687a.3507.3507 0 0 0 .3073.307l.4109.048h.0009l.7843.0926a.3507.3507 0 0 0 .2889-.1003l1.7156-1.7156a.3504.3504 0 0 0 .0831-.3637zM60.723 68.2115a.7653.7653 0 0 1-.0453-.0015c-.533-.0235-.959-.4646-.959-1.0025 0-.214.0674-.4127.182-.5757a1.0032 1.0032 0 0 1 1.0557-.401c.3664.0872.6552.3758.7431.7421.0181.076.0276.1541.0276.2346 0 .5533-.45 1.004-1.004 1.004z"/><path d="M69.3768 59.3617c-.006.0066-.0125.013-.0187.0196l-1.2879 1.2876-.6006.6008-6.2599 6.2597a.5239.5239 0 0 1-.3717.1544.5243.5243 0 0 1-.3716-.1544.5252.5252 0 0 1 0-.7428l2.4711-2.4712h.0003l.9304-.9307.1247-.1244V63.26l.746-.746.1245-.1239V62.39l.8671-.8672v-.0003l1.5773-1.5773h.0003l.3156-.3156v-.0003l.3156-.3153v-.0003l.6757-.6754a.5234.5234 0 0 1 .4465-.1484.5247.5247 0 0 1 .2966.1484.5254.5254 0 0 1 .0187.7235"/></g></g></svg>