<?xml version="1.0" encoding="UTF-8" standalone="no"?>
<svg width="40px" height="43px" viewBox="0 0 40 43" version="1.1" xmlns="http://www.w3.org/2000/svg" xmlns:xlink="http://www.w3.org/1999/xlink">
    <!-- Generator: Sketch 40.3 (33839) - http://www.bohemiancoding.com/sketch -->
    <title>Trash</title>
    <desc>Created with Sketch.</desc>
    <defs></defs>
    <g id="Page-1" stroke="none" stroke-width="1" fill="none" fill-rule="evenodd">
        <g id="Trash" fill="#1A1918">
            <path d="M4.022,36.691 C4.022,40.005 6.708,42.691 10.022,42.691 L30.022,42.691 C33.336,42.691 36.022,40.005 36.022,36.691 L36.022,8.691 L4.022,8.691 L4.022,36.691 L4.022,36.691 Z M6.022,10.691 L34.022,10.691 L34.022,36.691 C34.022,38.896 32.228,40.691 30.022,40.691 L10.022,40.691 C7.816,40.691 6.022,38.896 6.022,36.691 L6.022,10.691 L6.022,10.691 Z" id="Fill-42"></path>
            <path d="M39.022,4.691 L27.022,4.691 L27.022,1.691 C27.022,1.138 26.574,0.691 26.022,0.691 L14.022,0.691 C13.469,0.691 13.022,1.138 13.022,1.691 L13.022,4.691 L1.022,4.691 C0.469,4.691 0.022,5.138 0.022,5.691 C0.022,6.243 0.469,6.691 1.022,6.691 L39.022,6.691 C39.574,6.691 40.022,6.243 40.022,5.691 C40.022,5.138 39.574,4.691 39.022,4.691 L39.022,4.691 Z M15.022,2.691 L25.022,2.691 L25.022,4.691 L15.022,4.691 L15.022,2.691 Z" id="Fill-43"></path>
            <path d="M20.021,36.983 C20.574,36.983 21.021,36.536 21.021,35.983 L21.021,15.399 C21.021,14.846 20.574,14.399 20.021,14.399 C19.469,14.399 19.021,14.846 19.021,15.399 L19.021,35.983 C19.021,36.536 19.469,36.983 20.021,36.983" id="Fill-44"></path>
            <path d="M27.751,36.983 C28.303,36.983 28.751,36.536 28.751,35.983 L28.751,15.399 C28.751,14.846 28.303,14.399 27.751,14.399 C27.199,14.399 26.751,14.846 26.751,15.399 L26.751,35.983 C26.751,36.536 27.199,36.983 27.751,36.983" id="Fill-45"></path>
            <path d="M12.292,36.983 C12.845,36.983 13.292,36.536 13.292,35.983 L13.292,15.399 C13.292,14.846 12.845,14.399 12.292,14.399 C11.74,14.399 11.292,14.846 11.292,15.399 L11.292,35.983 C11.292,36.536 11.74,36.983 12.292,36.983" id="Fill-46"></path>
        </g>
    </g>
</svg>