<?xml version="1.0" encoding="UTF-8" standalone="no"?>
<svg width="505px" height="118px" viewBox="0 0 505 118" version="1.1" xmlns="http://www.w3.org/2000/svg" xmlns:xlink="http://www.w3.org/1999/xlink">
    <!-- Generator: Sketch 42 (36781) - http://www.bohemiancoding.com/sketch -->
    <title>Product-Hunt-Logo</title>
    <desc>Created with Sketch.</desc>
    <defs></defs>
    <g id="Page-1" stroke="none" stroke-width="1" fill="none" fill-rule="evenodd">
        <g id="Product-Hunt-Logo" fill-rule="nonzero" fill="#7C7986">
            <g id="Group">
                <g id="Shape">
                    <path d="M67.346,41.3 L67.346,41.3 L50.629,41.3 L50.629,59 L67.346,59 L67.346,59 C72.233,59 76.196,55.038 76.196,50.15 C76.195,45.262 72.232,41.3 67.346,41.3 Z"></path>
                    <path d="M59.479,0 C26.894,0 0.479,26.415 0.479,59 C0.479,91.585 26.894,118 59.479,118 C92.064,118 118.479,91.585 118.479,59 C118.479,26.415 92.063,0 59.479,0 Z M67.346,70.8 L50.629,70.801 L50.629,88.5 L38.828,88.5 L38.828,29.5 L67.346,29.5 C78.75,29.5 87.995,38.746 87.995,50.15 C87.995,61.555 78.75,70.8 67.346,70.8 Z"></path>
                </g>
                <path d="M157.812,78.666 L157.812,39.333 L175.882,39.333 C184.282,39.333 188.858,45.01 188.858,51.788 C188.858,58.507 184.226,64.184 175.882,64.184 L166.038,64.184 L166.038,78.666 L157.812,78.666 L157.812,78.666 Z M180.462,51.788 C180.462,48.543 177.967,46.573 174.726,46.573 L166.038,46.573 L166.038,56.943 L174.726,56.943 C177.967,56.943 180.462,54.974 180.462,51.788 L180.462,51.788 Z" id="Shape"></path>
                <path d="M193.862,78.666 L193.862,49.99 L201.215,49.99 L201.215,53.757 C203.243,51.323 206.664,49.297 210.14,49.297 L210.14,56.478 C209.617,56.363 208.98,56.306 208.112,56.306 C205.678,56.306 202.433,57.695 201.216,59.493 L201.216,78.666 L193.862,78.666 Z" id="Shape"></path>
                <path d="M212.928,63.953 C212.928,56.016 218.489,49.297 227.7,49.297 C236.969,49.297 242.53,56.016 242.53,63.953 C242.53,71.889 236.968,78.666 227.7,78.666 C218.488,78.666 212.928,71.889 212.928,63.953 M234.884,63.953 C234.884,59.608 232.332,55.842 227.7,55.842 C223.12,55.842 220.573,59.609 220.573,63.953 C220.573,68.355 223.12,72.119 227.7,72.119 C232.332,72.119 234.884,68.355 234.884,63.953" id="Shape"></path>
                <path d="M267.283,74.379 C265.081,77.159 262.071,78.666 258.651,78.666 C251.642,78.666 246.255,73.337 246.255,63.953 C246.255,54.858 251.528,49.297 258.651,49.297 C261.953,49.297 265.081,50.686 267.283,53.582 L267.283,39.332 L274.698,39.332 L274.698,78.665 L267.283,78.665 L267.283,74.379 Z M267.283,68.934 L267.283,59.029 C266.066,57.175 263.401,55.842 260.968,55.842 C256.742,55.842 253.846,59.145 253.846,63.953 C253.846,68.818 256.742,72.119 260.968,72.119 C263.401,72.119 266.066,70.787 267.283,68.934 L267.283,68.934 Z" id="Shape"></path>
                <path d="M300.9,78.666 L300.9,74.437 C298.99,76.522 295.63,78.666 291.055,78.666 C284.914,78.666 282.018,75.307 282.018,69.86 L282.018,49.99 L289.372,49.99 L289.372,66.965 C289.372,70.846 291.399,72.119 294.526,72.119 C297.366,72.119 299.626,70.557 300.899,68.933 L300.899,49.99 L308.257,49.99 L308.257,78.666 L300.9,78.666 Z" id="Shape"></path>
                <path d="M313.781,63.953 C313.781,55.38 320.036,49.297 328.611,49.297 C334.346,49.297 337.822,51.787 339.676,54.337 L334.864,58.853 C333.534,56.884 331.506,55.841 328.959,55.841 C324.497,55.841 321.37,59.086 321.37,63.952 C321.37,68.817 324.497,72.118 328.959,72.118 C331.506,72.118 333.534,70.961 334.864,69.048 L339.676,73.567 C337.822,76.117 334.346,78.666 328.611,78.666 C320.036,78.666 313.781,72.584 313.781,63.953" id="Shape"></path>
                <path d="M346.002,70.962 L346.002,56.422 L341.37,56.422 L341.37,49.99 L346.002,49.99 L346.002,42.344 L353.36,42.344 L353.36,49.99 L359.034,49.99 L359.034,56.422 L353.36,56.422 L353.36,68.992 C353.36,70.787 354.284,72.119 355.907,72.119 C357.006,72.119 358.053,71.714 358.455,71.252 L360.02,76.869 C358.92,77.855 356.949,78.666 353.878,78.666 C348.724,78.666 346.002,76.002 346.002,70.962" id="Shape"></path>
                <polygon id="Shape" points="406.157 78.666 406.157 61.693 387.908 61.693 387.908 78.666 379.687 78.666 379.687 39.333 387.908 39.333 387.908 54.51 406.157 54.51 406.157 39.333 414.44 39.333 414.44 78.666"></polygon>
                <path d="M440.765,78.666 L440.765,74.437 C438.855,76.522 435.496,78.666 430.92,78.666 C424.779,78.666 421.883,75.307 421.883,69.86 L421.883,49.99 L429.237,49.99 L429.237,66.965 C429.237,70.846 431.266,72.119 434.392,72.119 C437.232,72.119 439.492,70.557 440.765,68.933 L440.765,49.99 L448.123,49.99 L448.123,78.666 L440.765,78.666 Z" id="Shape"></path>
                <path d="M474.319,78.666 L474.319,61.057 C474.319,57.175 472.296,55.842 469.164,55.842 C466.268,55.842 464.07,57.465 462.792,59.087 L462.792,78.666 L455.438,78.666 L455.438,49.99 L462.792,49.99 L462.792,53.582 C464.589,51.498 468.065,49.297 472.584,49.297 C478.781,49.297 481.734,52.771 481.734,58.216 L481.734,78.665 L474.319,78.665 L474.319,78.666 Z" id="Shape"></path>
                <path d="M490.503,70.962 L490.503,56.422 L485.871,56.422 L485.871,49.99 L490.503,49.99 L490.503,42.344 L497.861,42.344 L497.861,49.99 L503.535,49.99 L503.535,56.422 L497.861,56.422 L497.861,68.992 C497.861,70.787 498.785,72.119 500.408,72.119 C501.507,72.119 502.554,71.714 502.96,71.252 L504.522,76.869 C503.422,77.855 501.451,78.666 498.38,78.666 C493.225,78.666 490.503,76.002 490.503,70.962" id="Shape"></path>
            </g>
        </g>
    </g>
</svg>