<svg width="90" height="90" xmlns="http://www.w3.org/2000/svg"><g fill="none" fill-rule="evenodd"><circle fill-opacity=".08" fill="#FF7B5C" cx="44.6429" cy="44.6429" r="44.6429"/><path d="M66.0189 44.6245c0 11.9428-9.63 21.6244-21.5092 21.6244C32.63 66.249 23 56.5673 23 44.6245 23 32.6816 32.63 23 44.5097 23 56.389 23 66.019 32.6816 66.019 44.6245z" stroke="#FF7B5C" stroke-width="3.8743"/><path d="M32.5415 61.4593v-4.3262c0-2.9253 2.339-5.2963 5.2249-5.2963h13.9332c2.8858 0 5.2249 2.371 5.2249 5.2963v4.3262" stroke="#FF7B5C" stroke-width="1.7962"/><path d="M47.7827 51.9845c0 1.2895-1.8193 2.3346-4.0641 2.3346-2.2443 0-4.0635-1.0451-4.0635-2.3346 0-1.2894 1.8192-2.3346 4.0635-2.3346 2.2448 0 4.0641 1.0452 4.0641 2.3346" fill="#FFF"/><path d="M47.7827 51.9845c0 1.2895-1.8193 2.3346-4.0641 2.3346-2.2443 0-4.0635-1.0451-4.0635-2.3346 0-1.2894 1.8192-2.3346 4.0635-2.3346 2.2448 0 4.0641 1.0452 4.0641 2.3346" fill-opacity=".05" fill="#9D3D3D"/><path d="M39.7308 52.3082s3.1663 5.7641 8.7952 0" stroke="#FF7B5C" stroke-width="1.7962"/><path d="M35.0929 37.8292s1.6699 11.4143-1.2732 15.375c-.2815.379-.0234.9329.4328.9516 2.3322.0964 7.0314-.1549 7.5778-3.675M53.2149 41.331s-1.6336 7.8955 1.2723 11.8716c.2785.3808.0194.9335-.4342.953-2.3296.0974-7.0323-.1538-7.5784-3.6923" fill="#FF7B5C"/><path d="M51.954 37.2389l.326 6.1761c0 4.0068-3.3792 7.2545-7.547 7.2545-4.1684 0-7.5471-3.2477-7.5471-7.2545v-9.0877" fill="#FFF"/><path d="M51.954 37.2389l.326 6.1761c0 4.0068-3.3792 7.2545-7.547 7.2545-4.1684 0-7.5471-3.2477-7.5471-7.2545v-9.0877" fill-opacity=".05" fill="#9D3D3D"/><path d="M52.28 38.9965c1.2825 0 2.3223.7839 2.3223 1.7506 0 .9673-1.0398 1.7513-2.3222 1.7513M46.7098 45.8377c0 1.2892-1.0399 2.3346-2.3222 2.3346s-2.3222-1.0454-2.3222-2.3346M42.9914 41.331c0 .6444-.5202 1.1674-1.1611 1.1674-.641 0-1.1611-.523-1.1611-1.1673 0-.6444.5201-1.1673 1.161-1.1673.641 0 1.1612.523 1.1612 1.1673M48.7968 41.331c0 .6444-.5202 1.1674-1.161 1.1674-.641 0-1.1612-.523-1.1612-1.1673 0-.6444.5202-1.1673 1.1611-1.1673.641 0 1.1611.523 1.1611 1.1673" fill="#FF7B5C"/><path fill="#FFF" d="M42.9914 53.004h3.4832v-3.5018h-3.4832z"/><path fill-opacity=".05" fill="#9D3D3D" d="M42.9914 53.004h3.4832v-3.5018h-3.4832z"/><path d="M38.347 57.6733v7.0038M51.119 57.6733s0 8.171.5805 5.8441" stroke="#FF7B5C" stroke-width="1.7962"/><path d="M55.6346 41.624c-.7957-.9425-1.5969-1.9006-2.1902-3.0362-.657-1.259-1.0115-2.6886-1.437-4.0653-.3903-1.2596-1.189-2.3405-2.096-3.1447-.7854-.697-1.6972-1.1991-2.6613-1.452-3.0206-.7924-6.471.185-8.6794 2.7901a8.1944 8.1944 0 0 0-.6948.9544c-.552.8833-.9569 1.8937-1.3702 2.8705-.4219.998-1.0079 1.9448-1.5665 2.8487-.2122.3451.054.7837.414.7145 3.7117-.7164 5.7785-3.5053 6.807-5.143 2.73 5.1617 9.097 6.9296 13.1012 7.5326.4182.063.6687-.5195.3732-.8696" fill="#FF7B5C"/><path d="M37.1859 43.6657c-1.2824 0-2.3222-1.0453-2.3222-2.3343 0-1.2897 1.0398-2.335 2.3222-2.335" fill="#FF7B5C"/><path d="M36.8924 42.4984c-.4788 0-.8676-.5226-.8676-1.1677 0-.6444.3888-1.167.8676-1.167h1.4546v2.3347h-1.4546z" fill="#FFF"/><path d="M36.8924 42.4984c-.4788 0-.8676-.5226-.8676-1.1677 0-.6444.3888-1.167.8676-1.167h1.4546v2.3347h-1.4546z" fill-opacity=".05" fill="#9D3D3D"/><path d="M37.1859 43.082c0 .3224-.2598.5837-.5805.5837-.3208 0-.5806-.2613-.5806-.5837s.2598-.5836.5806-.5836c.3207 0 .5805.2612.5805.5836" fill="#FF7A5C"/><g><path d="M35.3617 30.7273c0 4.82-3.8864 8.7272-8.6808 8.7272-4.7945 0-8.6809-3.9072-8.6809-8.7272C18 25.9072 21.8864 22 26.6809 22c4.7944 0 8.6808 3.9072 8.6808 8.7273" fill="#FF7B5C"/><text font-family="GTWalsheimProBold, GT Walsheim Pro" font-size="14.5455" font-weight="bold" fill="#FFF" transform="translate(18 22)"><tspan x="3.617" y="16.4545">$</tspan></text></g></g></svg>