<?xml version="1.0" encoding="UTF-8"?>
<svg width="90px" height="90px" viewBox="0 0 90 90" version="1.1" xmlns="http://www.w3.org/2000/svg" xmlns:xlink="http://www.w3.org/1999/xlink">
    <!-- Generator: Sketch 48.2 (47327) - http://www.bohemiancoding.com/sketch -->
    <title>Group 16</title>
    <desc>Created with Sketch.</desc>
    <defs></defs>
    <g id="Award_Confirmation_11818@2x" stroke="none" stroke-width="1" fill="none" fill-rule="evenodd" transform="translate(-727.000000, -257.000000)">
        <g id="Group-18" transform="translate(321.000000, 257.000000)">
            <g id="Group-17" transform="translate(344.000000, 0.000000)">
                <g id="Group-16" transform="translate(62.000000, 0.000000)">
                    <circle id="Oval-7" fill-opacity="0.08" fill="#FF7B5C" cx="44.6428571" cy="44.6428571" r="44.6428571"></circle>
                    <g id="Group-15" transform="translate(18.000000, 22.000000)">
                        <g id="Group-9" transform="translate(5.000000, 1.000000)">
                            <path d="M43.0188917,21.6244696 C43.0188917,33.5673029 33.3888851,43.2489392 21.5097399,43.2489392 C9.63000661,43.2489392 0,33.5673029 0,21.6244696 C0,9.68163634 9.63000661,0 21.5097399,0 C33.3888851,0 43.0188917,9.68163634 43.0188917,21.6244696 L43.0188917,21.6244696 Z" id="Fill-1" stroke="#FF7B5C" stroke-width="3.87425658"></path>
                            <g id="Group-65" transform="translate(9.329887, 6.525064)">
                                <path d="M0.211642041,31.9342831 L0.211642041,27.6080531 C0.211642041,24.6827828 2.5507053,22.3116989 5.43647096,22.3116989 L19.36974,22.3116989 C22.2555056,22.3116989 24.5945689,24.6827828 24.5945689,27.6080531 L24.5945689,31.9342831" id="Stroke-5" stroke="#FF7B5C" stroke-width="1.79617872"></path>
                                <path d="M15.4528085,22.4594585 C15.4528085,23.7488954 13.6335597,24.7940601 11.3886753,24.7940601 C9.14441502,24.7940601 7.32516621,23.7488954 7.32516621,22.4594585 C7.32516621,21.1700216 9.14441502,20.1248569 11.3886753,20.1248569 C13.6335597,20.1248569 15.4528085,21.1700216 15.4528085,22.4594585" id="Fill-7" fill="#FFFFFF"></path>
                                <path d="M15.4528085,22.4594585 C15.4528085,23.7488954 13.6335597,24.7940601 11.3886753,24.7940601 C9.14441502,24.7940601 7.32516621,23.7488954 7.32516621,22.4594585 C7.32516621,21.1700216 9.14441502,20.1248569 11.3886753,20.1248569 C13.6335597,20.1248569 15.4528085,21.1700216 15.4528085,22.4594585" id="Fill-7" fill-opacity="0.05" fill="#9D3D3D"></path>
                                <g id="Group-12" transform="translate(7.178193, 22.719515)" stroke="#FF7B5C" stroke-width="1.79617872">
                                    <path d="M0.222697399,0.0635979461 C0.222697399,0.0635979461 3.38899461,5.8277293 9.01796744,0.0635979461" id="Stroke-11"></path>
                                </g>
                                <path d="M2.76297259,8.30408925 C2.76297259,8.30408925 4.43290778,19.7184475 1.48982541,23.6791213 C1.20836283,24.0581937 1.46641777,24.6120371 1.92258127,24.6307196 C4.25478136,24.727145 8.95400754,24.4758362 9.50037608,20.955706" id="Fill-13" fill="#FF7B5C"></path>
                                <path d="M20.884965,11.8059917 C20.884965,11.8059917 19.2514041,19.7014162 22.157351,23.6775816 C22.4357924,24.0583684 22.1767506,24.6110845 21.7231421,24.6304568 C19.3934777,24.7279237 14.690785,24.4766891 14.1447431,20.9382167" id="Fill-15" fill="#FF7B5C"></path>
                                <path d="M19.6241673,7.71382695 L19.9502019,13.8899629 C19.9502019,17.8967325 16.570914,21.1443981 12.4031055,21.1443981 C8.23469318,21.1443981 4.85600906,17.8967325 4.85600906,13.8899629 L4.85600906,4.80218684" id="Fill-17" fill="#FFFFFF"></path>
                                <path d="M19.6241673,7.71382695 L19.9502019,13.8899629 C19.9502019,17.8967325 16.570914,21.1443981 12.4031055,21.1443981 C8.23469318,21.1443981 4.85600906,17.8967325 4.85600906,13.8899629 L4.85600906,4.80218684" id="Fill-17" fill-opacity="0.05" fill="#9D3D3D"></path>
                                <path d="M19.9502019,9.47139005 C21.2325682,9.47139005 22.2723854,10.255297 22.2723854,11.2220591 C22.2723854,12.1893855 21.2325682,12.9732925 19.9502019,12.9732925" id="Fill-19" fill="#FF7B5C"></path>
                                <path d="M14.3799009,16.3126593 C14.3799009,17.6018272 13.340028,18.6472609 12.0577174,18.6472609 C10.7754068,18.6472609 9.7355339,17.6018272 9.7355339,16.3126593" id="Fill-21" fill="#FF7B5C"></path>
                                <path d="M10.6614678,11.8059917 C10.6614678,12.4503417 10.1412987,12.9732925 9.50037608,12.9732925 C8.85945343,12.9732925 8.33928432,12.4503417 8.33928432,11.8059917 C8.33928432,11.1616416 8.85945343,10.6386908 9.50037608,10.6386908 C10.1412987,10.6386908 10.6614678,11.1616416 10.6614678,11.8059917" id="Fill-25" fill="#FF7B5C"></path>
                                <path d="M16.4669266,11.8059917 C16.4669266,12.4503417 15.9467575,12.9732925 15.3058349,12.9732925 C14.6649122,12.9732925 14.1447431,12.4503417 14.1447431,11.8059917 C14.1447431,11.1616416 14.6649122,10.6386908 15.3058349,10.6386908 C15.9467575,10.6386908 16.4669266,11.1616416 16.4669266,11.8059917" id="Fill-27" fill="#FF7B5C"></path>
                                <polygon id="Fill-29" fill="#FFFFFF" points="10.6614678 23.4789997 14.1447431 23.4789997 14.1447431 19.9770973 10.6614678 19.9770973"></polygon>
                                <polygon id="Fill-29" fill-opacity="0.05" fill="#9D3D3D" points="10.6614678 23.4789997 14.1447431 23.4789997 14.1447431 19.9770973 10.6614678 19.9770973"></polygon>
                                <path d="M6.01710082,28.1482029 L6.01710082,35.1520077" id="Stroke-32" stroke="#FF7B5C" stroke-width="1.79617872"></path>
                                <path d="M18.7891101,28.1482029 C18.7891101,28.1482029 18.7891101,36.3193085 19.369656,33.9923718" id="Stroke-33" stroke="#FF7B5C" stroke-width="1.79617872"></path>
                                <path d="M23.3047604,12.0989545 C22.5090372,11.1564395 21.7078429,10.1983508 21.1145458,9.06272301 C20.4574206,7.80375219 20.1030229,6.37409457 19.6775024,4.99738723 C19.2872393,3.73779347 18.4884766,2.65698477 17.5815102,1.85276342 C16.796121,1.15568853 15.8842914,0.653595269 14.9201836,0.400679804 C11.8995962,-0.391705594 8.44923307,0.585694319 6.24078185,3.1908482 C5.98911688,3.48799272 5.75690429,3.80756325 5.54596771,4.14519916 C4.99400688,5.02853446 4.58915455,6.03895043 4.17579181,7.0157274 C3.75391866,8.01368448 3.16791619,8.96056011 2.60926861,9.86445258 C2.39711626,10.2095638 2.6633705,10.6481168 3.02323923,10.5789699 C6.73499347,9.86258374 8.80180717,7.07366124 9.83035092,5.43594016 C12.5603687,10.5976582 18.9273706,12.3655747 22.9315182,12.968585 C23.349744,13.0315024 23.6001932,12.4490493 23.3047604,12.0989545" id="Fill-34" fill="#FF7B5C"></path>
                                <path d="M4.85600906,14.1405933 C3.57361872,14.1405933 2.53382555,13.095383 2.53382555,11.8063117 C2.53382555,10.5166003 3.57361872,9.47139005 4.85600906,9.47139005" id="Fill-35" fill="#FF7B5C"></path>
                                <path d="M4.56249169,12.9732925 C4.08369666,12.9732925 3.69491731,12.4507758 3.69491731,11.80562 C3.69491731,11.1612075 4.08369666,10.6386908 4.56249169,10.6386908 L6.01710082,10.6386908 L6.01710082,12.9732925 L4.56249169,12.9732925 Z" id="Fill-36" fill="#FFFFFF"></path>
                                <path d="M4.56249169,12.9732925 C4.08369666,12.9732925 3.69491731,12.4507758 3.69491731,11.80562 C3.69491731,11.1612075 4.08369666,10.6386908 4.56249169,10.6386908 L6.01710082,10.6386908 L6.01710082,12.9732925 L4.56249169,12.9732925 Z" id="Fill-36" fill-opacity="0.05" fill="#9D3D3D"></path>
                                <path d="M4.85600906,13.5569429 C4.85600906,13.8793723 4.59617763,14.1405933 4.27546318,14.1405933 C3.95474874,14.1405933 3.69491731,13.8793723 3.69491731,13.5569429 C3.69491731,13.2345134 3.95474874,12.9732925 4.27546318,12.9732925 C4.59617763,12.9732925 4.85600906,13.2345134 4.85600906,13.5569429" id="Fill-37" fill="#FF7A5C"></path>
                            </g>
                        </g>
                        <g id="Group-14">
                            <path d="M17.3617021,8.72727273 C17.3617021,13.5473455 13.4752851,17.4545455 8.68085106,17.4545455 C3.88641702,17.4545455 0,13.5473455 0,8.72727273 C0,3.9072 3.88641702,0 8.68085106,0 C13.4752851,0 17.3617021,3.9072 17.3617021,8.72727273" id="Fill-70" fill="#FF7B5C"></path>
                            <text id="$" font-family="GTWalsheimProBold, GT Walsheim Pro" font-size="14.5454545" font-weight="bold" line-spacing="14.5454545" fill="#FFFFFF">
                                <tspan x="3.61702128" y="16.4545455">$</tspan>
                            </text>
                        </g>
                    </g>
                </g>
            </g>
        </g>
    </g>
</svg>