<?xml version="1.0" encoding="UTF-8" standalone="no"?>
<svg width="490px" height="371px" viewBox="0 0 490 371" version="1.1" xmlns="http://www.w3.org/2000/svg" xmlns:xlink="http://www.w3.org/1999/xlink">
    <!-- Generator: Sketch 39.1 (31720) - http://www.bohemiancoding.com/sketch -->
    <title>Bids Illustration</title>
    <desc>Created with Sketch.</desc>
    <defs></defs>
    <g id="Page-1" stroke="none" stroke-width="1" fill="none" fill-rule="evenodd">
        <g id="About-Page" transform="translate(-150.000000, -1230.000000)">
            <g id="Recieve-Bids" transform="translate(150.000000, 1227.000000)">
                <g id="Bids-Illustration" transform="translate(0.000000, 3.000000)">
                    <g id="Page-1">
                        <g id="Group-68">
                            <path d="M349.4971,369.5 L67.4761,369.5 C62.5111,369.5 58.4871,365.475 58.4871,360.51 L58.4871,320.49 C58.4871,315.525 62.5111,311.5 67.4761,311.5 L349.4971,311.5 C354.4621,311.5 358.4871,315.525 358.4871,320.49 L358.4871,360.51 C358.4871,365.475 354.4621,369.5 349.4971,369.5 L349.4971,369.5 Z" id="Fill-1" fill="#FFFFFF"></path>
                            <path d="M349.4971,369.5 L67.4761,369.5 C62.5111,369.5 58.4871,365.475 58.4871,360.51 L58.4871,320.49 C58.4871,315.525 62.5111,311.5 67.4761,311.5 L349.4971,311.5 C354.4621,311.5 358.4871,315.525 358.4871,320.49 L358.4871,360.51 C358.4871,365.475 354.4621,369.5 349.4971,369.5 L349.4971,369.5 Z" id="Stroke-3" stroke="#423D51" stroke-width="3"></path>
                            <g id="Group-20" transform="translate(208.000000, 312.000000)">
                                <path d="M0.4867,0.5 L0.4867,57.5" id="Fill-17" fill="#FFFFFF"></path>
                                <path d="M0.4867,0.5 L0.4867,57.5" id="Stroke-19" stroke="#423D51" stroke-width="3"></path>
                            </g>
                            <path d="M331.165,175.0191 C331.165,179.1481 327.805,182.5081 323.675,182.5081 L184.165,182.5081 L184.165,127.5081 L323.675,127.5081 C327.805,127.5081 331.165,130.8681 331.165,134.9981 L331.165,175.0191 Z M34.165,175.0191 L34.165,134.9981 C34.165,130.8681 37.524,127.5081 41.654,127.5081 L181.165,127.5081 L181.165,182.5081 L41.654,182.5081 C37.524,182.5081 34.165,179.1481 34.165,175.0191 L34.165,175.0191 Z M323.675,124.5081 L41.654,124.5081 C35.87,124.5081 31.165,129.2141 31.165,134.9981 L31.165,175.0191 C31.165,180.8031 35.87,185.5081 41.654,185.5081 L323.675,185.5081 C329.459,185.5081 334.165,180.8031 334.165,175.0191 L334.165,134.9981 C334.165,129.2141 329.459,124.5081 323.675,124.5081 L323.675,124.5081 Z" id="Fill-33" fill="#ECECED"></path>
                            <path d="M67.7263,153.1372 C66.1403,152.5572 64.6153,151.7342 64.6153,149.9952 C64.6153,148.1962 66.0793,147.2812 67.8173,147.2812 C69.8003,147.2812 71.0203,148.7142 71.0203,150.8192 L74.5283,150.8192 C74.5283,147.3832 72.3043,144.8892 69.2113,144.2842 L69.2113,140.1762 L66.2113,140.1762 L66.2113,144.2882 C63.3363,144.8452 61.1073,146.9722 61.1073,149.9952 C61.1073,154.2662 64.2483,155.4552 68.1533,156.8282 C69.6173,157.3462 71.5393,158.0482 71.5393,160.2142 C71.5393,162.1352 69.9833,163.3862 68.0313,163.3862 C65.6213,163.3862 63.8833,161.8002 63.8833,159.0252 L60.3753,159.0252 C60.3753,163.1762 62.9903,165.7662 66.2113,166.3822 L66.2113,171.0302 L69.2113,171.0302 L69.2113,166.4132 C72.4943,165.9002 75.0463,163.6482 75.0463,159.8182 C75.0463,155.7302 71.0513,154.3262 67.7263,153.1372" id="Fill-35" fill="#ECECED"></path>
                            <polygon id="Fill-37" fill="#ECECED" points="83.151 156.834 102.535 156.834 102.535 153.834 83.151 153.834"></polygon>
                            <polygon id="Fill-39" fill="#ECECED" points="118.179 156.834 156.058 156.834 156.058 153.834 118.179 153.834"></polygon>
                            <path d="M109.7523,153.7481 C108.8483,153.7481 108.1083,154.4871 108.1083,155.4081 C108.1083,156.2951 108.7493,157.0341 109.7523,157.0341 C109.9333,157.0341 110.1303,156.9531 110.1793,156.9041 C110.1463,157.2321 109.9993,157.5601 109.6863,157.8241 C109.3583,158.0701 108.8983,158.2511 108.1913,158.2511 L108.1913,159.2701 C110.3443,159.2541 111.6093,158.3661 111.6093,155.8521 C111.6093,154.6021 110.8533,153.7481 109.7523,153.7481" id="Fill-40" fill="#ECECED"></path>
                            <polygon id="Fill-41" fill="#ECECED" points="301.0875 140.9401 282.5505 169.2461 285.9795 169.2461 304.5005 140.9401"></polygon>
                            <path d="M281.3701,146.5947 C281.3701,145.2937 282.4291,144.2347 283.7301,144.2347 C285.0311,144.2347 286.0901,145.2937 286.0901,146.5947 C286.0901,147.8957 285.0311,148.9547 283.7301,148.9547 C282.4291,148.9547 281.3701,147.8957 281.3701,146.5947 M289.0901,146.5947 C289.0901,143.6387 286.6851,141.2347 283.7301,141.2347 C280.7741,141.2347 278.3701,143.6387 278.3701,146.5947 C278.3701,149.5507 280.7741,151.9547 283.7301,151.9547 C286.6851,151.9547 289.0901,149.5507 289.0901,146.5947" id="Fill-42" fill="#ECECED"></path>
                            <path d="M302.8389,166.1177 C301.5379,166.1177 300.4799,165.0587 300.4799,163.7577 C300.4799,162.4557 301.5379,161.3977 302.8389,161.3977 C304.1409,161.3977 305.1989,162.4557 305.1989,163.7577 C305.1989,165.0587 304.1409,166.1177 302.8389,166.1177 M302.8389,158.3977 C299.8839,158.3977 297.4799,160.8017 297.4799,163.7577 C297.4799,166.7127 299.8839,169.1177 302.8389,169.1177 C305.7949,169.1177 308.1989,166.7127 308.1989,163.7577 C308.1989,160.8017 305.7949,158.3977 302.8389,158.3977" id="Fill-43" fill="#ECECED"></path>
                            <polygon id="Fill-44" fill="#ECECED" points="207.25 156.834 226.634 156.834 226.634 153.834 207.25 153.834"></polygon>
                            <polygon id="Fill-45" fill="#ECECED" points="243.279 156.834 262.663 156.834 262.663 153.834 243.279 153.834"></polygon>
                            <path d="M234.708,153.3335 C233.603,153.3335 232.708,154.2285 232.708,155.3335 C232.708,156.4385 233.603,157.3335 234.708,157.3335 C235.813,157.3335 236.708,156.4385 236.708,155.3335 C236.708,154.2285 235.813,153.3335 234.708,153.3335" id="Fill-46" fill="#ECECED"></path>
                            <path d="M382.0176,142 L99.9966,142 C95.0316,142 91.0076,137.975 91.0076,133.01 L91.0076,92.99 C91.0076,88.025 95.0316,84 99.9966,84 L382.0176,84 C386.9826,84 391.0076,88.025 391.0076,92.99 L391.0076,133.01 C391.0076,137.975 386.9826,142 382.0176,142" id="Fill-47" fill="#FFFFFF"></path>
                            <path d="M382.0176,142 L99.9966,142 C95.0316,142 91.0076,137.975 91.0076,133.01 L91.0076,92.99 C91.0076,88.025 95.0316,84 99.9966,84 L382.0176,84 C386.9826,84 391.0076,88.025 391.0076,92.99 L391.0076,133.01 C391.0076,137.975 386.9826,142 382.0176,142 L382.0176,142 Z" id="Stroke-48" stroke="#423D51" stroke-width="3"></path>
                            <g id="Group-57" transform="translate(241.000000, 85.000000)">
                                <path d="M0.0072,0 L0.0072,57" id="Fill-55" fill="#FFFFFF"></path>
                                <path d="M0.0072,0 L0.0072,57" id="Stroke-56" stroke="#423D51" stroke-width="3"></path>
                            </g>
                            <path d="M55,0 C24.624,0 0,24.624 0,55 C0,85.376 24.624,110 55,110 L110,110 L110,55 C110,24.624 85.376,0 55,0" id="Fill-64" fill="#423D51"></path>
                            <path d="M99,55 C99,79.301 79.301,99 55,99 C30.699,99 11,79.301 11,55 C11,30.699 30.699,11 55,11 C79.301,11 99,30.699 99,55" id="Fill-65" fill="#FFFFFF"></path>
                            <path d="M415.7467,190.0004 C374.7957,190.1374 341.9997,224.1494 341.9997,265.1004 L341.9997,338.0004 L414.8997,338.0004 C455.8507,338.0004 489.8627,305.2034 489.9997,264.2534 C490.1367,223.1834 456.8167,189.8624 415.7467,190.0004" id="Fill-66" fill="#423D51"></path>
                            <path d="M355.9601,264 C355.9601,297.137 382.8231,324 415.9601,324 C449.0971,324 475.9601,297.137 475.9601,264 C475.9601,230.863 449.0971,204 415.9601,204 C382.8231,204 355.9601,230.863 355.9601,264" id="Fill-67" fill="#FFFFFF"></path>
                        </g>
                        <text id="John" font-family="GTWalsheimProTrial-Bold, GT Walsheim Pro Trial" font-size="14" font-weight="bold" fill="#ECECED">
                            <tspan x="125.3892" y="15.1481637">John</tspan>
                        </text>
                        <text id="Back-End-Developer" font-family="GTWalsheimProTrial-Bold, GT Walsheim Pro Trial" font-size="14" font-weight="bold" fill="#ECECED">
                            <tspan x="125.3892" y="38.3461637">Back End Developer</tspan>
                        </text>
                        <g id="Group-79" transform="translate(128.000000, 54.000000)" fill="#ECECED">
                            <path d="M7.0723,1.391 L8.3483,3.977 C8.4723,4.227 8.7113,4.401 8.9873,4.441 L11.8413,4.856 C12.5373,4.957 12.8143,5.812 12.3113,6.302 L10.2463,8.315 C10.0463,8.51 9.9553,8.791 10.0023,9.066 L10.4893,11.909 C10.6083,12.601 9.8813,13.13 9.2593,12.803 L6.7063,11.461 C6.4593,11.331 6.1643,11.331 5.9173,11.461 L3.3643,12.803 C2.7423,13.13 2.0153,12.601 2.1333,11.909 L2.6213,9.066 C2.6683,8.791 2.5773,8.51 2.3773,8.315 L0.3123,6.302 C-0.1907,5.812 0.0863,4.957 0.7823,4.856 L3.6363,4.441 C3.9123,4.401 4.1513,4.227 4.2753,3.977 L5.5513,1.391 C5.8623,0.761 6.7613,0.761 7.0723,1.391" id="Fill-69"></path>
                            <path d="M23.19,1.391 L24.466,3.977 C24.59,4.227 24.829,4.401 25.105,4.441 L27.959,4.856 C28.655,4.957 28.932,5.812 28.429,6.302 L26.364,8.315 C26.164,8.51 26.073,8.791 26.12,9.066 L26.607,11.909 C26.726,12.601 25.999,13.13 25.377,12.803 L22.824,11.461 C22.577,11.331 22.282,11.331 22.035,11.461 L19.482,12.803 C18.86,13.13 18.133,12.601 18.251,11.909 L18.739,9.066 C18.786,8.791 18.695,8.51 18.495,8.315 L16.43,6.302 C15.927,5.812 16.204,4.957 16.9,4.856 L19.754,4.441 C20.03,4.401 20.269,4.227 20.393,3.977 L21.669,1.391 C21.98,0.761 22.879,0.761 23.19,1.391" id="Fill-71"></path>
                            <path d="M39.3077,1.391 L40.5837,3.977 C40.7077,4.227 40.9467,4.401 41.2227,4.441 L44.0767,4.856 C44.7727,4.957 45.0497,5.812 44.5467,6.302 L42.4817,8.315 C42.2817,8.51 42.1907,8.791 42.2377,9.066 L42.7247,11.909 C42.8437,12.601 42.1167,13.13 41.4947,12.803 L38.9417,11.461 C38.6947,11.331 38.3997,11.331 38.1527,11.461 L35.5997,12.803 C34.9777,13.13 34.2507,12.601 34.3687,11.909 L34.8567,9.066 C34.9037,8.791 34.8127,8.51 34.6127,8.315 L32.5477,6.302 C32.0447,5.812 32.3217,4.957 33.0177,4.856 L35.8717,4.441 C36.1477,4.401 36.3867,4.227 36.5107,3.977 L37.7867,1.391 C38.0977,0.761 38.9967,0.761 39.3077,1.391" id="Fill-73"></path>
                            <path d="M55.4254,1.391 L56.7014,3.977 C56.8254,4.227 57.0644,4.401 57.3404,4.441 L60.1944,4.856 C60.8904,4.957 61.1674,5.812 60.6644,6.302 L58.5994,8.315 C58.3994,8.51 58.3084,8.791 58.3554,9.066 L58.8424,11.909 C58.9614,12.601 58.2344,13.13 57.6124,12.803 L55.0594,11.461 C54.8124,11.331 54.5174,11.331 54.2704,11.461 L51.7174,12.803 C51.0954,13.13 50.3684,12.601 50.4864,11.909 L50.9744,9.066 C51.0214,8.791 50.9304,8.51 50.7304,8.315 L48.6654,6.302 C48.1624,5.812 48.4394,4.957 49.1354,4.856 L51.9894,4.441 C52.2654,4.401 52.5044,4.227 52.6284,3.977 L53.9044,1.391 C54.2154,0.761 55.1144,0.761 55.4254,1.391" id="Fill-75"></path>
                            <path d="M71.5431,1.391 L72.8191,3.977 C72.9431,4.227 73.1821,4.401 73.4581,4.441 L76.3121,4.856 C77.0081,4.957 77.2851,5.812 76.7821,6.302 L74.7171,8.315 C74.5171,8.51 74.4261,8.791 74.4731,9.066 L74.9601,11.909 C75.0791,12.601 74.3521,13.13 73.7301,12.803 L71.1771,11.461 C70.9301,11.331 70.6351,11.331 70.3881,11.461 L67.8351,12.803 C67.2131,13.13 66.4861,12.601 66.6041,11.909 L67.0921,9.066 C67.1391,8.791 67.0481,8.51 66.8481,8.315 L64.7831,6.302 C64.2801,5.812 64.5571,4.957 65.2531,4.856 L68.1071,4.441 C68.3831,4.401 68.6221,4.227 68.7461,3.977 L70.0221,1.391 C70.3331,0.761 71.2321,0.761 71.5431,1.391" id="Fill-77"></path>
                        </g>
                        <text id="Peggy" font-family="GTWalsheimProTrial-Bold, GT Walsheim Pro Trial" font-size="19.8403" font-weight="bold" fill="#423D51">
                            <tspan x="256.0522" y="224.243805">Peggy</tspan>
                        </text>
                        <text id="Full-Stack-Developer" font-family="GTWalsheimProTrial-Bold, GT Walsheim Pro Trial" font-size="19.8403" font-weight="bold" fill="#423D51">
                            <tspan x="122.745224" y="252.813837">Full Stack Developer</tspan>
                        </text>
                        <g id="Group-143" transform="translate(24.000000, 21.000000)">
                            <path d="M209.2138,254.0782 L210.7988,257.2902 C210.9518,257.6002 211.2488,257.8162 211.5918,257.8662 L215.1358,258.3812 C215.9998,258.5062 216.3448,259.5682 215.7198,260.1772 L213.1548,262.6772 C212.9068,262.9192 212.7938,263.2682 212.8518,263.6102 L213.4578,267.1392 C213.6048,268.0002 212.7018,268.6562 211.9298,268.2502 L208.7598,266.5832 C208.4528,266.4222 208.0858,266.4222 207.7788,266.5832 L204.6088,268.2502 C203.8368,268.6562 202.9328,268.0002 203.0808,267.1392 L203.6858,263.6102 C203.7448,263.2682 203.6318,262.9192 203.3838,262.6772 L200.8188,260.1772 C200.1938,259.5682 200.5388,258.5062 201.4028,258.3812 L204.9468,257.8662 C205.2898,257.8162 205.5868,257.6002 205.7398,257.2902 L207.3248,254.0782 C207.7108,253.2952 208.8278,253.2952 209.2138,254.0782 L209.2138,254.0782 Z" id="Fill-80" fill="#FFAE38"></path>
                            <path d="M229.2298,254.0782 L230.8148,257.2902 C230.9678,257.6002 231.2648,257.8162 231.6078,257.8662 L235.1518,258.3812 C236.0158,258.5062 236.3608,259.5682 235.7358,260.1772 L233.1708,262.6772 C232.9228,262.9192 232.8098,263.2682 232.8678,263.6102 L233.4738,267.1392 C233.6208,268.0002 232.7178,268.6562 231.9458,268.2502 L228.7758,266.5832 C228.4688,266.4222 228.1018,266.4222 227.7948,266.5832 L224.6248,268.2502 C223.8528,268.6562 222.9488,268.0002 223.0968,267.1392 L223.7018,263.6102 C223.7608,263.2682 223.6478,262.9192 223.3998,262.6772 L220.8348,260.1772 C220.2098,259.5682 220.5548,258.5062 221.4188,258.3812 L224.9628,257.8662 C225.3058,257.8162 225.6018,257.6002 225.7558,257.2902 L227.3408,254.0782 C227.7268,253.2952 228.8438,253.2952 229.2298,254.0782" id="Fill-82" fill="#FFAE38"></path>
                            <path d="M249.2458,254.0782 L250.8308,257.2902 C250.9838,257.6002 251.2808,257.8162 251.6238,257.8662 L255.1678,258.3812 C256.0318,258.5062 256.3768,259.5682 255.7518,260.1772 L253.1868,262.6772 C252.9388,262.9192 252.8258,263.2682 252.8838,263.6102 L253.4898,267.1392 C253.6368,268.0002 252.7338,268.6562 251.9618,268.2502 L248.7918,266.5832 C248.4848,266.4222 248.1178,266.4222 247.8108,266.5832 L244.6408,268.2502 C243.8688,268.6562 242.9648,268.0002 243.1128,267.1392 L243.7178,263.6102 C243.7768,263.2682 243.6638,262.9192 243.4158,262.6772 L240.8508,260.1772 C240.2258,259.5682 240.5708,258.5062 241.4348,258.3812 L244.9788,257.8662 C245.3218,257.8162 245.6178,257.6002 245.7718,257.2902 L247.3568,254.0782 C247.7428,253.2952 248.8598,253.2952 249.2458,254.0782" id="Fill-84" fill="#FFAE38"></path>
                            <path d="M269.2618,254.0782 L270.8468,257.2902 C270.9998,257.6002 271.2968,257.8162 271.6398,257.8662 L275.1838,258.3812 C276.0478,258.5062 276.3928,259.5682 275.7678,260.1772 L273.2028,262.6772 C272.9548,262.9192 272.8418,263.2682 272.8998,263.6102 L273.5058,267.1392 C273.6528,268.0002 272.7498,268.6562 271.9778,268.2502 L268.8078,266.5832 C268.5008,266.4222 268.1338,266.4222 267.8268,266.5832 L264.6568,268.2502 C263.8848,268.6562 262.9808,268.0002 263.1288,267.1392 L263.7338,263.6102 C263.7928,263.2682 263.6798,262.9192 263.4318,262.6772 L260.8668,260.1772 C260.2418,259.5682 260.5868,258.5062 261.4508,258.3812 L264.9948,257.8662 C265.3378,257.8162 265.6338,257.6002 265.7878,257.2902 L267.3728,254.0782 C267.7588,253.2952 268.8758,253.2952 269.2618,254.0782" id="Fill-86" fill="#FFAE38"></path>
                            <path d="M289.2778,254.0782 L290.8628,257.2902 C291.0158,257.6002 291.3128,257.8162 291.6558,257.8662 L295.1998,258.3812 C296.0638,258.5062 296.4088,259.5682 295.7838,260.1772 L293.2188,262.6772 C292.9708,262.9192 292.8578,263.2682 292.9158,263.6102 L293.5218,267.1392 C293.6688,268.0002 292.7658,268.6562 291.9938,268.2502 L288.8238,266.5832 C288.5168,266.4222 288.1498,266.4222 287.8428,266.5832 L284.6728,268.2502 C283.9008,268.6562 282.9968,268.0002 283.1448,267.1392 L283.7498,263.6102 C283.8088,263.2682 283.6958,262.9192 283.4478,262.6772 L280.8828,260.1772 C280.2578,259.5682 280.6028,258.5062 281.4668,258.3812 L285.0108,257.8662 C285.3538,257.8162 285.6498,257.6002 285.8038,257.2902 L287.3888,254.0782 C287.7748,253.2952 288.8918,253.2952 289.2778,254.0782" id="Fill-88" fill="#FFAE38"></path>
                            <path d="M348.3424,306.3333 L348.3424,279.9773 C348.3424,270.0453 356.3944,261.9923 366.3274,261.9923 L414.2884,261.9923 C424.2214,261.9923 432.2734,270.0453 432.2734,279.9773 L432.2734,297.6663" id="Stroke-90" stroke="#423D51" stroke-width="3"></path>
                            <path d="M404.1096,265.9285 C404.1096,270.4895 398.2106,274.1865 390.9336,274.1865 C383.6566,274.1865 377.7566,270.4895 377.7566,265.9285 C377.7566,261.3675 383.6566,257.6705 390.9336,257.6705 C398.2106,257.6705 404.1096,261.3675 404.1096,265.9285" id="Fill-92" fill="#FFFFFF"></path>
                            <g id="Group-97" transform="translate(376.000000, 265.000000)">
                                <path d="M0.1102,0.3052 C0.1102,0.3052 11.1462,20.2892 30.7662,0.3052" id="Fill-94" fill="#FFFFFF"></path>
                                <path d="M0.1102,0.3052 C0.1102,0.3052 11.1462,20.2892 30.7662,0.3052" id="Stroke-96" stroke="#423D51" stroke-width="3"></path>
                            </g>
                            <path d="M360.8453,214.2426 C360.8453,214.2426 366.7633,252.5676 356.3333,265.8666 C355.3363,267.1386 356.2513,268.9986 357.8663,269.0616 C366.1323,269.3856 382.7883,268.5406 384.7253,256.7216" id="Fill-98" fill="#FFAE38"></path>
                            <path d="M419.6998,226.1962 C419.6998,226.1962 413.9058,252.5872 424.2128,265.8772 C425.1998,267.1492 424.2808,268.9982 422.6718,269.0612 C414.4108,269.3872 397.7338,268.5482 395.7958,256.7212" id="Fill-100" fill="#FFAE38"></path>
                            <path d="M414.2702,214.2426 L415.3622,235.7766 C415.3622,249.7466 404.0382,261.0706 390.0682,261.0706 C376.0992,261.0706 364.7752,249.7466 364.7752,235.7766 L364.7752,204.0916" id="Fill-102" fill="#FFFFFF"></path>
                            <path d="M415.4695,219.9185 C418.9365,219.9185 421.7475,222.7295 421.7475,226.1965 C421.7475,229.6635 418.9365,232.4735 415.4695,232.4735" id="Fill-104" fill="#423D51"></path>
                            <path d="M397.0617,245.2977 C397.0617,248.9677 394.0867,251.9427 390.4167,251.9427 C386.7467,251.9427 383.7717,248.9677 383.7717,245.2977" id="Fill-106" fill="#423D51"></path>
                            <path d="M392.6337,249.1511 C392.6337,250.4351 391.5927,251.4771 390.3077,251.4771 C389.0237,251.4771 387.9827,250.4351 387.9827,249.1511" id="Fill-108" fill="#FF7A5C"></path>
                            <path d="M383.4084,227.0019 C383.4084,228.4229 382.2564,229.5759 380.8344,229.5759 C379.4134,229.5759 378.2604,228.4229 378.2604,227.0019 C378.2604,225.5799 379.4134,224.4279 380.8344,224.4279 C382.2564,224.4279 383.4084,225.5799 383.4084,227.0019" id="Fill-110" fill="#423D51"></path>
                            <path d="M402.5858,227.0019 C402.5858,228.4229 401.4338,229.5759 400.0118,229.5759 C398.5908,229.5759 397.4378,228.4229 397.4378,227.0019 C397.4378,225.5799 398.5908,224.4279 400.0118,224.4279 C401.4338,224.4279 402.5858,225.5799 402.5858,227.0019" id="Fill-112" fill="#423D51"></path>
                            <polygon id="Fill-114" fill="#FFFFFF" points="384.026 266.486 395.694 266.486 395.694 255.495 384.026 255.495"></polygon>
                            <path d="M418.8673,232.5809 C418.8673,233.9349 417.7703,235.0319 416.4163,235.0319 C415.0633,235.0319 413.9653,233.9349 413.9653,232.5809 C413.9653,231.2269 415.0633,230.1299 416.4163,230.1299 C417.7703,230.1299 418.8673,231.2269 418.8673,232.5809" id="Fill-116" fill="#FF7A5C"></path>
                            <g id="Group-119" transform="translate(389.000000, 231.000000)">
                                <path d="M0.8795,0.6535 C0.8795,0.6535 5.0175,3.3685 1.6975,8.2035" id="Fill-117" fill="#FFFFFF"></path>
                                <path d="M0.8795,0.6535 C0.8795,0.6535 5.0175,3.3685 1.6975,8.2035" id="Stroke-118" stroke="#423D51" stroke-width="3"></path>
                            </g>
                            <path d="M365.2136,282.4277 L365.2136,307.9997" id="Stroke-120" stroke="#423D51" stroke-width="3"></path>
                            <path d="M411.5323,281.3377 L411.5323,307.9997" id="Stroke-121" stroke="#423D51" stroke-width="3"></path>
                            <path d="M425.4786,227.3044 C422.8306,224.2424 420.1626,221.1294 418.1886,217.4414 C416.0006,213.3514 414.8216,208.7084 413.4036,204.2374 C412.1066,200.1444 409.4466,196.6344 406.4276,194.0214 C403.8136,191.7584 400.7766,190.1264 397.5696,189.3054 C387.5136,186.7314 376.0286,189.9064 368.6766,198.3684 C367.8386,199.3324 367.0666,200.3724 366.3656,201.4674 C364.5276,204.3374 363.1796,207.6194 361.8036,210.7924 C360.3996,214.0344 358.4476,217.1094 356.5896,220.0474 C355.8816,221.1664 356.7696,222.5924 357.9656,222.3674 C370.3216,220.0394 377.2026,210.9804 380.6266,205.6614 C389.7126,222.4274 410.9066,228.1714 424.2366,230.1284 C425.6276,230.3324 426.4616,228.4414 425.4786,227.3044" id="Fill-122" fill="#FFAE38"></path>
                            <path d="M365.377,232.5809 C361.91,232.5809 359.099,229.7699 359.099,226.3029 C359.099,222.8359 361.91,220.0259 365.377,220.0259" id="Fill-123" fill="#423D51"></path>
                            <path d="M365.1964,229.4813 C363.4414,229.4813 362.0184,228.0583 362.0184,226.3033 C362.0184,224.5483 363.4414,223.1253 365.1964,223.1253 L370.5264,223.1253 L370.5264,229.4813 L365.1964,229.4813 Z" id="Fill-124" fill="#FFFFFF"></path>
                            <path d="M366.5054,232.5809 C366.5054,233.9349 365.4084,235.0319 364.0544,235.0319 C362.7014,235.0319 361.6034,233.9349 361.6034,232.5809 C361.6034,231.2269 362.7014,230.1299 364.0544,230.1299 C365.4084,230.1299 366.5054,231.2269 366.5054,232.5809" id="Fill-125" fill="#FF7A5C"></path>
                            <path d="M13.7755,65.25 L13.7755,81" id="Stroke-126" stroke="#423D51" stroke-width="3"></path>
                            <path d="M46.5538,65.25 L46.5538,81" id="Stroke-127" stroke="#423D51" stroke-width="3"></path>
                            <path d="M0.0397,76.8485 L0.0397,63.3855 C0.0397,56.7585 5.4127,51.3855 12.0397,51.3855 L48.2897,51.3855 C54.9167,51.3855 60.2897,56.7585 60.2897,63.3855 L60.2897,76.8485" id="Stroke-128" stroke="#423D51" stroke-width="3"></path>
                            <path d="M46.77,18.7459 L46.77,38.0539 C46.77,39.7279 44.86,40.6319 43.529,39.6179 C40.09,36.9969 35.354,35.3759 30.121,35.3759 C24.889,35.3759 20.153,36.9969 16.713,39.6179 C15.382,40.6319 13.472,39.7279 13.472,38.0539 L13.472,18.7459 L11.085,18.7459 L11.085,49.9749 L11.085,51.6129 C11.085,56.5839 15.114,60.6129 20.085,60.6129 L40.158,60.6129 C45.129,60.6129 49.158,56.5839 49.158,51.6129 L49.158,49.9749 L49.158,18.7459 L46.77,18.7459 Z" id="Fill-129" fill="#FF7A5C"></path>
                            <path d="M36.0715,41.7808 C36.0715,44.0638 33.2655,45.9138 29.8045,45.9138 C26.3435,45.9138 23.5375,44.0638 23.5375,41.7808 C23.5375,39.4978 26.3435,37.6478 29.8045,37.6478 C33.2655,37.6478 36.0715,39.4978 36.0715,41.7808" id="Fill-130" fill="#FFFFFF"></path>
                            <path d="M33.4747,40.4885 C33.4747,42.5155 31.8317,44.1585 29.8047,44.1585 C27.7777,44.1585 26.1347,42.5155 26.1347,40.4885" id="Fill-131" fill="#423D51"></path>
                            <path d="M31.1259,42.6168 C31.1259,43.3258 30.5509,43.9018 29.8409,43.9018 C29.1319,43.9018 28.5569,43.3258 28.5569,42.6168" id="Fill-132" fill="#FF7A5C"></path>
                            <path d="M14.4921,14.3901 C13.9271,14.5871 13.9591,14.5541 14.4921,14.3901 M48.0851,13.6891 C57.0681,12.3861 55.0841,0.0571 55.0841,0.0571 C51.3941,10.3681 41.4201,3.7461 41.4201,3.7461 C20.1911,-6.1499 15.8241,6.9581 15.7351,7.2331 C14.7741,7.0541 2.7061,5.2671 11.4961,30.2461 L13.4721,23.4751 L16.2451,15.7221 C17.7771,19.1741 20.4431,21.1201 24.4271,21.5231 C27.6811,21.8521 31.1141,21.5421 34.1831,20.4701 C37.1491,19.4341 40.0911,17.9621 43.3811,18.5171 C46.9361,19.1181 50.2851,20.6751 53.4441,22.2461 C51.8491,17.7981 49.9681,15.1711 48.0851,13.6891" id="Fill-133" fill="#FF7A5C"></path>
                            <path d="M13.4724,23.4751 C10.3084,23.4751 7.7434,26.0401 7.7434,29.2041 C7.7434,32.3681 10.3084,34.9331 13.4724,34.9331" id="Fill-134" fill="#423D51"></path>
                            <path d="M13.4623,31.8084 C11.9553,31.8084 10.7333,30.5864 10.7333,29.0794 C10.7333,27.5724 11.9553,26.3504 13.4623,26.3504 L15.7813,26.3504 L15.7813,31.8084 L13.4623,31.8084 Z" id="Fill-135" fill="#FFFFFF"></path>
                            <path d="M46.7735,23.6001 C49.9375,23.6001 52.5025,26.1651 52.5025,29.3291 C52.5025,32.4931 49.9375,35.0581 46.7735,35.0581" id="Fill-136" fill="#423D51"></path>
                            <path d="M46.7836,31.9334 C48.2906,31.9334 49.5126,30.7114 49.5126,29.2044 C49.5126,27.6974 48.2906,26.4754 46.7836,26.4754 L44.5316,26.4754 L44.5316,31.9334 L46.7736,31.9334" id="Fill-137" fill="#FFFFFF"></path>
                            <path d="M24.77,28.0792 C24.77,29.1842 23.875,30.0792 22.77,30.0792 C21.665,30.0792 20.77,29.1842 20.77,28.0792 C20.77,26.9742 21.665,26.0792 22.77,26.0792 C23.875,26.0792 24.77,26.9742 24.77,28.0792" id="Fill-138" fill="#423D51"></path>
                            <path d="M39.782,28.0792 C39.782,29.1842 38.887,30.0792 37.782,30.0792 C36.677,30.0792 35.782,29.1842 35.782,28.0792 C35.782,26.9742 36.677,26.0792 37.782,26.0792 C38.887,26.0792 39.782,26.9742 39.782,28.0792" id="Fill-139" fill="#423D51"></path>
                            <polyline id="Stroke-140" stroke="#423D51" stroke-width="2" points="29.5833 27.5833 31.9773 33.2503 28.6663 33.0833"></polyline>
                        </g>
                    </g>
                    <text id="$3,200" font-family="LucidaGrande-Bold, Lucida Grande" font-size="24" font-weight="bold" fill="#1EDDB2">
                        <tspan x="123" y="120">$</tspan>
                        <tspan x="138.832031" y="120" font-family="GTWalsheimProTrial-Bold, GT Walsheim Pro Trial">3,200</tspan>
                    </text>
                    <text id="$2,900" font-family="LucidaGrande-Bold, Lucida Grande" font-size="24" font-weight="bold" fill="#1EDDB2">
                        <tspan x="93" y="348">$</tspan>
                        <tspan x="108.832031" y="348" font-family="GTWalsheimProTrial-Bold, GT Walsheim Pro Trial">2,900</tspan>
                    </text>
                    <text id="2.8%" font-family="GTWalsheimProTrial-Bold, GT Walsheim Pro Trial" font-size="24" font-weight="bold" fill="#FF7B5C">
                        <tspan x="290" y="121">2.8</tspan>
                        <tspan x="325.88" y="121" font-family="LucidaGrande-Bold, Lucida Grande">%</tspan>
                    </text>
                    <text id="3.2%" font-family="GTWalsheimProTrial-Bold, GT Walsheim Pro Trial" font-size="24" font-weight="bold" fill="#FF7B5C">
                        <tspan x="254" y="349">3.2</tspan>
                        <tspan x="289.52" y="349" font-family="LucidaGrande-Bold, Lucida Grande">%</tspan>
                    </text>
                </g>
            </g>
        </g>
    </g>
</svg>