<?xml version="1.0" encoding="UTF-8" standalone="no"?>
<svg width="43px" height="43px" viewBox="0 0 43 43" version="1.1" xmlns="http://www.w3.org/2000/svg" xmlns:xlink="http://www.w3.org/1999/xlink">
    <!-- Generator: Sketch 39.1 (31720) - http://www.bohemiancoding.com/sketch -->
    <title>Chat</title>
    <desc>Created with Sketch.</desc>
    <defs></defs>
    <g id="Page-1" stroke="none" stroke-width="1" fill="none" fill-rule="evenodd">
        <g id="Artboard-1" transform="translate(-832.000000, -920.000000)" fill="#1A1918">
            <path d="M873.531,959.007 C871.628,958.085 870.033,956.59 868.983,954.756 C872.285,950.934 874.095,946.097 874.095,941.058 C874.095,929.478 864.674,920.058 853.095,920.058 C841.516,920.058 832.095,929.478 832.095,941.058 C832.095,952.637 841.516,962.058 853.095,962.058 C856.299,962.058 859.374,961.35 862.247,959.952 C864.063,961.314 866.278,962.058 868.553,962.058 C870.306,962.058 872.042,961.619 873.573,960.787 C873.902,960.607 874.104,960.259 874.095,959.884 C874.086,959.509 873.869,959.171 873.531,959.007 L873.531,959.007 Z M863.02,958.009 C862.835,957.851 862.603,957.769 862.37,957.769 C862.212,957.769 862.051,957.807 861.905,957.883 C859.155,959.327 856.191,960.058 853.095,960.058 C842.619,960.058 834.095,951.535 834.095,941.058 C834.095,930.581 842.619,922.058 853.095,922.058 C863.572,922.058 872.095,930.581 872.095,941.058 C872.095,945.83 870.299,950.401 867.04,953.931 C866.759,954.235 866.694,954.679 866.877,955.05 C867.794,956.921 869.174,958.537 870.861,959.741 C868.176,960.49 865.161,959.84 863.02,958.009 L863.02,958.009 Z" id="Chat"></path>
        </g>
    </g>
</svg>