
<svg width="197px" height="119px" viewBox="83 29 197 119" version="1.1" xmlns="http://www.w3.org/2000/svg" xmlns:xlink="http://www.w3.org/1999/xlink">
    <!-- Generator: Sketch 39.1 (31720) - http://www.bohemiancoding.com/sketch -->
    <desc>Created with Sketch.</desc>
    <defs></defs>
    <g id="Company-Illo" stroke="none" stroke-width="1" fill="none" fill-rule="evenodd" transform="translate(84.000000, 29.000000)">
        <polygon id="Stroke-1" stroke="#423D51" stroke-width="3" points="149.88 114.555 173.88 114.555 173.88 38.555 149.88 38.555"></polygon>
        <polygon id="Fill-3" fill="#423D51" points="153.386 113.715 161.88 113.715 161.88 48.914 153.386 48.914"></polygon>
        <g id="Group-8" transform="translate(30.000000, 14.065000)" stroke-width="3" stroke="#423D51">
            <polygon id="Stroke-4" points="123.386 99.65 131.88 99.65 131.88 34.849 123.386 34.849"></polygon>
            <polygon id="Stroke-6" points="0.785 100.49 24.785 100.49 24.785 24.49 0.785 24.49"></polygon>
            <polygon id="Stroke-7" points="24.785 100.49 65.785 100.49 65.785 0.49 24.785 0.49"></polygon>
        </g>
        <polygon id="Fill-9" fill="#FFAE38" points="17.4438 0.0001 12.3348 5.1091 5.1088 5.1091 5.1088 12.3341 -0.000199999999 17.4441 5.1088 22.5531 5.1088 29.7781 12.3348 29.7781 17.4438 34.8881 22.5528 29.7781 29.7788 29.7781 29.7788 22.5531 34.8888 17.4441 29.7788 12.3341 29.7788 5.1091 22.5528 5.1091"></polygon>
        <polygon id="Fill-10" fill="#423D51" points="46.115 114.555 53.057 114.555 53.057 38.555 46.115 38.555"></polygon>
        <g id="Group-43" transform="translate(13.000000, 25.065000)">
            <polygon id="Stroke-11" stroke="#423D51" stroke-width="3" points="33.115 89.49 40.057 89.49 40.057 13.49 33.115 13.49"></polygon>
            <path d="M10.2132,91 L10.2132,71.892" id="Stroke-13" stroke="#1FDDB2" stroke-width="3"></path>
            <path d="M19.8961,67.5755 C19.8961,72.9235 15.5611,77.2585 10.2131,77.2585 C4.8651,77.2585 0.5301,72.9235 0.5301,67.5755 C0.5301,62.2275 4.8651,57.8925 10.2131,57.8925 C15.5611,57.8925 19.8961,62.2275 19.8961,67.5755" id="Fill-14" fill="#1FDDB2"></path>
            <path d="M167.3388,91 L167.3388,63.087" id="Stroke-15" stroke="#1FDDB2" stroke-width="3"></path>
            <path d="M179.4792,57.5675 C179.4792,64.2725 174.0442,69.7075 167.3392,69.7075 C160.6342,69.7075 155.1982,64.2725 155.1982,57.5675 C155.1982,50.8625 160.6342,45.4275 167.3392,45.4275 C174.0442,45.4275 179.4792,50.8625 179.4792,57.5675" id="Fill-16" fill="#1FDDB2"></path>
            <path d="M177.3468,91 L177.3468,76.583" id="Stroke-17" stroke="#1FDDB2" stroke-width="3"></path>
            <path d="M182.443,76.5827 C182.443,79.3977 180.161,81.6787 177.347,81.6787 C174.532,81.6787 172.251,79.3977 172.251,76.5827 C172.251,73.7677 174.532,71.4867 177.347,71.4867 C180.161,71.4867 182.443,73.7677 182.443,76.5827" id="Fill-18" fill="#1FDDB2"></path>
            <path d="M56.1982,0.1106 L56.1982,8.7386" id="Stroke-19" stroke="#423D51" stroke-width="3"></path>
            <path d="M69.3019,0.1106 L69.3019,8.7386" id="Stroke-20" stroke="#423D51" stroke-width="3"></path>
            <path d="M56.1982,15.2214 L56.1982,23.8494" id="Stroke-21" stroke="#423D51" stroke-width="3"></path>
            <path d="M69.3019,15.2214 L69.3019,23.8494" id="Stroke-22" stroke="#423D51" stroke-width="3"></path>
            <path d="M56.1982,30.3321 L56.1982,38.9601" id="Stroke-23" stroke="#423D51" stroke-width="3"></path>
            <path d="M69.3019,30.3321 L69.3019,38.9601" id="Stroke-24" stroke="#423D51" stroke-width="3"></path>
            <path d="M56.1982,44.3634 L56.1982,52.9914" id="Stroke-25" stroke="#423D51" stroke-width="3"></path>
            <path d="M69.3019,44.3634 L69.3019,52.9914" id="Stroke-26" stroke="#423D51" stroke-width="3"></path>
            <path d="M56.1982,57.3155 L56.1982,65.9435" id="Stroke-27" stroke="#423D51" stroke-width="3"></path>
            <path d="M69.3019,57.3155 L69.3019,65.9435" id="Stroke-28" stroke="#423D51" stroke-width="3"></path>
            <path d="M56.1982,71.3468 L56.1982,79.9748" id="Stroke-29" stroke="#423D51" stroke-width="3"></path>
            <path d="M69.3019,71.3468 L69.3019,79.9748" id="Stroke-30" stroke="#423D51" stroke-width="3"></path>
            <polygon id="Fill-31" fill="#FFFFFF" points="82.785 89.49 141.946 89.49 141.946 23.85 82.785 23.85"></polygon>
            <polygon id="Stroke-32" stroke="#423D51" stroke-width="3" points="82.785 89.49 141.946 89.49 141.946 23.85 82.785 23.85"></polygon>
            <path d="M101.9515,23.8492 L101.9515,9.8232" id="Stroke-33" stroke="#423D51" stroke-width="3"></path>
            <path d="M121.9675,23.8492 L121.9675,9.8232" id="Stroke-34" stroke="#423D51" stroke-width="3"></path>
            <polygon id="Fill-35" fill="#FF7A5C" points="93.032 15.221 131.699 15.221 131.699 4.424 93.032 4.424"></polygon>
            <polygon id="Stroke-36" stroke="#423D51" stroke-width="3" points="92.031 48.49 99.784 48.49 99.784 33.24 92.031 33.24"></polygon>
            <polygon id="Stroke-37" stroke="#423D51" stroke-width="3" points="108.544 48.49 116.297 48.49 116.297 33.24 108.544 33.24"></polygon>
            <polygon id="Stroke-38" stroke="#423D51" stroke-width="3" points="125.057 48.49 132.81 48.49 132.81 33.24 125.057 33.24"></polygon>
            <polygon id="Stroke-39" stroke="#423D51" stroke-width="3" points="92.031 72.51 99.784 72.51 99.784 57.26 92.031 57.26"></polygon>
            <polygon id="Stroke-40" stroke="#423D51" stroke-width="3" points="108.544 72.51 116.297 72.51 116.297 57.26 108.544 57.26"></polygon>
            <polygon id="Stroke-41" stroke="#423D51" stroke-width="3" points="125.057 72.51 132.81 72.51 132.81 57.26 125.057 57.26"></polygon>
            <polygon id="Fill-42" fill="#423D51" points="107.171 89.49 117.671 89.49 117.671 78.99 107.171 78.99"></polygon>
        </g>
    </g>
</svg>