<svg xmlns="http://www.w3.org/2000/svg" viewBox="0 0 72 51"><defs><style>.cls-1,.cls-2{fill:#ff7b5c;}.cls-2{stroke:#fff;stroke-miterlimit:10;stroke-width:2px;}.cls-3{font-size:18px;fill:#fff;font-family:GTWalsheimProMedium, GT Walsheim Pro;}</style></defs><title>Asset 1</title><g id="Layer_2" data-name="Layer 2"><g id="Layer_1-2" data-name="Layer 1"><path class="cls-1" d="M9,0H69a3,3,0,0,1,3,3V9a0,0,0,0,1,0,0H6A0,0,0,0,1,6,9V3A3,3,0,0,1,9,0Z"/><path class="cls-1" d="M9,18H69a3,3,0,0,1,3,3V44a0,0,0,0,1,0,0H6a0,0,0,0,1,0,0V21A3,3,0,0,1,9,18Z" transform="translate(78 62) rotate(180)"/><circle class="cls-2" cx="14.5" cy="36.5" r="13.5"/><text class="cls-3" transform="translate(8.73 42.82)">$</text></g></g></svg>