<?xml version="1.0" encoding="UTF-8" standalone="no"?>
<svg width="171px" height="104px" viewBox="0 0 171 104" version="1.1" xmlns="http://www.w3.org/2000/svg" xmlns:xlink="http://www.w3.org/1999/xlink">
    <!-- Generator: Sketch 39.1 (31720) - http://www.bohemiancoding.com/sketch -->
    <title>Post Project</title>
    <desc>Created with Sketch.</desc>
    <defs>
        <polygon id="path-1" points="0 103.277 171 103.277 171 0 0 0"></polygon>
    </defs>
    <g id="Page-1" stroke="none" stroke-width="1" fill="none" fill-rule="evenodd">
        <g id="Post-Project">
            <path d="M153.2752,87.4998 L19.2752,87.4998 L19.2752,9.5508 C19.2752,5.1048 22.8802,1.4998 27.3262,1.4998 L145.2242,1.4998 C149.6702,1.4998 153.2752,5.1048 153.2752,9.5508 L153.2752,87.4998 L153.2752,87.4998 Z" id="Fill-1" fill="#423D51"></path>
            <path d="M153.2752,87.4998 L19.2752,87.4998 L19.2752,9.5508 C19.2752,5.1048 22.8802,1.4998 27.3262,1.4998 L145.2242,1.4998 C149.6702,1.4998 153.2752,5.1048 153.2752,9.5508 L153.2752,87.4998 L153.2752,87.4998 Z" id="Stroke-3" stroke="#423D51" stroke-width="3"></path>
            <path d="M157.0699,101.777 L13.9299,101.777 C7.0649,101.777 1.4999,96.212 1.4999,89.347 L1.4999,87.982 L169.4999,87.982 L169.4999,89.347 C169.4999,96.212 163.9349,101.777 157.0699,101.777 L157.0699,101.777 Z" id="Stroke-5" stroke="#423D51" stroke-width="3"></path>
            <mask id="mask-2" fill="white">
                <use xlink:href="#path-1"></use>
            </mask>
            <g id="Clip-8"></g>
            <polygon id="Fill-7" fill="#FFFFFF" points="25.275 82.179 147.275 82.179 147.275 7.5 25.275 7.5"></polygon>
            <polygon id="Stroke-9" stroke="#423D51" stroke-width="3" points="25.275 82.179 147.275 82.179 147.275 7.5 25.275 7.5"></polygon>
            <path d="M93.574,92.7931 L77.426,92.7931 C74.453,92.7931 72.043,90.3831 72.043,87.4101 L72.043,87.4101 L98.957,87.4101 L98.957,87.4101 C98.957,90.3831 96.547,92.7931 93.574,92.7931" id="Fill-10" fill="#423D51"></path>
            <path d="M93.574,92.7931 L77.426,92.7931 C74.453,92.7931 72.043,90.3831 72.043,87.4101 L72.043,87.4101 L98.957,87.4101 L98.957,87.4101 C98.957,90.3831 96.547,92.7931 93.574,92.7931 L93.574,92.7931 Z" id="Stroke-11" stroke="#423D51" stroke-width="3"></path>
            <path d="M24.3745,20.5241 L148.1755,20.5241" id="Stroke-12" stroke="#423D51" stroke-width="3"></path>
            <path d="M34.0042,13.953 C34.0042,15.058 33.1092,15.953 32.0042,15.953 C30.8992,15.953 30.0042,15.058 30.0042,13.953 C30.0042,12.848 30.8992,11.953 32.0042,11.953 C33.1092,11.953 34.0042,12.848 34.0042,13.953" id="Fill-13" fill="#FF7A5C"></path>
            <path d="M42.1266,13.953 C42.1266,15.058 41.2316,15.953 40.1266,15.953 C39.0216,15.953 38.1266,15.058 38.1266,13.953 C38.1266,12.848 39.0216,11.953 40.1266,11.953 C41.2316,11.953 42.1266,12.848 42.1266,13.953" id="Fill-14" fill="#FFAE38"></path>
            <path d="M50.5625,13.953 C50.5625,15.058 49.6675,15.953 48.5625,15.953 C47.4575,15.953 46.5625,15.058 46.5625,13.953 C46.5625,12.848 47.4575,11.953 48.5625,11.953 C49.6675,11.953 50.5625,12.848 50.5625,13.953" id="Fill-15" fill="#1FDDB2"></path>
            <polygon id="Fill-21" fill="#1FDDB2" points="95.507 50.476 137.674 50.476 137.674 29.996 95.507 29.996"></polygon>
            <path d="M86.0129,20.356 L86.0129,82.179" id="Stroke-22" stroke="#423D51" stroke-width="3"></path>
            <polygon id="Fill-23" fill="#FFAE38" points="95.508 66.571 113.591 66.571 113.591 56.476 95.508 56.476"></polygon>
            <polygon id="Fill-24" fill="#FFAE38" points="119.527 66.571 137.61 66.571 137.61 56.476 119.527 56.476"></polygon>
            <polygon id="Fill-25" fill="#FFAE38" points="95.508 80.725 113.591 80.725 113.591 72.57 95.508 72.57"></polygon>
            <polygon id="Fill-26" fill="#FFAE38" points="119.591 80.725 137.674 80.725 137.674 72.57 119.591 72.57"></polygon>
            <path d="M34.9464,31.5155 L64.6604,31.5155" id="Stroke-16" stroke="#423D51" stroke-width="3"></path>
            <path d="M43.6845,41.5235 L66.3715,41.5235" id="Stroke-17" stroke="#FF7A5C" stroke-width="3"></path>
            <path d="M43.6845,51.5315 L74.9645,51.5315" id="Stroke-18" stroke="#FF7A5C" stroke-width="3"></path>
            <path d="M34.9464,61.5395 L59.3244,61.5395" id="Stroke-19" stroke="#423D51" stroke-width="3"></path>
            <path d="M43.6845,71.5475 L73.3985,71.5475" id="Stroke-20" stroke="#1FDDB2" stroke-width="3"></path>
        </g>
    </g>
</svg>