<?xml version="1.0" encoding="UTF-8" standalone="no"?>
<svg width="490px" height="491px" viewBox="0 0 490 491" version="1.1" xmlns="http://www.w3.org/2000/svg" xmlns:xlink="http://www.w3.org/1999/xlink">
    <!-- Generator: Sketch 39.1 (31720) - http://www.bohemiancoding.com/sketch -->
    <title>Engage Illustration</title>
    <desc>Created with Sketch.</desc>
    <defs>
        <polygon id="path-1" points="0 491 489.94 491 489.94 0.349 0 0.349"></polygon>
    </defs>
    <g id="Page-1" stroke="none" stroke-width="1" fill="none" fill-rule="evenodd">
        <g id="About-Page" transform="translate(-799.000000, -1759.000000)">
            <g id="Engage-Developer" transform="translate(149.000000, 1758.000000)">
                <g id="Engage-Illustration" transform="translate(650.000000, 0.000000)">
                    <g id="Page-1">
                        <g id="Group-10" transform="translate(0.000000, 0.651000)">
                            <path d="M273.1519,104.3999 L197.4869,104.3999 C193.7019,104.3999 190.6339,107.4679 190.6339,111.2529 L190.6339,130.4089 L280.0049,130.4089 L280.0049,111.2529 C280.0049,107.4679 276.9369,104.3999 273.1519,104.3999 L273.1519,104.3999 Z" id="Stroke-1" stroke="#ECECED" stroke-width="3"></path>
                            <path d="M251.3847,291.2365 L85.3767,291.2365 C78.7497,291.2365 73.3767,285.8635 73.3767,279.2365 L73.3767,183.2365 C73.3767,176.6095 78.7497,171.2365 85.3767,171.2365 L251.3847,171.2365 C258.0117,171.2365 263.3847,176.6095 263.3847,183.2365 L263.3847,279.2365 C263.3847,285.8635 258.0117,291.2365 251.3847,291.2365 L251.3847,291.2365 Z" id="Stroke-3" stroke="#423D51" stroke-width="3"></path>
                            <path d="M475.6699,77.3491 L324.3409,77.3491 C316.7709,77.3491 310.6339,83.4861 310.6339,91.0561 L310.6339,129.3661 L489.3769,129.3661 L489.3769,91.0561 C489.3769,83.4861 483.2399,77.3491 475.6699,77.3491" id="Fill-5" fill="#423D51"></path>
                            <path d="M6.3767,129.3663 L489.3767,129.3663" id="Stroke-7" stroke="#423D51" stroke-width="3"></path>
                            <mask id="mask-2" fill="white">
                                <use xlink:href="#path-1"></use>
                            </mask>
                            <g id="Clip-9"></g>
                            <text id="Signed" mask="url(#mask-2)" font-family="GTWalsheimProTrial-Bold, GT Walsheim Pro Trial" font-size="21.3301" font-weight="bold" fill="#1FDDB2">
                                <tspan x="418.6777" y="403.741247">Signed</tspan>
                            </text>
                        </g>
                        <text id="NDA" font-family="GTWalsheimProTrial-Bold, GT Walsheim Pro Trial" font-size="21.3301" font-weight="bold" letter-spacing="0.1" fill="#423D51">
                            <tspan x="317.9277" y="405.392247">NDA</tspan>
                        </text>
                        <text id="Peggy" font-family="GTWalsheimProTrial-Bold, GT Walsheim Pro Trial" font-size="21.3301" font-weight="bold" fill="#423D51">
                            <tspan x="136.493869" y="404.520227">Peggy</tspan>
                        </text>
                        <text id="Project-Details" font-family="GTWalsheimProTrial-Bold, GT Walsheim Pro Trial" font-size="19.8403" font-weight="bold" fill="#FFFFFF">
                            <tspan x="331.4287" y="109.846005">Project Details</tspan>
                        </text>
                        <g id="Group-98" transform="translate(0.000000, 0.651000)">
                            <path d="M148,127.0261 C148,167.8951 114.869,201.0261 74,201.0261 C33.131,201.0261 0,167.8951 0,127.0261 C0,86.1571 33.131,53.0261 74,53.0261 C114.869,53.0261 148,86.1571 148,127.0261 L148,127.0261 Z" id="Fill-11" fill="#423D51"></path>
                            <path d="M13.3077,127.3745 C13.3077,160.5115 40.1707,187.3745 73.3077,187.3745 C106.4447,187.3745 133.3077,160.5115 133.3077,127.3745 C133.3077,94.2375 106.4447,67.3745 73.3077,67.3745 C40.1707,67.3745 13.3077,94.2375 13.3077,127.3745" id="Fill-13" fill="#FFFFFF"></path>
                            <path d="M29.69,179.0433 L29.69,164.3523 C29.69,154.4193 37.742,146.3673 47.675,146.3673 L95.636,146.3673 C105.569,146.3673 113.621,154.4193 113.621,164.3523 L113.621,182.0413" id="Stroke-15" stroke="#423D51" stroke-width="3"></path>
                            <path d="M85.4572,150.303 C85.4572,154.864 79.5582,158.561 72.2812,158.561 C65.0042,158.561 59.1042,154.864 59.1042,150.303 C59.1042,145.742 65.0042,142.045 72.2812,142.045 C79.5582,142.045 85.4572,145.742 85.4572,150.303" id="Fill-17" fill="#FFFFFF"></path>
                            <g id="Group-22" transform="translate(57.000000, 149.000000)">
                                <path d="M0.4578,0.6796 C0.4578,0.6796 11.4938,20.6636 31.1138,0.6796" id="Fill-19" fill="#FFFFFF"></path>
                                <path d="M0.4578,0.6796 C0.4578,0.6796 11.4938,20.6636 31.1138,0.6796" id="Stroke-21" stroke="#423D51" stroke-width="3"></path>
                            </g>
                            <path d="M42.1929,98.6171 C42.1929,98.6171 48.1109,136.9421 37.6809,150.2411 C36.6839,151.5131 37.5989,153.3731 39.2139,153.4361 C47.4799,153.7601 64.1359,152.9151 66.0729,141.0961" id="Fill-23" fill="#FFAE38"></path>
                            <path d="M101.0474,110.5707 C101.0474,110.5707 95.2534,136.9617 105.5604,150.2517 C106.5474,151.5237 105.6284,153.3727 104.0194,153.4357 C95.7584,153.7617 79.0814,152.9227 77.1434,141.0957" id="Fill-25" fill="#FFAE38"></path>
                            <path d="M95.6178,98.6171 L96.7098,120.1511 C96.7098,134.1211 85.3858,145.4451 71.4158,145.4451 C57.4468,145.4451 46.1228,134.1211 46.1228,120.1511 L46.1228,88.4661" id="Fill-27" fill="#FFFFFF"></path>
                            <path d="M96.8171,104.293 C100.2841,104.293 103.0951,107.104 103.0951,110.571 C103.0951,114.038 100.2841,116.849 96.8171,116.849" id="Fill-29" fill="#423D51"></path>
                            <path d="M78.4092,129.6721 C78.4092,133.3421 75.4342,136.3171 71.7642,136.3171 C68.0942,136.3171 65.1192,133.3421 65.1192,129.6721" id="Fill-31" fill="#423D51"></path>
                            <path d="M73.9812,133.5256 C73.9812,134.8096 72.9402,135.8516 71.6552,135.8516 C70.3712,135.8516 69.3302,134.8096 69.3302,133.5256" id="Fill-33" fill="#FF7A5C"></path>
                            <path d="M64.756,111.3764 C64.756,112.7984 63.604,113.9504 62.182,113.9504 C60.761,113.9504 59.608,112.7984 59.608,111.3764 C59.608,109.9544 60.761,108.8024 62.182,108.8024 C63.604,108.8024 64.756,109.9544 64.756,111.3764" id="Fill-35" fill="#423D51"></path>
                            <path d="M83.9333,111.3764 C83.9333,112.7984 82.7813,113.9504 81.3593,113.9504 C79.9383,113.9504 78.7853,112.7984 78.7853,111.3764 C78.7853,109.9544 79.9383,108.8024 81.3593,108.8024 C82.7813,108.8024 83.9333,109.9544 83.9333,111.3764" id="Fill-37" fill="#423D51"></path>
                            <polygon id="Fill-39" fill="#FFFFFF" points="65.374 150.861 77.042 150.861 77.042 139.87 65.374 139.87"></polygon>
                            <path d="M100.2149,116.9554 C100.2149,118.3094 99.1179,119.4064 97.7639,119.4064 C96.4109,119.4064 95.3129,118.3094 95.3129,116.9554 C95.3129,115.6014 96.4109,114.5044 97.7639,114.5044 C99.1179,114.5044 100.2149,115.6014 100.2149,116.9554" id="Fill-41" fill="#FF7A5C"></path>
                            <g id="Group-44" transform="translate(71.000000, 116.000000)">
                                <path d="M0.2271,0.028 C0.2271,0.028 4.3651,2.743 1.0451,7.578" id="Fill-42" fill="#FFFFFF"></path>
                                <path d="M0.2271,0.028 C0.2271,0.028 4.3651,2.743 1.0451,7.578" id="Stroke-43" stroke="#423D51" stroke-width="3"></path>
                            </g>
                            <path d="M46.5612,166.8022 L46.5612,192.3742" id="Stroke-45" stroke="#423D51" stroke-width="3"></path>
                            <path d="M92.8799,165.7122 L92.8799,192.3742" id="Stroke-46" stroke="#423D51" stroke-width="3"></path>
                            <path d="M106.8262,111.6789 C104.1782,108.6169 101.5102,105.5039 99.5362,101.8159 C97.3482,97.7259 96.1692,93.0829 94.7512,88.6119 C93.4542,84.5189 90.7942,81.0089 87.7752,78.3959 C85.1612,76.1329 82.1242,74.5009 78.9172,73.6799 C68.8612,71.1059 57.3762,74.2809 50.0242,82.7429 C49.1862,83.7069 48.4142,84.7469 47.7132,85.8419 C45.8752,88.7119 44.5272,91.9939 43.1512,95.1669 C41.7472,98.4089 39.7952,101.4839 37.9372,104.4219 C37.2292,105.5409 38.1172,106.9669 39.3132,106.7419 C51.6692,104.4139 58.5502,95.3549 61.9742,90.0359 C71.0602,106.8019 92.2542,112.5459 105.5842,114.5029 C106.9752,114.7069 107.8092,112.8159 106.8262,111.6789" id="Fill-47" fill="#FFAE38"></path>
                            <path d="M46.7245,116.9554 C43.2575,116.9554 40.4465,114.1444 40.4465,110.6774 C40.4465,107.2104 43.2575,104.3994 46.7245,104.3994" id="Fill-48" fill="#423D51"></path>
                            <path d="M46.5439,113.8558 C44.7889,113.8558 43.3659,112.4328 43.3659,110.6778 C43.3659,108.9228 44.7889,107.4998 46.5439,107.4998 L51.8739,107.4998 L51.8739,113.8558 L46.5439,113.8558 Z" id="Fill-49" fill="#FFFFFF"></path>
                            <path d="M47.853,116.9554 C47.853,118.3094 46.756,119.4064 45.402,119.4064 C44.049,119.4064 42.951,118.3094 42.951,116.9554 C42.951,115.6014 44.049,114.5044 45.402,114.5044 C46.756,114.5044 47.853,115.6014 47.853,116.9554" id="Fill-50" fill="#FF7A5C"></path>
                            <path d="M144.0558,67.187 C144.0558,79.97 133.6928,90.333 120.9098,90.333 C108.1268,90.333 97.7638,79.97 97.7638,67.187 C97.7638,54.404 108.1268,44.041 120.9098,44.041 C133.6928,44.041 144.0558,54.404 144.0558,67.187" id="Fill-51" fill="#1FDDB2"></path>
                            <polyline id="Stroke-52" stroke="#FFFFFF" stroke-width="3" points="112.696 68.9148 119.521 74.9528 127.122 59.4208"></polyline>
                            <path d="M93.6127,21.6562 L97.1547,28.1322 C97.2367,28.2822 97.3597,28.4052 97.5097,28.4872 L103.9857,32.0292 C104.6067,32.3682 104.6067,33.2602 103.9857,33.5992 L97.5097,37.1412 C97.3597,37.2232 97.2367,37.3462 97.1547,37.4962 L93.6127,43.9722 C93.2737,44.5922 92.3827,44.5922 92.0427,43.9722 L88.5007,37.4962 C88.4187,37.3462 88.2957,37.2232 88.1457,37.1412 L81.6697,33.5992 C81.0497,33.2602 81.0497,32.3682 81.6697,32.0292 L88.1457,28.4872 C88.2957,28.4052 88.4187,28.2822 88.5007,28.1322 L92.0427,21.6562 C92.3827,21.0362 93.2737,21.0362 93.6127,21.6562" id="Fill-53" fill="#ECECED"></path>
                            <path d="M166.6678,27.9233 L171.7838,37.2773 C171.9028,37.4943 172.0808,37.6723 172.2978,37.7913 L181.6518,42.9073 C182.5478,43.3973 182.5478,44.6843 181.6518,45.1753 L172.2978,50.2913 C172.0808,50.4093 171.9028,50.5883 171.7838,50.8043 L166.6678,60.1593 C166.1778,61.0553 164.8908,61.0553 164.3998,60.1593 L159.2838,50.8043 C159.1658,50.5883 158.9878,50.4093 158.7708,50.2913 L149.4158,45.1753 C148.5198,44.6843 148.5198,43.3973 149.4158,42.9073 L158.7708,37.7913 C158.9878,37.6723 159.1658,37.4943 159.2838,37.2773 L164.3998,27.9233 C164.8908,27.0273 166.1778,27.0273 166.6678,27.9233" id="Fill-54" fill="#ECECED"></path>
                            <path d="M136.3911,27.2511 C136.3911,28.9541 135.0111,30.3341 133.3081,30.3341 C131.6051,30.3341 130.2241,28.9541 130.2241,27.2511 C130.2241,25.5481 131.6051,24.1681 133.3081,24.1681 C135.0111,24.1681 136.3911,25.5481 136.3911,27.2511" id="Fill-55" fill="#ECECED"></path>
                            <path d="M160.46,83.5158 C160.46,85.2188 159.08,86.5988 157.377,86.5988 C155.674,86.5988 154.293,85.2188 154.293,83.5158 C154.293,81.8128 155.674,80.4328 157.377,80.4328 C159.08,80.4328 160.46,81.8128 160.46,83.5158" id="Fill-56" fill="#ECECED"></path>
                            <path d="M118.5095,5.2376 C118.5095,7.9376 116.3205,10.1266 113.6205,10.1266 C110.9215,10.1266 108.7325,7.9376 108.7325,5.2376 C108.7325,2.5376 110.9215,0.3496 113.6205,0.3496 C116.3205,0.3496 118.5095,2.5376 118.5095,5.2376" id="Fill-57" fill="#ECECED"></path>
                            <path d="M161.4799,224.9412 L161.4799,239.5332 C161.4799,241.1602 163.2319,242.1862 164.6509,241.3882 L177.6319,234.0922 C179.0799,233.2792 179.0799,231.1952 177.6319,230.3822 L164.6509,223.0862 C163.2319,222.2882 161.4799,223.3142 161.4799,224.9412" id="Fill-58" fill="#1FDDB2"></path>
                            <path d="M200.9713,232.2373 C200.9713,250.2363 186.3803,264.8283 168.3803,264.8283 C150.3813,264.8283 135.7903,250.2363 135.7903,232.2373 C135.7903,214.2383 150.3813,199.6463 168.3803,199.6463 C186.3803,199.6463 200.9713,214.2383 200.9713,232.2373 L200.9713,232.2373 Z" id="Stroke-59" stroke="#1FDDB2" stroke-width="3"></path>
                            <polygon id="Stroke-60" stroke="#423D51" stroke-width="3" points="298.4557 388.937 298.4557 418.445 264.3557 418.445 264.3557 378.445 287.9637 378.445"></polygon>
                            <polyline id="Stroke-61" stroke="#423D51" stroke-width="3" points="298.4557 388.937 287.9637 388.937 287.9637 378.445"></polyline>
                            <path d="M270.0125,386.6429 L279.6035,386.6429" id="Stroke-62" stroke="#423D51" stroke-width="3"></path>
                            <path d="M270.0125,394.5183 L292.7375,394.5183" id="Stroke-63" stroke="#423D51" stroke-width="3"></path>
                            <path d="M270.0125,402.3938 L292.7375,402.3938" id="Stroke-64" stroke="#423D51" stroke-width="3"></path>
                            <path d="M270.0125,410.2693 L292.7375,410.2693" id="Stroke-65" stroke="#423D51" stroke-width="3"></path>
                            <path d="M117.7925,397.444 C117.7925,409.594 107.9425,419.444 95.7925,419.444 C83.6425,419.444 73.7925,409.594 73.7925,397.444 C73.7925,385.294 83.6425,375.444 95.7925,375.444 C107.9425,375.444 117.7925,385.294 117.7925,397.444" id="Fill-66" fill="#FFFFFF"></path>
                            <path d="M117.7925,397.444 C117.7925,409.594 107.9425,419.444 95.7925,419.444 C83.6425,419.444 73.7925,409.594 73.7925,397.444 C73.7925,385.294 83.6425,375.444 95.7925,375.444 C107.9425,375.444 117.7925,385.294 117.7925,397.444 L117.7925,397.444 Z" id="Stroke-67" stroke="#423D51" stroke-width="3"></path>
                            <path d="M91.3286,392.9863 C91.3286,394.2363 90.3156,395.2493 89.0656,395.2493 C87.8166,395.2493 86.8036,394.2363 86.8036,392.9863 C86.8036,391.7363 87.8166,390.7233 89.0656,390.7233 C90.3156,390.7233 91.3286,391.7363 91.3286,392.9863" id="Fill-68" fill="#423D51"></path>
                            <path d="M105.4303,392.9863 C105.4303,394.2363 104.4173,395.2493 103.1673,395.2493 C101.9183,395.2493 100.9053,394.2363 100.9053,392.9863 C100.9053,391.7363 101.9183,390.7233 103.1673,390.7233 C104.4173,390.7233 105.4303,391.7363 105.4303,392.9863" id="Fill-69" fill="#423D51"></path>
                            <path d="M100.0496,402.1452 C100.0496,404.4962 98.1436,406.4022 95.7926,406.4022 C93.4416,406.4022 91.5356,404.4962 91.5356,402.1452" id="Fill-70" fill="#423D51"></path>
                            <polyline id="Fill-71" fill="#423D51" points="298.4557 388.937 287.9637 388.937 287.9637 378.445"></polyline>
                            <polygon id="Stroke-72" stroke="#ECECED" stroke-width="3" points="298.882 457.7545 298.882 487.9995 263.93 487.9995 263.93 446.9995 288.127 446.9995"></polygon>
                            <polyline id="Stroke-73" stroke="#ECECED" stroke-width="3" points="298.882 457.7545 288.127 457.7545 288.127 446.9995"></polyline>
                            <path d="M269.7277,455.403 L279.5577,455.403" id="Stroke-74" stroke="#ECECED" stroke-width="3"></path>
                            <path d="M269.7277,463.4754 L293.0207,463.4754" id="Stroke-75" stroke="#ECECED" stroke-width="3"></path>
                            <path d="M269.7277,471.5477 L293.0207,471.5477" id="Stroke-76" stroke="#ECECED" stroke-width="3"></path>
                            <path d="M269.7277,479.6201 L293.0207,479.6201" id="Stroke-77" stroke="#ECECED" stroke-width="3"></path>
                            <path d="M117.7925,467.5 C117.7925,479.65 107.9425,489.5 95.7925,489.5 C83.6425,489.5 73.7925,479.65 73.7925,467.5 C73.7925,455.35 83.6425,445.5 95.7925,445.5 C107.9425,445.5 117.7925,455.35 117.7925,467.5" id="Fill-78" fill="#FFFFFF"></path>
                            <path d="M117.7925,467.5 C117.7925,479.65 107.9425,489.5 95.7925,489.5 C83.6425,489.5 73.7925,479.65 73.7925,467.5 C73.7925,455.35 83.6425,445.5 95.7925,445.5 C107.9425,445.5 117.7925,455.35 117.7925,467.5 L117.7925,467.5 Z" id="Stroke-79" stroke="#ECECED" stroke-width="3"></path>
                            <path d="M91.3286,463.0423 C91.3286,464.2923 90.3156,465.3053 89.0656,465.3053 C87.8166,465.3053 86.8036,464.2923 86.8036,463.0423 C86.8036,461.7923 87.8166,460.7793 89.0656,460.7793 C90.3156,460.7793 91.3286,461.7923 91.3286,463.0423" id="Fill-80" fill="#ECECED"></path>
                            <path d="M105.4303,463.0423 C105.4303,464.2923 104.4173,465.3053 103.1673,465.3053 C101.9183,465.3053 100.9053,464.2923 100.9053,463.0423 C100.9053,461.7923 101.9183,460.7793 103.1673,460.7793 C104.4173,460.7793 105.4303,461.7923 105.4303,463.0423" id="Fill-81" fill="#ECECED"></path>
                            <path d="M100.0496,472.2012 C100.0496,474.5522 98.1436,476.4582 95.7926,476.4582 C93.4416,476.4582 91.5356,474.5522 91.5356,472.2012" id="Fill-82" fill="#ECECED"></path>
                            <polyline id="Fill-83" fill="#ECECED" points="298.882 457.7545 288.127 457.7545 288.127 446.9995"></polyline>
                            <path d="M303.0286,196.2565 L367.3846,196.2565" id="Stroke-84" stroke="#423D51" stroke-width="3"></path>
                            <path d="M101.1297,330.3658 L120.9097,330.3658" id="Stroke-85" stroke="#423D51" stroke-width="3"></path>
                            <path d="M165.4283,330.3658 L193.4043,330.3658" id="Stroke-86" stroke="#423D51" stroke-width="3"></path>
                            <path d="M235.3568,330.3658 L263.3848,330.3658" id="Stroke-87" stroke="#423D51" stroke-width="3"></path>
                            <path d="M134.383,467.9031 L200.971,467.9031" id="Stroke-88" stroke="#ECECED" stroke-width="3"></path>
                            <path d="M321.5326,467.9031 L367.4656,467.9031" id="Stroke-89" stroke="#ECECED" stroke-width="3"></path>
                            <path d="M421.6126,467.9031 L488.2006,467.9031" id="Stroke-90" stroke="#ECECED" stroke-width="3"></path>
                            <path d="M303.0286,219.3793 L431.9026,219.3793" id="Stroke-91" stroke="#423D51" stroke-width="3"></path>
                            <path d="M303.0286,242.5022 L460.7416,242.5022" id="Stroke-92" stroke="#423D51" stroke-width="3"></path>
                            <path d="M303.0286,265.625 L440.8226,265.625" id="Stroke-93" stroke="#423D51" stroke-width="3"></path>
                            <path d="M380.925,192.5703 C383.089,192.5703 384.574,194.2493 384.574,196.7043 C384.574,201.6443 382.088,203.3893 377.857,203.4223 L377.857,201.4183 C379.246,201.4183 380.15,201.0633 380.796,200.5793 C381.41,200.0613 381.7,199.4163 381.765,198.7713 C381.667,198.8673 381.28,199.0283 380.925,199.0283 C378.955,199.0283 377.695,197.5753 377.695,195.8313 C377.695,194.0233 379.148,192.5703 380.925,192.5703" id="Fill-94" fill="#1FDDB2"></path>
                            <path d="M90.9878,330.3658 C90.9878,334.9888 87.2408,338.7358 82.6178,338.7358 C77.9958,338.7358 74.2478,334.9888 74.2478,330.3658 C74.2478,325.7428 77.9958,321.9958 82.6178,321.9958 C87.2408,321.9958 90.9878,325.7428 90.9878,330.3658" id="Fill-95" fill="#1FDDB2"></path>
                            <polygon id="Fill-96" fill="#FFAE38" points="140.039 338.736 156.779 338.736 156.779 321.996 140.039 321.996"></polygon>
                            <polygon id="Fill-97" fill="#FF7A5C" points="219.7068 322.8325 211.0998 337.8985 228.3138 337.8985"></polygon>
                        </g>
                    </g>
                </g>
            </g>
        </g>
    </g>
</svg>