
<svg width="183px" height="120px" viewBox="823 341 183 120" version="1.1" xmlns="http://www.w3.org/2000/svg" xmlns:xlink="http://www.w3.org/1999/xlink">
    <!-- Generator: Sketch 39.1 (31720) - http://www.bohemiancoding.com/sketch -->
    <desc>Created with Sketch.</desc>
    <defs>
        <polygon id="path-1" points="97.4088 0.041 0.1758 0.041 0.1758 97.2742 97.4088 97.2742 97.4088 0.041"></polygon>
        <polygon id="path-3" points="0 119.959 182.503 119.959 182.503 1 0 1"></polygon>
    </defs>
    <g id="Page-1" stroke="none" stroke-width="1" fill="none" fill-rule="evenodd" transform="translate(823.000000, 341.000000)">
        <path d="M34.0681,73.5187 C33.8331,73.5187 33.5971,73.5097 33.3621,73.4927 C28.5191,73.1337 25.5221,69.1587 25.3971,68.9897 L27.8071,67.2047 L26.6021,68.0967 L27.8041,67.1997 C27.8271,67.2297 30.1451,70.2597 33.6081,70.5027 C35.9701,70.6677 38.4321,69.5037 40.9001,67.0367 L43.0211,69.1577 C40.1251,72.0547 37.1161,73.5187 34.0681,73.5187 L34.0681,73.5187 Z" id="Fill-1" fill="#423D51"></path>
        <path d="M135.5219,88.3029 L136.5609,90.4079 C136.6619,90.6119 136.8559,90.7529 137.0809,90.7859 L139.4039,91.1239 C139.9709,91.2059 140.1969,91.9019 139.7869,92.3009 L138.1059,93.9399 C137.9429,94.0989 137.8689,94.3269 137.9069,94.5509 L138.3039,96.8649 C138.4009,97.4289 137.8089,97.8589 137.3019,97.5929 L135.2239,96.5009 C135.0229,96.3949 134.7829,96.3949 134.5819,96.5009 L132.5029,97.5929 C131.9969,97.8589 131.4049,97.4289 131.5019,96.8649 L131.8979,94.5509 C131.9369,94.3269 131.8629,94.0989 131.6999,93.9399 L130.0189,92.3009 C129.6089,91.9019 129.8349,91.2059 130.4009,91.1239 L132.7249,90.7859 C132.9499,90.7529 133.1439,90.6119 133.2449,90.4079 L134.2839,88.3029 C134.5369,87.7899 135.2689,87.7899 135.5219,88.3029" id="Fill-3" fill="#FFAE38"></path>
        <path d="M148.6431,88.3029 L149.6821,90.4079 C149.7831,90.6119 149.9771,90.7529 150.2021,90.7859 L152.5251,91.1239 C153.0921,91.2059 153.3181,91.9019 152.9081,92.3009 L151.2271,93.9399 C151.0641,94.0989 150.9901,94.3269 151.0281,94.5509 L151.4251,96.8649 C151.5221,97.4289 150.9301,97.8589 150.4231,97.5929 L148.3451,96.5009 C148.1441,96.3949 147.9041,96.3949 147.7031,96.5009 L145.6241,97.5929 C145.1181,97.8589 144.5261,97.4289 144.6231,96.8649 L145.0191,94.5509 C145.0581,94.3269 144.9841,94.0989 144.8211,93.9399 L143.1401,92.3009 C142.7301,91.9019 142.9561,91.2059 143.5221,91.1239 L145.8461,90.7859 C146.0711,90.7529 146.2651,90.6119 146.3661,90.4079 L147.4051,88.3029 C147.6581,87.7899 148.3901,87.7899 148.6431,88.3029" id="Fill-5" fill="#FFAE38"></path>
        <path d="M161.7643,88.3029 L162.8033,90.4079 C162.9043,90.6119 163.0983,90.7529 163.3233,90.7859 L165.6463,91.1239 C166.2133,91.2059 166.4393,91.9019 166.0293,92.3009 L164.3483,93.9399 C164.1853,94.0989 164.1113,94.3269 164.1493,94.5509 L164.5463,96.8649 C164.6433,97.4289 164.0513,97.8589 163.5443,97.5929 L161.4663,96.5009 C161.2653,96.3949 161.0253,96.3949 160.8243,96.5009 L158.7453,97.5929 C158.2393,97.8589 157.6473,97.4289 157.7443,96.8649 L158.1403,94.5509 C158.1793,94.3269 158.1053,94.0989 157.9423,93.9399 L156.2613,92.3009 C155.8513,91.9019 156.0773,91.2059 156.6433,91.1239 L158.9673,90.7859 C159.1923,90.7529 159.3863,90.6119 159.4873,90.4079 L160.5263,88.3029 C160.7793,87.7899 161.5113,87.7899 161.7643,88.3029" id="Fill-7" fill="#FFAE38"></path>
        <path d="M174.8855,88.3029 L175.9245,90.4079 C176.0255,90.6119 176.2195,90.7529 176.4445,90.7859 L178.7675,91.1239 C179.3345,91.2059 179.5605,91.9019 179.1505,92.3009 L177.4695,93.9399 C177.3065,94.0989 177.2325,94.3269 177.2705,94.5509 L177.6675,96.8649 C177.7645,97.4289 177.1725,97.8589 176.6655,97.5929 L174.5875,96.5009 C174.3865,96.3949 174.1465,96.3949 173.9455,96.5009 L171.8665,97.5929 C171.3605,97.8589 170.7685,97.4289 170.8655,96.8649 L171.2615,94.5509 C171.3005,94.3269 171.2265,94.0989 171.0635,93.9399 L169.3825,92.3009 C168.9725,91.9019 169.1985,91.2059 169.7645,91.1239 L172.0885,90.7859 C172.3135,90.7529 172.5075,90.6119 172.6085,90.4079 L173.6475,88.3029 C173.9005,87.7899 174.6325,87.7899 174.8855,88.3029" id="Fill-9" fill="#FFAE38"></path>
        <path d="M181.0032,49.8224 C181.0032,67.8854 166.3602,82.5284 148.2972,82.5284 C130.2342,82.5284 115.5912,67.8854 115.5912,49.8224 C115.5912,31.7594 130.2342,17.1164 148.2972,17.1164 C166.3602,17.1164 181.0032,31.7594 181.0032,49.8224 L181.0032,49.8224 Z" id="Stroke-11" stroke="#423D51" stroke-width="3"></path>
        <path d="M135.4939,73.0511 L135.4939,79.9421" id="Stroke-13" stroke="#423D51" stroke-width="3"></path>
        <path d="M159.8587,73.0511 L159.8587,80.7451" id="Stroke-15" stroke="#423D51" stroke-width="3"></path>
        <path d="M125.2838,73.6459 L125.2838,71.6649 C125.2838,66.7389 129.2778,62.7459 134.2038,62.7459 L161.1488,62.7459 C166.0748,62.7459 170.0688,66.7389 170.0688,71.6649 L170.0688,74.4489" id="Stroke-17" stroke="#423D51" stroke-width="3"></path>
        <path d="M160.0193,38.4838 L160.0193,52.8358 C160.0193,54.0798 158.5993,54.7528 157.6103,53.9978 C155.0533,52.0498 151.5333,50.8448 147.6443,50.8448 C143.7543,50.8448 140.2343,52.0498 137.6773,53.9978 C136.6883,54.7528 135.2683,54.0798 135.2683,52.8358 L135.2683,38.4838 L133.4933,38.4838 L133.4933,61.6968 L133.4933,62.9148 C133.4933,66.6088 136.4883,69.6048 140.1833,69.6048 L155.1043,69.6048 C158.7993,69.6048 161.7943,66.6088 161.7943,62.9148 L161.7943,61.6968 L161.7943,38.4838 L160.0193,38.4838 Z" id="Fill-19" fill="#FF7A5C"></path>
        <path d="M152.067,55.6061 C152.067,57.3031 149.981,58.6781 147.409,58.6781 C144.836,58.6781 142.751,57.3031 142.751,55.6061 C142.751,53.9091 144.836,52.5341 147.409,52.5341 C149.981,52.5341 152.067,53.9091 152.067,55.6061" id="Fill-21" fill="#FFFFFF"></path>
        <path d="M150.1367,54.6455 C150.1367,56.1525 148.9157,57.3735 147.4087,57.3735 C145.9017,57.3735 144.6807,56.1525 144.6807,54.6455" id="Fill-23" fill="#423D51"></path>
        <path d="M148.3908,56.2274 C148.3908,56.7544 147.9638,57.1824 147.4358,57.1824 C146.9088,57.1824 146.4808,56.7544 146.4808,56.2274" id="Fill-25" fill="#FF7A5C"></path>
        <path d="M136.0266,35.246 C135.6066,35.392 135.6306,35.368 136.0266,35.246 M160.9966,34.725 C167.6746,33.756 166.1986,24.592 166.1986,24.592 C163.4566,32.256 156.0426,27.334 156.0426,27.334 C140.2626,19.978 137.0166,29.722 136.9506,29.926 C136.2356,29.793 127.2656,28.465 133.7996,47.032 L135.2686,41.999 L137.3296,36.236 C138.4686,38.802 140.4496,40.249 143.4116,40.548 C145.8306,40.792 148.3816,40.563 150.6626,39.766 C152.8676,38.995 155.0556,37.901 157.5006,38.314 C160.1426,38.76 162.6316,39.918 164.9806,41.085 C163.7946,37.779 162.3966,35.826 160.9966,34.725" id="Fill-27" fill="#FF7A5C"></path>
        <path d="M135.2686,41.9991 C132.9166,41.9991 131.0096,43.9061 131.0096,46.2581 C131.0096,48.6101 132.9166,50.5161 135.2686,50.5161" id="Fill-29" fill="#423D51"></path>
        <path d="M135.2611,48.1934 C134.1411,48.1934 133.2321,47.2854 133.2321,46.1644 C133.2321,45.0444 134.1411,44.1364 135.2611,44.1364 L136.9851,44.1364 L136.9851,48.1934 L135.2611,48.1934 Z" id="Fill-31" fill="#FFFFFF"></path>
        <path d="M160.0219,42.092 C162.3739,42.092 164.2809,43.999 164.2809,46.351 C164.2809,48.703 162.3739,50.609 160.0219,50.609" id="Fill-33" fill="#423D51"></path>
        <path d="M160.0295,48.2863 C161.1495,48.2863 162.0585,47.3783 162.0585,46.2573 C162.0585,45.1373 161.1495,44.2293 160.0295,44.2293 L158.3555,44.2293 L158.3555,48.2863 L160.0215,48.2863" id="Fill-35" fill="#FFFFFF"></path>
        <path d="M143.6663,45.4214 C143.6663,46.2424 143.0003,46.9084 142.1793,46.9084 C141.3583,46.9084 140.6933,46.2424 140.6933,45.4214 C140.6933,44.6004 141.3583,43.9344 142.1793,43.9344 C143.0003,43.9344 143.6663,44.6004 143.6663,45.4214" id="Fill-37" fill="#423D51"></path>
        <path d="M154.825,45.4214 C154.825,46.2424 154.159,46.9084 153.338,46.9084 C152.517,46.9084 151.852,46.2424 151.852,45.4214 C151.852,44.6004 152.517,43.9344 153.338,43.9344 C154.159,43.9344 154.825,44.6004 154.825,45.4214" id="Fill-39" fill="#423D51"></path>
        <path d="M8.3095,89.3037 L9.3485,91.4087 C9.4495,91.6127 9.6435,91.7537 9.8685,91.7867 L12.1915,92.1247 C12.7585,92.2067 12.9845,92.9027 12.5745,93.3017 L10.8935,94.9407 C10.7305,95.0997 10.6565,95.3277 10.6945,95.5517 L11.0915,97.8657 C11.1885,98.4297 10.5965,98.8597 10.0895,98.5937 L8.0115,97.5017 C7.8105,97.3957 7.5705,97.3957 7.3695,97.5017 L5.2905,98.5937 C4.7845,98.8597 4.1925,98.4297 4.2895,97.8657 L4.6855,95.5517 C4.7245,95.3277 4.6505,95.0997 4.4875,94.9407 L2.8065,93.3017 C2.3965,92.9027 2.6225,92.2067 3.1885,92.1247 L5.5125,91.7867 C5.7375,91.7537 5.9315,91.6127 6.0325,91.4087 L7.0715,89.3037 C7.3245,88.7907 8.0565,88.7907 8.3095,89.3037" id="Fill-41" fill="#FFAE38"></path>
        <path d="M21.4307,89.3037 L22.4697,91.4087 C22.5707,91.6127 22.7647,91.7537 22.9897,91.7867 L25.3127,92.1247 C25.8797,92.2067 26.1057,92.9027 25.6957,93.3017 L24.0147,94.9407 C23.8517,95.0997 23.7777,95.3277 23.8157,95.5517 L24.2127,97.8657 C24.3097,98.4297 23.7177,98.8597 23.2107,98.5937 L21.1327,97.5017 C20.9317,97.3957 20.6917,97.3957 20.4907,97.5017 L18.4117,98.5937 C17.9057,98.8597 17.3137,98.4297 17.4107,97.8657 L17.8067,95.5517 C17.8457,95.3277 17.7717,95.0997 17.6087,94.9407 L15.9277,93.3017 C15.5177,92.9027 15.7437,92.2067 16.3097,92.1247 L18.6337,91.7867 C18.8587,91.7537 19.0527,91.6127 19.1537,91.4087 L20.1927,89.3037 C20.4457,88.7907 21.1777,88.7907 21.4307,89.3037" id="Fill-43" fill="#FFAE38"></path>
        <path d="M34.5519,89.3037 L35.5909,91.4087 C35.6919,91.6127 35.8859,91.7537 36.1109,91.7867 L38.4339,92.1247 C39.0009,92.2067 39.2269,92.9027 38.8169,93.3017 L37.1359,94.9407 C36.9729,95.0997 36.8989,95.3277 36.9369,95.5517 L37.3339,97.8657 C37.4309,98.4297 36.8389,98.8597 36.3319,98.5937 L34.2539,97.5017 C34.0529,97.3957 33.8129,97.3957 33.6119,97.5017 L31.5329,98.5937 C31.0269,98.8597 30.4349,98.4297 30.5319,97.8657 L30.9279,95.5517 C30.9669,95.3277 30.8929,95.0997 30.7299,94.9407 L29.0489,93.3017 C28.6389,92.9027 28.8649,92.2067 29.4309,92.1247 L31.7549,91.7867 C31.9799,91.7537 32.1739,91.6127 32.2749,91.4087 L33.3139,89.3037 C33.5669,88.7907 34.2989,88.7907 34.5519,89.3037" id="Fill-45" fill="#FFAE38"></path>
        <path d="M47.6731,89.3037 L48.7121,91.4087 C48.8131,91.6127 49.0071,91.7537 49.2321,91.7867 L51.5551,92.1247 C52.1221,92.2067 52.3481,92.9027 51.9381,93.3017 L50.2571,94.9407 C50.0941,95.0997 50.0201,95.3277 50.0581,95.5517 L50.4551,97.8657 C50.5521,98.4297 49.9601,98.8597 49.4531,98.5937 L47.3751,97.5017 C47.1741,97.3957 46.9341,97.3957 46.7331,97.5017 L44.6541,98.5937 C44.1481,98.8597 43.5561,98.4297 43.6531,97.8657 L44.0491,95.5517 C44.0881,95.3277 44.0141,95.0997 43.8511,94.9407 L42.1701,93.3017 C41.7601,92.9027 41.9861,92.2067 42.5521,92.1247 L44.8761,91.7867 C45.1011,91.7537 45.2951,91.6127 45.3961,91.4087 L46.4351,89.3037 C46.6881,88.7907 47.4201,88.7907 47.6731,89.3037" id="Fill-47" fill="#FFAE38"></path>
        <path d="M60.7943,89.3037 L61.8333,91.4087 C61.9343,91.6127 62.1283,91.7537 62.3533,91.7867 L64.6763,92.1247 C65.2433,92.2067 65.4693,92.9027 65.0593,93.3017 L63.3783,94.9407 C63.2153,95.0997 63.1413,95.3277 63.1793,95.5517 L63.5763,97.8657 C63.6733,98.4297 63.0813,98.8597 62.5743,98.5937 L60.4963,97.5017 C60.2953,97.3957 60.0553,97.3957 59.8543,97.5017 L57.7753,98.5937 C57.2693,98.8597 56.6773,98.4297 56.7743,97.8657 L57.1703,95.5517 C57.2093,95.3277 57.1353,95.0997 56.9723,94.9407 L55.2913,93.3017 C54.8813,92.9027 55.1073,92.2067 55.6733,92.1247 L57.9973,91.7867 C58.2223,91.7537 58.4163,91.6127 58.5173,91.4087 L59.5563,89.3037 C59.8093,88.7907 60.5413,88.7907 60.7943,89.3037" id="Fill-49" fill="#FFAE38"></path>
        <path d="M66.912,50.8232 C66.912,68.8862 52.269,83.5292 34.206,83.5292 C16.143,83.5292 1.5,68.8862 1.5,50.8232 C1.5,32.7602 16.143,18.1172 34.206,18.1172 C52.269,18.1172 66.912,32.7602 66.912,50.8232 L66.912,50.8232 Z" id="Stroke-51" stroke="#423D51" stroke-width="3"></path>
        <path d="M21.4027,74.0519 L21.4027,80.9429" id="Stroke-53" stroke="#423D51" stroke-width="3"></path>
        <path d="M45.7675,74.0519 L45.7675,81.7459" id="Stroke-55" stroke="#423D51" stroke-width="3"></path>
        <path d="M11.1926,74.5879 L11.1926,72.4619 C11.1926,67.1749 15.1866,62.8889 20.1126,62.8889 L47.0576,62.8889 C51.9836,62.8889 55.9776,67.1749 55.9776,72.4619 L55.9776,75.4489" id="Stroke-57" stroke="#423D51" stroke-width="3"></path>
        <path d="M45.9307,47.096 C48.2827,47.096 50.1897,49.003 50.1897,51.355 C50.1897,53.707 48.2827,55.613 45.9307,55.613" id="Fill-59" fill="#423D51"></path>
        <path d="M45.9383,53.2903 C47.0583,53.2903 47.9673,52.3823 47.9673,51.2613 C47.9673,50.1413 47.0583,49.2333 45.9383,49.2333 L44.2643,49.2333 L44.2643,53.2903 L45.9303,53.2903" id="Fill-61" fill="#FFFFFF"></path>
        <path d="M18.0743,41.4915 C18.0743,41.4915 21.2173,61.8465 15.6783,68.9105 C15.1483,69.5855 15.6343,70.5735 16.4923,70.6075 C20.8823,70.7795 29.7283,70.3305 30.7573,64.0525" id="Fill-63" fill="#1FDDB2"></path>
        <path d="M49.3332,47.8403 C49.3332,47.8403 46.2562,61.8573 51.7302,68.9153 C52.2542,69.5913 51.7662,70.5733 50.9112,70.6063 C46.5242,70.7793 37.6662,70.3343 36.6372,64.0533" id="Fill-65" fill="#1FDDB2"></path>
        <path d="M46.4494,40.4907 L47.0294,51.9277 C47.0294,59.3477 41.0144,65.3617 33.5954,65.3617 C26.1764,65.3617 20.1614,59.3477 20.1614,51.9277 L20.1614,35.0987" id="Fill-67" fill="#FFFFFF"></path>
        <path d="M76.223,73.2758 L76.223,90.3148" id="Stroke-69" stroke="#423D51" stroke-width="3"></path>
        <path d="M74.0599,38.7229 C72.8899,38.7229 71.9419,37.7749 71.9419,36.6049 C71.9419,35.4359 72.8899,34.4879 74.0599,34.4879 L77.6119,34.4879 L77.6119,38.7229 L74.0599,38.7229 Z" id="Fill-71" fill="#FFFFFF"></path>
        <path d="M74.9321,40.7882 C74.9321,41.6902 74.2011,42.4212 73.2991,42.4212 C72.3971,42.4212 71.6661,41.6902 71.6661,40.7882 C71.6661,39.8862 72.3971,39.1552 73.2991,39.1552 C74.2011,39.1552 74.9321,39.8862 74.9321,40.7882" id="Fill-73" fill="#FF7A5C"></path>
        <path d="M37.9758,57.6077 C37.9758,59.3047 35.8898,60.6797 33.3178,60.6797 C30.7448,60.6797 28.6598,59.3047 28.6598,57.6077 C28.6598,55.9107 30.7448,54.5357 33.3178,54.5357 C35.8898,54.5357 37.9758,55.9107 37.9758,57.6077" id="Fill-75" fill="#FFFFFF"></path>
        <path d="M37.6557,55.842 C37.6557,58.238 35.7137,60.18 33.3177,60.18 C30.9217,60.18 28.9797,58.238 28.9797,55.842" id="Fill-77" fill="#423D51"></path>
        <path d="M34.8793,58.3577 C34.8793,59.1967 34.1993,59.8757 33.3613,59.8757 C32.5223,59.8757 31.8423,59.1967 31.8423,58.3577" id="Fill-79" fill="#FF7A5C"></path>
        <path d="M47.9669,35.7073 C47.0149,34.4533 47.7779,32.9753 48.0599,31.4573 C32.9329,18.1173 24.0569,28.9023 23.9679,29.0753 C23.2839,28.8293 14.6459,26.0683 18.0939,45.4473 L20.3569,40.7183 L23.3219,35.3643 C24.0309,38.0803 25.7519,39.8283 28.6269,40.6023 C30.9739,41.2343 33.5289,41.4193 35.9089,41.0023 C38.2099,40.5983 40.5449,39.8713 42.8909,40.6743 C45.4269,41.5423 47.6959,43.0863 49.8249,44.6183 C49.6449,43.6403 49.4279,42.7773 49.1859,41.9973 C45.9959,38.7833 50.7079,39.3163 47.9669,35.7073" id="Fill-81" fill="#1FDDB2"></path>
        <path d="M22.1957,36.1781 C21.7577,36.2541 21.7847,36.2341 22.1957,36.1781" id="Fill-83" fill="#423D51"></path>
        <path d="M20.1766,42.9998 C17.8246,42.9998 15.9176,44.9068 15.9176,47.2588 C15.9176,49.6108 17.8246,51.5168 20.1766,51.5168" id="Fill-85" fill="#423D51"></path>
        <path d="M20.1691,49.1942 C19.0491,49.1942 18.1401,48.2862 18.1401,47.1652 C18.1401,46.0452 19.0491,45.1372 20.1691,45.1372 L21.8931,45.1372 L21.8931,49.1942 L20.1691,49.1942 Z" id="Fill-87" fill="#FFFFFF"></path>
        <path d="M29.5751,46.4222 C29.5751,47.2432 28.9091,47.9092 28.0881,47.9092 C27.2671,47.9092 26.6021,47.2432 26.6021,46.4222 C26.6021,45.6012 27.2671,44.9352 28.0881,44.9352 C28.9091,44.9352 29.5751,45.6012 29.5751,46.4222" id="Fill-89" fill="#423D51"></path>
        <path d="M40.7338,46.4222 C40.7338,47.2432 40.0678,47.9092 39.2468,47.9092 C38.4258,47.9092 37.7608,47.2432 37.7608,46.4222 C37.7608,45.6012 38.4258,44.9352 39.2468,44.9352 C40.0678,44.9352 40.7338,45.6012 40.7338,46.4222" id="Fill-91" fill="#423D51"></path>
        <g id="Group-95" transform="translate(42.000000, 0.959000)">
            <mask id="mask-2" fill="white">
                <use xlink:href="#path-1"></use>
            </mask>
            <g id="Clip-94"></g>
            <path d="M97.4088,48.6572 C97.4088,75.5072 75.6428,97.2742 48.7918,97.2742 C21.9418,97.2742 0.1758,75.5072 0.1758,48.6572 C0.1758,21.8072 21.9418,0.0402 48.7918,0.0402 C75.6428,0.0402 97.4088,21.8072 97.4088,48.6572" id="Fill-93" fill="#423D51" mask="url(#mask-2)"></path>
        </g>
        <path d="M50.8131,49.6162 C50.8131,71.6962 68.7121,89.5952 90.7921,89.5952 C112.8721,89.5952 130.7711,71.6962 130.7711,49.6162 C130.7711,27.5362 112.8721,9.6372 90.7921,9.6372 C68.7121,9.6372 50.8131,27.5362 50.8131,49.6162" id="Fill-96" fill="#FFFFFF"></path>
        <path d="M62.8298,84.1602 L62.8298,74.3712 C62.8298,67.7532 68.1948,62.3872 74.8138,62.3872 L106.7708,62.3872 C113.3898,62.3872 118.7548,67.7532 118.7548,74.3712 L118.7548,86.1582" id="Stroke-98" stroke="#423D51" stroke-width="3"></path>
        <path d="M99.9886,65.0099 C99.9886,68.0489 96.0576,70.5129 91.2086,70.5129 C86.3606,70.5129 82.4296,68.0489 82.4296,65.0099 C82.4296,61.9709 86.3606,59.5069 91.2086,59.5069 C96.0576,59.5069 99.9886,61.9709 99.9886,65.0099" id="Fill-100" fill="#FFFFFF"></path>
        <g id="Group-105" transform="translate(81.000000, 63.959000)">
            <path d="M0.3321,0.6356 C0.3321,0.6356 7.6861,13.9516 20.7591,0.6356" id="Fill-102" fill="#FFFFFF"></path>
            <path d="M0.3321,0.6356 C0.3321,0.6356 7.6861,13.9516 20.7591,0.6356" id="Stroke-104" stroke="#423D51" stroke-width="3"></path>
        </g>
        <path d="M71.1607,30.5706 C71.1607,30.5706 75.1047,56.1076 68.1547,64.9686 C67.4897,65.8166 68.0997,67.0556 69.1757,67.0976 C74.6837,67.3136 85.7817,66.7506 87.0727,58.8746" id="Fill-106" fill="#FFAE38"></path>
        <path d="M110.3766,38.5356 C110.3766,38.5356 106.5166,56.1206 113.3836,64.9756 C114.0416,65.8236 113.4286,67.0556 112.3566,67.0976 C106.8526,67.3146 95.7396,66.7556 94.4486,58.8756" id="Fill-108" fill="#FFAE38"></path>
        <path d="M106.7588,30.5706 L107.4868,44.9196 C107.4868,54.2276 99.9408,61.7726 90.6328,61.7726 C81.3248,61.7726 73.7788,54.2276 73.7788,44.9196 L73.7788,23.8066" id="Fill-110" fill="#FFFFFF"></path>
        <path d="M107.5579,34.3526 C109.8679,34.3526 111.7409,36.2256 111.7409,38.5356 C111.7409,40.8456 109.8679,42.7186 107.5579,42.7186" id="Fill-112" fill="#423D51"></path>
        <path d="M96.6243,49.2479 C96.6243,52.4289 94.0453,55.0079 90.8643,55.0079 C87.6833,55.0079 85.1053,52.4289 85.1053,49.2479" id="Fill-114" fill="#423D51"></path>
        <path d="M92.7863,52.5879 C92.7863,53.7009 91.8833,54.6039 90.7703,54.6039 C89.6573,54.6039 88.7543,53.7009 88.7543,52.5879" id="Fill-116" fill="#FF7A5C"></path>
        <path d="M86.0602,39.0724 C86.0602,40.1894 85.1552,41.0944 84.0382,41.0944 C82.9212,41.0944 82.0152,40.1894 82.0152,39.0724 C82.0152,37.9554 82.9212,37.0504 84.0382,37.0504 C85.1552,37.0504 86.0602,37.9554 86.0602,39.0724" id="Fill-118" fill="#423D51"></path>
        <path d="M99.25,39.0724 C99.25,40.1894 98.345,41.0944 97.228,41.0944 C96.111,41.0944 95.205,40.1894 95.205,39.0724 C95.205,37.9554 96.111,37.0504 97.228,37.0504 C98.345,37.0504 99.25,37.9554 99.25,39.0724" id="Fill-120" fill="#423D51"></path>
        <mask id="mask-4" fill="white">
            <use xlink:href="#path-3"></use>
        </mask>
        <g id="Clip-123"></g>
        <polygon id="Fill-122" fill="#FFFFFF" mask="url(#mask-4)" points="86.606 65.382 94.381 65.382 94.381 58.058 86.606 58.058"></polygon>
        <path d="M74.7769,74.6464 L74.7769,92.4124" id="Stroke-125" stroke="#423D51" stroke-width="3" mask="url(#mask-4)"></path>
        <path d="M106.8054,74.6464 L106.8054,92.4124" id="Stroke-126" stroke="#423D51" stroke-width="3" mask="url(#mask-4)"></path>
        <path d="M114.2272,39.274 C112.4632,37.234 110.6852,35.16 109.3702,32.702 C107.9122,29.977 107.1262,26.883 106.1812,23.904 C105.3172,21.177 103.5452,18.838 101.5332,17.097 C99.7912,15.589 97.7682,14.501 95.6302,13.954 C88.9302,12.239 81.2772,14.355 76.3792,19.993 C75.8202,20.636 75.3062,21.328 74.8392,22.058 C73.6142,23.971 72.7162,26.157 71.7992,28.272 C70.8642,30.432 69.5632,32.481 68.3252,34.438 C67.8532,35.184 68.4452,36.134 69.2422,35.984 C77.4752,34.433 82.0602,28.397 84.3412,24.853 C90.3962,36.024 104.5182,39.852 113.3992,41.156 C114.3262,41.292 114.8822,40.031 114.2272,39.274" id="Fill-127" fill="#FFAE38" mask="url(#mask-4)"></path>
        <path d="M118.7547,84.1561 L151.0217,116.4231" id="Stroke-128" stroke="#423D51" stroke-width="10" mask="url(#mask-4)"></path>
        <path d="M73.757,35.0537 C71.405,35.0537 69.498,36.9607 69.498,39.3127 C69.498,41.6647 71.405,43.5707 73.757,43.5707" id="Fill-129" fill="#423D51" mask="url(#mask-4)"></path>
        <path d="M73.7495,41.248 C72.6295,41.248 71.7205,40.34 71.7205,39.219 C71.7205,38.099 72.6295,37.191 73.7495,37.191 L75.4735,37.191 L75.4735,41.248 L73.7495,41.248 Z" id="Fill-130" fill="#FFFFFF" mask="url(#mask-4)"></path>
    </g>
</svg>