<?xml version="1.0" encoding="UTF-8" standalone="no"?>
<svg width="43px" height="43px" viewBox="0 0 43 43" version="1.1" xmlns="http://www.w3.org/2000/svg" xmlns:xlink="http://www.w3.org/1999/xlink">
    <!-- Generator: Sketch 39.1 (31720) - http://www.bohemiancoding.com/sketch -->
    <title>Note</title>
    <desc>Created with Sketch.</desc>
    <defs></defs>
    <g id="Page-1" stroke="none" stroke-width="1" fill="none" fill-rule="evenodd">
        <g id="Note" fill="#1A1918">
            <path d="M33.596,21.18 L9.596,21.18 C9.044,21.18 8.596,21.628 8.596,22.18 C8.596,22.733 9.044,23.18 9.596,23.18 L33.596,23.18 C34.149,23.18 34.596,22.733 34.596,22.18 C34.596,21.628 34.149,21.18 33.596,21.18" id="Fill-421"></path>
            <path d="M9.596,13.18 L23.596,13.18 C24.149,13.18 24.596,12.733 24.596,12.18 C24.596,11.628 24.149,11.18 23.596,11.18 L9.596,11.18 C9.044,11.18 8.596,11.628 8.596,12.18 C8.596,12.733 9.044,13.18 9.596,13.18" id="Fill-422"></path>
            <path d="M33.596,31.18 L9.596,31.18 C9.044,31.18 8.596,31.628 8.596,32.18 C8.596,32.733 9.044,33.18 9.596,33.18 L33.596,33.18 C34.149,33.18 34.596,32.733 34.596,32.18 C34.596,31.628 34.149,31.18 33.596,31.18" id="Fill-423"></path>
            <path d="M42.596,12.18 C42.596,5.563 37.213,0.181 30.596,0.181 L6.596,0.18 C6.129,0.18 5.759,0.223 5.458,0.292 C2.69,0.824 0.596,3.256 0.596,6.18 L0.596,36.18 C0.596,39.494 3.283,42.18 6.596,42.18 L36.596,42.18 C39.747,42.18 42.325,39.751 42.572,36.664 L42.577,36.664 C42.588,36.513 42.596,36.356 42.596,36.18 L42.596,12.18 L42.596,12.18 Z M30.578,2.18 L30.596,2.181 C36.11,2.181 40.596,6.667 40.596,12.18 L34.578,12.18 C32.372,12.18 30.578,10.386 30.578,8.18 L30.578,2.18 L30.578,2.18 Z M40.596,36.18 C40.596,38.386 38.802,40.18 36.596,40.18 L6.596,40.18 C4.391,40.18 2.596,38.386 2.596,36.18 L2.596,6.18 C2.596,3.975 4.391,2.18 6.596,2.18 L28.578,2.18 L28.578,8.18 C28.578,11.494 31.264,14.18 34.578,14.18 L40.596,14.18 L40.596,36.18 L40.596,36.18 Z" id="Fill-424"></path>
        </g>
    </g>
</svg>