<?xml version="1.0" encoding="UTF-8" standalone="no"?>
<svg width="43px" height="43px" viewBox="0 0 43 43" version="1.1" xmlns="http://www.w3.org/2000/svg" xmlns:xlink="http://www.w3.org/1999/xlink">
    <!-- Generator: Sketch 39.1 (31720) - http://www.bohemiancoding.com/sketch -->
    <title>Help</title>
    <desc>Created with Sketch.</desc>
    <defs></defs>
    <g id="Page-1" stroke="none" stroke-width="1" fill="none" fill-rule="evenodd">
        <g id="Artboard-1" transform="translate(-1111.000000, -1520.000000)" fill="#1A1918">
            <g id="Row-12" transform="translate(192.000000, 1520.000000)">
                <path d="M955.444,6.821 C947.243,-1.38 933.947,-1.38 925.746,6.821 C917.545,15.022 917.545,28.318 925.746,36.519 C933.947,44.721 947.243,44.72 955.444,36.519 C963.645,28.318 963.645,15.022 955.444,6.821 L955.444,6.821 Z M953.287,7.564 L947.631,13.221 C943.563,9.827 937.627,9.826 933.559,13.221 L927.903,7.564 C935.105,1.08 946.086,1.08 953.287,7.564 L953.287,7.564 Z M946.959,28.034 C943.45,31.543 937.74,31.543 934.231,28.034 C930.722,24.525 930.722,18.815 934.231,15.306 C937.74,11.797 943.45,11.797 946.959,15.306 C950.468,18.815 950.468,24.525 946.959,28.034 L946.959,28.034 Z M926.489,8.978 L932.145,14.635 C928.751,18.702 928.751,24.639 932.146,28.706 L926.489,34.363 C920.005,27.161 920.004,16.18 926.489,8.978 L926.489,8.978 Z M927.903,35.777 L933.56,30.12 C937.627,33.514 943.563,33.514 947.631,30.12 L953.287,35.776 C946.085,42.261 935.105,42.26 927.903,35.777 L927.903,35.777 Z M954.701,34.362 L949.045,28.706 C952.439,24.639 952.439,18.703 949.045,14.635 L954.702,8.978 C961.185,16.18 961.185,27.161 954.701,34.362 L954.701,34.362 Z" id="Help"></path>
            </g>
        </g>
    </g>
</svg>