<?xml version="1.0" encoding="UTF-8" standalone="no"?>
<svg width="58px" height="58px" viewBox="0 0 58 58" version="1.1" xmlns="http://www.w3.org/2000/svg" xmlns:xlink="http://www.w3.org/1999/xlink">
    <!-- Generator: Sketch 41.2 (35397) - http://www.bohemiancoding.com/sketch -->
    <title>Group 12</title>
    <desc>Created with Sketch.</desc>
    <defs></defs>
    <g id="Page-1" stroke="none" stroke-width="1" fill="none" fill-rule="evenodd">
        <g id="Group-12" transform="translate(1.153554, 1.000000)" stroke="#FF7B5C" fill="#FF7B5C">
            <path d="M30.8313199,32.7474206 C30.8604924,32.710292 30.8843607,32.6691853 30.9135332,32.6320567 C30.9281194,32.6121664 30.9453577,32.5949281 30.959944,32.5763638 L30.9546399,32.5763638 C32.4437617,30.5634636 33.3401521,28.0824779 33.3401521,25.3840246 C33.3401521,18.6876174 27.9114211,13.2602124 21.2163399,13.2602124 C14.5199326,13.2602124 9.09252766,18.6876174 9.09252766,25.3840246 C9.09252766,27.4738341 9.62691422,29.4363455 10.5617592,31.150891 C10.5617592,31.150891 10.5538031,31.149565 10.549825,31.149565 C10.612148,31.2649288 10.6917093,31.3670325 10.7580103,31.4797443 C10.9012206,31.7237322 11.049735,31.962416 11.2088576,32.1944697 C11.3268734,32.3681785 11.4448893,32.5392353 11.5721874,32.7063139 C11.5854476,32.7248782 11.5987078,32.7447685 11.611968,32.7646589 C4.72991777,36.269333 0,43.3966972 0,51.6511794 C0,53.8828732 9.49829016,55.6928922 21.2163399,55.6928922 C32.9330636,55.6928922 42.4326797,53.8828732 42.4326797,51.6511794 C42.4326797,43.3980232 37.7133701,36.2547468 30.8313199,32.7474206 L30.8313199,32.7474206 Z M21.2163399,15.9122549 C26.4382115,15.9122549 30.6881096,20.160827 30.6881096,25.3840246 C30.6881096,27.4738341 30.0105127,29.46154 28.7269242,31.1336527 C28.6765354,31.1999538 28.5863659,31.3325559 28.5823879,31.3245998 C26.843974,33.4754063 24.1906055,34.8557944 21.2163399,34.8557944 C18.1532308,34.8557944 15.4309092,33.3878888 13.7004515,31.1243706 C12.422167,29.4549098 11.7445701,27.469856 11.7445701,25.3840246 C11.7445701,20.160827 15.9931422,15.9122549 21.2163399,15.9122549 L21.2163399,15.9122549 Z M21.2163399,53.0408497 C10.9754778,53.0408497 4.56151307,51.6922861 2.6719328,50.7839615 C2.97956973,44.132639 6.80646703,38.1880857 12.8159953,35.1276287 L13.5506111,34.7523647 C15.6404205,36.4655842 18.3030712,37.5078368 21.2163399,37.5078368 C24.1256305,37.5078368 26.781651,36.4708882 28.8688085,34.7603208 L29.6272926,35.1103904 C35.6301908,38.1695214 39.454436,44.1207048 39.7594209,50.7839615 C37.8698406,51.6922861 31.4558759,53.0408497 21.2163399,53.0408497 L21.2163399,53.0408497 Z" id="Fill-389"></path>
            <path d="M27.8464461,2.65204248 L54.3668709,2.65204248 C55.0948566,2.65204248 55.6928922,2.05533292 55.6928922,1.32602124 C55.6928922,0.596709559 55.0948566,0 54.3668709,0 L27.8464461,0 C27.1158084,0 26.5204248,0.596709559 26.5204248,1.32602124 C26.5204248,2.05533292 27.1158084,2.65204248 27.8464461,2.65204248" id="Fill-390"></path>
            <path d="M54.3668709,34.4765523 L43.758701,34.4765523 C43.0280633,34.4765523 42.4326797,35.0732618 42.4326797,35.8025735 C42.4326797,36.5318852 43.0280633,37.1285948 43.758701,37.1285948 L54.3668709,37.1285948 C55.0948566,37.1285948 55.6928922,36.5318852 55.6928922,35.8025735 C55.6928922,35.0732618 55.0948566,34.4765523 54.3668709,34.4765523" id="Fill-391"></path>
            <path d="M54.3668709,17.2382761 L41.1066585,17.2382761 C40.3760208,17.2382761 39.7806373,17.8349857 39.7806373,18.5642974 C39.7806373,19.2936091 40.3760208,19.8903186 41.1066585,19.8903186 L54.3668709,19.8903186 C55.0948566,19.8903186 55.6928922,19.2936091 55.6928922,18.5642974 C55.6928922,17.8349857 55.0948566,17.2382761 54.3668709,17.2382761" id="Fill-392"></path>
        </g>
    </g>
</svg>