<?xml version="1.0" encoding="UTF-8" standalone="no"?>
<svg width="64px" height="64px" viewBox="0 0 64 64" version="1.1" xmlns="http://www.w3.org/2000/svg" xmlns:xlink="http://www.w3.org/1999/xlink">
    <!-- Generator: Sketch 39.1 (31720) - http://www.bohemiancoding.com/sketch -->
    <title>Artboard</title>
    <desc>Created with Sketch.</desc>
    <defs>
        <polygon id="path-1" points="0 45 45 45 45 0 0 0"></polygon>
        <polygon id="path-3" points="0 45 45 45 45 0 0 0"></polygon>
        <polygon id="path-5" points="0 45 45 45 45 0 0 0"></polygon>
    </defs>
    <g id="Page-1" stroke="none" stroke-width="1" fill="none" fill-rule="evenodd">
        <g id="Artboard">
            <g id="Post-How-It-works-Icon" transform="translate(10.000000, 10.000000)">
                <g id="Fill-4-Clipped">
                    <mask id="mask-2" fill="white">
                        <use xlink:href="#path-1"></use>
                    </mask>
                    <g id="path-1"></g>
                    <polygon id="Fill-4" fill="#FF7B5C" mask="url(#mask-2)" points="6.328125 29.8828125 24.0820312 29.8828125 24.0820312 19.3359375 6.328125 19.3359375"></polygon>
                </g>
                <g id="Fill-6-Clipped">
                    <mask id="mask-4" fill="white">
                        <use xlink:href="#path-3"></use>
                    </mask>
                    <g id="path-1"></g>
                    <path d="M30.4101562,19.3359375 L40.78125,19.3359375 L40.78125,17.2265625 L30.4101562,17.2265625 L30.4101562,19.3359375 L30.4101562,19.3359375 Z M30.4101562,31.9921875 L40.78125,31.9921875 L40.78125,29.8828125 L30.4101562,29.8828125 L30.4101562,31.9921875 L30.4101562,31.9921875 Z M4.21875,31.9921875 L26.1914062,31.9921875 L26.1914062,17.2265625 L4.21875,17.2265625 L4.21875,31.9921875 L4.21875,31.9921875 Z M12.9705469,39.5226562 L26.1914062,39.5226562 L26.1914062,37.4132812 L12.9705469,37.4132812 L12.9705469,39.5226562 L12.9705469,39.5226562 Z M6.46664063,40.753125 C5.20453125,40.753125 4.18148438,39.7300781 4.18148438,38.4679687 C4.18148438,37.2058594 5.20453125,36.1828125 6.46664063,36.1828125 C7.72875,36.1828125 8.75179688,37.2058594 8.75179688,38.4679687 C8.75179688,39.7300781 7.72875,40.753125 6.46664063,40.753125 L6.46664063,40.753125 L6.46664063,40.753125 Z M30.4101562,25.6640625 L38.3786719,25.6640625 L38.3786719,23.5546875 L30.4101562,23.5546875 L30.4101562,25.6640625 L30.4101562,25.6640625 Z M0,13.0078125 L0,42.1875 C0,43.7407031 1.25929687,45 2.8125,45 L42.1875,45 C43.7407031,45 45,43.7407031 45,42.1875 L45,13.0078125 L0,13.0078125 L0,13.0078125 Z" id="Fill-6" fill="#FF7B5C" mask="url(#mask-4)"></path>
                </g>
                <g id="Fill-1-Clipped">
                    <mask id="mask-6" fill="white">
                        <use xlink:href="#path-5"></use>
                    </mask>
                    <g id="path-1"></g>
                    <path d="M15.3246797,6.85082812 C14.5477266,6.85082812 13.9184297,6.22082812 13.9184297,5.44457812 C13.9184297,4.66832812 14.5477266,4.03832812 15.3246797,4.03832812 C16.1016328,4.03832812 16.7309297,4.66832812 16.7309297,5.44457812 C16.7309297,6.22082812 16.1016328,6.85082812 15.3246797,6.85082812 M10.4611641,6.85082812 C9.68491406,6.85082812 9.05491406,6.22082812 9.05491406,5.44457812 C9.05491406,4.66832812 9.68491406,4.03832812 10.4611641,4.03832812 C11.2381172,4.03832812 11.8674141,4.66832812 11.8674141,5.44457812 C11.8674141,6.22082812 11.2381172,6.85082812 10.4611641,6.85082812 M5.41483594,6.85082812 C4.63788281,6.85082812 4.00858594,6.22082812 4.00858594,5.44457812 C4.00858594,4.66832812 4.63788281,4.03832812 5.41483594,4.03832812 C6.19108594,4.03832812 6.82108594,4.66832812 6.82108594,5.44457812 C6.82108594,6.22082812 6.19108594,6.85082812 5.41483594,6.85082812 M37.9688203,0.00028125 L7.03132031,0.00028125 C3.14796094,0.00028125 7.03125e-05,3.14817188 7.03125e-05,7.03153125 L7.03125e-05,10.888875 L45.0000703,10.888875 L45.0000703,7.03153125 C45.0000703,3.14817188 41.8521797,0.00028125 37.9688203,0.00028125" id="Fill-1" fill="#FF7B5C" mask="url(#mask-6)"></path>
                </g>
            </g>
        </g>
    </g>
</svg>