<?xml version="1.0" encoding="UTF-8" standalone="no"?>
<svg width="58px" height="58px" viewBox="0 0 58 58" version="1.1" xmlns="http://www.w3.org/2000/svg" xmlns:xlink="http://www.w3.org/1999/xlink">
    <!-- Generator: Sketch 41.2 (35397) - http://www.bohemiancoding.com/sketch -->
    <title>Group 10</title>
    <desc>Created with Sketch.</desc>
    <defs></defs>
    <g id="Page-1" stroke="none" stroke-width="1" fill="none" fill-rule="evenodd">
        <g id="Group-10" transform="translate(1.153554, 1.000000)" stroke="#FF7B5C" fill="#FF7B5C">
            <path d="M38.8060116,23.1854814 L25.4635859,36.5279071 L16.8868805,27.9498757 C16.3604501,27.4247713 15.5078184,27.4247713 14.981388,27.9498757 C14.4549576,28.4763062 14.4549576,29.3302638 14.981388,29.8566943 L24.5115027,39.3868089 C25.0366071,39.9132394 25.8905647,39.9132394 26.4169952,39.3868089 L40.7115042,25.0909739 C41.2379346,24.5645435 41.2379346,23.7119118 40.7115042,23.1854814 C40.1850737,22.659051 39.3324421,22.659051 38.8060116,23.1854814" id="Fill-437"></path>
            <path d="M47.7367647,7.94551928 L31.4797443,7.94551928 L29.3276118,2.65734657 C28.5094567,1.01838431 26.8612123,0 25.0286509,0 L7.95612745,0 C3.56169306,0 0,3.56169306 0,7.95347541 L0,47.7407428 C0,52.1325251 3.56169306,55.6928922 7.95612745,55.6928922 L47.7367647,55.6928922 C52.1311991,55.6928922 55.6928922,52.1325251 55.6928922,47.7407428 L55.6928922,15.8989947 C55.6928922,11.5072123 52.1311991,7.94551928 47.7367647,7.94551928 L47.7367647,7.94551928 Z M53.0408497,47.7407428 C53.0408497,50.6632936 50.6619676,53.0421757 47.7367647,53.0421757 L7.95612745,53.0421757 C5.03092459,53.0421757 2.65204248,50.6632936 2.65204248,47.7407428 L2.65204248,7.95347541 C2.65204248,5.02959857 5.03092459,2.65204248 7.95612745,2.65204248 L25.0286509,2.65204248 C25.8507841,2.65204248 26.5880519,3.10819379 26.9553598,3.84280956 L29.840782,10.5975618 L47.7367647,10.5975618 C50.6619676,10.5975618 53.0408497,12.9764439 53.0408497,15.8989947 L53.0408497,47.7407428 L53.0408497,47.7407428 Z" id="Fill-438"></path>
        </g>
    </g>
</svg>