<?xml version="1.0" encoding="UTF-8" standalone="no"?>
<svg width="64px" height="64px" viewBox="0 0 64 64" version="1.1" xmlns="http://www.w3.org/2000/svg" xmlns:xlink="http://www.w3.org/1999/xlink">
    <!-- Generator: Sketch 39.1 (31720) - http://www.bohemiancoding.com/sketch -->
    <title>Engage How It Works Icon</title>
    <desc>Created with Sketch.</desc>
    <defs>
        <polygon id="path-1" points="0 64 64 64 64 0 0 0"></polygon>
    </defs>
    <g id="Page-1" stroke="none" stroke-width="1" fill="none" fill-rule="evenodd">
        <g id="Homepage-V3" transform="translate(-156.000000, -1079.000000)">
            <g id="How-It-Works" transform="translate(0.000000, 676.000000)">
                <g id="Engage-How-It-Works-Icon" transform="translate(156.000000, 403.000000)">
                    <g id="Group-14">
                        <path d="M63.1416,23.6377 C64.0736,22.7057 64.0736,21.1907 63.1416,20.2587 L59.0166,16.1337 C58.5506,15.6677 57.9386,15.4357 57.3276,15.4357 C56.7156,15.4357 56.1036,15.6677 55.6376,16.1337 L52.3156,19.4557 L59.8196,26.9597 L63.1416,23.6377 L63.1416,23.6377 Z" id="Fill-4" fill="#FF7B5C"></path>
                        <path d="M25.4578,46.9495 L23.1928,55.5365 C23.1358,55.7505 23.2398,55.8955 23.3078,55.9625 C23.3758,56.0305 23.5198,56.1335 23.7368,56.0795 L32.3258,53.8175 L25.4578,46.9495 Z" id="Fill-6" fill="#FF7B5C"></path>
                        <polygon id="Fill-8" fill="#FF7B5C" points="50.1944 21.5771 48.0004 23.7711 36.1924 35.5801 27.2614 44.5111 29.9524 47.2021 48.0004 29.1541 52.8854 24.2681"></polygon>
                        <polygon id="Fill-10" fill="#FF7B5C" points="55.0068 26.3896 47.9998 33.3966 32.0738 49.3236 34.7638 52.0146 47.9998 38.7786 57.6978 29.0806"></polygon>
                        <mask id="mask-2" fill="white">
                            <use xlink:href="#path-1"></use>
                        </mask>
                        <g id="Clip-13"></g>
                        <path d="M6,35.953 L20.759,35.953 L20.759,32.953 L6,32.953 L6,35.953 Z M16.418,56.614 L14.297,58.735 L10.678,55.117 L7.142,58.653 L5.021,56.532 L8.557,52.996 L4.939,49.378 L7.061,47.257 L10.678,50.875 L14.378,47.175 L16.5,49.296 L12.8,52.996 L16.418,56.614 Z M6,26.937 L30.167,26.937 L30.167,23.937 L6,23.937 L6,26.937 Z M6,17.958 L37.75,17.958 L37.75,14.958 L6,14.958 L6,17.958 Z M6,8.958 L18.667,8.958 L18.667,5.958 L6,5.958 L6,8.958 Z M21.315,6.505 C21.679,6.167 22.135,6 22.681,6 C23.339,6 23.851,6.231 24.216,6.693 C24.579,7.156 24.762,7.731 24.762,8.417 C24.762,9.189 24.643,9.854 24.405,10.414 C24.166,10.975 23.865,11.437 23.501,11.801 C23.136,12.165 22.737,12.446 22.302,12.643 C21.868,12.837 21.455,12.957 21.062,13 L21.062,11.654 C21.301,11.597 21.535,11.503 21.766,11.37 C21.998,11.236 22.208,11.072 22.397,10.877 C22.586,10.68 22.74,10.456 22.859,10.203 C22.978,9.952 23.045,9.678 23.059,9.384 C22.947,9.468 22.765,9.51 22.513,9.51 C21.995,9.51 21.574,9.346 21.251,9.016 C20.929,8.687 20.768,8.27 20.768,7.765 C20.768,7.261 20.95,6.84 21.315,6.505 L21.315,6.505 Z M22.62,45.945 C22.862,45.025 23.347,44.183 24.02,43.51 L48,19.529 L48,3.5 C48,1.291 46.209,0 44,0 L4,0 C1.791,0 0,1.291 0,3.5 L0,60 C0,62.209 1.791,64 4,64 L44,64 C46.209,64 48,62.209 48,60 L48,43.021 L35.766,55.255 C35.092,55.929 34.25,56.412 33.329,56.655 L24.5,58.979 C24.203,59.058 23.903,59.096 23.608,59.096 C22.709,59.096 21.845,58.743 21.186,58.083 C20.31,57.207 19.976,55.969 20.292,54.771 L22.62,45.945 Z" id="Fill-12" fill="#FF7B5C" mask="url(#mask-2)"></path>
                    </g>
                </g>
            </g>
        </g>
    </g>
</svg>