<?xml version="1.0" encoding="UTF-8" standalone="no"?>
<svg width="64px" height="64px" viewBox="0 0 64 64" version="1.1" xmlns="http://www.w3.org/2000/svg" xmlns:xlink="http://www.w3.org/1999/xlink">
    <!-- Generator: Sketch 39.1 (31720) - http://www.bohemiancoding.com/sketch -->
    <title>Bid How It Works Icon</title>
    <desc>Created with Sketch.</desc>
    <defs>
        <polygon id="path-1" points="-0.0004 40 39.9996 40 39.9996 0.0004 -0.0004 0.0004"></polygon>
    </defs>
    <g id="Page-1" stroke="none" stroke-width="1" fill="none" fill-rule="evenodd">
        <g id="Homepage-V3" transform="translate(-150.000000, -972.000000)">
            <g id="How-It-Works" transform="translate(0.000000, 676.000000)">
                <g id="Bid-How-It-Works-Icon" transform="translate(150.000000, 296.000000)">
                    <path d="M21.5,28.4097 L21.5,31.6407 L18.5,31.6407 L18.5,28.3737 C16.183,27.7867 14.354,25.8357 14.354,22.7897 L17.054,22.7897 C17.054,24.9267 18.392,26.1467 20.246,26.1467 C21.749,26.1467 22.946,25.1837 22.946,23.7057 C22.946,22.0387 21.467,21.4987 20.34,21.0997 C17.335,20.0427 14.917,19.1277 14.917,15.8407 C14.917,13.6387 16.461,12.0707 18.5,11.5427 L18.5,8.0707 L21.5,8.0707 L21.5,11.5457 C23.694,12.1257 25.247,13.9637 25.247,16.4747 L22.547,16.4747 C22.547,14.8547 21.608,13.7517 20.082,13.7517 C18.744,13.7517 17.617,14.4557 17.617,15.8407 C17.617,17.1787 18.791,17.8127 20.012,18.2587 C22.571,19.1737 25.646,20.2537 25.646,23.4007 C25.646,26.2117 23.857,27.9147 21.5,28.4097 M20,-0.0003 C8.954,-0.0003 0,8.9547 0,19.9997 C0,31.0457 8.954,39.9997 20,39.9997 C20.462,39.9997 20.914,39.9617 21.368,39.9307 C23.058,30.5057 30.506,23.0587 39.931,21.3677 C39.962,20.9137 40,20.4617 40,19.9997 C40,8.9547 31.046,-0.0003 20,-0.0003" id="Fill-1" fill="#FF7B5C"></path>
                    <path d="M38.2676,37.3945 C38.2676,36.5675 37.5946,35.8945 36.7676,35.8945 C35.9406,35.8945 35.2676,36.5675 35.2676,37.3945 C35.2676,38.2215 35.9406,38.8945 36.7676,38.8945 C37.5946,38.8945 38.2676,38.2215 38.2676,37.3945" id="Fill-4" fill="#FF7B5C"></path>
                    <path d="M51.6196,49.2344 C50.7926,49.2344 50.1196,49.9074 50.1196,50.7344 C50.1196,51.5614 50.7926,52.2344 51.6196,52.2344 C52.4466,52.2344 53.1196,51.5614 53.1196,50.7344 C53.1196,49.9074 52.4466,49.2344 51.6196,49.2344" id="Fill-6" fill="#FF7B5C"></path>
                    <g id="Group-10" transform="translate(24.000000, 24.000000)">
                        <mask id="mask-2" fill="white">
                            <use xlink:href="#path-1"></use>
                        </mask>
                        <g id="Clip-9"></g>
                        <path d="M27.6196,31.2344 C25.1386,31.2344 23.1196,29.2154 23.1196,26.7344 C23.1196,24.2534 25.1386,22.2344 27.6196,22.2344 C30.1006,22.2344 32.1196,24.2534 32.1196,26.7344 C32.1196,29.2154 30.1006,31.2344 27.6196,31.2344 L27.6196,31.2344 Z M14.5166,31.0004 L11.0736,31.0004 L25.4806,9.0004 L28.9116,9.0004 L14.5166,31.0004 Z M8.2676,13.3944 C8.2676,10.9134 10.2866,8.8944 12.7676,8.8944 C15.2486,8.8944 17.2676,10.9134 17.2676,13.3944 C17.2676,15.8764 15.2486,17.8944 12.7676,17.8944 C10.2866,17.8944 8.2676,15.8764 8.2676,13.3944 L8.2676,13.3944 Z M19.9996,0.0004 C8.9546,0.0004 -0.0004,8.9544 -0.0004,20.0004 C-0.0004,31.0454 8.9546,40.0004 19.9996,40.0004 C31.0456,40.0004 39.9996,31.0454 39.9996,20.0004 C39.9996,8.9544 31.0456,0.0004 19.9996,0.0004 L19.9996,0.0004 Z" id="Fill-8" fill="#FF7B5C" mask="url(#mask-2)"></path>
                    </g>
                </g>
            </g>
        </g>
    </g>
</svg>