<?xml version="1.0" encoding="UTF-8" standalone="no"?>
<svg width="64px" height="64px" viewBox="0 0 64 64" version="1.1" xmlns="http://www.w3.org/2000/svg" xmlns:xlink="http://www.w3.org/1999/xlink">
    <!-- Generator: Sketch 39.1 (31720) - http://www.bohemiancoding.com/sketch -->
    <title>Artboard</title>
    <desc>Created with Sketch.</desc>
    <defs></defs>
    <g id="Page-1" stroke="none" stroke-width="1" fill="none" fill-rule="evenodd">
        <g id="Artboard" fill="#FF7B5C">
            <g id="Group-14" transform="translate(13.000000, 7.000000)">
                <g id="Group">
                    <path d="M50.3159625,18.8362922 C51.05865,18.0936047 51.05865,16.8863391 50.3159625,16.1436516 L47.0288531,12.8565422 C46.6575094,12.4851984 46.1698219,12.3003234 45.6829312,12.3003234 C45.1952438,12.3003234 44.7075562,12.4851984 44.3362125,12.8565422 L41.6889938,15.5037609 L47.6687437,21.4835109 L50.3159625,18.8362922 L50.3159625,18.8362922 L50.3159625,18.8362922 Z" id="Fill-4"></path>
                    <path d="M20.2866844,37.4128828 L18.4817625,44.2556484 C18.4363406,44.4261797 18.5192156,44.5417266 18.5734031,44.5951172 C18.6275906,44.6493047 18.7423406,44.7313828 18.9152625,44.6883516 L25.7596219,42.8858203 L20.2866844,37.4128828 L20.2866844,37.4128828 Z" id="Fill-6"></path>
                    <polygon id="Fill-8" points="39.9986625 17.1942516 38.2503187 18.9425953 28.8408188 28.3528922 21.7239281 35.4697828 23.8683188 37.6141734 38.2503187 23.2321734 42.1430531 19.3386422"></polygon>
                    <polygon id="Fill-10" points="43.8335438 21.0292125 38.2498406 26.6129156 25.5588094 39.3047438 27.7024031 41.4491344 38.2498406 30.9016969 45.9779344 23.1736031"></polygon>
                    <path d="M4.78125,28.6500469 L16.5423281,28.6500469 L16.5423281,26.2594219 L4.78125,26.2594219 L4.78125,28.6500469 L4.78125,28.6500469 Z M13.0830937,45.1142812 L11.3929219,46.8044531 L8.50903125,43.9213594 L5.69128125,46.7391094 L4.00110937,45.0489375 L6.81885937,42.2311875 L3.93576562,39.3480937 L5.62673437,37.6579219 L8.50903125,40.5410156 L11.4574688,37.5925781 L13.1484375,39.28275 L10.2,42.2311875 L13.0830937,45.1142812 L13.0830937,45.1142812 Z M4.78125,21.4654219 L24.0393281,21.4654219 L24.0393281,19.0747969 L4.78125,19.0747969 L4.78125,21.4654219 L4.78125,21.4654219 Z M4.78125,14.3102812 L30.0820312,14.3102812 L30.0820312,11.9196562 L4.78125,11.9196562 L4.78125,14.3102812 L4.78125,14.3102812 Z M4.78125,7.13840625 L14.8752656,7.13840625 L14.8752656,4.74778125 L4.78125,4.74778125 L4.78125,7.13840625 L4.78125,7.13840625 Z M16.9853906,5.18367187 C17.2754531,4.91432812 17.6388281,4.78125 18.0739219,4.78125 C18.5982656,4.78125 19.0062656,4.96532813 19.297125,5.33348437 C19.5863906,5.7024375 19.7322188,6.16064063 19.7322188,6.70729687 C19.7322188,7.32248438 19.6373906,7.85240625 19.4477344,8.29865625 C19.2572813,8.74570312 19.0174219,9.11385938 18.7273594,9.40392187 C18.4365,9.69398437 18.1185469,9.91790625 17.7719063,10.0748906 C17.4260625,10.2294844 17.0969531,10.3251094 16.7837813,10.359375 L16.7837813,9.28678125 C16.9742344,9.24135937 17.1607031,9.16645313 17.3447813,9.06046875 C17.5296563,8.9536875 17.697,8.823 17.8476094,8.66760938 C17.9982187,8.510625 18.1209375,8.332125 18.2157656,8.13051562 C18.3105938,7.9305 18.3639844,7.71215625 18.3751406,7.477875 C18.2858906,7.5448125 18.1408594,7.57828125 17.9400469,7.57828125 C17.5272656,7.57828125 17.1917813,7.44759375 16.9343906,7.184625 C16.6777969,6.92245312 16.5495,6.59015625 16.5495,6.18773437 C16.5495,5.78610938 16.6945313,5.450625 16.9853906,5.18367187 L16.9853906,5.18367187 L16.9853906,5.18367187 Z M18.0253125,36.6124219 C18.2181562,35.8792969 18.6046406,35.2083281 19.1409375,34.6720312 L38.25,15.5621719 L38.25,2.7890625 C38.25,1.02876562 36.8227969,0 35.0625,0 L3.1875,0 C1.42720312,0 0,1.02876562 0,2.7890625 L0,47.8125 C0,49.5727969 1.42720312,51 3.1875,51 L35.0625,51 C36.8227969,51 38.25,49.5727969 38.25,47.8125 L38.25,34.2823594 L28.5010312,44.0313281 C27.9639375,44.5684219 27.2929688,44.9533125 26.5590469,45.1469531 L19.5234375,46.9988906 C19.2867656,47.0618438 19.0477031,47.092125 18.812625,47.092125 C18.0962344,47.092125 17.4077344,46.8108281 16.8825938,46.2848906 C16.1845312,45.5868281 15.918375,44.6002969 16.1701875,43.6456406 L18.0253125,36.6124219 L18.0253125,36.6124219 Z" id="Fill-12"></path>
                </g>
            </g>
        </g>
    </g>
</svg>