<?xml version="1.0" encoding="UTF-8" standalone="no"?>
<svg width="64px" height="64px" viewBox="0 0 64 64" version="1.1" xmlns="http://www.w3.org/2000/svg" xmlns:xlink="http://www.w3.org/1999/xlink">
    <!-- Generator: Sketch 39.1 (31720) - http://www.bohemiancoding.com/sketch -->
    <title>Post How It works Icon</title>
    <desc>Created with Sketch.</desc>
    <defs>
        <polygon id="path-1" points="0 64 64 64 64 0 0 0"></polygon>
    </defs>
    <g id="Page-1" stroke="none" stroke-width="1" fill="none" fill-rule="evenodd">
        <g id="Homepage-V3" transform="translate(-150.000000, -867.000000)">
            <g id="How-It-Works" transform="translate(0.000000, 676.000000)">
                <g id="Post-How-It-works-Icon" transform="translate(150.000000, 191.000000)">
                    <mask id="mask-2" fill="white">
                        <use xlink:href="#path-1"></use>
                    </mask>
                    <g id="Clip-5"></g>
                    <polygon id="Fill-4" fill="#FF7B5C" mask="url(#mask-2)" points="9 42.5 34.25 42.5 34.25 27.5 9 27.5"></polygon>
                    <path d="M43.25,27.5 L58,27.5 L58,24.5 L43.25,24.5 L43.25,27.5 Z M43.25,45.5 L58,45.5 L58,42.5 L43.25,42.5 L43.25,45.5 Z M6,45.5 L37.25,45.5 L37.25,24.5 L6,24.5 L6,45.5 Z M18.447,56.21 L37.25,56.21 L37.25,53.21 L18.447,53.21 L18.447,56.21 Z M9.197,57.96 C7.402,57.96 5.947,56.505 5.947,54.71 C5.947,52.915 7.402,51.46 9.197,51.46 C10.992,51.46 12.447,52.915 12.447,54.71 C12.447,56.505 10.992,57.96 9.197,57.96 L9.197,57.96 Z M43.25,36.5 L54.583,36.5 L54.583,33.5 L43.25,33.5 L43.25,36.5 Z M0,18.5 L0,60 C0,62.209 1.791,64 4,64 L60,64 C62.209,64 64,62.209 64,60 L64,18.5 L0,18.5 Z" id="Fill-6" fill="#FF7B5C" mask="url(#mask-2)"></path>
                    <path d="M21.7951,9.7434 C20.6901,9.7434 19.7951,8.8474 19.7951,7.7434 C19.7951,6.6394 20.6901,5.7434 21.7951,5.7434 C22.9001,5.7434 23.7951,6.6394 23.7951,7.7434 C23.7951,8.8474 22.9001,9.7434 21.7951,9.7434 M14.8781,9.7434 C13.7741,9.7434 12.8781,8.8474 12.8781,7.7434 C12.8781,6.6394 13.7741,5.7434 14.8781,5.7434 C15.9831,5.7434 16.8781,6.6394 16.8781,7.7434 C16.8781,8.8474 15.9831,9.7434 14.8781,9.7434 M7.7011,9.7434 C6.5961,9.7434 5.7011,8.8474 5.7011,7.7434 C5.7011,6.6394 6.5961,5.7434 7.7011,5.7434 C8.8051,5.7434 9.7011,6.6394 9.7011,7.7434 C9.7011,8.8474 8.8051,9.7434 7.7011,9.7434 M54.0001,0.0004 L10.0001,0.0004 C4.4771,0.0004 0.0001,4.4774 0.0001,10.0004 L0.0001,15.4864 L64.0001,15.4864 L64.0001,10.0004 C64.0001,4.4774 59.5231,0.0004 54.0001,0.0004" id="Fill-1" fill="#FF7B5C" mask="url(#mask-2)"></path>
                </g>
            </g>
        </g>
    </g>
</svg>