<?xml version="1.0" encoding="UTF-8" standalone="no"?>
<svg width="64px" height="64px" viewBox="0 0 64 64" version="1.1" xmlns="http://www.w3.org/2000/svg" xmlns:xlink="http://www.w3.org/1999/xlink">
    <!-- Generator: Sketch 39.1 (31720) - http://www.bohemiancoding.com/sketch -->
    <title>Artboard</title>
    <desc>Created with Sketch.</desc>
    <defs></defs>
    <g id="Page-1" stroke="none" stroke-width="1" fill="none" fill-rule="evenodd">
        <g id="Artboard" fill="#FF7B5C">
            <g id="Bid-How-It-Works-Icon" transform="translate(8.000000, 7.000000)">
                <path d="M16.4609375,21.8536154 L16.4609375,24.339 L14.1640625,24.339 L14.1640625,21.8259231 C12.3901094,21.3743846 10.9897813,19.8736154 10.9897813,17.5305385 L13.0569687,17.5305385 C13.0569687,19.1743846 14.081375,20.1128462 15.5008437,20.1128462 C16.6515781,20.1128462 17.5680313,19.3720769 17.5680313,18.2351538 C17.5680313,16.9528462 16.4356719,16.5374615 15.5728125,16.2305385 C13.2721094,15.4174615 11.4208281,14.7136154 11.4208281,12.1851538 C11.4208281,10.4913077 12.6029531,9.28515385 14.1640625,8.879 L14.1640625,6.20823077 L16.4609375,6.20823077 L16.4609375,8.88130769 C18.1407187,9.32746154 19.3297344,10.7413077 19.3297344,12.6728462 L17.2625469,12.6728462 C17.2625469,11.4266923 16.543625,10.5782308 15.3752813,10.5782308 C14.350875,10.5782308 13.4880156,11.1197692 13.4880156,12.1851538 C13.4880156,13.2143846 14.3868594,13.7020769 15.3216875,14.0451538 C17.2809219,14.749 19.6352187,15.5797692 19.6352187,18.0005385 C19.6352187,20.1628462 18.2655156,21.4728462 16.4609375,21.8536154 M15.3125,-0.000230769231 C6.85540625,-0.000230769231 0,6.88823077 0,15.3843846 C0,23.8813077 6.85540625,30.769 15.3125,30.769 C15.6662187,30.769 16.0122813,30.7397692 16.359875,30.7159231 C17.6537813,23.4659231 23.3561563,17.7374615 30.5721719,16.4366923 C30.5959063,16.0874615 30.625,15.7397692 30.625,15.3843846 C30.625,6.88823077 23.7695937,-0.000230769231 15.3125,-0.000230769231" id="Fill-1"></path>
                <path d="M29.2986313,28.765 C29.2986313,28.1288462 28.7833656,27.6111538 28.1501937,27.6111538 C27.5170219,27.6111538 27.0017562,28.1288462 27.0017562,28.765 C27.0017562,29.4011538 27.5170219,29.9188462 28.1501937,29.9188462 C28.7833656,29.9188462 29.2986313,29.4011538 29.2986313,28.765" id="Fill-4"></path>
                <path d="M39.5212563,37.8726154 C38.8880844,37.8726154 38.3728188,38.3903077 38.3728188,39.0264615 C38.3728188,39.6626154 38.8880844,40.1803077 39.5212563,40.1803077 C40.1544281,40.1803077 40.6696938,39.6626154 40.6696938,39.0264615 C40.6696938,38.3903077 40.1544281,37.8726154 39.5212563,37.8726154" id="Fill-6"></path>
                <path d="M39.5212562,42.488 C37.6217406,42.488 36.0759437,40.9349231 36.0759437,39.0264615 C36.0759437,37.118 37.6217406,35.5649231 39.5212562,35.5649231 C41.4207719,35.5649231 42.9665687,37.118 42.9665687,39.0264615 C42.9665687,40.9349231 41.4207719,42.488 39.5212562,42.488 L39.5212562,42.488 L39.5212562,42.488 Z M29.4892719,42.308 L26.853225,42.308 L37.8835844,25.3849231 L40.5104437,25.3849231 L29.4892719,42.308 L29.4892719,42.308 Z M24.7048812,28.7649231 C24.7048812,26.8564615 26.2506781,25.3033846 28.1501937,25.3033846 C30.0497094,25.3033846 31.5955062,26.8564615 31.5955062,28.7649231 C31.5955062,30.6741538 30.0497094,32.2264615 28.1501937,32.2264615 C26.2506781,32.2264615 24.7048812,30.6741538 24.7048812,28.7649231 L24.7048812,28.7649231 L24.7048812,28.7649231 Z M33.6871937,18.4618462 C25.2308656,18.4618462 18.3746937,25.3495385 18.3746937,33.8464615 C18.3746937,42.3426154 25.2308656,49.2310769 33.6871937,49.2310769 C42.1442875,49.2310769 48.9996937,42.3426154 48.9996937,33.8464615 C48.9996937,25.3495385 42.1442875,18.4618462 33.6871937,18.4618462 L33.6871937,18.4618462 L33.6871937,18.4618462 Z" id="Fill-8"></path>
            </g>
        </g>
    </g>
</svg>