<?xml version="1.0" encoding="UTF-8" standalone="no"?>
<svg width="58px" height="58px" viewBox="0 0 58 58" version="1.1" xmlns="http://www.w3.org/2000/svg" xmlns:xlink="http://www.w3.org/1999/xlink">
    <!-- Generator: Sketch 41.2 (35397) - http://www.bohemiancoding.com/sketch -->
    <title>Group 11</title>
    <desc>Created with Sketch.</desc>
    <defs></defs>
    <g id="Page-1" stroke="none" stroke-width="1" fill="none" fill-rule="evenodd">
        <g id="Group-11" transform="translate(1.000000, 1.000000)" stroke="#FF7B5C" fill="#FF7B5C">
            <path d="M54.4362726,50.7466529 C53.2402014,50.1685077 52.1833625,49.2800734 51.3957059,48.1993661 C54.1723944,44.6443032 55.6933407,40.260477 55.6933407,35.7506787 C55.6933407,24.5736457 46.6008131,15.479792 35.42378,15.479792 C34.5684963,15.479792 33.7304509,15.5513971 32.9030136,15.6548268 C32.3076301,7.10464183 25.1802659,0.326021242 16.4815666,0.326021242 C7.394343,0.326021242 0.000448560145,7.71858967 0.000448560145,16.8071393 C0.000448560145,20.4059609 1.19121564,23.906657 3.37119456,26.7682108 C2.77978908,27.525369 2.01600085,28.149925 1.15673908,28.5662956 C0.461903952,28.903105 0.0190128575,29.589984 0.000448560145,30.3630544 C-0.0154636948,31.1321467 0.392950848,31.8389161 1.0705477,32.208876 C3.80347748,33.6940198 7.33467205,33.5998723 10.0026268,31.9569319 C11.70126,32.6888957 13.4887366,33.1026143 15.3292541,33.2299123 C15.2258245,34.0573496 15.1555453,34.895395 15.1555453,35.7506787 C15.1555453,46.9263857 24.248073,56.0189134 35.42378,56.0189134 C38.2521833,56.0189134 40.981135,55.4460722 43.5496382,54.3149761 C45.2787699,55.4182258 47.3168645,56.0189134 49.3668934,56.0189134 C51.1702823,56.0189134 52.9551069,55.5667402 54.5317461,54.7088044 C55.2676879,54.308346 55.713231,53.5392537 55.6933407,52.7012083 C55.6734504,51.8631628 55.1921047,51.1152868 54.4362726,50.7466529 L54.4362726,50.7466529 Z M10.4574521,29.2478705 C10.2731351,29.1590271 10.0742319,29.1152684 9.87665477,29.1152684 C9.59553827,29.1152684 9.31442176,29.2054379 9.08104202,29.3804727 C7.47390428,30.587152 5.28066515,30.9411997 3.3924109,30.3312299 C4.52483304,29.5661156 5.48752446,28.5371232 6.16644733,27.3503342 C6.44623782,26.8610323 6.38656686,26.2510625 6.01925898,25.8240837 C3.8485622,23.3112734 2.65249104,20.1089321 2.65249104,16.8071393 C2.65249104,9.18119109 8.85561841,2.97806373 16.4815666,2.97806373 C23.8913733,2.97806373 29.9406822,8.84040364 30.2774916,16.167997 C23.2376448,18.0204487 17.6975281,23.5605654 15.8437504,30.5990862 C13.9674303,30.5142208 12.1560853,30.0753078 10.4574521,29.2478705 L10.4574521,29.2478705 Z M44.475201,51.7318867 C44.2404953,51.5568519 43.9607048,51.4666825 43.6795883,51.4666825 C43.4806851,51.4666825 43.2831079,51.5104412 43.098791,51.6006106 C40.6920624,52.7728134 38.108973,53.3668709 35.42378,53.3668709 C25.7093484,53.3668709 17.8075878,45.4637843 17.8075878,35.7506787 C17.8075878,26.0349211 25.7093484,18.1318345 35.42378,18.1318345 C45.1382116,18.1318345 53.0412982,26.0349211 53.0412982,35.7506787 C53.0412982,39.9568181 51.5190258,44.0383115 48.7529455,47.2406528 C48.3843116,47.6649796 48.3246407,48.2776014 48.6044312,48.7655772 C49.5379501,50.3965833 50.9130341,51.7809495 52.528128,52.7317067 C49.9331044,53.8203702 46.7506535,53.4411281 44.475201,51.7318867 L44.475201,51.7318867 Z" id="Conversation-3"></path>
        </g>
    </g>
</svg>