<?xml version="1.0" encoding="UTF-8" standalone="no"?>
<svg width="42px" height="42px" viewBox="0 0 42 42" version="1.1" xmlns="http://www.w3.org/2000/svg" xmlns:xlink="http://www.w3.org/1999/xlink">
    <!-- Generator: Sketch 39.1 (31720) - http://www.bohemiancoding.com/sketch -->
    <title>Plus</title>
    <desc>Created with Sketch.</desc>
    <defs></defs>
    <g id="Page-1" stroke="none" stroke-width="1" fill="none" fill-rule="evenodd">
        <path d="M41,20 L22,20 L22,1 C22,0.448 21.553,0 21,0 C20.447,0 20,0.448 20,1 L20,20 L1,20 C0.447,20 0,20.448 0,21 C0,21.552 0.447,22 1,22 L20,22 L20,41 C20,41.552 20.447,42 21,42 C21.553,42 22,41.552 22,41 L22,22 L41,22 C41.553,22 42,21.552 42,21 C42,20.448 41.553,20 41,20" id="Plus" fill="#1A1918"></path>
    </g>
</svg>