<?xml version="1.0" encoding="UTF-8" standalone="no"?>
<svg width="43px" height="43px" viewBox="0 0 43 43" version="1.1" xmlns="http://www.w3.org/2000/svg" xmlns:xlink="http://www.w3.org/1999/xlink">
    <!-- Generator: Sketch 39.1 (31720) - http://www.bohemiancoding.com/sketch -->
    <title>File Add</title>
    <desc>Created with Sketch.</desc>
    <defs></defs>
    <g id="Page-1" stroke="none" stroke-width="1" fill="none" fill-rule="evenodd">
        <g id="File-Add" fill="#1A1918">
            <path d="M29.734,20.18 L22.734,20.18 L22.734,13.18 C22.734,12.628 22.287,12.18 21.734,12.18 C21.181,12.18 20.734,12.628 20.734,13.18 L20.734,20.18 L13.734,20.18 C13.181,20.18 12.734,20.628 12.734,21.18 C12.734,21.733 13.181,22.18 13.734,22.18 L20.734,22.18 L20.734,29.18 C20.734,29.733 21.181,30.18 21.734,30.18 C22.287,30.18 22.734,29.733 22.734,29.18 L22.734,22.18 L29.734,22.18 C30.287,22.18 30.734,21.733 30.734,21.18 C30.734,20.628 30.287,20.18 29.734,20.18" id="Fill-425"></path>
            <path d="M42.734,12.18 C42.734,5.563 37.351,0.181 30.734,0.181 L6.734,0.18 C6.267,0.18 5.897,0.223 5.596,0.291 C2.827,0.824 0.734,3.256 0.734,6.18 L0.734,36.18 C0.734,39.494 3.421,42.18 6.734,42.18 L36.734,42.18 C39.885,42.18 42.463,39.751 42.71,36.664 L42.715,36.664 C42.726,36.513 42.734,36.356 42.734,36.18 L42.734,12.18 L42.734,12.18 Z M30.715,2.18 L30.734,2.181 C36.248,2.181 40.734,6.667 40.734,12.18 L34.715,12.18 C32.51,12.18 30.715,10.386 30.715,8.18 L30.715,2.18 L30.715,2.18 Z M40.734,36.18 C40.734,38.386 38.94,40.18 36.734,40.18 L6.734,40.18 C4.529,40.18 2.734,38.386 2.734,36.18 L2.734,6.18 C2.734,3.975 4.529,2.18 6.734,2.18 L28.715,2.18 L28.715,8.18 C28.715,11.494 31.401,14.18 34.715,14.18 L40.734,14.18 L40.734,36.18 L40.734,36.18 Z" id="Fill-426"></path>
        </g>
    </g>
</svg>