
<svg width="180px" height="116px" viewBox="92 32 180 116" version="1.1" xmlns="http://www.w3.org/2000/svg" xmlns:xlink="http://www.w3.org/1999/xlink">
    <!-- Generator: Sketch 39.1 (31720) - http://www.bohemiancoding.com/sketch -->
    <desc>Created with Sketch.</desc>
    <defs>
        <polygon id="path-1" points="11.141708 0.566411215 0.843643558 0.566411215 0.843643558 10.8771729 11.141708 10.8771729 11.141708 0.566411215"></polygon>
    </defs>
    <g id="Individual-Illo" stroke="none" stroke-width="1" fill="none" fill-rule="evenodd" transform="translate(93.000000, 32.000000)">
        <path d="M157,72 L152.997631,72 C149.132946,72 146,68.8633746 146,65.0003297 L146,62 L146,58.9966488 C146,52.9233674 141.066721,48 135.00276,48 L133,48 L133,72.0044883 C133,75.318019 130.317224,78.0041664 127.001815,78.0041664 L118.999999,78.0041664" id="Path-3" stroke="#423D51" stroke-width="3"></path>
        <path d="M172.840621,81.7845421 L156.051836,81.7845421 C153.402584,81.7845421 151.254572,79.6337103 151.254572,76.9809813 L151.254572,76.9809813 C151.254572,74.3282523 153.402584,72.178514 156.051836,72.178514 L172.840621,72.178514 C175.489872,72.178514 177.637885,74.3282523 177.637885,76.9809813 L177.637885,76.9809813 C177.637885,79.6337103 175.489872,81.7845421 172.840621,81.7845421" id="Fill-1" fill="#FFFFFF"></path>
        <path d="M172.272434,82 L155.727566,82 C153.116805,82 151,79.7609562 151,76.9994308 L151,76.9994308 C151,74.2379055 153.116805,72 155.727566,72 L172.272434,72 C174.883195,72 177,74.2379055 177,76.9994308 L177,76.9994308 C177,79.7609562 174.883195,82 172.272434,82 L172.272434,82 Z" id="Stroke-3" stroke="#423D51" stroke-width="3"></path>
        <path d="M172.272434,92 L155.727566,92 C153.116805,92 151,89.7609562 151,86.9994308 L151,86.9994308 C151,84.2379055 153.116805,82 155.727566,82 L172.272434,82 C174.883195,82 177,84.2379055 177,86.9994308 L177,86.9994308 C177,89.7609562 174.883195,92 172.272434,92 L172.272434,92 Z" id="Stroke-3-Copy" stroke="#423D51" stroke-width="3"></path>
        <path d="M172.272434,102 L155.727566,102 C153.116805,102 151,99.7609562 151,96.9994308 L151,96.9994308 C151,94.2379055 153.116805,92 155.727566,92 L172.272434,92 C174.883195,92 177,94.2379055 177,96.9994308 L177,96.9994308 C177,99.7609562 174.883195,102 172.272434,102 L172.272434,102 Z" id="Stroke-3-Copy" stroke="#423D51" stroke-width="3"></path>
        <path d="M172.272434,112 L155.727566,112 C153.116805,112 151,109.760956 151,106.999431 L151,106.999431 C151,104.237906 153.116805,102 155.727566,102 L172.272434,102 C174.883195,102 177,104.237906 177,106.999431 L177,106.999431 C177,109.760956 174.883195,112 172.272434,112 L172.272434,112 Z" id="Stroke-3-Copy" stroke="#423D51" stroke-width="3"></path>
        <polyline id="Stroke-19" stroke="#423D51" stroke-width="3" points="158.5 112 137.318 112 126.45939 101.020217 91.1127399 101.020217"></polyline>
        <polygon id="Fill-21" fill="#1FDDB2" points="119.691459 105.275736 84.8809926 105.275736 96.8648699 74.1515495 119.691459 74.1515495"></polygon>
        <path d="M104.891032,61.7393804 C104.891032,90.5913617 81.532627,113.980427 52.7184675,113.980427 C23.904308,113.980427 0.545903067,90.5913617 0.545903067,61.7393804 C0.545903067,32.8873991 23.904308,9.49833364 52.7184675,9.49833364 C81.532627,9.49833364 104.891032,32.8873991 104.891032,61.7393804" id="Fill-23" fill="#423D51"></path>
        <path d="M104.891032,61.7393804 C104.891032,90.5913617 81.532627,113.980427 52.7184675,113.980427 C23.904308,113.980427 0.545903067,90.5913617 0.545903067,61.7393804 C0.545903067,32.8873991 23.904308,9.49833364 52.7184675,9.49833364 C81.532627,9.49833364 104.891032,32.8873991 104.891032,61.7393804 L104.891032,61.7393804 Z" id="Stroke-25" stroke="#423D51" stroke-width="3"></path>
        <path d="M123.917917,6.52866589 L128.74685,15.3692734 C128.858236,15.5748435 129.0275,15.743236 129.231709,15.8547687 L138.060727,20.6900397 C138.907046,21.1536659 138.907046,22.3695911 138.060727,22.8332173 L129.231709,27.6684883 C129.0275,27.7811145 128.858236,27.949507 128.74685,28.1539836 L123.917917,36.9945911 C123.454899,37.842021 122.240567,37.842021 121.777549,36.9945911 L116.948617,28.1539836 C116.83723,27.949507 116.669058,27.7811145 116.463758,27.6684883 L107.634739,22.8332173 C106.78842,22.3695911 106.78842,21.1536659 107.634739,20.6900397 L116.463758,15.8547687 C116.669058,15.743236 116.83723,15.5748435 116.948617,15.3692734 L121.777549,6.52866589 C122.240567,5.68123598 123.454899,5.68123598 123.917917,6.52866589" id="Fill-27" fill="#FFAE38"></path>
        <path d="M153.297791,26.3870841 L156.237521,31.7679907 C156.305227,31.8926449 156.407877,31.9954299 156.532368,32.0643178 L161.906221,35.0068131 C162.421656,35.2889252 162.421656,36.0291963 161.906221,36.3113084 L156.532368,39.2548972 C156.407877,39.3226916 156.305227,39.4254766 156.237521,39.5501308 L153.297791,44.9321308 C153.016049,45.4471495 152.276748,45.4471495 151.995006,44.9321308 L149.055276,39.5501308 C148.987571,39.4254766 148.88492,39.3226916 148.760429,39.2548972 L143.386577,36.3113084 C142.871141,36.0291963 142.871141,35.2889252 143.386577,35.0068131 L148.760429,32.0643178 C148.88492,31.9954299 148.987571,31.8926449 149.055276,31.7679907 L151.995006,26.3870841 C152.276748,25.870972 153.016049,25.870972 153.297791,26.3870841" id="Fill-29" fill="#FFAE38"></path>
        <g id="Group-33" transform="translate(144.000000, 0.000000)">
            <mask id="mask-2" fill="white">
                <use xlink:href="#path-1"></use>
            </mask>
            <g id="Clip-32"></g>
            <path d="M6.34007607,0.772528037 L7.90931534,3.64504206 C7.94535215,3.71174299 7.99995337,3.76641589 8.06656687,3.8025 L10.9353153,5.37379907 C11.2105055,5.5236028 11.2105055,5.91943458 10.9353153,6.07033178 L8.06656687,7.64053738 C7.99995337,7.67771495 7.94535215,7.73238785 7.90931534,7.79908879 L6.34007607,10.6705093 C6.18937669,10.9460607 5.79515583,10.9460607 5.64445644,10.6705093 L4.0763092,7.79908879 C4.03918037,7.73238785 3.98457914,7.67771495 3.91796564,7.64053738 L1.04921718,6.07033178 C0.775119018,5.91943458 0.775119018,5.5236028 1.04921718,5.37379907 L3.91796564,3.8025 C3.98457914,3.76641589 4.03918037,3.71174299 4.0763092,3.64504206 L5.64445644,0.772528037 C5.79515583,0.496976636 6.18937669,0.496976636 6.34007607,0.772528037" id="Fill-31" fill="#FFAE38" mask="url(#mask-2)"></path>
        </g>
        <path d="M110.891816,58.1341402 C110.891816,86.9861215 87.533411,110.375187 58.7192515,110.375187 C29.905092,110.375187 6.54668712,86.9861215 6.54668712,58.1341402 C6.54668712,29.2821589 29.905092,5.89309346 58.7192515,5.89309346 C87.533411,5.89309346 110.891816,29.2821589 110.891816,58.1341402" id="Fill-34" fill="#FFFFFF"></path>
        <path d="M110.891816,58.1341402 C110.891816,86.9861215 87.533411,110.375187 58.7192515,110.375187 C29.905092,110.375187 6.54668712,86.9861215 6.54668712,58.1341402 C6.54668712,29.2821589 29.905092,5.89309346 58.7192515,5.89309346 C87.533411,5.89309346 110.891816,29.2821589 110.891816,58.1341402 L110.891816,58.1341402 Z" id="Stroke-36" stroke="#423D51" stroke-width="3"></path>
        <path d="M78.6090589,48.4614112 C78.6090589,48.4614112 87.1246663,35.5137757 96.6416601,48.4614112" id="Stroke-38" stroke="#423D51" stroke-width="3"></path>
        <path d="M37.1223914,48.4614112 C37.1223914,48.4614112 45.6379988,35.5137757 55.1549926,48.4614112" id="Stroke-40" stroke="#423D51" stroke-width="3"></path>
        <polyline id="Stroke-42" stroke="#423D51" stroke-width="3" points="70.2973325 42.9413075 70.2973325 61.2534477 52.5388294 61.2534477"></polyline>
        <path d="M36.7174687,78.7125813 C36.7174687,78.7125813 58.7195791,97.4599178 80.8429043,78.7125813" id="Stroke-44" stroke="#423D51" stroke-width="3"></path>
        <path d="M95.6893055,68.9177131 L86.0958699,68.9177131 C83.4466184,68.9177131 81.2986061,66.7668813 81.2986061,64.1141523 L81.2986061,64.1141523 C81.2986061,61.4614234 83.4466184,59.311685 86.0958699,59.311685 L95.6893055,59.311685 C98.3385571,59.311685 100.486569,61.4614234 100.486569,64.1141523 L100.486569,64.1141523 C100.486569,66.7668813 98.3385571,68.9177131 95.6893055,68.9177131" id="Fill-46" fill="#FF7A5C"></path>
        <path d="M42.4049509,68.5790692 L32.8115153,68.5790692 C30.1622638,68.5790692 28.0142515,66.4282374 28.0142515,63.7755084 L28.0142515,63.7755084 C28.0142515,61.1227794 30.1622638,58.9730411 32.8115153,58.9730411 L42.4049509,58.9730411 C45.0542025,58.9730411 47.2022147,61.1227794 47.2022147,63.7755084 L47.2022147,63.7755084 C47.2022147,66.4282374 45.0542025,68.5790692 42.4049509,68.5790692" id="Fill-48" fill="#FF7A5C"></path>
        <path d="M152.453069,80.1498224 C152.453069,80.1498224 150.013486,88.0883271 138.265486,87.1249907" id="Stroke-50" stroke="#423D51" stroke-width="3"></path>
        <path d="M115.929434,99.8077907 C115.929434,101.071828 114.906207,102.096398 113.643827,102.096398 C112.381447,102.096398 111.357128,101.071828 111.357128,99.8077907 C111.357128,98.5437533 112.381447,97.5191832 113.643827,97.5191832 C114.906207,97.5191832 115.929434,98.5437533 115.929434,99.8077907" id="Fill-52" fill="#FFFFFF"></path>
    </g>
</svg>