<?xml version="1.0" encoding="utf-8"?>
<!-- Generator: Adobe Illustrator 21.0.2, SVG Export Plug-In . SVG Version: 6.00 Build 0)  -->
<svg version="1.1" id="Layer_1" xmlns="http://www.w3.org/2000/svg" xmlns:xlink="http://www.w3.org/1999/xlink" x="0px" y="0px"
	 viewBox="0 0 612 792" style="enable-background:new 0 0 612 792;" xml:space="preserve">
<style type="text/css">
	.st0{fill:#423d51;}
</style>
<g>
	<path class="st0" d="M286.8,359.1c1.4-4.1,2.4-7.5,2.6-10.4c0.2-3.6-1.8-4.5-7.6-4.5h-1.2l1.1-4.1c9.3-0.2,17.9-0.9,25.5-1.8
		l-22.6,70.3c-1,3-1.4,5-1.4,6.1c-0.1,1.5,0.8,2.7,2.3,2.7c2.7,0,7.3-4.1,11.6-12l3,1.4c-5.9,13-14.5,19.4-22.1,19.4
		c-6.1,0-9.3-3.4-9-9.6c0.2-3.6,2.2-10.3,5.4-20.1L286.8,359.1z"/>
	<path class="st0" d="M117.8,398.3c-1.3,2-2.2,4.8-4.2,8.4c-5.9,13-14.5,19.4-22,19.4c-6,0-9.3-3.4-8.9-9.6
		c0.2-3.6,2.2-10.3,5.4-20.1l12.4-37.3c1.4-4.1,2.5-7.5,2.6-10.4c0.2-3.6-1.8-4.5-7.6-4.5h-1.2l1.1-4.1c9.3-0.2,17.9-0.8,25.5-1.8
		l-22.6,70.3c-1,3-1.4,5-1.4,6.1c-0.1,1.5,0.8,2.7,2.3,2.7c2.7,0,6.7-4.1,11-12c2-4.3,4.2-7.9,6.2-10.8L117.8,398.3z"/>
	<path class="st0" d="M154.3,407.5c-6,7.9-13.2,11.8-18.5,11.8c-5.3,0-7.8-3.5-7.4-10.6c0.1-1.3,0.4-3.1,0.9-5.6
		c21.2-4.7,32.4-13.1,32.9-22.2c0.4-6.6-4.9-11.3-13.9-11.3c-7.8,0-15.7,3.7-22.5,10.8c-7.6,7.7-11.9,17.1-12.4,26.4
		c-0.6,12.1,5.9,19.3,17,19.3c9.7,0,19.5-5.2,27-16L154.3,407.5z M130.2,399.3c4.5-16.7,10.3-25.2,16.6-25.2c2.9,0,4.9,2.2,4.7,5.3
		C151.1,386.7,143.8,394,130.2,399.3"/>
	<path class="st0" d="M245.6,414.6c-0.3,1.5-0.5,2.7-0.6,3.9c-0.3,5.4,2.3,7.9,7.7,7.9c7.4,0,14.8-5.8,20.9-17.7l1.2-2.9l-3.8,1.4
		c-1.5,4.8-8,10.7-10.7,10.7c-1.6,0-2.5-1.1-2.4-3c0.1-1.6,1-5.7,3.2-12l10.8-31.6h-13.1l-2.6,7.5c-1.1-5.7-5.6-9.1-12-9.1
		c-7.4,0-15.3,4.5-22.3,13.3c-6,7.4-9.5,17-10,25.7c-0.6,10.4,5.1,17.4,13.3,17.4C233.2,426.1,239.5,422.4,245.6,414.6 M226.3,411.2
		c0.3-6,2.6-14.2,7.1-22.2c4.5-8.1,9-12.2,13.2-12.2c3.6,0,5.8,2.8,5.5,7.6c-0.3,5.3-3,15.5-7.8,23.9c-4,7-7.8,10.5-12.4,10.5
		C228.6,418.8,226.1,416,226.3,411.2"/>
	<path class="st0" d="M215,368.9c-2.8,0-6,1.7-8.9,5.2c-0.1-0.1-0.1-0.1-0.2-0.2c-3.7-3-8.1-4.3-13.8-4.3c-15,0-25.9,10.7-26.5,23.4
		c-0.3,6.1,1.5,10.4,5.8,13.6c-7.6,1.3-13.6,7.1-14,13.3c-0.4,7.1,5.9,10,16.9,11.8l9.6,1.6c7.3,1.1,10.6,3.1,10.4,7.3
		c-0.3,5.7-9,9.7-19.8,9.7c-10.9,0-16.5-3.8-16.2-8.4c0.3-4.7,4.9-5.5,5-6.2c0.1-1.2-2.5-3.2-5.8-3.2c-4.1,0-7.8,3.4-8.1,8
		c-0.4,7.7,8.3,14.1,23.8,14.1c19,0,31.7-7,32.4-18.7c0.6-11-6.2-13.8-21.3-16.1l-7.9-1.2c-4.9-0.8-8.1-1.3-8-3.8
		c0.3-5.2,8.6-3.7,19.4-4.6c13.8-1.2,22.8-11.3,23.4-23.5c0.2-3.6-0.7-6.9-2.8-9.9c0,0,0-0.1-0.1-0.1c0.8-0.8,1.6-1.1,2.4-1.1
		c2,0,2.6,2.5,5.5,2.5c2.5,0,4.3-1.6,4.5-4.3C221,370.8,218.9,368.9,215,368.9z M197.7,381.4c-0.7,13.3-7.3,24.3-13.2,24.3
		c-4.2,0-5.6-2.5-5.3-8.2c0.7-13,6.9-23.4,12.9-23.4C196.1,374.1,198,376.6,197.7,381.4z"/>
</g>
<g>
	<polygon class="st0" points="347.5,380.9 317,414.7 338.9,414.7 336.3,424.3 299.6,424.3 302.4,413.6 332.6,379.9 312.1,379.9 
		314.7,370.2 350.3,370.2 	"/>
	<path class="st0" d="M360.4,425.4c19.5,0,25.2-11.9,29.7-28.8c3.9-14.8,5.1-27.4-14.8-27.4c-19.9,0-25.4,12.6-29.4,27.4
		C341.5,413.5,340.9,425.4,360.4,425.4 M363,415.8c-5.6,0-6-3.5-1.6-20c3-11.2,5-16.9,11.4-16.9c6.4,0,5.5,5.7,2.5,16.9
		C370.9,412.2,368.5,415.8,363,415.8"/>
	<path class="st0" d="M408.5,425.4c19.5,0,25.2-11.9,29.7-28.8c3.9-14.8,5.1-27.4-14.8-27.4c-19.9,0-25.4,12.6-29.3,27.4
		C389.6,413.5,389.1,425.4,408.5,425.4 M411.1,415.8c-5.6,0-6-3.5-1.7-20c3-11.2,5-16.9,11.5-16.9c6.4,0,5.5,5.7,2.5,16.9
		C419,412.2,416.7,415.8,411.1,415.8"/>
	<path class="st0" d="M463,375.7h0.2c4.3-4.8,8.8-6.5,14.5-6.5c5.4,0,8.9,2.6,10.3,6.8c4.8-4.7,9.6-6.8,15.9-6.8
		c7.2,0,12.4,4.3,10.4,11.8l-11.5,43.4h-15.1l9.9-37.3c1.3-4.8,1.4-8.6-3.4-8.6c-4.8,0-6.7,3.7-8,8.6l-9.9,37.3h-14.8l9.9-37.3
		c1.3-4.8,1.4-8.6-3.4-8.6c-4.8,0-6.7,3.7-8,8.6l-9.9,37.3H435l14.4-54.1h15.1L463,375.7z"/>
	<path class="st0" d="M522.4,375.1h1.2c1,0,2-0.1,2-1.2c0-1-0.9-1.1-1.6-1.1h-1.5V375.1z M521.2,371.8h2.9c1.8,0,2.6,0.7,2.6,2.1
		c0,1.4-0.9,1.9-2,2l2.1,3.3h-1.2l-2-3.2h-1.2v3.2h-1.2V371.8z M523.7,381c3,0,5.3-2.4,5.3-5.5c0-3.1-2.3-5.4-5.3-5.4
		c-3,0-5.3,2.4-5.3,5.4C518.5,378.7,520.7,381,523.7,381 M523.7,369.2c3.5,0,6.4,2.8,6.4,6.4c0,3.7-2.9,6.4-6.4,6.4
		c-3.5,0-6.5-2.8-6.5-6.4C517.3,371.9,520.2,369.2,523.7,369.2"/>
</g>
</svg>
