<?xml version="1.0" encoding="UTF-8" standalone="no"?>
<svg width="155px" height="47px" viewBox="0 0 155 47" version="1.1" xmlns="http://www.w3.org/2000/svg" xmlns:xlink="http://www.w3.org/1999/xlink">
    <!-- Generator: Sketch 39.1 (31720) - http://www.bohemiancoding.com/sketch -->
    <title>Group</title>
    <desc>Created with Sketch.</desc>
    <defs>
        <polygon id="path-1" points="7.96913641 0.0209809086 0.0339569571 0.0209809086 0.0339569571 9.1952996 7.96913641 9.1952996 7.96913641 0.0209809086"></polygon>
    </defs>
    <g id="Page-1" stroke="none" stroke-width="1" fill="none" fill-rule="evenodd">
        <g id="Group">
            <g id="Logo">
                <polygon id="Fill-1" fill="#FF7B5C" points="51.0118108 34.3387804 55.1282321 34.3387804 55.1282321 11.6062863 51.0118108 11.6062863"></polygon>
                <g id="Group-57" transform="translate(0.000000, 0.059099)">
                    <path d="M63.0289588,28.1643232 C63.2296935,28.6765937 63.5036044,29.1250406 63.8522111,29.5092635 C64.2008977,29.8934864 64.6227605,30.1977096 65.1186792,30.4215327 C65.6153177,30.6457561 66.1693775,30.7576276 66.7817384,30.7576276 C67.3728261,30.7576276 67.9214477,30.6457561 68.4283229,30.4215327 C68.935198,30.1977096 69.3625791,29.8934864 69.7104659,29.5092635 C70.0591525,29.1250406 70.3338632,28.6765937 70.5337182,28.1643232 C70.7344529,27.6520527 70.8352202,27.1078304 70.8352202,26.5317363 C70.8352202,25.9552418 70.7344529,25.4054939 70.5337182,24.8825728 C70.3338632,24.3596517 70.0591525,23.9060797 69.7104659,23.5219369 C69.3625791,23.137714 68.935198,22.8334908 68.4283229,22.6092673 C67.9214477,22.3854443 67.3728261,22.2730923 66.7817384,22.2730923 C66.1693775,22.2730923 65.6153177,22.3854443 65.1186792,22.6092673 C64.6227605,22.8334908 64.2008977,23.137714 63.8522111,23.5219369 C63.5036044,23.9060797 63.2296935,24.3596517 63.0289588,24.8825728 C62.8282241,25.4054939 62.7282566,25.9552418 62.7282566,26.5317363 C62.7282566,27.1078304 62.8282241,27.6520527 63.0289588,28.1643232 M59.2289146,23.3777131 C59.6406207,22.3854443 60.2104354,21.5260278 60.9384386,20.8005048 C61.6673216,20.0746615 62.53312,19.4985674 63.5358339,19.0714217 C64.5385479,18.6445963 65.6200362,18.4310235 66.7817384,18.4310235 C67.9427208,18.4310235 69.0249289,18.6445963 70.0276428,19.0714217 C71.0304367,19.4985674 71.8961551,20.0746615 72.6242384,20.8005048 C73.3522416,21.5260278 73.922936,22.3854443 74.3345622,23.3777131 C74.7461883,24.3703023 74.9516415,25.42167 74.9516415,26.5317363 C74.9516415,27.6627033 74.7461883,28.7140711 74.3345622,29.685359 C73.922936,30.6563266 73.3522416,31.5102977 72.6242384,32.2467916 C71.8961551,32.9828852 71.0304367,33.5593797 70.0276428,33.9755544 C69.0249289,34.3916491 67.9427208,34.5996964 66.7817384,34.5996964 C65.6200362,34.5996964 64.5385479,34.3916491 63.5358339,33.9755544 C62.53312,33.5593797 61.6673216,32.9828852 60.9384386,32.2467916 C60.2104354,31.5102977 59.6406207,30.6563266 59.2289146,29.685359 C58.8172884,28.7140711 58.6111155,27.6627033 58.6111155,26.5317363 C58.6111155,25.42167 58.8172884,24.3703023 59.2289146,23.3777131" id="Fill-2" fill="#FF7B5C"></path>
                    <path d="M81.9007416,28.1643232 C82.1014763,28.6765937 82.3753873,29.1250406 82.7239939,29.5092635 C83.0726805,29.8934864 83.4945433,30.1977096 83.990462,30.4215327 C84.4871005,30.6457561 85.0411603,30.7576276 85.6535212,30.7576276 C86.244609,30.7576276 86.7932306,30.6457561 87.3001057,30.4215327 C87.8069809,30.1977096 88.2343619,29.8934864 88.5822488,29.5092635 C88.9309354,29.1250406 89.205646,28.6765937 89.405501,28.1643232 C89.6062358,27.6520527 89.707003,27.1078304 89.707003,26.5317363 C89.707003,25.9552418 89.6062358,25.4054939 89.405501,24.8825728 C89.205646,24.3596517 88.9309354,23.9060797 88.5822488,23.5219369 C88.2343619,23.137714 87.8069809,22.8334908 87.3001057,22.6092673 C86.7932306,22.3854443 86.244609,22.2730923 85.6535212,22.2730923 C85.0411603,22.2730923 84.4871005,22.3854443 83.990462,22.6092673 C83.4945433,22.8334908 83.0726805,23.137714 82.7239939,23.5219369 C82.3753873,23.9060797 82.1014763,24.3596517 81.9007416,24.8825728 C81.7000069,25.4054939 81.6001194,25.9552418 81.6001194,26.5317363 C81.6001194,27.1078304 81.7000069,27.6520527 81.9007416,28.1643232 M78.1006974,23.3777131 C78.5124035,22.3854443 79.0822182,21.5260278 79.8103014,20.8005048 C80.5391044,20.0746615 81.4049029,19.4985674 82.4076168,19.0714217 C83.4103307,18.6445963 84.491819,18.4310235 85.6535212,18.4310235 C86.8145036,18.4310235 87.8967117,18.6445963 88.8994256,19.0714217 C89.9022195,19.4985674 90.767938,20.0746615 91.4960212,20.8005048 C92.2240244,21.5260278 92.7947189,22.3854443 93.206345,23.3777131 C93.6179711,24.3703023 93.8234243,25.42167 93.8234243,26.5317363 C93.8234243,27.6627033 93.6179711,28.7140711 93.206345,29.685359 C92.7947189,30.6563266 92.2240244,31.5102977 91.4960212,32.2467916 C90.767938,32.9828852 89.9022195,33.5593797 88.8994256,33.9755544 C87.8967117,34.3916491 86.8145036,34.5996964 85.6535212,34.5996964 C84.491819,34.5996964 83.4103307,34.3916491 82.4076168,33.9755544 C81.4049029,33.5593797 80.5391044,32.9828852 79.8103014,32.2467916 C79.0822182,31.5102977 78.5124035,30.6563266 78.1006974,29.685359 C77.6890713,28.7140711 77.4828983,27.6627033 77.4828983,26.5317363 C77.4828983,25.42167 77.6890713,24.3703023 78.1006974,23.3777131" id="Fill-4" fill="#FF7B5C"></path>
                    <path d="M97.305444,18.7514148 L101.263677,18.7514148 L101.263677,19.9997788 C101.876038,19.444986 102.535583,19.0449873 103.243193,18.7994627 C103.949923,18.5540181 104.673288,18.4310155 105.412328,18.4310155 C106.467824,18.4310155 107.439108,18.6497134 108.3253,19.0875097 C109.212372,19.5249857 109.961648,20.1172559 110.574009,20.8644005 C111.18637,20.2027011 111.961638,19.6317321 112.901412,19.1514134 C113.841186,18.6714151 114.880928,18.4310155 116.020638,18.4310155 C117.097328,18.4310155 118.111078,18.6552389 119.061089,19.1036858 C120.0111,19.5517323 120.791886,20.1601787 121.404247,20.9286245 C121.889849,21.5476414 122.269965,22.2680393 122.543876,23.0896581 C122.818587,23.9115972 122.955502,24.8987409 122.955502,26.0514096 L122.955502,34.2797696 L118.839161,34.2797696 L118.839161,25.8910098 C118.839161,25.186788 118.770623,24.6371202 118.632908,24.2422467 C118.495993,23.8473732 118.311013,23.5112782 118.078768,23.2338818 C117.762391,22.87088 117.39795,22.6199099 116.986324,22.4812117 C116.574698,22.3425135 116.16859,22.2731644 115.76712,22.2731644 C115.324064,22.2731644 114.90684,22.3425135 114.516487,22.4812117 C114.126134,22.6199099 113.771929,22.7909604 113.455472,22.9934822 C113.139095,23.1964044 112.858866,23.4206279 112.616465,23.6661526 C112.373264,23.9115972 112.189084,24.1302951 112.062405,24.3222464 C112.104071,24.5783416 112.136381,24.850693 112.157654,25.1387401 C112.178047,25.4267871 112.189084,25.7310103 112.189084,26.0514096 L112.189084,34.2797696 L108.071863,34.2797696 L108.071863,25.8910098 C108.071863,25.186788 108.003405,24.6371202 107.866489,24.2422467 C107.728694,23.8473732 107.544514,23.5112782 107.31235,23.2338818 C106.995173,22.87088 106.631531,22.6199099 106.219905,22.4812117 C105.808279,22.3425135 105.401371,22.2731644 105.000701,22.2731644 C104.556766,22.2731644 104.150658,22.3373884 103.781498,22.465436 C103.411618,22.5934836 103.073968,22.753483 102.767748,22.9457547 C102.461607,23.1377059 102.197933,23.3457533 101.976005,23.5699767 C101.754797,23.7942002 101.569817,24.0022475 101.421865,24.1941988 L101.421865,34.2797696 L97.305444,34.2797696 L97.305444,18.7514148 Z" id="Fill-6" fill="#FF7B5C"></path>
                    <polygon id="Fill-8" fill="#FFAE39" points="0 24.6425016 0 33.8150825 7.93270026 29.2291524"></polygon>
                    <polygon id="Fill-10" fill="#FFAE39" points="0 12.331505 0 21.5019238 7.91806502 16.9090267"></polygon>
                    <polygon id="Fill-12" fill="#FF9852" points="21.2947309 12.3334269 21.2947309 21.5044063 29.2269513 16.9186363"></polygon>
                    <polygon id="Fill-14" fill="#FFAE39" points="8.83787789 18.4692376 0.902138622 23.0723048 8.83787789 27.6607174"></polygon>
                    <polygon id="Fill-16" fill="#FF9852" points="0.9046658 35.3838699 8.8378459 39.9702805 8.8378459 30.7976195"></polygon>
                    <polygon id="Fill-18" fill="#FF9852" points="10.6472175 30.7986685 10.6472175 39.973812 18.5813573 35.3861201"></polygon>
                    <polygon id="Fill-20" fill="#FF9852" points="22.1990288 23.0733138 30.1326088 27.6598045 30.1326088 18.4868231"></polygon>
                    <polygon id="Fill-22" fill="#FF7B5C" points="11.5546824 41.5409097 19.4853833 46.125959 19.4853833 36.9552999"></polygon>
                    <polygon id="Fill-24" fill="#FF9852" points="29.2292625 29.2293286 21.2947229 24.6421973 21.2947229 33.8171806"></polygon>
                    <polygon id="Fill-26" fill="#FF9852" points="10.6472175 6.17874144 10.6472175 15.3260172 18.5458488 10.7444915"></polygon>
                    <polygon id="Fill-28" fill="#FF9852" points="19.4853913 21.5045664 19.4853913 12.2931468 11.5318978 16.9065443"></polygon>
                    <polygon id="Fill-30" fill="#FF9852" points="19.4853913 33.8170365 19.4853913 24.6420531 11.5507717 29.2291844"></polygon>
                    <polygon id="Fill-32" fill="#FFAE39" points="10.6472175 18.4867831 10.6472175 27.6598445 18.5807975 23.0732737"></polygon>
                    <polygon id="Fill-34" fill="#FF9852" points="8.83787789 15.3489921 8.83787789 6.17641112 0.904697789 10.7627416"></polygon>
                    <polygon id="Fill-36" fill="#FF7B5C" points="29.1770715 4.57785007 21.2947549 0.0209889166 21.2947549 9.15008654"></polygon>
                    <polygon id="Fill-38" fill="#FF7B5C" points="30.1326088 15.349881 30.1326088 6.11740031 22.1604014 10.7415285"></polygon>
                    <polygon id="Fill-40" fill="#FF7B5C" points="21.2947309 46.125967 29.2257517 41.5407576 21.2947309 36.9549876"></polygon>
                    <g id="Group-44" transform="translate(11.516255, 0.000000)">
                        <mask id="mask-2" fill="white">
                            <use xlink:href="#path-1"></use>
                        </mask>
                        <g id="Clip-43"></g>
                        <polygon id="Fill-42" fill="#FF7B5C" mask="url(#mask-2)" points="7.96913641 0.0209568846 0.0339569571 4.6084886 7.96913641 9.1952996"></polygon>
                    </g>
                    <polygon id="Fill-45" fill="#FF7B5C" points="39.8751605 10.7627577 31.9419804 6.17634706 31.9419804 15.3490081"></polygon>
                    <polygon id="Fill-47" fill="#FF7B5C" points="31.9419404 39.9703926 39.8752005 35.3839019 31.9419404 30.7976515"></polygon>
                    <polygon id="Fill-49" fill="#FF7B5C" points="22.1991728 35.3860801 30.1325928 39.9732114 30.1325928 30.7987886"></polygon>
                    <polygon id="Fill-51" fill="#FF9852" points="31.9419404 27.6608695 39.8751205 23.0737382 31.9419404 18.4879682"></polygon>
                    <polygon id="Fill-53" fill="#FF7B5C" points="40.7798263 21.5044143 40.7798263 12.331513 32.8458464 16.9181638"></polygon>
                    <polygon id="Fill-55" fill="#FF7B5C" points="40.7798263 33.8151145 40.7798263 24.6425336 32.847286 29.2291844"></polygon>
                </g>
            </g>
            <path d="M129.808594,19.5751953 L131.808105,19.5751953 C132.719243,19.5751953 133.380613,19.7048327 133.792236,19.9641113 C134.203859,20.22339 134.409668,20.6357394 134.409668,21.2011719 C134.409668,21.5849629 134.319581,21.8999011 134.139404,22.1459961 C133.959228,22.3920911 133.719728,22.5400388 133.420898,22.5898438 L133.420898,22.6337891 C133.828127,22.7246098 134.121825,22.89453 134.302002,23.1435547 C134.482179,23.3925794 134.572266,23.7236307 134.572266,24.1367188 C134.572266,24.7226592 134.360598,25.1796859 133.937256,25.5078125 C133.513914,25.8359391 132.938968,26 132.212402,26 L129.808594,26 L129.808594,19.5751953 Z M131.170898,22.1196289 L131.961914,22.1196289 C132.331057,22.1196289 132.598388,22.0625006 132.763916,21.9482422 C132.929444,21.8339838 133.012207,21.6450208 133.012207,21.3813477 C133.012207,21.1352527 132.92212,20.9587408 132.741943,20.8518066 C132.561767,20.7448725 132.276857,20.6914062 131.887207,20.6914062 L131.170898,20.6914062 L131.170898,22.1196289 Z M131.170898,23.2006836 L131.170898,24.875 L132.058594,24.875 C132.433596,24.875 132.710448,24.8032234 132.88916,24.659668 C133.067872,24.5161126 133.157227,24.2963882 133.157227,24.0004883 C133.157227,23.4672825 132.776371,23.2006836 132.014648,23.2006836 L131.170898,23.2006836 Z M140.680664,26 L136.980469,26 L136.980469,19.5751953 L140.680664,19.5751953 L140.680664,20.6914062 L138.342773,20.6914062 L138.342773,22.1020508 L140.518066,22.1020508 L140.518066,23.2182617 L138.342773,23.2182617 L138.342773,24.875 L140.680664,24.875 L140.680664,26 Z M145.624512,26 L144.262207,26 L144.262207,20.7089844 L142.517578,20.7089844 L142.517578,19.5751953 L147.369141,19.5751953 L147.369141,20.7089844 L145.624512,20.7089844 L145.624512,26 Z M152.787598,26 L152.321777,24.4707031 L149.979492,24.4707031 L149.513672,26 L148.045898,26 L150.313477,19.5488281 L151.979004,19.5488281 L154.255371,26 L152.787598,26 Z M151.996582,23.328125 C151.565916,21.9423759 151.323487,21.1586923 151.269287,20.9770508 C151.215088,20.7954092 151.17627,20.651856 151.152832,20.5463867 C151.056152,20.9213886 150.779299,21.8486254 150.322266,23.328125 L151.996582,23.328125 Z" id="BETA" fill="#A09EA8" opacity="0.600000024"></path>
        </g>
    </g>
</svg>