<?xml version="1.0" encoding="UTF-8" standalone="no"?>
<svg width="42px" height="42px" viewBox="0 0 42 42" version="1.1" xmlns="http://www.w3.org/2000/svg" xmlns:xlink="http://www.w3.org/1999/xlink">
    <!-- Generator: Sketch 39.1 (31720) - http://www.bohemiancoding.com/sketch -->
    <title>Close</title>
    <desc>Created with Sketch.</desc>
    <defs></defs>
    <g id="Page-1" stroke="none" stroke-width="1" fill="none" fill-rule="evenodd">
        <path d="M22.4145,20.9995 L41.7065,1.7065 C42.0975,1.3165 42.0975,0.6835 41.7065,0.2925 C41.3165,-0.0975 40.6835,-0.0975 40.2925,0.2925 L20.9995,19.5855 L1.7075,0.2925 C1.3165,-0.0975 0.6835,-0.0975 0.2925,0.2925 C-0.0975,0.6835 -0.0975,1.3165 0.2925,1.7065 L19.5855,20.9995 L0.2925,40.2925 C-0.0975,40.6835 -0.0975,41.3165 0.2925,41.7065 C0.4885,41.9025 0.7445,41.9995 0.9995,41.9995 C1.2555,41.9995 1.5115,41.9025 1.7075,41.7065 L20.9995,22.4135 L40.2925,41.7065 C40.4885,41.9025 40.7445,41.9995 41.0005,41.9995 C41.2555,41.9995 41.5115,41.9025 41.7065,41.7065 C42.0975,41.3165 42.0975,40.6835 41.7065,40.2925 L22.4145,20.9995" id="Close" fill="#1A1918"></path>
    </g>
</svg>