<?xml version="1.0" encoding="UTF-8" standalone="no"?>
<svg width="274px" height="580px" viewBox="0 0 274 580" version="1.1" xmlns="http://www.w3.org/2000/svg" xmlns:xlink="http://www.w3.org/1999/xlink">
    <!-- Generator: Sketch 39.1 (31720) - http://www.bohemiancoding.com/sketch -->
    <title>Group 2</title>
    <desc>Created with Sketch.</desc>
    <defs></defs>
    <g id="Page-1" stroke="none" stroke-width="1" fill="none" fill-rule="evenodd" opacity="0.3">
        <g id="Artboard" transform="translate(-1165.000000, 0.000000)" fill="#FFFFFF">
            <g id="Group-2" transform="translate(1165.000000, -16.000000)">
                <g id="Group-1179" transform="translate(46.000000, 94.861000)">
                    <polygon id="Fill-1131" points="0.4701 53.7788 0.4701 73.6738 17.6991 63.7268"></polygon>
                    <polygon id="Fill-1133" points="0.4701 27.0767 0.4701 46.9667 17.6671 37.0047"></polygon>
                    <polygon id="Fill-1135" points="46.7186 27.0809 46.7186 46.9729 63.9466 37.0259"></polygon>
                    <polygon id="Fill-1137" points="19.6646 40.3892 2.4296 50.3732 19.6646 60.3252"></polygon>
                    <polygon id="Fill-1139" points="2.4349 77.0764 19.6649 87.0244 19.6649 67.1294"></polygon>
                    <polygon id="Fill-1141" points="23.5941 67.1313 23.5941 87.0313 40.8261 77.0813"></polygon>
                    <polygon id="Fill-1143" points="48.6826 50.3752 65.9126 60.3232 65.9126 40.4272"></polygon>
                    <polygon id="Fill-1145" points="25.5649 90.4308 42.7889 100.3758 42.7889 80.4848"></polygon>
                    <polygon id="Fill-1147" points="63.9512 63.7274 46.7182 53.7784 46.7182 73.6784"></polygon>
                    <polygon id="Fill-1149" points="23.5941 13.7316 23.5941 33.5716 40.7481 23.6346"></polygon>
                    <polygon id="Fill-1151" points="42.7891 46.9727 42.7891 26.9937 25.5151 36.9997"></polygon>
                    <polygon id="Fill-1153" points="42.7891 73.678 42.7891 53.778 25.5561 63.727"></polygon>
                    <polygon id="Fill-1155" points="23.5941 40.4272 23.5941 60.3232 40.8241 50.3752"></polygon>
                    <polygon id="Fill-1157" points="19.6646 33.6215 19.6646 13.7265 2.4346 23.6745"></polygon>
                    <polygon id="Fill-1159" points="63.8378 10.2593 46.7188 0.3753 46.7188 20.1763"></polygon>
                    <polygon id="Fill-1161" points="65.9131 33.6234 65.9131 13.5984 48.5991 23.6284"></polygon>
                    <polygon id="Fill-1163" points="46.7186 100.3756 63.9436 90.4306 46.7186 80.4836"></polygon>
                    <polygon id="Fill-1165" points="42.7891 0.3756 25.5551 10.3256 42.7891 20.2746"></polygon>
                    <polygon id="Fill-1167" points="87.0723 23.6741 69.8423 13.7261 69.8423 33.6211"></polygon>
                    <polygon id="Fill-1169" points="69.8427 87.0244 87.0727 77.0764 69.8427 67.1294"></polygon>
                    <polygon id="Fill-1171" points="48.683 77.0812 65.913 87.0302 65.913 67.1312"></polygon>
                    <polygon id="Fill-1173" points="69.8427 60.3255 87.0727 50.3765 69.8427 40.4295"></polygon>
                    <polygon id="Fill-1175" points="89.037 46.9724 89.037 27.0764 71.806 37.0254"></polygon>
                    <polygon id="Fill-1177" points="89.037 73.6738 89.037 53.7788 71.809 63.7268"></polygon>
                </g>
                <g id="Group-1228" transform="translate(0.000000, 334.861000)">
                    <polygon id="Fill-1180" points="0.2216 54.1401 0.2216 74.0351 17.4506 64.0881"></polygon>
                    <polygon id="Fill-1182" points="0.2216 27.438 0.2216 47.328 17.4186 37.366"></polygon>
                    <polygon id="Fill-1184" points="46.4701 27.4422 46.4701 47.3342 63.6981 37.3872"></polygon>
                    <polygon id="Fill-1186" points="19.416 40.7505 2.181 50.7345 19.416 60.6865"></polygon>
                    <polygon id="Fill-1188" points="2.1864 77.4377 19.4164 87.3857 19.4164 67.4907"></polygon>
                    <polygon id="Fill-1190" points="23.3456 67.4926 23.3456 87.3926 40.5776 77.4426"></polygon>
                    <polygon id="Fill-1192" points="48.4341 50.7366 65.6641 60.6846 65.6641 40.7886"></polygon>
                    <polygon id="Fill-1194" points="25.3164 90.7921 42.5404 100.7371 42.5404 80.8461"></polygon>
                    <polygon id="Fill-1196" points="63.7026 64.0887 46.4696 54.1397 46.4696 74.0397"></polygon>
                    <polygon id="Fill-1198" points="23.3456 14.0929 23.3456 33.9329 40.4996 23.9959"></polygon>
                    <polygon id="Fill-1200" points="42.5405 47.334 42.5405 27.355 25.2665 37.361"></polygon>
                    <polygon id="Fill-1202" points="42.5405 74.0393 42.5405 54.1393 25.3075 64.0883"></polygon>
                    <polygon id="Fill-1204" points="23.3456 40.7886 23.3456 60.6846 40.5756 50.7366"></polygon>
                    <polygon id="Fill-1206" points="19.416 33.9828 19.416 14.0878 2.186 24.0358"></polygon>
                    <polygon id="Fill-1208" points="63.5892 10.6206 46.4702 0.7366 46.4702 20.5376"></polygon>
                    <polygon id="Fill-1210" points="65.6646 33.9847 65.6646 13.9597 48.3506 23.9897"></polygon>
                    <polygon id="Fill-1212" points="46.4701 100.7369 63.6951 90.7919 46.4701 80.8449"></polygon>
                    <polygon id="Fill-1214" points="42.5405 0.7369 25.3065 10.6869 42.5405 20.6359"></polygon>
                    <polygon id="Fill-1216" points="86.8237 24.0354 69.5937 14.0874 69.5937 33.9824"></polygon>
                    <polygon id="Fill-1218" points="69.5941 87.3857 86.8241 77.4377 69.5941 67.4907"></polygon>
                    <polygon id="Fill-1220" points="48.4344 77.4425 65.6644 87.3915 65.6644 67.4925"></polygon>
                    <polygon id="Fill-1222" points="69.5941 60.6868 86.8241 50.7378 69.5941 40.7908"></polygon>
                    <polygon id="Fill-1224" points="88.7885 47.3337 88.7885 27.4377 71.5575 37.3867"></polygon>
                    <polygon id="Fill-1226" points="88.7885 74.0351 88.7885 54.1401 71.5605 64.0881"></polygon>
                </g>
                <g id="Group-1277" transform="translate(46.000000, 414.861000)">
                    <polygon id="Fill-1229" points="0.5118 54.2171 0.5118 74.1121 17.7398 64.1651"></polygon>
                    <polygon id="Fill-1231" points="0.5118 27.515 0.5118 47.405 17.7088 37.443"></polygon>
                    <polygon id="Fill-1233" points="46.7604 27.5192 46.7604 47.4112 63.9874 37.4642"></polygon>
                    <polygon id="Fill-1235" points="19.7062 40.8275 2.4712 50.8115 19.7062 60.7635"></polygon>
                    <polygon id="Fill-1237" points="2.4766 77.5147 19.7066 87.4627 19.7066 67.5677"></polygon>
                    <polygon id="Fill-1239" points="23.6357 67.5696 23.6357 87.4696 40.8677 77.5196"></polygon>
                    <polygon id="Fill-1241" points="48.7244 50.8136 65.9544 60.7616 65.9544 40.8656"></polygon>
                    <polygon id="Fill-1243" points="25.6066 90.8691 42.8306 100.8141 42.8306 80.9231"></polygon>
                    <polygon id="Fill-1245" points="63.9928 64.1657 46.7608 54.2167 46.7608 74.1167"></polygon>
                    <polygon id="Fill-1247" points="23.6357 14.1699 23.6357 34.0099 40.7897 24.0729"></polygon>
                    <polygon id="Fill-1249" points="42.8308 47.411 42.8308 27.432 25.5568 37.438"></polygon>
                    <polygon id="Fill-1251" points="42.8308 74.1163 42.8308 54.2163 25.5978 64.1653"></polygon>
                    <polygon id="Fill-1253" points="23.6357 40.8656 23.6357 60.7616 40.8657 50.8136"></polygon>
                    <polygon id="Fill-1255" points="19.7062 34.0598 19.7062 14.1648 2.4762 24.1128"></polygon>
                    <polygon id="Fill-1257" points="63.8795 10.6976 46.7605 0.8136 46.7605 20.6146"></polygon>
                    <polygon id="Fill-1259" points="65.9547 34.0617 65.9547 14.0367 48.6407 24.0667"></polygon>
                    <polygon id="Fill-1261" points="46.7604 100.8139 63.9854 90.8689 46.7604 80.9219"></polygon>
                    <polygon id="Fill-1263" points="42.8308 0.8139 25.5968 10.7639 42.8308 20.7129"></polygon>
                    <polygon id="Fill-1265" points="87.1139 24.1124 69.8839 14.1644 69.8839 34.0594"></polygon>
                    <polygon id="Fill-1267" points="69.8843 87.4627 87.1143 77.5147 69.8843 67.5677"></polygon>
                    <polygon id="Fill-1269" points="48.7246 77.5195 65.9546 87.4685 65.9546 67.5695"></polygon>
                    <polygon id="Fill-1271" points="69.8843 60.7638 87.1143 50.8148 69.8843 40.8678"></polygon>
                    <polygon id="Fill-1273" points="89.0787 47.4107 89.0787 27.5147 71.8477 37.4637"></polygon>
                    <polygon id="Fill-1275" points="89.0787 74.1121 89.0787 54.2171 71.8507 64.1651"></polygon>
                </g>
                <g id="Group-1326" transform="translate(185.000000, 14.861000)">
                    <polygon id="Fill-1278" points="0.2185 53.7018 0.2185 73.5968 17.4475 63.6498"></polygon>
                    <polygon id="Fill-1280" points="0.2185 26.9997 0.2185 46.8897 17.4155 36.9287"></polygon>
                    <polygon id="Fill-1282" points="46.467 27.0038 46.467 46.8958 63.695 36.9488"></polygon>
                    <polygon id="Fill-1284" points="19.413 40.3122 2.178 50.2962 19.413 60.2482"></polygon>
                    <polygon id="Fill-1286" points="2.1833 76.9994 19.4133 86.9474 19.4133 67.0524"></polygon>
                    <polygon id="Fill-1288" points="23.3425 67.0543 23.3425 86.9553 40.5745 77.0043"></polygon>
                    <polygon id="Fill-1290" points="48.431 50.2983 65.661 60.2463 65.661 40.3503"></polygon>
                    <polygon id="Fill-1292" points="25.3134 90.3538 42.5374 100.2988 42.5374 80.4078"></polygon>
                    <polygon id="Fill-1294" points="63.6996 63.6505 46.4666 53.7015 46.4666 73.6015"></polygon>
                    <polygon id="Fill-1296" points="23.3425 13.6546 23.3425 33.4946 40.4965 23.5576"></polygon>
                    <polygon id="Fill-1298" points="42.5375 46.8957 42.5375 26.9167 25.2635 36.9227"></polygon>
                    <polygon id="Fill-1300" points="42.5375 73.601 42.5375 53.701 25.3045 63.65"></polygon>
                    <polygon id="Fill-1302" points="23.3425 40.3503 23.3425 60.2463 40.5725 50.2983"></polygon>
                    <polygon id="Fill-1304" points="19.413 33.5445 19.413 13.6495 2.183 23.5975"></polygon>
                    <polygon id="Fill-1306" points="63.5862 10.1823 46.4672 0.2983 46.4672 20.0993"></polygon>
                    <polygon id="Fill-1308" points="65.6615 33.5464 65.6615 13.5214 48.3475 23.5514"></polygon>
                    <polygon id="Fill-1310" points="46.467 100.2986 63.692 90.3536 46.467 80.4066"></polygon>
                    <polygon id="Fill-1312" points="42.5375 0.2986 25.3035 10.2486 42.5375 20.1976"></polygon>
                    <polygon id="Fill-1314" points="86.8207 23.5972 69.5907 13.6492 69.5907 33.5442"></polygon>
                    <polygon id="Fill-1316" points="69.5911 86.9474 86.8211 76.9994 69.5911 67.0524"></polygon>
                    <polygon id="Fill-1318" points="48.4314 77.0042 65.6614 86.9532 65.6614 67.0542"></polygon>
                    <polygon id="Fill-1320" points="69.5911 60.2485 86.8211 50.2995 69.5911 40.3525"></polygon>
                    <polygon id="Fill-1322" points="88.7854 46.8954 88.7854 26.9994 71.5544 36.9484"></polygon>
                    <polygon id="Fill-1324" points="88.7854 73.5968 88.7854 53.7018 71.5574 63.6498"></polygon>
                </g>
                <g id="Group-1375" transform="translate(231.000000, 94.861000)">
                    <polygon id="Fill-1327" points="0.5088 53.7788 0.5088 73.6738 17.7368 63.7268"></polygon>
                    <polygon id="Fill-1329" points="0.5088 27.0767 0.5088 46.9667 17.7058 37.0047"></polygon>
                    <polygon id="Fill-1333" points="19.7031 40.3892 2.4681 50.3732 19.7031 60.3252"></polygon>
                    <polygon id="Fill-1335" points="2.4735 77.0764 19.7035 87.0244 19.7035 67.1294"></polygon>
                    <polygon id="Fill-1337" points="23.6327 67.1313 23.6327 87.0313 40.8647 77.0813"></polygon>
                    <polygon id="Fill-1341" points="25.6035 90.4308 42.8275 100.3758 42.8275 80.4848"></polygon>
                    <polygon id="Fill-1345" points="23.6327 13.7316 23.6327 33.5716 40.7867 23.6346"></polygon>
                    <polygon id="Fill-1347" points="42.8278 46.9727 42.8278 26.9937 25.5538 36.9997"></polygon>
                    <polygon id="Fill-1349" points="42.8278 73.678 42.8278 53.778 25.5948 63.727"></polygon>
                    <polygon id="Fill-1351" points="23.6327 40.4272 23.6327 60.3232 40.8627 50.3752"></polygon>
                    <polygon id="Fill-1353" points="19.7031 33.6215 19.7031 13.7265 2.4731 23.6745"></polygon>
                    <polygon id="Fill-1361" points="42.8278 0.3756 25.5938 10.3256 42.8278 20.2746"></polygon>
                </g>
                <g id="Group-1424" transform="translate(138.000000, 94.861000)">
                    <polygon id="Fill-1376" points="0.9706 53.7788 0.9706 73.6738 18.1996 63.7268"></polygon>
                    <polygon id="Fill-1378" points="0.9706 27.0767 0.9706 46.9667 18.1676 37.0047"></polygon>
                    <polygon id="Fill-1380" points="47.2192 27.0809 47.2192 46.9729 64.4462 37.0259"></polygon>
                    <polygon id="Fill-1382" points="20.165 40.3892 2.93 50.3732 20.165 60.3252"></polygon>
                    <polygon id="Fill-1384" points="2.9354 77.0764 20.1654 87.0244 20.1654 67.1294"></polygon>
                    <polygon id="Fill-1386" points="24.0946 67.1313 24.0946 87.0313 41.3266 77.0813"></polygon>
                    <polygon id="Fill-1388" points="49.1831 50.3752 66.4131 60.3232 66.4131 40.4272"></polygon>
                    <polygon id="Fill-1390" points="26.0654 90.4308 43.2894 100.3758 43.2894 80.4848"></polygon>
                    <polygon id="Fill-1392" points="64.4517 63.7274 47.2197 53.7784 47.2197 73.6784"></polygon>
                    <polygon id="Fill-1394" points="24.0946 13.7316 24.0946 33.5716 41.2486 23.6346"></polygon>
                    <polygon id="Fill-1396" points="43.2896 46.9727 43.2896 26.9937 26.0156 36.9997"></polygon>
                    <polygon id="Fill-1398" points="43.2896 73.678 43.2896 53.778 26.0566 63.727"></polygon>
                    <polygon id="Fill-1400" points="24.0946 40.4272 24.0946 60.3232 41.3246 50.3752"></polygon>
                    <polygon id="Fill-1402" points="20.165 33.6215 20.165 13.7265 2.935 23.6745"></polygon>
                    <polygon id="Fill-1404" points="64.3383 10.2593 47.2193 0.3753 47.2193 20.1763"></polygon>
                    <polygon id="Fill-1406" points="66.4136 33.6234 66.4136 13.5984 49.0996 23.6284"></polygon>
                    <polygon id="Fill-1408" points="47.2192 100.3756 64.4442 90.4306 47.2192 80.4836"></polygon>
                    <polygon id="Fill-1410" points="43.2896 0.3756 26.0556 10.3256 43.2896 20.2746"></polygon>
                    <polygon id="Fill-1412" points="87.5728 23.6741 70.3428 13.7261 70.3428 33.6211"></polygon>
                    <polygon id="Fill-1414" points="70.3431 87.0244 87.5731 77.0764 70.3431 67.1294"></polygon>
                    <polygon id="Fill-1416" points="49.1835 77.0812 66.4135 87.0302 66.4135 67.1312"></polygon>
                    <polygon id="Fill-1418" points="70.3431 60.3255 87.5731 50.3765 70.3431 40.4295"></polygon>
                    <polygon id="Fill-1420" points="89.5375 46.9724 89.5375 27.0764 72.3065 37.0254"></polygon>
                    <polygon id="Fill-1422" points="89.5375 73.6738 89.5375 53.7788 72.3095 63.7268"></polygon>
                </g>
                <g id="Group-1473" transform="translate(185.000000, 174.861000)">
                    <polygon id="Fill-1425" points="0.2185 53.8879 0.2185 73.7829 17.4475 63.8359"></polygon>
                    <polygon id="Fill-1427" points="0.2185 27.1858 0.2185 47.0758 17.4155 37.1138"></polygon>
                    <polygon id="Fill-1429" points="46.467 27.19 46.467 47.082 63.695 37.135"></polygon>
                    <polygon id="Fill-1431" points="19.413 40.4983 2.178 50.4823 19.413 60.4343"></polygon>
                    <polygon id="Fill-1433" points="2.1833 77.1855 19.4133 87.1335 19.4133 67.2385"></polygon>
                    <polygon id="Fill-1435" points="23.3425 67.2404 23.3425 87.1404 40.5745 77.1904"></polygon>
                    <polygon id="Fill-1437" points="48.431 50.4844 65.661 60.4324 65.661 40.5364"></polygon>
                    <polygon id="Fill-1439" points="25.3134 90.5399 42.5374 100.4849 42.5374 80.5939"></polygon>
                    <polygon id="Fill-1441" points="63.6996 63.8365 46.4666 53.8875 46.4666 73.7875"></polygon>
                    <polygon id="Fill-1443" points="23.3425 13.8407 23.3425 33.6807 40.4965 23.7437"></polygon>
                    <polygon id="Fill-1445" points="42.5375 47.0818 42.5375 27.1028 25.2635 37.1088"></polygon>
                    <polygon id="Fill-1447" points="42.5375 73.7871 42.5375 53.8871 25.3045 63.8361"></polygon>
                    <polygon id="Fill-1449" points="23.3425 40.5364 23.3425 60.4324 40.5725 50.4844"></polygon>
                    <polygon id="Fill-1451" points="19.413 33.7306 19.413 13.8356 2.183 23.7836"></polygon>
                    <polygon id="Fill-1453" points="63.5862 10.3684 46.4672 0.4844 46.4672 20.2854"></polygon>
                    <polygon id="Fill-1455" points="65.6615 33.7325 65.6615 13.7075 48.3475 23.7375"></polygon>
                    <polygon id="Fill-1457" points="46.467 100.4847 63.692 90.5397 46.467 80.5927"></polygon>
                    <polygon id="Fill-1459" points="42.5375 0.4847 25.3035 10.4347 42.5375 20.3837"></polygon>
                    <polygon id="Fill-1461" points="86.8207 23.7833 69.5907 13.8353 69.5907 33.7303"></polygon>
                    <polygon id="Fill-1463" points="69.5911 87.1335 86.8211 77.1855 69.5911 67.2385"></polygon>
                    <polygon id="Fill-1465" points="48.4314 77.1903 65.6614 87.1393 65.6614 67.2403"></polygon>
                    <polygon id="Fill-1467" points="69.5911 60.4346 86.8211 50.4856 69.5911 40.5386"></polygon>
                    <polygon id="Fill-1469" points="88.7854 47.0815 88.7854 27.1855 71.5544 37.1345"></polygon>
                    <polygon id="Fill-1471" points="88.7854 73.783 88.7854 53.888 71.5574 63.836"></polygon>
                </g>
                <g id="Group-1522" transform="translate(231.000000, 254.861000)">
                    <polygon id="Fill-1474" points="0.5088 53.9649 0.5088 73.8599 17.7368 63.9129"></polygon>
                    <polygon id="Fill-1476" points="0.5088 27.2628 0.5088 47.1528 17.7058 37.1908"></polygon>
                    <polygon id="Fill-1480" points="19.7031 40.5753 2.4681 50.5593 19.7031 60.5113"></polygon>
                    <polygon id="Fill-1482" points="2.4735 77.2625 19.7035 87.2105 19.7035 67.3155"></polygon>
                    <polygon id="Fill-1484" points="23.6327 67.3174 23.6327 87.2174 40.8647 77.2674"></polygon>
                    <polygon id="Fill-1488" points="25.6035 90.6169 42.8275 100.5619 42.8275 80.6709"></polygon>
                    <polygon id="Fill-1492" points="23.6327 13.9177 23.6327 33.7577 40.7867 23.8207"></polygon>
                    <polygon id="Fill-1494" points="42.8278 47.1588 42.8278 27.1798 25.5538 37.1858"></polygon>
                    <polygon id="Fill-1496" points="42.8278 73.8641 42.8278 53.9641 25.5948 63.9131"></polygon>
                    <polygon id="Fill-1498" points="23.6327 40.6134 23.6327 60.5094 40.8627 50.5614"></polygon>
                    <polygon id="Fill-1500" points="19.7031 33.8076 19.7031 13.9126 2.4731 23.8606"></polygon>
                    <polygon id="Fill-1508" points="42.8278 0.5617 25.5938 10.5117 42.8278 20.4607"></polygon>
                </g>
                <g id="Group-1571" transform="translate(138.000000, 254.861000)">
                    <polygon id="Fill-1523" points="0.9706 53.9649 0.9706 73.8599 18.1996 63.9129"></polygon>
                    <polygon id="Fill-1525" points="0.9706 27.2628 0.9706 47.1528 18.1676 37.1908"></polygon>
                    <polygon id="Fill-1527" points="47.2192 27.267 47.2192 47.159 64.4462 37.212"></polygon>
                    <polygon id="Fill-1529" points="20.165 40.5753 2.93 50.5593 20.165 60.5113"></polygon>
                    <polygon id="Fill-1531" points="2.9354 77.2625 20.1654 87.2105 20.1654 67.3155"></polygon>
                    <polygon id="Fill-1533" points="24.0946 67.3174 24.0946 87.2174 41.3266 77.2674"></polygon>
                    <polygon id="Fill-1535" points="49.1831 50.5614 66.4131 60.5094 66.4131 40.6134"></polygon>
                    <polygon id="Fill-1537" points="26.0654 90.6169 43.2894 100.5619 43.2894 80.6709"></polygon>
                    <polygon id="Fill-1539" points="64.4517 63.9135 47.2197 53.9645 47.2197 73.8645"></polygon>
                    <polygon id="Fill-1541" points="24.0946 13.9177 24.0946 33.7577 41.2486 23.8207"></polygon>
                    <polygon id="Fill-1543" points="43.2896 47.1588 43.2896 27.1798 26.0156 37.1858"></polygon>
                    <polygon id="Fill-1545" points="43.2896 73.8641 43.2896 53.9641 26.0566 63.9131"></polygon>
                    <polygon id="Fill-1547" points="24.0946 40.6134 24.0946 60.5094 41.3246 50.5614"></polygon>
                    <polygon id="Fill-1549" points="20.165 33.8076 20.165 13.9126 2.935 23.8606"></polygon>
                    <polygon id="Fill-1551" points="64.3383 10.4454 47.2193 0.5614 47.2193 20.3624"></polygon>
                    <polygon id="Fill-1553" points="66.4136 33.8095 66.4136 13.7845 49.0996 23.8145"></polygon>
                    <polygon id="Fill-1555" points="47.2192 100.5617 64.4442 90.6167 47.2192 80.6697"></polygon>
                    <polygon id="Fill-1557" points="43.2896 0.5617 26.0556 10.5117 43.2896 20.4607"></polygon>
                    <polygon id="Fill-1559" points="87.5728 23.8603 70.3428 13.9123 70.3428 33.8073"></polygon>
                    <polygon id="Fill-1561" points="70.3431 87.2105 87.5731 77.2625 70.3431 67.3155"></polygon>
                    <polygon id="Fill-1563" points="49.1835 77.2673 66.4135 87.2163 66.4135 67.3173"></polygon>
                    <polygon id="Fill-1565" points="70.3431 60.5116 87.5731 50.5626 70.3431 40.6156"></polygon>
                    <polygon id="Fill-1567" points="89.5375 47.1585 89.5375 27.2625 72.3065 37.2115"></polygon>
                    <polygon id="Fill-1569" points="89.5375 73.86 89.5375 53.965 72.3095 63.913"></polygon>
                </g>
                <g id="Group-1620" transform="translate(185.000000, 334.861000)">
                    <polygon id="Fill-1572" points="0.2603 54.1401 0.2603 74.0351 17.4883 64.0881"></polygon>
                    <polygon id="Fill-1574" points="0.2603 27.438 0.2603 47.328 17.4573 37.366"></polygon>
                    <polygon id="Fill-1576" points="46.5088 27.4422 46.5088 47.3342 63.7358 37.3872"></polygon>
                    <polygon id="Fill-1578" points="19.4546 40.7505 2.2196 50.7345 19.4546 60.6865"></polygon>
                    <polygon id="Fill-1580" points="2.225 77.4377 19.455 87.3857 19.455 67.4907"></polygon>
                    <polygon id="Fill-1582" points="23.3842 67.4926 23.3842 87.3926 40.6162 77.4426"></polygon>
                    <polygon id="Fill-1584" points="48.4728 50.7366 65.7028 60.6846 65.7028 40.7886"></polygon>
                    <polygon id="Fill-1586" points="25.355 90.7921 42.579 100.7371 42.579 80.8461"></polygon>
                    <polygon id="Fill-1588" points="63.7412 64.0887 46.5092 54.1397 46.5092 74.0397"></polygon>
                    <polygon id="Fill-1590" points="23.3842 14.0929 23.3842 33.9329 40.5382 23.9959"></polygon>
                    <polygon id="Fill-1592" points="42.5792 47.334 42.5792 27.355 25.3052 37.361"></polygon>
                    <polygon id="Fill-1594" points="42.5792 74.0393 42.5792 54.1393 25.3462 64.0883"></polygon>
                    <polygon id="Fill-1596" points="23.3842 40.7886 23.3842 60.6846 40.6142 50.7366"></polygon>
                    <polygon id="Fill-1598" points="19.4546 33.9828 19.4546 14.0878 2.2246 24.0358"></polygon>
                    <polygon id="Fill-1600" points="63.6279 10.6206 46.5089 0.7366 46.5089 20.5376"></polygon>
                    <polygon id="Fill-1602" points="65.7031 33.9847 65.7031 13.9597 48.3891 23.9897"></polygon>
                    <polygon id="Fill-1604" points="46.5088 100.7369 63.7338 90.7919 46.5088 80.8449"></polygon>
                    <polygon id="Fill-1606" points="42.5792 0.7369 25.3452 10.6869 42.5792 20.6359"></polygon>
                    <polygon id="Fill-1608" points="86.8623 24.0354 69.6323 14.0874 69.6323 33.9824"></polygon>
                    <polygon id="Fill-1610" points="69.6327 87.3857 86.8627 77.4377 69.6327 67.4907"></polygon>
                    <polygon id="Fill-1612" points="48.473 77.4425 65.703 87.3915 65.703 67.4925"></polygon>
                    <polygon id="Fill-1614" points="69.6327 60.6868 86.8627 50.7378 69.6327 40.7908"></polygon>
                    <polygon id="Fill-1616" points="88.8271 47.3337 88.8271 27.4377 71.5961 37.3867"></polygon>
                    <polygon id="Fill-1618" points="88.8271 74.0351 88.8271 54.1401 71.5991 64.0881"></polygon>
                </g>
                <g id="Group-1671" transform="translate(231.000000, 414.861000)">
                    <polygon id="Fill-1621" points="0.5504 54.2171 0.5504 74.1121 17.7794 64.1651"></polygon>
                    <polygon id="Fill-1623" points="0.5504 27.515 0.5504 47.405 17.7474 37.443"></polygon>
                    <polygon id="Fill-1627" points="19.7448 40.8275 2.5098 50.8115 19.7448 60.7635"></polygon>
                    <polygon id="Fill-1629" points="2.5153 77.5147 19.7443 87.4627 19.7443 67.5677"></polygon>
                    <polygon id="Fill-1631" points="23.6744 67.5696 23.6744 87.4696 40.9064 77.5196"></polygon>
                    <polygon id="Fill-1635" points="25.6453 90.8691 42.8693 100.8141 42.8693 80.9231"></polygon>
                    <polygon id="Fill-1639" points="23.6744 14.1699 23.6744 34.0099 40.8284 24.0729"></polygon>
                    <polygon id="Fill-1641" points="42.8694 47.411 42.8694 27.432 25.5954 37.438"></polygon>
                    <polygon id="Fill-1643" points="42.8694 74.1163 42.8694 54.2163 25.6364 64.1653"></polygon>
                    <polygon id="Fill-1645" points="23.6744 40.8656 23.6744 60.7616 40.9044 50.8136"></polygon>
                    <polygon id="Fill-1647" points="19.7448 34.0598 19.7448 14.1648 2.5158 24.1128"></polygon>
                    <polygon id="Fill-1655" points="42.8694 0.8139 25.6354 10.7639 42.8694 20.7129"></polygon>
                </g>
                <g id="Group-1720" transform="translate(139.000000, 414.861000)">
                    <polygon id="Fill-1672" points="0.0123 54.2171 0.0123 74.1121 17.2403 64.1651"></polygon>
                    <polygon id="Fill-1674" points="0.0123 27.515 0.0123 47.405 17.2093 37.443"></polygon>
                    <polygon id="Fill-1676" points="46.2609 27.5192 46.2609 47.4112 63.4879 37.4642"></polygon>
                    <polygon id="Fill-1678" points="19.2067 40.8275 1.9717 50.8115 19.2067 60.7635"></polygon>
                    <polygon id="Fill-1680" points="1.9771 77.5147 19.2071 87.4627 19.2071 67.5677"></polygon>
                    <polygon id="Fill-1682" points="23.1362 67.5696 23.1362 87.4696 40.3682 77.5196"></polygon>
                    <polygon id="Fill-1684" points="48.2249 50.8136 65.4549 60.7616 65.4549 40.8656"></polygon>
                    <polygon id="Fill-1686" points="25.1071 90.8691 42.3311 100.8141 42.3311 80.9231"></polygon>
                    <polygon id="Fill-1688" points="63.4933 64.1657 46.2613 54.2167 46.2613 74.1167"></polygon>
                    <polygon id="Fill-1690" points="23.1362 14.1699 23.1362 34.0099 40.2902 24.0729"></polygon>
                    <polygon id="Fill-1692" points="42.3313 47.411 42.3313 27.432 25.0573 37.438"></polygon>
                    <polygon id="Fill-1694" points="42.3313 74.1163 42.3313 54.2163 25.0983 64.1653"></polygon>
                    <polygon id="Fill-1696" points="23.1362 40.8656 23.1362 60.7616 40.3662 50.8136"></polygon>
                    <polygon id="Fill-1698" points="19.2067 34.0598 19.2067 14.1648 1.9767 24.1128"></polygon>
                    <polygon id="Fill-1700" points="63.38 10.6976 46.261 0.8136 46.261 20.6146"></polygon>
                    <polygon id="Fill-1702" points="65.4552 34.0617 65.4552 14.0367 48.1412 24.0667"></polygon>
                    <polygon id="Fill-1704" points="46.2609 100.8139 63.4859 90.8689 46.2609 80.9219"></polygon>
                    <polygon id="Fill-1706" points="42.3313 0.8139 25.0973 10.7639 42.3313 20.7129"></polygon>
                    <polygon id="Fill-1708" points="86.6144 24.1124 69.3844 14.1644 69.3844 34.0594"></polygon>
                    <polygon id="Fill-1710" points="69.3848 87.4627 86.6148 77.5147 69.3848 67.5677"></polygon>
                    <polygon id="Fill-1712" points="48.2251 77.5195 65.4551 87.4685 65.4551 67.5695"></polygon>
                    <polygon id="Fill-1714" points="69.3848 60.7638 86.6148 50.8148 69.3848 40.8678"></polygon>
                    <polygon id="Fill-1716" points="88.5792 47.4107 88.5792 27.5147 71.3482 37.4637"></polygon>
                    <polygon id="Fill-1718" points="88.5792 74.1121 88.5792 54.2171 71.3512 64.1651"></polygon>
                </g>
                <g id="Group-1769" transform="translate(185.000000, 494.861000)">
                    <polygon id="Fill-1721" points="0.2603 54.3262 0.2603 74.2212 17.4883 64.2742"></polygon>
                    <polygon id="Fill-1723" points="0.2603 27.6241 0.2603 47.5141 17.4573 37.5521"></polygon>
                    <polygon id="Fill-1725" points="46.5088 27.6283 46.5088 47.5203 63.7358 37.5733"></polygon>
                    <polygon id="Fill-1727" points="19.4546 40.9366 2.2196 50.9206 19.4546 60.8726"></polygon>
                    <polygon id="Fill-1729" points="2.225 77.6238 19.455 87.5718 19.455 67.6768"></polygon>
                    <polygon id="Fill-1731" points="23.3842 67.6787 23.3842 87.5787 40.6162 77.6287"></polygon>
                    <polygon id="Fill-1733" points="48.4728 50.9227 65.7028 60.8707 65.7028 40.9747"></polygon>
                    <polygon id="Fill-1735" points="25.355 90.9782 42.579 100.9232 42.579 81.0322"></polygon>
                    <polygon id="Fill-1737" points="63.7412 64.2748 46.5092 54.3258 46.5092 74.2258"></polygon>
                    <polygon id="Fill-1739" points="23.3842 14.279 23.3842 34.119 40.5382 24.182"></polygon>
                    <polygon id="Fill-1741" points="42.5792 47.5201 42.5792 27.5411 25.3052 37.5471"></polygon>
                    <polygon id="Fill-1743" points="42.5792 74.2254 42.5792 54.3254 25.3462 64.2744"></polygon>
                    <polygon id="Fill-1745" points="23.3842 40.9747 23.3842 60.8707 40.6142 50.9227"></polygon>
                    <polygon id="Fill-1747" points="19.4546 34.1689 19.4546 14.2739 2.2246 24.2219"></polygon>
                    <polygon id="Fill-1749" points="63.6279 10.8067 46.5089 0.9227 46.5089 20.7237"></polygon>
                    <polygon id="Fill-1751" points="65.7031 34.1708 65.7031 14.1458 48.3891 24.1758"></polygon>
                    <polygon id="Fill-1753" points="46.5088 100.923 63.7338 90.978 46.5088 81.031"></polygon>
                    <polygon id="Fill-1755" points="42.5792 0.923 25.3452 10.873 42.5792 20.822"></polygon>
                    <polygon id="Fill-1757" points="86.8623 24.2216 69.6323 14.2736 69.6323 34.1686"></polygon>
                    <polygon id="Fill-1759" points="69.6327 87.5718 86.8627 77.6238 69.6327 67.6768"></polygon>
                    <polygon id="Fill-1761" points="48.473 77.6286 65.703 87.5776 65.703 67.6786"></polygon>
                    <polygon id="Fill-1763" points="69.6327 60.8729 86.8627 50.9239 69.6327 40.9769"></polygon>
                    <polygon id="Fill-1765" points="88.8271 47.5198 88.8271 27.6238 71.5961 37.5728"></polygon>
                    <polygon id="Fill-1767" points="88.8271 74.2212 88.8271 54.3262 71.5991 64.2742"></polygon>
                </g>
                <g id="Group-1821" transform="translate(233.000000, 575.861000)">
                    <polygon id="Fill-1789" points="21.6744 13.356 21.6744 33.196 38.8284 23.259"></polygon>
                    <polygon id="Fill-1797" points="17.7448 33.2459 17.7448 13.3509 0.5158 23.2989"></polygon>
                    <polygon id="Fill-1805" points="40.8694 0 23.6354 9.95 40.8694 19.899"></polygon>
                </g>
                <g id="Group-1871" transform="translate(140.000000, 575.861000)">
                    <polygon id="Fill-1841" points="22.1362 13.356 22.1362 33.196 39.2902 23.259"></polygon>
                    <polygon id="Fill-1849" points="18.2067 33.2459 18.2067 13.3509 0.9767 23.2989"></polygon>
                    <polygon id="Fill-1851" points="62.38 9.8837 45.261 -0.0003 45.261 19.8007"></polygon>
                    <polygon id="Fill-1853" points="64.4552 33.2478 64.4552 13.2228 47.1412 23.2528"></polygon>
                    <polygon id="Fill-1857" points="41.3313 0 24.0973 9.95 41.3313 19.899"></polygon>
                    <polygon id="Fill-1859" points="85.6144 23.2986 68.3844 13.3506 68.3844 33.2456"></polygon>
                </g>
                <g id="Group-1920" transform="translate(92.000000, 174.861000)">
                    <polygon id="Fill-1872" points="0.7811 53.8719 0.7811 73.7669 18.0101 63.8199"></polygon>
                    <polygon id="Fill-1874" points="0.7811 27.1699 0.7811 47.0599 17.9781 37.0979"></polygon>
                    <polygon id="Fill-1876" points="47.0298 27.174 47.0298 47.066 64.2568 37.119"></polygon>
                    <polygon id="Fill-1878" points="19.9756 40.4824 2.7406 50.4664 19.9756 60.4184"></polygon>
                    <polygon id="Fill-1880" points="2.746 77.1696 19.976 87.1176 19.976 67.2226"></polygon>
                    <polygon id="Fill-1882" points="23.9052 67.2244 23.9052 87.1244 41.1372 77.1744"></polygon>
                    <polygon id="Fill-1884" points="48.9938 50.4684 66.2238 60.4164 66.2238 40.5204"></polygon>
                    <polygon id="Fill-1886" points="25.876 90.524 43.1 100.469 43.1 80.578"></polygon>
                    <polygon id="Fill-1888" points="64.2622 63.8206 47.0302 53.8716 47.0302 73.7716"></polygon>
                    <polygon id="Fill-1890" points="23.9052 13.8247 23.9052 33.6647 41.0592 23.7277"></polygon>
                    <polygon id="Fill-1892" points="43.1002 47.0659 43.1002 27.0869 25.8262 37.0929"></polygon>
                    <polygon id="Fill-1894" points="43.1002 73.7711 43.1002 53.8711 25.8672 63.8201"></polygon>
                    <polygon id="Fill-1896" points="23.9052 40.5204 23.9052 60.4164 41.1352 50.4684"></polygon>
                    <polygon id="Fill-1898" points="19.9756 33.7147 19.9756 13.8197 2.7456 23.7677"></polygon>
                    <polygon id="Fill-1900" points="64.1488 10.3525 47.0298 0.4685 47.0298 20.2695"></polygon>
                    <polygon id="Fill-1902" points="66.2241 33.7166 66.2241 13.6916 48.9101 23.7216"></polygon>
                    <polygon id="Fill-1904" points="47.0298 100.4688 64.2548 90.5238 47.0298 80.5768"></polygon>
                    <polygon id="Fill-1906" points="43.1002 0.4688 25.8662 10.4188 43.1002 20.3678"></polygon>
                    <polygon id="Fill-1908" points="87.3833 23.7673 70.1533 13.8193 70.1533 33.7143"></polygon>
                    <polygon id="Fill-1910" points="70.1537 87.1176 87.3837 77.1696 70.1537 67.2226"></polygon>
                    <polygon id="Fill-1912" points="48.994 77.1743 66.224 87.1233 66.224 67.2243"></polygon>
                    <polygon id="Fill-1914" points="70.1537 60.4187 87.3837 50.4697 70.1537 40.5227"></polygon>
                    <polygon id="Fill-1916" points="89.348 47.0656 89.348 27.1696 72.117 37.1186"></polygon>
                    <polygon id="Fill-1918" points="89.348 73.767 89.348 53.872 72.12 63.82"></polygon>
                </g>
                <g id="Group-1969" transform="translate(92.000000, 14.861000)">
                    <polygon id="Fill-1921" points="0.7811 53.744 0.7811 73.639 18.0101 63.692"></polygon>
                    <polygon id="Fill-1923" points="0.7811 27.0419 0.7811 46.9319 17.9781 36.9709"></polygon>
                    <polygon id="Fill-1925" points="47.0298 27.046 47.0298 46.938 64.2568 36.991"></polygon>
                    <polygon id="Fill-1927" points="19.9756 40.3544 2.7406 50.3384 19.9756 60.2904"></polygon>
                    <polygon id="Fill-1929" points="2.746 77.0416 19.976 86.9896 19.976 67.0946"></polygon>
                    <polygon id="Fill-1931" points="23.9052 67.0964 23.9052 86.9964 41.1372 77.0464"></polygon>
                    <polygon id="Fill-1933" points="48.9938 50.3405 66.2238 60.2885 66.2238 40.3925"></polygon>
                    <polygon id="Fill-1935" points="25.876 90.3959 43.1 100.3409 43.1 80.4499"></polygon>
                    <polygon id="Fill-1937" points="64.2622 63.6926 47.0302 53.7436 47.0302 73.6436"></polygon>
                    <polygon id="Fill-1939" points="23.9052 13.6968 23.9052 33.5368 41.0592 23.5998"></polygon>
                    <polygon id="Fill-1941" points="43.1002 46.9379 43.1002 26.9589 25.8262 36.9649"></polygon>
                    <polygon id="Fill-1943" points="43.1002 73.6431 43.1002 53.7431 25.8672 63.6921"></polygon>
                    <polygon id="Fill-1945" points="23.9052 40.3925 23.9052 60.2885 41.1352 50.3405"></polygon>
                    <polygon id="Fill-1947" points="19.9756 33.5867 19.9756 13.6917 2.7456 23.6397"></polygon>
                    <polygon id="Fill-1949" points="64.1488 10.2245 47.0298 0.3405 47.0298 20.1415"></polygon>
                    <polygon id="Fill-1951" points="66.2241 33.5886 66.2241 13.5636 48.9101 23.5936"></polygon>
                    <polygon id="Fill-1953" points="47.0298 100.3408 64.2548 90.3958 47.0298 80.4488"></polygon>
                    <polygon id="Fill-1955" points="43.1002 0.3408 25.8662 10.2908 43.1002 20.2398"></polygon>
                    <polygon id="Fill-1957" points="87.3833 23.6393 70.1533 13.6913 70.1533 33.5863"></polygon>
                    <polygon id="Fill-1959" points="70.1537 86.9896 87.3837 77.0416 70.1537 67.0946"></polygon>
                    <polygon id="Fill-1961" points="48.994 77.0463 66.224 86.9953 66.224 67.0963"></polygon>
                    <polygon id="Fill-1963" points="70.1537 60.2906 87.3837 50.3416 70.1537 40.3946"></polygon>
                    <polygon id="Fill-1965" points="89.348 46.9376 89.348 27.0416 72.117 36.9906"></polygon>
                    <polygon id="Fill-1967" points="89.348 73.639 89.348 53.744 72.12 63.692"></polygon>
                </g>
                <g id="Group-2018" transform="translate(140.000000, 0.861000)">
                    <polygon id="Fill-1978" points="0.9945 10.8586 18.2245 20.8066 18.2245 0.9116"></polygon>
                    <polygon id="Fill-1980" points="22.1537 0.9135 22.1537 20.8145 39.3857 10.8635"></polygon>
                    <polygon id="Fill-1984" points="24.1245 24.213 41.3485 34.158 41.3485 14.267"></polygon>
                    <polygon id="Fill-2002" points="45.2783 34.1578 62.5033 24.2128 45.2783 14.2668"></polygon>
                    <polygon id="Fill-2008" points="68.4022 20.8066 85.6322 10.8586 68.4022 0.9116"></polygon>
                    <polygon id="Fill-2010" points="47.2426 10.8634 64.4726 20.8124 64.4726 0.9134"></polygon>
                </g>
                <g id="Group-2068" transform="translate(233.000000, 0.861000)">
                    <polygon id="Fill-2027" points="0.4319 10.8399 17.6619 20.7879 17.6619 0.8929"></polygon>
                    <polygon id="Fill-2029" points="21.5911 0.8948 21.5911 20.7948 38.8231 10.8448"></polygon>
                    <polygon id="Fill-2033" points="23.5619 24.1943 40.7859 34.1393 40.7859 14.2483"></polygon>
                </g>
                <g id="Group-2117" transform="translate(92.000000, 334.861000)">
                    <polygon id="Fill-2069" points="0.7811 54.0468 0.7811 73.9418 18.0101 63.9948"></polygon>
                    <polygon id="Fill-2071" points="0.7811 27.3448 0.7811 47.2348 17.9781 37.2728"></polygon>
                    <polygon id="Fill-2073" points="47.0298 27.3489 47.0298 47.2409 64.2568 37.2939"></polygon>
                    <polygon id="Fill-2075" points="19.9756 40.6573 2.7406 50.6413 19.9756 60.5933"></polygon>
                    <polygon id="Fill-2077" points="2.746 77.3444 19.976 87.2924 19.976 67.3974"></polygon>
                    <polygon id="Fill-2079" points="23.9052 67.3993 23.9052 87.2993 41.1372 77.3493"></polygon>
                    <polygon id="Fill-2081" points="48.9938 50.6433 66.2238 60.5913 66.2238 40.6953"></polygon>
                    <polygon id="Fill-2083" points="25.876 90.6988 43.1 100.6438 43.1 80.7528"></polygon>
                    <polygon id="Fill-2085" points="64.2622 63.9955 47.0302 54.0465 47.0302 73.9465"></polygon>
                    <polygon id="Fill-2087" points="23.9052 13.9996 23.9052 33.8396 41.0592 23.9026"></polygon>
                    <polygon id="Fill-2089" points="43.1002 47.2408 43.1002 27.2618 25.8262 37.2678"></polygon>
                    <polygon id="Fill-2091" points="43.1002 73.946 43.1002 54.046 25.8672 63.995"></polygon>
                    <polygon id="Fill-2093" points="23.9052 40.6953 23.9052 60.5913 41.1352 50.6433"></polygon>
                    <polygon id="Fill-2095" points="19.9756 33.8896 19.9756 13.9946 2.7456 23.9426"></polygon>
                    <polygon id="Fill-2097" points="64.1488 10.5273 47.0298 0.6433 47.0298 20.4443"></polygon>
                    <polygon id="Fill-2099" points="66.2241 33.8915 66.2241 13.8665 48.9101 23.8965"></polygon>
                    <polygon id="Fill-2101" points="47.0298 100.6436 64.2548 90.6986 47.0298 80.7516"></polygon>
                    <polygon id="Fill-2103" points="43.1002 0.6436 25.8662 10.5936 43.1002 20.5426"></polygon>
                    <polygon id="Fill-2105" points="87.3833 23.9422 70.1533 13.9942 70.1533 33.8892"></polygon>
                    <polygon id="Fill-2107" points="70.1537 87.2924 87.3837 77.3444 70.1537 67.3974"></polygon>
                    <polygon id="Fill-2109" points="48.994 77.3492 66.224 87.2982 66.224 67.3992"></polygon>
                    <polygon id="Fill-2111" points="70.1537 60.5935 87.3837 50.6445 70.1537 40.6975"></polygon>
                    <polygon id="Fill-2113" points="89.348 47.2404 89.348 27.3444 72.117 37.2934"></polygon>
                    <polygon id="Fill-2115" points="89.348 73.9419 89.348 54.0469 72.12 63.9949"></polygon>
                </g>
                <g id="Group-2166" transform="translate(92.000000, 494.861000)">
                    <polygon id="Fill-2118" points="0.7604 54.3415 0.7604 74.2365 17.9894 64.2895"></polygon>
                    <polygon id="Fill-2120" points="0.7604 27.6394 0.7604 47.5294 17.9574 37.5674"></polygon>
                    <polygon id="Fill-2122" points="47.0089 27.6436 47.0089 47.5356 64.2359 37.5886"></polygon>
                    <polygon id="Fill-2124" points="19.9547 40.9519 2.7197 50.9359 19.9547 60.8879"></polygon>
                    <polygon id="Fill-2126" points="2.7251 77.6391 19.9551 87.5871 19.9551 67.6921"></polygon>
                    <polygon id="Fill-2128" points="23.8843 67.694 23.8843 87.594 41.1163 77.644"></polygon>
                    <polygon id="Fill-2130" points="48.9729 50.938 66.2029 60.886 66.2029 40.99"></polygon>
                    <polygon id="Fill-2132" points="25.8552 90.9935 43.0792 100.9385 43.0792 81.0475"></polygon>
                    <polygon id="Fill-2134" points="64.2413 64.2901 47.0093 54.3411 47.0093 74.2411"></polygon>
                    <polygon id="Fill-2136" points="23.8843 14.2943 23.8843 34.1343 41.0393 24.1973"></polygon>
                    <polygon id="Fill-2138" points="43.0793 47.5354 43.0793 27.5564 25.8053 37.5624"></polygon>
                    <polygon id="Fill-2140" points="43.0793 74.2407 43.0793 54.3407 25.8463 64.2897"></polygon>
                    <polygon id="Fill-2142" points="23.8843 40.99 23.8843 60.886 41.1143 50.938"></polygon>
                    <polygon id="Fill-2144" points="19.9547 34.1842 19.9547 14.2892 2.7247 24.2372"></polygon>
                    <polygon id="Fill-2146" points="64.1281 10.822 47.0091 0.938 47.0091 20.739"></polygon>
                    <polygon id="Fill-2148" points="66.2032 34.1861 66.2032 14.1611 48.8892 24.1911"></polygon>
                    <polygon id="Fill-2150" points="47.0089 100.9383 64.2339 90.9933 47.0089 81.0463"></polygon>
                    <polygon id="Fill-2152" points="43.0793 0.9383 25.8453 10.8883 43.0793 20.8373"></polygon>
                    <polygon id="Fill-2154" points="87.3624 24.2369 70.1324 14.2889 70.1324 34.1839"></polygon>
                    <polygon id="Fill-2156" points="70.1328 87.5871 87.3628 77.6391 70.1328 67.6921"></polygon>
                    <polygon id="Fill-2158" points="48.9733 77.6439 66.2033 87.5929 66.2033 67.6939"></polygon>
                    <polygon id="Fill-2160" points="70.1328 60.8882 87.3628 50.9392 70.1328 40.9922"></polygon>
                    <polygon id="Fill-2162" points="89.3273 47.5351 89.3273 27.6391 72.0963 37.5881"></polygon>
                    <polygon id="Fill-2164" points="89.3273 74.2365 89.3273 54.3415 72.0993 64.2895"></polygon>
                </g>
            </g>
        </g>
    </g>
</svg>