<?xml version="1.0" encoding="UTF-8" standalone="no"?>
<svg width="309px" height="683px" viewBox="0 0 309 683" version="1.1" xmlns="http://www.w3.org/2000/svg" xmlns:xlink="http://www.w3.org/1999/xlink">
    <!-- Generator: Sketch 41.2 (35397) - http://www.bohemiancoding.com/sketch -->
    <title>Group 2</title>
    <desc>Created with Sketch.</desc>
    <defs>
        <polygon id="path-1" points="19.8101417 23.2588461 19.8101417 0.915309868 0.446883339 0.915309868 0.446883339 23.2588461 19.8101417 23.2588461"></polygon>
    </defs>
    <g id="Page-1" stroke="none" stroke-width="1" fill="none" fill-rule="evenodd">
        <g id="Group-2">
            <polygon id="Fill-805" fill="#FFFFFF" points="52.8218384 165.161195 52.8218384 187.510348 72.19128 176.336333"></polygon>
            <polygon id="Fill-807" fill="#FFFFFF" points="52.8218384 135.165251 52.8218384 157.508787 72.1553045 146.317922"></polygon>
            <polygon id="Fill-809" fill="#FFFFFF" points="104.816574 135.170193 104.816574 157.515976 124.184892 146.341962"></polygon>
            <polygon id="Fill-811" fill="#FFFFFF" points="74.4007387 150.119918 55.0256759 161.335497 74.4007387 172.515128"></polygon>
            <polygon id="Fill-813" fill="#FFFFFF" points="55.030735 191.33189 74.4013008 202.508152 74.4013008 180.158999"></polygon>
            <polygon id="Fill-815" fill="#FFFFFF" points="78.8186442 180.160909 78.8186442 202.514555 98.1914586 191.338294"></polygon>
            <polygon id="Fill-817" fill="#FFFFFF" points="107.024459 161.337519 126.393901 172.512657 126.393901 150.16238"></polygon>
            <polygon id="Fill-819" fill="#FFFFFF" points="81.0341738 206.334862 100.399118 217.50663 100.399118 195.16197"></polygon>
            <polygon id="Fill-821" fill="#FFFFFF" points="124.189838 176.337232 104.817024 165.160971 104.817024 187.51574"></polygon>
            <polygon id="Fill-823" fill="#FFFFFF" points="78.8186442 120.17385 78.8186442 142.461218 98.1037683 131.298437"></polygon>
            <polygon id="Fill-825" fill="#FFFFFF" points="100.398669 157.515527 100.398669 135.072012 80.9797608 146.312305"></polygon>
            <polygon id="Fill-827" fill="#FFFFFF" points="100.398669 187.51428 100.398669 165.160634 81.0258545 176.336895"></polygon>
            <polygon id="Fill-829" fill="#FFFFFF" points="78.8186442 150.162717 78.8186442 172.512994 98.1892101 161.337856"></polygon>
            <polygon id="Fill-831" fill="#FFFFFF" points="74.4007387 142.517499 74.4007387 120.168346 55.0312971 131.343484"></polygon>
            <polygon id="Fill-833" fill="#FFFFFF" points="124.062463 116.273336 104.816687 105.170092 104.816687 127.41365"></polygon>
            <polygon id="Fill-835" fill="#FFFFFF" points="126.395475 142.519633 126.395475 120.024444 106.931597 131.291697"></polygon>
            <polygon id="Fill-837" fill="#FFFFFF" points="104.816574 217.505843 124.181519 206.335199 104.816574 195.160061"></polygon>
            <polygon id="Fill-839" fill="#FFFFFF" points="100.398669 105.170317 81.023606 116.347702 100.398669 127.523963"></polygon>
            <polygon id="Fill-841" fill="#FFFFFF" points="150.183384 131.342585 130.812818 120.167447 130.812818 142.5166"></polygon>
            <polygon id="Fill-843" fill="#FFFFFF" points="130.81338 202.508377 150.182822 191.332115 130.81338 180.1581"></polygon>
            <polygon id="Fill-845" fill="#FFFFFF" points="107.024459 191.338518 126.395025 202.51478 126.395025 180.161133"></polygon>
            <polygon id="Fill-847" fill="#FFFFFF" points="130.81338 172.51569 150.182822 161.339428 130.81338 150.165413"></polygon>
            <polygon id="Fill-849" fill="#FFFFFF" points="152.392393 157.515527 152.392393 135.165251 133.020703 146.341512"></polygon>
            <polygon id="Fill-851" fill="#FFFFFF" points="152.392393 187.509899 152.392393 165.160746 133.022951 176.335884"></polygon>
            <polygon id="Fill-853" fill="#FFFFFF" points="0.828114251 435.172439 0.828114251 457.521592 20.1975559 446.346454"></polygon>
            <polygon id="Fill-855" fill="#FFFFFF" points="0.828114251 405.175259 0.828114251 427.519918 20.1615804 416.330176"></polygon>
            <polygon id="Fill-857" fill="#FFFFFF" points="52.8218384 405.181887 52.8218384 427.526546 72.19128 416.351408"></polygon>
            <polygon id="Fill-859" fill="#FFFFFF" points="22.407127 420.129926 3.03093995 431.345505 22.407127 442.52626"></polygon>
            <polygon id="Fill-861" fill="#FFFFFF" points="3.03712324 461.343022 22.4065649 472.519283 22.4065649 450.169007"></polygon>
            <polygon id="Fill-863" fill="#FFFFFF" points="26.8250325 450.170917 26.8250325 472.525687 46.1978469 461.349425"></polygon>
            <polygon id="Fill-865" fill="#FFFFFF" points="55.0296107 431.348201 74.4001766 442.524462 74.4001766 420.174186"></polygon>
            <polygon id="Fill-867" fill="#FFFFFF" points="29.0405621 476.345993 48.4043825 487.517761 48.4043825 465.171978"></polygon>
            <polygon id="Fill-869" fill="#FFFFFF" points="72.1962266 446.348925 52.8222881 435.172664 52.8222881 457.525187"></polygon>
            <polygon id="Fill-871" fill="#FFFFFF" points="26.8250325 390.185543 26.8250325 412.472912 46.1101565 401.309007"></polygon>
            <polygon id="Fill-873" fill="#FFFFFF" points="48.4050571 427.526097 48.4050571 405.082582 28.9850249 416.322875"></polygon>
            <polygon id="Fill-875" fill="#FFFFFF" points="48.4050571 457.525411 48.4050571 435.170642 29.0311185 446.346903"></polygon>
            <polygon id="Fill-877" fill="#FFFFFF" points="26.8250325 420.173849 26.8250325 442.524125 46.1944742 431.347864"></polygon>
            <polygon id="Fill-879" fill="#FFFFFF" points="22.407127 412.527507 22.407127 390.178354 3.03656112 401.353492"></polygon>
            <polygon id="Fill-881" fill="#FFFFFF" points="72.0677266 386.284467 52.823075 375.1801 52.823075 397.423658"></polygon>
            <polygon id="Fill-883" fill="#FFFFFF" points="74.4007387 412.529753 74.4007387 390.036811 54.9368613 401.302941"></polygon>
            <polygon id="Fill-885" fill="#FFFFFF" points="52.8218384 487.518098 72.1879073 476.34633 52.8218384 465.171192"></polygon>
            <polygon id="Fill-887" fill="#FFFFFF" points="48.4050571 375.180437 29.0299943 386.358946 48.4050571 397.535207"></polygon>
            <polygon id="Fill-889" fill="#FFFFFF" points="98.1897722 401.353267 78.8192064 390.179252 78.8192064 412.527282"></polygon>
            <polygon id="Fill-891" fill="#FFFFFF" points="78.8186442 472.519508 98.1892101 461.343247 78.8186442 450.169232"></polygon>
            <polygon id="Fill-893" fill="#FFFFFF" points="55.030735 461.34965 74.4001766 472.525911 74.4001766 450.171141"></polygon>
            <polygon id="Fill-895" fill="#FFFFFF" points="78.8186442 442.526821 98.1892101 431.35056 78.8186442 420.176545"></polygon>
            <polygon id="Fill-897" fill="#FFFFFF" points="100.397545 427.526097 100.397545 405.17582 81.0269787 416.352082"></polygon>
            <polygon id="Fill-899" fill="#FFFFFF" points="100.397545 457.52103 100.397545 435.171877 81.0292272 446.347015"></polygon>
            <polygon id="Fill-901" fill="#FFFFFF" points="52.8690563 525.126347 52.8690563 547.476624 72.2384979 536.302609"></polygon>
            <polygon id="Fill-903" fill="#FFFFFF" points="52.8690563 495.131526 52.8690563 517.476186 72.2025224 506.284197"></polygon>
            <polygon id="Fill-905" fill="#FFFFFF" points="104.863792 495.135907 104.863792 517.482813 124.230985 506.307675"></polygon>
            <polygon id="Fill-907" fill="#FFFFFF" points="74.4479566 510.086193 55.0717695 521.301772 74.4479566 532.481404"></polygon>
            <polygon id="Fill-909" fill="#FFFFFF" points="55.0779528 551.299177 74.4485187 562.473192 74.4485187 540.125162"></polygon>
            <polygon id="Fill-911" fill="#FFFFFF" points="78.8658621 540.127072 78.8658621 562.481842 98.2375522 551.303333"></polygon>
            <polygon id="Fill-913" fill="#FFFFFF" points="107.071677 521.304356 126.441119 532.478371 126.441119 510.128094"></polygon>
            <polygon id="Fill-915" fill="#FFFFFF" points="81.0813917 566.300014 100.445212 577.471782 100.445212 555.128246"></polygon>
            <polygon id="Fill-917" fill="#FFFFFF" points="124.237056 536.302834 104.864242 525.126572 104.864242 547.481342"></polygon>
            <polygon id="Fill-919" fill="#FFFFFF" points="78.8658621 480.139451 78.8658621 502.42682 98.1509861 491.265162"></polygon>
            <polygon id="Fill-921" fill="#FFFFFF" points="100.445887 517.482252 100.445887 495.037614 81.0258545 506.276783"></polygon>
            <polygon id="Fill-923" fill="#FFFFFF" points="100.445887 547.481566 100.445887 525.126797 81.0719481 536.303058"></polygon>
            <polygon id="Fill-925" fill="#FFFFFF" points="78.8658621 510.12787 78.8658621 532.478146 98.2353037 521.304131"></polygon>
            <polygon id="Fill-927" fill="#FFFFFF" points="74.4479566 502.483774 74.4479566 480.134621 55.0785149 491.309759"></polygon>
            <polygon id="Fill-929" fill="#FFFFFF" points="124.10968 476.238488 104.863905 465.136368 104.863905 487.379925"></polygon>
            <polygon id="Fill-931" fill="#FFFFFF" points="126.442693 502.485908 126.442693 479.990719 106.977691 491.256849"></polygon>
            <polygon id="Fill-933" fill="#FFFFFF" points="104.863792 577.472119 124.228737 566.300351 104.863792 555.125213"></polygon>
            <polygon id="Fill-935" fill="#FFFFFF" points="100.445887 465.136593 81.0708239 476.312854 100.445887 487.489116"></polygon>
            <polygon id="Fill-937" fill="#FFFFFF" points="150.230602 491.309422 130.860036 480.133161 130.860036 502.483437"></polygon>
            <polygon id="Fill-939" fill="#FFFFFF" points="130.860598 562.473529 150.23004 551.299514 130.860598 540.124376"></polygon>
            <polygon id="Fill-941" fill="#FFFFFF" points="107.071677 551.30367 126.442243 562.479932 126.442243 540.127409"></polygon>
            <polygon id="Fill-943" fill="#FFFFFF" points="130.860598 532.480842 150.23004 521.30458 130.860598 510.131689"></polygon>
            <polygon id="Fill-945" fill="#FFFFFF" points="152.439611 517.482252 152.439611 495.131975 133.067921 506.308237"></polygon>
            <polygon id="Fill-947" fill="#FFFFFF" points="152.439611 547.477185 152.439611 525.126909 133.070169 536.303171"></polygon>
            <polygon id="Fill-949" fill="#FFFFFF" points="208.808295 75.2061635 208.808295 97.5553164 228.177736 86.3813016"></polygon>
            <polygon id="Fill-951" fill="#FFFFFF" points="208.808295 45.2101066 208.808295 67.5536428 228.141761 56.363901"></polygon>
            <polygon id="Fill-953" fill="#FFFFFF" points="260.802019 45.2150493 260.802019 67.5608322 280.17146 56.3868174"></polygon>
            <polygon id="Fill-955" fill="#FFFFFF" points="230.387195 60.1647735 211.011008 71.3803525 230.387195 82.559984"></polygon>
            <polygon id="Fill-957" fill="#FFFFFF" points="211.017191 101.37787 230.386633 112.553008 230.386633 90.2038549"></polygon>
            <polygon id="Fill-959" fill="#FFFFFF" points="234.805101 90.2057646 234.805101 112.561658 254.176791 101.38315"></polygon>
            <polygon id="Fill-961" fill="#FFFFFF" points="263.009791 71.3830485 282.380357 82.5581867 282.380357 60.2079104"></polygon>
            <polygon id="Fill-963" fill="#FFFFFF" points="237.02063 116.379718 256.384451 127.551486 256.384451 105.206826"></polygon>
            <polygon id="Fill-965" fill="#FFFFFF" points="280.175283 86.382088 260.802469 75.2058265 260.802469 97.5605962"></polygon>
            <polygon id="Fill-967" fill="#FFFFFF" points="234.805101 30.2192676 234.805101 52.506636 254.0891 41.3438548"></polygon>
            <polygon id="Fill-969" fill="#FFFFFF" points="256.384113 67.5603829 256.384113 45.1168681 236.965205 56.3571609"></polygon>
            <polygon id="Fill-971" fill="#FFFFFF" points="256.384113 97.5602592 256.384113 75.2054895 237.011299 86.381751"></polygon>
            <polygon id="Fill-973" fill="#FFFFFF" points="234.805101 60.2075734 234.805101 82.5578497 254.174542 71.3827115"></polygon>
            <polygon id="Fill-975" fill="#FFFFFF" points="230.387195 52.5623544 230.387195 30.2132015 211.016629 41.3883396"></polygon>
            <polygon id="Fill-977" fill="#FFFFFF" points="280.047907 26.3181918 260.802131 15.2149484 260.802131 37.4585059"></polygon>
            <polygon id="Fill-979" fill="#FFFFFF" points="282.380919 52.5646012 282.380919 30.069412 262.917042 41.3366653"></polygon>
            <polygon id="Fill-981" fill="#FFFFFF" points="260.802019 127.551261 280.168088 116.379493 260.802019 105.205478"></polygon>
            <polygon id="Fill-983" fill="#FFFFFF" points="256.384113 15.2157347 237.010175 26.3931196 256.384113 37.5693811"></polygon>
            <polygon id="Fill-985" fill="#FFFFFF" points="306.168828 41.388115 286.799387 30.2129768 286.799387 52.5621298"></polygon>
            <polygon id="Fill-987" fill="#FFFFFF" points="286.798825 112.552783 306.169391 101.377645 286.798825 90.2036303"></polygon>
            <polygon id="Fill-989" fill="#FFFFFF" points="263.010915 101.383374 282.380357 112.559636 282.380357 90.2059893"></polygon>
            <polygon id="Fill-991" fill="#FFFFFF" points="286.798825 82.5605457 306.169391 71.3842842 286.798825 60.2102694"></polygon>
            <polygon id="Fill-993" fill="#FFFFFF" points="308.377725 67.5603829 308.377725 45.2101066 289.007159 56.3863681"></polygon>
            <polygon id="Fill-995" fill="#FFFFFF" points="308.377725 97.5553164 308.377725 75.2061635 289.009408 86.3813016"></polygon>
            <polygon id="Fill-997" fill="#FFFFFF" points="260.849124 165.161195 260.849124 187.510348 280.217442 176.336333"></polygon>
            <polygon id="Fill-999" fill="#FFFFFF" points="260.849124 135.165251 260.849124 157.508787 280.18259 146.317922"></polygon>
            <polygon id="Fill-1001" fill="#FFFFFF" points="282.428137 150.119918 263.05195 161.335497 282.428137 172.515128"></polygon>
            <polygon id="Fill-1003" fill="#FFFFFF" points="263.058133 191.33189 282.427575 202.508152 282.427575 180.158999"></polygon>
            <polygon id="Fill-1005" fill="#FFFFFF" points="286.846043 180.160909 286.846043 202.514555 306.218857 191.338294"></polygon>
            <polygon id="Fill-1007" fill="#FFFFFF" points="289.061572 206.334862 308.425393 217.50663 308.425393 195.16197"></polygon>
            <polygon id="Fill-1009" fill="#FFFFFF" points="286.846043 120.17385 286.846043 142.461218 306.131167 131.298437"></polygon>
            <polygon id="Fill-1011" fill="#FFFFFF" points="308.426067 157.515527 308.426067 135.072012 289.006035 146.312305"></polygon>
            <polygon id="Fill-1013" fill="#FFFFFF" points="308.426067 187.51428 308.426067 165.160634 289.052129 176.336895"></polygon>
            <polygon id="Fill-1015" fill="#FFFFFF" points="286.846043 150.162717 286.846043 172.512994 306.215484 161.337856"></polygon>
            <polygon id="Fill-1017" fill="#FFFFFF" points="282.428137 142.517499 282.428137 120.168346 263.057571 131.343484"></polygon>
            <polygon id="Fill-1019" fill="#FFFFFF" points="308.426067 105.170317 289.051004 116.347702 308.426067 127.523963"></polygon>
            <polygon id="Fill-1021" fill="#FFFFFF" points="156.814683 165.161195 156.814683 187.510348 176.184125 176.336333"></polygon>
            <polygon id="Fill-1023" fill="#FFFFFF" points="156.814683 135.165251 156.814683 157.508787 176.148149 146.317922"></polygon>
            <polygon id="Fill-1025" fill="#FFFFFF" points="208.808295 135.170193 208.808295 157.515976 228.176612 146.341962"></polygon>
            <polygon id="Fill-1027" fill="#FFFFFF" points="178.393583 150.119918 159.017396 161.335497 178.393583 172.515128"></polygon>
            <polygon id="Fill-1029" fill="#FFFFFF" points="159.02358 191.33189 178.393021 202.508152 178.393021 180.158999"></polygon>
            <polygon id="Fill-1031" fill="#FFFFFF" points="182.811489 180.160909 182.811489 202.514555 202.183179 191.338294"></polygon>
            <polygon id="Fill-1033" fill="#FFFFFF" points="211.017191 161.337519 230.386633 172.512657 230.386633 150.16238"></polygon>
            <polygon id="Fill-1035" fill="#FFFFFF" points="185.027018 206.334862 204.390839 217.50663 204.390839 195.16197"></polygon>
            <polygon id="Fill-1037" fill="#FFFFFF" points="228.181559 176.337232 208.809869 165.160971 208.809869 187.51574"></polygon>
            <polygon id="Fill-1039" fill="#FFFFFF" points="182.811489 120.17385 182.811489 142.461218 202.096613 131.298437"></polygon>
            <polygon id="Fill-1041" fill="#FFFFFF" points="204.390389 157.515527 204.390389 135.072012 184.971481 146.312305"></polygon>
            <polygon id="Fill-1043" fill="#FFFFFF" points="204.390389 187.51428 204.390389 165.160634 185.017575 176.336895"></polygon>
            <polygon id="Fill-1045" fill="#FFFFFF" points="182.811489 150.162717 182.811489 172.512994 202.18093 161.337856"></polygon>
            <polygon id="Fill-1047" fill="#FFFFFF" points="178.393583 142.517499 178.393583 120.168346 159.024142 131.343484"></polygon>
            <polygon id="Fill-1049" fill="#FFFFFF" points="228.054183 116.273336 208.808407 105.170092 208.808407 127.41365"></polygon>
            <polygon id="Fill-1051" fill="#FFFFFF" points="230.388319 142.519633 230.388319 120.024444 210.923318 131.291697"></polygon>
            <polygon id="Fill-1053" fill="#FFFFFF" points="208.808295 217.505843 228.174364 206.335199 208.808295 195.160061"></polygon>
            <polygon id="Fill-1055" fill="#FFFFFF" points="204.390389 105.170317 185.016451 116.347702 204.390389 127.523963"></polygon>
            <polygon id="Fill-1057" fill="#FFFFFF" points="254.175104 131.342585 234.805663 120.167447 234.805663 142.5166"></polygon>
            <polygon id="Fill-1059" fill="#FFFFFF" points="234.805101 202.508377 254.175666 191.332115 234.805101 180.1581"></polygon>
            <polygon id="Fill-1061" fill="#FFFFFF" points="211.017191 191.338518 230.386633 202.51478 230.386633 180.161133"></polygon>
            <polygon id="Fill-1063" fill="#FFFFFF" points="234.805101 172.51569 254.175666 161.339428 234.805101 150.165413"></polygon>
            <polygon id="Fill-1065" fill="#FFFFFF" points="256.384113 157.515527 256.384113 135.165251 237.013547 146.341512"></polygon>
            <polygon id="Fill-1067" fill="#FFFFFF" points="256.384113 187.509899 256.384113 165.160746 237.015796 176.335884"></polygon>
            <polygon id="Fill-1069" fill="#FFFFFF" points="208.808295 255.152511 208.808295 277.501664 228.177736 266.326526"></polygon>
            <polygon id="Fill-1071" fill="#FFFFFF" points="208.808295 225.155443 208.808295 247.500103 228.141761 236.309238"></polygon>
            <polygon id="Fill-1073" fill="#FFFFFF" points="260.802019 225.160948 260.802019 247.506731 280.17146 236.331593"></polygon>
            <polygon id="Fill-1075" fill="#FFFFFF" points="230.387195 240.11011 211.011008 251.325689 230.387195 262.506444"></polygon>
            <polygon id="Fill-1077" fill="#FFFFFF" points="211.017191 281.323207 230.386633 292.498345 230.386633 270.149192"></polygon>
            <polygon id="Fill-1079" fill="#FFFFFF" points="234.805101 270.151101 234.805101 292.505871 254.176791 281.32961"></polygon>
            <polygon id="Fill-1081" fill="#FFFFFF" points="263.009791 251.328273 282.380357 262.504535 282.380357 240.154258"></polygon>
            <polygon id="Fill-1083" fill="#FFFFFF" points="237.02063 296.326065 256.384451 307.49671 256.384451 285.152051"></polygon>
            <polygon id="Fill-1085" fill="#FFFFFF" points="280.175283 266.327874 260.802469 255.152736 260.802469 277.506382"></polygon>
            <polygon id="Fill-1087" fill="#FFFFFF" points="234.805101 210.165615 234.805101 232.452984 254.0891 221.289079"></polygon>
            <polygon id="Fill-1089" fill="#FFFFFF" points="256.384113 247.506281 256.384113 225.062767 236.965205 236.303059"></polygon>
            <polygon id="Fill-1091" fill="#FFFFFF" points="256.384113 277.505484 256.384113 255.151837 237.011299 266.326975"></polygon>
            <polygon id="Fill-1093" fill="#FFFFFF" points="234.805101 240.153921 234.805101 262.504198 254.174542 251.327936"></polygon>
            <polygon id="Fill-1095" fill="#FFFFFF" points="230.387195 232.507691 230.387195 210.158538 211.016629 221.3348"></polygon>
            <polygon id="Fill-1097" fill="#FFFFFF" points="280.047907 206.264652 260.802131 195.160285 260.802131 217.403843"></polygon>
            <polygon id="Fill-1099" fill="#FFFFFF" points="282.380919 232.509826 282.380919 210.01576 262.917042 221.283013"></polygon>
            <polygon id="Fill-1101" fill="#FFFFFF" points="260.802019 307.49716 280.168088 296.325391 260.802019 285.151377"></polygon>
            <polygon id="Fill-1103" fill="#FFFFFF" points="256.384113 195.161633 237.010175 206.339018 256.384113 217.51528"></polygon>
            <polygon id="Fill-1105" fill="#FFFFFF" points="306.168828 221.333339 286.799387 210.159325 286.799387 232.507354"></polygon>
            <polygon id="Fill-1107" fill="#FFFFFF" points="286.798825 292.498569 306.169391 281.323431 286.798825 270.148293"></polygon>
            <polygon id="Fill-1109" fill="#FFFFFF" points="263.010915 281.329722 282.380357 292.50486 282.380357 270.151214"></polygon>
            <polygon id="Fill-1111" fill="#FFFFFF" points="286.798825 262.507006 306.169391 251.330744 286.798825 240.15673"></polygon>
            <polygon id="Fill-1113" fill="#FFFFFF" points="308.377725 247.506281 308.377725 225.156005 289.007159 236.332267"></polygon>
            <polygon id="Fill-1115" fill="#FFFFFF" points="308.377725 277.501103 308.377725 255.15195 289.009408 266.327088"></polygon>
            <polygon id="Fill-1117" fill="#FFFFFF" points="260.849124 345.106532 260.849124 367.455685 280.217442 356.282794"></polygon>
            <polygon id="Fill-1119" fill="#FFFFFF" points="260.849124 315.111599 260.849124 337.455135 280.18259 326.26427"></polygon>
            <polygon id="Fill-1121" fill="#FFFFFF" points="282.428137 330.066265 263.05195 341.281844 282.428137 352.461476"></polygon>
            <polygon id="Fill-1123" fill="#FFFFFF" points="263.058133 371.279362 282.427575 382.453376 282.427575 360.105347"></polygon>
            <polygon id="Fill-1125" fill="#FFFFFF" points="286.846043 360.107257 286.846043 382.45978 306.218857 371.283518"></polygon>
            <polygon id="Fill-1127" fill="#FFFFFF" points="289.061572 386.280086 308.425393 397.451854 308.425393 375.108318"></polygon>
            <polygon id="Fill-1129" fill="#FFFFFF" points="286.846043 300.119636 286.846043 322.407005 306.131167 311.244223"></polygon>
            <polygon id="Fill-1131" fill="#FFFFFF" points="308.426067 337.461313 308.426067 315.017798 289.006035 326.256968"></polygon>
            <polygon id="Fill-1133" fill="#FFFFFF" points="308.426067 367.461751 308.426067 345.106981 289.052129 356.283243"></polygon>
            <polygon id="Fill-1135" fill="#FFFFFF" points="286.846043 330.107942 286.846043 352.458218 306.215484 341.284203"></polygon>
            <polygon id="Fill-1137" fill="#FFFFFF" points="282.428137 322.463846 282.428137 300.11357 263.057571 311.289832"></polygon>
            <polygon id="Fill-1139" fill="#FFFFFF" points="308.426067 285.116665 289.051004 296.292926 308.426067 307.469188"></polygon>
            <polygon id="Fill-1141" fill="#FFFFFF" points="156.814683 345.106532 156.814683 367.455685 176.184125 356.282794"></polygon>
            <polygon id="Fill-1143" fill="#FFFFFF" points="156.814683 315.111599 156.814683 337.455135 176.148149 326.26427"></polygon>
            <polygon id="Fill-1145" fill="#FFFFFF" points="208.808295 315.11598 208.808295 337.462886 228.176612 326.287748"></polygon>
            <polygon id="Fill-1147" fill="#FFFFFF" points="178.393583 330.066265 159.017396 341.281844 178.393583 352.461476"></polygon>
            <polygon id="Fill-1149" fill="#FFFFFF" points="159.02358 371.279362 178.393021 382.453376 178.393021 360.105347"></polygon>
            <polygon id="Fill-1151" fill="#FFFFFF" points="182.811489 360.107257 182.811489 382.45978 202.183179 371.283518"></polygon>
            <polygon id="Fill-1153" fill="#FFFFFF" points="211.017191 341.284428 230.386633 352.458443 230.386633 330.108167"></polygon>
            <polygon id="Fill-1155" fill="#FFFFFF" points="185.027018 386.280086 204.390839 397.451854 204.390839 375.108318"></polygon>
            <polygon id="Fill-1157" fill="#FFFFFF" points="228.181559 356.283018 208.809869 345.106757 208.809869 367.461526"></polygon>
            <polygon id="Fill-1159" fill="#FFFFFF" points="182.811489 300.119636 182.811489 322.407005 202.096613 311.244223"></polygon>
            <polygon id="Fill-1161" fill="#FFFFFF" points="204.390389 337.461313 204.390389 315.017798 184.971481 326.256968"></polygon>
            <polygon id="Fill-1163" fill="#FFFFFF" points="204.390389 367.461751 204.390389 345.106981 185.017575 356.283243"></polygon>
            <polygon id="Fill-1165" fill="#FFFFFF" points="182.811489 330.107942 182.811489 352.458218 202.18093 341.284203"></polygon>
            <polygon id="Fill-1167" fill="#FFFFFF" points="178.393583 322.463846 178.393583 300.11357 159.024142 311.289832"></polygon>
            <polygon id="Fill-1169" fill="#FFFFFF" points="228.054183 296.21856 208.808407 285.11644 208.808407 307.359998"></polygon>
            <polygon id="Fill-1171" fill="#FFFFFF" points="230.388319 322.466093 230.388319 299.970904 210.923318 311.237034"></polygon>
            <polygon id="Fill-1173" fill="#FFFFFF" points="208.808295 397.452191 228.174364 386.280423 208.808295 375.105285"></polygon>
            <polygon id="Fill-1175" fill="#FFFFFF" points="204.390389 285.116665 185.016451 296.292926 204.390389 307.469188"></polygon>
            <polygon id="Fill-1177" fill="#FFFFFF" points="254.175104 311.289607 234.805663 300.113345 234.805663 322.462498"></polygon>
            <polygon id="Fill-1179" fill="#FFFFFF" points="234.805101 382.453713 254.175666 371.279699 234.805101 360.104561"></polygon>
            <polygon id="Fill-1181" fill="#FFFFFF" points="211.017191 371.283743 230.386633 382.460004 230.386633 360.107481"></polygon>
            <polygon id="Fill-1183" fill="#FFFFFF" points="234.805101 352.460914 254.175666 341.284653 234.805101 330.110638"></polygon>
            <polygon id="Fill-1185" fill="#FFFFFF" points="256.384113 337.461313 256.384113 315.111037 237.013547 326.287298"></polygon>
            <polygon id="Fill-1187" fill="#FFFFFF" points="256.384113 367.455123 256.384113 345.10597 237.015796 356.283355"></polygon>
            <polygon id="Fill-1189" fill="#FFFFFF" points="208.854388 435.172439 208.854388 457.521592 228.22383 446.346454"></polygon>
            <polygon id="Fill-1191" fill="#FFFFFF" points="208.854388 405.175259 208.854388 427.519918 228.187854 416.330176"></polygon>
            <polygon id="Fill-1193" fill="#FFFFFF" points="260.849124 405.181887 260.849124 427.526546 280.217442 416.351408"></polygon>
            <polygon id="Fill-1195" fill="#FFFFFF" points="230.434413 420.129926 211.058226 431.345505 230.434413 442.52626"></polygon>
            <polygon id="Fill-1197" fill="#FFFFFF" points="211.063397 461.343022 230.433963 472.519283 230.433963 450.169007"></polygon>
            <polygon id="Fill-1199" fill="#FFFFFF" points="234.851194 450.170917 234.851194 472.525687 254.224009 461.349425"></polygon>
            <polygon id="Fill-1201" fill="#FFFFFF" points="263.057009 431.348201 282.427575 442.524462 282.427575 420.174186"></polygon>
            <polygon id="Fill-1203" fill="#FFFFFF" points="237.067848 476.345993 256.431668 487.517761 256.431668 465.171978"></polygon>
            <polygon id="Fill-1205" fill="#FFFFFF" points="280.222501 446.348925 260.849686 435.172664 260.849686 457.525187"></polygon>
            <polygon id="Fill-1207" fill="#FFFFFF" points="234.851194 390.185543 234.851194 412.472912 254.136318 401.309007"></polygon>
            <polygon id="Fill-1209" fill="#FFFFFF" points="256.431331 427.526097 256.431331 405.082582 237.011299 416.322875"></polygon>
            <polygon id="Fill-1211" fill="#FFFFFF" points="256.431331 457.525411 256.431331 435.170642 237.057393 446.346903"></polygon>
            <polygon id="Fill-1213" fill="#FFFFFF" points="234.851194 420.173849 234.851194 442.524125 254.22176 431.347864"></polygon>
            <polygon id="Fill-1215" fill="#FFFFFF" points="230.434413 412.527507 230.434413 390.178354 211.063847 401.353492"></polygon>
            <polygon id="Fill-1217" fill="#FFFFFF" points="280.095125 386.284467 260.849349 375.1801 260.849349 397.423658"></polygon>
            <polygon id="Fill-1219" fill="#FFFFFF" points="282.428137 412.529753 282.428137 390.036811 262.963135 401.302941"></polygon>
            <polygon id="Fill-1221" fill="#FFFFFF" points="260.849124 487.518098 280.214069 476.34633 260.849124 465.171192"></polygon>
            <polygon id="Fill-1223" fill="#FFFFFF" points="256.431331 375.180437 237.057393 386.358946 256.431331 397.535207"></polygon>
            <polygon id="Fill-1225" fill="#FFFFFF" points="306.216046 401.353267 286.846605 390.179252 286.846605 412.527282"></polygon>
            <polygon id="Fill-1227" fill="#FFFFFF" points="286.846043 472.519508 306.215484 461.343247 286.846043 450.169232"></polygon>
            <polygon id="Fill-1229" fill="#FFFFFF" points="263.057009 461.34965 282.427575 472.525911 282.427575 450.171141"></polygon>
            <polygon id="Fill-1231" fill="#FFFFFF" points="286.846043 442.526821 306.215484 431.35056 286.846043 420.176545"></polygon>
            <polygon id="Fill-1233" fill="#FFFFFF" points="308.424943 427.526097 308.424943 405.17582 289.053253 416.352082"></polygon>
            <polygon id="Fill-1235" fill="#FFFFFF" points="308.424943 457.52103 308.424943 435.171877 289.056625 446.347015"></polygon>
            <polygon id="Fill-1237" fill="#FFFFFF" points="260.896342 525.126347 260.896342 547.476624 280.265784 536.302609"></polygon>
            <polygon id="Fill-1239" fill="#FFFFFF" points="260.896342 495.131526 260.896342 517.476186 280.228684 506.284197"></polygon>
            <polygon id="Fill-1241" fill="#FFFFFF" points="282.475355 510.086193 263.099168 521.301772 282.475355 532.481404"></polygon>
            <polygon id="Fill-1243" fill="#FFFFFF" points="263.105351 551.299177 282.474793 562.473192 282.474793 540.125162"></polygon>
            <polygon id="Fill-1245" fill="#FFFFFF" points="286.89326 540.127072 286.89326 562.481842 306.264951 551.303333"></polygon>
            <g id="Group-1249" transform="translate(288.661907, 554.212936)">
                <mask id="mask-2" fill="white">
                    <use xlink:href="#path-1"></use>
                </mask>
                <g id="Clip-1248"></g>
                <polygon id="Fill-1247" fill="#FFFFFF" mask="url(#mask-2)" points="0.446883339 12.087078 19.8107038 23.2588461 19.8107038 0.915309868"></polygon>
            </g>
            <polygon id="Fill-1250" fill="#FFFFFF" points="286.89326 480.139451 286.89326 502.42682 306.17726 491.265162"></polygon>
            <g id="Group-1254" transform="translate(288.661907, 494.675107)" fill="#FFFFFF">
                <polygon id="Fill-1252" points="19.8102541 22.8071449 19.8102541 0.362506743 0.391346139 11.6016762"></polygon>
            </g>
            <g id="Group-1257" transform="translate(288.661907, 525.005699)" fill="#FFFFFF">
                <polygon id="Fill-1255" points="19.8102541 22.4758674 19.8102541 0.121097697 0.437439766 11.2973592"></polygon>
            </g>
            <polygon id="Fill-1258" fill="#FFFFFF" points="286.89326 510.12787 286.89326 532.478146 306.262702 521.304131"></polygon>
            <polygon id="Fill-1260" fill="#FFFFFF" points="282.475355 502.483774 282.475355 480.134621 263.105913 491.309759"></polygon>
            <g id="Group-1264" transform="translate(288.661907, 464.344515)" fill="#FFFFFF">
                <polygon id="Fill-1262" points="19.8102541 0.792077796 0.436315532 11.9683393 19.8102541 23.1446008"></polygon>
            </g>
            <polygon id="Fill-1265" fill="#FFFFFF" points="156.861788 525.126347 156.861788 547.476624 176.230106 536.302609"></polygon>
            <polygon id="Fill-1267" fill="#FFFFFF" points="156.861788 495.131526 156.861788 517.476186 176.19413 506.284197"></polygon>
            <polygon id="Fill-1269" fill="#FFFFFF" points="208.855513 495.135907 208.855513 517.482813 228.22383 506.307675"></polygon>
            <polygon id="Fill-1271" fill="#FFFFFF" points="178.440801 510.086193 159.064614 521.301772 178.440801 532.481404"></polygon>
            <polygon id="Fill-1273" fill="#FFFFFF" points="159.069673 551.299177 178.440239 562.473192 178.440239 540.125162"></polygon>
            <polygon id="Fill-1275" fill="#FFFFFF" points="182.858707 540.127072 182.858707 562.481842 202.230397 551.303333"></polygon>
            <polygon id="Fill-1277" fill="#FFFFFF" points="211.063397 521.304356 230.433963 532.478371 230.433963 510.128094"></polygon>
            <polygon id="Fill-1279" fill="#FFFFFF" points="185.074236 566.300014 204.438057 577.471782 204.438057 555.128246"></polygon>
            <polygon id="Fill-1281" fill="#FFFFFF" points="228.228777 536.302834 208.857086 525.126572 208.857086 547.481342"></polygon>
            <polygon id="Fill-1283" fill="#FFFFFF" points="182.858707 480.139451 182.858707 502.42682 202.142706 491.265162"></polygon>
            <polygon id="Fill-1285" fill="#FFFFFF" points="204.437607 517.482252 204.437607 495.037614 185.018699 506.276783"></polygon>
            <polygon id="Fill-1287" fill="#FFFFFF" points="204.437607 547.481566 204.437607 525.126797 185.064793 536.303058"></polygon>
            <polygon id="Fill-1289" fill="#FFFFFF" points="182.858707 510.12787 182.858707 532.478146 202.228148 521.304131"></polygon>
            <polygon id="Fill-1291" fill="#FFFFFF" points="178.440801 502.483774 178.440801 480.134621 159.070235 491.309759"></polygon>
            <polygon id="Fill-1293" fill="#FFFFFF" points="228.101401 476.238488 208.855625 465.136368 208.855625 487.379925"></polygon>
            <polygon id="Fill-1295" fill="#FFFFFF" points="230.434413 502.485908 230.434413 479.990719 210.970536 491.256849"></polygon>
            <polygon id="Fill-1297" fill="#FFFFFF" points="208.855513 577.472119 228.221581 566.300351 208.855513 555.125213"></polygon>
            <polygon id="Fill-1299" fill="#FFFFFF" points="204.437607 465.136593 185.063668 476.312854 204.437607 487.489116"></polygon>
            <polygon id="Fill-1301" fill="#FFFFFF" points="254.222322 491.309422 234.852881 480.133161 234.852881 502.483437"></polygon>
            <polygon id="Fill-1303" fill="#FFFFFF" points="234.852318 562.473529 254.222884 551.299514 234.852318 540.124376"></polygon>
            <polygon id="Fill-1305" fill="#FFFFFF" points="211.063397 551.30367 230.433963 562.479932 230.433963 540.127409"></polygon>
            <polygon id="Fill-1307" fill="#FFFFFF" points="234.852318 532.480842 254.222884 521.30458 234.852318 510.131689"></polygon>
            <polygon id="Fill-1309" fill="#FFFFFF" points="256.431331 517.482252 256.431331 495.131975 237.059641 506.308237"></polygon>
            <polygon id="Fill-1311" fill="#FFFFFF" points="256.431331 547.477185 256.431331 525.126909 237.063014 536.303171"></polygon>
            <polygon id="Fill-1313" fill="#FFFFFF" points="208.854388 615.117663 208.854388 637.466816 228.22383 626.293925"></polygon>
            <polygon id="Fill-1315" fill="#FFFFFF" points="208.854388 585.12273 208.854388 607.465143 228.187854 596.275401"></polygon>
            <polygon id="Fill-1317" fill="#FFFFFF" points="260.849124 585.127111 260.849124 607.474017 280.217442 596.298879"></polygon>
            <polygon id="Fill-1319" fill="#FFFFFF" points="230.434413 600.077397 211.058226 611.292976 230.434413 622.472607"></polygon>
            <polygon id="Fill-1321" fill="#FFFFFF" points="211.063397 641.290493 230.433963 652.464508 230.433963 630.116478"></polygon>
            <polygon id="Fill-1323" fill="#FFFFFF" points="234.851194 630.118388 234.851194 652.473158 254.224009 641.29465"></polygon>
            <polygon id="Fill-1325" fill="#FFFFFF" points="263.057009 611.295672 282.427575 622.469687 282.427575 600.11941"></polygon>
            <polygon id="Fill-1327" fill="#FFFFFF" points="237.067848 656.291218 256.431668 667.462986 256.431668 645.11945"></polygon>
            <polygon id="Fill-1329" fill="#FFFFFF" points="280.222501 626.29415 260.849686 615.117888 260.849686 637.472658"></polygon>
            <polygon id="Fill-1331" fill="#FFFFFF" points="234.851194 570.130768 234.851194 592.418136 254.136318 581.254231"></polygon>
            <polygon id="Fill-1333" fill="#FFFFFF" points="256.431331 607.473568 256.431331 585.02893 237.011299 596.268099"></polygon>
            <polygon id="Fill-1335" fill="#FFFFFF" points="256.431331 637.472883 256.431331 615.118113 237.057393 626.294374"></polygon>
            <polygon id="Fill-1337" fill="#FFFFFF" points="234.851194 600.119073 234.851194 622.46935 254.22176 611.295335"></polygon>
            <polygon id="Fill-1339" fill="#FFFFFF" points="230.434413 592.474978 230.434413 570.124701 211.063847 581.300963"></polygon>
            <polygon id="Fill-1341" fill="#FFFFFF" points="280.095125 566.229804 260.849349 555.127684 260.849349 577.371242"></polygon>
            <polygon id="Fill-1343" fill="#FFFFFF" points="282.428137 592.477225 282.428137 569.982035 262.963135 581.248165"></polygon>
            <polygon id="Fill-1345" fill="#FFFFFF" points="260.849124 667.463435 280.214069 656.291667 260.849124 645.116529"></polygon>
            <polygon id="Fill-1347" fill="#FFFFFF" points="256.431331 555.127909 237.057393 566.30417 256.431331 577.480432"></polygon>
            <polygon id="Fill-1349" fill="#FFFFFF" points="306.216046 581.300738 286.846605 570.124477 286.846605 592.474753"></polygon>
            <polygon id="Fill-1351" fill="#FFFFFF" points="286.846043 652.464845 306.215484 641.29083 286.846043 630.115692"></polygon>
            <polygon id="Fill-1353" fill="#FFFFFF" points="263.057009 641.294874 282.427575 652.471136 282.427575 630.118613"></polygon>
            <polygon id="Fill-1355" fill="#FFFFFF" points="286.846043 622.472158 306.215484 611.295897 286.846043 600.121882"></polygon>
            <polygon id="Fill-1357" fill="#FFFFFF" points="308.424943 607.471434 308.424943 585.122281 289.053253 596.299665"></polygon>
            <polygon id="Fill-1359" fill="#FFFFFF" points="308.424943 637.466255 308.424943 615.117102 289.056625 626.294487"></polygon>
            <polygon id="Fill-1361" fill="#FFFFFF" points="286.89326 659.928979 286.89326 682.216347 306.17726 671.054689"></polygon>
            <polygon id="Fill-1363" fill="#FFFFFF" points="282.475355 682.273189 282.475355 659.924036 263.105913 671.099174"></polygon>
            <g id="Group-1367" transform="translate(288.661907, 644.081357)" fill="#FFFFFF">
                <polygon id="Fill-1365" points="19.8102541 0.844763158 0.436315532 12.0210247 19.8102541 23.1972862"></polygon>
            </g>
            <polygon id="Fill-1368" fill="#FFFFFF" points="182.858707 659.928979 182.858707 682.216347 202.142706 671.054689"></polygon>
            <polygon id="Fill-1370" fill="#FFFFFF" points="178.440801 682.273189 178.440801 659.924036 159.070235 671.099174"></polygon>
            <polygon id="Fill-1372" fill="#FFFFFF" points="228.101401 656.03015 208.855625 644.925783 208.855625 667.169341"></polygon>
            <polygon id="Fill-1374" fill="#FFFFFF" points="230.434413 682.275436 230.434413 659.780247 210.970536 671.048623"></polygon>
            <polygon id="Fill-1376" fill="#FFFFFF" points="204.437607 644.92612 185.063668 656.102382 204.437607 667.278643"></polygon>
            <polygon id="Fill-1378" fill="#FFFFFF" points="254.222322 671.09895 234.852881 659.924935 234.852881 682.272964"></polygon>
            <polygon id="Fill-1380" fill="#FFFFFF" points="104.886839 255.134987 104.886839 277.48414 124.256281 266.309002"></polygon>
            <polygon id="Fill-1382" fill="#FFFFFF" points="104.886839 225.137807 104.886839 247.482466 124.220305 236.290478"></polygon>
            <polygon id="Fill-1384" fill="#FFFFFF" points="156.880563 225.1423 156.880563 247.489206 176.248881 236.314068"></polygon>
            <polygon id="Fill-1386" fill="#FFFFFF" points="126.465739 240.092474 107.089552 251.308053 126.465739 262.488808"></polygon>
            <polygon id="Fill-1388" fill="#FFFFFF" points="107.095736 281.30557 126.465177 292.480708 126.465177 270.131555"></polygon>
            <polygon id="Fill-1390" fill="#FFFFFF" points="130.883645 270.133465 130.883645 292.488235 150.255335 281.31085"></polygon>
            <polygon id="Fill-1392" fill="#FFFFFF" points="159.08946 251.310749 178.458901 262.485887 178.458901 240.136734"></polygon>
            <polygon id="Fill-1394" fill="#FFFFFF" points="133.099174 296.307418 152.462995 307.478063 152.462995 285.134526"></polygon>
            <polygon id="Fill-1396" fill="#FFFFFF" points="176.253827 266.31035 156.882137 255.134088 156.882137 277.487735"></polygon>
            <polygon id="Fill-1398" fill="#FFFFFF" points="130.883645 210.146968 130.883645 232.434336 150.168769 221.271555"></polygon>
            <polygon id="Fill-1400" fill="#FFFFFF" points="152.463669 247.488645 152.463669 225.04513 133.043637 236.285423"></polygon>
            <polygon id="Fill-1402" fill="#FFFFFF" points="152.463669 277.487959 152.463669 255.13319 133.089731 266.309451"></polygon>
            <polygon id="Fill-1404" fill="#FFFFFF" points="130.883645 240.136397 130.883645 262.486673 150.253086 251.310412"></polygon>
            <polygon id="Fill-1406" fill="#FFFFFF" points="126.465739 232.490167 126.465739 210.141014 107.096298 221.316152"></polygon>
            <polygon id="Fill-1408" fill="#FFFFFF" points="176.126451 206.247015 156.880676 195.142649 156.880676 217.386206"></polygon>
            <polygon id="Fill-1410" fill="#FFFFFF" points="178.460588 232.492301 178.460588 209.997112 158.995586 221.265489"></polygon>
            <polygon id="Fill-1412" fill="#FFFFFF" points="156.880563 307.478512 176.246632 296.307867 156.880563 285.132729"></polygon>
            <polygon id="Fill-1414" fill="#FFFFFF" points="152.463669 195.142986 133.088607 206.321494 152.463669 217.496632"></polygon>
            <polygon id="Fill-1416" fill="#FFFFFF" points="202.247373 221.315815 182.877931 210.1418 182.877931 232.48983"></polygon>
            <polygon id="Fill-1418" fill="#FFFFFF" points="182.877369 292.481045 202.247935 281.305907 182.877369 270.130769"></polygon>
            <polygon id="Fill-1420" fill="#FFFFFF" points="159.08946 281.311074 178.458901 292.486212 178.458901 270.133689"></polygon>
            <polygon id="Fill-1422" fill="#FFFFFF" points="182.877369 262.489369 202.247935 251.313108 182.877369 240.139093"></polygon>
            <polygon id="Fill-1424" fill="#FFFFFF" points="204.456269 247.488645 204.456269 225.138368 185.085703 236.31463"></polygon>
            <polygon id="Fill-1426" fill="#FFFFFF" points="204.456269 277.483578 204.456269 255.134425 185.087952 266.309563"></polygon>
            <polygon id="Fill-1428" fill="#FFFFFF" points="104.886839 75.097535 104.886839 97.446688 124.256281 86.2726732"></polygon>
            <polygon id="Fill-1430" fill="#FFFFFF" points="104.886839 45.1014781 104.886839 67.4450143 124.220305 56.2552725"></polygon>
            <polygon id="Fill-1432" fill="#FFFFFF" points="156.880563 45.1064209 156.880563 67.4522038 176.248881 56.278189"></polygon>
            <polygon id="Fill-1434" fill="#FFFFFF" points="126.465739 60.0561451 107.089552 71.271724 126.465739 82.4513556"></polygon>
            <polygon id="Fill-1436" fill="#FFFFFF" points="107.095736 101.269241 126.465177 112.444379 126.465177 90.0952265"></polygon>
            <polygon id="Fill-1438" fill="#FFFFFF" points="130.883645 90.0971362 130.883645 112.451906 150.255335 101.274521"></polygon>
            <polygon id="Fill-1440" fill="#FFFFFF" points="159.08946 71.2744201 178.458901 82.4495582 178.458901 60.0992819"></polygon>
            <polygon id="Fill-1442" fill="#FFFFFF" points="133.099174 116.270527 152.462995 127.442296 152.462995 105.097636"></polygon>
            <polygon id="Fill-1444" fill="#FFFFFF" points="176.253827 86.2734595 156.882137 75.097198 156.882137 97.4519678"></polygon>
            <polygon id="Fill-1446" fill="#FFFFFF" points="130.883645 30.1100775 130.883645 52.3974459 150.168769 41.2346646"></polygon>
            <polygon id="Fill-1448" fill="#FFFFFF" points="152.463669 67.4517544 152.463669 45.0082396 133.043637 56.2485324"></polygon>
            <polygon id="Fill-1450" fill="#FFFFFF" points="152.463669 97.4510691 152.463669 75.0962993 133.089731 86.2725609"></polygon>
            <polygon id="Fill-1452" fill="#FFFFFF" points="130.883645 60.0989449 130.883645 82.4492212 150.253086 71.2740831"></polygon>
            <polygon id="Fill-1454" fill="#FFFFFF" points="126.465739 52.4538383 126.465739 30.1046854 107.096298 41.2798235"></polygon>
            <polygon id="Fill-1456" fill="#FFFFFF" points="176.126451 26.2096757 156.880676 15.1064322 156.880676 37.3499898"></polygon>
            <polygon id="Fill-1458" fill="#FFFFFF" points="178.460588 52.4559727 178.460588 29.9607836 158.995586 41.2280368"></polygon>
            <polygon id="Fill-1460" fill="#FFFFFF" points="156.880563 127.442183 176.246632 116.270415 156.880563 105.0964"></polygon>
            <polygon id="Fill-1462" fill="#FFFFFF" points="152.463669 15.1066569 133.088607 26.2840418 152.463669 37.4603033"></polygon>
            <polygon id="Fill-1464" fill="#FFFFFF" points="202.247373 41.2794865 182.877931 30.1043484 182.877931 52.4535013"></polygon>
            <polygon id="Fill-1466" fill="#FFFFFF" points="182.877369 112.444155 202.247935 101.269017 182.877369 90.0950018"></polygon>
            <polygon id="Fill-1468" fill="#FFFFFF" points="159.08946 101.274184 178.458901 112.450446 178.458901 90.0967992"></polygon>
            <polygon id="Fill-1470" fill="#FFFFFF" points="182.877369 82.4514679 202.247935 71.2752064 182.877369 60.1011916"></polygon>
            <polygon id="Fill-1472" fill="#FFFFFF" points="204.456269 67.4517544 204.456269 45.1014781 185.085703 56.2777396"></polygon>
            <polygon id="Fill-1474" fill="#FFFFFF" points="204.456269 97.446688 204.456269 75.097535 185.087952 86.2726732"></polygon>
            <polygon id="Fill-1476" fill="#FFFFFF" points="159.08946 11.1951339 178.460026 22.370272 178.460026 0.0211190789"></polygon>
            <polygon id="Fill-1478" fill="#FFFFFF" points="182.877369 0.0230287829 182.877369 22.3789219 202.250183 11.2004137"></polygon>
            <polygon id="Fill-1480" fill="#FFFFFF" points="185.094023 26.1969817 204.457843 37.3687498 204.457843 15.0240903"></polygon>
            <polygon id="Fill-1482" fill="#FFFFFF" points="208.875299 37.3680758 228.240244 26.1963077 208.875299 15.0234163"></polygon>
            <polygon id="Fill-1484" fill="#FFFFFF" points="234.872105 22.3700474 254.241547 11.1949092 234.872105 0.0208944079"></polygon>
            <polygon id="Fill-1486" fill="#FFFFFF" points="211.083071 11.2006383 230.453637 22.3768998 230.453637 0.0232534539"></polygon>
            <polygon id="Fill-1488" fill="#FFFFFF" points="263.010915 11.1743518 282.381481 22.34949 282.381481 0.000337006579"></polygon>
            <polygon id="Fill-1490" fill="#FFFFFF" points="286.798825 0.00224671053 286.798825 22.3570164 306.171639 11.1796316"></polygon>
            <polygon id="Fill-1492" fill="#FFFFFF" points="289.014354 26.175638 308.379299 37.3474061 308.379299 15.0027465"></polygon>
            <polygon id="Fill-1494" fill="#FFFFFF" points="104.886839 435.067068 104.886839 457.416221 124.256281 446.241083"></polygon>
            <polygon id="Fill-1496" fill="#FFFFFF" points="104.886839 405.072135 104.886839 427.414548 124.220305 416.224806"></polygon>
            <polygon id="Fill-1498" fill="#FFFFFF" points="156.880563 405.076516 156.880563 427.421175 176.248881 416.248284"></polygon>
            <polygon id="Fill-1500" fill="#FFFFFF" points="126.465739 420.026802 107.089552 431.240134 126.465739 442.422012"></polygon>
            <polygon id="Fill-1502" fill="#FFFFFF" points="107.095736 461.239898 126.465177 472.413913 126.465177 450.065883"></polygon>
            <polygon id="Fill-1504" fill="#FFFFFF" points="130.883645 450.067793 130.883645 472.420316 150.255335 461.244054"></polygon>
            <polygon id="Fill-1506" fill="#FFFFFF" points="159.08946 431.245077 178.458901 442.419091 178.458901 420.068815"></polygon>
            <polygon id="Fill-1508" fill="#FFFFFF" points="133.099174 476.240622 152.462995 487.41239 152.462995 465.068854"></polygon>
            <polygon id="Fill-1510" fill="#FFFFFF" points="176.253827 446.243554 156.882137 435.067293 156.882137 457.422063"></polygon>
            <polygon id="Fill-1512" fill="#FFFFFF" points="130.883645 390.080172 130.883645 412.367541 150.168769 401.203636"></polygon>
            <polygon id="Fill-1514" fill="#FFFFFF" points="152.463669 427.420838 152.463669 404.977324 133.043637 416.217616"></polygon>
            <polygon id="Fill-1516" fill="#FFFFFF" points="152.463669 457.420041 152.463669 435.067518 133.089731 446.243779"></polygon>
            <polygon id="Fill-1518" fill="#FFFFFF" points="130.883645 420.068478 130.883645 442.418754 150.253086 431.24474"></polygon>
            <polygon id="Fill-1520" fill="#FFFFFF" points="126.465739 412.424495 126.465739 390.074219 107.096298 401.25048"></polygon>
            <polygon id="Fill-1522" fill="#FFFFFF" points="176.126451 386.179209 156.880676 375.077089 156.880676 397.320646"></polygon>
            <polygon id="Fill-1524" fill="#FFFFFF" points="178.460588 412.426629 178.460588 389.93144 158.995586 401.19757"></polygon>
            <polygon id="Fill-1526" fill="#FFFFFF" points="156.880563 487.41284 176.246632 476.241072 156.880563 465.065934"></polygon>
            <polygon id="Fill-1528" fill="#FFFFFF" points="152.463669 375.077313 133.088607 386.253575 152.463669 397.429837"></polygon>
            <polygon id="Fill-1530" fill="#FFFFFF" points="202.247373 401.250143 182.877931 390.073882 182.877931 412.421911"></polygon>
            <polygon id="Fill-1532" fill="#FFFFFF" points="182.877369 472.41425 202.247935 461.240235 182.877369 450.065097"></polygon>
            <polygon id="Fill-1534" fill="#FFFFFF" points="159.08946 461.244279 178.458901 472.42054 178.458901 450.068017"></polygon>
            <polygon id="Fill-1536" fill="#FFFFFF" points="182.877369 442.421563 202.247935 431.245301 182.877369 420.071287"></polygon>
            <polygon id="Fill-1538" fill="#FFFFFF" points="204.456269 427.420838 204.456269 405.070562 185.085703 416.246824"></polygon>
            <polygon id="Fill-1540" fill="#FFFFFF" points="204.456269 457.41566 204.456269 435.066507 185.087952 446.243891"></polygon>
            <polygon id="Fill-1542" fill="#FFFFFF" points="104.863792 615.135188 104.863792 637.484341 124.233234 626.309203"></polygon>
            <polygon id="Fill-1544" fill="#FFFFFF" points="104.863792 585.140254 104.863792 607.482667 124.196134 596.292925"></polygon>
            <polygon id="Fill-1546" fill="#FFFFFF" points="156.857404 585.144748 156.857404 607.489407 176.225721 596.316516"></polygon>
            <polygon id="Fill-1548" fill="#FFFFFF" points="126.442693 600.094921 107.066505 611.308253 126.442693 622.490132"></polygon>
            <polygon id="Fill-1550" fill="#FFFFFF" points="107.071677 641.305883 126.442243 652.482145 126.442243 630.134115"></polygon>
            <polygon id="Fill-1552" fill="#FFFFFF" points="130.860598 630.135912 130.860598 652.488435 150.232288 641.312174"></polygon>
            <polygon id="Fill-1554" fill="#FFFFFF" points="159.065289 611.31095 178.435855 622.487211 178.435855 600.136935"></polygon>
            <polygon id="Fill-1556" fill="#FFFFFF" points="133.076128 656.308854 152.439948 667.480622 152.439948 645.137086"></polygon>
            <polygon id="Fill-1558" fill="#FFFFFF" points="176.23078 626.311674 156.85909 615.135412 156.85909 637.490182"></polygon>
            <polygon id="Fill-1560" fill="#FFFFFF" points="130.860598 570.148292 130.860598 592.43566 150.145722 581.271756"></polygon>
            <polygon id="Fill-1562" fill="#FFFFFF" points="152.439611 607.488958 152.439611 585.045443 133.020703 596.285736"></polygon>
            <polygon id="Fill-1564" fill="#FFFFFF" points="152.439611 637.488273 152.439611 615.13575 133.066796 626.312011"></polygon>
            <polygon id="Fill-1566" fill="#FFFFFF" points="130.860598 600.13671 130.860598 622.486986 150.23004 611.310725"></polygon>
            <polygon id="Fill-1568" fill="#FFFFFF" points="126.442693 592.492614 126.442693 570.142338 107.072127 581.3186"></polygon>
            <polygon id="Fill-1570" fill="#FFFFFF" points="176.103405 566.247328 156.857629 555.142962 156.857629 577.388766"></polygon>
            <polygon id="Fill-1572" fill="#FFFFFF" points="178.436417 592.494749 178.436417 569.99956 158.971415 581.26569"></polygon>
            <polygon id="Fill-1574" fill="#FFFFFF" points="156.857404 667.480959 176.223473 656.309191 156.857404 645.134053"></polygon>
            <polygon id="Fill-1576" fill="#FFFFFF" points="152.439611 555.145433 133.065672 566.321695 152.439611 577.497956"></polygon>
            <polygon id="Fill-1578" fill="#FFFFFF" points="202.224326 581.318263 182.854884 570.142001 182.854884 592.490031"></polygon>
            <polygon id="Fill-1580" fill="#FFFFFF" points="182.854322 652.482369 202.224888 641.306108 182.854322 630.133216"></polygon>
            <polygon id="Fill-1582" fill="#FFFFFF" points="159.066413 641.312511 178.435855 652.488772 178.435855 630.136249"></polygon>
            <polygon id="Fill-1584" fill="#FFFFFF" points="182.854322 622.489682 202.224888 611.313421 182.854322 600.139406"></polygon>
            <polygon id="Fill-1586" fill="#FFFFFF" points="204.433223 607.488958 204.433223 585.138682 185.062657 596.314943"></polygon>
            <polygon id="Fill-1588" fill="#FFFFFF" points="204.433223 637.483891 204.433223 615.134738 185.064905 626.309877"></polygon>
        </g>
    </g>
</svg>