<?xml version="1.0" encoding="UTF-8" standalone="no"?>
<svg width="308px" height="683px" viewBox="0 0 308 683" version="1.1" xmlns="http://www.w3.org/2000/svg" xmlns:xlink="http://www.w3.org/1999/xlink">
    <!-- Generator: Sketch 41.2 (35397) - http://www.bohemiancoding.com/sketch -->
    <title>Group</title>
    <desc>Created with Sketch.</desc>
    <defs></defs>
    <g id="Page-1" stroke="none" stroke-width="1" fill="none" fill-rule="evenodd">
        <g id="Group" fill="#FFFFFF">
            <polygon id="Fill-1" points="0 75.0503541 0 97.3995071 19.3683174 86.2254923"></polygon>
            <polygon id="Fill-3" points="0 45.0544095 0 67.3979457 19.3334661 56.2082039"></polygon>
            <polygon id="Fill-5" points="51.9941738 45.0587906 51.9941738 67.4045735 71.361367 56.2305587"></polygon>
            <polygon id="Fill-7" points="21.5789003 60.0090765 2.20271327 71.2246554 21.5789003 82.404287"></polygon>
            <polygon id="Fill-9" points="2.20889656 101.221611 21.5794624 112.396749 21.5794624 90.0475962"></polygon>
            <polygon id="Fill-11" points="25.9968059 90.0499553 25.9968059 112.405848 45.3696202 101.22734"></polygon>
            <polygon id="Fill-13" points="54.2020586 71.2266775 73.5726244 82.4018156 73.5726244 60.0515393"></polygon>
            <polygon id="Fill-15" points="28.2123354 116.223459 47.5761559 127.395227 47.5761559 105.050567"></polygon>
            <polygon id="Fill-17" points="71.3675503 86.2262786 51.9947359 75.0500171 51.9947359 97.4047868"></polygon>
            <polygon id="Fill-19" points="25.9968059 30.0628965 25.9968059 52.350265 45.2819299 41.1874837"></polygon>
            <polygon id="Fill-21" points="47.5762683 67.4045735 47.5762683 44.9610587 28.1562361 56.2013515"></polygon>
            <polygon id="Fill-23" points="47.5762683 97.4038882 47.5762683 75.0491184 28.2023297 86.2253799"></polygon>
            <polygon id="Fill-25" points="25.9968059 60.051764 25.9968059 82.4020403 45.3673717 71.2269021"></polygon>
            <polygon id="Fill-27" points="21.5789003 52.4060957 21.5789003 30.0569428 2.20833445 41.2320809"></polygon>
            <polygon id="Fill-29" points="71.2401745 26.1624947 51.9943987 15.0592513 51.9943987 37.3028089"></polygon>
            <polygon id="Fill-31" points="73.5731866 52.4082301 73.5731866 29.913041 54.108185 41.1802942"></polygon>
            <polygon id="Fill-33" points="51.9941738 127.395002 71.3591185 116.223234 51.9941738 105.049219"></polygon>
            <polygon id="Fill-35" points="47.5762683 15.059476 28.2012055 26.2368609 47.5762683 37.4131224"></polygon>
            <polygon id="Fill-37" points="97.3610959 41.2317439 77.99053 30.0566058 77.99053 52.4057587"></polygon>
            <polygon id="Fill-39" points="77.9910921 112.396974 97.361658 101.221836 77.9910921 90.0478209"></polygon>
            <polygon id="Fill-41" points="54.2026207 101.227003 73.5731866 112.403265 73.5731866 90.0496183"></polygon>
            <polygon id="Fill-43" points="77.9910921 82.404287 97.361658 71.2280255 77.9910921 60.0540107"></polygon>
            <polygon id="Fill-45" points="99.5699924 67.4041242 99.5699924 45.0538479 80.1983023 56.2301094"></polygon>
            <polygon id="Fill-47" points="99.5699924 97.3995071 99.5699924 75.0503541 80.201675 86.2254923"></polygon>
            <polygon id="Fill-49" points="52.0408296 165.004937 52.0408296 187.354089 71.409147 176.180075"></polygon>
            <polygon id="Fill-51" points="52.0408296 135.00888 52.0408296 157.352416 71.3742957 146.161551"></polygon>
            <polygon id="Fill-53" points="104.035116 135.013822 104.035116 157.359605 123.402309 146.18559"></polygon>
            <polygon id="Fill-55" points="73.6198423 149.963547 54.2436553 161.179125 73.6198423 172.358757"></polygon>
            <polygon id="Fill-57" points="54.2498386 191.176081 73.6204044 202.351219 73.6204044 180.002066"></polygon>
            <polygon id="Fill-59" points="78.0377479 180.004538 78.0377479 202.359307 97.4105622 191.183046"></polygon>
            <polygon id="Fill-61" points="106.242888 161.181709 125.613454 172.356847 125.613454 150.006571"></polygon>
            <polygon id="Fill-63" points="80.2532774 206.179052 99.6170979 217.349697 99.6170979 195.005038"></polygon>
            <polygon id="Fill-65" points="123.40838 176.180861 104.035566 165.0046 104.035566 187.359369"></polygon>
            <polygon id="Fill-67" points="78.0377479 120.018041 78.0377479 142.305409 97.3228719 131.142628"></polygon>
            <polygon id="Fill-69" points="99.6172103 157.359156 99.6172103 134.915641 80.1971781 146.155934"></polygon>
            <polygon id="Fill-71" points="99.6172103 187.358471 99.6172103 165.004824 80.2432717 176.179962"></polygon>
            <polygon id="Fill-73" points="78.0377479 150.006346 78.0377479 172.356623 97.4083137 161.181485"></polygon>
            <polygon id="Fill-75" points="73.6198423 142.361127 73.6198423 120.011975 54.2492764 131.187113"></polygon>
            <polygon id="Fill-77" points="123.281004 116.116965 104.035228 105.013721 104.035228 127.257279"></polygon>
            <polygon id="Fill-79" points="125.614016 142.363374 125.614016 119.868185 106.149015 131.135438"></polygon>
            <polygon id="Fill-81" points="104.035116 217.349023 123.400061 206.178378 104.035116 195.004363"></polygon>
            <polygon id="Fill-83" points="99.6172103 105.013946 80.2421475 116.191331 99.6172103 127.367592"></polygon>
            <polygon id="Fill-85" points="149.401925 131.186888 130.03136 120.01175 130.03136 142.360903"></polygon>
            <polygon id="Fill-87" points="130.031922 202.351556 149.402488 191.176418 130.031922 180.002403"></polygon>
            <polygon id="Fill-89" points="106.24345 191.182709 125.614016 202.357847 125.614016 180.004201"></polygon>
            <polygon id="Fill-91" points="130.031922 172.359319 149.402488 161.183057 130.031922 150.009042"></polygon>
            <polygon id="Fill-93" points="151.610822 157.359156 151.610822 135.00888 132.239132 146.185141"></polygon>
            <polygon id="Fill-95" points="151.610822 187.354089 151.610822 165.004937 132.242505 176.180075"></polygon>
            <polygon id="Fill-97" points="0.000562117408 135.013822 0.000562117408 157.359605 19.3677553 146.18559"></polygon>
            <polygon id="Fill-99" points="2.20844687 161.181709 21.5790127 172.356847 21.5790127 150.006571"></polygon>
            <polygon id="Fill-101" points="19.3738261 176.180861 0.00101181133 165.0046 0.00101181133 187.359369"></polygon>
            <polygon id="Fill-103" points="19.2464503 116.116965 0.000674540889 105.013721 0.000674540889 127.257279"></polygon>
            <polygon id="Fill-105" points="21.5794624 142.363374 21.5794624 119.868185 2.11446084 131.135438"></polygon>
            <polygon id="Fill-107" points="0.000562117408 217.349023 19.3655068 206.178378 0.000562117408 195.004363"></polygon>
            <polygon id="Fill-109" points="45.3673717 131.186888 25.9968059 120.01175 25.9968059 142.360903"></polygon>
            <polygon id="Fill-111" points="25.997368 202.351556 45.3679338 191.176418 25.997368 180.002403"></polygon>
            <polygon id="Fill-113" points="2.20889656 191.182709 21.5794624 202.357847 21.5794624 180.004201"></polygon>
            <polygon id="Fill-115" points="25.997368 172.359319 45.3679338 161.183057 25.997368 150.009042"></polygon>
            <polygon id="Fill-117" points="47.5762683 157.359156 47.5762683 135.00888 28.2045782 146.185141"></polygon>
            <polygon id="Fill-119" points="47.5762683 187.354089 47.5762683 165.004937 28.2079509 176.180075"></polygon>
            <polygon id="Fill-121" points="0 254.996702 0 277.345855 19.3683174 266.170717"></polygon>
            <polygon id="Fill-123" points="0 224.999634 0 247.344294 19.3334661 236.152305"></polygon>
            <polygon id="Fill-125" points="51.9941738 225.004015 51.9941738 247.350921 71.361367 236.175783"></polygon>
            <polygon id="Fill-127" points="21.5789003 239.954301 2.20271327 251.16988 21.5789003 262.350635"></polygon>
            <polygon id="Fill-129" points="2.20889656 281.167397 21.5794624 292.342535 21.5794624 269.993382"></polygon>
            <polygon id="Fill-131" points="25.9968059 269.995292 25.9968059 292.350062 45.3696202 281.172677"></polygon>
            <polygon id="Fill-133" points="54.2020586 251.172464 73.5726244 262.347602 73.5726244 239.998449"></polygon>
            <polygon id="Fill-135" points="28.2123354 296.169245 47.5761559 307.33989 47.5761559 284.996354"></polygon>
            <polygon id="Fill-137" points="71.3675503 266.171054 51.9947359 254.995916 51.9947359 277.349562"></polygon>
            <polygon id="Fill-139" points="25.9968059 210.008795 25.9968059 232.296163 45.2819299 221.133382"></polygon>
            <polygon id="Fill-141" points="47.5762683 247.350472 47.5762683 224.906957 28.1562361 236.14725"></polygon>
            <polygon id="Fill-143" points="47.5762683 277.349787 47.5762683 254.995017 28.2023297 266.171278"></polygon>
            <polygon id="Fill-145" points="25.9968059 239.998224 25.9968059 262.3485 45.3673717 251.172239"></polygon>
            <polygon id="Fill-147" points="21.5789003 232.351882 21.5789003 210.002729 2.20833445 221.177867"></polygon>
            <polygon id="Fill-149" points="71.2401745 206.108843 51.9943987 195.004476 51.9943987 217.248033"></polygon>
            <polygon id="Fill-151" points="73.5731866 232.354129 73.5731866 209.858939 54.108185 221.127316"></polygon>
            <polygon id="Fill-153" points="51.9941738 307.340227 71.3591185 296.168459 51.9941738 284.994444"></polygon>
            <polygon id="Fill-155" points="47.5762683 195.0047 28.2012055 206.183209 47.5762683 217.358347"></polygon>
            <polygon id="Fill-157" points="97.3610959 221.177642 77.99053 210.003628 77.99053 232.351657"></polygon>
            <polygon id="Fill-159" points="77.9910921 292.34276 97.361658 281.167622 77.9910921 269.992484"></polygon>
            <polygon id="Fill-161" points="54.2026207 281.172902 73.5731866 292.34804 73.5731866 269.995517"></polygon>
            <polygon id="Fill-163" points="77.9910921 262.350073 97.361658 251.174935 77.9910921 239.999797"></polygon>
            <polygon id="Fill-165" points="99.5699924 247.350472 99.5699924 225.000196 80.1983023 236.176457"></polygon>
            <polygon id="Fill-167" points="99.5699924 277.345406 99.5699924 254.996253 80.201675 266.171391"></polygon>
            <polygon id="Fill-169" points="52.0408296 344.950723 52.0408296 367.299876 71.409147 356.124737"></polygon>
            <polygon id="Fill-171" points="52.0408296 314.955789 52.0408296 337.298202 71.3742957 326.10846"></polygon>
            <polygon id="Fill-173" points="104.035116 314.96017 104.035116 337.305953 123.402309 326.130815"></polygon>
            <polygon id="Fill-175" points="73.6198423 329.910456 54.2436553 341.124912 73.6198423 352.305667"></polygon>
            <polygon id="Fill-177" points="54.2498386 371.121418 73.6204044 382.297679 73.6204044 359.947403"></polygon>
            <polygon id="Fill-179" points="78.0377479 359.949313 78.0377479 382.304083 97.4105622 371.127821"></polygon>
            <polygon id="Fill-181" points="106.242888 341.127608 125.613454 352.302746 125.613454 329.95247"></polygon>
            <polygon id="Fill-183" points="80.2532774 386.124277 99.6170979 397.296045 99.6170979 374.950262"></polygon>
            <polygon id="Fill-185" points="123.40838 356.127209 104.035566 344.950947 104.035566 367.305717"></polygon>
            <polygon id="Fill-187" points="78.0377479 299.963827 78.0377479 322.251195 97.3228719 311.087291"></polygon>
            <polygon id="Fill-189" points="99.6172103 337.304493 99.6172103 314.860978 80.1971781 326.101271"></polygon>
            <polygon id="Fill-191" points="99.6172103 367.303695 99.6172103 344.951172 80.2432717 356.125187"></polygon>
            <polygon id="Fill-193" points="78.0377479 329.952133 78.0377479 352.302409 97.4083137 341.127271"></polygon>
            <polygon id="Fill-195" points="73.6198423 322.307026 73.6198423 299.95675 54.2492764 311.134135"></polygon>
            <polygon id="Fill-197" points="123.281004 296.062863 104.035228 284.95962 104.035228 307.204301"></polygon>
            <polygon id="Fill-199" points="125.614016 322.30916 125.614016 299.815095 106.149015 311.081225"></polygon>
            <polygon id="Fill-201" points="104.035116 397.296494 123.400061 386.124726 104.035116 374.949588"></polygon>
            <polygon id="Fill-203" points="99.6172103 284.960968 80.2421475 296.137229 99.6172103 307.313491"></polygon>
            <polygon id="Fill-205" points="149.401925 311.132674 130.03136 299.957536 130.03136 322.306689"></polygon>
            <polygon id="Fill-207" points="130.031922 382.297904 149.402488 371.121643 130.031922 359.947628"></polygon>
            <polygon id="Fill-209" points="106.24345 371.127933 125.614016 382.304195 125.614016 359.949425"></polygon>
            <polygon id="Fill-211" points="130.031922 352.305217 149.402488 341.128956 130.031922 329.954941"></polygon>
            <polygon id="Fill-213" points="151.610822 337.304493 151.610822 314.954216 132.239132 326.130478"></polygon>
            <polygon id="Fill-215" points="151.610822 367.299314 151.610822 344.950161 132.242505 356.125299"></polygon>
            <polygon id="Fill-217" points="0.000562117408 314.96017 0.000562117408 337.305953 19.3677553 326.130815"></polygon>
            <polygon id="Fill-219" points="2.20844687 341.127608 21.5790127 352.302746 21.5790127 329.95247"></polygon>
            <polygon id="Fill-221" points="19.3738261 356.127209 0.00101181133 344.950947 0.00101181133 367.305717"></polygon>
            <polygon id="Fill-223" points="19.2464503 296.062863 0.000674540889 284.95962 0.000674540889 307.204301"></polygon>
            <polygon id="Fill-225" points="21.5794624 322.30916 21.5794624 299.815095 2.11446084 311.081225"></polygon>
            <polygon id="Fill-227" points="0.000562117408 397.296494 19.3655068 386.124726 0.000562117408 374.949588"></polygon>
            <polygon id="Fill-229" points="45.3673717 311.132674 25.9968059 299.957536 25.9968059 322.306689"></polygon>
            <polygon id="Fill-231" points="25.997368 382.297904 45.3679338 371.121643 25.997368 359.947628"></polygon>
            <polygon id="Fill-233" points="2.20889656 371.127933 21.5794624 382.304195 21.5794624 359.949425"></polygon>
            <polygon id="Fill-235" points="25.997368 352.305217 45.3679338 341.128956 25.997368 329.954941"></polygon>
            <polygon id="Fill-237" points="47.5762683 337.304493 47.5762683 314.954216 28.2045782 326.130478"></polygon>
            <polygon id="Fill-239" points="47.5762683 367.299314 47.5762683 344.950161 28.2079509 356.125299"></polygon>
            <polygon id="Fill-241" points="0.0466557448 435.01663 0.0466557448 457.365783 19.4149731 446.190644"></polygon>
            <polygon id="Fill-243" points="0.0466557448 405.019562 0.0466557448 427.364221 19.3801219 416.172233"></polygon>
            <polygon id="Fill-245" points="52.0408296 405.023943 52.0408296 427.370849 71.4080227 416.195711"></polygon>
            <polygon id="Fill-247" points="21.6255561 419.974229 2.24936902 431.189808 21.6255561 442.369439"></polygon>
            <polygon id="Fill-249" points="2.25555231 461.187325 21.6261182 472.363586 21.6261182 450.01331"></polygon>
            <polygon id="Fill-251" points="26.0434616 450.015107 26.0434616 472.369877 45.4162759 461.193616"></polygon>
            <polygon id="Fill-253" points="54.2487143 431.192391 73.6192802 442.366406 73.6192802 420.018376"></polygon>
            <polygon id="Fill-255" points="28.2589912 476.190184 47.6228116 487.359705 47.6228116 465.016169"></polygon>
            <polygon id="Fill-257" points="71.414206 446.190869 52.0413917 435.014608 52.0413917 457.369377"></polygon>
            <polygon id="Fill-259" points="26.0434616 390.029734 26.0434616 412.317102 45.3285856 401.153198"></polygon>
            <polygon id="Fill-261" points="47.6230364 427.370287 47.6230364 404.926773 28.2030043 416.167065"></polygon>
            <polygon id="Fill-263" points="47.6230364 457.369602 47.6230364 435.014832 28.2490979 446.191094"></polygon>
            <polygon id="Fill-265" points="26.0434616 420.018039 26.0434616 442.367192 45.4140275 431.192054"></polygon>
            <polygon id="Fill-267" points="21.6255561 412.37181 21.6255561 390.022657 2.25499019 401.197795"></polygon>
            <polygon id="Fill-269" points="71.2868302 386.128658 52.0410544 375.024291 52.0410544 397.267849"></polygon>
            <polygon id="Fill-271" points="73.6198423 412.373944 73.6198423 389.878755 54.1548407 401.147131"></polygon>
            <polygon id="Fill-273" points="52.0408296 487.360154 71.4057743 476.190633 52.0408296 465.015495"></polygon>
            <polygon id="Fill-275" points="47.6230364 375.024628 28.2479737 386.203136 47.6230364 397.379398"></polygon>
            <polygon id="Fill-277" points="97.4077516 401.197458 78.0371857 390.023443 78.0371857 412.371473"></polygon>
            <polygon id="Fill-279" points="78.0377479 472.363811 97.4083137 461.18755 78.0377479 450.013535"></polygon>
            <polygon id="Fill-281" points="54.2492764 461.19384 73.6198423 472.370102 73.6198423 450.015332"></polygon>
            <polygon id="Fill-283" points="78.0377479 442.371124 97.4083137 431.194863 78.0377479 420.020848"></polygon>
            <polygon id="Fill-285" points="99.6166482 427.370287 99.6166482 405.020011 80.2449581 416.196273"></polygon>
            <polygon id="Fill-287" points="99.6166482 457.365221 99.6166482 435.016068 80.2483308 446.191206"></polygon>
            <polygon id="Fill-289" points="52.0874853 524.97065 52.0874853 547.319803 71.4558027 536.146912"></polygon>
            <polygon id="Fill-291" points="52.0874853 494.975717 52.0874853 517.31813 71.4209514 506.128388"></polygon>
            <polygon id="Fill-293" points="104.082334 494.980098 104.082334 517.327004 123.449527 506.151866"></polygon>
            <polygon id="Fill-295" points="73.6670602 509.930384 54.2908731 521.145963 73.6670602 532.325594"></polygon>
            <polygon id="Fill-297" points="54.2964943 551.14348 73.6670602 562.317495 73.6670602 539.969465"></polygon>
            <polygon id="Fill-299" points="78.0844036 539.971375 78.0844036 562.326145 97.4572179 551.147636"></polygon>
            <polygon id="Fill-301" points="106.290106 521.148546 125.660672 532.322561 125.660672 509.972285"></polygon>
            <polygon id="Fill-303" points="80.3004953 566.144204 99.6643157 577.315973 99.6643157 554.972436"></polygon>
            <polygon id="Fill-305" points="123.455036 536.147137 104.082221 524.970875 104.082221 547.325645"></polygon>
            <polygon id="Fill-307" points="78.0844036 479.983754 78.0844036 502.271123 97.3695276 491.107218"></polygon>
            <polygon id="Fill-309" points="99.6644281 517.326555 99.6644281 494.881917 80.244396 506.121086"></polygon>
            <polygon id="Fill-311" points="99.6644281 547.325757 99.6644281 524.970987 80.2904896 536.147249"></polygon>
            <polygon id="Fill-313" points="78.0844036 509.97206 78.0844036 532.322337 97.4549695 521.148322"></polygon>
            <polygon id="Fill-315" points="73.6670602 502.327965 73.6670602 479.977688 54.2964943 491.15395"></polygon>
            <polygon id="Fill-317" points="123.32766 476.082679 104.081884 464.980559 104.081884 487.224116"></polygon>
            <polygon id="Fill-319" points="125.660672 502.330211 125.660672 479.835022 106.19567 491.101152"></polygon>
            <polygon id="Fill-321" points="104.082334 577.31631 123.447278 566.144541 104.082334 554.969403"></polygon>
            <polygon id="Fill-323" points="99.6644281 464.980783 80.2893653 476.157045 99.6644281 487.333306"></polygon>
            <polygon id="Fill-325" points="149.448581 491.153613 130.07914 479.977351 130.07914 502.325381"></polygon>
            <polygon id="Fill-327" points="130.078577 562.317719 149.449143 551.143705 130.078577 539.968566"></polygon>
            <polygon id="Fill-329" points="106.290106 551.147861 125.660672 562.324123 125.660672 539.9716"></polygon>
            <polygon id="Fill-331" points="130.078577 532.325033 149.449143 521.148771 130.078577 509.974756"></polygon>
            <polygon id="Fill-333" points="151.657478 517.324308 151.657478 494.975155 132.285788 506.150293"></polygon>
            <polygon id="Fill-335" points="151.657478 547.319242 151.657478 524.970089 132.28916 536.147474"></polygon>
            <polygon id="Fill-337" points="0.0472178622 494.980098 0.0472178622 517.327004 19.414411 506.151866"></polygon>
            <polygon id="Fill-339" points="2.25555231 521.148546 21.6261182 532.322561 21.6261182 509.972285"></polygon>
            <polygon id="Fill-341" points="19.4204819 536.147137 0.0476675561 524.970875 0.0476675561 547.325645"></polygon>
            <polygon id="Fill-343" points="19.2931061 476.082679 0.0473302857 464.980559 0.0473302857 487.224116"></polygon>
            <polygon id="Fill-345" points="21.6261182 502.330211 21.6261182 479.835022 2.16111658 491.101152"></polygon>
            <polygon id="Fill-347" points="0.0472178622 577.31631 19.4121625 566.144541 0.0472178622 554.969403"></polygon>
            <polygon id="Fill-349" points="45.4140275 491.153613 26.0434616 479.977351 26.0434616 502.325381"></polygon>
            <polygon id="Fill-351" points="26.0440237 562.317719 45.4145896 551.143705 26.0440237 539.968566"></polygon>
            <polygon id="Fill-353" points="2.25555231 551.147861 21.6261182 562.324123 21.6261182 539.9716"></polygon>
            <polygon id="Fill-355" points="26.0440237 532.325033 45.4145896 521.148771 26.0440237 509.974756"></polygon>
            <polygon id="Fill-357" points="47.6230364 517.324308 47.6230364 494.975155 28.2513464 506.150293"></polygon>
            <polygon id="Fill-359" points="47.6230364 547.319242 47.6230364 524.970089 28.2547191 536.147474"></polygon>
            <polygon id="Fill-361" points="0.0466557448 614.961854 0.0466557448 637.311007 19.4149731 626.135869"></polygon>
            <polygon id="Fill-363" points="0.0466557448 584.967033 0.0466557448 607.309446 19.3801219 596.119704"></polygon>
            <polygon id="Fill-365" points="52.0408296 584.971414 52.0408296 607.316074 71.4080227 596.143182"></polygon>
            <polygon id="Fill-367" points="21.6255561 599.9217 2.24936902 611.135032 21.6255561 622.31691"></polygon>
            <polygon id="Fill-369" points="2.25555231 641.132549 21.6261182 652.308811 21.6261182 629.960781"></polygon>
            <polygon id="Fill-371" points="26.0434616 629.962579 26.0434616 652.315102 45.4162759 641.13884"></polygon>
            <polygon id="Fill-373" points="54.2487143 611.139863 73.6192802 622.313877 73.6192802 599.963601"></polygon>
            <polygon id="Fill-375" points="28.2589912 656.135521 47.6228116 667.307289 47.6228116 644.963752"></polygon>
            <polygon id="Fill-377" points="71.414206 626.13834 52.0413917 614.962079 52.0413917 637.316849"></polygon>
            <polygon id="Fill-379" points="26.0434616 569.974958 26.0434616 592.262327 45.3285856 581.098422"></polygon>
            <polygon id="Fill-381" points="47.6230364 607.315624 47.6230364 584.872109 28.2030043 596.112402"></polygon>
            <polygon id="Fill-383" points="47.6230364 637.314939 47.6230364 614.962416 28.2490979 626.138677"></polygon>
            <polygon id="Fill-385" points="26.0434616 599.963376 26.0434616 622.313653 45.4140275 611.139638"></polygon>
            <polygon id="Fill-387" points="21.6255561 592.319281 21.6255561 569.969004 2.25499019 581.145266"></polygon>
            <polygon id="Fill-389" points="71.2868302 566.073995 52.0410544 554.971875 52.0410544 577.215432"></polygon>
            <polygon id="Fill-391" points="73.6198423 592.321415 73.6198423 569.826226 54.1548407 581.092356"></polygon>
            <polygon id="Fill-393" points="52.0408296 667.307626 71.4057743 656.135858 52.0408296 644.960719"></polygon>
            <polygon id="Fill-395" points="47.6230364 554.972099 28.2479737 566.148361 47.6230364 577.324622"></polygon>
            <polygon id="Fill-397" points="97.4077516 581.144929 78.0371857 569.968667 78.0371857 592.316697"></polygon>
            <polygon id="Fill-399" points="78.0377479 652.309036 97.4083137 641.132774 78.0377479 629.959883"></polygon>
            <polygon id="Fill-401" points="54.2492764 641.139177 73.6198423 652.315439 73.6198423 629.962916"></polygon>
            <polygon id="Fill-403" points="78.0377479 622.316349 97.4083137 611.140087 78.0377479 599.966072"></polygon>
            <polygon id="Fill-405" points="99.6166482 607.315624 99.6166482 584.965348 80.2449581 596.141609"></polygon>
            <polygon id="Fill-407" points="99.6166482 637.310558 99.6166482 614.961405 80.2483308 626.136543"></polygon>
            <polygon id="Fill-409" points="78.0844036 659.928979 78.0844036 682.216347 97.3695276 671.054689"></polygon>
            <polygon id="Fill-411" points="73.6670602 682.273189 73.6670602 659.924036 54.2964943 671.099174"></polygon>
            <polygon id="Fill-413" points="123.32766 656.03015 104.081884 644.925783 104.081884 667.169341"></polygon>
            <polygon id="Fill-415" points="125.660672 682.275436 125.660672 659.780247 106.19567 671.048623"></polygon>
            <polygon id="Fill-417" points="99.6644281 644.92612 80.2893653 656.102382 99.6644281 667.278643"></polygon>
            <polygon id="Fill-419" points="149.448581 671.09895 130.07914 659.924935 130.07914 682.272964"></polygon>
            <polygon id="Fill-421" points="19.2931061 656.03015 0.0473302857 644.925783 0.0473302857 667.169341"></polygon>
            <polygon id="Fill-423" points="21.6261182 682.275436 21.6261182 659.780247 2.16111658 671.048623"></polygon>
            <polygon id="Fill-425" points="45.4140275 671.09895 26.0434616 659.924935 26.0434616 682.272964"></polygon>
            <polygon id="Fill-427" points="156.033112 165.004937 156.033112 187.354089 175.401429 176.180075"></polygon>
            <polygon id="Fill-429" points="156.033112 135.00888 156.033112 157.352416 175.366578 146.161551"></polygon>
            <polygon id="Fill-431" points="208.027398 135.013822 208.027398 157.359605 227.394591 146.18559"></polygon>
            <polygon id="Fill-433" points="177.612125 149.963547 158.235938 161.179125 177.612125 172.358757"></polygon>
            <polygon id="Fill-435" points="158.242121 191.176081 177.612687 202.351219 177.612687 180.002066"></polygon>
            <polygon id="Fill-437" points="182.03003 180.004538 182.03003 202.359307 201.402845 191.183046"></polygon>
            <polygon id="Fill-439" points="210.235171 161.181709 229.605737 172.356847 229.605737 150.006571"></polygon>
            <polygon id="Fill-441" points="184.24556 206.179052 203.60938 217.349697 203.60938 195.005038"></polygon>
            <polygon id="Fill-443" points="227.400662 176.180861 208.027848 165.0046 208.027848 187.359369"></polygon>
            <polygon id="Fill-445" points="182.03003 120.018041 182.03003 142.305409 201.315154 131.142628"></polygon>
            <polygon id="Fill-447" points="203.609493 157.359156 203.609493 134.915641 184.189461 146.155934"></polygon>
            <polygon id="Fill-449" points="203.609493 187.358471 203.609493 165.004824 184.235554 176.179962"></polygon>
            <polygon id="Fill-451" points="182.03003 150.006346 182.03003 172.356623 201.400596 161.181485"></polygon>
            <polygon id="Fill-453" points="177.612125 142.361127 177.612125 120.011975 158.241559 131.187113"></polygon>
            <polygon id="Fill-455" points="227.273287 116.116965 208.027511 105.013721 208.027511 127.257279"></polygon>
            <polygon id="Fill-457" points="229.606299 142.363374 229.606299 119.868185 210.141297 131.135438"></polygon>
            <polygon id="Fill-459" points="208.027398 217.349023 227.392343 206.178378 208.027398 195.004363"></polygon>
            <polygon id="Fill-461" points="203.609493 105.013946 184.23443 116.191331 203.609493 127.367592"></polygon>
            <polygon id="Fill-463" points="253.394208 131.186888 234.023642 120.01175 234.023642 142.360903"></polygon>
            <polygon id="Fill-465" points="234.024204 202.351556 253.39477 191.176418 234.024204 180.002403"></polygon>
            <polygon id="Fill-467" points="210.235733 191.182709 229.606299 202.357847 229.606299 180.004201"></polygon>
            <polygon id="Fill-469" points="234.024204 172.359319 253.39477 161.183057 234.024204 150.009042"></polygon>
            <polygon id="Fill-471" points="255.603104 157.359156 255.603104 135.00888 236.231414 146.185141"></polygon>
            <polygon id="Fill-473" points="255.603104 187.354089 255.603104 165.004937 236.234787 176.180075"></polygon>
            <polygon id="Fill-475" points="156.033112 344.950723 156.033112 367.299876 175.401429 356.124737"></polygon>
            <polygon id="Fill-477" points="156.033112 314.955789 156.033112 337.298202 175.366578 326.10846"></polygon>
            <polygon id="Fill-479" points="208.027398 314.96017 208.027398 337.305953 227.394591 326.130815"></polygon>
            <polygon id="Fill-481" points="177.612125 329.910456 158.235938 341.124912 177.612125 352.305667"></polygon>
            <polygon id="Fill-483" points="158.242121 371.121418 177.612687 382.297679 177.612687 359.947403"></polygon>
            <polygon id="Fill-485" points="182.03003 359.949313 182.03003 382.304083 201.402845 371.127821"></polygon>
            <polygon id="Fill-487" points="210.235171 341.127608 229.605737 352.302746 229.605737 329.95247"></polygon>
            <polygon id="Fill-489" points="184.24556 386.124277 203.60938 397.296045 203.60938 374.950262"></polygon>
            <polygon id="Fill-491" points="227.400662 356.127209 208.027848 344.950947 208.027848 367.305717"></polygon>
            <polygon id="Fill-493" points="182.03003 299.963827 182.03003 322.251195 201.315154 311.087291"></polygon>
            <polygon id="Fill-495" points="203.609493 337.304493 203.609493 314.860978 184.189461 326.101271"></polygon>
            <polygon id="Fill-497" points="203.609493 367.303695 203.609493 344.951172 184.235554 356.125187"></polygon>
            <polygon id="Fill-499" points="182.03003 329.952133 182.03003 352.302409 201.400596 341.127271"></polygon>
            <polygon id="Fill-501" points="177.612125 322.307026 177.612125 299.95675 158.241559 311.134135"></polygon>
            <polygon id="Fill-503" points="227.273287 296.062863 208.027511 284.95962 208.027511 307.204301"></polygon>
            <polygon id="Fill-505" points="229.606299 322.30916 229.606299 299.815095 210.141297 311.081225"></polygon>
            <polygon id="Fill-507" points="208.027398 397.296494 227.392343 386.124726 208.027398 374.949588"></polygon>
            <polygon id="Fill-509" points="203.609493 284.960968 184.23443 296.137229 203.609493 307.313491"></polygon>
            <polygon id="Fill-511" points="253.394208 311.132674 234.023642 299.957536 234.023642 322.306689"></polygon>
            <polygon id="Fill-513" points="234.024204 382.297904 253.39477 371.121643 234.024204 359.947628"></polygon>
            <polygon id="Fill-515" points="210.235733 371.127933 229.606299 382.304195 229.606299 359.949425"></polygon>
            <polygon id="Fill-517" points="234.024204 352.305217 253.39477 341.128956 234.024204 329.954941"></polygon>
            <polygon id="Fill-519" points="255.603104 337.304493 255.603104 314.954216 236.231414 326.130478"></polygon>
            <polygon id="Fill-521" points="255.603104 367.299314 255.603104 344.950161 236.234787 356.125299"></polygon>
            <polygon id="Fill-523" points="208.073492 435.01663 208.073492 457.365783 227.441809 446.190644"></polygon>
            <polygon id="Fill-525" points="208.073492 405.019562 208.073492 427.364221 227.406958 416.172233"></polygon>
            <polygon id="Fill-527" points="260.067666 405.023943 260.067666 427.370849 279.434859 416.195711"></polygon>
            <polygon id="Fill-529" points="229.652392 419.974229 210.276205 431.189808 229.652392 442.369439"></polygon>
            <polygon id="Fill-531" points="210.282389 461.187325 229.652954 472.363586 229.652954 450.01331"></polygon>
            <polygon id="Fill-533" points="234.070298 450.015107 234.070298 472.369877 253.443112 461.193616"></polygon>
            <polygon id="Fill-535" points="262.275551 431.192391 281.646116 442.366406 281.646116 420.018376"></polygon>
            <polygon id="Fill-537" points="236.285827 476.190184 255.649648 487.359705 255.649648 465.016169"></polygon>
            <polygon id="Fill-539" points="279.44093 446.190869 260.068115 435.014608 260.068115 457.369377"></polygon>
            <polygon id="Fill-541" points="234.070298 390.029734 234.070298 412.317102 253.355422 401.153198"></polygon>
            <polygon id="Fill-543" points="255.650322 427.370287 255.650322 404.926773 236.23029 416.167065"></polygon>
            <polygon id="Fill-545" points="255.650322 457.369602 255.650322 435.014832 236.276384 446.191094"></polygon>
            <polygon id="Fill-547" points="234.070298 420.018039 234.070298 442.367192 253.440864 431.192054"></polygon>
            <polygon id="Fill-549" points="229.652392 412.37181 229.652392 390.022657 210.281826 401.197795"></polygon>
            <polygon id="Fill-551" points="279.313666 386.128658 260.067891 375.024291 260.067891 397.267849"></polygon>
            <polygon id="Fill-553" points="281.646566 412.373944 281.646566 389.878755 262.181564 401.147131"></polygon>
            <polygon id="Fill-555" points="260.067666 487.360154 279.43261 476.190633 260.067666 465.015495"></polygon>
            <polygon id="Fill-557" points="255.650322 375.024628 236.27526 386.203136 255.650322 397.379398"></polygon>
            <polygon id="Fill-559" points="305.434475 401.197458 286.06391 390.023443 286.06391 412.371473"></polygon>
            <polygon id="Fill-561" points="286.064472 472.363811 305.435037 461.18755 286.064472 450.013535"></polygon>
            <polygon id="Fill-563" points="262.276113 461.19384 281.646679 472.370102 281.646679 450.015332"></polygon>
            <polygon id="Fill-565" points="286.064472 442.371124 305.435037 431.194863 286.064472 420.020848"></polygon>
            <polygon id="Fill-567" points="307.643484 427.370287 307.643484 405.020011 288.271794 416.196273"></polygon>
            <polygon id="Fill-569" points="307.643484 457.365221 307.643484 435.016068 288.275167 446.191206"></polygon>
            <polygon id="Fill-571" points="182.076686 659.928979 182.076686 682.216347 201.36181 671.054689"></polygon>
            <polygon id="Fill-573" points="177.659343 682.273189 177.659343 659.924036 158.288777 671.099174"></polygon>
            <polygon id="Fill-575" points="227.320504 656.03015 208.074729 644.925783 208.074729 667.169341"></polygon>
            <polygon id="Fill-577" points="229.653516 682.275436 229.653516 659.780247 210.188515 671.048623"></polygon>
            <polygon id="Fill-579" points="203.656711 644.92612 184.281648 656.102382 203.656711 667.278643"></polygon>
            <polygon id="Fill-581" points="253.441426 671.09895 234.07086 659.924935 234.07086 682.272964"></polygon>
            <polygon id="Fill-583" points="104.105381 254.978054 104.105381 277.328331 123.473698 266.153192"></polygon>
            <polygon id="Fill-585" points="104.105381 224.98211 104.105381 247.326769 123.438847 236.134781"></polygon>
            <polygon id="Fill-587" points="156.099554 224.986491 156.099554 247.333397 175.466747 236.158259"></polygon>
            <polygon id="Fill-589" points="125.684281 239.936777 106.308094 251.152356 125.684281 262.331987"></polygon>
            <polygon id="Fill-591" points="106.314277 281.149873 125.684843 292.323888 125.684843 269.975858"></polygon>
            <polygon id="Fill-593" points="130.102186 269.977768 130.102186 292.332537 149.475001 281.154029"></polygon>
            <polygon id="Fill-595" points="158.307439 251.154939 177.678005 262.328954 177.678005 239.979801"></polygon>
            <polygon id="Fill-597" points="132.317716 296.150597 151.681536 307.322365 151.681536 284.978829"></polygon>
            <polygon id="Fill-599" points="175.472818 266.153529 156.100004 254.977268 156.100004 277.332038"></polygon>
            <polygon id="Fill-601" points="130.102186 209.990147 130.102186 232.277516 149.38731 221.115858"></polygon>
            <polygon id="Fill-603" points="151.681649 247.332948 151.681649 224.889433 132.261617 236.129726"></polygon>
            <polygon id="Fill-605" points="151.681649 277.33215 151.681649 254.97738 132.30771 266.153642"></polygon>
            <polygon id="Fill-607" points="130.102186 239.979576 130.102186 262.329853 149.472752 251.154715"></polygon>
            <polygon id="Fill-609" points="125.684281 232.334358 125.684281 209.985205 106.313715 221.160343"></polygon>
            <polygon id="Fill-611" points="175.345443 206.090195 156.099667 194.986951 156.099667 217.230509"></polygon>
            <polygon id="Fill-613" points="177.678455 232.336604 177.678455 209.841415 158.213453 221.108668"></polygon>
            <polygon id="Fill-615" points="156.099554 307.322702 175.464499 296.150934 156.099554 284.975796"></polygon>
            <polygon id="Fill-617" points="151.681649 194.987176 132.306586 206.164561 151.681649 217.339699"></polygon>
            <polygon id="Fill-619" points="201.466364 221.160006 182.095798 209.984868 182.095798 232.334021"></polygon>
            <polygon id="Fill-621" points="182.09636 292.324112 201.466926 281.150098 182.09636 269.974959"></polygon>
            <polygon id="Fill-623" points="158.308001 281.154254 177.678567 292.330515 177.678567 269.977992"></polygon>
            <polygon id="Fill-625" points="182.09636 262.332549 201.466926 251.156287 182.09636 239.982273"></polygon>
            <polygon id="Fill-627" points="203.675373 247.332948 203.675373 224.982671 184.303683 236.158933"></polygon>
            <polygon id="Fill-629" points="203.675373 277.327769 203.675373 254.977493 184.307056 266.153754"></polygon>
            <polygon id="Fill-631" points="104.105381 75.097535 104.105381 97.446688 123.473698 86.2726732"></polygon>
            <polygon id="Fill-633" points="104.105381 45.1014781 104.105381 67.4450143 123.438847 56.2552725"></polygon>
            <polygon id="Fill-635" points="156.099554 45.1064209 156.099554 67.4522038 175.466747 56.278189"></polygon>
            <polygon id="Fill-637" points="125.684281 60.0561451 106.308094 71.271724 125.684281 82.4513556"></polygon>
            <polygon id="Fill-639" points="106.314277 101.269241 125.684843 112.444379 125.684843 90.0952265"></polygon>
            <polygon id="Fill-641" points="130.102186 90.0971362 130.102186 112.451906 149.475001 101.274521"></polygon>
            <polygon id="Fill-643" points="158.307439 71.2744201 177.678005 82.4495582 177.678005 60.0992819"></polygon>
            <polygon id="Fill-645" points="132.317716 116.270527 151.681536 127.442296 151.681536 105.097636"></polygon>
            <polygon id="Fill-647" points="175.472818 86.2734595 156.100004 75.097198 156.100004 97.4519678"></polygon>
            <polygon id="Fill-649" points="130.102186 30.1100775 130.102186 52.3974459 149.38731 41.2346646"></polygon>
            <polygon id="Fill-651" points="151.681649 67.4517544 151.681649 45.0082396 132.261617 56.2485324"></polygon>
            <polygon id="Fill-653" points="151.681649 97.4510691 151.681649 75.0962993 132.30771 86.2725609"></polygon>
            <polygon id="Fill-655" points="130.102186 60.0989449 130.102186 82.4492212 149.472752 71.2740831"></polygon>
            <polygon id="Fill-657" points="125.684281 52.4538383 125.684281 30.1046854 106.313715 41.2798235"></polygon>
            <polygon id="Fill-659" points="175.345443 26.2096757 156.099667 15.1064322 156.099667 37.3499898"></polygon>
            <polygon id="Fill-661" points="177.678455 52.4559727 177.678455 29.9607836 158.213453 41.2280368"></polygon>
            <polygon id="Fill-663" points="156.099554 127.442183 175.464499 116.270415 156.099554 105.0964"></polygon>
            <polygon id="Fill-665" points="151.681649 15.1066569 132.306586 26.2840418 151.681649 37.4603033"></polygon>
            <polygon id="Fill-667" points="201.466364 41.2794865 182.095798 30.1043484 182.095798 52.4535013"></polygon>
            <polygon id="Fill-669" points="182.09636 112.444155 201.466926 101.269017 182.09636 90.0950018"></polygon>
            <polygon id="Fill-671" points="158.308001 101.274184 177.678567 112.450446 177.678567 90.0967992"></polygon>
            <polygon id="Fill-673" points="182.09636 82.4514679 201.466926 71.2752064 182.09636 60.1011916"></polygon>
            <polygon id="Fill-675" points="203.675373 67.4517544 203.675373 45.1014781 184.303683 56.2777396"></polygon>
            <polygon id="Fill-677" points="203.675373 97.446688 203.675373 75.097535 184.307056 86.2726732"></polygon>
            <polygon id="Fill-679" points="54.1679943 11.1951339 73.5385601 22.370272 73.5385601 0.0211190789"></polygon>
            <polygon id="Fill-681" points="77.9559036 0.0235904605 77.9559036 22.3783602 97.3287179 11.2009753"></polygon>
            <polygon id="Fill-683" points="80.1714331 26.1969817 99.5352536 37.3687498 99.5352536 15.0240903"></polygon>
            <polygon id="Fill-685" points="103.953272 37.3686375 123.318216 26.1968694 103.953272 15.0228546"></polygon>
            <polygon id="Fill-687" points="129.950077 22.370609 149.320643 11.1954709 129.950077 0.0214560855"></polygon>
            <polygon id="Fill-689" points="106.161718 11.2006383 125.532284 22.3768998 125.532284 0.0232534539"></polygon>
            <polygon id="Fill-691" points="158.308563 11.1951339 177.679129 22.370272 177.679129 0.0211190789"></polygon>
            <polygon id="Fill-693" points="182.09636 0.0230287829 182.09636 22.3789219 201.469175 11.2004137"></polygon>
            <polygon id="Fill-695" points="184.31189 26.1969817 203.67571 37.3687498 203.67571 15.0240903"></polygon>
            <polygon id="Fill-697" points="208.093728 37.3680758 227.458673 26.1963077 208.093728 15.0234163"></polygon>
            <polygon id="Fill-699" points="234.090646 22.3700474 253.461212 11.1949092 234.090646 0.0208944079"></polygon>
            <polygon id="Fill-701" points="210.302175 11.2006383 229.672741 22.3768998 229.672741 0.0232534539"></polygon>
            <polygon id="Fill-703" points="0.000562117408 37.3686375 19.3655068 26.1968694 0.000562117408 15.0228546"></polygon>
            <polygon id="Fill-705" points="25.997368 22.370609 45.3679338 11.1954709 25.997368 0.0214560855"></polygon>
            <polygon id="Fill-707" points="2.20889656 11.2006383 21.5794624 22.3768998 21.5794624 0.0232534539"></polygon>
            <polygon id="Fill-709" points="104.105381 434.911259 104.105381 457.260412 123.473698 446.085274"></polygon>
            <polygon id="Fill-711" points="104.105381 404.914191 104.105381 427.25885 123.438847 416.069109"></polygon>
            <polygon id="Fill-713" points="156.099554 404.920819 156.099554 427.265478 175.466747 416.09034"></polygon>
            <polygon id="Fill-715" points="125.684281 419.868858 106.308094 431.084437 125.684281 442.265192"></polygon>
            <polygon id="Fill-717" points="106.314277 461.081954 125.684843 472.258216 125.684843 449.907939"></polygon>
            <polygon id="Fill-719" points="130.102186 449.909849 130.102186 472.264619 149.475001 461.088357"></polygon>
            <polygon id="Fill-721" points="158.307439 431.087021 177.678005 442.263282 177.678005 419.913006"></polygon>
            <polygon id="Fill-723" points="132.317716 476.084925 151.681536 487.256693 151.681536 464.910911"></polygon>
            <polygon id="Fill-725" points="175.472818 446.087745 156.100004 434.911484 156.100004 457.266253"></polygon>
            <polygon id="Fill-727" points="130.102186 389.924475 130.102186 412.211844 149.38731 401.047939"></polygon>
            <polygon id="Fill-729" points="151.681649 427.265029 151.681649 404.821514 132.261617 416.061807"></polygon>
            <polygon id="Fill-731" points="151.681649 457.264344 151.681649 434.909574 132.30771 446.085835"></polygon>
            <polygon id="Fill-733" points="130.102186 419.912781 130.102186 442.263057 149.472752 431.086796"></polygon>
            <polygon id="Fill-735" points="125.684281 412.266439 125.684281 389.917286 106.313715 401.094671"></polygon>
            <polygon id="Fill-737" points="175.345443 386.0234 156.099667 374.919033 156.099667 397.16259"></polygon>
            <polygon id="Fill-739" points="177.678455 412.268686 177.678455 389.775743 158.213453 401.041873"></polygon>
            <polygon id="Fill-741" points="156.099554 487.25703 175.464499 476.085262 156.099554 464.910124"></polygon>
            <polygon id="Fill-743" points="151.681649 374.919257 132.306586 386.097766 151.681649 397.274027"></polygon>
            <polygon id="Fill-745" points="201.466364 401.092199 182.095798 389.918185 182.095798 412.266214"></polygon>
            <polygon id="Fill-747" points="182.09636 472.25844 201.466926 461.082179 182.09636 449.908164"></polygon>
            <polygon id="Fill-749" points="158.308001 461.088582 177.678567 472.264843 177.678567 449.910074"></polygon>
            <polygon id="Fill-751" points="182.09636 442.265753 201.466926 431.089492 182.09636 419.915477"></polygon>
            <polygon id="Fill-753" points="203.675373 427.265029 203.675373 404.914753 184.303683 416.091014"></polygon>
            <polygon id="Fill-755" points="203.675373 457.259962 203.675373 434.91081 184.307056 446.085948"></polygon>
            <polygon id="Fill-757" points="104.082334 614.979378 104.082334 637.328531 123.450651 626.153393"></polygon>
            <polygon id="Fill-759" points="104.082334 584.982311 104.082334 607.32697 123.4158 596.137228"></polygon>
            <polygon id="Fill-761" points="156.076508 584.988938 156.076508 607.333598 175.443701 596.15846"></polygon>
            <polygon id="Fill-763" points="125.660672 599.936977 106.284485 611.152556 125.660672 622.333311"></polygon>
            <polygon id="Fill-765" points="106.290668 641.150074 125.661234 652.326335 125.661234 629.976059"></polygon>
            <polygon id="Fill-767" points="130.078577 629.977969 130.078577 652.332738 149.451392 641.156477"></polygon>
            <polygon id="Fill-769" points="158.284392 611.155252 177.654958 622.331514 177.654958 599.981238"></polygon>
            <polygon id="Fill-771" points="132.294669 656.153045 151.65849 667.324813 151.65849 644.97903"></polygon>
            <polygon id="Fill-773" points="175.449772 626.155977 156.076957 614.979715 156.076957 637.334485"></polygon>
            <polygon id="Fill-775" points="130.078577 569.992595 130.078577 592.279963 149.363701 581.116059"></polygon>
            <polygon id="Fill-777" points="151.658602 607.333149 151.658602 584.889634 132.23857 596.129926"></polygon>
            <polygon id="Fill-779" points="151.658602 637.332463 151.658602 614.97994 132.284663 626.153955"></polygon>
            <polygon id="Fill-781" points="130.078577 599.980901 130.078577 622.331177 149.449143 611.154915"></polygon>
            <polygon id="Fill-783" points="125.660672 592.334558 125.660672 569.985405 106.290106 581.16279"></polygon>
            <polygon id="Fill-785" points="175.321946 566.091519 156.07617 554.987152 156.07617 577.23071"></polygon>
            <polygon id="Fill-787" points="177.655408 592.336805 177.655408 569.843863 158.190406 581.109993"></polygon>
            <polygon id="Fill-789" points="156.076508 667.323016 175.441452 656.153494 156.076508 644.978356"></polygon>
            <polygon id="Fill-791" points="151.658602 554.987489 132.283539 566.165998 151.658602 577.342259"></polygon>
            <polygon id="Fill-793" points="201.443317 581.160319 182.072751 569.986304 182.072751 592.334334"></polygon>
            <polygon id="Fill-795" points="182.072751 652.32656 201.443317 641.150298 182.072751 629.976284"></polygon>
            <polygon id="Fill-797" points="158.284392 641.156701 177.654958 652.332963 177.654958 629.978193"></polygon>
            <polygon id="Fill-799" points="182.072751 622.333873 201.443317 611.157612 182.072751 599.983597"></polygon>
            <polygon id="Fill-801" points="203.651764 607.333149 203.651764 584.982872 184.280074 596.159134"></polygon>
            <polygon id="Fill-803" points="203.651764 637.328082 203.651764 614.978929 184.283447 626.154067"></polygon>
        </g>
    </g>
</svg>