<?xml version="1.0" encoding="UTF-8" standalone="no"?>
<svg width="320px" height="581px" viewBox="0 0 320 581" version="1.1" xmlns="http://www.w3.org/2000/svg" xmlns:xlink="http://www.w3.org/1999/xlink">
    <!-- Generator: Sketch 39.1 (31720) - http://www.bohemiancoding.com/sketch -->
    <title>Group 2</title>
    <desc>Created with Sketch.</desc>
    <defs></defs>
    <g id="Page-1" stroke="none" stroke-width="1" fill="none" fill-rule="evenodd" opacity="0.5">
        <g id="Group-2" transform="translate(0.000000, -1.000000)" fill="#FD9053">
            <g id="Group-1327" transform="translate(46.000000, 80.228000)">
                <polygon id="Fill-1279" points="0.2479 54.3552 0.2479 74.2502 17.4759 64.3032"></polygon>
                <polygon id="Fill-1281" points="0.2479 27.6531 0.2479 47.5431 17.4449 37.5811"></polygon>
                <polygon id="Fill-1283" points="46.4965 27.6573 46.4965 47.5493 63.7235 37.6023"></polygon>
                <polygon id="Fill-1285" points="19.4423 40.9656 2.2073 50.9496 19.4423 60.9016"></polygon>
                <polygon id="Fill-1287" points="2.2127 77.6528 19.4427 87.6008 19.4427 67.7058"></polygon>
                <polygon id="Fill-1289" points="23.3719 67.7076 23.3719 87.6086 40.6039 77.6576"></polygon>
                <polygon id="Fill-1291" points="48.4604 50.9517 65.6904 60.8997 65.6904 41.0037"></polygon>
                <polygon id="Fill-1293" points="25.3427 91.0072 42.5667 100.9522 42.5667 81.0612"></polygon>
                <polygon id="Fill-1295" points="63.7289 64.3038 46.4969 54.3548 46.4969 74.2548"></polygon>
                <polygon id="Fill-1297" points="23.3719 14.308 23.3719 34.148 40.5259 24.211"></polygon>
                <polygon id="Fill-1299" points="42.5669 47.5491 42.5669 27.5701 25.2929 37.5761"></polygon>
                <polygon id="Fill-1301" points="42.5669 74.2544 42.5669 54.3544 25.3339 64.3034"></polygon>
                <polygon id="Fill-1303" points="23.3719 41.0037 23.3719 60.8997 40.6019 50.9517"></polygon>
                <polygon id="Fill-1305" points="19.4423 34.1979 19.4423 14.3029 2.2123 24.2509"></polygon>
                <polygon id="Fill-1307" points="63.6156 10.8357 46.4966 0.9517 46.4966 20.7527"></polygon>
                <polygon id="Fill-1309" points="65.6909 34.1998 65.6909 14.1748 48.3769 24.2048"></polygon>
                <polygon id="Fill-1311" points="46.4965 100.952 63.7215 91.007 46.4965 81.061"></polygon>
                <polygon id="Fill-1313" points="42.5669 0.952 25.3329 10.902 42.5669 20.851"></polygon>
                <polygon id="Fill-1315" points="86.85 24.2505 69.62 14.3025 69.62 34.1975"></polygon>
                <polygon id="Fill-1317" points="69.6204 87.6008 86.8504 77.6528 69.6204 67.7058"></polygon>
                <polygon id="Fill-1319" points="48.4608 77.6576 65.6908 87.6066 65.6908 67.7076"></polygon>
                <polygon id="Fill-1321" points="69.6204 60.9019 86.8504 50.9529 69.6204 41.0059"></polygon>
                <polygon id="Fill-1323" points="88.8148 47.5488 88.8148 27.6528 71.5838 37.6018"></polygon>
                <polygon id="Fill-1325" points="88.8148 74.2502 88.8148 54.3552 71.5868 64.3032"></polygon>
            </g>
            <g id="Group-1376" transform="translate(92.000000, 161.228000)">
                <polygon id="Fill-1328" points="0.5381 53.4322 0.5381 73.3272 17.7661 63.3802"></polygon>
                <polygon id="Fill-1330" points="0.5381 26.7301 0.5381 46.6201 17.7351 36.6591"></polygon>
                <polygon id="Fill-1332" points="46.7867 26.7343 46.7867 46.6263 64.0137 36.6793"></polygon>
                <polygon id="Fill-1334" points="19.7325 40.0426 2.4975 50.0266 19.7325 59.9786"></polygon>
                <polygon id="Fill-1336" points="2.5029 76.7298 19.7329 86.6778 19.7329 66.7828"></polygon>
                <polygon id="Fill-1338" points="23.6621 66.7847 23.6621 86.6847 40.8941 76.7347"></polygon>
                <polygon id="Fill-1340" points="48.7507 50.0287 65.9807 59.9767 65.9807 40.0807"></polygon>
                <polygon id="Fill-1342" points="25.6329 90.0842 42.8569 100.0292 42.8569 80.1382"></polygon>
                <polygon id="Fill-1344" points="64.0192 63.3809 46.7872 53.4319 46.7872 73.3319"></polygon>
                <polygon id="Fill-1346" points="23.6621 13.385 23.6621 33.225 40.8161 23.288"></polygon>
                <polygon id="Fill-1348" points="42.8571 46.6261 42.8571 26.6471 25.5831 36.6531"></polygon>
                <polygon id="Fill-1350" points="42.8571 73.3314 42.8571 53.4314 25.6241 63.3804"></polygon>
                <polygon id="Fill-1352" points="23.6621 40.0807 23.6621 59.9767 40.8921 50.0287"></polygon>
                <polygon id="Fill-1354" points="19.7325 33.2749 19.7325 13.3799 2.5025 23.3279"></polygon>
                <polygon id="Fill-1356" points="63.9058 9.9127 46.7868 0.0287 46.7868 19.8297"></polygon>
                <polygon id="Fill-1358" points="65.9811 33.2769 65.9811 13.2519 48.6671 23.2819"></polygon>
                <polygon id="Fill-1360" points="46.7867 100.029 64.0117 90.084 46.7867 80.137"></polygon>
                <polygon id="Fill-1362" points="42.8571 0.029 25.6231 9.979 42.8571 19.928"></polygon>
                <polygon id="Fill-1364" points="87.1402 23.3276 69.9102 13.3796 69.9102 33.2746"></polygon>
                <polygon id="Fill-1366" points="69.9106 86.6778 87.1406 76.7298 69.9106 66.7828"></polygon>
                <polygon id="Fill-1368" points="48.751 76.7346 65.981 86.6836 65.981 66.7846"></polygon>
                <polygon id="Fill-1370" points="69.9106 59.9789 87.1406 50.0299 69.9106 40.0829"></polygon>
                <polygon id="Fill-1372" points="89.105 46.6258 89.105 26.7298 71.874 36.6788"></polygon>
                <polygon id="Fill-1374" points="89.105 73.3272 89.105 53.4322 71.877 63.3802"></polygon>
            </g>
            <g id="Group-1425" transform="translate(0.000000, 161.228000)">
                <polygon id="Fill-1377" points="0 53.4322 0 73.3272 17.228 63.3802"></polygon>
                <polygon id="Fill-1379" points="0 26.7301 0 46.6201 17.197 36.6591"></polygon>
                <polygon id="Fill-1381" points="46.2486 26.7343 46.2486 46.6263 63.4756 36.6793"></polygon>
                <polygon id="Fill-1383" points="19.1944 40.0426 1.9594 50.0266 19.1944 59.9786"></polygon>
                <polygon id="Fill-1385" points="1.9648 76.7298 19.1948 86.6778 19.1948 66.7828"></polygon>
                <polygon id="Fill-1387" points="23.124 66.7847 23.124 86.6847 40.356 76.7347"></polygon>
                <polygon id="Fill-1389" points="48.2125 50.0287 65.4425 59.9767 65.4425 40.0807"></polygon>
                <polygon id="Fill-1391" points="25.0948 90.0842 42.3188 100.0292 42.3188 80.1382"></polygon>
                <polygon id="Fill-1393" points="63.481 63.3809 46.249 53.4319 46.249 73.3319"></polygon>
                <polygon id="Fill-1395" points="23.124 13.385 23.124 33.225 40.278 23.288"></polygon>
                <polygon id="Fill-1397" points="42.319 46.6261 42.319 26.6471 25.045 36.6531"></polygon>
                <polygon id="Fill-1399" points="42.319 73.3314 42.319 53.4314 25.086 63.3804"></polygon>
                <polygon id="Fill-1401" points="23.124 40.0807 23.124 59.9767 40.354 50.0287"></polygon>
                <polygon id="Fill-1403" points="19.1944 33.2749 19.1944 13.3799 1.9644 23.3279"></polygon>
                <polygon id="Fill-1405" points="63.3677 9.9127 46.2487 0.0287 46.2487 19.8297"></polygon>
                <polygon id="Fill-1407" points="65.4429 33.2769 65.4429 13.2519 48.1289 23.2819"></polygon>
                <polygon id="Fill-1409" points="46.2486 100.029 63.4736 90.084 46.2486 80.137"></polygon>
                <polygon id="Fill-1411" points="42.319 0.029 25.085 9.979 42.319 19.928"></polygon>
                <polygon id="Fill-1413" points="86.6021 23.3276 69.3721 13.3796 69.3721 33.2746"></polygon>
                <polygon id="Fill-1415" points="69.3725 86.6778 86.6025 76.7298 69.3725 66.7828"></polygon>
                <polygon id="Fill-1417" points="48.2129 76.7346 65.4429 86.6836 65.4429 66.7846"></polygon>
                <polygon id="Fill-1419" points="69.3725 59.9789 86.6025 50.0299 69.3725 40.0829"></polygon>
                <polygon id="Fill-1421" points="88.5669 46.6258 88.5669 26.7298 71.3359 36.6788"></polygon>
                <polygon id="Fill-1423" points="88.5669 73.3272 88.5669 53.4322 71.3389 63.3802"></polygon>
            </g>
            <g id="Group-1474" transform="translate(46.000000, 241.228000)">
                <polygon id="Fill-1426" points="0.2479 53.5413 0.2479 73.4363 17.4759 63.4893"></polygon>
                <polygon id="Fill-1428" points="0.2479 26.8392 0.2479 46.7292 17.4449 36.7672"></polygon>
                <polygon id="Fill-1430" points="46.4965 26.8434 46.4965 46.7354 63.7235 36.7884"></polygon>
                <polygon id="Fill-1432" points="19.4423 40.1517 2.2073 50.1357 19.4423 60.0877"></polygon>
                <polygon id="Fill-1434" points="2.2127 76.8389 19.4427 86.7869 19.4427 66.8919"></polygon>
                <polygon id="Fill-1436" points="23.3719 66.8938 23.3719 86.7938 40.6039 76.8438"></polygon>
                <polygon id="Fill-1438" points="48.4604 50.1378 65.6904 60.0858 65.6904 40.1898"></polygon>
                <polygon id="Fill-1440" points="25.3427 90.1933 42.5667 100.1383 42.5667 80.2473"></polygon>
                <polygon id="Fill-1442" points="63.7289 63.49 46.4969 53.541 46.4969 73.441"></polygon>
                <polygon id="Fill-1444" points="23.3719 13.4941 23.3719 33.3341 40.5259 23.3971"></polygon>
                <polygon id="Fill-1446" points="42.5669 46.7352 42.5669 26.7562 25.2929 36.7622"></polygon>
                <polygon id="Fill-1448" points="42.5669 73.4405 42.5669 53.5405 25.3339 63.4895"></polygon>
                <polygon id="Fill-1450" points="23.3719 40.1898 23.3719 60.0858 40.6019 50.1378"></polygon>
                <polygon id="Fill-1452" points="19.4423 33.384 19.4423 13.489 2.2123 23.437"></polygon>
                <polygon id="Fill-1454" points="63.6156 10.0218 46.4966 0.1378 46.4966 19.9388"></polygon>
                <polygon id="Fill-1456" points="65.6909 33.386 65.6909 13.361 48.3769 23.391"></polygon>
                <polygon id="Fill-1458" points="46.4965 100.1381 63.7215 90.1931 46.4965 80.2461"></polygon>
                <polygon id="Fill-1460" points="42.5669 0.1381 25.3329 10.0881 42.5669 20.0371"></polygon>
                <polygon id="Fill-1462" points="86.85 23.4367 69.62 13.4887 69.62 33.3837"></polygon>
                <polygon id="Fill-1464" points="69.6204 86.7869 86.8504 76.8389 69.6204 66.8919"></polygon>
                <polygon id="Fill-1466" points="48.4608 76.8437 65.6908 86.7927 65.6908 66.8937"></polygon>
                <polygon id="Fill-1468" points="69.6204 60.088 86.8504 50.139 69.6204 40.192"></polygon>
                <polygon id="Fill-1470" points="88.8148 46.7349 88.8148 26.8389 71.5838 36.7879"></polygon>
                <polygon id="Fill-1472" points="88.8148 73.4363 88.8148 53.5413 71.5868 63.4893"></polygon>
            </g>
            <g id="Group-1572" transform="translate(0.000000, 321.228000)">
                <polygon id="Fill-1524" points="0 53.6183 0 73.5133 17.228 63.5663"></polygon>
                <polygon id="Fill-1526" points="0 26.9162 0 46.8062 17.197 36.8442"></polygon>
                <polygon id="Fill-1528" points="46.2486 26.9204 46.2486 46.8124 63.4756 36.8654"></polygon>
                <polygon id="Fill-1530" points="19.1944 40.2287 1.9594 50.2127 19.1944 60.1647"></polygon>
                <polygon id="Fill-1532" points="1.9648 76.9159 19.1948 86.8639 19.1948 66.9689"></polygon>
                <polygon id="Fill-1534" points="23.124 66.9708 23.124 86.8708 40.356 76.9208"></polygon>
                <polygon id="Fill-1536" points="48.2125 50.2148 65.4425 60.1628 65.4425 40.2668"></polygon>
                <polygon id="Fill-1538" points="25.0948 90.2703 42.3188 100.2153 42.3188 80.3243"></polygon>
                <polygon id="Fill-1540" points="63.481 63.567 46.249 53.618 46.249 73.518"></polygon>
                <polygon id="Fill-1542" points="23.124 13.5711 23.124 33.4111 40.278 23.4741"></polygon>
                <polygon id="Fill-1544" points="42.319 46.8122 42.319 26.8332 25.045 36.8392"></polygon>
                <polygon id="Fill-1546" points="42.319 73.5175 42.319 53.6175 25.086 63.5665"></polygon>
                <polygon id="Fill-1548" points="23.124 40.2668 23.124 60.1628 40.354 50.2148"></polygon>
                <polygon id="Fill-1550" points="19.1944 33.461 19.1944 13.566 1.9644 23.514"></polygon>
                <polygon id="Fill-1552" points="63.3677 10.0988 46.2487 0.2148 46.2487 20.0158"></polygon>
                <polygon id="Fill-1554" points="65.4429 33.463 65.4429 13.438 48.1289 23.468"></polygon>
                <polygon id="Fill-1556" points="46.2486 100.2151 63.4736 90.2701 46.2486 80.3231"></polygon>
                <polygon id="Fill-1558" points="42.319 0.2151 25.085 10.1651 42.319 20.1141"></polygon>
                <polygon id="Fill-1560" points="86.6021 23.5137 69.3721 13.5657 69.3721 33.4607"></polygon>
                <polygon id="Fill-1562" points="69.3725 86.8639 86.6025 76.9159 69.3725 66.9689"></polygon>
                <polygon id="Fill-1564" points="48.2129 76.9207 65.4429 86.8697 65.4429 66.9707"></polygon>
                <polygon id="Fill-1566" points="69.3725 60.165 86.6025 50.216 69.3725 40.269"></polygon>
                <polygon id="Fill-1568" points="88.5669 46.8119 88.5669 26.9159 71.3359 36.8649"></polygon>
                <polygon id="Fill-1570" points="88.5669 73.5134 88.5669 53.6184 71.3389 63.5664"></polygon>
            </g>
            <g id="Group-1621" transform="translate(46.000000, 401.228000)">
                <polygon id="Fill-1573" points="0.2896 53.7935 0.2896 73.6885 17.5176 63.7415"></polygon>
                <polygon id="Fill-1575" points="0.2896 27.0914 0.2896 46.9814 17.4866 37.0194"></polygon>
                <polygon id="Fill-1577" points="46.5381 27.0956 46.5381 46.9876 63.7651 37.0406"></polygon>
                <polygon id="Fill-1579" points="19.484 40.4039 2.249 50.3879 19.484 60.3399"></polygon>
                <polygon id="Fill-1581" points="2.2544 77.0911 19.4844 87.0391 19.4844 67.1441"></polygon>
                <polygon id="Fill-1583" points="23.4135 67.146 23.4135 87.046 40.6455 77.096"></polygon>
                <polygon id="Fill-1585" points="48.5021 50.39 65.7321 60.338 65.7321 40.442"></polygon>
                <polygon id="Fill-1587" points="25.3844 90.4455 42.6084 100.3905 42.6084 80.4995"></polygon>
                <polygon id="Fill-1589" points="63.7706 63.7421 46.5386 53.7931 46.5386 73.6931"></polygon>
                <polygon id="Fill-1591" points="23.4135 13.7463 23.4135 33.5863 40.5675 23.6493"></polygon>
                <polygon id="Fill-1593" points="42.6086 46.9874 42.6086 27.0084 25.3346 37.0144"></polygon>
                <polygon id="Fill-1595" points="42.6086 73.6927 42.6086 53.7927 25.3756 63.7417"></polygon>
                <polygon id="Fill-1597" points="23.4135 40.442 23.4135 60.338 40.6435 50.39"></polygon>
                <polygon id="Fill-1599" points="19.484 33.6362 19.484 13.7412 2.254 23.6892"></polygon>
                <polygon id="Fill-1601" points="63.6573 10.274 46.5383 0.39 46.5383 20.191"></polygon>
                <polygon id="Fill-1603" points="65.7325 33.6381 65.7325 13.6131 48.4185 23.6431"></polygon>
                <polygon id="Fill-1605" points="46.5381 100.3903 63.7631 90.4453 46.5381 80.4983"></polygon>
                <polygon id="Fill-1607" points="42.6086 0.3903 25.3746 10.3403 42.6086 20.2893"></polygon>
                <polygon id="Fill-1609" points="86.8917 23.6888 69.6617 13.7408 69.6617 33.6358"></polygon>
                <polygon id="Fill-1611" points="69.6621 87.0391 86.8921 77.0911 69.6621 67.1441"></polygon>
                <polygon id="Fill-1613" points="48.5024 77.0959 65.7324 87.0449 65.7324 67.1459"></polygon>
                <polygon id="Fill-1615" points="69.6621 60.3402 86.8921 50.3912 69.6621 40.4442"></polygon>
                <polygon id="Fill-1617" points="88.8565 46.9871 88.8565 27.0911 71.6255 37.0401"></polygon>
                <polygon id="Fill-1619" points="88.8565 73.6885 88.8565 53.7935 71.6285 63.7415"></polygon>
            </g>
            <g id="Group-1719" transform="translate(0.000000, 481.228000)">
                <polygon id="Fill-1671" points="0.0417 53.8705 0.0417 73.7655 17.2697 63.8185"></polygon>
                <polygon id="Fill-1673" points="0.0417 27.1684 0.0417 47.0584 17.2387 37.0964"></polygon>
                <polygon id="Fill-1675" points="46.2902 27.1726 46.2902 47.0646 63.5172 37.1176"></polygon>
                <polygon id="Fill-1677" points="19.2361 40.4809 2.0011 50.4649 19.2361 60.4169"></polygon>
                <polygon id="Fill-1679" points="2.0065 77.1681 19.2365 87.1161 19.2365 67.2211"></polygon>
                <polygon id="Fill-1681" points="23.1656 67.223 23.1656 87.123 40.3976 77.173"></polygon>
                <polygon id="Fill-1683" points="48.2542 50.467 65.4842 60.415 65.4842 40.519"></polygon>
                <polygon id="Fill-1685" points="25.1365 90.5225 42.3605 100.4675 42.3605 80.5765"></polygon>
                <polygon id="Fill-1687" points="63.5227 63.8191 46.2907 53.8701 46.2907 73.7701"></polygon>
                <polygon id="Fill-1689" points="23.1656 13.8233 23.1656 33.6633 40.3196 23.7263"></polygon>
                <polygon id="Fill-1691" points="42.3607 47.0644 42.3607 27.0854 25.0867 37.0914"></polygon>
                <polygon id="Fill-1693" points="42.3607 73.7697 42.3607 53.8697 25.1277 63.8187"></polygon>
                <polygon id="Fill-1695" points="23.1656 40.519 23.1656 60.415 40.3956 50.467"></polygon>
                <polygon id="Fill-1697" points="19.2361 33.7132 19.2361 13.8182 2.0061 23.7662"></polygon>
                <polygon id="Fill-1699" points="63.4093 10.351 46.2903 0.467 46.2903 20.268"></polygon>
                <polygon id="Fill-1701" points="65.4846 33.7151 65.4846 13.6901 48.1706 23.7201"></polygon>
                <polygon id="Fill-1703" points="46.2902 100.4673 63.5152 90.5223 46.2902 80.5753"></polygon>
                <polygon id="Fill-1705" points="42.3607 0.4673 25.1267 10.4173 42.3607 20.3663"></polygon>
                <polygon id="Fill-1707" points="86.6438 23.7659 69.4138 13.8179 69.4138 33.7129"></polygon>
                <polygon id="Fill-1709" points="69.4142 87.1161 86.6442 77.1681 69.4142 67.2211"></polygon>
                <polygon id="Fill-1711" points="48.2545 77.1729 65.4845 87.1219 65.4845 67.2229"></polygon>
                <polygon id="Fill-1713" points="69.4142 60.4172 86.6442 50.4682 69.4142 40.5212"></polygon>
                <polygon id="Fill-1715" points="88.6086 47.0641 88.6086 27.1681 71.3776 37.1171"></polygon>
                <polygon id="Fill-1717" points="88.6086 73.7655 88.6086 53.8705 71.3806 63.8185"></polygon>
            </g>
            <g id="Group-1917" transform="translate(231.000000, 80.228000)">
                <polygon id="Fill-1869" points="0.2865 54.3552 0.2865 74.2502 17.5145 64.3032"></polygon>
                <polygon id="Fill-1871" points="0.2865 27.6531 0.2865 47.5431 17.4835 37.5811"></polygon>
                <polygon id="Fill-1873" points="46.5351 27.6573 46.5351 47.5493 63.7621 37.6023"></polygon>
                <polygon id="Fill-1875" points="19.4809 40.9656 2.2459 50.9496 19.4809 60.9016"></polygon>
                <polygon id="Fill-1877" points="2.2513 77.6528 19.4813 87.6008 19.4813 67.7058"></polygon>
                <polygon id="Fill-1879" points="23.4105 67.7076 23.4105 87.6086 40.6425 77.6576"></polygon>
                <polygon id="Fill-1881" points="48.4991 50.9517 65.7291 60.8997 65.7291 41.0037"></polygon>
                <polygon id="Fill-1883" points="25.3813 91.0072 42.6053 100.9522 42.6053 81.0612"></polygon>
                <polygon id="Fill-1885" points="63.7676 64.3038 46.5356 54.3548 46.5356 74.2548"></polygon>
                <polygon id="Fill-1887" points="23.4105 14.308 23.4105 34.148 40.5645 24.211"></polygon>
                <polygon id="Fill-1889" points="42.6055 47.5491 42.6055 27.5701 25.3315 37.5761"></polygon>
                <polygon id="Fill-1891" points="42.6055 74.2544 42.6055 54.3544 25.3725 64.3034"></polygon>
                <polygon id="Fill-1893" points="23.4105 41.0037 23.4105 60.8997 40.6405 50.9517"></polygon>
                <polygon id="Fill-1895" points="19.4809 34.1979 19.4809 14.3029 2.2509 24.2509"></polygon>
                <polygon id="Fill-1897" points="63.6542 10.8357 46.5352 0.9517 46.5352 20.7527"></polygon>
                <polygon id="Fill-1899" points="65.7295 34.1998 65.7295 14.1748 48.4155 24.2048"></polygon>
                <polygon id="Fill-1901" points="46.5351 100.952 63.7601 91.007 46.5351 81.061"></polygon>
                <polygon id="Fill-1903" points="42.6055 0.952 25.3715 10.902 42.6055 20.851"></polygon>
                <polygon id="Fill-1905" points="86.8886 24.2505 69.6586 14.3025 69.6586 34.1975"></polygon>
                <polygon id="Fill-1907" points="69.6591 87.6008 86.8891 77.6528 69.6591 67.7058"></polygon>
                <polygon id="Fill-1909" points="48.4994 77.6576 65.7294 87.6066 65.7294 67.7076"></polygon>
                <polygon id="Fill-1911" points="69.6591 60.9019 86.8891 50.9529 69.6591 41.0059"></polygon>
                <polygon id="Fill-1913" points="88.8534 47.5488 88.8534 27.6528 71.6224 37.6018"></polygon>
                <polygon id="Fill-1915" points="88.8534 74.2502 88.8534 54.3552 71.6254 64.3032"></polygon>
            </g>
            <g id="Group-2212" transform="translate(138.000000, 241.228000)">
                <polygon id="Fill-2164" points="0.8492 53.5254 0.8492 73.4204 18.0772 63.4734"></polygon>
                <polygon id="Fill-2166" points="0.8492 26.8233 0.8492 46.7133 18.0462 36.7513"></polygon>
                <polygon id="Fill-2168" points="47.0977 26.8274 47.0977 46.7194 64.3247 36.7724"></polygon>
                <polygon id="Fill-2170" points="20.0436 40.1358 2.8086 50.1198 20.0436 60.0718"></polygon>
                <polygon id="Fill-2172" points="2.814 76.823 20.044 86.771 20.044 66.876"></polygon>
                <polygon id="Fill-2174" points="23.9731 66.8778 23.9731 86.7778 41.2051 76.8278"></polygon>
                <polygon id="Fill-2176" points="49.0617 50.1218 66.2917 60.0698 66.2917 40.1738"></polygon>
                <polygon id="Fill-2178" points="25.944 90.1774 43.168 100.1224 43.168 80.2314"></polygon>
                <polygon id="Fill-2180" points="64.3302 63.474 47.0982 53.525 47.0982 73.425"></polygon>
                <polygon id="Fill-2182" points="23.9731 13.4781 23.9731 33.3181 41.1271 23.3811"></polygon>
                <polygon id="Fill-2184" points="43.1682 46.7193 43.1682 26.7403 25.8942 36.7463"></polygon>
                <polygon id="Fill-2186" points="43.1682 73.4246 43.1682 53.5246 25.9352 63.4736"></polygon>
                <polygon id="Fill-2188" points="23.9731 40.1738 23.9731 60.0698 41.2031 50.1218"></polygon>
                <polygon id="Fill-2190" points="20.0436 33.3681 20.0436 13.4731 2.8136 23.4211"></polygon>
                <polygon id="Fill-2192" points="64.2169 10.0059 47.0979 0.1219 47.0979 19.9229"></polygon>
                <polygon id="Fill-2194" points="66.2921 33.37 66.2921 13.345 48.9781 23.375"></polygon>
                <polygon id="Fill-2196" points="47.0977 100.1222 64.3227 90.1772 47.0977 80.2302"></polygon>
                <polygon id="Fill-2198" points="43.1682 0.1222 25.9342 10.0722 43.1682 20.0212"></polygon>
                <polygon id="Fill-2200" points="87.4513 23.4207 70.2213 13.4727 70.2213 33.3677"></polygon>
                <polygon id="Fill-2202" points="70.2217 86.771 87.4517 76.823 70.2217 66.876"></polygon>
                <polygon id="Fill-2204" points="49.062 76.8278 66.292 86.7768 66.292 66.8778"></polygon>
                <polygon id="Fill-2206" points="70.2217 60.0721 87.4517 50.1231 70.2217 40.1761"></polygon>
                <polygon id="Fill-2208" points="89.4161 46.719 89.4161 26.823 72.1851 36.772"></polygon>
                <polygon id="Fill-2210" points="89.4161 73.4204 89.4161 53.5254 72.1881 63.4734"></polygon>
            </g>
            <g id="Group-2261" transform="translate(138.000000, 80.228000)">
                <polygon id="Fill-2213" points="0.8492 54.3973 0.8492 74.2923 18.0772 64.3453"></polygon>
                <polygon id="Fill-2215" points="0.8492 27.6953 0.8492 47.5853 18.0462 37.6243"></polygon>
                <polygon id="Fill-2217" points="47.0977 27.6995 47.0977 47.5905 64.3247 37.6445"></polygon>
                <polygon id="Fill-2219" points="20.0436 41.0078 2.8086 50.9918 20.0436 60.9438"></polygon>
                <polygon id="Fill-2221" points="2.814 77.6949 20.044 87.6429 20.044 67.7479"></polygon>
                <polygon id="Fill-2223" points="23.9731 67.7498 23.9731 87.6508 41.2051 77.6998"></polygon>
                <polygon id="Fill-2225" points="49.0617 50.9938 66.2917 60.9418 66.2917 41.0458"></polygon>
                <polygon id="Fill-2227" points="25.944 91.0494 43.168 100.9944 43.168 81.1034"></polygon>
                <polygon id="Fill-2229" points="64.3302 64.346 47.0982 54.397 47.0982 74.297"></polygon>
                <polygon id="Fill-2231" points="23.9731 14.3502 23.9731 34.1902 41.1271 24.2532"></polygon>
                <polygon id="Fill-2233" points="43.1682 47.5913 43.1682 27.6123 25.8942 37.6183"></polygon>
                <polygon id="Fill-2235" points="43.1682 74.2966 43.1682 54.3966 25.9352 64.3456"></polygon>
                <polygon id="Fill-2237" points="23.9731 41.0458 23.9731 60.9418 41.2031 50.9938"></polygon>
                <polygon id="Fill-2239" points="20.0436 34.2401 20.0436 14.3451 2.8136 24.2931"></polygon>
                <polygon id="Fill-2241" points="64.2169 10.8779 47.0979 0.9939 47.0979 20.7949"></polygon>
                <polygon id="Fill-2243" points="66.2921 34.242 66.2921 14.217 48.9781 24.247"></polygon>
                <polygon id="Fill-2245" points="47.0977 100.9941 64.3227 91.0491 47.0977 81.1031"></polygon>
                <polygon id="Fill-2247" points="43.1682 0.9941 25.9342 10.9441 43.1682 20.8931"></polygon>
                <polygon id="Fill-2249" points="87.4513 24.2927 70.2213 14.3447 70.2213 34.2397"></polygon>
                <polygon id="Fill-2251" points="70.2217 87.6429 87.4517 77.6949 70.2217 67.7479"></polygon>
                <polygon id="Fill-2253" points="49.062 77.6998 66.292 87.6488 66.292 67.7498"></polygon>
                <polygon id="Fill-2255" points="70.2217 60.9441 87.4517 50.9951 70.2217 41.0481"></polygon>
                <polygon id="Fill-2257" points="89.4161 47.5909 89.4161 27.6949 72.1851 37.6439"></polygon>
                <polygon id="Fill-2259" points="89.4161 74.2924 89.4161 54.3974 72.1881 64.3454"></polygon>
            </g>
            <g id="Group-2310" transform="translate(92.000000, 0.228000)">
                <polygon id="Fill-2262" points="0.4652 54.2147 0.4652 74.1097 17.6932 64.1627"></polygon>
                <polygon id="Fill-2264" points="0.4652 27.5126 0.4652 47.4026 17.6622 37.4416"></polygon>
                <polygon id="Fill-2266" points="46.7138 27.5168 46.7138 47.4088 63.9408 37.4618"></polygon>
                <polygon id="Fill-2268" points="19.6596 40.8251 2.4246 50.8091 19.6596 60.7611"></polygon>
                <polygon id="Fill-2270" points="2.43 77.5123 19.66 87.4603 19.66 67.5653"></polygon>
                <polygon id="Fill-2272" points="23.5892 67.5672 23.5892 87.4682 40.8212 77.5172"></polygon>
                <polygon id="Fill-2274" points="48.6777 50.8112 65.9077 60.7592 65.9077 40.8632"></polygon>
                <polygon id="Fill-2276" points="25.56 90.8667 42.784 100.8117 42.784 80.9207"></polygon>
                <polygon id="Fill-2278" points="63.9462 64.1634 46.7142 54.2144 46.7142 74.1144"></polygon>
                <polygon id="Fill-2280" points="23.5892 14.1675 23.5892 34.0075 40.7432 24.0705"></polygon>
                <polygon id="Fill-2282" points="42.7842 47.4086 42.7842 27.4296 25.5102 37.4356"></polygon>
                <polygon id="Fill-2284" points="42.7842 74.114 42.7842 54.214 25.5512 64.163"></polygon>
                <polygon id="Fill-2286" points="23.5892 40.8632 23.5892 60.7592 40.8192 50.8112"></polygon>
                <polygon id="Fill-2288" points="19.6596 34.0574 19.6596 14.1624 2.4296 24.1104"></polygon>
                <polygon id="Fill-2290" points="63.8329 10.6953 46.7139 0.8113 46.7139 20.6123"></polygon>
                <polygon id="Fill-2292" points="65.9082 34.0594 65.9082 14.0344 48.5942 24.0644"></polygon>
                <polygon id="Fill-2294" points="46.7138 100.8115 63.9388 90.8665 46.7138 80.9195"></polygon>
                <polygon id="Fill-2296" points="42.7842 0.8115 25.5502 10.7615 42.7842 20.7105"></polygon>
                <polygon id="Fill-2298" points="87.0673 24.1101 69.8373 14.1621 69.8373 34.0571"></polygon>
                <polygon id="Fill-2300" points="69.8377 87.4603 87.0677 77.5123 69.8377 67.5653"></polygon>
                <polygon id="Fill-2302" points="48.6781 77.5172 65.9081 87.4662 65.9081 67.5672"></polygon>
                <polygon id="Fill-2304" points="69.8377 60.7615 87.0677 50.8125 69.8377 40.8655"></polygon>
                <polygon id="Fill-2306" points="89.0321 47.4083 89.0321 27.5123 71.8011 37.4613"></polygon>
                <polygon id="Fill-2308" points="89.0321 74.1097 89.0321 54.2147 71.8041 64.1627"></polygon>
            </g>
            <g id="Group-2506" transform="translate(138.000000, 401.228000)">
                <polygon id="Fill-2458" points="0.8492 53.7002 0.8492 73.5952 18.0772 63.6482"></polygon>
                <polygon id="Fill-2460" points="0.8492 26.9982 0.8492 46.8882 18.0462 36.9262"></polygon>
                <polygon id="Fill-2462" points="47.0977 27.0023 47.0977 46.8943 64.3247 36.9473"></polygon>
                <polygon id="Fill-2464" points="20.0436 40.3107 2.8086 50.2947 20.0436 60.2467"></polygon>
                <polygon id="Fill-2466" points="2.814 76.9978 20.044 86.9458 20.044 67.0508"></polygon>
                <polygon id="Fill-2468" points="23.9731 67.0527 23.9731 86.9527 41.2051 77.0027"></polygon>
                <polygon id="Fill-2470" points="49.0617 50.2967 66.2917 60.2447 66.2917 40.3487"></polygon>
                <polygon id="Fill-2472" points="25.944 90.3522 43.168 100.2972 43.168 80.4062"></polygon>
                <polygon id="Fill-2474" points="64.3302 63.6489 47.0982 53.6999 47.0982 73.5999"></polygon>
                <polygon id="Fill-2476" points="23.9731 13.653 23.9731 33.493 41.1271 23.556"></polygon>
                <polygon id="Fill-2478" points="43.1682 46.8942 43.1682 26.9152 25.8942 36.9212"></polygon>
                <polygon id="Fill-2480" points="43.1682 73.5994 43.1682 53.6994 25.9352 63.6484"></polygon>
                <polygon id="Fill-2482" points="23.9731 40.3487 23.9731 60.2447 41.2031 50.2967"></polygon>
                <polygon id="Fill-2484" points="20.0436 33.543 20.0436 13.648 2.8136 23.596"></polygon>
                <polygon id="Fill-2486" points="64.2169 10.1808 47.0979 0.2968 47.0979 20.0978"></polygon>
                <polygon id="Fill-2488" points="66.2921 33.5449 66.2921 13.5199 48.9781 23.5499"></polygon>
                <polygon id="Fill-2490" points="47.0977 100.297 64.3227 90.352 47.0977 80.405"></polygon>
                <polygon id="Fill-2492" points="43.1682 0.297 25.9342 10.247 43.1682 20.196"></polygon>
                <polygon id="Fill-2494" points="87.4513 23.5956 70.2213 13.6476 70.2213 33.5426"></polygon>
                <polygon id="Fill-2496" points="70.2217 86.9458 87.4517 76.9978 70.2217 67.0508"></polygon>
                <polygon id="Fill-2498" points="49.062 77.0026 66.292 86.9516 66.292 67.0526"></polygon>
                <polygon id="Fill-2500" points="70.2217 60.2469 87.4517 50.2979 70.2217 40.3509"></polygon>
                <polygon id="Fill-2502" points="89.4161 46.8938 89.4161 26.9978 72.1851 36.9468"></polygon>
                <polygon id="Fill-2504" points="89.4161 73.5953 89.4161 53.7003 72.1881 63.6483"></polygon>
            </g>
        </g>
    </g>
</svg>