<?xml version="1.0" encoding="UTF-8" standalone="no"?>
<svg width="275px" height="581px" viewBox="0 0 275 581" version="1.1" xmlns="http://www.w3.org/2000/svg" xmlns:xlink="http://www.w3.org/1999/xlink">
    <!-- Generator: Sketch 39.1 (31720) - http://www.bohemiancoding.com/sketch -->
    <title>Group 3</title>
    <desc>Created with Sketch.</desc>
    <defs>
        <polygon id="path-1" points="17.471 20.0433 17.471 0.1473 0.2404 0.1473 0.2404 20.0433 17.471 20.0433"></polygon>
        <polygon id="path-3" points="17.471 20.7447 17.471 0.8497 0.2434 0.8497 0.2434 20.7447 17.471 20.7447"></polygon>
        <polygon id="path-5" points="17.189 0.772 0.07 0.772 0.07 20.5724 17.189 20.5724 17.189 0.772"></polygon>
        <polygon id="path-7" points="18.1403 0.772 0.9063 0.772 0.9063 20.6707 18.1403 20.6707 18.1403 0.772"></polygon>
    </defs>
    <g id="Page-1" stroke="none" stroke-width="1" fill="none" fill-rule="evenodd" opacity="0.5">
        <g id="Group-3" transform="translate(0.000000, -1.000000)">
            <g id="Group-49" transform="translate(0.000000, 160.000000)" fill="#FD9053">
                <polygon id="Fill-1" points="0.5341 54.3344 0.5341 74.2294 17.7631 64.2824"></polygon>
                <polygon id="Fill-3" points="0.5341 27.6323 0.5341 47.5223 17.7311 37.5613"></polygon>
                <polygon id="Fill-5" points="46.7826 27.6364 46.7826 47.5284 64.0106 37.5814"></polygon>
                <polygon id="Fill-7" points="19.7285 40.9448 2.4935 50.9288 19.7285 60.8808"></polygon>
                <polygon id="Fill-9" points="2.4989 77.632 19.7289 87.58 19.7289 67.685"></polygon>
                <polygon id="Fill-11" points="23.6581 67.6868 23.6581 87.5878 40.8901 77.6368"></polygon>
                <polygon id="Fill-13" points="48.7466 50.9308 65.9766 60.8788 65.9766 40.9828"></polygon>
                <polygon id="Fill-15" points="25.6289 90.9863 42.8529 100.9313 42.8529 81.0403"></polygon>
                <polygon id="Fill-17" points="64.0151 64.283 46.7821 54.334 46.7821 74.234"></polygon>
                <polygon id="Fill-19" points="23.6581 14.2872 23.6581 34.1272 40.8121 24.1902"></polygon>
                <polygon id="Fill-21" points="42.853 47.5283 42.853 27.5493 25.579 37.5553"></polygon>
                <polygon id="Fill-23" points="42.853 74.2336 42.853 54.3336 25.62 64.2826"></polygon>
                <polygon id="Fill-25" points="23.6581 40.9828 23.6581 60.8788 40.8881 50.9308"></polygon>
                <polygon id="Fill-27" points="19.7285 34.1771 19.7285 14.2821 2.4985 24.2301"></polygon>
                <polygon id="Fill-29" points="63.9017 10.8149 46.7827 0.9309 46.7827 20.7319"></polygon>
                <polygon id="Fill-31" points="65.9771 34.179 65.9771 14.154 48.6631 24.184"></polygon>
                <polygon id="Fill-33" points="46.7826 100.9312 64.0076 90.9862 46.7826 81.0392"></polygon>
                <polygon id="Fill-35" points="42.853 0.9312 25.619 10.8812 42.853 20.8302"></polygon>
                <polygon id="Fill-37" points="87.1362 24.2297 69.9062 14.2817 69.9062 34.1767"></polygon>
                <polygon id="Fill-39" points="69.9066 87.58 87.1366 77.632 69.9066 67.685"></polygon>
                <polygon id="Fill-41" points="48.7469 77.6368 65.9769 87.5858 65.9769 67.6868"></polygon>
                <polygon id="Fill-43" points="69.9066 60.8811 87.1366 50.9321 69.9066 40.9851"></polygon>
                <polygon id="Fill-45" points="89.101 47.528 89.101 27.632 71.87 37.581"></polygon>
                <polygon id="Fill-47" points="89.101 74.2294 89.101 54.3344 71.873 64.2824"></polygon>
            </g>
            <g id="Group-49-Copy" transform="translate(0.000000, 321.000000)" fill="#FD9053">
                <polygon id="Fill-1" points="0.5341 54.3344 0.5341 74.2294 17.7631 64.2824"></polygon>
                <polygon id="Fill-3" points="0.5341 27.6323 0.5341 47.5223 17.7311 37.5613"></polygon>
                <polygon id="Fill-5" points="46.7826 27.6364 46.7826 47.5284 64.0106 37.5814"></polygon>
                <polygon id="Fill-7" points="19.7285 40.9448 2.4935 50.9288 19.7285 60.8808"></polygon>
                <polygon id="Fill-9" points="2.4989 77.632 19.7289 87.58 19.7289 67.685"></polygon>
                <polygon id="Fill-11" points="23.6581 67.6868 23.6581 87.5878 40.8901 77.6368"></polygon>
                <polygon id="Fill-13" points="48.7466 50.9308 65.9766 60.8788 65.9766 40.9828"></polygon>
                <polygon id="Fill-15" points="25.6289 90.9863 42.8529 100.9313 42.8529 81.0403"></polygon>
                <polygon id="Fill-17" points="64.0151 64.283 46.7821 54.334 46.7821 74.234"></polygon>
                <polygon id="Fill-19" points="23.6581 14.2872 23.6581 34.1272 40.8121 24.1902"></polygon>
                <polygon id="Fill-21" points="42.853 47.5283 42.853 27.5493 25.579 37.5553"></polygon>
                <polygon id="Fill-23" points="42.853 74.2336 42.853 54.3336 25.62 64.2826"></polygon>
                <polygon id="Fill-25" points="23.6581 40.9828 23.6581 60.8788 40.8881 50.9308"></polygon>
                <polygon id="Fill-27" points="19.7285 34.1771 19.7285 14.2821 2.4985 24.2301"></polygon>
                <polygon id="Fill-29" points="63.9017 10.8149 46.7827 0.9309 46.7827 20.7319"></polygon>
                <polygon id="Fill-31" points="65.9771 34.179 65.9771 14.154 48.6631 24.184"></polygon>
                <polygon id="Fill-33" points="46.7826 100.9312 64.0076 90.9862 46.7826 81.0392"></polygon>
                <polygon id="Fill-35" points="42.853 0.9312 25.619 10.8812 42.853 20.8302"></polygon>
                <polygon id="Fill-37" points="87.1362 24.2297 69.9062 14.2817 69.9062 34.1767"></polygon>
                <polygon id="Fill-39" points="69.9066 87.58 87.1366 77.632 69.9066 67.685"></polygon>
                <polygon id="Fill-41" points="48.7469 77.6368 65.9769 87.5858 65.9769 67.6868"></polygon>
                <polygon id="Fill-43" points="69.9066 60.8811 87.1366 50.9321 69.9066 40.9851"></polygon>
                <polygon id="Fill-45" points="89.101 47.528 89.101 27.632 71.87 37.581"></polygon>
                <polygon id="Fill-47" points="89.101 74.2294 89.101 54.3344 71.873 64.2824"></polygon>
            </g>
            <g id="Group-392" transform="translate(139.000000, 80.228000)" fill="#FD9053">
                <polygon id="Fill-344" points="0.5728 54.3344 0.5728 74.2294 17.8008 64.2824"></polygon>
                <polygon id="Fill-346" points="0.5728 27.6323 0.5728 47.5223 17.7698 37.5613"></polygon>
                <polygon id="Fill-348" points="46.8213 27.6364 46.8213 47.5284 64.0483 37.5814"></polygon>
                <polygon id="Fill-350" points="19.7671 40.9448 2.5321 50.9288 19.7671 60.8808"></polygon>
                <polygon id="Fill-352" points="2.5375 77.632 19.7675 87.58 19.7675 67.685"></polygon>
                <polygon id="Fill-354" points="23.6967 67.6868 23.6967 87.5878 40.9287 77.6368"></polygon>
                <polygon id="Fill-356" points="48.7853 50.9308 66.0153 60.8788 66.0153 40.9828"></polygon>
                <polygon id="Fill-358" points="25.6675 90.9863 42.8915 100.9313 42.8915 81.0403"></polygon>
                <polygon id="Fill-360" points="64.0537 64.283 46.8217 54.334 46.8217 74.234"></polygon>
                <polygon id="Fill-362" points="23.6967 14.2872 23.6967 34.1272 40.8507 24.1902"></polygon>
                <polygon id="Fill-364" points="42.8917 47.5283 42.8917 27.5493 25.6177 37.5553"></polygon>
                <polygon id="Fill-366" points="42.8917 74.2336 42.8917 54.3336 25.6587 64.2826"></polygon>
                <polygon id="Fill-368" points="23.6967 40.9828 23.6967 60.8788 40.9267 50.9308"></polygon>
                <polygon id="Fill-370" points="19.7671 34.1771 19.7671 14.2821 2.5371 24.2301"></polygon>
                <polygon id="Fill-372" points="63.9404 10.8149 46.8214 0.9309 46.8214 20.7319"></polygon>
                <polygon id="Fill-374" points="66.0156 34.179 66.0156 14.154 48.7016 24.184"></polygon>
                <polygon id="Fill-376" points="46.8213 100.9312 64.0463 90.9862 46.8213 81.0392"></polygon>
                <polygon id="Fill-378" points="42.8917 0.9312 25.6577 10.8812 42.8917 20.8302"></polygon>
                <polygon id="Fill-380" points="87.1748 24.2297 69.9448 14.2817 69.9448 34.1767"></polygon>
                <polygon id="Fill-382" points="69.9452 87.58 87.1752 77.632 69.9452 67.685"></polygon>
                <polygon id="Fill-384" points="48.7855 77.6368 66.0155 87.5858 66.0155 67.6868"></polygon>
                <polygon id="Fill-386" points="69.9452 60.8811 87.1752 50.9321 69.9452 40.9851"></polygon>
                <polygon id="Fill-388" points="89.1396 47.528 89.1396 27.632 71.9086 37.581"></polygon>
                <polygon id="Fill-390" points="89.1396 74.2294 89.1396 54.3344 71.9116 64.2824"></polygon>
            </g>
            <g id="Group-441" transform="translate(185.000000, 161.228000)" fill="#FD9053">
                <polygon id="Fill-393" points="0.8629 53.4114 0.8629 73.3064 18.0919 63.3594"></polygon>
                <polygon id="Fill-395" points="0.8629 26.7093 0.8629 46.5993 18.0599 36.6373"></polygon>
                <polygon id="Fill-397" points="47.1115 26.7134 47.1115 46.6054 64.3385 36.6584"></polygon>
                <polygon id="Fill-399" points="20.0574 40.0218 2.8224 50.0058 20.0574 59.9578"></polygon>
                <polygon id="Fill-401" points="2.8278 76.709 20.0578 86.657 20.0578 66.762"></polygon>
                <polygon id="Fill-403" points="23.9869 66.7639 23.9869 86.6639 41.2189 76.7139"></polygon>
                <polygon id="Fill-405" points="49.0754 50.0079 66.3054 59.9559 66.3054 40.0599"></polygon>
                <polygon id="Fill-407" points="25.9578 90.0634 43.1818 100.0084 43.1818 80.1174"></polygon>
                <polygon id="Fill-409" points="64.344 63.36 47.111 53.411 47.111 73.311"></polygon>
                <polygon id="Fill-411" points="23.9869 13.3641 23.9869 33.2041 41.1409 23.2671"></polygon>
                <polygon id="Fill-413" points="43.1819 46.6053 43.1819 26.6263 25.9079 36.6323"></polygon>
                <polygon id="Fill-415" points="43.1819 73.3106 43.1819 53.4106 25.9489 63.3596"></polygon>
                <polygon id="Fill-417" points="23.9869 40.0598 23.9869 59.9558 41.2169 50.0078"></polygon>
                <polygon id="Fill-419" points="20.0574 33.2541 20.0574 13.3591 2.8274 23.3071"></polygon>
                <polygon id="Fill-421" points="64.2306 9.8919 47.1116 0.0079 47.1116 19.8089"></polygon>
                <polygon id="Fill-423" points="66.3059 33.256 66.3059 13.231 48.9919 23.261"></polygon>
                <polygon id="Fill-425" points="47.1115 100.0082 64.3365 90.0632 47.1115 80.1162"></polygon>
                <polygon id="Fill-427" points="43.1819 0.0082 25.9479 9.9582 43.1819 19.9072"></polygon>
                <polygon id="Fill-429" points="87.4651 23.3067 70.2351 13.3587 70.2351 33.2537"></polygon>
                <polygon id="Fill-431" points="70.2355 86.657 87.4655 76.709 70.2355 66.762"></polygon>
                <polygon id="Fill-433" points="49.0758 76.7138 66.3058 86.6628 66.3058 66.7638"></polygon>
                <polygon id="Fill-435" points="70.2355 59.9581 87.4655 50.0091 70.2355 40.0621"></polygon>
                <polygon id="Fill-437" points="89.4298 46.605 89.4298 26.709 72.1988 36.658"></polygon>
                <polygon id="Fill-439" points="89.4298 73.3064 89.4298 53.4114 72.2018 63.3594"></polygon>
            </g>
            <g id="Group-490" transform="translate(93.000000, 161.228000)" fill="#FD9053">
                <polygon id="Fill-442" points="0.3248 53.4114 0.3248 73.3064 17.5528 63.3594"></polygon>
                <polygon id="Fill-444" points="0.3248 26.7093 0.3248 46.5993 17.5218 36.6373"></polygon>
                <polygon id="Fill-446" points="46.5734 26.7134 46.5734 46.6054 63.8004 36.6584"></polygon>
                <polygon id="Fill-448" points="19.5192 40.0218 2.2842 50.0058 19.5192 59.9578"></polygon>
                <polygon id="Fill-450" points="2.2896 76.709 19.5196 86.657 19.5196 66.762"></polygon>
                <polygon id="Fill-452" points="23.4487 66.7639 23.4487 86.6639 40.6807 76.7139"></polygon>
                <polygon id="Fill-454" points="48.5374 50.0079 65.7674 59.9559 65.7674 40.0599"></polygon>
                <polygon id="Fill-456" points="25.4196 90.0634 42.6436 100.0084 42.6436 80.1174"></polygon>
                <polygon id="Fill-458" points="63.8058 63.36 46.5738 53.411 46.5738 73.311"></polygon>
                <polygon id="Fill-460" points="23.4487 13.3641 23.4487 33.2041 40.6027 23.2671"></polygon>
                <polygon id="Fill-462" points="42.6438 46.6053 42.6438 26.6263 25.3698 36.6323"></polygon>
                <polygon id="Fill-464" points="42.6438 73.3106 42.6438 53.4106 25.4108 63.3596"></polygon>
                <polygon id="Fill-466" points="23.4487 40.0598 23.4487 59.9558 40.6787 50.0078"></polygon>
                <polygon id="Fill-468" points="19.5192 33.2541 19.5192 13.3591 2.2892 23.3071"></polygon>
                <polygon id="Fill-470" points="63.6925 9.8919 46.5735 0.0079 46.5735 19.8089"></polygon>
                <polygon id="Fill-472" points="65.7677 33.256 65.7677 13.231 48.4537 23.261"></polygon>
                <polygon id="Fill-474" points="46.5734 100.0082 63.7984 90.0632 46.5734 80.1162"></polygon>
                <polygon id="Fill-476" points="42.6438 0.0082 25.4098 9.9582 42.6438 19.9072"></polygon>
                <polygon id="Fill-478" points="86.9269 23.3067 69.6969 13.3587 69.6969 33.2537"></polygon>
                <polygon id="Fill-480" points="69.6973 86.657 86.9273 76.709 69.6973 66.762"></polygon>
                <polygon id="Fill-482" points="48.5376 76.7138 65.7676 86.6628 65.7676 66.7638"></polygon>
                <polygon id="Fill-484" points="69.6973 59.9581 86.9273 50.0091 69.6973 40.0621"></polygon>
                <polygon id="Fill-486" points="88.8917 46.605 88.8917 26.709 71.6607 36.658"></polygon>
                <polygon id="Fill-488" points="88.8917 73.3064 88.8917 53.4114 71.6637 63.3594"></polygon>
            </g>
            <g id="Group-539" transform="translate(139.000000, 241.228000)" fill="#FD9053">
                <polygon id="Fill-491" points="0.5728 53.5205 0.5728 73.4155 17.8008 63.4685"></polygon>
                <polygon id="Fill-493" points="0.5728 26.8184 0.5728 46.7084 17.7698 36.7464"></polygon>
                <polygon id="Fill-495" points="46.8213 26.8225 46.8213 46.7145 64.0483 36.7675"></polygon>
                <polygon id="Fill-497" points="19.7671 40.1309 2.5321 50.1149 19.7671 60.0669"></polygon>
                <polygon id="Fill-499" points="2.5375 76.8181 19.7675 86.7661 19.7675 66.8711"></polygon>
                <polygon id="Fill-501" points="23.6967 66.873 23.6967 86.773 40.9287 76.823"></polygon>
                <polygon id="Fill-503" points="48.7853 50.1169 66.0153 60.0649 66.0153 40.1689"></polygon>
                <polygon id="Fill-505" points="25.6675 90.1725 42.8915 100.1175 42.8915 80.2265"></polygon>
                <polygon id="Fill-507" points="64.0537 63.4691 46.8217 53.5201 46.8217 73.4201"></polygon>
                <polygon id="Fill-509" points="23.6967 13.4733 23.6967 33.3133 40.8507 23.3763"></polygon>
                <polygon id="Fill-511" points="42.8917 46.7144 42.8917 26.7354 25.6177 36.7414"></polygon>
                <polygon id="Fill-513" points="42.8917 73.4197 42.8917 53.5197 25.6587 63.4687"></polygon>
                <polygon id="Fill-515" points="23.6967 40.1689 23.6967 60.0649 40.9267 50.1169"></polygon>
                <polygon id="Fill-517" points="19.7671 33.3632 19.7671 13.4682 2.5371 23.4162"></polygon>
                <polygon id="Fill-519" points="63.9404 10.001 46.8214 0.117 46.8214 19.918"></polygon>
                <polygon id="Fill-521" points="66.0156 33.3651 66.0156 13.3401 48.7016 23.3701"></polygon>
                <polygon id="Fill-523" points="46.8213 100.1173 64.0463 90.1723 46.8213 80.2253"></polygon>
                <polygon id="Fill-525" points="42.8917 0.1173 25.6577 10.0673 42.8917 20.0163"></polygon>
                <polygon id="Fill-527" points="87.1748 23.4158 69.9448 13.4678 69.9448 33.3628"></polygon>
                <polygon id="Fill-529" points="69.9452 86.7661 87.1752 76.8181 69.9452 66.8711"></polygon>
                <polygon id="Fill-531" points="48.7855 76.8229 66.0155 86.7719 66.0155 66.8729"></polygon>
                <polygon id="Fill-533" points="69.9452 60.0672 87.1752 50.1182 69.9452 40.1712"></polygon>
                <polygon id="Fill-535" points="89.1396 46.7141 89.1396 26.8181 71.9086 36.7671"></polygon>
                <polygon id="Fill-537" points="89.1396 73.4155 89.1396 53.5205 71.9116 63.4685"></polygon>
            </g>
            <g id="Group-588" transform="translate(185.000000, 321.228000)" fill="#FD9053">
                <polygon id="Fill-540" points="0.8629 53.5975 0.8629 73.4925 18.0919 63.5455"></polygon>
                <polygon id="Fill-542" points="0.8629 26.8954 0.8629 46.7854 18.0599 36.8234"></polygon>
                <polygon id="Fill-544" points="47.1115 26.8996 47.1115 46.7916 64.3385 36.8446"></polygon>
                <polygon id="Fill-546" points="20.0574 40.2079 2.8224 50.1919 20.0574 60.1439"></polygon>
                <polygon id="Fill-548" points="2.8278 76.8951 20.0578 86.8431 20.0578 66.9481"></polygon>
                <polygon id="Fill-550" points="23.9869 66.95 23.9869 86.85 41.2189 76.9"></polygon>
                <polygon id="Fill-552" points="49.0754 50.194 66.3054 60.142 66.3054 40.246"></polygon>
                <polygon id="Fill-554" points="25.9578 90.2495 43.1818 100.1945 43.1818 80.3035"></polygon>
                <polygon id="Fill-556" points="64.344 63.5461 47.111 53.5971 47.111 73.4971"></polygon>
                <polygon id="Fill-558" points="23.9869 13.5503 23.9869 33.3903 41.1409 23.4533"></polygon>
                <polygon id="Fill-560" points="43.1819 46.7914 43.1819 26.8124 25.9079 36.8184"></polygon>
                <polygon id="Fill-562" points="43.1819 73.4967 43.1819 53.5967 25.9489 63.5457"></polygon>
                <polygon id="Fill-564" points="23.9869 40.246 23.9869 60.142 41.2169 50.194"></polygon>
                <polygon id="Fill-566" points="20.0574 33.4402 20.0574 13.5452 2.8274 23.4932"></polygon>
                <polygon id="Fill-568" points="64.2306 10.078 47.1116 0.194 47.1116 19.995"></polygon>
                <polygon id="Fill-570" points="66.3059 33.4421 66.3059 13.4171 48.9919 23.4471"></polygon>
                <polygon id="Fill-572" points="47.1115 100.1943 64.3365 90.2493 47.1115 80.3023"></polygon>
                <polygon id="Fill-574" points="43.1819 0.1943 25.9479 10.1443 43.1819 20.0933"></polygon>
                <polygon id="Fill-576" points="87.4651 23.4928 70.2351 13.5448 70.2351 33.4398"></polygon>
                <polygon id="Fill-578" points="70.2355 86.8431 87.4655 76.8951 70.2355 66.9481"></polygon>
                <polygon id="Fill-580" points="49.0758 76.8999 66.3058 86.8489 66.3058 66.9499"></polygon>
                <polygon id="Fill-582" points="70.2355 60.1442 87.4655 50.1952 70.2355 40.2482"></polygon>
                <polygon id="Fill-584" points="89.4298 46.7911 89.4298 26.8951 72.1988 36.8441"></polygon>
                <polygon id="Fill-586" points="89.4298 73.4925 89.4298 53.5975 72.2018 63.5455"></polygon>
            </g>
            <g id="Group-686" transform="translate(139.000000, 401.228000)" fill="#FD9053">
                <polygon id="Fill-638" points="0.6144 53.7726 0.6144 73.6676 17.8434 63.7206"></polygon>
                <polygon id="Fill-640" points="0.6144 27.0706 0.6144 46.9606 17.8114 36.9986"></polygon>
                <polygon id="Fill-642" points="46.8629 27.0747 46.8629 46.9667 64.0899 37.0197"></polygon>
                <polygon id="Fill-644" points="19.8087 40.3831 2.5737 50.3671 19.8087 60.3191"></polygon>
                <polygon id="Fill-646" points="2.5791 77.0703 19.8091 87.0183 19.8091 67.1233"></polygon>
                <polygon id="Fill-648" points="23.7383 67.1251 23.7383 87.0251 40.9703 77.0751"></polygon>
                <polygon id="Fill-650" points="48.8269 50.3691 66.0569 60.3171 66.0569 40.4211"></polygon>
                <polygon id="Fill-652" points="25.7092 90.4247 42.9332 100.3697 42.9332 80.4787"></polygon>
                <polygon id="Fill-654" points="64.0955 63.7213 46.8625 53.7723 46.8625 73.6723"></polygon>
                <polygon id="Fill-656" points="23.7383 13.7255 23.7383 33.5655 40.8933 23.6285"></polygon>
                <polygon id="Fill-658" points="42.9333 46.9666 42.9333 26.9876 25.6593 36.9936"></polygon>
                <polygon id="Fill-660" points="42.9333 73.6718 42.9333 53.7718 25.7003 63.7208"></polygon>
                <polygon id="Fill-662" points="23.7383 40.4211 23.7383 60.3171 40.9683 50.3691"></polygon>
                <polygon id="Fill-664" points="19.8087 33.6154 19.8087 13.7204 2.5787 23.6684"></polygon>
                <polygon id="Fill-666" points="63.9821 10.2532 46.8631 0.3692 46.8631 20.1702"></polygon>
                <polygon id="Fill-668" points="66.0573 33.6173 66.0573 13.5923 48.7433 23.6223"></polygon>
                <polygon id="Fill-670" points="46.8629 100.3695 64.0879 90.4245 46.8629 80.4775"></polygon>
                <polygon id="Fill-672" points="42.9333 0.3694 25.6993 10.3194 42.9333 20.2684"></polygon>
                <polygon id="Fill-674" points="87.2164 23.668 69.9874 13.72 69.9874 33.615"></polygon>
                <polygon id="Fill-676" points="69.9869 87.0182 87.2169 77.0702 69.9869 67.1232"></polygon>
                <polygon id="Fill-678" points="48.8273 77.075 66.0573 87.024 66.0573 67.125"></polygon>
                <polygon id="Fill-680" points="69.9869 60.3194 87.2159 50.3704 69.9869 40.4234"></polygon>
                <polygon id="Fill-682" points="89.1813 46.9662 89.1813 27.0702 71.9503 37.0192"></polygon>
                <polygon id="Fill-684" points="89.1813 73.6677 89.1813 53.7727 71.9533 63.7207"></polygon>
            </g>
            <g id="Group-737" transform="translate(185.000000, 481.228000)">
                <polygon id="Fill-687" fill="#FD9053" points="0.9045 53.8497 0.9045 73.7447 18.1335 63.7977"></polygon>
                <polygon id="Fill-689" fill="#FD9053" points="0.9045 27.1476 0.9045 47.0376 18.1015 37.0756"></polygon>
                <polygon id="Fill-691" fill="#FD9053" points="47.1532 27.1517 47.1532 47.0437 64.3802 37.0967"></polygon>
                <polygon id="Fill-693" fill="#FD9053" points="20.099 40.4601 2.864 50.4441 20.099 60.3961"></polygon>
                <polygon id="Fill-695" fill="#FD9053" points="2.8694 77.1473 20.0994 87.0953 20.0994 67.2003"></polygon>
                <polygon id="Fill-697" fill="#FD9053" points="24.0286 67.2021 24.0286 87.1021 41.2606 77.1521"></polygon>
                <polygon id="Fill-699" fill="#FD9053" points="49.1172 50.4461 66.3472 60.3941 66.3472 40.4981"></polygon>
                <polygon id="Fill-701" fill="#FD9053" points="25.9994 90.5016 43.2234 100.4466 43.2234 80.5556"></polygon>
                <polygon id="Fill-703" fill="#FD9053" points="64.3856 63.7983 47.1536 53.8493 47.1536 73.7493"></polygon>
                <polygon id="Fill-705" fill="#FD9053" points="24.0286 13.8025 24.0286 33.6425 41.1826 23.7055"></polygon>
                <polygon id="Fill-707" fill="#FD9053" points="43.2236 47.0436 43.2236 27.0646 25.9496 37.0706"></polygon>
                <polygon id="Fill-709" fill="#FD9053" points="43.2236 73.7489 43.2236 53.8489 25.9906 63.7979"></polygon>
                <polygon id="Fill-711" fill="#FD9053" points="24.0286 40.4981 24.0286 60.3941 41.2586 50.4461"></polygon>
                <polygon id="Fill-713" fill="#FD9053" points="20.099 33.6924 20.099 13.7974 2.869 23.7454"></polygon>
                <polygon id="Fill-715" fill="#FD9053" points="64.2722 10.3302 47.1532 0.4462 47.1532 20.2472"></polygon>
                <polygon id="Fill-717" fill="#FD9053" points="66.3475 33.6943 66.3475 13.6693 49.0335 23.6993"></polygon>
                <polygon id="Fill-719" fill="#FD9053" points="47.1532 100.4465 64.3782 90.5015 47.1532 80.5545"></polygon>
                <polygon id="Fill-721" fill="#FD9053" points="43.2236 0.4464 25.9896 10.3964 43.2236 20.3454"></polygon>
                <polygon id="Fill-723" fill="#FD9053" points="87.5067 23.745 70.2767 13.797 70.2767 33.692"></polygon>
                <polygon id="Fill-725" fill="#FD9053" points="70.2771 87.0953 87.5071 77.1473 70.2771 67.2003"></polygon>
                <polygon id="Fill-727" fill="#FD9053" points="49.1174 77.1521 66.3474 87.1011 66.3474 67.2021"></polygon>
                <polygon id="Fill-729" fill="#FD9053" points="70.2771 60.3964 87.5071 50.4474 70.2771 40.5004"></polygon>
                <g id="Group-733" transform="translate(72.000000, 27.000000)">
                    <mask id="mask-2" fill="white">
                        <use xlink:href="#path-1"></use>
                    </mask>
                    <g id="Clip-732"></g>
                    <polygon id="Fill-731" fill="#FD9053" mask="url(#mask-2)" points="17.4714 20.0433 17.4714 0.1473 0.2404 10.0963"></polygon>
                </g>
                <g id="Group-736" transform="translate(72.000000, 53.000000)">
                    <mask id="mask-4" fill="white">
                        <use xlink:href="#path-3"></use>
                    </mask>
                    <g id="Clip-735"></g>
                    <polygon id="Fill-734" fill="#FD9053" mask="url(#mask-4)" points="17.4714 20.7447 17.4714 0.8497 0.2434 10.7977"></polygon>
                </g>
            </g>
            <g id="Group-786" transform="translate(93.000000, 481.228000)" fill="#FD9053">
                <polygon id="Fill-738" points="0.3665 53.8497 0.3665 73.7447 17.5955 63.7977"></polygon>
                <polygon id="Fill-740" points="0.3665 27.1476 0.3665 47.0376 17.5635 37.0756"></polygon>
                <polygon id="Fill-742" points="46.615 27.1517 46.615 47.0437 63.842 37.0967"></polygon>
                <polygon id="Fill-744" points="19.5608 40.4601 2.3258 50.4441 19.5608 60.3961"></polygon>
                <polygon id="Fill-746" points="2.3313 77.1473 19.5603 87.0953 19.5603 67.2003"></polygon>
                <polygon id="Fill-748" points="23.4904 67.2021 23.4904 87.1021 40.7224 77.1521"></polygon>
                <polygon id="Fill-750" points="48.579 50.4461 65.809 60.3941 65.809 40.4981"></polygon>
                <polygon id="Fill-752" points="25.4613 90.5016 42.6853 100.4466 42.6853 80.5556"></polygon>
                <polygon id="Fill-754" points="63.8475 63.7983 46.6145 53.8493 46.6145 73.7493"></polygon>
                <polygon id="Fill-756" points="23.4904 13.8025 23.4904 33.6425 40.6454 23.7055"></polygon>
                <polygon id="Fill-758" points="42.6854 47.0436 42.6854 27.0646 25.4114 37.0706"></polygon>
                <polygon id="Fill-760" points="42.6854 73.7489 42.6854 53.8489 25.4524 63.7979"></polygon>
                <polygon id="Fill-762" points="23.4904 40.4981 23.4904 60.3941 40.7204 50.4461"></polygon>
                <polygon id="Fill-764" points="19.5608 33.6924 19.5608 13.7974 2.3318 23.7454"></polygon>
                <polygon id="Fill-766" points="63.7341 10.3302 46.6151 0.4462 46.6151 20.2472"></polygon>
                <polygon id="Fill-768" points="65.8094 33.6943 65.8094 13.6693 48.4954 23.6993"></polygon>
                <polygon id="Fill-770" points="46.615 100.4465 63.84 90.5015 46.615 80.5545"></polygon>
                <polygon id="Fill-772" points="42.6854 0.4464 25.4514 10.3964 42.6854 20.3454"></polygon>
                <polygon id="Fill-774" points="86.9686 23.745 69.7386 13.797 69.7386 33.692"></polygon>
                <polygon id="Fill-776" points="69.739 87.0953 86.969 77.1473 69.739 67.2003"></polygon>
                <polygon id="Fill-778" points="48.5793 77.1521 65.8093 87.1011 65.8093 67.2021"></polygon>
                <polygon id="Fill-780" points="69.739 60.3964 86.969 50.4474 69.739 40.5004"></polygon>
                <polygon id="Fill-782" points="88.9333 47.0433 88.9333 27.1473 71.7023 37.0963"></polygon>
                <polygon id="Fill-784" points="88.9333 73.7447 88.9333 53.8497 71.7053 63.7977"></polygon>
            </g>
            <g id="Group-982" transform="translate(47.000000, 241.228000)" fill="#FD9053">
                <polygon id="Fill-934" points="0.1354 53.5045 0.1354 73.3995 17.3644 63.4525"></polygon>
                <polygon id="Fill-936" points="0.1354 26.8025 0.1354 46.6925 17.3324 36.7305"></polygon>
                <polygon id="Fill-938" points="46.3839 26.8066 46.3839 46.6986 63.6109 36.7516"></polygon>
                <polygon id="Fill-940" points="19.3297 40.115 2.0947 50.099 19.3297 60.051"></polygon>
                <polygon id="Fill-942" points="2.1001 76.8021 19.3301 86.7501 19.3301 66.8551"></polygon>
                <polygon id="Fill-944" points="23.2593 66.857 23.2593 86.757 40.4913 76.807"></polygon>
                <polygon id="Fill-946" points="48.3479 50.101 65.5779 60.049 65.5779 40.153"></polygon>
                <polygon id="Fill-948" points="25.2302 90.1565 42.4542 100.1015 42.4542 80.2105"></polygon>
                <polygon id="Fill-950" points="63.6163 63.4532 46.3843 53.5042 46.3843 73.4042"></polygon>
                <polygon id="Fill-952" points="23.2593 13.4573 23.2593 33.2973 40.4143 23.3603"></polygon>
                <polygon id="Fill-954" points="42.4543 46.6985 42.4543 26.7195 25.1803 36.7255"></polygon>
                <polygon id="Fill-956" points="42.4543 73.4037 42.4543 53.5037 25.2213 63.4527"></polygon>
                <polygon id="Fill-958" points="23.2593 40.153 23.2593 60.049 40.4893 50.101"></polygon>
                <polygon id="Fill-960" points="19.3297 33.3473 19.3297 13.4523 2.0997 23.4003"></polygon>
                <polygon id="Fill-962" points="63.5031 9.985 46.3841 0.101 46.3841 19.902"></polygon>
                <polygon id="Fill-964" points="65.5782 33.3492 65.5782 13.3242 48.2642 23.3542"></polygon>
                <polygon id="Fill-966" points="46.3839 100.1013 63.6089 90.1563 46.3839 80.2093"></polygon>
                <polygon id="Fill-968" points="42.4543 0.1013 25.2203 10.0513 42.4543 20.0003"></polygon>
                <polygon id="Fill-970" points="86.7374 23.3999 69.5074 13.4519 69.5074 33.3469"></polygon>
                <polygon id="Fill-972" points="69.5078 86.7501 86.7378 76.8021 69.5078 66.8551"></polygon>
                <polygon id="Fill-974" points="48.3483 76.8069 65.5783 86.7559 65.5783 66.8569"></polygon>
                <polygon id="Fill-976" points="69.5078 60.0512 86.7378 50.1022 69.5078 40.1552"></polygon>
                <polygon id="Fill-978" points="88.7023 46.6981 88.7023 26.8021 71.4713 36.7511"></polygon>
                <polygon id="Fill-980" points="88.7023 73.3996 88.7023 53.5046 71.4743 63.4526"></polygon>
            </g>
            <g id="Group-1129" transform="translate(93.000000, 0.228000)" fill="#FD9053">
                <polygon id="Fill-1081" points="0.3839 54.1935 0.3839 74.0885 17.6129 64.1415"></polygon>
                <polygon id="Fill-1083" points="0.3839 27.4915 0.3839 47.3815 17.5809 37.4195"></polygon>
                <polygon id="Fill-1085" points="46.6324 27.4957 46.6324 47.3867 63.8594 37.4407"></polygon>
                <polygon id="Fill-1087" points="19.5782 40.804 2.3432 50.788 19.5782 60.74"></polygon>
                <polygon id="Fill-1089" points="2.3486 77.4911 19.5786 87.4391 19.5786 67.5441"></polygon>
                <polygon id="Fill-1091" points="23.5078 67.546 23.5078 87.447 40.7398 77.496"></polygon>
                <polygon id="Fill-1093" points="48.5964 50.79 65.8264 60.738 65.8264 40.842"></polygon>
                <polygon id="Fill-1095" points="25.4788 90.8456 42.7028 100.7906 42.7028 80.8996"></polygon>
                <polygon id="Fill-1097" points="63.865 64.1422 46.632 54.1932 46.632 74.0932"></polygon>
                <polygon id="Fill-1099" points="23.5078 14.1464 23.5078 33.9864 40.6628 24.0494"></polygon>
                <polygon id="Fill-1101" points="42.7029 47.3875 42.7029 27.4085 25.4289 37.4145"></polygon>
                <polygon id="Fill-1103" points="42.7029 74.0928 42.7029 54.1928 25.4699 64.1418"></polygon>
                <polygon id="Fill-1105" points="23.5078 40.842 23.5078 60.738 40.7378 50.79"></polygon>
                <polygon id="Fill-1107" points="19.5782 34.0363 19.5782 14.1413 2.3482 24.0893"></polygon>
                <polygon id="Fill-1109" points="63.7516 10.6741 46.6326 0.7901 46.6326 20.5911"></polygon>
                <polygon id="Fill-1111" points="65.8269 34.0382 65.8269 14.0132 48.5129 24.0432"></polygon>
                <polygon id="Fill-1113" points="46.6324 100.7903 63.8574 90.8453 46.6324 80.8993"></polygon>
                <polygon id="Fill-1115" points="42.7029 0.7903 25.4689 10.7403 42.7029 20.6893"></polygon>
                <polygon id="Fill-1117" points="86.986 24.0889 69.757 14.1409 69.757 34.0359"></polygon>
                <polygon id="Fill-1119" points="69.7565 87.4391 86.9865 77.4911 69.7565 67.5441"></polygon>
                <polygon id="Fill-1121" points="48.5968 77.496 65.8268 87.445 65.8268 67.546"></polygon>
                <polygon id="Fill-1123" points="69.7565 60.7403 86.9855 50.7913 69.7565 40.8443"></polygon>
                <polygon id="Fill-1125" points="88.9508 47.3871 88.9508 27.4911 71.7198 37.4401"></polygon>
                <polygon id="Fill-1127" points="88.9508 74.0886 88.9508 54.1936 71.7228 64.1416"></polygon>
            </g>
            <g id="Group-1180" transform="translate(185.000000, 0.228000)">
                <polygon id="Fill-1130" fill="#FD9053" points="0.8213 54.1749 0.8213 74.0699 18.0503 64.1229"></polygon>
                <polygon id="Fill-1132" fill="#FD9053" points="0.8213 27.4728 0.8213 47.3628 18.0183 37.4018"></polygon>
                <polygon id="Fill-1134" fill="#FD9053" points="47.0698 27.4769 47.0698 47.3689 64.2968 37.4219"></polygon>
                <polygon id="Fill-1136" fill="#FD9053" points="20.0156 40.7853 2.7806 50.7693 20.0156 60.7213"></polygon>
                <polygon id="Fill-1138" fill="#FD9053" points="2.786 77.4725 20.016 87.4205 20.016 67.5255"></polygon>
                <polygon id="Fill-1140" fill="#FD9053" points="23.9452 67.5273 23.9452 87.4273 41.1772 77.4773"></polygon>
                <polygon id="Fill-1142" fill="#FD9053" points="49.0338 50.7714 66.2638 60.7194 66.2638 40.8234"></polygon>
                <polygon id="Fill-1144" fill="#FD9053" points="25.9161 90.8268 43.1401 100.7718 43.1401 80.8808"></polygon>
                <polygon id="Fill-1146" fill="#FD9053" points="64.3022 64.1235 47.0702 54.1745 47.0702 74.0745"></polygon>
                <polygon id="Fill-1148" fill="#FD9053" points="23.9452 14.1277 23.9452 33.9677 41.1002 24.0307"></polygon>
                <polygon id="Fill-1150" fill="#FD9053" points="43.1403 47.3688 43.1403 27.3898 25.8663 37.3958"></polygon>
                <polygon id="Fill-1152" fill="#FD9053" points="43.1403 74.074 43.1403 54.174 25.9073 64.123"></polygon>
                <polygon id="Fill-1154" fill="#FD9053" points="23.9452 40.8234 23.9452 60.7194 41.1752 50.7714"></polygon>
                <polygon id="Fill-1156" fill="#FD9053" points="20.0156 34.0176 20.0156 14.1226 2.7856 24.0706"></polygon>
                <g id="Group-1160" transform="translate(47.000000, 0.000000)">
                    <mask id="mask-6" fill="white">
                        <use xlink:href="#path-5"></use>
                    </mask>
                    <g id="Clip-1159"></g>
                    <polygon id="Fill-1158" fill="#FD9053" mask="url(#mask-6)" points="17.189 10.6554 0.07 0.7714 0.07 20.5724"></polygon>
                </g>
                <polygon id="Fill-1161" fill="#FD9053" points="66.2642 34.0195 66.2642 13.9945 48.9502 24.0245"></polygon>
                <polygon id="Fill-1163" fill="#FD9053" points="47.0698 100.7717 64.2948 90.8267 47.0698 80.8797"></polygon>
                <g id="Group-1167" transform="translate(25.000000, 0.000000)">
                    <mask id="mask-8" fill="white">
                        <use xlink:href="#path-7"></use>
                    </mask>
                    <g id="Clip-1166"></g>
                    <polygon id="Fill-1165" fill="#FD9053" mask="url(#mask-8)" points="18.1403 0.7717 0.9063 10.7217 18.1403 20.6707"></polygon>
                </g>
                <polygon id="Fill-1168" fill="#FD9053" points="87.4233 24.0703 70.1933 14.1223 70.1933 34.0173"></polygon>
                <polygon id="Fill-1170" fill="#FD9053" points="70.1937 87.4205 87.4237 77.4725 70.1937 67.5255"></polygon>
                <polygon id="Fill-1172" fill="#FD9053" points="49.0342 77.4772 66.2642 87.4262 66.2642 67.5272"></polygon>
                <polygon id="Fill-1174" fill="#FD9053" points="70.1937 60.7216 87.4237 50.7726 70.1937 40.8256"></polygon>
                <polygon id="Fill-1176" fill="#FD9053" points="89.3882 47.3685 89.3882 27.4725 72.1572 37.4215"></polygon>
                <polygon id="Fill-1178" fill="#FD9053" points="89.3882 74.0699 89.3882 54.1749 72.1602 64.1229"></polygon>
            </g>
        </g>
    </g>
</svg>