<?xml version="1.0" encoding="UTF-8" standalone="no"?>
<svg width="502px" height="374px" viewBox="0 0 502 374" version="1.1" xmlns="http://www.w3.org/2000/svg" xmlns:xlink="http://www.w3.org/1999/xlink">
    <!-- Generator: Sketch 39.1 (31720) - http://www.bohemiancoding.com/sketch -->
    <title>Post Project Illustration</title>
    <desc>Created with Sketch.</desc>
    <defs>
        <polygon id="path-1" points="0 375 501.287 375 501.287 0.997 0 0.997"></polygon>
    </defs>
    <g id="Page-1" stroke="none" stroke-width="1" fill="none" fill-rule="evenodd">
        <g id="About-Page" transform="translate(-788.000000, -643.000000)">
            <g id="Post-Your-Project" transform="translate(151.000000, 637.000000)">
                <g id="Post-Project-Illustration" transform="translate(637.000000, 5.000000)">
                    <polygon id="Stroke-1" stroke="#ECECED" stroke-width="3" points="59.111 310.8324 9.004 116.7244 189.237 9.6074 195.124 20.0634 23.332 122.4274 70.574 307.2824"></polygon>
                    <g id="Group-112" transform="translate(0.000000, 0.003000)">
                        <path d="M118.8415,327.053 L8.8415,327.053 L8.8415,319.053 C8.8415,312.426 14.2145,307.053 20.8415,307.053 L106.8415,307.053 C113.4685,307.053 118.8415,312.426 118.8415,319.053 L118.8415,327.053 L118.8415,327.053 Z" id="Fill-2" fill="#FFFFFF"></path>
                        <path d="M118.8415,327.053 L8.8415,327.053 L8.8415,319.053 C8.8415,312.426 14.2145,307.053 20.8415,307.053 L106.8415,307.053 C113.4685,307.053 118.8415,312.426 118.8415,319.053 L118.8415,327.053 L118.8415,327.053 Z" id="Stroke-4" stroke="#ECECED" stroke-width="3"></path>
                        <polygon id="Stroke-6" stroke="#ECECED" stroke-width="3" points="475.9899 155.4752 475.9899 28.8942 350.4919 28.8942 350.4919 192.2282 439.2369 192.2282"></polygon>
                        <mask id="mask-2" fill="white">
                            <use xlink:href="#path-1"></use>
                        </mask>
                        <g id="Clip-9"></g>
                        <polygon id="Stroke-8" stroke="#ECECED" stroke-width="3" mask="url(#mask-2)" points="360.492 93.493 465.159 93.493 465.159 57.238 360.492 57.238"></polygon>
                        <path d="M360.492,126.9169 L387.485,126.9169" id="Stroke-10" stroke="#ECECED" stroke-width="3" mask="url(#mask-2)"></path>
                        <path d="M365.0445,133.5836 L382.9325,133.5836" id="Stroke-11" stroke="#ECECED" stroke-width="3" mask="url(#mask-2)"></path>
                        <path d="M397.5216,126.9169 L424.5146,126.9169" id="Stroke-12" stroke="#ECECED" stroke-width="3" mask="url(#mask-2)"></path>
                        <path d="M361.0771,43.1609 L374.5731,43.1609" id="Stroke-13" stroke="#ECECED" stroke-width="3" mask="url(#mask-2)"></path>
                        <path d="M402.0741,133.5836 L419.9621,133.5836" id="Stroke-14" stroke="#ECECED" stroke-width="3" mask="url(#mask-2)"></path>
                        <path d="M439.5552,126.9169 L466.5482,126.9169" id="Stroke-15" stroke="#ECECED" stroke-width="3" mask="url(#mask-2)"></path>
                        <path d="M444.1077,133.5836 L461.9957,133.5836" id="Stroke-16" stroke="#ECECED" stroke-width="3" mask="url(#mask-2)"></path>
                        <path d="M376.952,116.1429 C376.952,118.1109 375.357,119.7059 373.389,119.7059 C371.421,119.7059 369.825,118.1109 369.825,116.1429 C369.825,114.1749 371.421,112.5799 373.389,112.5799 C375.357,112.5799 376.952,114.1749 376.952,116.1429 L376.952,116.1429 Z" id="Stroke-17" stroke="#ECECED" stroke-width="3" mask="url(#mask-2)"></path>
                        <path d="M413.9816,116.1429 C413.9816,118.1109 412.3866,119.7059 410.4186,119.7059 C408.4506,119.7059 406.8546,118.1109 406.8546,116.1429 C406.8546,114.1749 408.4506,112.5799 410.4186,112.5799 C412.3866,112.5799 413.9816,114.1749 413.9816,116.1429 L413.9816,116.1429 Z" id="Stroke-18" stroke="#ECECED" stroke-width="3" mask="url(#mask-2)"></path>
                        <path d="M457.016,116.1429 C457.016,118.1109 455.421,119.7059 453.453,119.7059 C451.485,119.7059 449.889,118.1109 449.889,116.1429 C449.889,114.1749 451.485,112.5799 453.453,112.5799 C455.421,112.5799 457.016,114.1749 457.016,116.1429 L457.016,116.1429 Z" id="Stroke-19" stroke="#ECECED" stroke-width="3" mask="url(#mask-2)"></path>
                        <path d="M354.1587,33.2279 L365.0447,21.8949" id="Stroke-20" stroke="#ECECED" stroke-width="3" mask="url(#mask-2)"></path>
                        <path d="M367.8253,21.8945 C367.8253,23.9195 366.1833,25.5615 364.1583,25.5615 C362.1333,25.5615 360.4923,23.9195 360.4923,21.8945 C360.4923,19.8695 362.1333,18.2275 364.1583,18.2275 C366.1833,18.2275 367.8253,19.8695 367.8253,21.8945" id="Fill-21" fill="#ECECED" mask="url(#mask-2)"></path>
                        <path d="M468.2499,33.2279 L479.1359,21.8949" id="Stroke-22" stroke="#ECECED" stroke-width="3" mask="url(#mask-2)"></path>
                        <path d="M481.9165,21.8945 C481.9165,23.9195 480.2745,25.5615 478.2495,25.5615 C476.2245,25.5615 474.5835,23.9195 474.5835,21.8945 C474.5835,19.8695 476.2245,18.2275 478.2495,18.2275 C480.2745,18.2275 481.9165,19.8695 481.9165,21.8945" id="Fill-23" fill="#ECECED" mask="url(#mask-2)"></path>
                        <path d="M414.9191,327.9972 L414.9191,264.9972 L475.9901,264.9972 L475.9901,328.4352 C475.9901,333.4842 471.8971,337.5772 466.8481,337.5772 L436.6671,337.5772" id="Stroke-24" stroke="#ECECED" stroke-width="3" mask="url(#mask-2)"></path>
                        <path d="M387.485,319.0546 L110.059,319.0546 C104.453,319.0546 99.909,314.5106 99.909,308.9046 L99.909,143.1256 C99.909,137.5206 104.453,132.9756 110.059,132.9756 L377.335,132.9756 C382.941,132.9756 387.485,137.5206 387.485,143.1256 L387.485,319.0546 Z" id="Fill-25" fill="#423D51" mask="url(#mask-2)"></path>
                        <path d="M387.485,319.0546 L110.059,319.0546 C104.453,319.0546 99.909,314.5106 99.909,308.9046 L99.909,143.1256 C99.909,137.5206 104.453,132.9756 110.059,132.9756 L377.335,132.9756 C382.941,132.9756 387.485,137.5206 387.485,143.1256 L387.485,319.0546 L387.485,319.0546 Z" id="Stroke-26" stroke="#423D51" stroke-width="3" mask="url(#mask-2)"></path>
                        <path d="M372.723,310.4291 L114.42,310.4291 C112.084,310.4291 110.191,308.5361 110.191,306.2001 L110.191,147.1541 C110.191,144.8191 112.084,142.9251 114.42,142.9251 L372.723,142.9251 C375.059,142.9251 376.952,144.8191 376.952,147.1541 L376.952,306.2001 C376.952,308.5361 375.059,310.4291 372.723,310.4291" id="Fill-27" fill="#FFFFFF" mask="url(#mask-2)"></path>
                        <path d="M372.723,310.4291 L114.42,310.4291 C112.084,310.4291 110.191,308.5361 110.191,306.2001 L110.191,147.1541 C110.191,144.8191 112.084,142.9251 114.42,142.9251 L372.723,142.9251 C375.059,142.9251 376.952,144.8191 376.952,147.1541 L376.952,306.2001 C376.952,308.5361 375.059,310.4291 372.723,310.4291 L372.723,310.4291 Z" id="Stroke-28" stroke="#423D51" stroke-width="3" mask="url(#mask-2)"></path>
                        <path d="M323.2823,308.8724 L161.1963,308.8724 L161.1963,290.6824 C161.1963,287.9544 163.4073,285.7434 166.1353,285.7434 L318.3433,285.7434 C321.0713,285.7434 323.2823,287.9544 323.2823,290.6824 L323.2823,308.8724 Z" id="Fill-29" fill="#ECECED" mask="url(#mask-2)"></path>
                        <path d="M138.492,167.4972 C138.492,168.3252 137.82,168.9972 136.992,168.9972 C136.164,168.9972 135.492,168.3252 135.492,167.4972 C135.492,166.6692 136.164,165.9972 136.992,165.9972 C137.82,165.9972 138.492,166.6692 138.492,167.4972" id="Fill-30" fill="#FF7A5C" mask="url(#mask-2)"></path>
                        <path d="M144.4968,167.4972 C144.4968,168.3252 143.8248,168.9972 142.9968,168.9972 C142.1688,168.9972 141.4968,168.3252 141.4968,167.4972 C141.4968,166.6692 142.1688,165.9972 142.9968,165.9972 C143.8248,165.9972 144.4968,166.6692 144.4968,167.4972" id="Fill-31" fill="#FFAE38" mask="url(#mask-2)"></path>
                        <path d="M149.992,167.4972 C149.992,168.3252 149.32,168.9972 148.492,168.9972 C147.664,168.9972 146.992,168.3252 146.992,167.4972 C146.992,166.6692 147.664,165.9972 148.492,165.9972 C149.32,165.9972 149.992,166.6692 149.992,167.4972" id="Fill-32" fill="#1FDDB2" mask="url(#mask-2)"></path>
                        <path d="M477.9308,365.9972 L482.1468,365.9972" id="Stroke-33" stroke="#423D51" stroke-width="3" mask="url(#mask-2)"></path>
                        <path d="M325.992,271.4972 L130.492,271.4972 L130.492,164.9972 C130.492,162.7882 132.283,160.9972 134.492,160.9972 L321.992,160.9972 C324.201,160.9972 325.992,162.7882 325.992,164.9972 L325.992,271.4972 L325.992,271.4972 Z" id="Stroke-34" stroke="#423D51" stroke-width="3" mask="url(#mask-2)"></path>
                        <path d="M130.492,173.8305 L325.992,173.8305" id="Stroke-35" stroke="#423D51" stroke-width="3" mask="url(#mask-2)"></path>
                        <polygon id="Fill-36" fill="#FF7A5C" mask="url(#mask-2)" points="148.3412 196.2793 141.9922 192.6133 141.9922 185.2823 148.3412 181.6163 154.6902 185.2823 154.6902 192.6133"></polygon>
                        <path d="M160.3018,188.9479 L174.8428,188.9479" id="Stroke-37" stroke="#FF7A5C" stroke-width="3" mask="url(#mask-2)"></path>
                        <path d="M222.3514,188.9479 L236.8924,188.9479" id="Stroke-38" stroke="#ECECED" stroke-width="3" mask="url(#mask-2)"></path>
                        <path d="M245.3698,188.9479 L263.2338,188.9479" id="Stroke-39" stroke="#ECECED" stroke-width="3" mask="url(#mask-2)"></path>
                        <path d="M251.1339,207.1639 L307.2519,207.1639" id="Stroke-40" stroke="#423D51" stroke-width="3" mask="url(#mask-2)"></path>
                        <path d="M251.1339,219.9972 L301.1089,219.9972" id="Stroke-41" stroke="#423D51" stroke-width="3" mask="url(#mask-2)"></path>
                        <path d="M251.1339,232.8305 L313.0099,232.8305" id="Stroke-42" stroke="#423D51" stroke-width="3" mask="url(#mask-2)"></path>
                        <path d="M251.1339,245.6639 L292.6949,245.6639" id="Stroke-43" stroke="#423D51" stroke-width="3" mask="url(#mask-2)"></path>
                        <path d="M251.1339,258.4972 L307.2519,258.4972" id="Stroke-44" stroke="#423D51" stroke-width="3" mask="url(#mask-2)"></path>
                        <path d="M277.8944,188.9479 L286.9334,188.9479" id="Stroke-45" stroke="#1FDDB2" stroke-width="3" mask="url(#mask-2)"></path>
                        <polygon id="Fill-46" fill="#1FDDB2" mask="url(#mask-2)" points="141.992 260.024 237.035 260.024 237.035 205.843 141.992 205.843"></polygon>
                        <path d="M475.9899,276.298 L485.4319,276.298 C493.3599,276.298 499.7869,282.725 499.7869,290.653 C499.7869,298.581 493.3599,305.008 485.4319,305.008 L475.9899,305.008" id="Stroke-47" stroke="#ECECED" stroke-width="3" mask="url(#mask-2)"></path>
                        <path d="M433.492,256.9972 C433.492,256.9972 443.992,248.4972 433.492,241.4972 C422.992,234.4972 433.492,226.9972 433.492,226.9972" id="Stroke-48" stroke="#ECECED" stroke-width="3" mask="url(#mask-2)"></path>
                        <path d="M450.492,253.9972 C450.492,253.9972 457.417,238.5932 445.454,232.7952" id="Stroke-49" stroke="#ECECED" stroke-width="3" mask="url(#mask-2)"></path>
                        <g id="Group-52" mask="url(#mask-2)">
                            <g transform="translate(99.000000, 312.000000)">
                                <polyline id="Fill-50" stroke="none" fill="#FFFFFF" fill-rule="evenodd" points="393.569 47.486 121.005 47.486 0.909 0.418 0.909 14.429 121.005 61.497 393.569 61.497 393.569 47.486 273.473 0.418"></polyline>
                                <polyline id="Stroke-51" stroke="#423D51" stroke-width="3" fill="none" points="393.569 47.486 121.005 47.486 0.909 0.418 0.909 14.429 121.005 61.497 393.569 61.497 393.569 47.486 273.473 0.418"></polyline>
                            </g>
                        </g>
                        <path d="M372.242,365.6669 L340.242,365.6669 C336.928,365.6669 334.242,362.9809 334.242,359.6669 L334.242,359.6669 L378.242,359.6669 L378.242,359.6669 C378.242,362.9809 375.556,365.6669 372.242,365.6669" id="Fill-53" fill="#423D51" mask="url(#mask-2)"></path>
                        <path d="M372.242,365.6669 L340.242,365.6669 C336.928,365.6669 334.242,362.9809 334.242,359.6669 L334.242,359.6669 L378.242,359.6669 L378.242,359.6669 C378.242,362.9809 375.556,365.6669 372.242,365.6669 L372.242,365.6669 Z" id="Stroke-54" stroke="#423D51" stroke-width="3" mask="url(#mask-2)"></path>
                        <path d="M220.0049,359.6669 L220.0049,373.6779" id="Stroke-55" stroke="#423D51" stroke-width="3" mask="url(#mask-2)"></path>
                        <path d="M162.8895,327.4956 L178.8895,327.4956" id="Stroke-56" stroke="#423D51" stroke-width="3" mask="url(#mask-2)"></path>
                        <path d="M192.9135,327.4956 L208.9135,327.4956" id="Stroke-57" stroke="#423D51" stroke-width="3" mask="url(#mask-2)"></path>
                        <path d="M222.9375,327.4956 L238.9375,327.4956" id="Stroke-58" stroke="#423D51" stroke-width="3" mask="url(#mask-2)"></path>
                        <path d="M252.9615,327.4956 L268.9615,327.4956" id="Stroke-59" stroke="#423D51" stroke-width="3" mask="url(#mask-2)"></path>
                        <path d="M282.9855,327.4956 L298.9855,327.4956" id="Stroke-60" stroke="#423D51" stroke-width="3" mask="url(#mask-2)"></path>
                        <path d="M313.0095,327.4956 L329.0095,327.4956" id="Stroke-61" stroke="#423D51" stroke-width="3" mask="url(#mask-2)"></path>
                        <path d="M343.0335,327.4956 L359.0335,327.4956" id="Stroke-62" stroke="#423D51" stroke-width="3" mask="url(#mask-2)"></path>
                        <path d="M373.0575,327.4956 L389.0575,327.4956" id="Stroke-63" stroke="#423D51" stroke-width="3" mask="url(#mask-2)"></path>
                        <path d="M192.9135,337.5036 L208.9135,337.5036" id="Stroke-64" stroke="#423D51" stroke-width="3" mask="url(#mask-2)"></path>
                        <path d="M222.9375,337.5036 L238.9375,337.5036" id="Stroke-65" stroke="#423D51" stroke-width="3" mask="url(#mask-2)"></path>
                        <path d="M252.9615,337.5036 L268.9615,337.5036" id="Stroke-66" stroke="#423D51" stroke-width="3" mask="url(#mask-2)"></path>
                        <path d="M282.9855,337.5036 L298.9855,337.5036" id="Stroke-67" stroke="#423D51" stroke-width="3" mask="url(#mask-2)"></path>
                        <path d="M313.0095,337.5036 L329.0095,337.5036" id="Stroke-68" stroke="#423D51" stroke-width="3" mask="url(#mask-2)"></path>
                        <path d="M343.0335,337.5036 L359.0335,337.5036" id="Stroke-69" stroke="#423D51" stroke-width="3" mask="url(#mask-2)"></path>
                        <path d="M373.0575,337.5036 L389.0575,337.5036" id="Stroke-70" stroke="#423D51" stroke-width="3" mask="url(#mask-2)"></path>
                        <path d="M403.0815,337.5036 L419.0815,337.5036" id="Stroke-71" stroke="#423D51" stroke-width="3" mask="url(#mask-2)"></path>
                        <path d="M374.8415,352.5674 L315.6925,352.5674 C314.2815,352.5674 312.8805,352.3184 311.5565,351.8324 L297.0495,346.5064 C296.0005,346.1214 296.2765,344.5674 297.3945,344.5674 L356.5435,344.5674 C357.9545,344.5674 359.3545,344.8164 360.6795,345.3024 L375.1865,350.6284 C376.2345,351.0134 375.9585,352.5674 374.8415,352.5674" id="Fill-72" fill="#ECECED" mask="url(#mask-2)"></path>
                        <g id="Group-75" mask="url(#mask-2)">
                            <g transform="translate(275.000000, 365.000000)">
                                <polyline id="Fill-73" stroke="none" fill="#FFFFFF" fill-rule="evenodd" points="0.492 0.4972 10.492 4.4972 0.492 8.4972"></polyline>
                                <polyline id="Stroke-74" stroke="#423D51" stroke-width="3" fill="none" points="0.492 0.4972 10.492 4.4972 0.492 8.4972"></polyline>
                            </g>
                        </g>
                        <polygon id="Fill-76" fill="#FFAE38" mask="url(#mask-2)" points="140.492 373.497 274.492 373.497 274.492 365.497 140.492 365.497"></polygon>
                        <polygon id="Stroke-77" stroke="#423D51" stroke-width="3" mask="url(#mask-2)" points="140.492 373.497 274.492 373.497 274.492 365.497 140.492 365.497"></polygon>
                        <path d="M135.492,373.4972 L141.492,373.4972 L141.492,365.4972 L135.492,365.4972 C133.283,365.4972 131.492,367.2882 131.492,369.4972 L131.492,369.4972 C131.492,371.7062 133.283,373.4972 135.492,373.4972" id="Fill-78" fill="#FF7A5C" mask="url(#mask-2)"></path>
                        <path d="M135.492,373.4972 L141.492,373.4972 L141.492,365.4972 L135.492,365.4972 C133.283,365.4972 131.492,367.2882 131.492,369.4972 L131.492,369.4972 C131.492,371.7062 133.283,373.4972 135.492,373.4972 L135.492,373.4972 Z" id="Stroke-79" stroke="#423D51" stroke-width="3" mask="url(#mask-2)"></path>
                        <polygon id="Fill-80" fill="#FFFFFF" mask="url(#mask-2)" points="139.492 373.5 145.492 373.5 145.492 365.494 139.492 365.494"></polygon>
                        <polygon id="Stroke-81" stroke="#423D51" stroke-width="3" mask="url(#mask-2)" points="139.492 373.5 145.492 373.5 145.492 365.494 139.492 365.494"></polygon>
                        <path d="M35.5,122.4972 C35.5,131.8862 27.889,139.4972 18.5,139.4972 C9.111,139.4972 1.5,131.8862 1.5,122.4972 C1.5,113.1082 9.111,105.4972 18.5,105.4972 C27.889,105.4972 35.5,113.1082 35.5,122.4972" id="Fill-82" fill="#FFFFFF" mask="url(#mask-2)"></path>
                        <path d="M35.5,122.4972 C35.5,131.8862 27.889,139.4972 18.5,139.4972 C9.111,139.4972 1.5,131.8862 1.5,122.4972 C1.5,113.1082 9.111,105.4972 18.5,105.4972 C27.889,105.4972 35.5,113.1082 35.5,122.4972 L35.5,122.4972 Z" id="Stroke-83" stroke="#ECECED" stroke-width="3" mask="url(#mask-2)"></path>
                        <path d="M28.9787,122.4972 C28.9787,128.2842 24.2877,132.9762 18.4997,132.9762 C12.7127,132.9762 8.0217,128.2842 8.0217,122.4972 C8.0217,116.7102 12.7127,112.0182 18.4997,112.0182 C24.2877,112.0182 28.9787,116.7102 28.9787,122.4972" id="Fill-84" fill="#FFFFFF" mask="url(#mask-2)"></path>
                        <path d="M28.9787,122.4972 C28.9787,128.2842 24.2877,132.9762 18.4997,132.9762 C12.7127,132.9762 8.0217,128.2842 8.0217,122.4972 C8.0217,116.7102 12.7127,112.0182 18.4997,112.0182 C24.2877,112.0182 28.9787,116.7102 28.9787,122.4972 L28.9787,122.4972 Z" id="Stroke-85" stroke="#ECECED" stroke-width="3" mask="url(#mask-2)"></path>
                        <path d="M200.9135,28.8945 L183.4925,28.8945 L183.4925,11.2075 C183.4925,6.3975 187.3915,2.4975 192.2025,2.4975 L192.2025,2.4975 C197.0135,2.4975 200.9135,6.3975 200.9135,11.2075 L200.9135,28.8945 Z" id="Fill-86" fill="#FFFFFF" mask="url(#mask-2)"></path>
                        <path d="M200.9135,28.8945 L183.4925,28.8945 L183.4925,11.2075 C183.4925,6.3975 187.3915,2.4975 192.2025,2.4975 L192.2025,2.4975 C197.0135,2.4975 200.9135,6.3975 200.9135,11.2075 L200.9135,28.8945 L200.9135,28.8945 Z" id="Stroke-87" stroke="#ECECED" stroke-width="3" mask="url(#mask-2)"></path>
                        <polygon id="Fill-88" fill="#FFFFFF" mask="url(#mask-2)" points="232.9699 81.2335 152.8569 81.2335 174.9699 23.2335 210.8569 23.2335"></polygon>
                        <polygon id="Stroke-89" stroke="#ECECED" stroke-width="3" mask="url(#mask-2)" points="232.9699 81.2335 152.8569 81.2335 174.9699 23.2335 210.8569 23.2335"></polygon>
                        <path d="M247.492,138.4972 C247.492,139.6022 246.597,140.4972 245.492,140.4972 C244.387,140.4972 243.492,139.6022 243.492,138.4972 C243.492,137.3922 244.387,136.4972 245.492,136.4972 C246.597,136.4972 247.492,137.3922 247.492,138.4972" id="Fill-90" fill="#FFFFFF" mask="url(#mask-2)"></path>
                        <path d="M156.0731,72.7979 L229.4671,72.7979" id="Stroke-91" stroke="#ECECED" stroke-width="3" mask="url(#mask-2)"></path>
                        <path d="M183.3756,297.6846 C183.3756,300.5496 181.0536,302.8716 178.1886,302.8716 C175.3236,302.8716 173.0006,300.5496 173.0006,297.6846 C173.0006,294.8196 175.3236,292.4976 178.1886,292.4976 C181.0536,292.4976 183.3756,294.8196 183.3756,297.6846" id="Fill-92" fill="#FFFFFF" mask="url(#mask-2)"></path>
                        <path d="M183.3756,297.6846 C183.3756,300.5496 181.0536,302.8716 178.1886,302.8716 C175.3236,302.8716 173.0006,300.5496 173.0006,297.6846 C173.0006,294.8196 175.3236,292.4976 178.1886,292.4976 C181.0536,292.4976 183.3756,294.8196 183.3756,297.6846 L183.3756,297.6846 Z" id="Stroke-93" stroke="#1FDDB2" stroke-width="3" mask="url(#mask-2)"></path>
                        <path d="M259.4027,297.6846 C259.4027,300.5496 257.0807,302.8716 254.2157,302.8716 C251.3507,302.8716 249.0277,300.5496 249.0277,297.6846 C249.0277,294.8196 251.3507,292.4976 254.2157,292.4976 C257.0807,292.4976 259.4027,294.8196 259.4027,297.6846" id="Fill-94" fill="#FFFFFF" mask="url(#mask-2)"></path>
                        <path d="M259.4027,297.6846 C259.4027,300.5496 257.0807,302.8716 254.2157,302.8716 C251.3507,302.8716 249.0277,300.5496 249.0277,297.6846 C249.0277,294.8196 251.3507,292.4976 254.2157,292.4976 C257.0807,292.4976 259.4027,294.8196 259.4027,297.6846 L259.4027,297.6846 Z" id="Stroke-95" stroke="#FFAE38" stroke-width="3" mask="url(#mask-2)"></path>
                        <polygon id="Fill-96" fill="#FFFFFF" mask="url(#mask-2)" points="198.343 302.872 208.718 302.872 208.718 292.497 198.343 292.497"></polygon>
                        <polygon id="Stroke-97" stroke="#FFAE38" stroke-width="3" mask="url(#mask-2)" points="198.343 302.872 208.718 302.872 208.718 292.497 198.343 292.497"></polygon>
                        <polygon id="Fill-98" fill="#FFFFFF" mask="url(#mask-2)" points="274.37 302.872 284.745 302.872 284.745 292.497 274.37 292.497"></polygon>
                        <polygon id="Stroke-99" stroke="#1FDDB2" stroke-width="3" mask="url(#mask-2)" points="274.37 302.872 284.745 302.872 284.745 292.497 274.37 292.497"></polygon>
                        <polygon id="Fill-100" fill="#FFFFFF" mask="url(#mask-2)" points="228.8729 293.5343 223.5389 302.8723 234.2069 302.8723"></polygon>
                        <polygon id="Stroke-101" stroke="#FF7A5C" stroke-width="3" mask="url(#mask-2)" points="228.8729 293.5343 223.5389 302.8723 234.2069 302.8723"></polygon>
                        <polygon id="Fill-102" fill="#FFFFFF" mask="url(#mask-2)" points="304.9001 293.5343 299.5661 302.8723 310.2341 302.8723"></polygon>
                        <polygon id="Stroke-103" stroke="#FFAE38" stroke-width="3" mask="url(#mask-2)" points="304.9001 293.5343 299.5661 302.8723 310.2341 302.8723"></polygon>
                        <polygon id="Stroke-104" stroke="#1FDDB2" stroke-width="3" mask="url(#mask-2)" points="294.492 193.622 314.742 193.622 314.742 183.747 294.492 183.747"></polygon>
                        <polygon id="Stroke-105" stroke="#ECECED" stroke-width="3" mask="url(#mask-2)" points="347.254 172.399 357.254 172.399 357.254 162.399 347.254 162.399"></polygon>
                        <path d="M339.4781,182.1495 L365.0301,182.1495" id="Stroke-106" stroke="#ECECED" stroke-width="3" mask="url(#mask-2)"></path>
                        <polygon id="Stroke-107" stroke="#ECECED" stroke-width="3" mask="url(#mask-2)" points="347.254 212.431 357.254 212.431 357.254 202.431 347.254 202.431"></polygon>
                        <path d="M339.4781,222.1815 L365.0301,222.1815" id="Stroke-108" stroke="#ECECED" stroke-width="3" mask="url(#mask-2)"></path>
                        <polygon id="Stroke-109" stroke="#ECECED" stroke-width="3" mask="url(#mask-2)" points="347.254 252.463 357.254 252.463 357.254 242.463 347.254 242.463"></polygon>
                        <path d="M339.4781,262.2135 L365.0301,262.2135" id="Stroke-110" stroke="#ECECED" stroke-width="3" mask="url(#mask-2)"></path>
                        <polyline id="Stroke-111" stroke="#ECECED" stroke-width="3" mask="url(#mask-2)" points="475.9899 155.4752 439.2369 155.4752 439.2369 192.2282"></polyline>
                    </g>
                </g>
            </g>
        </g>
    </g>
</svg>