<?xml version="1.0" encoding="UTF-8"?>
<svg width="59px" height="60px" viewBox="0 0 59 60" version="1.1" xmlns="http://www.w3.org/2000/svg" xmlns:xlink="http://www.w3.org/1999/xlink">
    <!-- Generator: Sketch 43.1 (39012) - http://www.bohemiancoding.com/sketch -->
    <title>Emoji</title>
    <desc>Created with Sketch.</desc>
    <defs>
        <polygon id="path-1" points="0 60 58.4371634 60 58.4371634 0 0 0"></polygon>
    </defs>
    <g id="Proposal_Update_Feb" stroke="none" stroke-width="1" fill="none" fill-rule="evenodd">
        <g id="Proposal_ConfirmationRouter_v1_2917@2x" transform="translate(-507.000000, -137.000000)">
            <g id="Emoji" transform="translate(507.000000, 137.000000)">
                <polygon id="Fill-1" fill="#EDBB9F" points="4.40095215 60 17.6418762 60 17.6418762 43.3333333 4.40095215 43.3333333"></polygon>
                <polygon id="Fill-2" fill="#EDBB9F" points="40.8134934 60 54.0527624 60 54.0527624 43.3333333 40.8134934 43.3333333"></polygon>
                <g id="Group-15">
                    <path d="M54.053921,50 C54.053921,50 49.0885744,53.3333333 40.8129969,51.6666667 L40.8129969,43.3333333 L54.053921,43.3333333 L54.053921,50 L54.053921,50 Z" id="Fill-3" fill="#D79E84"></path>
                    <path d="M4.40045561,50 C4.40045561,50 9.36580215,53.3333333 17.6413797,51.6666667 L17.6413797,43.3333333 L4.40045561,43.3333333 L4.40045561,50 Z" id="Fill-5" fill="#D79E84"></path>
                    <mask id="mask-2" fill="white">
                        <use xlink:href="#path-1"></use>
                    </mask>
                    <g id="Clip-8"></g>
                    <polygon id="Fill-7" fill="#D79E84" mask="url(#mask-2)" points="6.05606766 43.3333333 19.2969917 43.3333333 19.2969917 30 6.05606766 30"></polygon>
                    <polygon id="Fill-9" fill="#D79E84" mask="url(#mask-2)" points="39.1583779 43.3333333 52.399302 43.3333333 52.399302 30 39.1583779 30"></polygon>
                    <path d="M0.0518051155,19.7256667 C0.0518051155,19.7256667 0.056770462,17.684 2.08263185,17.689 C4.11180347,17.6956667 4.105183,19.7373333 4.105183,19.7373333 L4.07539092,29.2106667 C4.39648333,29.0606667 4.73578201,28.9256667 5.08832162,28.809 L5.1296995,15.6606667 C5.1296995,15.6606667 5.13797508,13.619 7.16052624,13.6256667 C9.18804274,13.6306667 9.18307739,15.674 9.18307739,15.674 L9.14666485,28.0406667 C9.47603284,28.0123333 9.81533152,27.9873333 10.1562853,27.9723333 L10.2026285,13.6356667 C10.2026285,13.6356667 10.2075939,11.594 12.2351104,11.6006667 C14.2626269,11.609 14.2543513,13.649 14.2543513,13.649 L14.2080081,27.984 C14.5555823,28.0023333 14.8882606,28.039 15.224249,28.069 L15.2656269,14.6723333 C15.2656269,14.6723333 15.2739025,12.6306667 17.2964536,12.639 C19.3239701,12.644 19.3140394,14.684 19.3140394,14.684 L19.2743167,28.8523333 L19.2693513,29.9873333 L19.2693513,31.0056667 C13.1884569,30.9906667 9.11852789,36.0756667 9.10032162,41.179 C9.10032162,42.199 10.1132523,42.2056667 10.1132523,42.2056667 C10.1298035,36.0756667 14.1964223,32.014 20.2789718,32.0306667 L23.2581797,25.0506667 C23.2581797,25.0506667 23.9119503,23.1206667 25.8335394,23.7806667 C27.7501632,24.434 27.0997028,26.369 27.0997028,26.369 L25.6216847,31.5423333 C25.0357738,33.6006667 24.4895856,35.6706667 24.1999404,37.784 C23.3756929,43.7573333 18.2746269,48.349 12.1192523,48.334 C5.40775891,48.3056667 -0.021019967,42.809 0.000496534654,36.049 C0.00215165017,35.694 0.0236681518,35.3523333 0.056770462,35.0323333 L0.00380676568,35.0256667 L0.0518051155,19.7256667 Z" id="Fill-10" fill="#EDBB9F" mask="url(#mask-2)"></path>
                    <path d="M58.3856893,19.7256667 C58.3856893,19.7256667 58.3807239,17.684 56.3548625,17.689 C54.3256909,17.6956667 54.3323114,19.7373333 54.3323114,19.7373333 L54.3621035,29.2106667 C54.0410111,29.0606667 53.7017124,28.9256667 53.3491728,28.809 L53.3077949,15.6606667 C53.3077949,15.6606667 53.3011744,13.619 51.2769682,13.6256667 C49.2494517,13.6306667 49.254417,15.674 49.254417,15.674 L49.2908295,28.0406667 C48.9631167,28.0123333 48.623818,27.9873333 48.2812091,27.9723333 L48.2348658,13.6356667 C48.2348658,13.6356667 48.2282454,11.594 46.202384,11.6006667 C44.1748675,11.609 44.1831431,13.649 44.1831431,13.649 L44.2294863,27.984 C43.881912,28.0023333 43.5475787,28.039 43.2132454,28.069 L43.1718675,14.6723333 C43.1718675,14.6723333 43.1635919,12.6306667 41.1393856,12.639 C39.1135243,12.644 39.1217998,14.684 39.1217998,14.684 L39.1631777,28.8523333 L39.1681431,29.9873333 L39.1681431,31.0056667 C45.2490375,30.9906667 49.3173114,36.0756667 49.3371728,41.179 C49.3371728,42.199 48.3242421,42.2056667 48.3242421,42.2056667 C48.3060358,36.0756667 44.239417,32.014 38.1585226,32.0306667 L35.1793147,25.0506667 C35.1793147,25.0506667 34.5255441,23.1206667 32.603955,23.7806667 C30.6889863,24.434 31.3377916,26.369 31.3377916,26.369 L32.8158097,31.5423333 C33.4000655,33.6006667 33.9479087,35.6706667 34.237554,37.784 C35.0618015,43.7573333 40.1628675,48.349 46.3182421,48.334 C53.0297355,48.3056667 58.4601695,42.809 58.4369979,36.049 C58.4353427,35.694 58.4154814,35.3523333 58.3807239,35.0323333 L58.4336876,35.0256667 L58.3856893,19.7256667 Z" id="Fill-11" fill="#EDBB9F" mask="url(#mask-2)"></path>
                    <path d="M38.3981833,10.7641667 C38.0456437,10.7641667 37.6881388,10.6508333 37.3885629,10.4175 C36.6636223,9.85416667 36.531213,8.8075 37.0906421,8.07916667 L42.0195761,1.65416667 C42.5740398,0.9275 43.6167625,0.7875 44.3417031,1.35416667 C45.0649886,1.91583333 45.1973979,2.9625 44.6379688,3.69083333 L39.7090348,10.1158333 C39.3846322,10.5408333 38.894718,10.7641667 38.3981833,10.7641667" id="Fill-12" fill="#FFAC33" mask="url(#mask-2)"></path>
                    <path d="M20.1588104,10.7641667 C19.6639309,10.7641667 19.1740167,10.5408333 18.8479589,10.1158333 L13.9173698,3.69083333 C13.3595959,2.9625 13.4936602,1.91583333 14.2169457,1.35416667 C14.9402312,0.7925 15.9779886,0.924166667 16.5374177,1.65416667 L21.4680068,8.07916667 C22.0257807,8.8075 21.8933715,9.85416667 21.170086,10.4175 C20.868855,10.6508333 20.5130051,10.7641667 20.1588104,10.7641667" id="Fill-13" fill="#FFAC33" mask="url(#mask-2)"></path>
                    <path d="M29.2271883,10 C28.3135645,10 27.5720728,9.25333333 27.5720728,8.33333333 L27.5720728,1.66666667 C27.5720728,0.746666667 28.3135645,0 29.2271883,0 C30.1424672,0 30.8823038,0.746666667 30.8823038,1.66666667 L30.8823038,8.33333333 C30.8823038,9.25333333 30.1424672,10 29.2271883,10" id="Fill-14" fill="#FFAC33" mask="url(#mask-2)"></path>
                </g>
            </g>
        </g>
    </g>
</svg>