<?xml version="1.0" encoding="UTF-8" standalone="no"?>
<svg width="171px" height="24px" viewBox="0 0 171 24" version="1.1" xmlns="http://www.w3.org/2000/svg" xmlns:xlink="http://www.w3.org/1999/xlink">
    <!-- Generator: Sketch 42 (36781) - http://www.bohemiancoding.com/sketch -->
    <title>TechCrunch-Logo</title>
    <desc>Created with Sketch.</desc>
    <defs></defs>
    <g id="Page-1" stroke="none" stroke-width="1" fill="none" fill-rule="evenodd">
        <g id="TechCrunch-Logo" fill-rule="nonzero" fill="#7C7986">
            <g id="Group" transform="translate(56.000000, 5.000000)">
                <polygon id="Shape" points="7.974 4.377 7.974 15 4.093 15 4.093 4.377 0.172 4.377 0.172 0.996 11.895 0.996 11.895 4.377"></polygon>
                <path d="M20.954,10.779 L14.793,10.779 C14.913,11.939 15.593,12.459 16.573,12.459 C17.493,12.459 18.254,12.259 19.294,11.719 L20.674,14.02 C19.374,14.78 18.033,15.22 16.394,15.22 C13.233,15.22 11.493,12.979 11.493,9.758 C11.493,6.138 13.533,4.278 16.294,4.278 C19.175,4.278 20.976,6.178 20.976,10.079 C20.975,10.379 20.975,10.599 20.954,10.779 Z M16.193,6.938 C15.373,6.938 14.913,7.498 14.793,8.538 L17.794,8.538 C17.613,7.478 17.253,6.938 16.193,6.938 Z" id="Shape"></path>
                <path d="M27.653,15.22 C24.573,15.22 22.732,13.26 22.732,9.719 C22.732,6.498 24.373,4.278 27.733,4.278 C29.713,4.278 30.854,5.198 31.774,6.678 L29.294,8.558 C28.794,7.638 28.453,7.198 27.674,7.198 C26.753,7.198 26.293,8.118 26.293,9.779 C26.293,11.44 26.793,12.3 27.773,12.3 C28.453,12.3 28.933,11.92 29.593,10.94 L31.873,12.72 C30.654,14.52 29.514,15.22 27.653,15.22 Z" id="Shape"></path>
                <path d="M39.934,15 L39.934,9.038 C39.934,7.678 39.474,7.318 38.734,7.318 C37.973,7.318 37.513,7.678 37.513,8.998 L37.513,15 L33.912,15 L33.912,1.857 L37.513,0.417 L37.513,5.198 C38.173,4.698 38.913,4.278 40.154,4.278 C42.455,4.278 43.555,5.818 43.555,8.579 L43.555,15 L39.934,15 Z" id="Shape"></path>
                <path d="M52.174,15.22 C48.013,15.22 45.792,12.139 45.792,7.998 C45.792,3.497 48.433,0.776 52.193,0.776 C55.634,0.776 56.995,2.256 57.955,4.897 L54.434,6.277 C53.933,4.977 53.454,4.156 52.173,4.156 C50.553,4.156 49.853,5.776 49.853,7.997 C49.853,10.138 50.533,11.838 52.213,11.838 C53.433,11.838 53.953,11.178 54.713,9.858 L57.994,11.598 C57.055,13.439 55.494,15.22 52.174,15.22 Z" id="Shape"></path>
                <path d="M66.853,8.458 C66.393,7.958 65.874,7.578 65.173,7.578 C64.292,7.578 63.752,7.998 63.752,9.278 L63.752,15 L60.151,15 L60.151,4.497 L63.752,4.497 L63.752,5.257 C64.372,4.657 65.072,4.277 65.993,4.277 C66.753,4.277 67.273,4.457 67.693,4.717 L66.853,8.458 Z" id="Shape"></path>
                <path d="M75.413,15 L75.413,14.299 C74.772,14.799 74.013,15.22 72.793,15.22 C70.492,15.22 69.392,13.68 69.392,10.918 L69.392,4.497 L73.013,4.497 L73.013,10.459 C73.013,11.818 73.473,12.179 74.213,12.179 C74.953,12.179 75.413,11.819 75.413,10.498 L75.413,4.497 L79.034,4.497 L79.034,15 L75.413,15 Z" id="Shape"></path>
                <path d="M87.653,15 L87.653,9.038 C87.653,7.678 87.193,7.318 86.453,7.318 C85.692,7.318 85.232,7.678 85.232,8.998 L85.232,15 L81.631,15 L81.631,4.497 L85.232,4.497 L85.232,5.197 C85.892,4.697 86.632,4.277 87.873,4.277 C90.174,4.277 91.274,5.817 91.274,8.578 L91.274,15 L87.653,15 Z" id="Shape"></path>
                <path d="M98.292,15.22 C95.212,15.22 93.371,13.26 93.371,9.719 C93.371,6.498 95.012,4.278 98.372,4.278 C100.352,4.278 101.493,5.198 102.413,6.678 L99.933,8.558 C99.433,7.638 99.092,7.198 98.313,7.198 C97.392,7.198 96.932,8.118 96.932,9.779 C96.932,11.44 97.432,12.3 98.412,12.3 C99.092,12.3 99.572,11.92 100.232,10.94 L102.512,12.72 C101.293,14.52 100.152,15.22 98.292,15.22 Z" id="Shape"></path>
                <path d="M110.572,15 L110.572,9.038 C110.572,7.678 110.112,7.318 109.372,7.318 C108.611,7.318 108.151,7.678 108.151,8.998 L108.151,15 L104.55,15 L104.55,1.857 L108.151,0.417 L108.151,5.198 C108.811,4.698 109.551,4.278 110.792,4.278 C113.093,4.278 114.193,5.818 114.193,8.579 L114.193,15 L110.572,15 Z" id="Shape"></path>
            </g>
            <g id="Group">
                <polygon id="Shape" points="0 0 0 8 8 8 8 24 16 24 16 8 24 8 24 0"></polygon>
                <polygon id="Shape" points="32 16 32 8 24 8 24 24 48 24 48 16"></polygon>
                <rect id="Rectangle-path" x="32" y="0" width="16" height="8"></rect>
            </g>
        </g>
    </g>
</svg>