<?xml version="1.0" encoding="UTF-8" standalone="no"?>
<svg width="872px" height="65px" viewBox="0 0 872 65" version="1.1" xmlns="http://www.w3.org/2000/svg" xmlns:xlink="http://www.w3.org/1999/xlink">
    <!-- Generator: Sketch 39.1 (31720) - http://www.bohemiancoding.com/sketch -->
    <title>austin-logo</title>
    <desc>Created with Sketch.</desc>
    <defs></defs>
    <g id="Outlined-black-for-footer" stroke="none" stroke-width="1" fill="none" fill-rule="evenodd">
        <g id="austin-logo" transform="translate(-22.000000, -46.000000)" fill="#000000">
            <path d="M47.964,110 L54.476,110 L43.388,47.08 L33.444,47.08 L22.268,110 L28.516,110 L31.156,94.16 L45.236,94.16 L47.964,110 Z M38.196,52.272 L44.356,89.056 L31.948,89.056 L38.196,52.272 Z M87.516,47.08 L87.516,94.16 C87.516,102.08 84.436,105.248 78.892,105.248 C73.172,105.248 70.268,102.08 70.268,94.688 L70.268,47.08 L63.668,47.08 L63.668,94.864 C63.668,105.688 69.652,110.792 78.892,110.792 C88.66,110.792 94.116,105.424 94.116,94.6 L94.116,47.08 L87.516,47.08 Z M119.676,110.792 C127.948,110.792 133.492,105.952 133.492,95.568 L133.492,94.248 C133.492,84.04 129.356,80.08 121.172,74.008 C114.484,68.992 112.108,66.264 112.108,60.016 L112.108,59.664 C112.108,54.384 114.66,51.744 119.148,51.744 C123.548,51.744 126.364,53.944 126.364,60.28 L126.364,62.48 L132.524,62.48 L132.524,60.28 C132.524,50.864 127.596,46.288 119.148,46.288 C111.052,46.288 105.86,51.304 105.86,60.104 L105.86,60.368 C105.86,69.256 109.996,73.656 117.212,79.112 C124.076,84.392 127.156,87.208 127.156,94.6 L127.156,95.832 C127.156,102.08 124.428,105.336 119.676,105.336 C113.868,105.336 111.404,102.168 111.404,95.04 L111.404,92.928 L105.068,92.928 L105.068,95.04 C105.068,105.16 110.26,110.792 119.676,110.792 L119.676,110.792 Z M152.012,110 L158.524,110 L158.612,52.36 L169.524,52.36 L169.524,47.08 L141.188,47.08 L141.188,52.36 L152.012,52.36 L152.012,110 Z M180.212,110 L186.812,110 L186.812,47.08 L180.212,47.08 L180.212,110 Z M200.228,110 L206.212,110 L206.212,59.488 L223.196,110 L230.06,110 L230.06,47.08 L224.164,47.08 L224.164,93.808 L208.236,47.08 L200.228,47.08 L200.228,110 Z M257.42,110 L275.108,110 C286.9,110 293.148,105.776 293.148,94.16 L293.148,90.112 C293.148,82.104 289.012,78.232 282.324,76.912 C288.044,75.592 291.74,72.16 291.74,65.56 L291.74,61.16 C291.74,51.568 286.196,47.08 274.756,47.08 L257.42,47.08 L257.42,110 Z M270.708,100.408 L270.708,81.576 L273.612,81.576 C277.924,81.576 279.684,82.896 279.684,88.616 L279.684,93.104 C279.684,98.384 277.924,100.408 273.876,100.408 L270.708,100.408 Z M270.708,72.512 L270.708,56.672 L273.524,56.672 C277.044,56.672 278.892,57.64 278.892,62.392 L278.892,66.352 C278.892,71.016 277.396,72.512 273.524,72.512 L270.708,72.512 Z M325.308,47.08 L325.308,92.84 C325.308,98.12 323.9,99.968 320.556,99.968 C316.948,99.968 315.716,98.12 315.716,92.928 L315.716,47.08 L302.164,47.08 L302.164,93.192 C302.164,105.424 308.764,110.968 320.468,110.968 C332.084,110.968 338.948,105.512 338.948,93.28 L338.948,47.08 L325.308,47.08 Z M365.124,110.968 C376.3,110.968 382.548,105.248 382.548,93.808 L382.548,92.576 C382.548,80.256 376.124,76.472 368.644,71.72 C363.188,68.024 361.252,66.44 361.252,61.952 L361.252,61.6 C361.252,58.08 362.484,56.672 365.036,56.672 C367.412,56.672 369.084,57.816 369.084,62.304 L369.084,64.328 L381.844,64.328 L381.844,62.48 C381.756,51.392 375.684,46.2 365.036,46.2 C354.212,46.2 348.052,52.008 348.052,62.48 L348.052,62.832 C348.052,73.216 352.364,77.88 360.548,83.072 C366.18,86.768 369.26,88.528 369.26,94.16 L369.26,94.864 C369.26,98.912 367.94,100.672 365.124,100.672 C361.868,100.672 360.548,99 360.548,93.896 L360.548,91.432 L347.436,91.432 L347.436,93.456 C347.524,106.04 354.388,110.968 365.124,110.968 L365.124,110.968 Z M392.092,110 L405.732,110 L405.732,47.08 L392.092,47.08 L392.092,110 Z M416.42,110 L428.124,110 L428.124,70.928 L440.62,110 L453.468,110 L453.468,47.08 L441.676,47.08 L441.676,80.696 L431.028,47.08 L416.42,47.08 L416.42,110 Z M463.892,110 L493.284,110 L493.284,99.352 L477.444,99.352 L477.444,81.928 L489.236,81.928 L489.236,71.808 L477.444,71.808 L477.444,57.728 L492.404,57.728 L492.404,47.08 L463.892,47.08 L463.892,110 Z M518.58,110.968 C529.756,110.968 536.004,105.248 536.004,93.808 L536.004,92.576 C536.004,80.256 529.58,76.472 522.1,71.72 C516.644,68.024 514.708,66.44 514.708,61.952 L514.708,61.6 C514.708,58.08 515.94,56.672 518.492,56.672 C520.868,56.672 522.54,57.816 522.54,62.304 L522.54,64.328 L535.3,64.328 L535.3,62.48 C535.212,51.392 529.14,46.2 518.492,46.2 C507.668,46.2 501.508,52.008 501.508,62.48 L501.508,62.832 C501.508,73.216 505.82,77.88 514.004,83.072 C519.636,86.768 522.716,88.528 522.716,94.16 L522.716,94.864 C522.716,98.912 521.396,100.672 518.58,100.672 C515.324,100.672 514.004,99 514.004,93.896 L514.004,91.432 L500.892,91.432 L500.892,93.456 C500.98,106.04 507.844,110.968 518.58,110.968 L518.58,110.968 Z M561.3,110.968 C572.476,110.968 578.724,105.248 578.724,93.808 L578.724,92.576 C578.724,80.256 572.3,76.472 564.82,71.72 C559.364,68.024 557.428,66.44 557.428,61.952 L557.428,61.6 C557.428,58.08 558.66,56.672 561.212,56.672 C563.588,56.672 565.26,57.816 565.26,62.304 L565.26,64.328 L578.02,64.328 L578.02,62.48 C577.932,51.392 571.86,46.2 561.212,46.2 C550.388,46.2 544.228,52.008 544.228,62.48 L544.228,62.832 C544.228,73.216 548.54,77.88 556.724,83.072 C562.356,86.768 565.436,88.528 565.436,94.16 L565.436,94.864 C565.436,98.912 564.116,100.672 561.3,100.672 C558.044,100.672 556.724,99 556.724,93.896 L556.724,91.432 L543.612,91.432 L543.612,93.456 C543.7,106.04 550.564,110.968 561.3,110.968 L561.3,110.968 Z M607.58,110.528 C617.964,110.528 623.42,104.72 623.42,93.896 L623.42,47.08 L609.78,47.08 L609.78,93.28 C609.78,97.68 607.844,99.176 604.412,99.176 C602.564,99.176 601.332,98.912 600.276,98.648 L600.276,109.208 C601.86,109.912 603.972,110.528 607.58,110.528 L607.58,110.528 Z M652.148,110.968 C663.852,110.968 671.42,104.896 671.42,91.784 L671.42,65.032 C671.42,51.832 663.588,46.2 652.148,46.2 C641.06,46.2 632.964,52.184 632.964,65.12 L632.964,92.136 C632.964,105.072 640.444,110.968 652.148,110.968 L652.148,110.968 Z M652.148,100.056 C648.452,100.056 646.78,97.768 646.78,92.048 L646.78,65.032 C646.78,59.4 648.54,57.112 652.148,57.112 C655.844,57.112 657.604,59.576 657.604,65.032 L657.604,91.96 C657.604,97.68 655.844,100.056 652.148,100.056 L652.148,100.056 Z M704.372,47.08 L704.372,92.84 C704.372,98.12 702.964,99.968 699.62,99.968 C696.012,99.968 694.78,98.12 694.78,92.928 L694.78,47.08 L681.228,47.08 L681.228,93.192 C681.228,105.424 687.828,110.968 699.532,110.968 C711.148,110.968 718.012,105.512 718.012,93.28 L718.012,47.08 L704.372,47.08 Z M728.26,110 L741.812,110 L741.812,83.776 L744.276,83.776 L751.228,110 L765.308,110 L757.036,81.664 C761.172,79.64 763.548,76.296 763.548,69.168 L763.548,62.744 C763.548,52.272 758.62,47.08 745.42,47.08 L728.26,47.08 L728.26,110 Z M741.812,75.064 L741.812,57.464 L744.98,57.464 C748.764,57.464 750.348,58.96 750.348,63.184 L750.348,68.992 C750.348,73.48 748.676,75.064 744.98,75.064 L741.812,75.064 Z M773.532,110 L785.236,110 L785.236,70.928 L797.732,110 L810.58,110 L810.58,47.08 L798.788,47.08 L798.788,80.696 L788.14,47.08 L773.532,47.08 L773.532,110 Z M844.148,110 L857.876,110 L847.844,47.08 L828.396,47.08 L818.452,110 L830.86,110 L832.532,97.152 L842.388,97.152 L844.148,110 Z M837.46,59.136 L841.156,87.736 L833.764,87.736 L837.46,59.136 Z M865.748,110 L893.468,110 L893.468,99.176 L879.3,99.176 L879.3,47.08 L865.748,47.08 L865.748,110 Z" id="AUSTIN-BUSINESS-JOUR"></path>
        </g>
    </g>
</svg>