<?xml version="1.0" encoding="UTF-8" standalone="no"?>
<svg width="637px" height="146px" viewBox="0 0 637 146" version="1.1" xmlns="http://www.w3.org/2000/svg" xmlns:xlink="http://www.w3.org/1999/xlink">
    <!-- Generator: Sketch 42 (36781) - http://www.bohemiancoding.com/sketch -->
    <title>Austin-Business-Journal-Logo</title>
    <desc>Created with Sketch.</desc>
    <defs></defs>
    <g id="Page-1" stroke="none" stroke-width="1" fill="none" fill-rule="evenodd">
        <g id="Austin-Business-Journal-Logo" fill="#7C7986">
            <path d="M528.528,144.46 L516.604,144.46 L516.604,81.672 C516.581,81.694 516.634,81.627 516.704,81.584 C516.767,81.544 516.848,81.508 516.92,81.508 C521.737,81.505 526.556,81.505 531.275,81.505 C534.783,92.585 538.254,103.551 541.724,114.518 C541.802,114.512 541.879,114.506 541.957,114.5 L541.957,81.581 L553.353,81.581 C553.536,81.764 553.771,81.999 553.962,82.191 L553.962,144.449 L541.001,144.449 C538.681,138.315 536.938,131.903 534.875,125.599 C532.81,119.286 530.794,112.956 528.743,106.593 C528.808,106.593 528.736,106.572 528.693,106.598 C528.627,106.64 528.533,106.714 528.533,106.775 C528.527,119.267 528.528,131.76 528.528,144.46 Z" id="Shape"></path>
            <path d="M184.51,82.254 L185.198,81.566 L196.448,81.566 L196.448,144.398 L183.7,144.398 C179.755,132.038 175.767,119.544 171.78,107.053 C171.738,107.077 171.668,107.099 171.624,107.147 C171.574,107.203 171.514,107.28 171.514,107.348 C171.51,119.669 171.51,131.99 171.51,144.41 L159.558,144.41 L159.558,81.599 L173.987,81.599 C174.279,82.273 174.724,83.092 174.998,83.965 C176.525,88.833 177.996,93.718 179.516,98.589 C180.828,102.792 182.181,106.982 183.509,111.178 C183.743,111.916 183.947,112.663 184.163,113.407 C184.222,113.414 184.294,113.446 184.336,113.423 C184.405,113.384 184.504,113.31 184.504,113.25 C184.511,102.92 184.51,92.591 184.51,82.254 Z" id="Shape"></path>
            <path d="M414.522,112.83 C414.522,117.993 414.491,123.156 414.542,128.319 C414.557,129.818 413.633,134.18 412.69,136.053 C411.239,138.937 410.144,140.634 407.025,142.52 C404.787,143.873 402.382,144.558 399.829,145.099 C397.864,145.516 395.956,145.43 394.021,145.497 C391.211,145.596 388.41,144.979 385.954,143.885 C383.693,142.878 381.424,141.595 379.845,139.252 C378.585,137.383 377.62,135.547 376.975,133.414 C376.466,131.73 376.074,130.022 376.06,128.318 C375.98,118.242 375.915,108.164 376.085,98.09 C376.136,95.075 376.864,92.072 378.411,89.333 C380.415,85.785 383.517,83.161 387.292,81.993 C388.958,81.478 390.59,81.04 392.368,80.893 C393.524,80.798 394.748,80.347 395.912,80.538 C399.293,81.093 402.737,81.219 405.901,82.956 C409.963,85.186 412.1,87.716 413.501,92.015 C414.191,94.134 414.606,96.305 414.555,98.59 C414.447,103.335 414.522,108.083 414.522,112.83 Z M392.805,92.008 C390.669,93.715 389.991,95.975 390.003,98.614 C390.048,108.028 390.018,117.443 390.024,126.857 C390.025,128.14 390.216,129.397 390.403,130.666 C390.573,131.831 391.536,132.393 391.655,133.322 C392.402,133.705 393.09,134.057 393.969,134.508 C394.487,134.508 395.253,134.618 395.974,134.484 C397.289,134.24 398.78,133.885 399.431,132.727 C400.006,131.704 400.53,130.497 400.529,129.191 C400.515,118.033 400.521,106.875 400.521,95.745 C399.902,94.787 399.264,93.892 398.725,92.942 C398.122,91.88 396.944,91.98 396.046,91.538 C394.928,90.985 393.918,92.162 392.805,92.008 Z" id="Shape"></path>
            <path d="M0.583,81.504 L20.882,81.504 C23.953,82.294 27.171,82.528 29.906,84.475 C32.599,86.392 33.939,88.901 34.582,92.109 C35.008,94.236 34.798,96.325 35.029,98.413 C35.24,100.32 34.54,102.095 34.477,103.956 C34.445,104.913 32.745,107.237 31.741,108.02 C31.611,108.122 31.493,108.245 31.387,108.372 C30,110.049 28.183,110.913 25.557,111.075 C27.194,111.78 28.364,112.282 29.533,112.788 C32.808,114.207 34.801,116.734 35.835,120.088 C35.88,120.234 36.02,120.393 35.99,120.516 C35.626,122.015 36.611,123.335 36.521,124.811 C36.43,126.305 36.672,127.833 36.462,129.303 C36.108,131.783 36.006,134.379 34.945,136.659 C33.945,138.805 32.601,140.867 30.304,141.933 C28.19,142.914 26.056,143.729 23.684,144.119 C21.977,144.4 20.31,144.477 18.624,144.49 C12.638,144.533 6.651,144.507 0.582,144.507 C0.583,123.538 0.583,102.65 0.583,81.504 Z M14.087,115.855 L14.087,135.007 C14.996,135.007 15.82,135.036 16.641,135.002 C19.102,134.898 21.333,134.404 22.157,131.614 C22.199,131.474 22.383,131.376 22.501,131.258 L22.501,119.107 C21.813,118.275 21.049,117.352 20.311,116.46 C18.198,116.253 16.199,116.06 14.087,115.855 Z M14.088,90.9 L14.088,107.005 C15.33,107.005 16.487,106.983 17.643,107.012 C18.654,107.037 19.53,106.781 20.238,106.024 C20.636,105.598 21.06,105.197 21.472,104.785 C22.254,100.994 22.255,97.022 21.514,93.423 C20.844,92.687 20.287,92.074 19.875,91.622 C17.848,91.369 16.023,91.142 14.088,90.9 Z" id="Shape"></path>
            <path d="M487.371,118.53 L485.054,118.53 L485.054,144.456 L471.616,144.456 L471.616,81.593 C472.058,81.568 472.603,81.51 473.148,81.509 C479.147,81.502 485.148,81.393 491.142,81.554 C493.948,81.629 496.661,82.452 499.333,83.451 C501.885,84.405 503.414,86.359 504.994,88.305 C505.501,88.93 505.783,89.842 505.892,90.66 C506.081,92.079 506.6,93.421 506.56,94.907 C506.458,98.737 506.619,102.574 506.501,106.403 C506.377,110.387 504.673,113.561 501.156,115.639 C500.947,115.762 500.798,115.986 500.468,116.316 C500.676,117.42 500.737,118.708 501.168,119.857 C502.448,123.261 503.285,126.804 504.391,130.258 C505.021,132.227 505.453,134.333 506.092,136.318 C506.729,138.297 506.968,140.405 507.988,142.28 C508.297,142.846 507.754,143.749 508.66,144.4 L494.485,144.4 C493.223,141.747 492.843,138.778 492.089,135.95 C491.309,133.02 490.622,130.04 489.783,127.137 C488.969,124.309 488.587,121.354 487.371,118.53 Z M485.09,109.506 C486.575,109.506 487.906,109.474 489.234,109.516 C490.264,109.549 491.085,109.157 491.806,108.475 C492.229,108.076 492.65,107.675 492.885,107.452 C493.131,106.201 493.464,105.2 493.499,104.187 C493.583,101.774 493.539,99.356 493.522,96.94 C493.509,95.147 492.783,93.678 491.35,92.602 C490.992,92.332 490.51,92.227 490.126,92.064 L485.089,92.064 C485.09,97.851 485.09,103.575 485.09,109.506 Z" id="Shape"></path>
            <path d="M45.896,81.548 L58.922,81.548 L58.922,130.889 C59.43,131.901 59.776,132.591 60.12,133.275 C61.663,134.34 63.398,134.773 64.732,134.538 C67.984,133.514 68.016,131.039 68.489,128.837 C68.592,128.359 68.504,127.841 68.504,127.341 L68.504,84.11 L68.504,81.579 L82.005,81.579 L82.005,83.683 C82.005,99.01 82.012,114.336 81.999,129.662 C81.996,132.869 81.216,135.983 79.428,138.568 C77.952,140.702 76.006,142.451 73.401,143.597 C69.103,145.487 64.653,145.884 60.209,145.39 C57.126,145.048 54.035,144.174 51.299,142.191 C49.045,140.557 46.603,136.774 46.02,134.371 C45.64,132.808 45.676,131.161 45.434,129.595 C44.66,124.58 45.12,119.561 45.026,114.548 C44.931,109.468 45.005,104.386 45.005,99.305 C45.005,94.224 44.986,89.142 45.023,84.062 C45.027,83.213 44.563,82.176 45.896,81.548 Z" id="Shape"></path>
            <path d="M438.673,132.406 C440.774,134.507 440.774,134.507 444.079,134.507 C446.883,133.57 447.252,131.142 447.481,128.792 C447.683,126.73 447.523,124.631 447.523,122.548 L447.523,84.06 L447.523,81.561 L461.024,81.561 L461.024,83.735 C461.024,99.231 461.119,114.727 460.971,130.221 C460.921,135.393 458.702,139.6 454.242,142.671 C452.318,143.995 450.235,144.339 448.179,144.971 C446.978,145.34 445.667,145.405 444.398,145.49 C443.154,145.573 441.897,145.453 440.651,145.522 C438.931,145.617 434.071,144.399 432.261,143.446 C429.139,141.801 426.664,138.966 425.566,135.588 C424.91,133.568 424.472,131.481 424.482,129.269 C424.557,113.44 424.522,97.612 424.522,81.783 C424.575,81.721 424.619,81.649 424.682,81.601 C424.741,81.556 424.82,81.509 424.891,81.509 C429.211,81.505 433.533,81.505 438.023,81.505 L438.023,84.015 C438.023,97.928 438.013,111.84 438.033,125.753 C438.036,127.938 437.711,130.159 438.673,132.406 Z" id="Shape"></path>
            <path d="M571.726,81.519 L590.805,81.519 C591.162,82.659 591.579,83.743 591.57,84.982 C591.561,86.161 591.736,87.379 592.059,88.515 C592.749,90.941 592.716,93.488 593.473,95.914 C593.84,97.09 593.794,98.442 593.934,99.697 C594.217,102.237 594.704,104.755 595.136,107.249 C595.576,109.791 595.606,112.409 596.469,114.913 C596.979,116.391 596.708,118.121 597.076,119.67 C597.437,121.195 597.375,122.77 597.956,124.292 C598.357,125.344 598.145,126.623 598.471,127.82 C598.887,129.348 598.838,131 599.043,132.592 C599.143,133.364 599.371,134.119 599.529,134.885 C599.705,135.73 599.879,136.576 600.027,137.427 C600.164,138.199 599.701,139.094 600.503,139.729 C600.223,141.291 601.137,142.715 601.031,144.262 C600.974,144.318 600.923,144.387 600.853,144.431 C600.791,144.471 600.709,144.505 600.636,144.505 C596.152,144.508 591.667,144.508 587.236,144.508 C586.649,140.151 586.075,135.895 585.494,131.578 L575.625,131.578 C575.552,132.646 575.73,133.871 575.33,134.861 C574.892,135.942 575.217,136.962 575.023,137.983 C574.816,139.075 574.276,140.13 574.543,141.272 C574.802,142.382 573.947,143.251 573.993,144.403 L561.589,144.403 C561.771,142.964 561.724,141.479 562.209,140.195 C562.492,139.445 562.378,138.773 562.533,138.083 C562.685,137.399 562.928,136.73 563.017,136.039 C563.224,134.448 563.121,132.773 563.584,131.268 C564.355,128.758 564.037,126.073 565.029,123.628 C564.672,122.136 565.545,120.797 565.557,119.337 C565.565,118.489 565.872,117.645 566.026,116.795 C566.179,115.945 566.004,115.129 566.427,114.208 C566.887,113.211 566.637,111.895 566.967,110.696 C567.387,109.169 567.335,107.516 567.54,105.925 C567.64,105.153 567.868,104.397 568.026,103.631 C568.201,102.786 568.375,101.94 568.524,101.09 C568.659,100.317 568.339,99.53 568.939,98.743 C569.262,98.32 568.956,97.453 569.045,96.803 C569.129,96.195 569.434,95.616 569.513,95.007 C569.722,93.416 569.729,91.788 570.059,90.226 C570.522,88.044 571,85.885 571.058,83.639 C571.078,82.977 571.463,82.322 571.726,81.519 Z M577.123,121.923 L584.073,121.923 C583.887,119.504 583.709,117.176 583.531,114.848 C582.748,114.124 582.951,113.148 583.073,112.317 C583.225,111.275 582.534,110.488 582.522,109.525 C582.512,108.715 582.663,107.777 582.312,107.129 C581.861,106.296 582.067,105.525 582.059,104.743 C582.051,103.919 581.701,103.2 581.583,102.447 C581.261,100.379 581.194,98.27 581.03,96.177 C581.001,95.79 580.987,95.403 580.966,95.015 C580.484,95.797 580.144,96.591 580.052,97.412 C579.819,99.497 579.696,101.595 579.531,103.688 C579.518,103.853 579.601,104.097 579.518,104.175 C578.812,104.837 579.122,105.693 579.017,106.473 C578.902,107.326 578.627,108.159 578.542,109.013 C578.334,111.101 578.195,113.197 578.029,115.29 C578.016,115.453 578.08,115.686 577.995,115.769 C577.052,116.676 577.848,117.862 577.494,118.812 C577.122,119.816 576.892,120.778 577.123,121.923 Z" id="Shape"></path>
            <path d="M278.586,99 L265.587,99 C265.563,98.141 265.53,97.261 265.517,96.38 C265.505,95.547 265.515,94.714 265.515,93.798 C265.014,93.075 264.474,92.295 264.077,91.72 C263.063,91.481 262.307,91.303 261.377,91.083 C261,91.22 260.418,91.43 259.433,91.787 C259.128,92.207 258.566,92.98 258.016,93.739 L258.016,99.04 C258.788,100.76 259.636,102.244 261.031,103.241 C263.33,104.885 265.696,106.435 268.05,108.002 C270.542,109.661 273.036,111.355 274.912,113.704 C276.664,115.898 277.897,118.371 278.565,121.183 C279.441,124.868 279.033,128.566 278.909,132.227 C278.837,134.384 278.026,136.624 276.738,138.533 C275.333,140.616 273.703,142.469 271.342,143.497 C269.779,144.178 268.197,144.731 266.488,145.089 C264.368,145.533 262.277,145.58 260.183,145.47 C257.04,145.305 254.063,144.572 251.186,143.075 C248.283,141.566 246.027,138.383 244.982,134.652 C244.192,131.831 243.81,129.024 244.099,126.062 L256.849,126.062 C257.096,128.295 257.343,130.528 257.586,132.728 C257.962,133.228 258.34,133.729 259.042,134.66 C260.041,135.39 261.708,134.889 262.868,134.988 C265.085,134.334 265.651,132.982 265.531,131.194 C265.506,130.815 265.574,130.374 265.755,130.047 C266.141,129.345 266.123,128.698 265.777,128.004 C265.641,127.731 265.506,127.402 265.532,127.114 C265.763,124.56 264.23,122.803 262.546,121.381 C260.393,119.561 257.981,118.023 255.573,116.537 C253.73,115.4 252.138,113.968 250.453,112.648 C249.191,111.66 248.433,110.192 247.508,108.891 C246.273,107.154 245.536,105.114 245.124,103.15 C244.562,100.476 244.087,97.653 244.551,94.89 C245.081,91.732 245.991,88.742 248.072,86.09 C249.918,83.738 252.31,82.51 254.93,81.541 C255.947,81.165 257.035,80.862 258.211,80.962 C258.956,81.025 259.729,80.585 260.501,80.525 C261.577,80.442 262.872,80.136 263.694,80.598 C264.704,81.167 265.627,80.76 266.534,81.017 C267.496,81.291 268.408,81.753 269.376,81.988 C272.098,82.647 273.91,84.43 275.539,86.578 C277.068,88.595 277.572,90.878 278.116,93.283 C278.541,95.172 278.313,96.981 278.586,99 Z" id="Shape"></path>
            <path d="M125.1,98.956 L112.544,98.956 C111.465,97.327 112.31,95.445 111.907,93.626 C111.471,93.01 110.966,92.294 110.603,91.781 C109.69,91.506 109.025,91.158 108.351,91.143 C107.699,91.129 107.04,91.456 105.989,91.741 C105.664,92.176 105.098,92.935 104.505,93.729 C104.505,94.782 104.545,95.861 104.497,96.935 C104.379,99.559 105.584,101.633 107.493,103.17 C109.692,104.941 112.055,106.548 114.495,107.969 C117.344,109.627 119.8,111.728 121.875,114.207 C123.465,116.105 124.369,118.471 125.006,120.891 C125.988,124.619 125.541,128.428 125.423,132.18 C125.346,134.628 124.282,137.026 122.961,139.118 C121.79,140.973 120.067,142.497 118.098,143.444 C116.524,144.201 114.806,144.735 113.018,145.092 C110.898,145.515 108.812,145.403 106.709,145.519 C104.9,145.619 100.142,144.473 98.311,143.466 C94.905,141.592 92.442,138.761 91.542,134.914 C90.689,131.267 90.17,131.116 90.631,126.072 L103.385,126.072 C103.633,128.111 103.885,130.176 104.176,132.57 C104.658,133.178 105.357,134.058 106.06,134.945 L109.369,134.945 C112.206,134.507 112.083,132.083 112.406,130.352 C112.841,128.02 112.198,125.627 111,123.498 C110.015,121.746 108.357,120.626 106.76,119.573 C103.785,117.613 100.703,115.854 98.07,113.38 C95.501,110.966 94.095,109.466 92.841,106.571 C92.126,104.921 91.648,103.19 91.493,101.376 C91.405,100.355 91.145,99.35 91.013,98.332 C90.661,95.637 91.565,93.083 92.076,90.511 C92.335,89.203 93.129,87.886 94.001,86.841 C95.301,85.283 96.7,83.713 98.54,82.77 C100.261,81.888 102.065,81.142 104.056,80.996 C105.574,80.885 107.089,80.505 108.598,80.544 C111.367,80.614 114.176,81.081 116.686,82.108 C119.165,83.123 121.37,84.889 122.688,87.434 C123.586,89.169 124.188,90.957 124.628,92.902 C125.092,94.96 124.731,96.913 125.1,98.956 Z" id="Shape"></path>
            <path d="M286.648,126.074 L299.926,126.074 C300.257,128.429 299.564,130.923 300.671,133.375 C301.114,133.831 301.693,134.426 302.252,135 L306.273,135 C306.811,134.462 307.341,133.932 307.752,133.521 C308.76,131.566 308.539,129.599 308.5,127.669 C308.46,125.704 307.745,124.033 306.357,122.55 C304.19,120.237 301.489,118.708 298.897,116.994 C296.186,115.202 293.565,113.242 291.522,110.704 C289.814,108.582 288.666,106.132 287.974,103.431 C287.119,100.084 287.745,96.723 287.514,93.379 C288.425,90.658 289.139,87.879 291.112,85.608 C292.745,83.728 294.923,82.816 297.037,81.763 C297.788,81.389 298.641,81.137 299.475,81.028 C301.313,80.787 303.2,80.373 305.007,80.571 C308.172,80.917 311.391,81.186 314.254,82.954 C317.546,84.986 319.597,87.762 320.566,91.529 C321.194,93.974 320.86,96.385 321.049,98.909 L308.619,98.909 C308.397,98.08 308.625,97.091 308.498,96.14 C308.375,95.209 308.113,94.296 307.851,93.092 C307.453,92.742 306.832,92.197 306.186,91.63 C305.689,91.455 305.106,91.25 304.632,91.083 C303.8,91.278 303.038,91.456 302.102,91.675 C301.84,91.935 301.427,92.346 301.177,92.593 C300.622,93.993 300.448,95.243 300.497,96.552 C300.58,98.714 301.311,100.49 302.81,102.117 C304.75,104.225 307.188,105.615 309.495,107.175 C311.754,108.702 313.994,110.188 315.948,112.132 C318.004,114.177 318.719,114.895 320.013,117.672 C320.808,119.38 321.25,121.16 321.606,123.031 C322.009,125.153 322.085,127.243 321.979,129.339 C321.847,131.926 321.281,134.474 320.344,136.899 C319.859,138.154 319.118,139.281 318.081,140.22 C316.652,141.514 315.402,142.954 313.56,143.798 C312.331,144.361 311.04,144.569 309.794,144.963 C308.596,145.341 307.283,145.41 306.014,145.49 C304.686,145.573 303.334,145.632 302.019,145.482 C299.536,145.199 297.088,144.705 294.82,143.567 C291.942,142.125 289.75,140.028 288.516,137.013 C287.711,135.047 287.097,133.046 286.988,130.887 C286.908,129.305 286.162,127.771 286.648,126.074 Z" id="Shape"></path>
            <path d="M235.463,81.592 L235.463,92.441 L220.625,92.441 L220.625,105.968 L231.726,105.968 C231.99,106.232 232.167,106.409 232.428,106.671 L232.428,116.438 L220.583,116.438 L220.583,133.965 L236.454,133.965 L236.454,144.412 L207.269,144.412 C206.862,142.354 206.699,91.661 207.089,81.592 L235.463,81.592 Z" id="Shape"></path>
            <path d="M414.522,1.544 L420.44,1.544 L420.44,64.404 C419.421,64.632 418.274,64.467 417.146,64.497 C415.992,64.528 414.836,64.504 413.76,64.504 C408.226,48.108 402.726,31.814 397.1,15.145 L397.1,64.423 L390.639,64.423 L390.639,2.132 C390.785,1.986 390.962,1.809 391.204,1.567 L398.757,1.567 C403.915,16.67 409.073,31.776 414.242,46.913 C414.23,46.912 414.304,46.944 414.345,46.921 C414.414,46.882 414.514,46.808 414.514,46.749 C414.522,31.755 414.522,16.763 414.522,1.544 Z" id="Shape"></path>
            <path d="M609.117,81.554 L622.518,81.554 L622.518,133.492 L636.442,133.492 L636.442,144.262 C634.429,144.63 616.875,144.748 609.117,144.426 C609.117,123.486 609.117,102.544 609.117,81.554 Z" id="Shape"></path>
            <path d="M343.587,143.839 L343.587,133.09 C345.605,133.986 347.661,133.186 349.476,133.576 C352.343,132.399 353.002,130.101 353.007,127.525 C353.032,113.038 353.019,98.551 353.019,84.065 L353.019,81.563 L366.52,81.563 L366.52,83.719 C366.52,99.288 366.574,114.858 366.485,130.427 C366.461,134.668 365.006,138.472 361.816,141.47 C360.111,143.074 357.989,143.832 355.826,144.499 C353.197,145.311 350.472,145.075 347.797,144.953 C346.433,144.891 345.096,144.259 343.587,143.839 Z" id="Shape"></path>
            <path d="M278.015,1.549 L284.516,1.549 L284.516,3.033 C284.516,19.197 284.531,35.361 284.491,51.524 C284.487,52.946 284.126,54.368 283.929,55.794 C283.046,56.883 283.008,58.435 282.018,59.489 C280.951,60.625 280.053,61.995 278.805,62.864 C277.438,63.815 275.812,64.554 274.193,64.939 C272.329,65.382 270.289,65.704 268.432,65.409 C266.172,65.05 263.689,65.131 261.729,63.525 C261.531,63.362 261.084,63.503 260.87,63.503 C259.661,62.783 259.217,61.302 257.783,61.003 C256.765,59.272 255.499,57.654 255.027,55.659 C254.283,52.513 253.968,49.331 253.985,46.077 C254.056,32.08 254.015,18.082 254.015,4.085 L254.015,1.567 L260.332,1.567 C260.543,1.777 260.778,2.013 261.015,2.249 C261.015,18.663 261.037,35.077 260.987,51.49 C260.981,53.492 261.788,55.173 262.646,56.808 C263.363,58.176 264.924,58.748 266.498,59.517 C268.755,59.272 271.325,60.037 274.204,58.554 C275.175,57.547 276.819,56.298 277.58,53.49 C278.517,48.547 277.9,42.762 277.995,37.002 C278.093,31.088 278.016,25.171 278.016,19.255 C278.015,13.423 278.015,7.591 278.015,1.549 Z" id="Shape"></path>
            <path d="M135.085,82.177 C135.345,81.917 135.522,81.74 135.703,81.56 L148.938,81.56 L148.938,144.331 C148.951,144.318 148.899,144.388 148.831,144.431 C148.768,144.472 148.687,144.506 148.614,144.506 C144.13,144.509 139.647,144.509 135.086,144.509 C135.085,123.702 135.085,102.989 135.085,82.177 Z" id="Shape"></path>
            <path d="M233.937,1.544 C237.649,22.626 241.325,43.494 245.014,64.443 L238.681,64.443 C237.556,62.063 237.577,59.397 237.126,56.88 C236.666,54.316 235.984,51.754 235.983,49.224 C235.703,48.943 235.526,48.766 235.306,48.547 L221.739,48.547 C220.85,53.887 219.971,59.174 219.093,64.458 L212.914,64.458 C213.135,62.658 213.126,60.86 213.651,59.236 C213.915,58.42 213.864,57.665 214.017,56.895 C214.153,56.208 214.385,55.539 214.501,54.85 C214.701,53.675 214.696,52.443 215.052,51.322 C215.402,50.22 215.155,48.944 215.607,48.066 C216.186,46.942 215.482,45.584 216.51,44.681 C216.301,43.367 216.783,42.146 216.996,40.886 C217.223,39.549 216.958,37.954 217.61,36.908 C218.373,35.683 217.299,34.212 218.504,33.258 C218.297,31.864 218.703,30.537 219.029,29.223 C219.596,26.937 219.567,24.539 220.417,22.303 C220.638,21.721 220.432,20.99 220.526,20.343 C220.615,19.734 220.988,19.144 220.984,18.548 C220.968,16.128 222.247,13.905 222.01,11.463 C223.057,10.276 222.261,8.708 222.921,7.335 C223.51,6.107 223.303,4.509 223.531,3.088 C223.614,2.573 223.942,2.097 224.207,1.491 C227.445,1.531 230.732,1.445 233.937,1.544 Z M228.767,7.025 C227.436,13.418 226.578,19.398 225.577,25.342 C224.562,31.371 223.37,37.381 222.536,43.435 L234.831,43.435 C232.832,31.429 230.841,19.478 228.767,7.025 Z" id="Shape"></path>
            <path d="M323.055,16.997 L317.017,16.997 C317.017,16.201 317.082,15.391 316.998,14.597 C316.917,13.825 316.54,13.067 316.546,12.305 C316.56,10.503 315.768,9.112 314.614,7.846 C314.337,7.541 314.081,7.216 314.139,7.286 C311.501,6.146 309.192,6.612 306.69,6.478 C305.706,7.29 304.593,8.209 304.014,8.687 C302.86,10.482 303.245,11.989 302.575,13.312 C302.242,13.97 302.227,15.142 302.611,15.722 C303.101,16.461 302.898,17.128 303.018,17.821 C303.205,18.899 303.453,19.928 304.103,20.874 C305.146,22.391 306.016,24.038 307.483,25.211 C309.918,27.158 312.381,29.067 314.823,31.005 C319.521,34.734 321.462,36.835 323.239,41.997 C323.442,42.587 323.416,43.253 323.519,43.881 C324.304,48.649 324.342,50.729 323.477,55.201 C322.757,58.921 320.708,61.916 317.378,63.838 C316.333,64.442 315.068,64.838 313.866,64.959 C311.856,65.162 309.817,66.195 307.79,65.006 C305.791,65.251 304.073,64.373 302.43,63.482 C298.701,61.459 296.775,58.199 295.956,54.061 C295.538,51.945 295.572,49.866 295.504,47.519 C296.553,47.515 297.604,47.509 298.653,47.507 C299.723,47.505 300.794,47.507 302.014,47.507 C302.029,50.471 301.753,53.399 302.909,56.237 C304.16,57.368 305.412,58.5 306.325,59.325 C307.778,59.742 308.939,59.009 309.747,59.928 C310.806,59.733 311.81,59.548 312.932,59.342 C312.89,59.384 312.938,59.296 313.009,59.271 C316.476,58.053 317.251,55.151 317.497,51.976 C317.606,50.569 317.546,49.145 317.51,47.731 C317.425,44.44 316.387,41.599 313.996,39.179 C311.081,36.227 307.836,33.719 304.534,31.241 C300.903,28.515 297.694,23.561 296.584,19.311 C296.482,18.924 296.52,18.497 296.518,18.089 C296.511,16.673 296.558,15.256 296.506,13.842 C296.397,10.809 297.288,8.153 298.967,5.603 C300.375,3.465 302.483,2.524 304.596,1.546 C305.494,1.13 306.521,0.816 307.622,0.971 C308.202,1.053 308.831,0.789 309.464,0.677 C310.161,0.779 310.929,0.97 311.7,0.991 C314.96,1.077 317.737,2.242 319.915,4.675 C321.292,6.213 321.998,8.081 322.564,10.075 C323.209,12.336 322.881,14.58 323.055,16.997 Z" id="Shape"></path>
            <path d="M349.106,64.453 L342.578,64.453 L342.578,7.047 L332.313,7.047 C331.959,6.694 331.783,6.517 331.562,6.296 L331.562,2.207 C331.782,1.987 331.958,1.811 332.202,1.568 L359.916,1.568 L359.916,6.988 L349.106,6.988 L349.106,64.453 Z" id="Shape"></path>
            <path d="M370.595,2.175 C370.86,1.911 371.035,1.734 371.213,1.557 L377.453,1.557 L377.453,64.378 L370.595,64.378 L370.595,2.175 Z" id="Shape"></path>
        </g>
    </g>
</svg>