<?xml version="1.0" encoding="UTF-8"?>
<svg width="206px" height="582px" viewBox="0 0 206 582" version="1.1" xmlns="http://www.w3.org/2000/svg" xmlns:xlink="http://www.w3.org/1999/xlink">
    <!-- Generator: Sketch 43.1 (39012) - http://www.bohemiancoding.com/sketch -->
    <title>Group 19</title>
    <desc>Created with Sketch.</desc>
    <defs></defs>
    <g id="Proposal_Update_Feb" stroke="none" stroke-width="1" fill="none" fill-rule="evenodd" opacity="0.23">
        <g id="Proposal_ConfirmationRouter_v1_2917@2x" transform="translate(-866.000000, -122.000000)" fill="#FD9053">
            <g id="Group-19" transform="translate(866.000000, 122.000000)">
                <g id="Group-49" transform="translate(0.000000, 160.000000)">
                    <polygon id="Fill-1" points="0.5341 54.3344 0.5341 74.2294 17.7631 64.2824"></polygon>
                    <polygon id="Fill-3" points="0.5341 27.6323 0.5341 47.5223 17.7311 37.5613"></polygon>
                    <polygon id="Fill-5" points="46.7826 27.6364 46.7826 47.5284 64.0106 37.5814"></polygon>
                    <polygon id="Fill-7" points="19.7285 40.9448 2.4935 50.9288 19.7285 60.8808"></polygon>
                    <polygon id="Fill-9" points="2.4989 77.632 19.7289 87.58 19.7289 67.685"></polygon>
                    <polygon id="Fill-11" points="23.6581 67.6868 23.6581 87.5878 40.8901 77.6368"></polygon>
                    <polygon id="Fill-13" points="48.7466 50.9308 65.9766 60.8788 65.9766 40.9828"></polygon>
                    <polygon id="Fill-15" points="25.6289 90.9863 42.8529 100.9313 42.8529 81.0403"></polygon>
                    <polygon id="Fill-17" points="64.0151 64.283 46.7821 54.334 46.7821 74.234"></polygon>
                    <polygon id="Fill-19" points="23.6581 14.2872 23.6581 34.1272 40.8121 24.1902"></polygon>
                    <polygon id="Fill-21" points="42.853 47.5283 42.853 27.5493 25.579 37.5553"></polygon>
                    <polygon id="Fill-23" points="42.853 74.2336 42.853 54.3336 25.62 64.2826"></polygon>
                    <polygon id="Fill-25" points="23.6581 40.9828 23.6581 60.8788 40.8881 50.9308"></polygon>
                    <polygon id="Fill-27" points="19.7285 34.1771 19.7285 14.2821 2.4985 24.2301"></polygon>
                    <polygon id="Fill-29" points="63.9017 10.8149 46.7827 0.9309 46.7827 20.7319"></polygon>
                    <polygon id="Fill-31" points="65.9771 34.179 65.9771 14.154 48.6631 24.184"></polygon>
                    <polygon id="Fill-33" points="46.7826 100.9312 64.0076 90.9862 46.7826 81.0392"></polygon>
                    <polygon id="Fill-35" points="42.853 0.9312 25.619 10.8812 42.853 20.8302"></polygon>
                    <polygon id="Fill-37" points="87.1362 24.2297 69.9062 14.2817 69.9062 34.1767"></polygon>
                    <polygon id="Fill-39" points="69.9066 87.58 87.1366 77.632 69.9066 67.685"></polygon>
                    <polygon id="Fill-41" points="48.7469 77.6368 65.9769 87.5858 65.9769 67.6868"></polygon>
                    <polygon id="Fill-43" points="69.9066 60.8811 87.1366 50.9321 69.9066 40.9851"></polygon>
                    <polygon id="Fill-45" points="89.101 47.528 89.101 27.632 71.87 37.581"></polygon>
                    <polygon id="Fill-47" points="89.101 74.2294 89.101 54.3344 71.873 64.2824"></polygon>
                </g>
                <g id="Group-49-Copy" transform="translate(0.000000, 321.000000)">
                    <polygon id="Fill-1" points="0.5341 54.3344 0.5341 74.2294 17.7631 64.2824"></polygon>
                    <polygon id="Fill-3" points="0.5341 27.6323 0.5341 47.5223 17.7311 37.5613"></polygon>
                    <polygon id="Fill-5" points="46.7826 27.6364 46.7826 47.5284 64.0106 37.5814"></polygon>
                    <polygon id="Fill-7" points="19.7285 40.9448 2.4935 50.9288 19.7285 60.8808"></polygon>
                    <polygon id="Fill-9" points="2.4989 77.632 19.7289 87.58 19.7289 67.685"></polygon>
                    <polygon id="Fill-11" points="23.6581 67.6868 23.6581 87.5878 40.8901 77.6368"></polygon>
                    <polygon id="Fill-13" points="48.7466 50.9308 65.9766 60.8788 65.9766 40.9828"></polygon>
                    <polygon id="Fill-15" points="25.6289 90.9863 42.8529 100.9313 42.8529 81.0403"></polygon>
                    <polygon id="Fill-17" points="64.0151 64.283 46.7821 54.334 46.7821 74.234"></polygon>
                    <polygon id="Fill-19" points="23.6581 14.2872 23.6581 34.1272 40.8121 24.1902"></polygon>
                    <polygon id="Fill-21" points="42.853 47.5283 42.853 27.5493 25.579 37.5553"></polygon>
                    <polygon id="Fill-23" points="42.853 74.2336 42.853 54.3336 25.62 64.2826"></polygon>
                    <polygon id="Fill-25" points="23.6581 40.9828 23.6581 60.8788 40.8881 50.9308"></polygon>
                    <polygon id="Fill-27" points="19.7285 34.1771 19.7285 14.2821 2.4985 24.2301"></polygon>
                    <polygon id="Fill-29" points="63.9017 10.8149 46.7827 0.9309 46.7827 20.7319"></polygon>
                    <polygon id="Fill-31" points="65.9771 34.179 65.9771 14.154 48.6631 24.184"></polygon>
                    <polygon id="Fill-33" points="46.7826 100.9312 64.0076 90.9862 46.7826 81.0392"></polygon>
                    <polygon id="Fill-35" points="42.853 0.9312 25.619 10.8812 42.853 20.8302"></polygon>
                    <polygon id="Fill-37" points="87.1362 24.2297 69.9062 14.2817 69.9062 34.1767"></polygon>
                    <polygon id="Fill-39" points="69.9066 87.58 87.1366 77.632 69.9066 67.685"></polygon>
                    <polygon id="Fill-41" points="48.7469 77.6368 65.9769 87.5858 65.9769 67.6868"></polygon>
                    <polygon id="Fill-43" points="69.9066 60.8811 87.1366 50.9321 69.9066 40.9851"></polygon>
                    <polygon id="Fill-45" points="89.101 47.528 89.101 27.632 71.87 37.581"></polygon>
                    <polygon id="Fill-47" points="89.101 74.2294 89.101 54.3344 71.873 64.2824"></polygon>
                </g>
                <g id="Group-392" transform="translate(139.000000, 80.000000)">
                    <polygon id="Fill-344" points="0.5728 54.3344 0.5728 74.2294 17.8008 64.2824"></polygon>
                    <polygon id="Fill-346" points="0.5728 27.6323 0.5728 47.5223 17.7698 37.5613"></polygon>
                    <polygon id="Fill-348" points="46.8213 27.6364 46.8213 47.5284 64.0483 37.5814"></polygon>
                    <polygon id="Fill-350" points="19.7671 40.9448 2.5321 50.9288 19.7671 60.8808"></polygon>
                    <polygon id="Fill-352" points="2.5375 77.632 19.7675 87.58 19.7675 67.685"></polygon>
                    <polygon id="Fill-354" points="23.6967 67.6868 23.6967 87.5878 40.9287 77.6368"></polygon>
                    <polygon id="Fill-356" points="48.7853 50.9308 66.0153 60.8788 66.0153 40.9828"></polygon>
                    <polygon id="Fill-358" points="25.6675 90.9863 42.8915 100.9313 42.8915 81.0403"></polygon>
                    <polygon id="Fill-360" points="64.0537 64.283 46.8217 54.334 46.8217 74.234"></polygon>
                    <polygon id="Fill-362" points="23.6967 14.2872 23.6967 34.1272 40.8507 24.1902"></polygon>
                    <polygon id="Fill-364" points="42.8917 47.5283 42.8917 27.5493 25.6177 37.5553"></polygon>
                    <polygon id="Fill-366" points="42.8917 74.2336 42.8917 54.3336 25.6587 64.2826"></polygon>
                    <polygon id="Fill-368" points="23.6967 40.9828 23.6967 60.8788 40.9267 50.9308"></polygon>
                    <polygon id="Fill-370" points="19.7671 34.1771 19.7671 14.2821 2.5371 24.2301"></polygon>
                    <polygon id="Fill-372" points="63.9404 10.8149 46.8214 0.9309 46.8214 20.7319"></polygon>
                    <polygon id="Fill-374" points="66.0156 34.179 66.0156 14.154 48.7016 24.184"></polygon>
                    <polygon id="Fill-376" points="46.8213 100.9312 64.0463 90.9862 46.8213 81.0392"></polygon>
                    <polygon id="Fill-378" points="42.8917 0.9312 25.6577 10.8812 42.8917 20.8302"></polygon>
                    <polygon id="Fill-384" points="48.7855 77.6368 66.0155 87.5858 66.0155 67.6868"></polygon>
                </g>
                <g id="Group-441" transform="translate(185.000000, 161.000000)">
                    <polygon id="Fill-393" points="0.8629 53.4114 0.8629 73.3064 18.0919 63.3594"></polygon>
                    <polygon id="Fill-395" points="0.8629 26.7093 0.8629 46.5993 18.0599 36.6373"></polygon>
                    <polygon id="Fill-399" points="20.0574 40.0218 2.8224 50.0058 20.0574 59.9578"></polygon>
                    <polygon id="Fill-401" points="2.8278 76.709 20.0578 86.657 20.0578 66.762"></polygon>
                    <polygon id="Fill-419" points="20.0574 33.2541 20.0574 13.3591 2.8274 23.3071"></polygon>
                </g>
                <g id="Group-490" transform="translate(93.000000, 161.000000)">
                    <polygon id="Fill-442" points="0.3248 53.4114 0.3248 73.3064 17.5528 63.3594"></polygon>
                    <polygon id="Fill-444" points="0.3248 26.7093 0.3248 46.5993 17.5218 36.6373"></polygon>
                    <polygon id="Fill-446" points="46.5734 26.7134 46.5734 46.6054 63.8004 36.6584"></polygon>
                    <polygon id="Fill-448" points="19.5192 40.0218 2.2842 50.0058 19.5192 59.9578"></polygon>
                    <polygon id="Fill-450" points="2.2896 76.709 19.5196 86.657 19.5196 66.762"></polygon>
                    <polygon id="Fill-452" points="23.4487 66.7639 23.4487 86.6639 40.6807 76.7139"></polygon>
                    <polygon id="Fill-454" points="48.5374 50.0079 65.7674 59.9559 65.7674 40.0599"></polygon>
                    <polygon id="Fill-456" points="25.4196 90.0634 42.6436 100.0084 42.6436 80.1174"></polygon>
                    <polygon id="Fill-458" points="63.8058 63.36 46.5738 53.411 46.5738 73.311"></polygon>
                    <polygon id="Fill-460" points="23.4487 13.3641 23.4487 33.2041 40.6027 23.2671"></polygon>
                    <polygon id="Fill-462" points="42.6438 46.6053 42.6438 26.6263 25.3698 36.6323"></polygon>
                    <polygon id="Fill-464" points="42.6438 73.3106 42.6438 53.4106 25.4108 63.3596"></polygon>
                    <polygon id="Fill-466" points="23.4487 40.0598 23.4487 59.9558 40.6787 50.0078"></polygon>
                    <polygon id="Fill-468" points="19.5192 33.2541 19.5192 13.3591 2.2892 23.3071"></polygon>
                    <polygon id="Fill-470" points="63.6925 9.8919 46.5735 0.0079 46.5735 19.8089"></polygon>
                    <polygon id="Fill-472" points="65.7677 33.256 65.7677 13.231 48.4537 23.261"></polygon>
                    <polygon id="Fill-474" points="46.5734 100.0082 63.7984 90.0632 46.5734 80.1162"></polygon>
                    <polygon id="Fill-476" points="42.6438 0.0082 25.4098 9.9582 42.6438 19.9072"></polygon>
                    <polygon id="Fill-478" points="86.9269 23.3067 69.6969 13.3587 69.6969 33.2537"></polygon>
                    <polygon id="Fill-480" points="69.6973 86.657 86.9273 76.709 69.6973 66.762"></polygon>
                    <polygon id="Fill-482" points="48.5376 76.7138 65.7676 86.6628 65.7676 66.7638"></polygon>
                    <polygon id="Fill-484" points="69.6973 59.9581 86.9273 50.0091 69.6973 40.0621"></polygon>
                    <polygon id="Fill-486" points="88.8917 46.605 88.8917 26.709 71.6607 36.658"></polygon>
                    <polygon id="Fill-488" points="88.8917 73.3064 88.8917 53.4114 71.6637 63.3594"></polygon>
                </g>
                <g id="Group-539" transform="translate(139.000000, 241.000000)">
                    <polygon id="Fill-491" points="0.5728 53.5205 0.5728 73.4155 17.8008 63.4685"></polygon>
                    <polygon id="Fill-493" points="0.5728 26.8184 0.5728 46.7084 17.7698 36.7464"></polygon>
                    <polygon id="Fill-495" points="46.8213 26.8225 46.8213 46.7145 64.0483 36.7675"></polygon>
                    <polygon id="Fill-497" points="19.7671 40.1309 2.5321 50.1149 19.7671 60.0669"></polygon>
                    <polygon id="Fill-499" points="2.5375 76.8181 19.7675 86.7661 19.7675 66.8711"></polygon>
                    <polygon id="Fill-501" points="23.6967 66.873 23.6967 86.773 40.9287 76.823"></polygon>
                    <polygon id="Fill-503" points="48.7853 50.1169 66.0153 60.0649 66.0153 40.1689"></polygon>
                    <polygon id="Fill-505" points="25.6675 90.1725 42.8915 100.1175 42.8915 80.2265"></polygon>
                    <polygon id="Fill-507" points="64.0537 63.4691 46.8217 53.5201 46.8217 73.4201"></polygon>
                    <polygon id="Fill-509" points="23.6967 13.4733 23.6967 33.3133 40.8507 23.3763"></polygon>
                    <polygon id="Fill-511" points="42.8917 46.7144 42.8917 26.7354 25.6177 36.7414"></polygon>
                    <polygon id="Fill-513" points="42.8917 73.4197 42.8917 53.5197 25.6587 63.4687"></polygon>
                    <polygon id="Fill-515" points="23.6967 40.1689 23.6967 60.0649 40.9267 50.1169"></polygon>
                    <polygon id="Fill-517" points="19.7671 33.3632 19.7671 13.4682 2.5371 23.4162"></polygon>
                    <polygon id="Fill-519" points="63.9404 10.001 46.8214 0.117 46.8214 19.918"></polygon>
                    <polygon id="Fill-521" points="66.0156 33.3651 66.0156 13.3401 48.7016 23.3701"></polygon>
                    <polygon id="Fill-523" points="46.8213 100.1173 64.0463 90.1723 46.8213 80.2253"></polygon>
                    <polygon id="Fill-525" points="42.8917 0.1173 25.6577 10.0673 42.8917 20.0163"></polygon>
                    <polygon id="Fill-531" points="48.7855 76.8229 66.0155 86.7719 66.0155 66.8729"></polygon>
                </g>
                <g id="Group-588" transform="translate(185.000000, 321.000000)">
                    <polygon id="Fill-540" points="0.8629 53.5975 0.8629 73.4925 18.0919 63.5455"></polygon>
                    <polygon id="Fill-542" points="0.8629 26.8954 0.8629 46.7854 18.0599 36.8234"></polygon>
                    <polygon id="Fill-546" points="20.0574 40.2079 2.8224 50.1919 20.0574 60.1439"></polygon>
                    <polygon id="Fill-548" points="2.8278 76.8951 20.0578 86.8431 20.0578 66.9481"></polygon>
                    <polygon id="Fill-566" points="20.0574 33.4402 20.0574 13.5452 2.8274 23.4932"></polygon>
                </g>
                <g id="Group-686" transform="translate(139.000000, 401.000000)">
                    <polygon id="Fill-638" points="0.6144 53.7726 0.6144 73.6676 17.8434 63.7206"></polygon>
                    <polygon id="Fill-640" points="0.6144 27.0706 0.6144 46.9606 17.8114 36.9986"></polygon>
                    <polygon id="Fill-642" points="46.8629 27.0747 46.8629 46.9667 64.0899 37.0197"></polygon>
                    <polygon id="Fill-644" points="19.8087 40.3831 2.5737 50.3671 19.8087 60.3191"></polygon>
                    <polygon id="Fill-646" points="2.5791 77.0703 19.8091 87.0183 19.8091 67.1233"></polygon>
                    <polygon id="Fill-648" points="23.7383 67.1251 23.7383 87.0251 40.9703 77.0751"></polygon>
                    <polygon id="Fill-650" points="48.8269 50.3691 66.0569 60.3171 66.0569 40.4211"></polygon>
                    <polygon id="Fill-652" points="25.7092 90.4247 42.9332 100.3697 42.9332 80.4787"></polygon>
                    <polygon id="Fill-654" points="64.0955 63.7213 46.8625 53.7723 46.8625 73.6723"></polygon>
                    <polygon id="Fill-656" points="23.7383 13.7255 23.7383 33.5655 40.8933 23.6285"></polygon>
                    <polygon id="Fill-658" points="42.9333 46.9666 42.9333 26.9876 25.6593 36.9936"></polygon>
                    <polygon id="Fill-660" points="42.9333 73.6718 42.9333 53.7718 25.7003 63.7208"></polygon>
                    <polygon id="Fill-662" points="23.7383 40.4211 23.7383 60.3171 40.9683 50.3691"></polygon>
                    <polygon id="Fill-664" points="19.8087 33.6154 19.8087 13.7204 2.5787 23.6684"></polygon>
                    <polygon id="Fill-666" points="63.9821 10.2532 46.8631 0.3692 46.8631 20.1702"></polygon>
                    <polygon id="Fill-668" points="66.0573 33.6173 66.0573 13.5923 48.7433 23.6223"></polygon>
                    <polygon id="Fill-670" points="46.8629 100.3695 64.0879 90.4245 46.8629 80.4775"></polygon>
                    <polygon id="Fill-672" points="42.9333 0.3694 25.6993 10.3194 42.9333 20.2684"></polygon>
                    <polygon id="Fill-678" points="48.8273 77.075 66.0573 87.024 66.0573 67.125"></polygon>
                </g>
                <g id="Group-737" transform="translate(185.000000, 481.000000)">
                    <polygon id="Fill-687" points="0.9045 53.8497 0.9045 73.7447 18.1335 63.7977"></polygon>
                    <polygon id="Fill-689" points="0.9045 27.1476 0.9045 47.0376 18.1015 37.0756"></polygon>
                    <polygon id="Fill-693" points="20.099 40.4601 2.864 50.4441 20.099 60.3961"></polygon>
                    <polygon id="Fill-695" points="2.8694 77.1473 20.0994 87.0953 20.0994 67.2003"></polygon>
                    <polygon id="Fill-713" points="20.099 33.6924 20.099 13.7974 2.869 23.7454"></polygon>
                </g>
                <g id="Group-786" transform="translate(93.000000, 481.000000)">
                    <polygon id="Fill-738" points="0.3665 53.8497 0.3665 73.7447 17.5955 63.7977"></polygon>
                    <polygon id="Fill-740" points="0.3665 27.1476 0.3665 47.0376 17.5635 37.0756"></polygon>
                    <polygon id="Fill-742" points="46.615 27.1517 46.615 47.0437 63.842 37.0967"></polygon>
                    <polygon id="Fill-744" points="19.5608 40.4601 2.3258 50.4441 19.5608 60.3961"></polygon>
                    <polygon id="Fill-746" points="2.3313 77.1473 19.5603 87.0953 19.5603 67.2003"></polygon>
                    <polygon id="Fill-748" points="23.4904 67.2021 23.4904 87.1021 40.7224 77.1521"></polygon>
                    <polygon id="Fill-750" points="48.579 50.4461 65.809 60.3941 65.809 40.4981"></polygon>
                    <polygon id="Fill-752" points="25.4613 90.5016 42.6853 100.4466 42.6853 80.5556"></polygon>
                    <polygon id="Fill-754" points="63.8475 63.7983 46.6145 53.8493 46.6145 73.7493"></polygon>
                    <polygon id="Fill-756" points="23.4904 13.8025 23.4904 33.6425 40.6454 23.7055"></polygon>
                    <polygon id="Fill-758" points="42.6854 47.0436 42.6854 27.0646 25.4114 37.0706"></polygon>
                    <polygon id="Fill-760" points="42.6854 73.7489 42.6854 53.8489 25.4524 63.7979"></polygon>
                    <polygon id="Fill-762" points="23.4904 40.4981 23.4904 60.3941 40.7204 50.4461"></polygon>
                    <polygon id="Fill-764" points="19.5608 33.6924 19.5608 13.7974 2.3318 23.7454"></polygon>
                    <polygon id="Fill-766" points="63.7341 10.3302 46.6151 0.4462 46.6151 20.2472"></polygon>
                    <polygon id="Fill-768" points="65.8094 33.6943 65.8094 13.6693 48.4954 23.6993"></polygon>
                    <polygon id="Fill-770" points="46.615 100.4465 63.84 90.5015 46.615 80.5545"></polygon>
                    <polygon id="Fill-772" points="42.6854 0.4464 25.4514 10.3964 42.6854 20.3454"></polygon>
                    <polygon id="Fill-774" points="86.9686 23.745 69.7386 13.797 69.7386 33.692"></polygon>
                    <polygon id="Fill-776" points="69.739 87.0953 86.969 77.1473 69.739 67.2003"></polygon>
                    <polygon id="Fill-778" points="48.5793 77.1521 65.8093 87.1011 65.8093 67.2021"></polygon>
                    <polygon id="Fill-780" points="69.739 60.3964 86.969 50.4474 69.739 40.5004"></polygon>
                    <polygon id="Fill-782" points="88.9333 47.0433 88.9333 27.1473 71.7023 37.0963"></polygon>
                    <polygon id="Fill-784" points="88.9333 73.7447 88.9333 53.8497 71.7053 63.7977"></polygon>
                </g>
                <g id="Group-982" transform="translate(47.000000, 241.000000)">
                    <polygon id="Fill-934" points="0.1354 53.5045 0.1354 73.3995 17.3644 63.4525"></polygon>
                    <polygon id="Fill-936" points="0.1354 26.8025 0.1354 46.6925 17.3324 36.7305"></polygon>
                    <polygon id="Fill-938" points="46.3839 26.8066 46.3839 46.6986 63.6109 36.7516"></polygon>
                    <polygon id="Fill-940" points="19.3297 40.115 2.0947 50.099 19.3297 60.051"></polygon>
                    <polygon id="Fill-942" points="2.1001 76.8021 19.3301 86.7501 19.3301 66.8551"></polygon>
                    <polygon id="Fill-944" points="23.2593 66.857 23.2593 86.757 40.4913 76.807"></polygon>
                    <polygon id="Fill-946" points="48.3479 50.101 65.5779 60.049 65.5779 40.153"></polygon>
                    <polygon id="Fill-948" points="25.2302 90.1565 42.4542 100.1015 42.4542 80.2105"></polygon>
                    <polygon id="Fill-950" points="63.6163 63.4532 46.3843 53.5042 46.3843 73.4042"></polygon>
                    <polygon id="Fill-952" points="23.2593 13.4573 23.2593 33.2973 40.4143 23.3603"></polygon>
                    <polygon id="Fill-954" points="42.4543 46.6985 42.4543 26.7195 25.1803 36.7255"></polygon>
                    <polygon id="Fill-956" points="42.4543 73.4037 42.4543 53.5037 25.2213 63.4527"></polygon>
                    <polygon id="Fill-958" points="23.2593 40.153 23.2593 60.049 40.4893 50.101"></polygon>
                    <polygon id="Fill-960" points="19.3297 33.3473 19.3297 13.4523 2.0997 23.4003"></polygon>
                    <polygon id="Fill-962" points="63.5031 9.985 46.3841 0.101 46.3841 19.902"></polygon>
                    <polygon id="Fill-964" points="65.5782 33.3492 65.5782 13.3242 48.2642 23.3542"></polygon>
                    <polygon id="Fill-966" points="46.3839 100.1013 63.6089 90.1563 46.3839 80.2093"></polygon>
                    <polygon id="Fill-968" points="42.4543 0.1013 25.2203 10.0513 42.4543 20.0003"></polygon>
                    <polygon id="Fill-970" points="86.7374 23.3999 69.5074 13.4519 69.5074 33.3469"></polygon>
                    <polygon id="Fill-972" points="69.5078 86.7501 86.7378 76.8021 69.5078 66.8551"></polygon>
                    <polygon id="Fill-974" points="48.3483 76.8069 65.5783 86.7559 65.5783 66.8569"></polygon>
                    <polygon id="Fill-976" points="69.5078 60.0512 86.7378 50.1022 69.5078 40.1552"></polygon>
                    <polygon id="Fill-978" points="88.7023 46.6981 88.7023 26.8021 71.4713 36.7511"></polygon>
                    <polygon id="Fill-980" points="88.7023 73.3996 88.7023 53.5046 71.4743 63.4526"></polygon>
                </g>
                <g id="Group-1129" transform="translate(93.000000, 0.000000)">
                    <polygon id="Fill-1081" points="0.3839 54.1935 0.3839 74.0885 17.6129 64.1415"></polygon>
                    <polygon id="Fill-1083" points="0.3839 27.4915 0.3839 47.3815 17.5809 37.4195"></polygon>
                    <polygon id="Fill-1085" points="46.6324 27.4957 46.6324 47.3867 63.8594 37.4407"></polygon>
                    <polygon id="Fill-1087" points="19.5782 40.804 2.3432 50.788 19.5782 60.74"></polygon>
                    <polygon id="Fill-1089" points="2.3486 77.4911 19.5786 87.4391 19.5786 67.5441"></polygon>
                    <polygon id="Fill-1091" points="23.5078 67.546 23.5078 87.447 40.7398 77.496"></polygon>
                    <polygon id="Fill-1093" points="48.5964 50.79 65.8264 60.738 65.8264 40.842"></polygon>
                    <polygon id="Fill-1095" points="25.4788 90.8456 42.7028 100.7906 42.7028 80.8996"></polygon>
                    <polygon id="Fill-1097" points="63.865 64.1422 46.632 54.1932 46.632 74.0932"></polygon>
                    <polygon id="Fill-1099" points="23.5078 14.1464 23.5078 33.9864 40.6628 24.0494"></polygon>
                    <polygon id="Fill-1101" points="42.7029 47.3875 42.7029 27.4085 25.4289 37.4145"></polygon>
                    <polygon id="Fill-1103" points="42.7029 74.0928 42.7029 54.1928 25.4699 64.1418"></polygon>
                    <polygon id="Fill-1105" points="23.5078 40.842 23.5078 60.738 40.7378 50.79"></polygon>
                    <polygon id="Fill-1107" points="19.5782 34.0363 19.5782 14.1413 2.3482 24.0893"></polygon>
                    <polygon id="Fill-1109" points="63.7516 10.6741 46.6326 0.7901 46.6326 20.5911"></polygon>
                    <polygon id="Fill-1111" points="65.8269 34.0382 65.8269 14.0132 48.5129 24.0432"></polygon>
                    <polygon id="Fill-1113" points="46.6324 100.7903 63.8574 90.8453 46.6324 80.8993"></polygon>
                    <polygon id="Fill-1115" points="42.7029 0.7903 25.4689 10.7403 42.7029 20.6893"></polygon>
                    <polygon id="Fill-1117" points="86.986 24.0889 69.757 14.1409 69.757 34.0359"></polygon>
                    <polygon id="Fill-1119" points="69.7565 87.4391 86.9865 77.4911 69.7565 67.5441"></polygon>
                    <polygon id="Fill-1121" points="48.5968 77.496 65.8268 87.445 65.8268 67.546"></polygon>
                    <polygon id="Fill-1123" points="69.7565 60.7403 86.9855 50.7913 69.7565 40.8443"></polygon>
                    <polygon id="Fill-1125" points="88.9508 47.3871 88.9508 27.4911 71.7198 37.4401"></polygon>
                    <polygon id="Fill-1127" points="88.9508 74.0886 88.9508 54.1936 71.7228 64.1416"></polygon>
                </g>
                <g id="Group-1180" transform="translate(185.000000, 0.000000)">
                    <polygon id="Fill-1130" points="0.8213 54.1749 0.8213 74.0699 18.0503 64.1229"></polygon>
                    <polygon id="Fill-1132" points="0.8213 27.4728 0.8213 47.3628 18.0183 37.4018"></polygon>
                    <polygon id="Fill-1136" points="20.0156 40.7853 2.7806 50.7693 20.0156 60.7213"></polygon>
                    <polygon id="Fill-1138" points="2.786 77.4725 20.016 87.4205 20.016 67.5255"></polygon>
                    <polygon id="Fill-1156" points="20.0156 34.0176 20.0156 14.1226 2.7856 24.0706"></polygon>
                </g>
            </g>
        </g>
    </g>
</svg>