<?xml version="1.0" encoding="UTF-8" standalone="no"?>
<svg width="12px" height="9px" viewBox="0 0 12 9" version="1.1" xmlns="http://www.w3.org/2000/svg" xmlns:xlink="http://www.w3.org/1999/xlink">
    <!-- Generator: Sketch 42 (36781) - http://www.bohemiancoding.com/sketch -->
    <title>Group</title>
    <desc>Created with Sketch.</desc>
    <defs></defs>
    <g id="Page-1" stroke="none" stroke-width="1" fill="none" fill-rule="evenodd">
        <g id="Group" fill="#FF7B5C">
            <path d="M5.688,5.856 C5.688,4.672 4.856,3.744 3.544,3.744 C3.288,3.744 2.968,3.84 2.84,3.968 C2.84,3.584 2.968,3.104 3.32,2.624 C3.64,2.016 4.408,1.664 5.528,1.664 L5.528,0.32 C2.648,0.352 0.92,1.568 0.92,4.928 C0.92,6.752 1.944,8.032 3.512,8.032 C4.76,8.032 5.688,7.072 5.688,5.856 Z" id="“-path"></path>
            <path d="M11.288,5.856 C11.288,4.672 10.424,3.744 9.144,3.744 C8.856,3.744 8.536,3.84 8.44,3.968 C8.44,3.584 8.536,3.104 8.888,2.624 C9.24,2.016 10.008,1.664 11.096,1.664 L11.096,0.32 C8.248,0.352 6.52,1.568 6.52,4.928 C6.52,6.752 7.512,8.032 9.08,8.032 C10.36,8.032 11.288,7.072 11.288,5.856 Z" id="“-path"></path>
        </g>
    </g>
</svg>