<?xml version="1.0" encoding="utf-8"?>
<!-- Generator: Adobe Illustrator 21.0.2, SVG Export Plug-In . SVG Version: 6.00 Build 0)  -->
<svg version="1.1" id="Layer_1" xmlns="http://www.w3.org/2000/svg" xmlns:xlink="http://www.w3.org/1999/xlink" x="0px" y="0px"
	 viewBox="0 0 445.9 312.1" style="enable-background:new 0 0 445.9 312.1;" xml:space="preserve">
<style type="text/css">
	.st0{fill-rule:evenodd;clip-rule:evenodd;fill:#423d51;}
</style>
<g>
	<path class="st0" d="M110.8,149.3c-1.6,1.1-2.3,2.7-2.3,5c0,1.4,0.3,2.6,0.8,3.4c0.3,0.5,0.5,0.7,1.5,1.5c0,0,2.3,1.8,7.6,1.5
		c3.7-0.2,7-0.9,7-0.9V148c0,0-3.3-0.6-7-0.6C113,147.4,110.8,149.3,110.8,149.3z"/>
	<path class="st0" d="M176.1,132.4c-3.4,0-5.8,1.3-7.4,3.8c-1,1.6-1.7,3.6-2.1,6.1l18.4,0c-0.2-2.4-0.6-4.5-1.7-6.1
		C181.7,133.8,179.5,132.4,176.1,132.4z"/>
	<path class="st0" d="M280,132.6c-3.4,0-5.8,1.2-7.4,3.6c-1.6,2.4-2.4,5.9-2.4,10.3c0,4.4,0.8,7.9,2.4,10.4c1.6,2.4,4,3.6,7.4,3.6
		c3.4,0,5.8-1.2,7.4-3.6c1.6-2.5,2.5-6,2.5-10.4c0-4.4-0.8-7.9-2.5-10.3C285.8,133.8,283.4,132.6,280,132.6z"/>
	<path class="st0" d="M383.1,132.4c-3.4,0-5.8,1.3-7.4,3.8c-1,1.6-1.7,3.6-2.1,6.1l18.4,0c-0.2-2.4-0.6-4.5-1.7-6.1
		C388.7,133.8,386.5,132.4,383.1,132.4z"/>
	<path class="st0" d="M349.8,42.3c-13.8,0-27,3-38.9,8.3c-13.7-24.4-39.4-40.8-68.8-40.8c-22.1,0-42.2,9.3-56.5,24.3
		c-15.8-20.7-40.8-34-68.9-34C68.9,0,30.1,38.7,30.1,86.5c0,12.2,2.5,23.9,7.1,34.4C15,133.9,0,158.2,0,186
		c0,41.5,33.3,75.2,74.4,75.2c5.2,0,10.4-0.6,15.3-1.6c11.3,30.6,40.7,52.5,75.2,52.5c33.1,0,61.6-20.1,73.8-48.9
		c9.3,4.5,19.7,7.1,30.7,7.1c26.3,0,49.3-14.5,61.3-36c6.1,1.2,12.5,1.9,18.9,1.9c53.1,0,96.1-43.4,96.1-97
		C445.9,85.7,402.9,42.3,349.8,42.3z M95.5,154.8c0,7.8-5.7,12.7-14.8,12.7c-4.5,0-8.8-0.7-13.3-3.1c-0.9-0.5-1.7-0.9-2.5-1.5
		c-0.1-0.1-0.5-0.3-0.2-1l1.8-5c0.3-0.9,0.9-0.6,1.2-0.4c0.5,0.3,0.9,0.6,1.5,1c5.3,3.4,10.2,3.4,11.8,3.4c4,0,6.4-2.1,6.4-4.9v-0.2
		c0-3.1-3.8-4.3-8.2-5.6l-1-0.3c-6-1.7-12.5-4.2-12.5-11.8v-0.2c0-7.2,5.8-12.3,14.2-12.3l0.9,0c4.9,0,9.7,1.4,13.1,3.5
		c0.3,0.2,0.6,0.6,0.4,1c-0.2,0.4-1.7,4.5-1.9,5c-0.3,0.9-1.2,0.3-1.2,0.3c-3-1.7-7.7-3-11.6-3c-3.5,0-5.8,1.9-5.8,4.4v0.2
		c0,3,3.9,4.3,8.4,5.7l0.8,0.2c6,1.9,12.4,4.5,12.4,11.8V154.8z M132.9,165c0,0-1,0.3-1.8,0.5c-0.9,0.2-4,0.8-6.5,1.3
		c-2.6,0.4-5.2,0.7-7.9,0.7c-2.5,0-4.8-0.2-6.8-0.7c-2.1-0.5-3.8-1.2-5.3-2.3c-1.4-1-2.6-2.4-3.4-4c-0.8-1.6-1.2-3.6-1.2-5.9
		c0-2.2,0.5-4.2,1.4-6c0.9-1.7,2.2-3.1,3.7-4.3c1.6-1.1,3.4-2,5.4-2.5c2-0.5,4.2-0.8,6.4-0.8c1.6,0,3,0,4,0.1c0,0,2,0.2,4.3,0.5
		v-1.1c0-3.4-0.7-5.1-2.1-6.2c-1.4-1.1-3.6-1.7-6.4-1.7c0,0-6.3-0.1-11.3,2.6c-0.2,0.1-0.4,0.2-0.4,0.2s-0.6,0.2-0.9-0.4l-1.8-4.9
		c-0.3-0.7,0.2-1,0.2-1c2.3-1.8,8-2.9,8-2.9c1.9-0.4,5-0.6,6.9-0.6c5.2,0,9.2,1.2,11.9,3.6c2.7,2.4,4.1,6.2,4.1,11.4l0,23.6
		C133.5,164.2,133.6,164.8,132.9,165z M150.3,165.7c0,0.4-0.3,0.8-0.7,0.8h-6.9c-0.4,0-0.7-0.4-0.7-0.8v-55.2c0-0.4,0.3-0.8,0.7-0.8
		h6.9c0.4,0,0.7,0.3,0.7,0.8V165.7z M193.1,148c-0.1,0.7-0.8,0.7-0.8,0.7l-25.8,0c0.2,3.9,1.1,6.7,3,8.6c1.9,1.9,4.8,3,8.8,3
		c6.1,0,8.8-1.2,10.6-1.9c0,0,0.7-0.3,1,0.4l1.7,4.7c0.3,0.8,0.1,1.1-0.2,1.2c-1.6,0.9-5.6,2.6-13,2.6c-3.6,0-6.8-0.5-9.4-1.5
		c-2.6-1-4.8-2.5-6.5-4.3c-1.7-1.8-3-4.1-3.7-6.6c-0.8-2.5-1.2-5.3-1.2-8.3c0-2.9,0.4-5.7,1.1-8.2c0.8-2.6,1.9-4.8,3.5-6.7
		c1.6-1.9,3.6-3.4,6-4.5c2.4-1.1,5.3-1.7,8.5-1.7c2.8,0,5.3,0.6,7.4,1.5c1.6,0.7,3.2,1.9,4.9,3.7c1,1.1,2.7,3.6,3.3,6
		C194,142.7,193.1,147.7,193.1,148z M214.6,167.5c-4.5,0-8.8-0.7-13.3-3.1c-0.9-0.5-1.7-0.9-2.5-1.5c-0.1-0.1-0.5-0.3-0.2-1l1.8-5
		c0.3-0.8,1-0.5,1.2-0.4c0.5,0.3,0.9,0.6,1.5,1c5.3,3.4,10.2,3.4,11.8,3.4c4,0,6.4-2.1,6.4-4.9v-0.2c0-3.1-3.8-4.3-8.2-5.6l-1-0.3
		c-6-1.7-12.5-4.2-12.5-11.8v-0.2c0-7.2,5.8-12.3,14.2-12.3l0.9,0c4.9,0,9.7,1.4,13.1,3.5c0.3,0.2,0.6,0.6,0.4,1
		c-0.2,0.4-1.7,4.5-1.9,5c-0.3,0.9-1.2,0.3-1.2,0.3c-3-1.7-7.7-3-11.6-3c-3.5,0-5.8,1.9-5.8,4.4v0.2c0,3,3.9,4.3,8.4,5.7l0.8,0.2
		c6,1.9,12.4,4.5,12.4,11.8v0.2C229.4,162.7,223.7,167.5,214.6,167.5z M259.7,132.6c-0.1,0.8-0.9,0.8-0.9,0.8h-8.5l-5.8,32.9
		c-0.6,3.4-1.4,6.3-2.3,8.7c-0.9,2.4-1.9,4.1-3.4,5.8c-1.4,1.5-3,2.7-4.8,3.3c-1.8,0.6-4,1-6.3,1c-1.1,0-2.3,0-3.8-0.4
		c-1-0.2-1.6-0.4-2.4-0.7c-0.3-0.1-0.6-0.5-0.4-1c0.2-0.5,1.7-4.7,1.9-5.3c0.3-0.7,0.9-0.4,0.9-0.4c0.5,0.2,0.8,0.3,1.4,0.4
		c0.6,0.1,1.4,0.2,2.1,0.2c1.1,0,2.1-0.1,3-0.4c1.1-0.4,1.7-1,2.4-1.8c0.7-0.9,1.2-2.1,1.8-3.7c0.6-1.6,1.1-3.8,1.5-6.4l5.8-32.3
		h-5.7c-0.7,0-0.9-0.3-0.8-0.8l1-5.4c0.1-0.8,0.9-0.8,0.9-0.8h5.9l0.3-1.8c0.9-5.2,2.6-9.1,5.2-11.7c2.6-2.6,6.3-3.9,10.9-3.9
		c1.3,0,2.5,0.1,3.5,0.3c1,0.2,1.7,0.3,2.6,0.6c0.2,0.1,0.7,0.3,0.5,0.9l-2,5.4c-0.2,0.4-0.3,0.7-1.1,0.4c-0.2-0.1-0.5-0.2-1.3-0.3
		c-0.6-0.1-1.3-0.2-2.1-0.2c-1,0-2,0.1-2.8,0.4c-0.8,0.3-1.5,0.7-2.2,1.4c-0.6,0.6-1.4,1.6-1.8,2.8c-1,2.7-1.3,5.6-1.4,5.8h8.3
		c0.7,0,0.9,0.3,0.8,0.8L259.7,132.6z M297.5,154.7c-0.7,2.5-1.9,4.8-3.5,6.6c-1.6,1.9-3.5,3.4-5.9,4.4c-2.3,1.1-5.1,1.6-8.2,1.6
		c-3.1,0-5.9-0.5-8.2-1.6c-2.3-1.1-4.3-2.6-5.9-4.4c-1.6-1.9-2.7-4.1-3.5-6.6c-0.7-2.5-1.1-5.3-1.1-8.2c0-2.9,0.4-5.7,1.1-8.2
		c0.7-2.5,1.9-4.8,3.5-6.6c1.6-1.9,3.5-3.4,5.9-4.5c2.3-1.1,5.1-1.6,8.2-1.6c3.1,0,5.8,0.6,8.2,1.6c2.3,1.1,4.3,2.6,5.9,4.5
		c1.6,1.9,2.7,4.1,3.5,6.6c0.7,2.5,1.1,5.3,1.1,8.2C298.7,149.4,298.3,152.2,297.5,154.7z M329.5,127.7c-0.2,0.7-1.5,4.2-1.9,5.4
		c-0.2,0.4-0.4,0.8-1,0.7c0,0-1.5-0.4-2.8-0.4c-0.9,0-2.3,0.1-3.5,0.5c-1.2,0.4-2.3,1-3.2,1.9s-1.7,2.2-2.3,3.8
		c-0.6,1.6-0.9,4.2-0.9,6.8v19.3c0,0.4-0.3,0.8-0.8,0.8h-6.8c-0.4,0-0.8-0.3-0.8-0.8v-38.6c0-0.4,0.3-0.8,0.7-0.8h6.6
		c0.4,0,0.7,0.3,0.7,0.8l0,3.2c1-1.3,2.8-2.5,4.4-3.2c1.6-0.7,3.4-1.3,6.7-1.1c1.7,0.1,3.9,0.6,4.3,0.7
		C329.3,126.9,329.7,127.1,329.5,127.7z M361.8,165.4c-2.9,1.1-6.9,1.9-10.8,1.9c-6.6,0-11.7-1.9-15.1-5.7
		c-3.4-3.7-5.1-8.9-5.1-15.2c0-2.9,0.4-5.7,1.2-8.2c0.8-2.5,2.1-4.8,3.7-6.6c1.6-1.9,3.7-3.4,6.2-4.5c2.4-1.1,5.3-1.6,8.5-1.6
		c2.1,0,4.1,0.1,5.7,0.4c1.8,0.3,4.1,0.9,5.1,1.3c0.2,0.1,0.7,0.3,0.5,0.9c-0.7,2-1.2,3.4-1.9,5.2c-0.3,0.8-0.9,0.5-0.9,0.5
		c-2.5-0.8-4.9-1.2-8.1-1.2c-3.8,0-6.6,1.3-8.5,3.7c-1.9,2.5-2.9,5.7-2.9,10.1c0,4.8,1.2,8.3,3.3,10.4c2.1,2.2,5,3.3,8.7,3.3
		c1.5,0,2.9-0.1,4.2-0.3c1.3-0.2,2.4-0.6,3.6-1c0,0,0.7-0.3,1,0.5l1.9,5.2C362.4,165.2,361.8,165.4,361.8,165.4z M400.1,148
		c-0.1,0.7-0.8,0.7-0.8,0.7l-25.8,0c0.2,3.9,1.1,6.7,3,8.6c1.9,1.9,4.8,3,8.8,3c6.1,0,8.8-1.2,10.6-1.9c0,0,0.7-0.3,1,0.4l1.7,4.7
		c0.3,0.8,0.1,1.1-0.2,1.2c-1.6,0.9-5.6,2.6-13,2.6c-3.6,0-6.8-0.5-9.4-1.5c-2.6-1-4.8-2.5-6.5-4.3c-1.7-1.8-3-4.1-3.7-6.6
		c-0.8-2.5-1.2-5.3-1.2-8.3c0-2.9,0.4-5.7,1.1-8.2c0.8-2.6,1.9-4.8,3.5-6.7c1.6-1.9,3.6-3.4,6-4.5c2.4-1.1,5.3-1.7,8.5-1.7
		c2.8,0,5.3,0.6,7.4,1.5c1.6,0.7,3.2,1.9,4.9,3.7c1,1.1,2.7,3.6,3.3,6C401,142.7,400.1,147.7,400.1,148z"/>
</g>
</svg>
