
<svg width="39px" height="39px" viewBox="441 174 39 39" version="1.1" xmlns="http://www.w3.org/2000/svg" xmlns:xlink="http://www.w3.org/1999/xlink">
    <!-- Generator: Sketch 39.1 (31720) - http://www.bohemiancoding.com/sketch -->
    <desc>Created with Sketch.</desc>
    <defs></defs>
    <g id="Page-1" stroke="none" stroke-width="1" fill="none" fill-rule="evenodd" transform="translate(441.000000, 174.000000)">
        <path d="M39,19.5 C39,30.2697353 30.2697353,39 19.5,39 C8.73026471,39 0,30.2697353 0,19.5 C0,8.73026471 8.73026471,0 19.5,0 C30.2697353,0 39,8.73026471 39,19.5" id="Fill-1" fill="#FFCC4D"></path>
        <path d="M0.275523529,11.4907765 C0.550817647,11.7649235 1.92384706,12.5896588 2.19914118,13.4121 C2.47443529,14.2345412 3.02502353,18.8996294 4.67449412,20.2726588 C6.37672941,21.6869824 12.7922294,21.1604824 14.0218765,20.5479529 C16.7713765,19.1772176 17.1086118,15.3506294 17.5949647,13.4121 C17.8691118,12.3143647 19.5185824,12.3143647 19.5185824,12.3143647 C19.5185824,12.3143647 21.1692,12.3143647 21.4433471,13.4109529 C21.9297,15.3506294 22.2692294,19.1772176 25.0164353,20.5468059 C26.2472294,21.1604824 32.6627294,21.6869824 34.3672588,20.2726588 C36.0132882,18.8996294 36.5638765,14.2345412 36.8391706,13.4109529 C37.1121706,12.5885118 38.4874941,11.7649235 38.7627882,11.4907765 C39.0392294,11.2166294 39.0392294,10.1188941 38.7627882,9.8436 C38.2133471,9.29530588 31.7267294,8.80665882 24.7422882,9.56945294 C23.3486118,9.72201176 22.8186706,10.1188941 19.5185824,10.1188941 C16.2207882,10.1188941 15.6885529,9.72201176 14.2960235,9.5706 C7.31387647,8.80665882 0.824964706,9.29530588 0.275523529,9.8436 C0.00137647059,10.1188941 0.00137647059,11.2166294 0.275523529,11.4907765" id="Fill-3" fill="#292F33"></path>
        <path d="M30.2077941,25.9566794 C30.0036176,25.7720029 29.6985,25.7605324 29.4794118,25.9234147 C29.4346765,25.9566794 24.9806471,29.2498853 19.5,29.2498853 C14.0331176,29.2498853 9.56417647,25.9566794 9.52058824,25.9234147 C9.3015,25.7605324 8.99638235,25.7742971 8.79220588,25.9566794 C8.58917647,26.1402088 8.54329412,26.4430324 8.68438235,26.6770324 C8.83235294,26.92365 12.3744706,32.6910618 19.5,32.6910618 C26.6255294,32.6910618 30.1687941,26.92365 30.3156176,26.6770324 C30.4567059,26.4418853 30.4119706,26.1402088 30.2077941,25.9566794" id="Fill-5" fill="#664500"></path>
    </g>
</svg>