<?xml version="1.0" encoding="utf-8"?>
<!-- Generator: Adobe Illustrator 21.0.2, SVG Export Plug-In . SVG Version: 6.00 Build 0)  -->
<svg version="1.1"
	 id="Layer_1" inkscape:version="0.48.4 r9939" sodipodi:docname="venmo_logo_blue (1).svg" xmlns:cc="http://creativecommons.org/ns#" xmlns:dc="http://purl.org/dc/elements/1.1/" xmlns:inkscape="http://www.inkscape.org/namespaces/inkscape" xmlns:rdf="http://www.w3.org/1999/02/22-rdf-syntax-ns#" xmlns:sodipodi="http://sodipodi.sourceforge.net/DTD/sodipodi-0.dtd" xmlns:svg="http://www.w3.org/2000/svg"
	 xmlns="http://www.w3.org/2000/svg" xmlns:xlink="http://www.w3.org/1999/xlink" x="0px" y="0px" viewBox="0 0 576.9 109.7"
	 style="enable-background:new 0 0 576.9 109.7;" xml:space="preserve">
<style type="text/css">
	.st0{fill:#423d51;}
</style>
<sodipodi:namedview  bordercolor="#666666" borderopacity="1" fit-margin-bottom="0" fit-margin-left="0" fit-margin-right="0" fit-margin-top="0" gridtolerance="10" guidetolerance="10" id="namedview15" inkscape:current-layer="Layer_1" inkscape:cx="288.447" inkscape:cy="54.691" inkscape:pageopacity="0" inkscape:pageshadow="2" inkscape:window-height="480" inkscape:window-maximized="0" inkscape:window-width="640" inkscape:window-x="0" inkscape:window-y="24" inkscape:zoom="0.36868687" objecttolerance="10" pagecolor="#ffffff" showgrid="false">
	</sodipodi:namedview>
<g id="g3" transform="translate(-107.553,-250.999)">
	<path id="path5" inkscape:connector-curvature="0" class="st0" d="M202.4,251c3.9,6.4,5.7,13.1,5.7,21.4
		c0,26.7-22.8,61.4-41.3,85.7h-42.2l-16.9-101.3l37-3.5l9,72.1c8.4-13.6,18.7-35.1,18.7-49.7c0-8-1.4-13.4-3.5-17.9L202.4,251
		L202.4,251z"/>
	<path id="path7" inkscape:connector-curvature="0" class="st0" d="M250.3,295.6c6.8,0,23.9-3.1,23.9-12.9c0-4.7-3.3-7-7.2-7
		C260.2,275.7,251.3,283.9,250.3,295.6L250.3,295.6z M249.5,314.9c0,11.9,6.6,16.6,15.4,16.6c9.5,0,18.7-2.3,30.6-8.4l-4.5,30.4
		c-8.4,4.1-21.4,6.8-34.1,6.8c-32.1,0-43.6-19.5-43.6-43.8c0-31.6,18.7-65.1,57.3-65.1c21.2,0,33.1,11.9,33.1,28.5
		C303.7,306.5,269.4,314.7,249.5,314.9L249.5,314.9z"/>
	<path id="path9" inkscape:connector-curvature="0" class="st0" d="M410.4,274.8c0,3.9-0.6,9.5-1.2,13.2l-11.1,70.1h-36l10.1-64.3
		c0.2-1.7,0.8-5.3,0.8-7.2c0-4.7-2.9-5.8-6.4-5.8c-4.7,0-9.3,2.1-12.5,3.7l-11.5,73.6h-36.2l16.5-105h31.4l0.4,8.4
		c7.4-4.9,17.1-10.1,31-10.1C404,251.4,410.4,260.7,410.4,274.8L410.4,274.8z"/>
	<path id="path11" inkscape:connector-curvature="0" class="st0" d="M517.3,262.9c10.3-7.4,20.1-11.5,33.5-11.5
		c18.5,0,24.9,9.4,24.9,23.4c0,3.9-0.6,9.5-1.2,13.2l-11.1,70.1h-36l10.3-65.7c0.2-1.8,0.6-3.9,0.6-5.3c0-5.3-2.9-6.4-6.4-6.4
		c-4.5,0-8.9,1.9-12.3,3.7l-11.5,73.6h-36l10.3-65.7c0.2-1.8,0.6-3.9,0.6-5.3c0-5.3-2.9-6.4-6.4-6.4c-4.7,0-9.3,2.1-12.5,3.7
		l-11.5,73.6h-36.2l16.5-105h31l1,8.8c7.2-5.3,16.9-10.5,30-10.5C506.2,251.4,513.6,256.3,517.3,262.9L517.3,262.9z"/>
	<path id="path13" inkscape:connector-curvature="0" class="st0" d="M647.4,293.5c0-8.6-2.1-14.4-8.6-14.4
		c-14.2,0-17.1,25.1-17.1,38c0,9.8,2.7,15.8,9.1,15.8C644.3,332.8,647.4,306.3,647.4,293.5z M585.1,315.5
		c0-33.1,17.5-64.1,57.8-64.1c30.4,0,41.5,17.9,41.5,42.7c0,32.7-17.3,66.6-58.6,66.6C595.3,360.7,585.1,340.6,585.1,315.5z"/>
</g>
</svg>
