<?xml version="1.0" encoding="UTF-8" standalone="no"?>
<svg width="51px" height="51px" viewBox="0 0 51 51" version="1.1" xmlns="http://www.w3.org/2000/svg" xmlns:xlink="http://www.w3.org/1999/xlink">
    <!-- Generator: Sketch 41.2 (35397) - http://www.bohemiancoding.com/sketch -->
    <title>Bid How It Works Icon</title>
    <desc>Created with Sketch.</desc>
    <defs>
        <polygon id="path-1" points="-0.000314196428 31.4196429 31.4193287 31.4196429 31.4193287 0.000314196428 -0.000314196428 0.000314196428"></polygon>
    </defs>
    <g id="Page-1" stroke="none" stroke-width="1" fill="none" fill-rule="evenodd">
        <g id="Bid-How-It-Works-Icon">
            <path d="M16.888058,22.3155657 L16.888058,24.8534873 L14.5315848,24.8534873 L14.5315848,22.287288 C12.711602,21.8262048 11.2749388,20.2937117 11.2749388,17.9011059 L13.3957647,17.9011059 C13.3957647,19.5797003 14.4467518,20.5379994 15.9030522,20.5379994 C17.0836453,20.5379994 18.0238781,19.7815715 18.0238781,18.6206157 C18.0238781,17.3112021 16.8621368,16.8870369 15.9768884,16.573626 C13.6164877,15.7433619 11.7171703,15.0246376 11.7171703,12.4427284 C11.7171703,10.7130771 12.9299685,9.48142708 14.5315848,9.06668779 L14.5315848,6.33946279 L16.888058,6.33946279 L16.888058,9.06904426 C18.6114254,9.52462908 19.8312931,10.9683617 19.8312931,12.9407298 L17.7104672,12.9407298 C17.7104672,11.6682342 16.9728911,10.8018376 15.7742317,10.8018376 C14.7232446,10.8018376 13.8379962,11.3548233 13.8379962,12.4427284 C13.8379962,13.4937155 14.7601627,13.9917168 15.7192473,14.3420458 C17.729319,15.0607702 20.144704,15.9091005 20.144704,18.3810409 C20.144704,20.5890563 18.7394605,21.9267476 16.888058,22.3155657 M15.7098214,-0.000235647321 C7.03328705,-0.000235647321 0,7.0338369 0,15.7095858 C0,24.3861202 7.03328705,31.4194072 15.7098214,31.4194072 C16.0727183,31.4194072 16.4277603,31.3895585 16.7843732,31.3652083 C18.1118531,23.961955 23.9621906,18.112403 31.365444,16.7841376 C31.3897942,16.4275246 31.4196429,16.0724827 31.4196429,15.7095858 C31.4196429,7.0338369 24.3863558,-0.000235647321 15.7098214,-0.000235647321" id="Fill-1" fill="#FFFFFF"></path>
            <path d="M30.0588581,29.3730459 C30.0588581,28.7234448 29.5302226,28.1948093 28.8806215,28.1948093 C28.2310204,28.1948093 27.7023849,28.7234448 27.7023849,29.3730459 C27.7023849,30.022647 28.2310204,30.5512825 28.8806215,30.5512825 C29.5302226,30.5512825 30.0588581,30.022647 30.0588581,29.3730459" id="Fill-4" fill="#FFFFFF"></path>
            <path d="M40.5467349,38.6731816 C39.8971338,38.6731816 39.3684983,39.2018171 39.3684983,39.8514182 C39.3684983,40.5010193 39.8971338,41.0296548 40.5467349,41.0296548 C41.196336,41.0296548 41.7249715,40.5010193 41.7249715,39.8514182 C41.7249715,39.2018171 41.196336,38.6731816 40.5467349,38.6731816" id="Fill-6" fill="#FFFFFF"></path>
            <g id="Group-10" transform="translate(18.851786, 18.851786)">
                <mask id="mask-2" fill="white">
                    <use xlink:href="#path-1"></use>
                </mask>
                <g id="Clip-9"></g>
                <path d="M21.6949492,24.5343423 C19.7461458,24.5343423 18.1602394,22.9484358 18.1602394,20.9996325 C18.1602394,19.0508292 19.7461458,17.4649227 21.6949492,17.4649227 C23.6437525,17.4649227 25.229659,19.0508292 25.229659,20.9996325 C25.229659,22.9484358 23.6437525,24.5343423 21.6949492,24.5343423 L21.6949492,24.5343423 Z M11.4026597,24.3505374 L8.69821393,24.3505374 L20.0147838,7.06973384 L22.7098037,7.06973384 L11.4026597,24.3505374 Z M6.49412598,10.5211816 C6.49412598,8.57237826 8.08003246,6.98647179 10.0288358,6.98647179 C11.9776392,6.98647179 13.5635456,8.57237826 13.5635456,10.5211816 C13.5635456,12.4707704 11.9776392,14.0558914 10.0288358,14.0558914 C8.08003246,14.0558914 6.49412598,12.4707704 6.49412598,10.5211816 L6.49412598,10.5211816 Z M15.7095072,0.000314196428 C7.03375835,0.000314196428 -0.000314196428,7.03360125 -0.000314196428,15.7101356 C-0.000314196428,24.3858845 7.03375835,31.4199571 15.7095072,31.4199571 C24.3860416,31.4199571 31.4193287,24.3858845 31.4193287,15.7101356 C31.4193287,7.03360125 24.3860416,0.000314196428 15.7095072,0.000314196428 L15.7095072,0.000314196428 Z" id="Fill-8" fill="#FFFFFF" mask="url(#mask-2)"></path>
            </g>
        </g>
    </g>
</svg>