<?xml version="1.0" encoding="UTF-8" standalone="no"?>
<svg width="56px" height="64px" viewBox="0 0 56 64" version="1.1" xmlns="http://www.w3.org/2000/svg" xmlns:xlink="http://www.w3.org/1999/xlink">
    <!-- Generator: Sketch 39.1 (31720) - http://www.bohemiancoding.com/sketch -->
    <title>Protect Icon</title>
    <desc>Created with Sketch.</desc>
    <defs></defs>
    <g id="Page-1" stroke="none" stroke-width="1" fill="none" fill-rule="evenodd">
        <g id="How-It-Works-Mobile" transform="translate(-160.000000, -4391.000000)" fill="#FFFFFF">
            <g id="Why-use-Loom" transform="translate(-84.000000, 3393.000000)">
                <g id="Protect" transform="translate(59.000000, 998.000000)">
                    <path d="M197.012,39.2098 L228.762,39.2098 L228.762,36.2098 L197.012,36.2098 L197.012,39.2098 Z M197.012,48.3208 L228.762,48.3208 L228.762,45.3208 L197.012,45.3208 L197.012,48.3208 Z M197.012,57.2498 L228.762,57.2498 L228.762,54.2498 L197.012,54.2498 L197.012,57.2498 Z M222.497,29.6398 L203.497,29.6398 L203.497,19.4998 C203.497,14.2618 207.759,9.9998 212.997,9.9998 C218.235,9.9998 222.497,14.2618 222.497,19.4998 L222.497,29.6398 Z M196.387,19.4998 C196.387,10.4028 203.789,2.9998 212.887,2.9998 C221.984,2.9998 229.387,10.4028 229.387,19.4998 L229.387,29.6398 L225.497,29.6398 L225.497,19.4998 C225.497,12.6078 219.89,6.9998 212.997,6.9998 C206.105,6.9998 200.497,12.6078 200.497,19.4998 L200.497,29.6398 L196.387,29.6398 L196.387,19.4998 Z M238.994,29.6398 L232.387,29.6398 L232.387,19.4998 C232.387,8.7478 223.639,-0.0002 212.887,-0.0002 C202.135,-0.0002 193.387,8.7478 193.387,19.4998 L193.387,29.6398 L187,29.6398 C185.9,29.6398 185,30.5408 185,31.6398 L185,61.9998 C185,63.0998 185.9,63.9998 187,63.9998 L238.994,63.9998 C240.094,63.9998 240.994,63.0998 240.994,61.9998 L240.994,31.6398 C240.994,30.5408 240.094,29.6398 238.994,29.6398 L238.994,29.6398 Z" id="Protect-Icon"></path>
                </g>
            </g>
        </g>
    </g>
</svg>