<?xml version="1.0" encoding="UTF-8" standalone="no"?>
<svg width="64px" height="62px" viewBox="0 0 64 62" version="1.1" xmlns="http://www.w3.org/2000/svg" xmlns:xlink="http://www.w3.org/1999/xlink">
    <!-- Generator: Sketch 39.1 (31720) - http://www.bohemiancoding.com/sketch -->
    <title>Talent Icon</title>
    <desc>Created with Sketch.</desc>
    <defs>
        <polygon id="path-1" points="0 61.1789 64 61.1789 64 -0.0001 0 -0.0001"></polygon>
    </defs>
    <g id="Page-1" stroke="none" stroke-width="1" fill="none" fill-rule="evenodd">
        <g id="How-It-Works-Mobile" transform="translate(-156.000000, -3594.000000)">
            <g id="Why-use-Loom" transform="translate(-84.000000, 3393.000000)">
                <g id="Talent" transform="translate(59.000000, 201.000000)">
                    <g id="Talent-Icon" transform="translate(181.000000, 0.000000)">
                        <mask id="mask-2" fill="white">
                            <use xlink:href="#path-1"></use>
                        </mask>
                        <g id="Clip-2"></g>
                        <path d="M39.8426,40.7726 L37.7216,38.6516 L43.1136,33.2596 L37.7216,27.8686 L39.8426,25.7476 L47.3556,33.2596 L39.8426,40.7726 Z M29.8756,47.0996 L26.9776,46.3286 L34.1026,19.5786 L37.0006,20.3496 L29.8756,47.0996 Z M26.2796,38.6516 L24.1576,40.7726 L16.6446,33.2596 L24.1576,25.7476 L26.2796,27.8686 L20.8866,33.2596 L26.2796,38.6516 Z M63.0376,26.3896 C64.9226,24.5526 63.8826,21.3506 61.2766,20.9716 L44.6676,18.5586 C43.6336,18.4086 42.7386,17.7586 42.2766,16.8206 L34.8486,1.7706 C33.6836,-0.5904 30.3166,-0.5904 29.1516,1.7706 L21.7236,16.8206 C21.2616,17.7586 20.3666,18.4086 19.3326,18.5586 L2.7226,20.9716 C0.1176,21.3506 -0.9224,24.5526 0.9626,26.3896 L12.9816,38.1056 C13.7296,38.8346 14.0716,39.8866 13.8946,40.9166 L11.0576,57.4586 C10.6126,60.0536 13.3356,62.0326 15.6666,60.8066 L30.5216,52.9966 C31.4476,52.5106 32.5526,52.5106 33.4776,52.9966 L48.3336,60.8066 C50.6646,62.0326 53.3876,60.0536 52.9426,57.4586 L50.1056,40.9166 C49.9286,39.8866 50.2706,38.8346 51.0186,38.1056 L63.0376,26.3896 Z" id="Fill-1" fill="#FFFFFF" mask="url(#mask-2)"></path>
                    </g>
                </g>
            </g>
        </g>
    </g>
</svg>