<?xml version="1.0" encoding="UTF-8" standalone="no"?>
<svg width="47px" height="64px" viewBox="0 0 47 64" version="1.1" xmlns="http://www.w3.org/2000/svg" xmlns:xlink="http://www.w3.org/1999/xlink">
    <!-- Generator: Sketch 39.1 (31720) - http://www.bohemiancoding.com/sketch -->
    <title>Reviews Icon</title>
    <desc>Created with Sketch.</desc>
    <defs>
        <polygon id="path-1" points="0 64 64 64 64 0 0 0"></polygon>
    </defs>
    <g id="Page-1" stroke="none" stroke-width="1" fill="none" fill-rule="evenodd">
        <g id="How-It-Works-Mobile" transform="translate(-165.000000, -4125.000000)">
            <g id="Why-use-Loom" transform="translate(-84.000000, 3393.000000)">
                <g id="Ratings" transform="translate(59.000000, 732.000000)">
                    <g id="Reviews-Icon" transform="translate(181.000000, 0.000000)">
                        <path d="M32.0195,0.1262 C30.2335,0.1262 28.7805,1.5792 28.7805,3.3652 C28.7805,5.1502 30.2335,6.6042 32.0195,6.6042 C33.8045,6.6042 35.2575,5.1502 35.2575,3.3652 C35.2575,1.5792 33.8045,0.1262 32.0195,0.1262 L32.0195,0.1262 Z" id="Fill-1" fill="#FFFFFF"></path>
                        <path d="M39.8535,4.8655 L38.0675,4.8655 C37.3935,7.5815 34.9415,9.6035 32.0195,9.6035 C29.0975,9.6035 26.6445,7.5815 25.9705,4.8655 L23.8535,4.8655 C23.0265,4.8655 22.3535,5.5385 22.3535,6.3655 L22.3535,11.3655 C22.3535,12.1925 23.0265,12.8655 23.8535,12.8655 L39.8535,12.8655 C40.6805,12.8655 41.3535,12.1925 41.3535,11.3655 L41.3535,6.3655 C41.3535,5.5385 40.6805,4.8655 39.8535,4.8655" id="Fill-3" fill="#FFFFFF"></path>
                        <mask id="mask-2" fill="white">
                            <use xlink:href="#path-1"></use>
                        </mask>
                        <g id="Clip-6"></g>
                        <path d="M29.167,29.24 L47.329,29.24 L47.329,26.24 L29.167,26.24 L29.167,29.24 Z M29.167,42.25 L47.329,42.25 L47.329,39.25 L29.167,39.25 L29.167,42.25 Z M29.167,55.261 L47.329,55.261 L47.329,52.261 L29.167,52.261 L29.167,55.261 Z M22.207,28.361 L22.659,30.995 L20.293,29.751 L17.927,30.995 L18.379,28.361 L16.464,26.495 L19.11,26.111 L20.293,23.713 L21.476,26.111 L24.121,26.495 L22.207,28.361 Z M22.207,41.371 L22.659,44.006 L20.293,42.762 L17.927,44.006 L18.379,41.371 L16.464,39.505 L19.11,39.121 L20.293,36.724 L21.476,39.121 L24.121,39.505 L22.207,41.371 Z M22.659,56.881 L20.293,55.637 L17.927,56.881 L18.379,54.246 L16.464,52.38 L19.11,51.996 L20.293,49.599 L21.476,51.996 L24.121,52.38 L22.207,54.246 L22.659,56.881 Z M53.019,8 L44.354,8 L44.354,11.365 C44.354,13.847 42.335,15.865 39.854,15.865 L23.854,15.865 C21.372,15.865 19.354,13.847 19.354,11.365 L19.354,8 L11.019,8 C9.915,8 9.019,8.895 9.019,10 L9.019,62 C9.019,63.104 9.915,64 11.019,64 L53.019,64 C54.124,64 55.019,63.104 55.019,62 L55.019,10 C55.019,8.895 54.124,8 53.019,8 L53.019,8 Z" id="Fill-5" fill="#FFFFFF" mask="url(#mask-2)"></path>
                    </g>
                </g>
            </g>
        </g>
    </g>
</svg>