<?xml version="1.0" encoding="UTF-8" standalone="no"?>
<svg width="64px" height="64px" viewBox="0 0 64 64" version="1.1" xmlns="http://www.w3.org/2000/svg" xmlns:xlink="http://www.w3.org/1999/xlink">
    <!-- Generator: Sketch 39.1 (31720) - http://www.bohemiancoding.com/sketch -->
    <title>Support Icon</title>
    <desc>Created with Sketch.</desc>
    <defs></defs>
    <g id="Page-1" stroke="none" stroke-width="1" fill="none" fill-rule="evenodd">
        <g id="How-It-Works-Mobile" transform="translate(-156.000000, -4657.000000)" fill="#FFFFFF">
            <g id="Why-use-Loom" transform="translate(-84.000000, 3393.000000)">
                <g id="Support" transform="translate(59.000000, 1264.000000)">
                    <g id="Support-Icon" transform="translate(181.000000, 0.000000)">
                        <path d="M37.3975,0 L26.4815,0 C25.9255,0 25.4185,0.229 25.0495,0.645 C24.6815,1.061 24.5165,1.593 24.5845,2.144 L26.0265,13.945 C26.1425,14.903 26.9595,15.625 27.9235,15.625 L35.9555,15.625 C36.9195,15.625 37.7365,14.903 37.8525,13.945 L39.2945,2.145 C39.3625,1.593 39.1975,1.061 38.8295,0.645 C38.4605,0.229 37.9535,0 37.3975,0" id="Fill-1"></path>
                        <path d="M37.7451,50.0303 C37.6291,49.0733 36.8121,48.3503 35.8481,48.3503 L27.8161,48.3503 C26.8511,48.3503 26.0351,49.0733 25.9191,50.0303 L24.4761,61.8313 C24.4091,62.3833 24.5741,62.9153 24.9421,63.3313 C25.3091,63.7473 25.8181,63.9753 26.3741,63.9753 L37.2901,63.9753 C37.8451,63.9753 38.3531,63.7473 38.7211,63.3313 C39.0891,62.9153 39.2551,62.3833 39.1871,61.8313 L37.7451,50.0303 Z" id="Fill-3"></path>
                        <path d="M13.9453,26.2315 L2.1443,24.7895 C2.0633,24.7795 1.9833,24.7745 1.9033,24.7745 C1.4393,24.7745 1.0003,24.9405 0.6443,25.2545 C0.2293,25.6235 0.0003,26.1305 0.0003,26.6865 L0.0003,37.6015 C0.0003,38.1575 0.2283,38.6655 0.6443,39.0335 C1.0603,39.4015 1.5933,39.5695 2.1443,39.5005 L13.9453,38.0575 C14.9023,37.9405 15.6253,37.1245 15.6253,36.1595 L15.6253,28.1285 C15.6253,27.1645 14.9033,26.3475 13.9453,26.2315" id="Fill-5"></path>
                        <path d="M62.0723,24.7744 C61.9923,24.7744 61.9123,24.7794 61.8323,24.7894 L50.0313,26.2314 C49.0733,26.3474 48.3503,27.1644 48.3503,28.1284 L48.3503,36.1594 C48.3503,37.1244 49.0733,37.9404 50.0323,38.0574 L61.8313,39.5004 C62.3873,39.5694 62.9153,39.4024 63.3313,39.0344 C63.7473,38.6664 63.9753,38.1574 63.9753,37.6014 L63.9753,26.6864 C63.9753,26.1304 63.7473,25.6224 63.3313,25.2544 C62.9753,24.9404 62.5363,24.7744 62.0723,24.7744" id="Fill-7"></path>
                        <path d="M49.7312,41.044 C47.7682,44.871 44.6122,47.971 40.7492,49.872 L41.8872,59.186 C49.7992,56.296 56.0962,50.057 59.0702,42.186 L49.7312,41.044 Z" id="Fill-9"></path>
                        <path d="M40.8618,14.0571 C44.8028,16.0281 47.9928,19.2551 49.9198,23.2221 L59.2198,22.0851 C56.3228,14.0651 49.9928,7.6901 42.0018,4.7331 L40.8618,14.0571 Z" id="Fill-11"></path>
                        <path d="M22.9272,49.7744 C19.1592,47.8664 16.0822,44.8104 14.1532,41.0554 L4.8132,42.1964 C7.7632,49.9934 13.9752,56.1854 21.7862,59.1064 L22.9272,49.7744 Z" id="Fill-13"></path>
                        <path d="M13.9648,23.211 C15.8918,19.249 19.0798,16.026 23.0168,14.057 L21.8778,4.733 C13.8908,7.689 7.5618,14.06 4.6628,22.074 L13.9648,23.211 Z" id="Fill-15"></path>
                    </g>
                </g>
            </g>
        </g>
    </g>
</svg>